<?xml version="1.0" standalone="no"?>
<!DOCTYPE svg PUBLIC "-//W3C//DTD SVG 1.1//EN" "http://www.w3.org/Graphics/SVG/1.1/DTD/svg11.dtd" >
<svg xmlns="http://www.w3.org/2000/svg">
<metadata>
This is a custom SVG webfont generated by Font Squirrel.
Copyright   : Copyright c Juan Pablo De Gregorio 2004 All rights reserved
Foundry     : Juan Pablo De Gregorio
</metadata>
<defs>
<font id="RomeralRegular" horiz-adv-x="1230" >
<font-face units-per-em="2048" ascent="1638" descent="-410" />
<missing-glyph horiz-adv-x="501" />
<glyph unicode=" "  horiz-adv-x="501" />
<glyph unicode="&#x09;" horiz-adv-x="501" />
<glyph unicode="&#xa0;" horiz-adv-x="501" />
<glyph unicode="!" horiz-adv-x="598" d="M82 1317q-1 11 -1 22q0 100 70 162q77 70 187 70q109 0 187 -76q71 -69 72 -159q0 -9 -1 -19l-61 -838q-6 -82 -61.5 -137t-137.5 -55q-80 0 -132 55t-61 137zM88 -33q0 -106 72.5 -178t175.5 -72q106 0 179 72t73 178q0 104 -74 179t-178 75q-102 0 -175 -75t-73 -179z " />
<glyph unicode="&#x22;" horiz-adv-x="313" d="M-61 1470q-2 45 27.5 73t71.5 28t73.5 -30t29.5 -71l-26 -301q-4 -31 -25.5 -53t-52.5 -22t-52.5 22.5t-25.5 52.5zM190 1470q-2 45 29 73t73 28t72.5 -30t28.5 -71l-26 -301q-4 -31 -24.5 -53t-53.5 -22q-31 0 -51.5 22.5t-24.5 52.5z" />
<glyph unicode="#" horiz-adv-x="1191" d="M0 764l86 237h141l68 183h-143l88 237h143l55 146h252l-53 -146h217l55 146h252l-53 -146h145l-84 -237h-147l-68 -183h150l-82 -237h-156l-51 -141h-256l53 141h-219l-51 -141h-254l53 141h-141zM479 1001h219l68 183h-217z" />
<glyph unicode="$" horiz-adv-x="1183" d="M80 752q0 100 60.5 176t162.5 119v174h238v-127h12q53 0 113 -7v134h237v-162l170 -29v-291h-352q0 4 -1 10.5t-9.5 26t-20.5 33.5t-36.5 26.5t-59.5 12.5q-47 0 -81 -25.5t-34 -54.5q0 -43 46 -68.5t116 -35t150.5 -29t150.5 -49t116 -99t46 -174.5q0 -195 -201 -290 v-201h-237v143q-10 0 -31 -1t-31 -1q-12 0 -32.5 1t-30.5 1v-143h-238v172q-135 29 -221 65v267h354q2 -12 8.5 -31t43 -48.5t92.5 -29.5q51 0 82.5 25.5t31.5 62.5q0 47 -45 71.5t-113.5 31t-148.5 25t-148.5 45t-113.5 97.5t-45 177z" />
<glyph unicode="%" horiz-adv-x="1589" d="M35 746.5q0 142.5 102.5 245t244.5 102.5t246.5 -102.5t104.5 -245t-104.5 -247t-246.5 -104.5t-244.5 104.5t-102.5 247zM223 748q0 -70 47 -117t111 -47q70 0 117 47t47 117q0 63 -47 110t-117 47q-63 0 -110.5 -47t-47.5 -110zM293 -88l874 1309l138 -86l-873 -1313z M874 316.5q0 142.5 102.5 245t245 102.5t247 -102.5t104.5 -245t-104.5 -247t-247 -104.5t-245 104.5t-102.5 247zM1063 317q0 -68 47 -115.5t113 -47.5q68 0 114.5 48t46.5 115q0 63 -47 110.5t-114 47.5q-66 0 -113 -47.5t-47 -110.5z" />
<glyph unicode="&#x26;" horiz-adv-x="1452" d="M49 334q0 76 37 134t85 89t114.5 51.5t109.5 26.5t86 8q-49 2 -104 13.5t-132 41t-126 95t-49 159.5q0 186 140 276.5t386 90.5q141 0 277.5 -24.5t201.5 -47.5l66 -24v-267h-338q-4 41 -37 69t-76 35q-20 3 -40 3l-46 -4q-43 -8 -71.5 -46t-28.5 -93q0 -176 260 -177 v-204q-147 0 -214 -41t-67 -133q0 -86 79 -127q70 -36 154 -37q10 0 21 1q96 5 164 40v297h-98v204h614v-204h-110v-418l-24 -18q-15 -11 -70.5 -36.5t-121 -46t-178 -38t-239.5 -17.5q-281 0 -453 92.5t-172 276.5z" />
<glyph unicode="'" horiz-adv-x="206" d="M4 1470q-2 45 27.5 73t72.5 28t74 -30t29 -71l-27 -301q-4 -31 -24.5 -53t-53.5 -22q-31 0 -51 22.5t-24 52.5z" />
<glyph unicode="(" horiz-adv-x="720" d="M29 624.5q0 272.5 54 480.5t149.5 328.5t211 178t250.5 57.5v-330q-293 0 -293 -714.5t293 -714.5v-332q-135 0 -250.5 59.5t-211 180.5t-149.5 327.5t-54 479z" />
<glyph unicode=")" horiz-adv-x="720" d="M29 -90q293 0 293 714.5t-293 714.5v330q133 0 249.5 -58.5t212 -179t149.5 -327.5t54 -479.5t-54 -480t-149.5 -328.5t-212 -179.5t-249.5 -58.5v332z" />
<glyph unicode="*" horiz-adv-x="958" d="M0 1028q0 66 50 116t119 69.5t139 24.5q12 1 24 1q55 0 90 -20q-12 88 -74 114q-31 -45 -96 -45q-53 0 -92 42t-39 93q0 57 40 98.5t97 41.5q90 0 154.5 -69t90 -145.5t27.5 -138.5q78 49 82 113q-68 33 -67 111q0 61 36.5 97t96 36t98.5 -37t39 -98q0 -121 -79 -200 t-181 -122q55 -50 106 -50q13 0 25 3q20 111 135 110q57 0 95 -36.5t38 -98.5q0 -70 -52 -105.5t-136 -35.5q-160 0 -299 156q-20 -43 -20 -80q0 -35 18 -64q21 4 39 4q48 0 76 -27q39 -38 39 -104q0 -59 -37 -94t-101 -35q-78 0 -126 77t-48 157q0 82 66 207q-24 4 -45 4 q-45 0 -76 -19q18 -43 18 -65q0 -53 -37.5 -89t-95.5 -36q-66 0 -101.5 40t-35.5 99z" />
<glyph unicode="+" horiz-adv-x="704" d="M33 379v237h196v197h236v-197h199v-237h-199v-199h-236v199h-196z" />
<glyph unicode="," horiz-adv-x="514" d="M14 -186q16 4 42 15t79 53t72 95q-66 12 -116 63.5t-50 135.5q0 100 62.5 163.5t156.5 63.5q100 0 169 -63.5t69 -169.5q0 -102 -44 -189t-106.5 -137.5t-126 -86.5t-106.5 -50l-45 -12z" />
<glyph unicode="-" horiz-adv-x="802" d="M33 379v237h735v-237h-735z" />
<glyph unicode="." horiz-adv-x="514" d="M41 197q0 90 62.5 155.5t150.5 65.5q94 0 157.5 -65.5t63.5 -155.5q0 -92 -63.5 -156t-157.5 -64q-90 0 -151.5 64t-61.5 156z" />
<glyph unicode="/" horiz-adv-x="768" d="M-35 -111l649 1729l222 -84l-648 -1729z" />
<glyph unicode="0" horiz-adv-x="1206" d="M41 530q0 250 162 407t401.5 157t401 -158t161.5 -406q0 -246 -162.5 -405.5t-400.5 -159.5q-240 0 -401.5 159.5t-161.5 405.5zM365 530.5q0 -100.5 70.5 -177.5t168.5 -77t169 77t71 177.5t-71 176t-169 75.5t-168.5 -75.5t-70.5 -176z" />
<glyph unicode="1" horiz-adv-x="655" d="M41 639v233h20q184 0 242 146l12 45h207v-731h94v-332h-573v332h102v307h-104z" />
<glyph unicode="2" horiz-adv-x="962" d="M-6 743q0 158 128 254.5t363 96.5q193 0 315 -96.5t122 -241.5q0 -88 -49.5 -168t-114 -130t-148.5 -93t-131 -59.5t-88 -29.5q221 51 522 52v-328h-841v236l54 21q34 13 121 60.5t151.5 97.5t118.5 126.5t54 152.5q0 59 -33.5 92t-88.5 33q-78 0 -110 -46 q-19 -27 -19 -56q0 -19 9 -38q22 -48 79 -54l-50 -185q-2 2 -20.5 -1t-52 4.5t-71.5 13.5t-77 30.5t-70.5 54t-52 81.5t-20.5 120z" />
<glyph unicode="3" horiz-adv-x="1077" d="M41 74v254h317q6 -49 52.5 -78t100.5 -29t92 32t38 87t-40 84t-97 29h-53v137h34q66 0 107 31.5t41 99.5q0 55 -40 88t-101 33q-51 0 -89 -30t-45 -79h-303v254q18 12 54 30.5t149 47.5t234 29q238 0 377 -83t139 -229q0 -76 -34 -130t-85 -77.5t-85 -33t-56 -11.5 q29 -4 60.5 -12t88.5 -32.5t94 -79t37 -132.5q0 -162 -132 -235.5t-404 -73.5q-121 0 -233 27.5t-167 56.5z" />
<glyph unicode="4" horiz-adv-x="1153" d="M35 0v332l616 731h346v-731h123v-332h-123v-293h-387v293h-575zM348 297h262v336z" />
<glyph unicode="5" horiz-adv-x="1026" d="M-18 84l84 250q186 -86 344 -86q111 0 157.5 21.5t46.5 72.5q0 84 -186 84h-369v637h887v-330h-495v-88h147q182 0 291.5 -83t109.5 -232q0 -184 -121.5 -274.5t-385.5 -90.5q-279 0 -496 111z" />
<glyph unicode="6" horiz-adv-x="1089" d="M16 596q0 326 184.5 524.5t526.5 198.5q104 0 194.5 -24.5t131.5 -47.5l37 -24l-72 -250q-121 66 -275 65q-160 0 -257 -79.5t-111 -213.5q43 59 127 90q61 22 127 21q25 0 52 -3q95 -11 182 -55t143.5 -137.5t56.5 -216.5q0 -219 -135 -349t-363 -130q-125 0 -222 38 t-157.5 97.5t-99.5 144.5t-54.5 170t-15.5 181zM395 436q0 -207 152.5 -207t152.5 207q0 209 -152.5 209t-152.5 -209z" />
<glyph unicode="7" horiz-adv-x="972" d="M-2 -303q31 494 412 858q125 119 229 178h-606v330h885v-330l-51 -50q-32 -32 -113.5 -137.5t-145 -219t-119 -285.5t-61.5 -344h-430z" />
<glyph unicode="8" horiz-adv-x="1159" d="M23 336q0 68 34.5 125t75.5 87t102.5 55.5t85 30.5t48.5 11q-20 4 -63.5 20.5t-105 52.5t-105.5 99.5t-44 140.5q0 360 527 361h2q524 -2 524 -361q0 -78 -44 -141t-107.5 -99t-103.5 -52.5t-65 -20.5q350 -82 351 -309q0 -158 -141.5 -264.5t-416 -106.5t-414.5 106.5 t-140 264.5zM406 367q0 -59 47 -101.5t124.5 -42.5t126 42t48.5 102q0 76 -50.5 122t-123.5 64q-72 -18 -122 -64t-50 -122zM426 920q0 -141 152 -185q154 43 153 185q0 70 -44 106.5t-109 36.5h-7q-61 0 -103 -37.5t-42 -105.5z" />
<glyph unicode="9" horiz-adv-x="1089" d="M18 612q0 219 135.5 348.5t362.5 129.5q549 0 549 -674q0 -334 -157.5 -529.5t-493.5 -195.5q-104 0 -194.5 24.5t-131.5 46.5l-39 25l74 250q121 -66 274.5 -66t233.5 98q76 93 76 228v14q-43 -61 -127 -91q-59 -21 -125 -21q-27 0 -55 4q-95 12 -181 55t-143.5 136 t-57.5 218zM381 621q0 -209 152.5 -209t152.5 209q0 207 -152.5 207t-152.5 -207z" />
<glyph unicode=":" horiz-adv-x="514" d="M41 197q0 90 62.5 155.5t150.5 65.5q94 0 157.5 -65.5t63.5 -155.5q0 -92 -63.5 -156t-157.5 -64q-90 0 -151.5 64t-61.5 156zM41 872q0 90 62.5 156t150.5 66q94 0 157.5 -65.5t63.5 -156.5q0 -92 -63.5 -155.5t-157.5 -63.5q-90 0 -151.5 63.5t-61.5 155.5z" />
<glyph unicode=";" horiz-adv-x="514" d="M14 -186q16 4 42 15t79 53t72 95q-66 12 -116 63.5t-50 135.5q0 100 62.5 163.5t156.5 63.5q100 0 169 -63.5t69 -169.5q0 -102 -44 -189t-106.5 -137.5t-126 -86.5t-106.5 -50l-45 -12zM41 872q0 90 62.5 156t150.5 66q94 0 157.5 -65.5t63.5 -156.5q0 -92 -63.5 -155.5 t-157.5 -63.5q-90 0 -151.5 63.5t-61.5 155.5z" />
<glyph unicode="&#x3c;" horiz-adv-x="663" d="M-6 381v287l559 360l129 -203l-465 -301l465 -299l-129 -202z" />
<glyph unicode="=" horiz-adv-x="950" d="M33 248v235h891v-235h-891zM33 580v237h891v-237h-891z" />
<glyph unicode="&#x3e;" horiz-adv-x="663" d="M-39 223l467 301l-467 299l131 203l559 -360v-287l-559 -359z" />
<glyph unicode="?" horiz-adv-x="976" d="M37 1210v265q20 10 61 26.5t155 43t218 26.5q518 0 518 -369q0 -104 -40 -182t-96 -125t-112.5 -89t-96.5 -90t-40 -108v-141h-340v201q0 80 37 138t88 97l101 76q50 37 86 88t36 115q0 117 -141 116q-33 0 -60.5 -9t-43 -22.5t-24.5 -25.5t-13 -20l-2 -11h-291zM227 176 q0 -90 60.5 -150.5t146.5 -60.5q90 0 151.5 60.5t61.5 150.5q0 88 -62.5 150.5t-150.5 62.5q-86 0 -146.5 -62.5t-60.5 -150.5z" />
<glyph unicode="@" horiz-adv-x="1720" d="M2 385q0 231 117 413.5t312.5 280t430.5 97.5q375 0 619.5 -189.5t244.5 -531.5q0 -123 -43 -221.5t-110.5 -154.5t-151.5 -85q-71 -24 -141 -24h-25q-82 5 -153.5 40t-114.5 92q-125 -80 -252 -83h-8q-122 0 -209 95q-90 97 -90 287q0 195 114.5 287t284.5 92 q199 0 394 -75v-400q0 -37 20.5 -61.5t58.5 -24.5q68 0 107 71.5t39 160.5q0 227 -165 344.5t-417 117.5q-242 0 -409.5 -148.5t-167.5 -383.5q0 -238 156.5 -393.5t420.5 -155.5l-2 -252q-412 0 -636 220t-224 585zM717 401q0 -82 22.5 -128t61.5 -53q25 -5 45 -4 q12 0 22 1q29 4 62 19v325q-31 14 -61 20q-12 2 -26 2q-20 0 -42 -4q-39 -7 -61.5 -52.5t-22.5 -125.5z" />
<glyph unicode="A" horiz-adv-x="1316" d="M14 -2v332h47l383 975h428l381 -975h47v-332h-538v332h63l-32 82h-269l-32 -82h65v-332h-543zM575 547h166l-84 207z" />
<glyph unicode="B" horiz-adv-x="1267" d="M49 332h109v622h-107v330h625q82 0 162 -12t173 -43t150.5 -102.5t57.5 -174.5q0 -90 -46.5 -150.5t-113 -86t-109.5 -34.5t-69 -9q27 -4 53.5 -10.5t81.5 -28t97 -52t74 -88t32 -131.5q0 -94 -40 -162.5t-96.5 -106.5t-136.5 -59.5t-138 -27.5t-124 -6h-635v332z M586 778h96q111 0 111 88q0 37 -29 62.5t-82 25.5h-96v-176zM586 332h96q55 0 83 28.5t28 79.5q0 45 -29 75t-82 30h-96v-213z" />
<glyph unicode="C" horiz-adv-x="1216" d="M51 659q0 332 177.5 496t445.5 164q90 0 174 -15.5t138 -35t96 -41t63 -35.5l16 -16v-310h-332q0 4 -3 13.5t-14 30t-26.5 36t-44 28.5t-65.5 13q-86 0 -137.5 -82t-51.5 -239q0 -193 83 -279t214 -86q74 0 159 18.5t130 32.5l47 19l60 -308q-80 -35 -175.5 -59 t-205 -33.5t-214 3t-202.5 58.5t-170 122.5t-117 205.5t-45 299z" />
<glyph unicode="D" horiz-adv-x="1314" d="M49 0v332h109v622h-107v330h580q281 0 458 -179t177 -463t-177.5 -463t-457.5 -179h-582zM586 332q100 10 177 88t77 223t-75 223t-179 86v-620z" />
<glyph unicode="E" d="M49 0v332h109v622h-107v330h1131v-469h-330v139h-266v-176h266v-233h-266v-213h266v176h330v-508h-1133z" />
<glyph unicode="F" d="M49 0v332h109v622h-107v330h1131v-469h-330v139h-266v-200h268v-252h-268v-170h108v-332h-645z" />
<glyph unicode="G" horiz-adv-x="1216" d="M53 662q0 170 49.5 299t136.5 205.5t194.5 114.5t230.5 38q152 0 275.5 -37t172.5 -74l49 -37v-305h-332q0 4 -3 13.5t-14 30t-26.5 36t-44 28.5t-65.5 13q-88 0 -138.5 -80t-50.5 -245q0 -207 83 -302q61 -69 173 -68q42 0 91 9v117h-187v256h529v-615 q-23 -10 -66 -25.5t-163 -42t-232 -26.5q-137 0 -250 36t-209 111.5t-149.5 216t-53.5 333.5z" />
<glyph unicode="H" horiz-adv-x="1464" d="M49 0v332h109v622h-109v330h645v-330h-108v-247h293v247h-109v330h645v-330h-108v-622h106v-332h-643v332h109v239h-293v-239h106v-332h-643z" />
<glyph unicode="I" horiz-adv-x="743" d="M49 0v332h109v622h-109v330h645v-330h-108v-622h106v-332h-643z" />
<glyph unicode="J" horiz-adv-x="733" d="M-215 -422l68 318q68 -20 135 -23h6q64 0 112 40q51 42 52 120v921h-109v330h645v-330h-108v-999q0 -205 -133.5 -315.5t-343.5 -110.5q-92 0 -173 12.5t-116 24.5z" />
<glyph unicode="K" horiz-adv-x="1339" d="M49 0v332h109v622h-109v330h606v-330h-69v-149l350 479h354v-330h-139l-225 -311l225 -311h137v-332h-350l-352 481v-149h67v-332h-604z" />
<glyph unicode="L" horiz-adv-x="1175" d="M49 0v332h109v622h-109v330h645v-330h-108v-622h209v176h331v-508h-1077z" />
<glyph unicode="M" horiz-adv-x="2084" d="M49 0v332h109v622h-109v330h846v-330h-66l213 -581l213 581h-65v330h846v-330h-109v-622h107v-332h-643v332h108v491l-311 -846h-291l-311 846v-491h106v-332h-643z" />
<glyph unicode="N" horiz-adv-x="1583" d="M49 0v332h109v622h-109v330h520l428 -729v399h-108v330h645v-330h-109v-622h107v-332h-526l-420 717v-385h106v-332h-643z" />
<glyph unicode="O" horiz-adv-x="1327" d="M23 634q0 175 57 310t151.5 214t205 118t228 39t228.5 -39t205 -118t151.5 -214t57.5 -310t-57.5 -309.5t-151.5 -209t-204 -112.5t-229.5 -38t-229 38t-204 112.5t-151.5 209t-57 309.5zM481 635q0 -188 51.5 -279.5t132 -91.5t132 91t51.5 280q0 190 -52.5 285.5 t-131 95.5t-131 -95.5t-52.5 -285.5z" />
<glyph unicode="P" horiz-adv-x="1306" d="M49 0v332h109v622h-109v330h742q195 0 330.5 -110.5t135.5 -321.5q0 -201 -125.5 -303.5t-300.5 -102.5h-245v-114h110v-332h-647zM586 754h145q41 0 70.5 29.5t29.5 68.5q0 43 -29.5 72.5t-70.5 29.5h-145v-200z" />
<glyph unicode="Q" horiz-adv-x="1327" d="M23 635q0 328 185 504t456 176q113 0 220 -37t204.5 -114t158 -214t60.5 -315q0 -414 -314 -590q68 -111 152 -173t211 -62q80 0 151.5 26.5t106.5 54.5l33 29l118 -182l-16 -27q-10 -16 -52 -58t-90 -75t-129 -59.5t-171 -26.5q-123 0 -219.5 28.5t-166 87t-111.5 107.5 t-97.5 133t-81.5 117q-279 18 -443.5 192.5t-164.5 477.5zM481 653q0 -59 4 -113.5t9 -78.5l6 -23q42 9 80 9q131 0 223 -103q45 121 45 309q0 141 -47 252t-137 111q-63 0 -106.5 -59.5t-60 -136.5t-16.5 -167z" />
<glyph unicode="R" horiz-adv-x="1306" d="M49 0v332h109v622h-107v330h625q82 0 162 -12t173 -43t150.5 -102.5t57.5 -174.5q0 -217 -338 -280h25q117 0 184 -34q74 -38 92 -92t24 -107.5t31 -85.5q19 -24 61 -24q14 0 29 3v-332q-66 -9 -124 -9q-65 0 -121 11q-105 20 -164.5 65.5t-96.5 114t-49 130t-12 130.5 q0 39 -30 72t-79 33l-65 -2v-213h114v-332h-651zM586 778h96q111 0 111 88q0 37 -29 62.5t-82 25.5h-96v-176z" />
<glyph unicode="S" horiz-adv-x="1120" d="M49 59v267h354q2 -12 8.5 -31t39 -48.5t84.5 -29.5q57 0 86.5 31t29.5 78q0 51 -60.5 91t-148.5 75.5t-175 83t-148.5 137.5t-61.5 217q0 168 143.5 276.5t374.5 108.5q115 0 232 -16.5t176 -32.5l59 -15v-293h-344q0 4 -1 11.5t-9 27t-20.5 33.5t-37 25.5t-59.5 11.5 q-51 0 -77.5 -29.5t-26.5 -79.5q0 -53 62.5 -95t151.5 -76.5t178 -83t150.5 -136.5t61.5 -213q0 -176 -121 -283.5t-379 -107.5q-289 0 -514 92z" />
<glyph unicode="T" horiz-adv-x="1302" d="M0 815v469h1303v-469h-332v139h-107v-622h109v-332h-643v332h108v622h-106v-139h-332z" />
<glyph unicode="U" horiz-adv-x="1456" d="M49 954v330h645v-330h-108v-501q0 -72 38 -120t109.5 -48t108.5 47t37 121v501h-109v330h645v-330h-108v-512q0 -215 -150.5 -328.5t-424 -113.5t-424 113.5t-150.5 328.5v512h-109z" />
<glyph unicode="V" horiz-adv-x="1267" d="M12 954v330h539v-330h-64l146 -395l143 395h-65v330h542v-330h-47l-358 -977h-430l-361 977h-45z" />
<glyph unicode="W" horiz-adv-x="1900" d="M12 954v330h539v-330h-64l170 -512l107 289h-66v330h504v-330h-65l106 -293l176 516h-65v330h542v-330h-47l-346 -977h-434l-119 416l-121 -416h-430l-342 977h-45z" />
<glyph unicode="X" d="M49 0v332h47l326 311l-324 311h-49v330h545v-330h-107l129 -125l129 125h-106v330h543v-330h-47l-324 -311l326 -311h45v-332h-537v332h103l-132 123l-131 -123h103v-332h-539z" />
<glyph unicode="Y" horiz-adv-x="1232" d="M41 954v330h537v-330h-62l100 -180l101 180h-66v330h543v-330h-47l-316 -559h-2v-63h107v-332h-643v332h108v63l-315 559h-45z" />
<glyph unicode="Z" horiz-adv-x="1056" d="M49 0v215l504 737h-143v-108h-342v438h938v-219l-484 -731h107v78h379v-410h-959z" />
<glyph unicode="[" horiz-adv-x="624" d="M35 -393v2062h567v-330h-141v-1400h139v-332h-565z" />
<glyph unicode="\" horiz-adv-x="768" d="M-33 1534l221 84l650 -1729l-224 -84z" />
<glyph unicode="]" horiz-adv-x="624" d="M27 -61h139v1400h-137v330h565v-2062h-567v332z" />
<glyph unicode="^" horiz-adv-x="663" d="M-96 1063l291 510h286l291 -510h-278l-156 272l-158 -272h-276z" />
<glyph unicode="_" horiz-adv-x="950" d="M33 0v238h891v-238h-891z" />
<glyph unicode="`" horiz-adv-x="643" d="M27 1368l204 303l390 -309q-6 -98 -101 -143q-40 -19 -86 -20q-63 0 -139 36z" />
<glyph unicode="a" horiz-adv-x="1355" d="M41 500q0 309 180 451.5t473 142.5q123 0 251 -28t196 -56l67 -29v-578q0 -77 69 -76q18 0 40 5v-324q-82 -43 -232 -43q-174 0 -251 117q-147 -117 -322 -117q-201 0 -336 136.5t-135 398.5zM467 535q0 -276 178 -277q61 0 135 31v487q-55 29 -123 29q-80 0 -135 -61.5 t-55 -208.5z" />
<glyph unicode="b" horiz-adv-x="1361" d="M41 1202v332h541v-535q106 72 234 87q33 4 65 4q92 0 176 -32q113 -44 189.5 -180.5t76.5 -347.5q0 -150 -49 -261t-135 -174.5t-186.5 -96.5t-217.5 -35q-279 0 -569 115l-12 4v1120h-113zM582 289q37 -14 70 -24q25 -7 58 -7q11 0 22 1q46 3 81 27.5t58.5 86 t23.5 157.5q0 119 -34 185.5t-88 79.5q-34 8 -65 7q-18 0 -34 -2q-45 -7 -92 -28v-483z" />
<glyph unicode="c" horiz-adv-x="1148" d="M41 530q0 260 144.5 412t381.5 152q88 0 174 -14.5t144.5 -33t103.5 -39t66 -34.5l20 -15v-305h-332q0 6 -2 15.5t-10 33t-20.5 41t-38 31.5t-60.5 14q-145 0 -145 -233q0 -119 70.5 -187.5t169.5 -68.5q158 2 319 92l84 -287l-21 -15q-13 -9 -60.5 -32.5t-98.5 -42 t-133 -34t-166 -15.5q-266 0 -428 147.5t-162 417.5z" />
<glyph unicode="d" horiz-adv-x="1349" d="M41 530.5q0 282.5 126 423t312 140.5q156 0 295 -93v201h-108v332h536v-1131q0 -77 69 -76q18 0 40 5v-324q-82 -43 -232 -43q-184 0 -258 129q-74 -66 -170 -97.5t-174 -31.5q-186 0 -311 141.5t-125 424zM467 530q0 -109 30.5 -175t79.5 -84q37 -13 75 -13q11 0 23 1 q50 5 99 30v483q-33 16 -67 26q-24 6 -54 6q-13 0 -26 -1q-45 -4 -79 -27.5t-57.5 -86.5t-23.5 -159z" />
<glyph unicode="e" horiz-adv-x="1228" d="M41 530q0 150 46 261.5t127 176t179.5 95.5t214.5 31q580 0 580 -516q0 -29 -4 -91h-709q37 -186 277 -186q178 0 354 107l6 4l74 -293q-6 -6 -19.5 -17.5t-61.5 -37t-102.5 -46t-144.5 -38t-186 -17.5q-289 0 -460 139t-171 428zM471 618h283q0 186 -136 187 q-133 -1 -147 -187z" />
<glyph unicode="f" horiz-adv-x="729" d="M49 0v332h109v401h-109v330h107v98q0 195 139 302.5t375 107.5q84 0 159.5 -14.5t126 -35t87 -42t53.5 -33.5l18 -16v-218h-326q-2 8 -7 20.5t-29.5 32t-57.5 19.5q-109 0 -108 -121q0 -68 -2 -100h147v-330h-145v-401h145v-332h-682z" />
<glyph unicode="g" horiz-adv-x="1329" d="M27 -373l92 303q133 -66 290 -78q33 -3 64 -3q116 0 205 38q113 49 113 154v20q-121 -96 -285 -96q-215 0 -336 139.5t-121 430.5q0 147 50.5 258.5t135 175t186 94.5t218.5 31q279 0 569 -109l11 -4v-707h2v-321q0 -213 -161 -337t-452 -124q-307 0 -561 125zM477 535 q0 -98 24.5 -162t58.5 -87.5t81 -26.5q12 -1 23 -1q33 0 57 7q33 9 70 26v485q-59 29 -138 29q-176 0 -176 -270z" />
<glyph unicode="h" horiz-adv-x="1445" d="M49 0v332h109v870h-109v332h541v-586q166 145 381 146q158 0 235.5 -112t77.5 -249v-401h113v-332h-649v332h106v301q0 43 -24.5 69.5t-69.5 26.5q-74 0 -170 -65v-332h108v-332h-649z" />
<glyph unicode="i" horiz-adv-x="743" d="M49 0v332h109v401h-109v330h537v-731h108v-332h-645zM123 1370q0 104 71.5 179t174.5 75q104 0 179 -74.5t75 -179.5q0 -106 -74 -178t-180 -72q-102 0 -174 72t-72 178z" />
<glyph unicode="j" horiz-adv-x="679" d="M-334 -403l78 278q118 -46 208 -46q49 0 90 13q116 39 116 193v698h-109v330h539v-1116q0 -154 -76 -262.5t-202 -155.5q-95 -36 -214 -36q-39 0 -81 4q-169 16 -349 100zM123 1370q0 104 71.5 179t174.5 75q104 0 179 -74.5t75 -179.5q0 -106 -74 -178t-180 -72 q-102 0 -174 72t-72 178z" />
<glyph unicode="k" horiz-adv-x="1247" d="M49 0v332h109v870h-109v332h537v-614q133 174 379 174q266 0 266 -256q0 -113 -82 -203t-234 -115q111 -8 183.5 -48t104.5 -100.5t51.5 -135t22.5 -145.5t19.5 -137.5t40 -110.5t85.5 -61q26 -7 58 -7q44 0 99 14l55 -192q-10 -10 -32.5 -25.5t-100.5 -40.5t-170 -25 q-158 0 -259 52.5t-144 134.5t-62.5 182t-25.5 201.5t-18.5 184.5t-55.5 135.5t-123 52.5l-57 -7v-110h108v-332h-645zM586 621q42 -8 77 -9q73 0 121 34q72 50 72 118q0 43 -25.5 65.5t-64.5 22.5q-66 0 -123 -67.5t-57 -149.5v-14z" />
<glyph unicode="l" horiz-adv-x="743" d="M49 0v332h109v870h-109v332h537v-1202h108v-332h-645z" />
<glyph unicode="m" horiz-adv-x="2142" d="M49 0v332h111v401h-111v330h537v-121q166 152 387 152q197 0 278 -187q172 186 420 187q158 0 236 -112t78 -249v-401h108v-332h-649v332h112v301q0 43 -26.5 69.5t-69.5 26.5q-78 0 -174 -67v-330h109v-332h-650v332h111v301q0 43 -25.5 69.5t-68.5 26.5q-78 0 -176 -70 v-327h114v-332h-651z" />
<glyph unicode="n" horiz-adv-x="1443" d="M49 0v332h111v401h-111v330h537v-121q166 152 387 152q158 0 235.5 -112t77.5 -249v-401h109v-332h-650v332h111v301q0 43 -25.5 69.5t-68.5 26.5q-78 0 -176 -70v-327h114v-332h-651z" />
<glyph unicode="o" horiz-adv-x="1280" d="M41 530.5q0 270.5 169 416t431 145.5t431 -142.5t169 -419.5q0 -270 -170 -418.5t-431 -148.5t-430 148.5t-169 419zM463 530.5q0 -135.5 48 -203t125 -67.5t126 68.5t49 201.5q0 137 -47 205t-127 68q-78 0 -126 -68.5t-48 -204z" />
<glyph unicode="p" horiz-adv-x="1376" d="M59 -145h111v878h-111v330h537v-68q141 98 303 99q186 0 312 -140.5t126 -423t-127 -424t-313 -141.5q-164 0 -301 96v-206h115v-324h-652v324zM596 289q35 -16 69 -26q28 -8 63 -7h16q46 2 81 25.5t59.5 87t24.5 162t-24.5 160t-59 84t-81.5 24.5h-16q-36 0 -63 -7 q-34 -9 -69 -26v-477z" />
<glyph unicode="q" horiz-adv-x="1355" d="M41 535q0 147 49 258.5t134 175t185.5 94.5t217.5 31q131 0 277.5 -28t223.5 -56l80 -29v-1120h109v-330h-651v324h114v208q-106 -72 -233 -87q-33 -4 -65 -4q-92 0 -176 33q-114 44 -189.5 181.5t-75.5 348.5zM467 534.5q0 -98.5 24.5 -162t58.5 -87t81 -25.5h17 q37 0 65 7q35 9 67 26v477q-33 16 -67 26q-28 8 -65 7h-17q-47 -2 -81 -25.5t-58.5 -84t-24.5 -159z" />
<glyph unicode="r" horiz-adv-x="976" d="M49 0v332h111v401h-111v330h537v-143q115 174 307 174h63v-418l-65 8q-42 5 -78 5q-100 0 -154 -38q-74 -51 -73 -135v-184h135v-332h-672z" />
<glyph unicode="s" horiz-adv-x="1183" d="M80 752q0 158 141 250t332 92q96 0 226 -16.5t212 -30.5l82 -17v-291h-352q0 4 -1 10.5t-9.5 26t-20.5 33.5t-36.5 26.5t-59.5 12.5q-47 0 -81 -25.5t-34 -54.5q0 -43 46 -68.5t116 -35t150.5 -29t150.5 -49t116 -99t46 -174.5q0 -162 -139.5 -256t-360.5 -94 q-289 0 -514 92l-8 4v267h354q2 -12 8.5 -31t43 -48.5t92.5 -29.5q51 0 82.5 25.5t31.5 62.5q0 47 -45 71.5t-113.5 31t-148.5 25t-148.5 45t-113.5 97.5t-45 177z" />
<glyph unicode="t" horiz-adv-x="759" d="M0 733v330h49q156 0 209 133l10 31h207v-164h236v-330h-236v-348q0 -61 46 -87q40 -22 84 -22h15q52 4 91 23v-281q-129 -55 -271 -55q-188 0 -285.5 108.5t-97.5 295.5v366h-57z" />
<glyph unicode="u" horiz-adv-x="1413" d="M41 733v330h537v-617q0 -53 32.5 -81.5t79.5 -28.5q63 0 139 53v344h-108v330h534v-660q0 -77 69 -76q18 0 40 5v-324q-82 -43 -229 -43q-209 0 -277 160q-133 -160 -346 -160q-168 0 -265 103.5t-97 283.5v381h-109z" />
<glyph unicode="v" horiz-adv-x="1134" d="M0 733v330h539v-330h-64l88 -225l88 225h-65v330h544v-330h-49l-303 -774h-428l-303 774h-47z" />
<glyph unicode="w" horiz-adv-x="1785" d="M0 733v330h539v-330h-64l90 -229l131 399h385l131 -401l91 231h-66v330h543v-330h-47l-303 -774h-431l-110 344l-111 -344h-428l-303 774h-47z" />
<glyph unicode="x" d="M49 0v332h88l305 200l-303 201h-90v330h545v-330h-107l129 -84l129 84h-106v330h543v-330h-88l-303 -201l305 -200h86v-332h-537v332h103l-132 86l-131 -86h103v-332h-539z" />
<glyph unicode="y" horiz-adv-x="1136" d="M2 733v330h541v-330h-70l96 -248l101 248h-72v330h541v-330h-49l-211 -522l-97 -240q-88 -225 -187 -333.5t-280 -108.5q-74 0 -143.5 9t-99.5 16l-31 8l39 293q74 -16 131 -18h12q49 0 81 7q36 8 61.5 33t38 47.5t26.5 55.5h-80l-297 753h-51z" />
<glyph unicode="z" horiz-adv-x="1056" d="M49 0v248l498 485h-144v-65h-342v395h916v-254l-475 -477h127v41h379v-373h-959z" />
<glyph unicode="{" horiz-adv-x="634" d="M-14 545q-29 37 -30 77q0 41 32 85q68 96 67 196v365q0 160 125 280.5t334 120.5h109v-330h-70q-70 0 -70 -71v-406q0 -143 -131 -225l-22 -12q6 -2 16 -8.5t37 -28t47.5 -46t36.5 -66.5t16 -91v-405q0 -70 70 -70h70v-332h-109q-209 0 -334 122t-125 280v366 q1 107 -69 199z" />
<glyph unicode="|" horiz-adv-x="346" d="M47 -506v2083h236v-2083h-236z" />
<glyph unicode="}" horiz-adv-x="624" d="M29 1339v330h108q209 0 333 -121t124 -280v-365q0 -109 70 -198q30 -37 30 -77q0 -41 -32 -85q-68 -96 -68 -197v-366q0 -158 -124 -280t-333 -122h-108v332h67q70 0 70 70v405q0 145 133 227l23 13q-6 2 -17.5 8t-37 26.5t-46 46t-38 67.5t-17.5 89v406q0 72 -70 71h-67 z" />
<glyph unicode="~" horiz-adv-x="1161" d="M43 731h264q0 -43 25.5 -73.5t68.5 -30.5q55 0 171 61.5t229 61.5q170 0 248.5 -106.5t78.5 -272.5h-266q0 43 -25.5 73.5t-68.5 30.5q-55 0 -171 -61.5t-228 -61.5q-170 0 -248 106.5t-78 272.5z" />
<glyph unicode="&#xa2;" horiz-adv-x="1220" d="M41 530q0 266 162 414t399 148q68 0 129 -7l125 336l221 -84l-112 -297q53 -18 97 -40.5t62 -36.5l19 -13v-266h-334q-6 14 -16.5 33.5t-49 52.5t-88.5 33q-188 0 -188 -273q0 -279 188 -278q49 0 87 30.5t53 59.5l14 29h334v-265q-6 -6 -18.5 -15t-59.5 -33.5 t-104.5 -44t-153.5 -35t-205 -15.5q-27 0 -39 2l-131 -356l-223 84l125 332q-135 66 -214 195.5t-79 309.5z" />
<glyph unicode="&#xa3;" horiz-adv-x="1165" d="M49 0v332h109v401h-109v330h107v98q0 195 139 302.5t375 107.5q84 0 159.5 -14.5t126 -35t87 -42t53.5 -33.5l18 -16v-218h-326q-2 8 -7 20.5t-29.5 32t-57.5 19.5q-109 0 -108 -121v-100h145v-330h-145v-401h209v176h331v-508h-1077z" />
<glyph unicode="&#xa5;" horiz-adv-x="1232" d="M41 426v125h272l-28 51h-244v125h174l-129 227h-45v330h537v-330h-62l100 -180l101 180h-66v330h543v-330h-47l-129 -227h178v-125h-248l-30 -51h278v-125h-348l-17 -31h-2v-63h107v-332h-643v332h108v63l-18 31h-342z" />
<glyph unicode="&#xa8;" horiz-adv-x="944" d="M35 1386.5q0 75.5 53 130t129 54.5t130 -54.5t54 -130t-54 -129t-130 -53.5t-129 53.5t-53 129zM537 1386.5q0 75.5 53 130t129 54.5t130 -54.5t54 -130t-54 -129t-130 -53.5t-129 53.5t-53 129z" />
<glyph unicode="&#xa9;" horiz-adv-x="555" d="M41 1333q0 115 72.5 176.5t179.5 61.5q133 0 215 -58v-129h-141q0 6 -3.5 15.5t-20.5 26t-44 16.5q-76 0 -76 -99q0 -53 33 -80.5t88 -27.5q31 0 68 10t55 23l20 12l35 -123q-74 -63 -203 -63q-278 -1 -278 239z" />
<glyph unicode="&#xab;" horiz-adv-x="1005" d="M-6 381v287l479 309v-287l-256 -166l256 -166v-286zM524 352v344l437 281v-287l-256 -166l256 -166v-286z" />
<glyph unicode="&#xad;" horiz-adv-x="802" d="M33 379v237h735v-237h-735z" />
<glyph unicode="&#xae;" horiz-adv-x="583" d="M49 1063v133h43v248h-43v131h248q47 0 90 -8t85 -39t42 -84q0 -88 -135 -113h10q59 0 87 -21q30 -24 31 -50.5t11 -48t39 -15.5v-133q-28 -4 -53 -4q-35 0 -63 8q-48 14 -69.5 45t-30.5 61.5t-9 67.5q0 39 -45 39h-27v-84h47v-133h-258zM260 1374h41q45 0 45 35t-45 35 h-41v-70z" />
<glyph unicode="&#xb4;" horiz-adv-x="643" d="M27 1362l389 309l205 -303l-269 -133q-131 -61 -225 -16t-100 143z" />
<glyph unicode="&#xb8;" horiz-adv-x="729" d="M35 -293q0 59 32.5 104.5t79 66t93.5 32.5t82 14h30l2 205l232 -12l-2 -289q-10 2 -27.5 3t-61.5 -1t-79 -9t-62.5 -28.5t-27.5 -52.5q0 -41 63.5 -67.5t118.5 -26.5l158 30l39 -118q-111 -63 -254 -64q-186 0 -301 53.5t-115 159.5z" />
<glyph unicode="&#xbb;" horiz-adv-x="1005" d="M43 70v286l256 168l-256 164v287l436 -281v-342zM530 70v286l256 168l-256 164v287l480 -309v-287z" />
<glyph unicode="&#x2c6;" horiz-adv-x="643" d="M-53 1296l239 330q47 61 134.5 61.5t132.5 -61.5l243 -330q-16 -53 -67 -77.5t-103.5 -15.5t-81.5 42l-122 131l-123 -131q-31 -33 -83.5 -42t-103.5 15.5t-65 77.5z" />
<glyph unicode="&#x2da;" horiz-adv-x="481" d="M37 1363q0 87 60.5 147.5t147.5 60.5t147.5 -60.5t60.5 -147.5t-60.5 -147.5t-147.5 -60.5t-147.5 60.5t-60.5 147.5zM150 1363q0 -38 27.5 -67.5t67.5 -29.5t68.5 29.5t28.5 67.5t-28.5 66.5t-68.5 28.5t-67.5 -28.5t-27.5 -66.5z" />
<glyph unicode="&#x2dc;" horiz-adv-x="1161" d="M43 1583h264q0 -41 25.5 -72.5t68.5 -31.5q55 0 171 61.5t229 61.5q170 0 248.5 -106.5t78.5 -270.5h-266q0 41 -25.5 72.5t-68.5 31.5q-55 0 -171 -61.5t-228 -61.5q-170 0 -248 106.5t-78 270.5z" />
<glyph unicode="&#x410;" horiz-adv-x="1316" d="M14 -2v332h47l383 975h428l381 -975h47v-332h-538v332h63l-32 82h-269l-32 -82h65v-332h-543zM575 547h166l-84 207z" />
<glyph unicode="&#x412;" horiz-adv-x="1267" d="M49 0v332h109v622h-107v330h625q82 0 162 -12t173 -43t150.5 -102.5t57.5 -174.5q0 -90 -46.5 -150.5t-113 -86t-109.5 -34.5t-69 -9q27 -4 53.5 -10.5t81.5 -28t97 -52t74 -88t32 -131.5q0 -94 -40 -162.5t-96.5 -106.5t-136.5 -59.5t-138 -27.5t-124 -6h-635zM586 332 h96q55 0 83 28.5t28 79.5q0 45 -29 75t-82 30h-96v-213zM586 778h96q111 0 111 88q0 37 -29 62.5t-82 25.5h-96v-176z" />
<glyph unicode="&#x415;" d="M49 0v332h109v622h-107v330h1131v-469h-330v139h-266v-176h266v-233h-266v-213h266v176h330v-508h-1133z" />
<glyph unicode="&#x41a;" horiz-adv-x="1339" d="M49 0v332h109v622h-109v330h606v-330h-69v-149l350 479h354v-330h-139l-225 -311l225 -311h137v-332h-350l-352 481v-149h67v-332h-604z" />
<glyph unicode="&#x41c;" horiz-adv-x="2084" d="M49 0v332h109v622h-109v330h846v-330h-66l213 -581l213 581h-65v330h846v-330h-109v-622h107v-332h-643v332h108v491l-311 -846h-291l-311 846v-491h106v-332h-643z" />
<glyph unicode="&#x41d;" horiz-adv-x="1464" d="M49 0v332h109v622h-109v330h645v-330h-108v-247h293v247h-109v330h645v-330h-108v-622h106v-332h-643v332h109v239h-293v-239h106v-332h-643z" />
<glyph unicode="&#x41e;" horiz-adv-x="1327" d="M23 634q0 175 57 310t151.5 214t205 118t228 39t228.5 -39t205 -118t151.5 -214t57.5 -310t-57.5 -309.5t-151.5 -209t-204 -112.5t-229.5 -38t-229 38t-204 112.5t-151.5 209t-57 309.5zM481 635q0 -188 51.5 -279.5t132 -91.5t132 91t51.5 280q0 190 -52.5 285.5 t-131 95.5t-131 -95.5t-52.5 -285.5z" />
<glyph unicode="&#x420;" horiz-adv-x="1306" d="M49 0v332h109v622h-109v330h742q195 0 330.5 -110.5t135.5 -321.5q0 -201 -125.5 -303.5t-300.5 -102.5h-245v-114h110v-332h-647zM586 754h145q41 0 70.5 29.5t29.5 68.5q0 43 -29.5 72.5t-70.5 29.5h-145v-200z" />
<glyph unicode="&#x421;" horiz-adv-x="1216" d="M51 659q0 332 177.5 496t445.5 164q90 0 174 -15.5t138 -35t96 -41t63 -35.5l16 -16v-310h-332q0 4 -3 13.5t-14 30t-26.5 36t-44 28.5t-65.5 13q-86 0 -137.5 -82t-51.5 -239q0 -193 83 -279t214 -86q74 0 159 18.5t130 32.5l47 19l60 -308q-80 -35 -175.5 -59 t-205 -33.5t-214 3t-202.5 58.5t-170 122.5t-117 205.5t-45 299z" />
<glyph unicode="&#x422;" horiz-adv-x="1302" d="M0 815v469h1303v-469h-332v139h-107v-622h109v-332h-643v332h108v622h-106v-139h-332z" />
<glyph unicode="&#x425;" d="M49 0v332h47l326 311l-324 311h-49v330h545v-330h-107l129 -125l129 125h-106v330h543v-330h-47l-324 -311l326 -311h45v-332h-537v332h103l-132 123l-131 -123h103v-332h-539z" />
<glyph unicode="&#x430;" horiz-adv-x="1355" d="M41 500q0 309 180 451.5t473 142.5q123 0 251 -28t196 -56l67 -29v-578q0 -77 69 -76q18 0 40 5v-324q-82 -43 -232 -43q-174 0 -251 117q-147 -117 -322 -117q-201 0 -336 136.5t-135 398.5zM467 535q0 -276 178 -277q61 0 135 31v487q-55 29 -123 29q-80 0 -135 -61.5 t-55 -208.5z" />
<glyph unicode="&#x435;" horiz-adv-x="1228" d="M41 530q0 150 46 261.5t127 176t179.5 95.5t214.5 31q580 0 580 -516q0 -29 -4 -91h-709q37 -186 277 -186q178 0 354 107l6 4l74 -293q-6 -6 -19.5 -17.5t-61.5 -37t-102.5 -46t-144.5 -38t-186 -17.5q-289 0 -460 139t-171 428zM471 618h283q0 186 -136 187 q-133 -1 -147 -187z" />
<glyph unicode="&#x43e;" horiz-adv-x="1280" d="M41 530.5q0 270.5 169 416t431 145.5t431 -142.5t169 -419.5q0 -270 -170 -418.5t-431 -148.5t-430 148.5t-169 419zM463 530.5q0 -135.5 48 -203t125 -67.5t126 68.5t49 201.5q0 137 -47 205t-127 68q-78 0 -126 -68.5t-48 -204z" />
<glyph unicode="&#x440;" horiz-adv-x="1376" d="M59 -145h111v878h-111v330h537v-68q141 98 303 99q186 0 312 -140.5t126 -423t-127 -424t-313 -141.5q-164 0 -301 96v-206h115v-324h-652v324zM596 289q35 -16 69 -26q28 -8 63 -7h16q46 2 81 25.5t59.5 87t24.5 162t-24.5 160t-59 84t-81.5 24.5h-16q-36 0 -63 -7 q-34 -9 -69 -26v-477z" />
<glyph unicode="&#x441;" horiz-adv-x="1148" d="M41 530q0 260 144.5 412t381.5 152q88 0 174 -14.5t144.5 -33t103.5 -39t66 -34.5l20 -15v-305h-332q0 6 -2 15.5t-10 33t-20.5 41t-38 31.5t-60.5 14q-145 0 -145 -233q0 -119 70.5 -187.5t169.5 -68.5q158 2 319 92l84 -287l-21 -15q-13 -9 -60.5 -32.5t-98.5 -42 t-133 -34t-166 -15.5q-266 0 -428 147.5t-162 417.5z" />
<glyph unicode="&#x443;" horiz-adv-x="1136" d="M2 733v330h541v-330h-70l96 -248l101 248h-72v330h541v-330h-49l-211 -522l-97 -240q-88 -225 -187 -333.5t-280 -108.5q-74 0 -143.5 9t-99.5 16l-31 8l39 293q74 -16 131 -18h12q49 0 81 7q36 8 61.5 33t38 47.5t26.5 55.5h-80l-297 753h-51z" />
<glyph unicode="&#x445;" d="M49 0v332h88l305 200l-303 201h-90v330h545v-330h-107l129 -84l129 84h-106v330h543v-330h-88l-303 -201l305 -200h86v-332h-537v332h103l-132 86l-131 -86h103v-332h-539z" />
<glyph unicode="&#x2010;" horiz-adv-x="802" d="M33 379v237h735v-237h-735z" />
<glyph unicode="&#x2011;" horiz-adv-x="802" d="M33 379v237h735v-237h-735z" />
<glyph unicode="&#x2012;" horiz-adv-x="802" d="M33 379v237h735v-237h-735z" />
<glyph unicode="&#x2013;" horiz-adv-x="950" d="M33 379v237h891v-237h-891z" />
<glyph unicode="&#x2014;" horiz-adv-x="1452" d="M33 379v237h1386v-237h-1386z" />
<glyph unicode="&#x2018;" horiz-adv-x="350" d="M-4 1227q0 74 31.5 136t78 98t90.5 61.5t74 33.5l33 11l41 -84q-12 -4 -31.5 -11.5t-56.5 -38t-51 -69.5q47 -8 84 -45t37 -96q0 -70 -46.5 -117t-113.5 -47q-72 0 -121 46t-49 122z" />
<glyph unicode="&#x2019;" horiz-adv-x="350" d="M-2 1147l32 10q19 6 56 38t51 69q-49 8 -85 46t-36 97q0 70 46.5 116t111.5 46q74 0 123 -45t49 -121q0 -74 -32.5 -136.5t-76.5 -98t-89.5 -61.5t-77.5 -36l-31 -10z" />
<glyph unicode="&#x201a;" horiz-adv-x="350" d="M-2 -150q12 4 31.5 11.5t56.5 39t51 68.5q-49 8 -85 45t-36 99q0 72 46.5 116.5t111.5 44.5q74 0 123 -45t49 -120q0 -74 -32.5 -136.5t-76.5 -98.5t-89.5 -61.5t-77.5 -35.5l-31 -10z" />
<glyph unicode="&#x201c;" horiz-adv-x="524" d="M-190 1227q0 74 31.5 136t75.5 98t89 61.5t78 33.5l33 11l39 -84l-30 -11.5t-56.5 -38t-51.5 -69.5q47 -8 84 -45t37 -96q0 -70 -45 -117t-114 -47q-72 0 -121 46t-49 122zM186 1227q0 74 32 136t78 98t90 61.5t75 33.5l33 11l41 -84q-12 -4 -32 -11.5t-56.5 -38 t-51.5 -69.5q49 -8 85 -45t36 -96q0 -70 -45 -117t-115 -47q-72 0 -121 46t-49 122z" />
<glyph unicode="&#x201d;" horiz-adv-x="620" d="M-2 1147l32 10q19 6 56 38t51 69q-49 8 -85 46t-36 97q0 70 46.5 116t111.5 46q74 0 123 -45t49 -121q0 -74 -32.5 -136.5t-76.5 -98t-89.5 -61.5t-77.5 -36l-31 -10zM399 1147l32 10q19 6 56 38t52 69q-49 8 -85 46t-36 97q0 70 46 116t111 46q74 0 123.5 -45t49.5 -121 q0 -74 -33 -136.5t-77 -98t-89 -61.5t-78 -36l-31 -10z" />
<glyph unicode="&#x201e;" horiz-adv-x="577" d="M-96 -149q12 4 30.5 11t56.5 38.5t52 68.5q-49 8 -85 45t-36 99q0 72 45 116.5t113 44.5q72 0 121 -45t49 -120q0 -74 -32 -136.5t-76 -98.5t-89 -61.5t-78 -35.5l-30 -10zM291 -150q12 4 31.5 11.5t56.5 39t51 68.5q-49 8 -85 45t-36 99q0 72 46 116.5t112 44.5 q74 0 123 -45t49 -120q0 -74 -33 -136.5t-78 -98.5t-89 -61.5t-77 -35.5l-30 -10z" />
<glyph unicode="&#x2026;" horiz-adv-x="1523" d="M41 197q0 90 62.5 155.5t150.5 65.5q94 0 157.5 -65.5t63.5 -155.5q0 -92 -63.5 -156t-157.5 -64q-90 0 -151.5 64t-61.5 156zM549 197q0 90 62.5 155.5t150.5 65.5q92 0 156.5 -65.5t64.5 -155.5q0 -92 -64.5 -156t-156.5 -64q-90 0 -151.5 64t-61.5 156zM1053 197 q0 90 63.5 155.5t151.5 65.5q92 0 156.5 -65.5t64.5 -155.5q0 -92 -64.5 -156t-156.5 -64q-90 0 -152.5 64t-62.5 156z" />
<glyph unicode="&#x2039;" horiz-adv-x="503" d="M0 377v287l479 309v-287l-256 -166l256 -166v-286z" />
<glyph unicode="&#x203a;" horiz-adv-x="503" d="M33 70v286l256 168l-256 164v287l479 -309v-287z" />
<glyph unicode="&#x20ac;" horiz-adv-x="1216" d="M-66 477v125h117v51h-117v125h123q29 274 179.5 405.5t386.5 131.5q109 0 205 -15.5t154 -35t101 -41t62 -35.5l16 -17v-264h-332q-6 14 -16 32.5t-49 52.5t-88 34q-154 0 -182 -248h333v-125h-340v-51h340v-125h-331q16 -123 60 -174t120 -51q49 0 87 30.5t52 59.5 l14 29h332v-265q-6 -6 -17 -15t-58.5 -33.5t-104.5 -44t-153.5 -35t-204.5 -15.5q-492 0 -562 514h-127z" />
<glyph unicode="&#x2122;" horiz-adv-x="1732" d="M8 1292h166v70h55v-313h-55v-168h326v168h-54v313h54v-70h166v238h-658v-238zM698 881v168h56v313h-56v168h426v-168h-34l108 -295l109 295h-35v168h428v-168h-55v-313h53v-168h-324v168h56v247l-158 -428h-146l-159 428v-247h55v-168h-324z" />
<glyph unicode="&#xe000;" horiz-adv-x="1065" d="M0 1065h1065v-1065h-1065v1065z" />
</font>
</defs>
</svg>
