<?xml version="1.0" standalone="no"?>
<!DOCTYPE svg PUBLIC "-//W3C//DTD SVG 1.1//EN" "http://www.w3.org/Graphics/SVG/1.1/DTD/svg11.dtd" >
<svg xmlns="http://www.w3.org/2000/svg">
<metadata>
This is a custom SVG webfont generated by Font Squirrel.
Copyright   : Copyright c Magenta Ltd 2004
Foundry     : Magenta Ltd
Foundry URL : httpwwwmagentagr
</metadata>
<defs>
<font id="MgOpenCosmeticaRegular" horiz-adv-x="1212" >
<font-face units-per-em="2048" ascent="1638" descent="-410" />
<missing-glyph horiz-adv-x="608" />
<glyph unicode=" "  horiz-adv-x="608" />
<glyph unicode="&#x09;" horiz-adv-x="608" />
<glyph unicode="&#xa0;" horiz-adv-x="608" />
<glyph unicode="!" horiz-adv-x="727" d="M221 111q0 61 40 101t101 40q59 0 102.5 -40t43.5 -101q0 -59 -43 -97.5t-102.5 -38.5t-100.5 39.5t-41 96.5zM233 1366q0 76 29 125t100 49q61 0 96.5 -39t35.5 -100q0 -29 -7.5 -90.5t-7.5 -89.5l-78 -815q-14 4 -39 4q-27 0 -38 -4l-78 815z" />
<glyph unicode="&#x22;" horiz-adv-x="614" d="M104 952v600h113v-600h-113zM401 952v600h111v-600h-111z" />
<glyph unicode="#" horiz-adv-x="1701" d="M127 518l39 117h354l107 299h-381l41 117h381l186 522h137l-182 -522h287l186 522h139l-186 -522h342l-39 -117h-344l-104 -299h364l-37 -117h-373l-184 -518h-137l184 518h-289l-186 -518h-137l182 518h-350zM659 633h291l105 301h-289z" />
<glyph unicode="$" d="M143 1053q0 168 122 276.5t290 108.5q0 80 -20 159l47 -8l73 8l-6 -97q-2 -34 -2 -62q94 0 180 -19.5t156 -64.5l-39 -76q-16 -33 -43 -94h-14q-18 86 -83 130t-157 44v-510q252 -68 342 -165t90 -230q0 -182 -125 -307.5t-307 -141.5l-2 -53q0 -27 1 -52.5t9 -101.5 l-57 6l-63 -6l20 203q-111 0 -213 22.5t-182 71.5l65 207h13q31 -106 108.5 -151.5t208.5 -67.5v594q-238 68 -325 161t-87 216zM317 1112q0 -96 68 -156.5t170 -83.5v484q-104 -16 -171 -79t-67 -165zM647 84q117 25 183.5 99.5t66.5 193.5q0 111 -64.5 171t-185.5 105 v-569z" />
<glyph unicode="%" horiz-adv-x="1673" d="M45 1083.5q0 149.5 99.5 253t246.5 103.5q145 0 244.5 -101.5t99.5 -244.5q0 -82 -30 -150q-35 -96 -121 -153.5t-193 -57.5q-147 0 -246.5 100.5t-99.5 250zM227 1053q0 -94 38 -174t124 -80q66 0 109 55t43 123q8 63 8 141q0 139 -43 198.5t-117 59.5q-98 0 -130 -98 t-32 -225zM256 -205l1030 1852h113l-1030 -1852h-113zM950 354q0 147 100.5 250t247.5 103q143 0 242.5 -101.5t99.5 -243.5q0 -76 -24 -151q-39 -96 -126 -153.5t-192 -57.5q-150 0 -249 101t-99 253zM1135 330q0 -113 31.5 -188.5t127.5 -75.5q70 0 111 54t41 124 q4 31 7 90t3 90q0 80 -41 150.5t-121 70.5q-98 0 -128.5 -93t-30.5 -222z" />
<glyph unicode="&#x26;" horiz-adv-x="1581" d="M123 342q0 170 100.5 277.5t286.5 216.5q-66 88 -105.5 167.5t-39.5 167.5q0 147 101 243.5t251 96.5q127 0 226 -65.5t99 -183.5q0 -123 -89 -222.5t-218 -177.5l188 -229q95 -113 199 -223q164 205 201 450h23l94 -102q-49 -115 -117 -225.5t-143 -192.5l130 -154 q75 -88 179 -186q-33 0 -100.5 2t-104.5 2l-84 -4l-145 178q-102 -100 -217 -153.5t-252 -53.5q-186 0 -324.5 96.5t-138.5 274.5zM328 444q0 -135 93 -240.5t230 -105.5q92 0 174 41t160 111l-430 520q-121 -90 -174 -153.5t-53 -172.5zM526 1247q0 -82 32 -135t126 -180 q98 66 150.5 141.5t52.5 175.5q0 86 -36 137.5t-114 51.5q-84 0 -147.5 -55.5t-63.5 -135.5z" />
<glyph unicode="'" horiz-adv-x="604" d="M143 934l131 459q14 63 44 107t88 44q37 0 64.5 -22.5t27.5 -55t-17.5 -73.5t-44.5 -74l-237 -397z" />
<glyph unicode="(" horiz-adv-x="727" d="M184 631q0 254 100.5 478t284.5 431q16 -27 47 -51q-143 -221 -205.5 -418t-62.5 -457q0 -238 66.5 -446.5t201.5 -413.5q-31 -25 -47 -51q-193 215 -289 434.5t-96 493.5z" />
<glyph unicode=")" horiz-adv-x="727" d="M109 1489q35 25 49 51q195 -215 289 -435t94 -495q0 -256 -98.5 -477t-284.5 -430q-20 31 -49 51q145 219 207.5 416t62.5 457q0 238 -66.5 445.5t-203.5 416.5z" />
<glyph unicode="*" horiz-adv-x="1093" d="M154 1262q31 29 51 66.5t41 88.5q55 -53 123.5 -108.5t140.5 -96.5q0 61 -6 102.5t-45 225.5q25 -6 46 -10t41.5 -4t50.5 6t36 6q-23 -74 -34 -157t-11 -169q131 88 262 207q27 -72 40 -99.5t52 -55.5q-154 -45 -315 -123q68 -37 146.5 -68t160.5 -53q-57 -68 -86 -152 l-131 112q-61 50 -129 93q0 -76 12 -157.5t35 -170.5q-18 0 -49 6.5t-39 6.5q-18 0 -48 -6.5t-40 -6.5q23 102 37 177t14 151q-150 -96 -260 -205q-23 55 -39 87t-51 67q70 20 143.5 50t163.5 71q-86 41 -157.5 68.5t-155.5 50.5z" />
<glyph unicode="+" horiz-adv-x="1847" d="M274 606v109h596v608h107v-608h596v-109h-596v-606h-107v606h-596z" />
<glyph unicode="," horiz-adv-x="604" d="M66 -377l147 498q20 76 47 120t86 44q96 0 96 -90q0 -45 -21 -85l-44 -81l-258 -422z" />
<glyph unicode="-" horiz-adv-x="727" d="M94 444v189h537v-189h-537z" />
<glyph unicode="." horiz-adv-x="604" d="M162 111q0 61 41 101t100 40t100 -40t41 -101q0 -59 -41 -97.5t-100 -38.5t-100 38.5t-41 97.5z" />
<glyph unicode="/" horiz-adv-x="620" d="M-59 -205l612 1868h102l-610 -1868h-104z" />
<glyph unicode="0" d="M78 721q0 317 118.5 535.5t409.5 218.5q279 0 404 -220.5t125 -521.5q0 -324 -116 -544t-413 -220q-291 0 -409.5 216.5t-118.5 535.5zM303 721l4 -129q0 -207 63.5 -370t237.5 -163q76 0 136.5 41t100.5 129t51 210t11 300q0 270 -52 455.5t-251 185.5 q-150 0 -206 -108.5t-75.5 -221t-19.5 -329.5z" />
<glyph unicode="1" d="M117 1204q172 61 329.5 138t296.5 174l23 -9q0 -203 -13.5 -611.5t-13.5 -473.5l6 -422l-61 9q-33 5 -59.5 5t-57 -5t-59.5 -9q18 217 26.5 470t8.5 546q0 47 -4 155.5t-4 114.5l-164 -90q-82 -45 -154 -102q-14 25 -50 63.5t-50 46.5z" />
<glyph unicode="2" d="M37 0v66q215 190 343 321t237.5 311.5t109.5 354.5q0 127 -62.5 227t-181.5 100q-127 0 -201.5 -78.5t-74.5 -203.5l-15 -4l-55 106q-25 45 -61 98q180 180 434 181q182 0 313 -108.5t131 -287.5q0 -182 -98 -305t-344 -358l-238 -227h445q70 0 142.5 8t148.5 20 l-7.5 -54.5t-3.5 -55.5q0 -23 3.5 -50.5l7.5 -60.5q-96 0 -297 7t-303 7q-92 0 -179.5 -1t-193.5 -13z" />
<glyph unicode="3" d="M121 51q29 137 39 256h22q39 -121 115 -189.5t195 -68.5q145 0 236 100.5t91 249.5q0 141 -86 232.5t-225 91.5q-55 0 -121 -18l4 49l-4 77l90 -4q131 0 211 73t80 204q0 121 -64.5 204t-181.5 83q-104 0 -164.5 -62.5t-91.5 -175.5l-18 -6l-41 99q-14 34 -47 83 q104 72 197.5 109t207.5 37q164 0 288 -84t124 -244q0 -143 -97.5 -230.5t-256.5 -138.5q172 0 296.5 -92t124.5 -260q0 -217 -163.5 -336t-388.5 -119q-102 0 -193.5 18.5t-177.5 61.5z" />
<glyph unicode="4" d="M63 410v61l268 376l229 322l210 299l86 -4l88 4q0 -53 -9 -161.5t-9 -161.5v-588h47q37 0 74.5 2t74.5 8l-14 -86q0 -14 5 -41.5t9 -42.5q-102 12 -200 13v-187l6 -223l-105 12l-114 -12q16 84 21 196.5t5 213.5l-446 8zM233 557h502v686l-176 -227l-185 -260 q-110 -158 -141 -199z" />
<glyph unicode="5" d="M121 57l43 271h24q25 -131 98.5 -201t207.5 -70q152 0 244.5 102.5t92.5 254.5q0 150 -88 249t-233 99q-141 0 -234 -84l-32 18l12 156q0 72 -2 221.5t-2 226.5l-12 140l383 -15h47q174 0 350 15q-4 -27 -7 -64t-3 -49l6 -94l-326 2l-325 -2q0 -70 -6.5 -210t-6.5 -212 q129 57 258 57q186 0 318.5 -115.5t132.5 -299.5q0 -227 -168 -354.5t-399 -127.5q-117 0 -202 17.5t-171 68.5z" />
<glyph unicode="6" d="M104 612q0 332 167 597.5t479 265.5q63 0 100 -5.5t90 -23.5l-8 -103q-45 27 -86 39.5t-92 12.5q-227 0 -319.5 -209t-92.5 -469q86 76 171 118t187 42q184 0 303 -125t119 -314q0 -201 -142 -332t-347 -131q-274 0 -401.5 176t-127.5 461zM340 428q0 -150 70.5 -257.5 t214.5 -107.5q92 0 162.5 56.5t89 120t20.5 94.5t2 86q0 143 -70.5 243.5t-212.5 100.5q-129 0 -202.5 -99.5t-73.5 -236.5z" />
<glyph unicode="7" d="M201 0l148 239l193 312l208 348l202 350h-362q-211 0 -379 -24q6 23 8 51.5t2 54.5q0 51 -12 109l455 -6l522 6v-27q-240 -373 -432.5 -717t-343.5 -696l-93 14q-41 0 -66 -5t-50 -9z" />
<glyph unicode="8" d="M96 401q0 162 97.5 270.5t263.5 137.5v18q-121 16 -199 97.5t-78 203.5q0 164 125 254.5t299 90.5q178 0 304 -87.5t126 -259.5q0 -119 -75.5 -193.5t-198.5 -105.5v-18q170 -39 265 -139.5t95 -268.5q0 -205 -148.5 -317.5t-363.5 -112.5q-219 0 -365.5 107.5 t-146.5 322.5zM317 414q0 -150 74 -257.5t217 -107.5q141 0 214 108.5t73 256.5q0 152 -71.5 260t-215.5 108q-145 0 -218 -106t-73 -262zM387 1124q0 -111 55.5 -187.5t161.5 -76.5q109 0 165 76t56 188q0 115 -60 190t-167 75q-100 0 -155.5 -79.5t-55.5 -185.5z" />
<glyph unicode="9" d="M92 1004q0 211 148.5 341t363.5 130q266 0 388 -174.5t122 -456.5q0 -348 -183 -610.5t-521 -262.5q-68 0 -108 5.5t-95 23.5l-23 147q47 -43 108.5 -64.5t131.5 -21.5q231 0 345 209t114 463q-84 -78 -168 -119t-189 -41q-188 0 -311 121.5t-123 309.5zM313 1034 q0 -150 75 -252t216 -102q137 0 209 102.5t72 247.5q0 147 -67.5 253t-211 106t-218.5 -105t-75 -250z" />
<glyph unicode=":" horiz-adv-x="722" d="M219 888.5q0 59.5 41 101.5t102 42q59 0 99.5 -41t40.5 -102q0 -57 -39 -99t-101 -42q-59 0 -101 40.5t-42 100zM221 113q0 61 41 100t100.5 39t100.5 -39t41 -100.5t-40 -99.5t-102 -38q-59 0 -100 39.5t-41 98.5z" />
<glyph unicode=";" horiz-adv-x="722" d="M119 -377l149 498q29 106 54.5 135t76.5 29q96 0 97 -90q0 -43 -13.5 -73t-54.5 -93l-260 -422zM223 889q0 61 40 102t101.5 41t102.5 -41t41 -102q0 -59 -41 -100t-102 -41q-57 0 -99.5 42t-42.5 99z" />
<glyph unicode="&#x3c;" horiz-adv-x="1847" d="M287 614v88l1272 527v-121l-1104 -449l1104 -448v-119z" />
<glyph unicode="=" horiz-adv-x="1847" d="M274 403v109h1299v-109h-1299zM274 809v106h1299v-106h-1299z" />
<glyph unicode="&#x3e;" horiz-adv-x="1847" d="M287 92v119l1106 448l-1106 449v121l1274 -527v-88z" />
<glyph unicode="?" horiz-adv-x="974" d="M207 1450q61 45 134 67.5t155 22.5q143 0 244.5 -91t101.5 -235q0 -150 -196.5 -322.5t-196.5 -289.5q0 -55 27.5 -89t80.5 -34q47 0 88 13l-22 -74q-31 -8 -44.5 -10t-43.5 -2q-111 0 -187 66.5t-76 176.5q0 129 192.5 317.5t192.5 293.5q0 76 -55 133t-129 57 q-80 0 -138.5 -43t-70.5 -119h-20q-6 45 -13 68zM356 111q0 61 40 101t102 40q57 0 97 -40t40 -101.5t-39 -98.5t-98 -37q-61 0 -101.5 38.5t-40.5 97.5z" />
<glyph unicode="@" horiz-adv-x="2215" d="M127 569q0 428 317.5 716t751.5 288q354 0 624.5 -204t270.5 -544q0 -262 -165 -476t-419 -214q-84 0 -154.5 34t-70.5 107l2 54q-47 -86 -134 -141.5t-183 -55.5q-168 0 -254 93t-86 266q0 225 138 406t359 181q100 0 171 -42t108 -134l65 135h105l-152 -606l-20 -100 q0 -49 36 -75t89 -26q199 0 318.5 197t119.5 406q0 293 -232.5 467t-537.5 174q-389 0 -666.5 -252t-277.5 -635q0 -367 238.5 -584t613.5 -217q182 0 364.5 52t327.5 155l37 -62q-156 -115 -334 -175t-371 -60q-414 0 -706.5 233t-292.5 639zM758 481q0 -106 59.5 -181 t165.5 -75q119 0 207 81t119 204l67 264q-23 96 -84 155.5t-153 59.5q-178 0 -279.5 -159t-101.5 -349z" />
<glyph unicode="A" horiz-adv-x="1337" d="M-25 0l149 344l134 311l162 381l209 504q14 -4 24.5 -6t24.5 -2q31 0 57 8l202 -518l177 -438l246 -584q-29 0 -79 6t-62 6q-45 0 -82 -5t-60 -7q-68 223 -102.5 323.5t-93.5 249.5l-269 9l-264 -9l-84 -239q-27 -72 -52.5 -155t-47.5 -179l-92 8q-39 0 -63 -4t-34 -4z M399 690l213 -10l219 10l-217 545z" />
<glyph unicode="B" horiz-adv-x="1298" d="M178 0q0 139 14.5 466t14.5 441q0 326 -25 604l154 -4q66 0 217.5 4.5t161.5 4.5q180 0 308 -83t128 -255q0 -150 -114.5 -238t-282.5 -123q213 -23 339 -105.5t126 -277.5q0 -217 -180.5 -325.5t-415.5 -108.5l-244 8q-35 0 -115 -4t-86 -4zM410 848q215 0 364.5 59.5 t149.5 239.5q0 133 -99.5 205.5t-236.5 72.5l-162 -6q-16 -125 -16 -268v-303zM418 242l8 -144l123 -6q184 0 306 83t122 257q0 195 -127 263.5t-340 68.5l-92 -2v-344v-176z" />
<glyph unicode="C" horiz-adv-x="1478" d="M84 750q0 371 224 580.5t595 209.5q133 0 264 -30.5t263 -90.5q-20 -51 -37 -106.5t-21 -116.5h-26q-154 246 -449 246q-274 0 -417.5 -195.5t-143.5 -484.5q0 -266 149.5 -473t409.5 -207q139 0 257 58.5t237 166.5l24 -10q-14 -57 -19 -98t-5 -86q-254 -137 -541 -138 q-346 0 -555 214.5t-209 560.5z" />
<glyph unicode="D" horiz-adv-x="1691" d="M176 2q0 115 14.5 388.5t14.5 367.5q0 115 -14.5 386t-14.5 367l166 -4q66 0 226.5 8.5t205.5 8.5q125 0 167 -4t212 -32t312.5 -230.5t142.5 -473.5q0 -360 -225.5 -572t-585.5 -212l-183 2l-241 10l-41 2q-49 0 -90 -5t-66 -7zM414 610l12 -487q49 -6 114.5 -12.5 t112.5 -6.5q336 0 523.5 170t187.5 504q0 309 -177 477t-491 168q-45 0 -135 -6t-135 -6l-12 -604v-197z" />
<glyph unicode="E" horiz-adv-x="1112" d="M176 0q0 115 14.5 388.5t14.5 365.5q0 254 -5 401.5t-24 355.5l397 -6l418 6l-6 -75l6 -80q-78 18 -166 28.5t-163 10.5h-238l-4 -308v-231h227q133 0 305 23l-4 -72l4 -74l-313 17h-219v-236l8 -395q188 0 311 6t256 29l-4 -78l4 -76l-413 6z" />
<glyph unicode="F" horiz-adv-x="1087" d="M176 0q0 115 14.5 388.5t14.5 365.5q0 254 -5 401.5t-24 355.5l406 -6l413 6l-4 -73l4 -82q-102 25 -174.5 32t-189.5 7h-207l-4 -308v-231h227q133 0 305 23l-4 -72l4 -74l-313 17h-219v-236q0 -102 7 -283.5t7 -230.5q-20 0 -62 7t-64.5 7t-65.5 -7t-66 -7z" />
<glyph unicode="G" horiz-adv-x="1624" d="M84 745q0 358 236.5 576.5t599.5 218.5q150 0 306 -32.5t283 -96.5q-23 -55 -37 -109.5t-18 -105.5h-35q-106 131 -219 191.5t-272 60.5q-268 0 -432 -198.5t-164 -471.5q0 -305 153.5 -504.5t454.5 -199.5q102 0 182 17.5t164 62.5q0 47 4 146t4 108q0 47 -6 139t-6 141 q51 -10 64.5 -11t54.5 -1q27 0 62.5 4t64.5 10l-10 -307q0 -55 5 -185t5 -137q-160 -43 -299 -64.5t-285 -21.5q-383 0 -621.5 198.5t-238.5 571.5z" />
<glyph unicode="H" horiz-adv-x="1679" d="M176 0q0 115 14.5 388.5t14.5 365.5q0 254 -5 401.5t-24 355.5q27 0 74 -5t57 -5q25 0 70 5t57 5q0 -127 -7 -345t-7 -279l420 -6l422 6q0 154 -7.5 388t-7.5 236q29 0 75 -5t54 -5q27 0 75 5t54 5q-12 -102 -18 -214.5t-6 -227.5l-6 -342l6 -268q0 -72 12 -240t12 -219 q-20 0 -63 7t-65.5 7t-65.5 -7t-64 -7q0 61 6.5 163.5t6.5 123.5l2 227v240q-92 0 -279.5 3t-282.5 3l-280 -6v-240q0 -102 7 -283.5t7 -230.5q-20 0 -62 7t-64.5 7t-65.5 -7t-66 -7z" />
<glyph unicode="I" horiz-adv-x="622" d="M178 0q0 115 14.5 388.5t14.5 365.5q0 254 -5 401.5t-24 355.5q33 -4 75 -7t60 -3q31 0 78 5t55 5q0 -72 -12 -231.5t-12 -210.5l-4 -342l4 -268q0 -72 12 -240t12 -219q-20 0 -65 7t-68 7q-29 0 -65.5 -5t-69.5 -9z" />
<glyph unicode="J" horiz-adv-x="622" d="M-115 -293q117 23 197 75t111 152q14 82 20 167t6 198q0 227 -4 449.5t-9 371t-26 391.5q29 0 78 -5t55 -5q45 0 73 3l63 7q0 -143 -13.5 -431.5t-13.5 -338.5l4 -473q0 -29 -2 -93t-2 -97q0 -221 -146.5 -329.5t-377.5 -108.5z" />
<glyph unicode="K" horiz-adv-x="1331" d="M176 0q0 115 14.5 388.5t14.5 365.5q0 254 -5 401.5t-24 355.5q27 0 74 -5t57 -5q25 0 70 5t57 5l-20 -424v-278q197 141 366.5 315t333.5 387q39 -4 74 -4h74l96 4l-374 -331l-353 -332q123 -156 221 -266l229 -253l310 -329h-179q-49 0 -88 -2t-80 -12q-53 86 -116 164 l-154 182l-360 411v-233q0 -104 10 -295.5t10 -214.5q-20 0 -62 7t-64.5 7t-65.5 -7t-66 -7z" />
<glyph unicode="L" horiz-adv-x="1019" d="M176 0q0 115 14.5 388.5t14.5 365.5q0 254 -5 401.5t-24 355.5q29 0 68 -3l63 -5q23 0 73 4t54 4q0 -78 -7 -218t-7 -183q0 -172 4 -570.5t4 -420.5h225q90 0 178.5 9t186.5 26l-4 -78l4 -76l-436 6z" />
<glyph unicode="M" horiz-adv-x="2007" d="M90 0q57 272 107.5 540.5t81 517.5t30.5 482h84l145 -288l132 -259l147 -286l199 -361l189 360l229 447l190 387h84l49.5 -485.5t58 -499.5t74.5 -555q-41 8 -70.5 13t-54.5 5q-27 0 -62.5 -7t-66.5 -11q0 178 -15 367.5t-40 381.5l-49 379l-318 -620 q-135 -260 -223 -508l-26 2l-31 -2q-281 590 -565 1110l-62 -612q-20 -207 -26.5 -289t-6.5 -209q-18 2 -48.5 7t-45.5 5q-27 0 -47 -4z" />
<glyph unicode="N" horiz-adv-x="1638" d="M160 -2q12 131 17 204.5t5 172.5q0 137 7.5 413.5t7.5 413.5l-4 338h77l260 -297l232 -260l229 -250l340 -360v610q0 129 -6 259t-22 269l88 -6l90 6q-10 -76 -17.5 -161.5t-7.5 -147.5q0 -197 -6 -531.5t-6 -402.5l4 -293h-70l-192 230l-228 252l-645 684v-604 q0 -262 31 -539l-100 6z" />
<glyph unicode="O" horiz-adv-x="1814" d="M84 754q0 367 228.5 576.5t594.5 209.5q315 0 540.5 -155.5t251 -322.5t30 -209t4.5 -103q0 -57 -4.5 -96.5t-30 -204t-247.5 -319.5t-542 -155q-102 0 -182 8.5t-232.5 64.5t-281.5 254t-129 452zM330 760q0 -303 143 -497.5t434 -194.5t434.5 195.5t143.5 496.5 q0 297 -145.5 489.5t-432.5 192.5q-209 0 -341 -101.5t-199 -304.5q-37 -139 -37 -276z" />
<glyph unicode="P" horiz-adv-x="1193" d="M178 0q0 139 14.5 466t14.5 441q0 326 -25 604l199 -6q63 0 169.5 5.5t127.5 5.5q205 0 349 -97.5t144 -294.5q0 -211 -171 -327.5t-396 -116.5l-194 4q0 -119 8 -358.5t8 -325.5q-20 0 -61 7t-64 7q-27 0 -60 -5zM410 772q305 0 414.5 88t109.5 250q0 145 -97.5 230 t-244.5 85l-166 -6q-6 -76 -11 -150.5t-5 -150.5v-346z" />
<glyph unicode="Q" horiz-adv-x="1814" d="M84 754q0 367 228.5 576.5t594.5 209.5q315 0 540.5 -155.5t251 -322.5t30 -209t4.5 -103q0 -53 -4.5 -92.5t-23.5 -162t-147 -261t-344 -222.5l295 -194q53 -39 120 -79t114 -63q-61 -23 -106.5 -46t-92.5 -62l-121 94l-118 88l-320 227l-65 -2q-371 0 -603.5 207 t-232.5 572zM330 760q0 -301 143 -495.5t434 -194.5t434.5 196.5t143.5 493.5t-145.5 489.5t-432.5 192.5q-209 0 -341 -101.5t-199 -304.5q-37 -139 -37 -276z" />
<glyph unicode="R" horiz-adv-x="1271" d="M178 0q0 147 14.5 498.5t14.5 472.5q0 119 -6 263t-19 277l154 -4l332 9q193 0 337 -84t144 -265q0 -170 -120 -260t-310 -139l288 -378l302 -390l-119 8l-199 -8q-131 207 -261 390t-271 349h-51v-239q0 -100 8 -274.5t8 -225.5q-20 0 -61 7t-62 7q-27 0 -60 -5z M408 817q223 0 370.5 63.5t147.5 254.5q0 150 -106.5 220t-262.5 70l-137 -6q-8 -66 -10 -167t-2 -113v-322z" />
<glyph unicode="S" horiz-adv-x="1132" d="M82 96q20 72 29.5 123t9.5 115l22 4q55 -125 148.5 -194.5t224.5 -69.5q129 0 226.5 85t97.5 210q0 176 -189 280l-352 160q-188 111 -188 309q0 197 143 309.5t348 112.5q96 0 177 -22.5t190 -71.5q-23 -53 -43.5 -111.5t-28.5 -105.5h-23q-59 227 -301 227 q-117 0 -198.5 -67.5t-81.5 -184.5q0 -166 190 -262l359 -158q195 -113 194 -319q0 -217 -161.5 -353.5t-385.5 -136.5q-117 0 -219 27.5t-188 93.5z" />
<glyph unicode="T" horiz-adv-x="1175" d="M18 1360l7 76l-7 75q98 0 297 -8t271 -8q96 0 296.5 8t272.5 8q-8 -33 -8 -77v-36q0 -15 8 -44q-74 14 -166 25.5t-170 11.5h-123q0 -43 -4 -145.5t-4 -106.5l6 -781q0 -160 23 -358q-66 6 -129 14q-29 0 -64 -5t-67 -9q0 66 11 215.5t11 206.5l2 686l-6 283 q-211 0 -457 -31z" />
<glyph unicode="U" horiz-adv-x="1646" d="M164 1511q33 -4 61.5 -6t69.5 -2q22 0 76.5 4t56.5 4q-14 -129 -19.5 -207.5t-5.5 -173.5v-389q0 -397 110 -523t325 -126q225 0 354 118t129 333v200v320q0 127 -5 231.5t-22 216.5q27 -4 49.5 -6t51.5 -2q16 0 47 4t49 4q-16 -129 -21.5 -247.5t-5.5 -290.5v-379 q0 -305 -176 -462t-489 -157q-299 0 -455 132.5t-156 416.5v166v443q0 100 -10 207.5t-14 170.5z" />
<glyph unicode="V" horiz-adv-x="1382" d="M0 1511l135 -8q25 0 83 4t65 4q20 -76 51 -165l69 -203l97 -254l237 -639l213 565q131 342 234 696l98 -6l100 6q-168 -342 -338 -752.5t-280 -758.5q-20 2 -41 7t-43 5q-31 0 -55.5 -6t-30.5 -6q-55 201 -140 417l-143 357l-190 459z" />
<glyph unicode="W" horiz-adv-x="2119" d="M0 1511l77 -6q26 -2 46 -2t73.5 4t55.5 4q72 -295 174 -624l190 -611l147 434q89 267 134 415.5t109 385.5l84 -8q20 0 46.5 3t41.5 5l160 -530q60 -199 95 -300l140 -405l190 572q55 164 92 320.5t70 342.5q16 0 56 -4t42 -4q25 0 53.5 3t43.5 5 q-143 -348 -283.5 -752.5t-230.5 -758.5q-14 2 -42 7t-44 5q-18 0 -52 -6t-41 -6q-78 299 -192 627l-195 563l-243 -723q-84 -250 -144 -467q-18 0 -52 6t-42 6q-27 0 -47 -4t-45 -8q-57 231 -131 480t-137 441z" />
<glyph unicode="X" horiz-adv-x="1198" d="M0 0l324 465l192 276l-487 770q25 0 75 -4t74 -4q61 0 95 4t49 4l159 -306l154 -283l158 256q96 160 176 333q27 -4 49 -6t55 -2q14 0 50 4t57 4l-181 -244l-147 -208l-158 -228l156 -268l147 -242l201 -321q-31 0 -85 6t-62 6q-47 0 -85 -5t-61 -7q-74 158 -161 321 l-173 326l-141 -241l-147 -249q-31 -54 -76 -157q-23 0 -62 6t-43 6q-33 0 -59.5 -5t-42.5 -7z" />
<glyph unicode="Y" horiz-adv-x="1144" d="M-45 1511q29 0 85 -5t64 -5q45 0 80 4t56 6q45 -106 97 -212.5t112 -200.5l184 -328q100 162 194.5 346t190.5 395l90 -8q31 0 53.5 2t48.5 6l-309 -493l-201 -344v-285q0 -68 4.5 -224.5t4.5 -164.5l-58 7q-41 5 -65 5q-43 0 -67.5 -4t-55.5 -8q6 59 12 143t6 146l2 338 q-63 117 -171 298l-175 293z" />
<glyph unicode="Z" horiz-adv-x="1341" d="M12 0v59l349 468l329 456l279 408h-267q-301 0 -606 -35l10 78l-10 77q123 0 330 -8t268 -8q102 0 315.5 8t290.5 8v-45l-335 -444l-317 -435l-320 -460h366q150 0 249 7t357 32l-8 -55l-2 -23l2 -31l8 -57q-193 0 -482.5 7t-291.5 7q-84 0 -256 -7t-258 -7z" />
<glyph unicode="[" horiz-adv-x="727" d="M188 -256q0 31 8.5 123t8.5 137l2 623l-2 620l-17 264l195 -4l209 4l-2 -38l2 -58q-80 12 -164 12l-72 -2l-4 -796l4 -797l76 -4q70 0 104.5 5t55.5 7l-2 -41l2 -55l-205 6z" />
<glyph unicode="\" horiz-adv-x="620" d="M-59 1663h104l608 -1868h-100z" />
<glyph unicode="]" horiz-adv-x="727" d="M135 -160q72 -8 162 -8h76l4 795l-4 798l-76 2q-35 0 -79 -4t-83 -8l2 49l-2 47l197 -4l207 4q0 -31 -8.5 -125t-8.5 -139l-2 -506l2 -737l17 -260l-199 6l-205 -6l2 47z" />
<glyph unicode="^" horiz-adv-x="653" d="M0 1204l244 381h143l246 -381h-74l-242 215l-239 -215h-78z" />
<glyph unicode="_" horiz-adv-x="1107" d="M0 -414h1108v-108h-1108v108z" />
<glyph unicode="`" horiz-adv-x="604" d="M141 995q0 37 17.5 76t42.5 76l241 393l52 -14l-132 -457q-14 -59 -44.5 -103t-88.5 -44q-88 -1 -88 73z" />
<glyph unicode="a" horiz-adv-x="1048" d="M72 264q0 180 100 227.5t318.5 99.5t230.5 136q0 115 -68.5 192.5t-185.5 77.5q-90 0 -156.5 -44t-107.5 -128l-47 17l12 119q74 63 165 96t191 33q197 0 287 -79t90 -270v-528q0 -74 19.5 -99.5t78.5 -25.5l62 2v-47l-95 -37q-48 -18 -94 -18q-74 0 -110.5 37.5 t-52.5 109.5q-78 -78 -154 -119t-174 -41q-129 0 -219 79t-90 210zM285 299q0 -80 48 -138.5t126 -58.5q100 0 175 71t75 169v217q-213 -39 -318.5 -82t-105.5 -178z" />
<glyph unicode="b" horiz-adv-x="1228" d="M127 -2q6 72 13 174t7 174l3 539q0 129 -7.5 388t-7.5 390q57 -12 111 -12q47 0 110 12q-10 -94 -13 -176t-3 -207v-55v-324q119 188 340 188.5t341 -165.5t120 -402q0 -240 -118 -393.5t-351 -153.5q-104 0 -192.5 37t-166.5 115q-29 -23 -54.5 -48.5t-63.5 -80.5h-68z M328 524q0 -170 69.5 -309t225.5 -139q158 0 225 138t67 314.5t-67.5 315.5t-224.5 139q-160 0 -227.5 -138.5t-67.5 -320.5z" />
<glyph unicode="c" horiz-adv-x="1044" d="M59 508q0 272 160 427t430 155q96 0 183.5 -20.5t162.5 -70.5q-27 -84 -45 -200h-24q-33 100 -97.5 153.5t-169.5 53.5q-182 0 -277 -141.5t-95 -332.5q0 -193 100 -328.5t287 -135.5q170 0 291 131l20 -4l-20 -127q-76 -55 -164 -74t-209 -19q-223 0 -378 154t-155 379z " />
<glyph unicode="d" horiz-adv-x="1228" d="M90 537q0 223 117 388t334 165q113 0 203 -46.5t151 -142.5v324v55v47q0 178 -16 336q55 -12 110 -12q31 0 49.5 2t59.5 10l-15 -426l7 -1014l8 -225q-37 4 -61.5 7t-45.5 3q-23 0 -59.5 -5t-44.5 -5l14 197q-117 -219 -356 -220q-221 0 -338 164.5t-117 397.5zM315 539 q0 -174 68 -310.5t225 -136.5q160 0 227.5 134t67.5 313q0 170 -69.5 308t-225 138t-224.5 -136t-69 -310z" />
<glyph unicode="e" horiz-adv-x="1103" d="M68 504q0 236 140 411t372 175q205 0 337 -129.5t132 -335.5l-5 -88l-534 6l-219 -4q0 -197 91 -334t277 -137q190 0 318 141l29 -6q-8 -35 -12.5 -64.5t-4.5 -66.5q-76 -49 -180 -73t-207 -24q-244 0 -389 143.5t-145 385.5zM295 631l536 4l3 72q0 121 -69 209t-183 88 q-143 0 -205 -105.5t-82 -267.5z" />
<glyph unicode="f" horiz-adv-x="643" d="M20 954l5 62l-5 45q43 -6 111 -8t76 -2q0 211 106.5 411.5t300.5 200.5q37 0 51.5 -5t36.5 -11l-26 -193q-33 14 -72 24.5t-76 10.5q-76 0 -117.5 -50t-41.5 -132q0 -72 14 -150t18 -106q49 0 136.5 5t107.5 5q-6 -10 -9 -18.5t-3 -14.5l-2 -18l2 -19q0 -2 12 -37 q-63 10 -118.5 12.5t-125.5 2.5v-375q0 -98 6.5 -297t6.5 -297q-25 0 -66 6t-49 6q-35 0 -63.5 -5t-47.5 -7q0 86 9.5 261t9.5 265v443q-55 0 -98.5 -2.5t-88.5 -12.5z" />
<glyph unicode="g" horiz-adv-x="1114" d="M51 -297q0 117 73 195.5t189 115.5q-82 27 -132 70t-50 116.5t51 126t131 83.5v16q-102 25 -155.5 107.5t-53.5 191.5q0 168 125 266.5t295 98.5q55 0 159.5 -16.5t127.5 -18.5l279 6v-117l-116 17q-58 8 -102 8q113 -80 113 -226q0 -164 -130 -265t-300 -101 q-37 0 -83 5t-58 5q-45 0 -78 -29.5t-33 -74.5q0 -61 54.5 -88t121.5 -27h215q174 0 285 -76t111 -244q0 -215 -181.5 -333.5t-406.5 -118.5q-178 0 -314.5 72.5t-136.5 234.5zM221 -264q0 -123 96.5 -186.5t229.5 -63.5q141 0 250.5 74.5t109.5 210.5q0 127 -95 180 t-239 53q-145 0 -248.5 -63.5t-103.5 -204.5zM313 725q0 -111 58.5 -192.5t167.5 -81.5q113 0 174 88t61 202q0 111 -59.5 192t-168 81t-171 -89t-62.5 -200z" />
<glyph unicode="h" horiz-adv-x="1228" d="M154 0l12 221l2 1174q0 55 -3 120.5t-11 147.5q53 -10 69.5 -11t34.5 -1q51 0 115 12q-6 -39 -8.5 -109.5t-2.5 -111.5v-33v-528q70 96 165.5 152.5t207.5 56.5q174 0 256 -105.5t82 -288.5v-213l2 -262l6 -221q-27 2 -51 5t-59 3q-27 0 -59.5 -3t-51.5 -5q0 111 9.5 329 t9.5 328q0 125 -58.5 209t-177.5 84q-168 0 -225.5 -126t-57.5 -314q0 -113 6.5 -293t6.5 -217q-27 0 -65 6t-42 6q-39 0 -62 -4t-50 -8z" />
<glyph unicode="i" horiz-adv-x="552" d="M152 1436q0 55 34.5 90t89.5 35q57 0 92 -37t35 -97q0 -51 -35.5 -79.5t-91.5 -28.5q-51 0 -87.5 32t-36.5 85zM156 1061q61 -10 112 -10q33 0 53.5 2t57.5 8l-11.5 -120.5t-5.5 -121.5q0 -141 8.5 -428t8.5 -391q-27 2 -52.5 5t-58.5 3q-47 0 -73.5 -4t-38.5 -4l10 233 l2 611z" />
<glyph unicode="j" horiz-adv-x="552" d="M-90 -541q160 16 215 106.5t55 266.5l2 125v678q0 86 -10 245.5t-10 180.5q59 -10 74 -10h36q37 0 56.5 2t62.5 8q0 -94 -5 -237.5t-5 -166.5v-680l-2 -155q0 -203 -130 -314.5t-339 -111.5v63zM152 1436q0 55 34.5 90t89.5 35q57 0 92 -37t35 -97q0 -51 -35.5 -79.5 t-91.5 -28.5q-51 0 -87.5 32t-36.5 85z" />
<glyph unicode="k" horiz-adv-x="1107" d="M158 0q0 246 5 627t5 438q0 137 -5 351t-5 247q61 -12 110 -12q51 0 109 12q0 -102 -7.5 -325.5t-7.5 -327.5v-398h37q236 211 426 449q49 -10 90 -10h84q37 6 54 8l-486 -412l322 -379q49 -61 98 -116l113 -121v-31q-31 0 -81 6t-58 6q-39 0 -78 -6t-54 -6l-118 165 q-57 77 -125 154l-150 181l-26 24l-48 4q0 -86 7.5 -262t7.5 -266q-25 4 -50.5 6t-58.5 2q-29 0 -60.5 -3t-49.5 -5z" />
<glyph unicode="l" horiz-adv-x="552" d="M164 1663q61 -12 112 -12q55 0 111 12q-10 -125 -14 -248t-4 -305l4 -279l6 -651l8 -180q-27 2 -51.5 5t-59.5 3q-27 0 -60.5 -3t-51.5 -5l10 193l2 1237q0 55 -6 137t-6 96z" />
<glyph unicode="m" horiz-adv-x="1892" d="M150 0l12 252l2 551q0 55 -3 118.5t-11 139.5q51 -10 102 -10l108 10l-6 -189q74 106 164 161t215 55q211 0 289 -203q78 98 169 151.5t206 53.5q176 0 257 -106.5t81 -287.5v-213v-262l8 -221q-16 0 -57 6t-52 6q-25 0 -63.5 -6t-46.5 -6q0 111 8 329t8 328 q0 131 -50 212t-175 81q-104 0 -179 -75.5t-83.5 -143t-10.5 -122t-2 -81.5v-18q0 -90 5.5 -294t5.5 -216q-41 4 -63.5 6t-43.5 2q-18 0 -62 -4t-46 -4q0 90 8 272.5t8 247.5l-2 137q0 125 -54.5 209t-172.5 84q-111 0 -178.5 -72.5t-80 -170t-12.5 -197.5q0 -113 5 -293 t5 -217q-25 0 -64.5 6t-45.5 6q-33 0 -60.5 -5t-41.5 -7z" />
<glyph unicode="n" horiz-adv-x="1222" d="M150 0l12 252l2 553q0 55 -3 118.5t-11 139.5q51 -10 102 -10l108 10l-6 -189q70 98 165 157t216 59q125 0 227.5 -78t102.5 -199l2 -330v-262l10 -221q-27 2 -52.5 5t-57.5 3q-27 0 -60 -3t-51 -5q0 131 8 361.5t8 297.5q0 129 -55 211t-182 82q-164 0 -221.5 -127 t-57.5 -315q0 -90 4.5 -294t4.5 -216q-23 0 -62 6t-47 6q-23 0 -61.5 -6t-44.5 -6z" />
<glyph unicode="o" horiz-adv-x="1220" d="M68 522q0 248 149.5 408t396.5 160q244 0 391.5 -158t147.5 -404q0 -244 -149.5 -398.5t-399.5 -154.5q-242 0 -389 151.5t-147 395.5zM293 532q0 -180 76.5 -327.5t240.5 -147.5q168 0 242 142.5t74 329t-73 332t-241 145.5t-243.5 -145t-75.5 -329z" />
<glyph unicode="p" horiz-adv-x="1228" d="M135 1063q20 -4 44 -7t61 -3q31 0 49 2t57 8q-16 -102 -16 -195q72 109 154.5 165.5t207.5 56.5q215 0 332 -169t117 -399q0 -225 -119 -386t-334 -161q-221 0 -348 185v-324q0 -78 8 -233.5t8 -208.5q-29 4 -54.5 6t-55.5 2h-33q-12 0 -78 -8q0 72 7.5 216t7.5 216 q0 250 -3.5 503t-5.5 505zM328 532q0 -176 68.5 -316t226.5 -140q156 0 224 136t68 310q0 166 -71.5 305.5t-218.5 139.5q-156 0 -226.5 -132.5t-70.5 -302.5z" />
<glyph unicode="q" horiz-adv-x="1228" d="M88 514q0 227 115.5 401.5t335.5 174.5q119 0 210 -57.5t150 -164.5q0 96 -14 195q49 -8 66.5 -9t39.5 -1q47 0 105 10l-9 -361q0 -219 -2 -438l-4 -438l15 -432q-29 4 -53.5 6t-55.5 2q-27 0 -46 -1t-64 -7q10 98 13 259t3 183v324q-123 -184 -344 -185q-213 0 -337 159 t-124 380zM313 522q0 -168 70 -307t223 -139q162 0 229.5 140t67.5 321q0 166 -72.5 298t-226.5 132q-156 0 -223.5 -135.5t-67.5 -309.5z" />
<glyph unicode="r" horiz-adv-x="790" d="M150 0l12 197l2 452v53q0 186 -14 359q37 -6 55 -8t61 -2q53 0 115 10q-8 -45 -13.5 -105.5t-5.5 -117.5q72 121 151 183t202 62l45 -2l-10 -102l10 -107q-27 6 -61.5 11.5l-71.5 11.5q-150 0 -208.5 -111.5t-58.5 -275.5q0 -90 4.5 -293t4.5 -215l-111 12z" />
<glyph unicode="s" horiz-adv-x="960" d="M111 39l55 223h22q23 -96 90.5 -149.5t170.5 -53.5q92 0 165.5 50.5t73.5 138.5q0 117 -145 176l-271 96q-143 74 -143 228q0 150 111.5 246t261.5 96q76 0 148.5 -17.5t160.5 -54.5l-63 -193h-21q-25 84 -76 127t-141 43q-84 0 -147.5 -47t-63.5 -129q0 -125 280.5 -211 t280.5 -289q0 -168 -130 -256t-308 -88q-157 1 -311 64z" />
<glyph unicode="t" horiz-adv-x="688" d="M29 1061q102 -18 188 -19q0 43 -5 145.5t-5 106.5q57 20 115.5 47t105.5 58q-14 -84 -18.5 -169t-4.5 -188q98 0 137.5 4.5t108.5 14.5l-4 -57l4 -54q-127 14 -248 15l-10 -545l4 -156q0 -86 47.5 -140t128.5 -54q27 0 55.5 3t45.5 5v-72q-59 -14 -106.5 -22.5 t-94.5 -8.5q-111 0 -185.5 54.5t-82.5 163.5l-4 131l8 305l8 336q-33 0 -80 -3.5t-108 -11.5l8 72z" />
<glyph unicode="u" horiz-adv-x="1222" d="M147 1061q55 -10 109 -10q33 0 50.5 2t58.5 8q0 -111 -9.5 -331t-9.5 -331q0 -135 54.5 -214t185.5 -79q106 0 182 75t88 184q14 92 14 188q0 84 -7 253t-7 255q59 -10 74 -10h37q33 0 50 2t58 8l-14 -254l-2 -553q0 -55 3 -118.5t13 -137.5q-47 6 -61.5 7t-44.5 1 q-25 0 -39.5 -1t-65.5 -7l8 190q-74 -104 -158.5 -158.5t-203.5 -54.5q-186 0 -270 103.5t-84 290.5v202l-2 267z" />
<glyph unicode="v" horiz-adv-x="1060" d="M0 1061q63 -8 88 -9t51 -1q23 0 45.5 1t87.5 9q59 -203 138 -408l172 -434l182 488q61 158 117 354q18 -4 43.5 -6t48.5 -2h59q27 6 35 8q-129 -246 -244.5 -509t-218.5 -552q-16 4 -39.5 9t-46.5 5q-16 0 -38 -5l-38 -9q-61 197 -117.5 335t-324.5 726z" />
<glyph unicode="w" horiz-adv-x="1697" d="M6 1061q61 -8 84 -9t49 -1q57 0 129 10q18 -109 41 -185.5t78 -236.5l148 -410q145 397 274 832q45 -10 86 -10q43 0 94 10q18 -86 45 -178t66 -201l149 -461l166 451q33 94 63.5 192.5t53.5 196.5q43 -8 57.5 -9t32.5 -1q37 0 86 10q-82 -160 -149.5 -318.5 t-145.5 -360.5l-145 -382q-14 0 -43 6t-35 6q-16 0 -42 -6t-36 -6q-31 117 -59.5 207t-61.5 180l-151 416q-70 -180 -139 -382l-136 -421q-20 2 -37.5 5t-46.5 3q-18 0 -43.5 -3t-38.5 -5l-136 395l-124 329z" />
<glyph unicode="x" horiz-adv-x="1024" d="M2 0l212 250l214 264l-172 234l-128 166q-69 89 -120 147q76 -10 150 -10q39 0 72.5 3t58.5 7q57 -98 115 -187l139 -200l139 191q70 97 131 196q12 -2 36.5 -5t43.5 -5q51 0 106 10l-397 -469q102 -158 171 -251l257 -341q-31 0 -78 6t-57 6q-45 0 -81 -5t-60 -7 q-94 160 -138.5 228.5t-136.5 199.5q-164 -236 -198.5 -290t-79.5 -138l-92 8q-18 0 -54.5 -4t-52.5 -4z" />
<glyph unicode="y" horiz-adv-x="1075" d="M6 1061l133 -10l129 10l60 -190q20 -67 63 -171l199 -491l178 463q74 201 129 389q49 -10 88 -10q43 0 94 10q-217 -430 -403.5 -857t-313.5 -808l-59 10h-74q-31 -8 -47 -10l289 567q-195 514 -465 1098z" />
<glyph unicode="z" horiz-adv-x="1048" d="M25 0v47l241 317q123 161 226 312l186 274h-240q-84 0 -142 -6t-194 -26l9 71l-9 72q84 -6 192.5 -9t242.5 -3h53h47q174 0 348 12v-45l-250 -321l-220 -296l-200 -288h242q92 0 184 8l224 20l-11 -69l11 -70l-510 14q-70 0 -214 -7t-216 -7z" />
<glyph unicode="{" horiz-adv-x="1107" d="M188 514v117q176 0 249 65.5t73 237.5v262q0 217 53 295t166 94q88 10 193 10v-114l-125 -6q-74 0 -113 -55.5t-39 -133.5v-78v-262q0 -147 -46 -241.5t-171 -131.5q121 -35 169 -132t48 -238v-262q0 -117 27.5 -184.5t93 -78t94.5 -10.5h62v-117q-176 0 -293 58.5 t-117 218.5l-2 125v260q0 102 -30.5 183t-89 96.5t-104 18.5t-98.5 3z" />
<glyph unicode="|" horiz-adv-x="1107" d="M496 -379v821h114v-821h-114zM496 727v823h114v-823h-114z" />
<glyph unicode="}" horiz-adv-x="1107" d="M184 -332q170 0 225.5 51.5t55.5 145.5v76v262q0 141 46 236.5t167 133.5q-131 45 -172 131.5t-41 241.5v262q0 117 -28.5 185.5t-125.5 85.5l-127 2v114l117 -2q92 0 165 -34.5t97.5 -97t30.5 -127t6 -138.5v-262q0 -143 58.5 -223t197.5 -80h64v-117q-172 0 -246 -63.5 t-74 -237.5v-260q0 -250 -81 -326t-335 -76v117z" />
<glyph unicode="~" horiz-adv-x="2217" d="M463 1055q0 190 90 317t274 127q158 0 305.5 -161.5t251.5 -161.5q135 0 188.5 89t53.5 234h127q0 -193 -92 -318.5t-281 -125.5q-143 0 -296.5 161.5t-252.5 161.5q-131 0 -187 -91t-56 -232h-125z" />
<glyph unicode="&#xa3;" d="M106 0l5 76l-5 84l82 4q98 18 143.5 109.5t45.5 201.5q0 61 -7.5 134t-9.5 112q-82 0 -133 -3t-104 -16l6 76l-6 37q29 -6 49.5 -11t46.5 -5h137q-8 49 -12 95t-4 95q0 215 154.5 350.5t377.5 135.5q90 0 156 -19.5t146 -52.5q-47 -90 -93 -215h-16q-25 96 -82 151.5 t-152 55.5q-137 0 -207.5 -101.5t-70.5 -242.5l8 -252h37q137 0 256 16l-6 -57l6 -56q-51 10 -139 14.5t-150 4.5v-107q0 -123 -57 -227t-162 -213q338 0 510 10.5t328 34.5l-13 -110q0 -51 13 -109q-102 0 -303 7t-299 7q-117 0 -294.5 -7t-181.5 -7z" />
<glyph unicode="&#xa5;" horiz-adv-x="1216" d="M51 1440l99 -6l161 6q27 -68 53.5 -119t102.5 -186l178 -304q57 94 128 228.5t188 380.5l81 -6l91 6l-119 -185l-115 -192l-162 -268q68 0 225.5 5t167.5 5v-105l-428 7v-170l226 -2q37 0 104.5 4t97.5 4v-109l-208 15l-220 2q0 -113 1.5 -218.5t13.5 -232.5l-125 8 l-109 -8q14 88 19.5 213t5.5 238q-74 0 -223.5 -8.5t-202.5 -8.5v109q51 0 156.5 -4t160.5 -4l109 2v170h-221l-205 -7v105q66 0 215 -5t158 -5l-250 409z" />
<glyph unicode="&#xa8;" horiz-adv-x="1013" d="M137 995q0 39 15.5 74t44.5 78l239 393l53 -14l-129 -457q-16 -66 -45.5 -106.5t-89.5 -40.5q-88 -1 -88 73zM545 995q0 33 19.5 76t39.5 76l240 393l51 -14l-129 -457q-20 -66 -48 -106.5t-85 -40.5q-39 0 -63.5 19t-24.5 54z" />
<glyph unicode="&#xa9;" horiz-adv-x="1847" d="M131 782q0 324 234.5 558.5t558.5 234.5q209 0 401 -107q180 -102 285.5 -289.5t105.5 -396.5q0 -324 -236.5 -557t-557.5 -233q-319 0 -555 235.5t-236 554.5zM219 782q0 -285 207 -496.5t494 -211.5q283 0 495.5 211t212.5 493q0 190 -92 356t-259 260.5t-353 94.5 q-287 0 -496 -210t-209 -497zM510 772q0 207 108.5 354.5t309.5 147.5q137 0 236.5 -76t121.5 -209h-127q-14 80 -79.5 132.5t-153.5 52.5q-139 0 -208 -116t-69 -263q0 -152 64.5 -275t195.5 -123q100 0 170 53.5t95 149.5h120q-14 -141 -123.5 -224t-257.5 -83 q-188 0 -295.5 142t-107.5 337z" />
<glyph unicode="&#xab;" horiz-adv-x="983" d="M78 528l358 525l66 -62l-254 -463l254 -458l-66 -64zM469 528l358 525l66 -62l-254 -463l254 -458l-66 -64z" />
<glyph unicode="&#xad;" horiz-adv-x="727" d="M94 444v189h537v-189h-537z" />
<glyph unicode="&#xae;" horiz-adv-x="1847" d="M131 782q0 324 234.5 558.5t558.5 234.5q209 0 401 -107q180 -102 285.5 -289.5t105.5 -396.5q0 -324 -236.5 -557t-557.5 -233q-319 0 -555 235.5t-236 554.5zM219 782q0 -285 207 -496.5t494 -211.5q283 0 495.5 211t212.5 493q0 190 -92 356t-259 260.5t-353 94.5 q-287 0 -496 -210t-209 -497zM610 340v909h334q154 0 266.5 -53t112.5 -190q0 -92 -62.5 -159t-154.5 -87l207 -420h-160l-190 401h-213v-401h-140zM750 831h170q113 0 188.5 32t75.5 128t-77 131t-189 35h-168v-326z" />
<glyph unicode="&#xb4;" horiz-adv-x="604" d="M147 934l127 461q14 55 47 103t85 48q37 0 63.5 -22.5t26.5 -59.5q0 -35 -16.5 -73.5t-43.5 -75.5l-239 -393z" />
<glyph unicode="&#xbb;" horiz-adv-x="983" d="M70 61l247 461l-247 463l63 59l359 -522l-359 -522zM459 61l248 461l-248 463l63 59l359 -522l-359 -522z" />
<glyph unicode="&#x2c6;" horiz-adv-x="653" d="M0 1204l244 381h143l246 -381h-74l-242 215l-239 -215h-78z" />
<glyph unicode="&#x393;" horiz-adv-x="1019" d="M176 0q16 174 22.5 339t6.5 355q0 123 -14.5 420t-14.5 397l551 -4l291 4q-4 -18 -6 -51t-2 -47l8 -57q-186 39 -365 39h-225q0 -135 -4 -447.5t-4 -335.5q0 -104 7 -319t7 -293l-131 8z" />
<glyph unicode="&#x3a0;" horiz-adv-x="1679" d="M176 0q0 115 14.5 388.5t14.5 365.5q0 254 -5 401.5t-24 355.5q94 0 287.5 -9t290.5 -9q125 0 374.5 9t376.5 9q-10 -98 -18 -223t-8 -219l-4 -252q0 -123 15 -419t15 -398q-20 0 -63 7t-66 7q-31 0 -59.5 -5t-69.5 -9q0 154 8.5 419t8.5 341l-2 424l-7 184l-555 4 l-274 -4q0 -104 -4 -343t-4 -257q0 -129 8 -385t8 -383q-20 0 -62 7t-65 7q-18 0 -63 -7t-68 -7z" />
<glyph unicode="&#x3a6;" horiz-adv-x="1814" d="M82 754q0 297 198.5 455.5t510.5 193.5l-7 151q31 -4 64 -9t59.5 -5t59 5t67.5 9l-10 -151q301 0 505 -173t204 -476q0 -289 -201 -454t-508 -189l10 -152q-74 16 -127 16q-25 0 -52.5 -3t-70.5 -13l7 152q-281 0 -495 181t-214 462zM330 758q0 -219 128 -382t341 -163 q0 152 7 376t7 226q0 111 -5 285t-5 198q-229 -23 -351 -165t-122 -375zM1004 764q0 -102 6 -275.5t6 -275.5q225 0 347 153.5t122 391.5q0 236 -122 388t-347 152q0 -100 -6 -267t-6 -267z" />
<glyph unicode="&#x3ba;" horiz-adv-x="1107" d="M158 0q0 127 5 338t5 254q0 102 -5 269t-5 200q61 -10 110 -10q51 0 109 10q0 -74 -7.5 -222.5t-7.5 -226.5h58q104 88 207 197l231 252q57 -10 96 -10h84q37 6 52 8l-508 -430l307 -361q49 -61 98 -116l113 -121v-31q-31 0 -81 6t-58 6q-39 0 -78 -6t-54 -6l-118 163 q-63 87 -125 156l-150 181l-26 24l-48 4q0 -82 7.5 -262t7.5 -266l-109 8z" />
<glyph unicode="&#x3c0;" horiz-adv-x="1603" d="M31 909q86 86 196.5 114t268.5 28l571 -7l315 5l170 8l-8 -66l8 -71l-305 10l-6 -428q0 -84 7 -251t7 -251q-31 2 -55 5t-59 3l-109 -8q0 72 5 185.5t5 131.5l-4 613l-215 2l-217 -2l-6 -471q0 -76 6 -226.5t6 -232.5q-27 2 -51 5t-59 3q-27 0 -60.5 -3t-52.5 -5l14 317 l-6 613q-119 0 -184.5 -34t-140.5 -130q-12 77 -41 143z" />
<glyph unicode="&#x410;" horiz-adv-x="1337" d="M-25 0l149 344l134 311l162 381l209 504q14 -4 24.5 -6t24.5 -2q31 0 57 8l202 -518l177 -438l246 -584q-29 0 -79 6t-62 6q-45 0 -82 -5t-60 -7q-68 223 -102.5 323.5t-93.5 249.5l-269 9l-264 -9l-84 -239q-27 -72 -52.5 -155t-47.5 -179l-92 8q-39 0 -63 -4t-34 -4z M399 690l213 -10l219 10l-217 545z" />
<glyph unicode="&#x412;" horiz-adv-x="1298" d="M178 0q0 139 14.5 466t14.5 441q0 326 -25 604l154 -4q66 0 217.5 4.5t161.5 4.5q180 0 308 -83t128 -255q0 -150 -114.5 -238t-282.5 -123q213 -23 339 -105.5t126 -277.5q0 -217 -180.5 -325.5t-415.5 -108.5l-244 8q-35 0 -115 -4t-86 -4zM410 848q215 0 364.5 59.5 t149.5 239.5q0 133 -99.5 205.5t-236.5 72.5l-162 -6q-16 -125 -16 -268v-303zM418 242l8 -144l123 -6q184 0 306 83t122 257q0 195 -127 263.5t-340 68.5l-92 -2v-344v-176z" />
<glyph unicode="&#x413;" horiz-adv-x="1019" d="M176 0q16 174 22.5 339t6.5 355q0 123 -14.5 420t-14.5 397l551 -4l291 4q-4 -18 -6 -51t-2 -47l8 -57q-186 39 -365 39h-225q0 -135 -4 -447.5t-4 -335.5q0 -104 7 -319t7 -293l-131 8z" />
<glyph unicode="&#x415;" horiz-adv-x="1112" d="M176 0q0 115 14.5 388.5t14.5 365.5q0 254 -5 401.5t-24 355.5l397 -6l418 6l-6 -75l6 -80q-78 18 -166 28.5t-163 10.5h-238l-4 -308v-231h227q133 0 305 23l-4 -72l4 -74l-313 17h-219v-236l8 -395q188 0 311 6t256 29l-4 -78l4 -76l-413 6z" />
<glyph unicode="&#x41a;" horiz-adv-x="1331" d="M176 0q0 115 14.5 388.5t14.5 365.5q0 254 -5 401.5t-24 355.5q27 0 74 -5t57 -5q25 0 70 5t57 5l-20 -424v-278q197 141 366.5 315t333.5 387q39 -4 74 -4h74l96 4l-374 -331l-353 -332q123 -156 221 -266l229 -253l310 -329h-179q-49 0 -88 -2t-80 -12q-53 86 -116 164 l-154 182l-360 411v-233q0 -104 10 -295.5t10 -214.5q-20 0 -62 7t-64.5 7t-65.5 -7t-66 -7z" />
<glyph unicode="&#x41c;" horiz-adv-x="2007" d="M90 0q57 272 107.5 540.5t81 517.5t30.5 482h84l145 -288l132 -259l147 -286l199 -361l189 360l229 447l190 387h84l49.5 -485.5t58 -499.5t74.5 -555q-41 8 -70.5 13t-54.5 5q-27 0 -62.5 -7t-66.5 -11q0 178 -15 367.5t-40 381.5l-49 379l-318 -620 q-135 -260 -223 -508l-26 2l-31 -2q-281 590 -565 1110l-62 -612q-20 -207 -26.5 -289t-6.5 -209q-18 2 -48.5 7t-45.5 5q-27 0 -47 -4z" />
<glyph unicode="&#x41d;" horiz-adv-x="1679" d="M176 0q0 115 14.5 388.5t14.5 365.5q0 254 -5 401.5t-24 355.5q27 0 74 -5t57 -5q25 0 70 5t57 5q0 -127 -7 -345t-7 -279l420 -6l422 6q0 154 -7.5 388t-7.5 236q29 0 75 -5t54 -5q27 0 75 5t54 5q-12 -102 -18 -214.5t-6 -227.5l-6 -342l6 -268q0 -72 12 -240t12 -219 q-20 0 -63 7t-65.5 7t-65.5 -7t-64 -7q0 61 6.5 163.5t6.5 123.5l2 227v240q-92 0 -279.5 3t-282.5 3l-280 -6v-240q0 -102 7 -283.5t7 -230.5q-20 0 -62 7t-64.5 7t-65.5 -7t-66 -7z" />
<glyph unicode="&#x41e;" horiz-adv-x="1814" d="M84 754q0 367 228.5 576.5t594.5 209.5q315 0 540.5 -155.5t251 -322.5t30 -209t4.5 -103q0 -57 -4.5 -96.5t-30 -204t-247.5 -319.5t-542 -155q-102 0 -182 8.5t-232.5 64.5t-281.5 254t-129 452zM330 760q0 -303 143 -497.5t434 -194.5t434.5 195.5t143.5 496.5 q0 297 -145.5 489.5t-432.5 192.5q-209 0 -341 -101.5t-199 -304.5q-37 -139 -37 -276z" />
<glyph unicode="&#x41f;" horiz-adv-x="1679" d="M176 0q0 115 14.5 388.5t14.5 365.5q0 254 -5 401.5t-24 355.5q94 0 287.5 -9t290.5 -9q125 0 374.5 9t376.5 9q-10 -98 -18 -223t-8 -219l-4 -252q0 -123 15 -419t15 -398q-20 0 -63 7t-66 7q-31 0 -59.5 -5t-69.5 -9q0 154 8.5 419t8.5 341l-2 424l-7 184l-555 4 l-274 -4q0 -104 -4 -343t-4 -257q0 -129 8 -385t8 -383q-20 0 -62 7t-65 7q-18 0 -63 -7t-68 -7z" />
<glyph unicode="&#x420;" horiz-adv-x="1193" d="M178 0q0 139 14.5 466t14.5 441q0 326 -25 604l199 -6q63 0 169.5 5.5t127.5 5.5q205 0 349 -97.5t144 -294.5q0 -211 -171 -327.5t-396 -116.5l-194 4q0 -119 8 -358.5t8 -325.5q-20 0 -61 7t-64 7q-27 0 -60 -5zM410 772q305 0 414.5 88t109.5 250q0 145 -97.5 230 t-244.5 85l-166 -6q-6 -76 -11 -150.5t-5 -150.5v-346z" />
<glyph unicode="&#x421;" horiz-adv-x="1478" d="M84 750q0 371 224 580.5t595 209.5q133 0 264 -30.5t263 -90.5q-20 -51 -37 -106.5t-21 -116.5h-26q-154 246 -449 246q-274 0 -417.5 -195.5t-143.5 -484.5q0 -266 149.5 -473t409.5 -207q139 0 257 58.5t237 166.5l24 -10q-14 -57 -19 -98t-5 -86q-254 -137 -541 -138 q-346 0 -555 214.5t-209 560.5z" />
<glyph unicode="&#x422;" horiz-adv-x="1175" d="M18 1360l7 76l-7 75q98 0 297 -8t271 -8q96 0 296.5 8t272.5 8q-8 -33 -8 -77v-36q0 -15 8 -44q-74 14 -166 25.5t-170 11.5h-123q0 -43 -4 -145.5t-4 -106.5l6 -781q0 -160 23 -358q-66 6 -129 14q-29 0 -64 -5t-67 -9q0 66 11 215.5t11 206.5l2 686l-6 283 q-211 0 -457 -31z" />
<glyph unicode="&#x424;" horiz-adv-x="1814" d="M82 754q0 297 198.5 455.5t510.5 193.5l-7 151q31 -4 64 -9t59.5 -5t59 5t67.5 9l-10 -151q301 0 505 -173t204 -476q0 -289 -201 -454t-508 -189l10 -152q-74 16 -127 16q-25 0 -52.5 -3t-70.5 -13l7 152q-281 0 -495 181t-214 462zM330 758q0 -219 128 -382t341 -163 q0 152 7 376t7 226q0 111 -5 285t-5 198q-229 -23 -351 -165t-122 -375zM1004 764q0 -102 6 -275.5t6 -275.5q225 0 347 153.5t122 391.5q0 236 -122 388t-347 152q0 -100 -6 -267t-6 -267z" />
<glyph unicode="&#x425;" horiz-adv-x="1198" d="M0 0l324 465l192 276l-487 770q25 0 75 -4t74 -4q61 0 95 4t49 4l159 -306l154 -283l158 256q96 160 176 333q27 -4 49 -6t55 -2q14 0 50 4t57 4l-181 -244l-147 -208l-158 -228l156 -268l147 -242l201 -321q-31 0 -85 6t-62 6q-47 0 -85 -5t-61 -7q-74 158 -161 321 l-173 326l-141 -241l-147 -249q-31 -54 -76 -157q-23 0 -62 6t-43 6q-33 0 -59.5 -5t-42.5 -7z" />
<glyph unicode="&#x430;" horiz-adv-x="1048" d="M72 264q0 180 100 227.5t318.5 99.5t230.5 136q0 115 -68.5 192.5t-185.5 77.5q-90 0 -156.5 -44t-107.5 -128l-47 17l12 119q74 63 165 96t191 33q197 0 287 -79t90 -270v-528q0 -74 19.5 -99.5t78.5 -25.5l62 2v-47l-95 -37q-48 -18 -94 -18q-74 0 -110.5 37.5 t-52.5 109.5q-78 -78 -154 -119t-174 -41q-129 0 -219 79t-90 210zM285 299q0 -80 48 -138.5t126 -58.5q100 0 175 71t75 169v217q-213 -39 -318.5 -82t-105.5 -178z" />
<glyph unicode="&#x435;" horiz-adv-x="1103" d="M68 504q0 236 140 411t372 175q205 0 337 -129.5t132 -335.5l-5 -88l-534 6l-219 -4q0 -197 91 -334t277 -137q190 0 318 141l29 -6q-8 -35 -12.5 -64.5t-4.5 -66.5q-76 -49 -180 -73t-207 -24q-244 0 -389 143.5t-145 385.5zM295 631l536 4l3 72q0 121 -69 209t-183 88 q-143 0 -205 -105.5t-82 -267.5z" />
<glyph unicode="&#x43a;" horiz-adv-x="1107" d="M158 0q0 127 5 338t5 254q0 102 -5 269t-5 200q61 -10 110 -10q51 0 109 10q0 -74 -7.5 -222.5t-7.5 -226.5h58q104 88 207 197l231 252q57 -10 96 -10h84q37 6 52 8l-508 -430l307 -361q49 -61 98 -116l113 -121v-31q-31 0 -81 6t-58 6q-39 0 -78 -6t-54 -6l-118 163 q-63 87 -125 156l-150 181l-26 24l-48 4q0 -82 7.5 -262t7.5 -266l-109 8z" />
<glyph unicode="&#x43e;" horiz-adv-x="1220" d="M68 522q0 248 149.5 408t396.5 160q244 0 391.5 -158t147.5 -404q0 -244 -149.5 -398.5t-399.5 -154.5q-242 0 -389 151.5t-147 395.5zM293 532q0 -180 76.5 -327.5t240.5 -147.5q168 0 242 142.5t74 329t-73 332t-241 145.5t-243.5 -145t-75.5 -329z" />
<glyph unicode="&#x43f;" horiz-adv-x="1603" d="M31 909q86 86 196.5 114t268.5 28l571 -7l315 5l170 8l-8 -66l8 -71l-305 10l-6 -428q0 -84 7 -251t7 -251q-31 2 -55 5t-59 3l-109 -8q0 72 5 185.5t5 131.5l-4 613l-215 2l-217 -2l-6 -471q0 -76 6 -226.5t6 -232.5q-27 2 -51 5t-59 3q-27 0 -60.5 -3t-52.5 -5l14 317 l-6 613q-119 0 -184.5 -34t-140.5 -130q-12 77 -41 143z" />
<glyph unicode="&#x440;" horiz-adv-x="1228" d="M135 -606q0 72 7.5 216t7.5 216q0 250 -3.5 503t-5.5 505l-6 229q20 -4 44 -7t61 -3q31 0 49 2t57 8q-16 -102 -16 -195q72 109 154.5 165.5t207.5 56.5q215 0 332 -169t117 -399q0 -225 -119 -386t-334 -161q-221 0 -348 185v-324q0 -78 8 -233.5t8 -208.5 q-29 4 -54.5 6t-55.5 2h-33q-12 0 -78 -8zM328 532q0 -176 68.5 -316t226.5 -140q156 0 224 136t68 310q0 166 -71.5 305.5t-218.5 139.5q-156 0 -226.5 -132.5t-70.5 -302.5z" />
<glyph unicode="&#x441;" horiz-adv-x="1044" d="M59 508q0 272 160 427t430 155q96 0 183.5 -20.5t162.5 -70.5q-27 -84 -45 -200h-24q-33 100 -97.5 153.5t-169.5 53.5q-182 0 -277 -141.5t-95 -332.5q0 -193 100 -328.5t287 -135.5q170 0 291 131l20 -4l-20 -127q-76 -55 -164 -74t-209 -19q-223 0 -378 154t-155 379z " />
<glyph unicode="&#x443;" horiz-adv-x="1075" d="M6 1061l133 -10l129 10l60 -190q20 -67 63 -171l199 -491l178 463q74 201 129 389q49 -10 88 -10q43 0 94 10q-217 -430 -403.5 -857t-313.5 -808l-59 10h-74q-31 -8 -47 -10l289 567q-195 514 -465 1098z" />
<glyph unicode="&#x445;" horiz-adv-x="1024" d="M2 0l212 250l214 264l-172 234l-128 166q-69 89 -120 147q76 -10 150 -10q39 0 72.5 3t58.5 7q57 -98 115 -187l139 -200l139 191q70 97 131 196q12 -2 36.5 -5t43.5 -5q51 0 106 10l-397 -469q102 -158 171 -251l257 -341q-31 0 -78 6t-57 6q-45 0 -81 -5t-60 -7 q-94 160 -138.5 228.5t-136.5 199.5q-164 -236 -198.5 -290t-79.5 -138l-92 8q-18 0 -54.5 -4t-52.5 -4z" />
<glyph unicode="&#x2010;" horiz-adv-x="727" d="M94 444v189h537v-189h-537z" />
<glyph unicode="&#x2011;" horiz-adv-x="727" d="M94 444v189h537v-189h-537z" />
<glyph unicode="&#x2012;" horiz-adv-x="727" d="M94 444v189h537v-189h-537z" />
<glyph unicode="&#x2013;" horiz-adv-x="1126" d="M94 444v189h936v-189h-936z" />
<glyph unicode="&#x2014;" horiz-adv-x="2215" d="M367 473v135h1480v-135h-1480z" />
<glyph unicode="&#x2018;" horiz-adv-x="604" d="M141 997q0 31 19.5 74t40.5 78l241 395l52 -14l-129 -461q-18 -61 -49 -104t-87 -43q-88 -1 -88 75z" />
<glyph unicode="&#x2019;" horiz-adv-x="604" d="M147 934l127 461q14 55 47 103t85 48q37 0 63.5 -22.5t26.5 -59.5q0 -35 -16.5 -73.5t-43.5 -75.5l-239 -393z" />
<glyph unicode="&#x201c;" horiz-adv-x="1013" d="M137 995q0 39 15.5 74t44.5 78l239 393l53 -14l-129 -457q-16 -66 -45.5 -106.5t-89.5 -40.5q-88 -1 -88 73zM545 995q0 33 19.5 76t39.5 76l240 393l51 -14l-129 -457q-20 -66 -48 -106.5t-85 -40.5q-39 0 -63.5 19t-24.5 54z" />
<glyph unicode="&#x201d;" horiz-adv-x="1013" d="M168 934l131 459q14 66 45 108.5t86 42.5q84 0 90 -78q0 -37 -16.5 -76.5t-44.5 -70.5l-238 -397zM578 934l124 459q33 76 57.5 113.5t78.5 37.5q39 0 63.5 -20.5t24.5 -57t-14.5 -72.5t-41.5 -75l-241 -397z" />
<glyph unicode="&#x2026;" horiz-adv-x="1880" d="M195 90q0 51 31.5 86t84.5 35q51 0 86 -35t35 -86q0 -49 -35 -82t-86 -33q-49 0 -82.5 32t-33.5 83zM791 90q0 53 33.5 87t85 34t86 -35t34.5 -86q0 -49 -34.5 -82t-86 -33t-85 32t-33.5 83zM1393 90q0 51 32.5 86t84 35t86 -35t34.5 -86q0 -49 -34.5 -82t-86.5 -33 q-49 0 -82.5 32t-33.5 83z" />
<glyph unicode="&#x2039;" horiz-adv-x="1847" d="M287 614v88l1272 527v-121l-1104 -449l1104 -448v-119z" />
<glyph unicode="&#x203a;" horiz-adv-x="1847" d="M287 92v119l1106 448l-1106 449v121l1274 -527v-88z" />
<glyph unicode="&#x2122;" horiz-adv-x="1847" d="M287 1509v64h463v-64h-189v-514h-86v514h-188zM889 995v578h125l180 -455l170 455h125v-578h-76v510l-192 -510h-54l-202 510v-510h-76z" />
<glyph unicode="&#xe000;" horiz-adv-x="1060" d="M0 1060h1060v-1060h-1060v1060z" />
</font>
</defs>
</svg>
