<?xml version="1.0" standalone="no"?>
<!DOCTYPE svg PUBLIC "-//W3C//DTD SVG 1.1//EN" "http://www.w3.org/Graphics/SVG/1.1/DTD/svg11.dtd" >
<svg xmlns="http://www.w3.org/2000/svg">
<metadata>
This is a custom SVG webfont generated by Font Squirrel.
Copyright   : Copyright c 2009 by Roman Shamin  Jovanny Lemonad All rights reserved
Designer    : Roman Shamin
Foundry     : Roman Shamin  Jovanny Lemonad
Foundry URL : httpwwwjovannyru
</metadata>
<defs>
<font id="HattoriHanzoLight" horiz-adv-x="366" >
<font-face units-per-em="2048" ascent="1536" descent="-512" />
<missing-glyph horiz-adv-x="563" />
<glyph unicode=" "  horiz-adv-x="563" />
<glyph unicode="&#x09;" horiz-adv-x="563" />
<glyph unicode="&#xa0;" horiz-adv-x="563" />
<glyph unicode="!" horiz-adv-x="454" d="M113 82q0 45 33.5 78t80.5 33t81 -33t34 -78t-34 -78t-81 -33t-80.5 33t-33.5 78zM152 1055v522h155v-522l-22 -736h-113q-20 496 -20 736z" />
<glyph unicode="&#x22;" horiz-adv-x="624" d="M113 1577h135v-690h-88q-47 217 -47 690zM379 887v690h135q0 -473 -47 -690h-88z" />
<glyph unicode="#" horiz-adv-x="1519" d="M23 451v137h335l105 401h-291v137h324l116 451h142l-117 -451h418l116 451h142l-117 -451h303v-137h-336l-104 -401h291v-137h-328l-115 -451h-141l115 451h-416l-117 -451h-141l115 451h-299zM500 588h418l102 401h-416z" />
<glyph unicode="$" horiz-adv-x="1073" d="M68 121l51 86q164 -96 360 -96h4v637q-389 145 -389 432q0 180 109.5 290.5t279.5 131.5v147h109v-145q98 -4 188 -30t129 -48l41 -23l-45 -98q-143 63 -305 63h-8v-591q225 -78 320.5 -187.5t95.5 -292.5q0 -172 -113 -288.5t-303 -133.5v-180h-109v180 q-129 6 -232.5 44t-141.5 71zM250 1192q0 -104 57.5 -166.5t175.5 -110.5v545q-233 -43 -233 -268zM592 119q260 43 260 293q0 98 -58.5 169.5t-201.5 127.5v-590z" />
<glyph unicode="%" horiz-adv-x="1896" d="M68 1133.5q0 220.5 119.5 344.5t283.5 124q162 0 279.5 -124t117.5 -345q0 -217 -119.5 -341t-283.5 -124t-280.5 122.5t-116.5 343zM213 1133q0 -342 252 -342q256 0 256 342t-250 342q-115 0 -186.5 -83t-71.5 -259zM268 0l1192 1577h166l-1190 -1577h-168zM1030 436 q0 219 118 344t282.5 125t281.5 -124t117 -345q0 -217 -119 -341t-285 -124q-162 0 -278.5 123t-116.5 342zM1176 436q0 -342 249 -342q258 0 258 343t-253 343q-111 0 -182.5 -84t-71.5 -260z" />
<glyph unicode="&#x26;" horiz-adv-x="1402" d="M68 389q0 145 81.5 246.5t262.5 234.5q-182 233 -183 390q0 168 108.5 255t270.5 87q150 0 252.5 -79t102.5 -216q0 -131 -85 -227.5t-280 -229.5q90 -109 215 -236l236 -227q86 170 86 363h114q0 -272 -102 -455l233 -205l-59 -88q-86 45 -248 184q-193 -215 -502 -215 q-242 0 -372.5 111.5t-130.5 306.5zM213 391q0 -143 102.5 -219t266.5 -76q248 0 393 178l-275 273q-106 109 -213 233q-141 -106 -207.5 -191t-66.5 -198zM375 1270q0 -135 153 -336q14 12 61 46l59 44q13 10 49 40t48 44l35 41q23 27 29 47l14 47q8 27 8 57 q0 82 -63 128.5t-160 46.5q-233 0 -233 -205z" />
<glyph unicode="'" horiz-adv-x="362" d="M113 1577h137l-6 -690h-125z" />
<glyph unicode="(" horiz-adv-x="585" d="M90 602q0 569 291 883q76 80 139 114l53 -67l-34 -36q-23 -24 -79.5 -108.5t-99.5 -183t-78.5 -261.5t-35.5 -341t33.5 -341t82 -265t97.5 -180t82 -111l32 -35l-53 -67q-18 10 -47 30.5t-102.5 100.5t-131 182t-103.5 285.5t-46 400.5z" />
<glyph unicode=")" horiz-adv-x="585" d="M12 -330l35 36q23 24 79 110t99 183t79 261t36 342t-34 340t-82 264.5t-97 180t-82 112.5l-33 33l54 67q18 -8 46.5 -28.5t102.5 -100t131 -182t103.5 -287t46.5 -399.5q0 -571 -291 -885q-76 -80 -139 -114z" />
<glyph unicode="*" horiz-adv-x="847" d="M68 1202v125q127 0 266 -27l-139 244l104 62q53 -90 111 -242l139 242l108 -62q-55 -98 -155 -217h280v-125q-129 0 -264 29l139 -244l-108 -61q-59 106 -107 241l-143 -241l-104 61q55 102 153 215h-280z" />
<glyph unicode="+" horiz-adv-x="1126" d="M45 608v137h447v449h143v-449h446v-137h-446v-448h-143v448h-447z" />
<glyph unicode="," d="M68 82q0 45 33.5 78t80.5 33t81 -33t34 -78q1 -12 1 -24q0 -50 -19 -109q-33 -109 -144 -195l-53 49q72 74 90 168q-45 4 -74.5 36t-29.5 75z" />
<glyph unicode="-" horiz-adv-x="765" d="M45 518v137h676v-137h-676z" />
<glyph unicode="." horiz-adv-x="364" d="M68 82q0 45 33.5 78t80.5 33q49 0 82 -33t33 -78t-33 -78t-82 -33q-47 0 -80.5 33t-33.5 78z" />
<glyph unicode="/" horiz-adv-x="884" d="M0 0l743 1577h142l-744 -1577h-141z" />
<glyph unicode="0" horiz-adv-x="1271" d="M90 785.5q0 418.5 136 617.5t409 199q274 0 411.5 -199t137.5 -616.5t-138.5 -616.5t-411 -199t-408.5 198t-136 616.5zM254 786q0 -362 95 -519.5t286.5 -157.5t286 157.5t94.5 519.5q0 365 -94.5 522.5t-286 157.5t-286.5 -157.5t-95 -522.5z" />
<glyph unicode="1" horiz-adv-x="604" d="M45 1323v107l356 147h93v-1577h-150v1417z" />
<glyph unicode="2" horiz-adv-x="1048" d="M68 0v137q0 131 77.5 251t189.5 211l223 177q112 86 189.5 191.5t77.5 212.5q0 147 -66.5 215.5t-248.5 68.5q-86 0 -174 -31.5t-133 -62.5l-47 -33l-58 97q8 6 21.5 17t58.5 40t93 51.5t122 41t146 18.5q215 0 329.5 -104.5t114.5 -309.5q0 -119 -50 -219.5t-124 -170 t-168 -144.5l-177 -141q-83 -67 -153.5 -165t-99.5 -211h754v-137h-897z" />
<glyph unicode="3" horiz-adv-x="1093" d="M45 109l41 92q18 -12 52 -27.5t139.5 -42.5t216.5 -27q377 0 376 340q0 354 -323 355h-244v88l475 553h-684v137h869v-137l-437 -506h11q51 0 104 -7t126 -38t127 -81t94 -146.5t40 -223.5q0 -213 -140 -340t-368 -127q-131 0 -248.5 35t-173.5 68z" />
<glyph unicode="4" horiz-adv-x="1107" d="M45 444v138l588 1022h160l-588 -1022h559v469h143v-469h156v-138h-156v-444h-143v444h-719z" />
<glyph unicode="5" horiz-adv-x="1075" d="M68 109l47 92q12 -12 34.5 -27.5t110.5 -42.5t198.5 -27t192.5 40t122 103.5t58.5 124t18.5 120.5q0 373 -326 372q-86 0 -161.5 -23.5t-110.5 -47.5l-31 -23l-90 18l64 789h794v-137h-665l-39 -502q94 59 250 59q201 0 338 -131t137 -366q0 -221 -150.5 -375 t-372.5 -154q-260 0 -405 123z" />
<glyph unicode="6" horiz-adv-x="1118" d="M90 778q0 217 48 383t132 258t180.5 137.5t204.5 45.5q178 0 322 -119l8 -8l-53 -82q-96 82 -250 82q-233 0 -344 -175.5t-111 -488.5v-51h6q35 78 133.5 148.5t235.5 70.5q203 0 327 -131t124 -361q0 -233 -140.5 -374.5t-341.5 -141.5q-102 0 -182 29t-131 88t-86 129 t-51.5 167t-23.5 187t-7 207zM240 535q18 -201 93 -321t238 -120q137 0 236.5 101.5t99.5 291.5q0 164 -76.5 264.5t-201.5 100.5q-100 0 -177 -41t-120 -100.5t-63.5 -102t-28.5 -73.5z" />
<glyph unicode="7" horiz-adv-x="1024" d="M45 1440v137h934v-137l-463 -1440h-158l465 1440h-778z" />
<glyph unicode="8" horiz-adv-x="1159" d="M78 377q0 96 41 182t105.5 143.5t112.5 90t93 51.5q-141 82 -208.5 172t-67.5 221q0 154 110.5 259.5t315.5 105.5q201 0 312.5 -103.5t111.5 -267.5q0 -72 -30 -136.5t-77 -113.5t-89 -80t-83 -53q190 -102 273 -204.5t83 -256.5q0 -190 -133 -303t-371.5 -113 t-368.5 109t-130 297zM221 393q0 -129 84 -210t275 -81q184 0 269 76t85 209q0 125 -77 208t-277 173l-27 14q-37 -14 -85 -43.5t-108.5 -78t-99.5 -119t-39 -148.5zM297 1237q0 -111 74.5 -182.5t228.5 -141.5l2 -4h4q92 37 174 118t82 196q0 125 -76.5 187.5t-205.5 62.5 q-123 0 -203 -57.5t-80 -178.5z" />
<glyph unicode="9" horiz-adv-x="1118" d="M68 1085q0 233 139 375t340 142q104 0 184 -29t131 -88.5t86 -129t51.5 -167.5t23.5 -188.5t7 -204.5q0 -217 -49 -383t-132 -258.5t-180.5 -137.5t-203.5 -45q-178 0 -324 119l-6 6l51 84q98 -84 250 -84q236 0 346.5 176.5t110.5 489.5v51h-8q-33 -78 -131.5 -149.5 t-235.5 -71.5q-203 0 -326.5 132t-123.5 361zM211 1085q0 -164 77 -264t204 -100q98 0 175.5 41t120.5 100.5t63.5 102.5t29.5 73q-20 201 -94 321t-240 120q-137 0 -236.5 -102t-99.5 -292z" />
<glyph unicode=":" horiz-adv-x="364" d="M68 82q0 45 33.5 78t80.5 33q49 0 82 -33t33 -78t-33 -78t-82 -33q-47 0 -80.5 33t-33.5 78zM68 967q0 45 33.5 77.5t80.5 32.5q49 0 82 -32.5t33 -77.5t-33 -78t-82 -33q-47 0 -80.5 33t-33.5 78z" />
<glyph unicode=";" d="M68 82q0 45 33.5 78t80.5 33t81 -33t34 -78q1 -12 1 -24q0 -50 -19 -109q-33 -109 -144 -195l-53 49q72 74 90 168q-45 4 -74.5 36t-29.5 75zM68 967q0 45 33.5 77.5t80.5 32.5q49 0 82 -32.5t33 -77.5t-33 -78t-82 -33q-47 0 -80.5 33t-33.5 78z" />
<glyph unicode="&#x3c;" horiz-adv-x="1148" d="M45 528v115l1059 545v-150l-879 -452l879 -453v-149z" />
<glyph unicode="=" horiz-adv-x="1126" d="M45 365v135h1036v-135h-1036zM45 850v137h1036v-137h-1036z" />
<glyph unicode="&#x3e;" horiz-adv-x="1148" d="M45 -16v149l879 453l-879 452v150l1059 -545v-115z" />
<glyph unicode="?" horiz-adv-x="972" d="M23 1434q6 6 20 17t59 40t93.5 51.5t121 41t146.5 18.5q215 0 340 -119t125 -330q0 -92 -24.5 -166t-64.5 -124t-88 -94l-97 -85q-48 -41 -88 -90t-64.5 -118.5t-24.5 -156.5h-121q0 123 31 215.5t77 142.5t99 102l100 94q46 42 76.5 113t30.5 161q0 152 -88 234.5 t-250 82.5q-86 0 -173 -31.5t-132 -62.5l-49 -33zM301 82q0 45 34 78t82 33t81.5 -33t33.5 -78t-33.5 -78t-81.5 -33t-82 33t-34 78z" />
<glyph unicode="@" horiz-adv-x="1923" d="M68 760q0 301 145 533.5t363.5 347t463.5 114.5q383 0 599.5 -210t216.5 -548q0 -319 -162 -538t-330 -219q-31 0 -56.5 8t-55 33.5t-44.5 80.5q-11 43 -11 101q0 17 1 35l-11 -28q-7 -17 -35 -62.5t-61.5 -79t-96 -61t-132.5 -27.5q-143 0 -246.5 117.5t-103.5 344.5 q0 258 153.5 456t378.5 198q145 0 242 -78l6 51h133l-96 -788q-6 -44 -6 -77q0 -102 57 -102q41 0 97.5 34t119 101.5t104.5 199.5t42 300q0 307 -197.5 476t-505.5 169q-135 0 -276 -54t-269 -156.5t-209 -278.5t-81 -393q0 -211 69.5 -373t186.5 -254t247 -138t269 -46 q190 0 359 76.5t272 201.5l65 -59q-125 -166 -311 -251t-385 -85q-184 0 -346 59.5t-290 172t-200.5 293t-72.5 403.5zM657 715q0 -352 226 -353q68 0 129 46.5t100 112t67.5 130t41.5 111.5l12 45l41 358q-80 74 -229 74q-172 0 -280 -157.5t-108 -366.5z" />
<glyph unicode="A" horiz-adv-x="1280" d="M45 0l500 1577h145l547 -1577h-154l-163 477h-580l-152 -477h-143zM381 606h493l-258 744z" />
<glyph unicode="B" horiz-adv-x="1255" d="M113 0v1577h458q524 0 525 -389q0 -246 -193 -318q-39 -16 -69 -18v-8q14 -2 36.5 -6t80 -29t101.5 -62.5t79.5 -114.5t35.5 -177q0 -225 -126 -340t-418 -115h-510zM254 137h369q76 0 125 5t104 22.5t87 51.5t52.5 93.5t20.5 145.5q0 160 -98.5 233.5t-262.5 73.5h-397 v-625zM254 899h350q147 0 245.5 76t98.5 213t-91 195.5t-286 58.5h-317v-543z" />
<glyph unicode="C" horiz-adv-x="1255" d="M90 772q0 190 39 337.5t101.5 239t148.5 149.5t171 81t177 23q115 0 227.5 -35t167.5 -72l56 -33l-45 -88q-162 90 -355 90q-528 0 -528 -692q0 -664 532 -663q104 0 200.5 25.5t139.5 49.5l45 27l45 -88l-21 -17q-13 -10 -58.5 -35.5t-96.5 -46t-134 -37t-169 -16.5 q-127 0 -236.5 40t-203.5 128t-148.5 251t-54.5 382z" />
<glyph unicode="D" horiz-adv-x="1288" d="M113 0v1577h446q283 0 461 -200.5t178 -590.5q0 -385 -178 -585.5t-461 -200.5h-446zM256 137h303q205 0 341 159t136 490q0 334 -136 494t-341 160h-303v-1303z" />
<glyph unicode="E" horiz-adv-x="1107" d="M113 0v1577h919v-137h-778v-557h664v-138h-664v-608h786v-137h-927z" />
<glyph unicode="F" horiz-adv-x="1075" d="M113 0v1577h919v-137h-778v-559h661v-138h-661v-743h-141z" />
<glyph unicode="G" horiz-adv-x="1323" d="M90 772q0 223 57.5 391t154.5 259t203.5 135.5t221.5 44.5t227.5 -35t167.5 -72l56 -33l-43 -88q-164 90 -357 90q-238 0 -382 -169t-144 -523q0 -664 518 -663q150 0 297 79v619h145v-690q-18 -14 -55 -40t-161 -66t-263 -40q-127 0 -236.5 40t-203.5 128t-148.5 251 t-54.5 382z" />
<glyph unicode="H" horiz-adv-x="1339" d="M113 0v1577h141v-696h829v696h146v-1577h-146v743h-829v-743h-141z" />
<glyph unicode="I" d="M113 0v1577h141v-1577h-141z" />
<glyph unicode="J" horiz-adv-x="507" d="M0 74q129 37 191.5 128t62.5 292v1083h143v-1083q0 -63 -7 -121t-30.5 -132.5t-62.5 -129t-111.5 -95.5t-169.5 -45z" />
<glyph unicode="K" horiz-adv-x="1185" d="M113 0v1577h141v-795l670 795h182l-590 -700l672 -877h-180l-586 764l-168 -197v-567h-141z" />
<glyph unicode="L" horiz-adv-x="1085" d="M113 0v1577h141v-1440h786v-137h-927z" />
<glyph unicode="M" horiz-adv-x="1644" d="M113 0v1577h141l584 -1112l551 1112h143v-1577h-143v1260l-484 -963h-131l-520 981v-1278h-141z" />
<glyph unicode="N" horiz-adv-x="1368" d="M113 0v1577h159l842 -1348v1348h143v-1577h-159l-844 1348v-1348h-141z" />
<glyph unicode="O" horiz-adv-x="1456" d="M90 786.5q0 403.5 177 609.5t463 206t462 -205t176 -610.5t-176 -610.5t-462 -205t-463 206t-177 609.5zM252 785.5q0 -349.5 135 -513t343 -163.5t343 163.5t135 513t-135 514t-343 164.5t-343 -164.5t-135 -514z" />
<glyph unicode="P" horiz-adv-x="1200" d="M113 0v1577h411q608 0 609 -459q0 -231 -153 -352t-456 -121h-262v-645h-149zM262 782h262q100 0 171 11.5t140.5 45t105.5 103.5t36 176q0 102 -37 171t-108.5 99.5t-140 41t-167.5 10.5h-262v-658z" />
<glyph unicode="Q" horiz-adv-x="1472" d="M90 786.5q0 403.5 177 609.5t463 206t462 -205t176 -611q0 -324 -116.5 -521t-317.5 -263l448 -287l-43 -67q-174 45 -610 323q-285 0 -462 206t-177 609.5zM252 785.5q0 -349.5 135 -513t342 -163.5q205 0 340 163.5t135 513t-135 514t-340 164.5q-207 0 -342 -164.5 t-135 -514z" />
<glyph unicode="R" horiz-adv-x="1200" d="M113 0v1577h413q297 0 452 -114.5t155 -344.5q0 -348 -340 -442l340 -676h-160l-326 649q-78 -4 -121 -4h-262v-645h-151zM264 782h262q78 0 136.5 5.5t120 27t102.5 56t66.5 98t25.5 149.5q0 102 -37 171t-107.5 99.5t-139 41t-167.5 10.5h-262v-658z" />
<glyph unicode="S" horiz-adv-x="1200" d="M68 117l45 94q215 -102 442 -102q420 0 420 299q0 117 -90 185.5t-295 135.5l-148.5 53.5t-131.5 60.5t-115.5 82t-69.5 107.5t-31 145.5q0 201 141.5 312.5t370.5 111.5q117 0 234.5 -26t175.5 -50l59 -25l-33 -98q-182 61 -389 61q-403 0 -403 -276q0 -66 26.5 -115 t85 -82t109.5 -53t137 -49q16 -4 23 -6q264 -88 383 -191.5t119 -298.5q0 -197 -141.5 -309.5t-377.5 -112.5q-330 0 -526 131z" />
<glyph unicode="T" horiz-adv-x="1173" d="M45 1440v137h1083v-137h-471v-1440h-141v1440h-471z" />
<glyph unicode="U" horiz-adv-x="1314" d="M113 537v1040h141v-1040q0 -215 106.5 -321.5t298 -106.5t296 106.5t104.5 321.5v1040h143v-1040q0 -129 -34.5 -230.5t-90 -163t-128 -101.5t-144.5 -55.5t-148 -15.5q-94 0 -183 27t-173 86t-136 177t-52 276z" />
<glyph unicode="V" horiz-adv-x="1314" d="M0 1577h154l503 -1344l506 1344h152l-592 -1577h-131z" />
<glyph unicode="W" horiz-adv-x="1994" d="M0 1577h152l393 -1298l373 1148h161l371 -1148l395 1298h152l-479 -1577h-134l-387 1196l-387 -1196h-133z" />
<glyph unicode="X" horiz-adv-x="1239" d="M0 0l522 795l-508 782h172l422 -647h23l422 647h172l-508 -782l522 -795h-174l-447 678l-444 -678h-174z" />
<glyph unicode="Y" horiz-adv-x="1316" d="M0 1577h160l514 -825l483 825h162l-574 -969v-608h-143v602z" />
<glyph unicode="Z" horiz-adv-x="1159" d="M45 0v137l887 1303h-856v137h1030v-137l-887 -1303h895v-137h-1069z" />
<glyph unicode="[" horiz-adv-x="587" d="M113 -377v1954h465v-131h-324v-1692h324v-131h-465z" />
<glyph unicode="\" horiz-adv-x="884" d="M0 1577h141l744 -1577h-142z" />
<glyph unicode="]" horiz-adv-x="587" d="M12 -246h322v1692h-322v131h463v-1954h-463v131z" />
<glyph unicode="^" horiz-adv-x="788" d="M0 1036l338 541h113l337 -541h-149l-246 394l-243 -394h-150z" />
<glyph unicode="_" horiz-adv-x="675" d="M0 0h676v-137h-676v137z" />
<glyph unicode="`" horiz-adv-x="497" d="M0 1577h197l301 -451h-138z" />
<glyph unicode="a" horiz-adv-x="997" d="M78 256q0 104 55 176t209 122t406 52v12q0 193 -58.5 261.5t-210.5 68.5q-61 0 -138 -14t-122 -31l-45 -16l-31 84q174 92 371 92q188 0 279.5 -97.5t91.5 -347.5v-618h-111q-12 82 -20 160q-166 -172 -363 -172q-141 0 -227 72.5t-86 195.5zM217 266q0 -84 51 -123 t133 -39q184 0 347 195v197q-264 -2 -397.5 -54.5t-133.5 -175.5z" />
<glyph unicode="b" horiz-adv-x="1026" d="M113 78v1499h137v-571q94 72 250 71q203 0 332 -127t129 -393q0 -260 -132.5 -421t-353.5 -161q-96 0 -186 26t-133 52zM250 135q94 -39 199 -39q174 0 274 121t100 340q0 201 -94 302.5t-254 101.5q-133 0 -225 -89v-737z" />
<glyph unicode="c" horiz-adv-x="890" d="M68 516q0 252 125.5 406.5t314.5 154.5q86 0 165 -22.5t115 -44.5l37 -25l-30 -84q-113 59 -254 60q-147 0 -242.5 -126t-95.5 -319q0 -188 95 -307t245 -119q72 0 140.5 15.5t100.5 29.5l33 17l31 -84q-14 -10 -40 -25.5t-114 -41.5t-184 -26q-188 0 -315 145.5 t-127 395.5z" />
<glyph unicode="d" horiz-adv-x="1007" d="M68 481q0 594 471 594q123 0 221 -78v541h137v-1538h-111q-14 82 -20 158q-154 -184 -332 -185q-98 0 -173 42t-115 116t-59 161t-19 189zM211 481q0 -104 20.5 -189t75.5 -144.5t139 -59.5q147 0 314 213v580q-92 82 -213 82q-74 0 -124 -15.5t-103.5 -60.5t-81 -147.5 t-27.5 -258.5z" />
<glyph unicode="e" horiz-adv-x="962" d="M68 514q0 254 136 408.5t320 154.5q106 0 183 -49t116 -133t56.5 -175t17.5 -198l-692 -10q0 -205 108.5 -311.5t249.5 -106.5q178 0 287 53l29 -79q-137 -92 -340 -93q-211 0 -341 143.5t-130 395.5zM209 600q182 29 551 37q-6 137 -66.5 232.5t-169.5 95.5 q-113 0 -204 -99.5t-111 -265.5z" />
<glyph unicode="f" horiz-adv-x="679" d="M45 930v121h188v196q0 190 73 272.5t214 82.5q115 0 228 -84l-29 -78q-106 49 -193 49q-158 0 -157 -242v-196h268v-121q-154 0 -268 16v-946h-136v930h-188z" />
<glyph unicode="g" horiz-adv-x="978" d="M45 -174q0 150 123 272q-55 39 -55 121q0 88 96 184q-96 98 -96 277q0 172 108.5 277.5t270.5 105.5q113 0 200 -47q76 35 266 35v-107l-188 6l-2 -2q47 -41 80 -123q23 -61 22 -145q0 -166 -107.5 -273.5t-270.5 -107.5q-123 0 -209 49q-18 -18 -34 -47t-21 -58.5 t15.5 -49t67.5 -19.5h273q51 0 104 -11t112.5 -41t98.5 -95.5t39 -155.5q0 -174 -131 -260t-340 -86q-213 0 -317.5 81t-104.5 220zM176 -152q0 -55 18.5 -96t47 -62.5t71.5 -33.5t79 -15t83 -3q135 0 233.5 53t98.5 180q0 90 -66.5 141t-156.5 51h-273q-35 0 -47 3 q-10 -6 -24.5 -22.5t-39 -72t-24.5 -123.5zM240 680q0 -270 252 -270q117 0 183 74.5t66 195.5q0 272 -249 272q-119 0 -185.5 -73.5t-66.5 -198.5z" />
<glyph unicode="h" horiz-adv-x="1017" d="M113 0v1577h137v-668q162 168 342 168q178 0 245.5 -100t67.5 -285v-692h-137v692q0 141 -38 206t-148 65q-164 0 -332 -199v-764h-137z" />
<glyph unicode="i" horiz-adv-x="389" d="M113 1305q0 31 24.5 54t58 23t57 -23.5t23.5 -53.5q0 -35 -23.5 -57.5t-57 -22.5t-58 22.5t-24.5 57.5zM127 0v1051h137v-1051h-137z" />
<glyph unicode="j" horiz-adv-x="438" d="M-45 -434q119 33 170 128t51 306v1051h137v-1051q0 -72 -2 -120t-21.5 -130t-52 -132t-101 -92t-165.5 -46zM162 1305q0 31 23.5 54t60.5 23q33 0 57.5 -23.5t24.5 -53.5q0 -35 -24.5 -57.5t-57.5 -22.5q-37 0 -60.5 22.5t-23.5 57.5z" />
<glyph unicode="k" horiz-adv-x="937" d="M113 0v1577h137v-1022l448 496h170l-399 -441l449 -610h-168l-371 510l-129 -143v-367h-137z" />
<glyph unicode="l" horiz-adv-x="413" d="M115 479v29v1069h137v-1069q0 -156 3 -219.5t23.5 -131t67.5 -98.5l-14 -84q-53 6 -92 28t-61.5 65t-36 80.5t-19.5 106.5t-7 108.5t-1 115.5z" />
<glyph unicode="m" horiz-adv-x="1572" d="M113 0v1051h110q14 -78 21 -154q125 180 301 180q223 0 282 -215q137 215 324 215q180 0 245.5 -118.5t65.5 -354.5v-604h-137v604q0 168 -39 263.5t-143 95.5q-84 0 -146.5 -51.5t-140.5 -159.5v-752h-137v647q0 315 -182 316q-84 0 -146.5 -52.5t-140.5 -158.5v-752 h-137z" />
<glyph unicode="n" horiz-adv-x="1030" d="M113 0v1051h110q14 -80 21 -158q154 184 334 184q342 0 342 -473v-604h-138v604q0 158 -53 258.5t-162 100.5q-156 0 -317 -213v-750h-137z" />
<glyph unicode="o" horiz-adv-x="1073" d="M68 525q0 259 139 405.5t334 146.5q193 0 330 -146.5t137 -406.5q0 -256 -140.5 -402.5t-333 -146.5t-329.5 145.5t-137 404.5zM209 524q0 -211 90 -320.5t236 -109.5q147 0 238 109.5t91 320.5t-92 322.5t-231 111.5q-135 0 -233.5 -112.5t-98.5 -321.5z" />
<glyph unicode="p" horiz-adv-x="1007" d="M113 -489v1540h110q14 -82 21 -158q154 184 329 184q100 0 175 -42t115 -116.5t59.5 -160.5t19.5 -191q0 -592 -471 -592q-125 0 -221 76v-540h-137zM250 168q92 -80 213 -80q74 0 124 14.5t103 59.5t80 147.5t27 257.5q0 106 -19.5 190.5t-75 145t-139.5 60.5 q-150 0 -313 -215v-580z" />
<glyph unicode="q" horiz-adv-x="1026" d="M68 496q0 258 132 419.5t353 161.5q96 0 186 -26.5t133 -51.5l43 -26v-1462h-137v536q-96 -72 -252 -72q-203 0 -330.5 127.5t-127.5 393.5zM205 496q0 -201 93 -302.5t255 -101.5q131 0 225 88v738q-96 37 -198 36q-174 0 -274.5 -119.5t-100.5 -338.5z" />
<glyph unicode="r" horiz-adv-x="714" d="M113 0v1051h110q27 -170 27 -256v-23q16 53 45 96q127 195 399 195v-145q-109 0 -194.5 -32t-130.5 -77t-74 -90t-39 -76l-6 -33v-610h-137z" />
<glyph unicode="s" horiz-adv-x="886" d="M68 74l34 76q145 -55 299 -56q287 0 287 195q0 78 -58.5 116.5t-199.5 73.5q-78 20 -130 40t-110.5 54.5t-88 87t-29.5 121.5q0 147 107.5 221t273.5 74q80 0 160.5 -18.5t123.5 -36.5l43 -14l-28 -78q-127 33 -271 33q-276 0 -276 -175q0 -45 35.5 -78.5t71.5 -47 t118 -37.5q20 -8 29 -11q104 -31 151 -50t105.5 -57t81 -92.5t22.5 -135.5q0 -143 -107.5 -223.5t-269.5 -80.5q-238 0 -368 95z" />
<glyph unicode="t" horiz-adv-x="772" d="M45 930v121h188v114q0 63 9.5 127t19.5 97l8 32h103v-370h264v-121q-156 0 -264 16v-616q0 -141 40 -191.5t113 -50.5q39 0 87.5 12.5t78.5 26.5l29 10l29 -78q-117 -84 -234 -84q-283 0 -283 355v600h-188z" />
<glyph unicode="u" horiz-adv-x="1028" d="M113 451v600h135v-600q0 -158 53 -259.5t162 -101.5q154 0 317 211v750h138v-1051h-111q-12 82 -21 160q-154 -184 -333 -185q-340 1 -340 476z" />
<glyph unicode="v" horiz-adv-x="917" d="M0 1051h139l330 -828l311 828h140l-396 -1051h-114z" />
<glyph unicode="w" horiz-adv-x="1404" d="M0 1051h133l250 -807l256 706h127l256 -706l252 807h131l-324 -1051h-110l-269 737l-268 -737h-110z" />
<glyph unicode="x" horiz-adv-x="894" d="M0 0l358 543l-333 508h155l258 -394h19l260 394h155l-333 -508l358 -543h-160l-288 434l-289 -434h-160z" />
<glyph unicode="y" horiz-adv-x="917" d="M0 1051h150l329 -965l299 965h142l-375 -1217q-49 -164 -127 -247t-199 -83q-115 0 -194 84l47 76q76 -43 137 -43q131 0 203 246l39 133h-93z" />
<glyph unicode="z" horiz-adv-x="849" d="M45 0v121l590 805h-569v125h733v-123l-590 -805h598v-123h-762z" />
<glyph unicode="{" horiz-adv-x="671" d="M68 559v98q74 0 131 51.5t57 168.5v346q0 354 283 354h123v-113h-107q-76 0 -116 -50t-40 -191v-318q0 -74 -16 -132t-37.5 -88t-42 -49.5t-37.5 -23.5l-16 -4q6 -2 16 -5t36 -22.5t45.5 -49t35.5 -88t16 -132.5v-317q0 -141 40 -191.5t116 -50.5h107v-112h-123 q-283 0 -283 354v346q0 117 -57 168t-131 51z" />
<glyph unicode="|" d="M113 -158v1893h141v-1893h-141z" />
<glyph unicode="}" horiz-adv-x="671" d="M12 -248h107q76 0 115.5 50.5t39.5 191.5v317q0 74 16.5 132.5t37 88t42 49t38.5 23.5l16 4q-6 2 -16.5 5t-36 22.5t-45 49.5t-36 88t-16.5 132v318q0 141 -39.5 191t-115.5 50h-107v113h123q283 0 283 -354v-346q0 -117 57 -168.5t131 -51.5v-98q-74 0 -131 -51 t-57 -168v-346q0 -354 -283 -354h-123v112z" />
<glyph unicode="~" horiz-adv-x="1163" d="M45 547q92 176 279 176q113 0 286 -74q154 -68 252 -67q111 0 187 90l71 -47q-92 -176 -280 -176q-113 0 -285 73q-154 68 -254 68q-109 0 -184 -90z" />
<glyph unicode="&#xa9;" horiz-adv-x="1724" d="M68 786q0 256 113.5 445.5t291.5 280t389 90.5q342 0 569.5 -216.5t227.5 -599.5q0 -375 -232.5 -595t-564.5 -220q-326 0 -560 219t-234 596zM166 786q0 -356 199.5 -547.5t496.5 -191.5q190 0 344 79t252 250t98 410q0 180 -58 324.5t-157.5 232t-222.5 134.5t-256 47 t-256 -47t-221 -134.5t-158.5 -232t-60.5 -324.5zM455 768q0 150 40 261.5t106.5 169.5t137 85t144.5 27q72 0 144.5 -25.5t107.5 -50.5l36 -27l-38 -67q-100 59 -226 59q-154 0 -237.5 -97t-83.5 -335q0 -223 82 -318.5t245 -95.5q66 0 124.5 16.5t80.5 35.5l25 18l49 -70 q-12 -12 -35.5 -31.5t-102.5 -49t-169 -29.5q-176 0 -303 127t-127 397z" />
<glyph unicode="&#xab;" horiz-adv-x="860" d="M45 541q115 199 213 341t139 185l39 43l78 -45l-309 -533l299 -520l-62 -39q-16 12 -45.5 45t-133 178.5t-218.5 344.5zM362 543q115 199 210.5 333t129.5 168l39 35l66 -39l-285 -487l293 -504l-76 -45q-14 12 -39.5 39t-124 164t-213.5 336z" />
<glyph unicode="&#xad;" horiz-adv-x="765" d="M45 518v137h676v-137h-676z" />
<glyph unicode="&#xae;" horiz-adv-x="1724" d="M68 786q0 256 113.5 445.5t291.5 280t389 90.5q342 0 569.5 -216.5t227.5 -599.5q0 -375 -232.5 -595t-564.5 -220q-326 0 -560 219t-234 596zM166 786q0 -356 199.5 -547.5t496.5 -191.5q190 0 344 79t252 250t98 410q0 180 -58 324.5t-157.5 232t-222.5 134.5t-256 47 t-256 -47t-221 -134.5t-158.5 -232t-60.5 -324.5zM561 266v1026h254q395 0 395 -297q0 -227 -221 -288l221 -441h-123l-213 424q-18 -2 -59 -2h-139v-422h-115zM676 791h129q293 0 293 204q0 63 -23.5 104.5t-70 59t-91.5 24.5t-108 7h-129v-399z" />
<glyph unicode="&#xb0;" horiz-adv-x="888" d="M45 1133.5q0 220.5 120 344.5t284 124q162 0 278.5 -124t116.5 -345q0 -217 -119 -341t-282.5 -124t-280.5 122.5t-117 343zM193 1133q0 -342 249 -342q256 0 256 342t-249 342q-115 0 -185.5 -83t-70.5 -259z" />
<glyph unicode="&#xbb;" horiz-adv-x="860" d="M45 49l293 504l-285 487l66 39q14 -10 40.5 -36.5t125 -164t213.5 -335.5q-115 -199 -209 -334t-131 -168l-37 -37zM346 1065l78 45q14 -12 44 -45t131 -179.5t216 -344.5q-115 -199 -214 -340.5t-142 -184.5l-39 -43l-64 39l299 520z" />
<glyph unicode="&#x2c6;" horiz-adv-x="788" d="M0 1036l338 541h113l337 -541h-149l-246 394l-243 -394h-150z" />
<glyph unicode="&#x2da;" horiz-adv-x="563" d="M-401 601q0 220 119.5 344t283.5 124q162 0 278.5 -124t116.5 -345q0 -217 -118.5 -341t-282.5 -124t-280.5 123t-116.5 343zM-254 600q0 -342 250 -342q256 0 256 342t-250 342q-115 0 -185.5 -83t-70.5 -259z" />
<glyph unicode="&#x2dc;" horiz-adv-x="563" d="M-537 233q92 176 279 177q113 0 287 -74q154 -68 252 -68q111 0 186 90l72 -47q-92 -176 -281 -176q-113 0 -285 74q-154 68 -254 67q-109 0 -184 -90z" />
<glyph unicode="&#x410;" horiz-adv-x="1280" d="M45 0l500 1577h145l547 -1577h-154l-163 477h-580l-152 -477h-143zM381 606h493l-258 744z" />
<glyph unicode="&#x411;" horiz-adv-x="1241" d="M113 0v1577h952v-137h-803v-492h336q299 0 437.5 -117.5t138.5 -361.5q0 -221 -145.5 -345t-430.5 -124h-485zM262 137h336q92 0 159.5 12.5t131 47t96.5 105.5t33 175q0 109 -32 177.5t-94.5 101t-129 44t-164.5 11.5h-336v-674z" />
<glyph unicode="&#x412;" horiz-adv-x="1255" d="M113 0v1577h458q524 0 525 -389q0 -246 -193 -318q-39 -16 -69 -18v-8q14 -2 36.5 -6t80 -29t101.5 -62.5t79.5 -114.5t35.5 -177q0 -225 -126 -340t-418 -115h-510zM254 137h369q76 0 125 5t104 22.5t87 51.5t52.5 93.5t20.5 145.5q0 160 -98.5 233.5t-262.5 73.5h-397 v-625zM254 899h350q147 0 245.5 76t98.5 213t-91 195.5t-286 58.5h-317v-543z" />
<glyph unicode="&#x413;" horiz-adv-x="1044" d="M113 0v1577h886v-137h-745v-1440h-141z" />
<glyph unicode="&#x414;" horiz-adv-x="1411" d="M23 137h112q117 104 167 423t50 1017h860v-1440h156v-549h-100l-51 412h-1045l-51 -412h-98v549zM309 137h760v1303h-573q0 -524 -41.5 -841t-145.5 -462z" />
<glyph unicode="&#x415;" horiz-adv-x="1107" d="M113 0v1577h919v-137h-778v-557h664v-138h-664v-608h786v-137h-927z" />
<glyph unicode="&#x416;" horiz-adv-x="1931" d="M23 76q41 10 70.5 32.5t49 45t40 72.5t30.5 85l33 117q49 180 105.5 270t166.5 129q-86 31 -126 105t-91 248q-45 160 -96 231.5t-154 93.5l12 97q160 0 251.5 -83t150.5 -339q25 -100 48.5 -158.5t60 -88.5t73.5 -37t111 -7h137v688h143v-688h136q137 0 193 49t101 242 q59 254 150.5 338t249.5 84l12 -97q-100 -23 -150.5 -92.5t-99.5 -232.5q-49 -176 -89 -249t-128 -104q111 -39 167 -128t106 -271q22 -82 32.5 -115.5t32 -85t39.5 -74t49 -45t72 -32.5l-23 -105q-150 0 -227.5 96.5t-136.5 360.5q-45 197 -121 259.5t-215 62.5h-150v-750 h-143v750h-152q-137 0 -212.5 -63.5t-120.5 -258.5q-63 -264 -140 -360.5t-227 -96.5z" />
<glyph unicode="&#x417;" horiz-adv-x="1179" d="M45 109l41 92q190 -96 438 -97q219 0 313.5 94.5t94.5 235.5q0 156 -85 248t-265 92h-246v135h237q160 0 240 83t80 212t-101.5 196.5t-271.5 67.5q-98 0 -196.5 -20.5t-147.5 -36.5l-47 -20l-39 88l67 32q42 20 161.5 55.5t228.5 35.5q227 0 362 -110t135 -292 q0 -74 -25.5 -138.5t-63 -101t-76.5 -62.5t-64 -38l-27 -8v-8q10 -2 32 -7.5t74 -35t91 -70.5t72 -120t33 -181q0 -213 -152 -336t-385 -123q-266 0 -494 127z" />
<glyph unicode="&#x418;" horiz-adv-x="1368" d="M113 0v1577h141v-1346l844 1346h159v-1577h-143v1346l-842 -1346h-159z" />
<glyph unicode="&#x419;" horiz-adv-x="1368" d="M113 0v1577h141v-1346l844 1346h159v-1577h-143v1346l-842 -1346h-159zM342 1931h137q0 -70 52.5 -121t160.5 -51q100 0 154.5 52.5t54.5 119.5h137q0 -121 -91 -206t-255 -85q-182 0 -266 83t-84 208z" />
<glyph unicode="&#x41a;" horiz-adv-x="1212" d="M113 0v1577h143v-688h195q72 0 109.5 7t74.5 37t60.5 88t47.5 159q59 256 150.5 339t251.5 83l10 -97q-100 -23 -152.5 -94.5t-97.5 -230.5q-45 -164 -92 -242t-131 -109q76 -25 123 -85t70.5 -121.5t58.5 -194.5q49 -164 104.5 -245t153.5 -107l-23 -105 q-154 0 -246 100.5t-151 356.5q-45 201 -107.5 261.5t-195.5 60.5h-213v-750h-143z" />
<glyph unicode="&#x41b;" horiz-adv-x="1359" d="M0 76q137 41 206.5 160.5t104.5 430t35 910.5h901v-1577h-141v1440h-614q0 -287 -6.5 -478.5t-25 -364.5t-50 -276.5t-85 -183.5t-126 -116.5t-176.5 -47.5z" />
<glyph unicode="&#x41c;" horiz-adv-x="1644" d="M113 0v1577h141l584 -1112l551 1112h143v-1577h-143v1260l-484 -963h-131l-520 981v-1278h-141z" />
<glyph unicode="&#x41d;" horiz-adv-x="1339" d="M113 0v1577h141v-696h829v696h146v-1577h-146v743h-829v-743h-141z" />
<glyph unicode="&#x41e;" horiz-adv-x="1456" d="M90 786.5q0 403.5 177 609.5t463 206t462 -205t176 -610.5t-176 -610.5t-462 -205t-463 206t-177 609.5zM252 785.5q0 -349.5 135 -513t343 -163.5t343 163.5t135 513t-135 514t-343 164.5t-343 -164.5t-135 -514z" />
<glyph unicode="&#x41f;" horiz-adv-x="1308" d="M113 0v1577h1083v-1577h-141v1440h-799v-1440h-143z" />
<glyph unicode="&#x420;" horiz-adv-x="1200" d="M113 0v1577h411q608 0 609 -459q0 -231 -153 -352t-456 -121h-262v-645h-149zM262 782h262q100 0 171 11.5t140.5 45t105.5 103.5t36 176q0 102 -37 171t-108.5 99.5t-140 41t-167.5 10.5h-262v-658z" />
<glyph unicode="&#x421;" horiz-adv-x="1255" d="M90 772q0 190 39 337.5t101.5 239t148.5 149.5t171 81t177 23q115 0 227.5 -35t167.5 -72l56 -33l-45 -88q-162 90 -355 90q-528 0 -528 -692q0 -664 532 -663q104 0 200.5 25.5t139.5 49.5l45 27l45 -88l-21 -17q-13 -10 -58.5 -35.5t-96.5 -46t-134 -37t-169 -16.5 q-127 0 -236.5 40t-203.5 128t-148.5 251t-54.5 382z" />
<glyph unicode="&#x422;" horiz-adv-x="1173" d="M45 1440v137h1083v-137h-471v-1440h-141v1440h-471z" />
<glyph unicode="&#x423;" horiz-adv-x="1290" d="M45 1577h158l479 -1057l405 1057h158l-497 -1294q-59 -156 -134 -234t-194 -78q-123 0 -219 92l41 84q76 -45 157 -45q68 0 115 47.5t94 172.5l2 12z" />
<glyph unicode="&#x424;" horiz-adv-x="1695" d="M68 820.5q0 193.5 62.5 338t166.5 223t223 115.5t252 37v133h152v-133q133 0 251.5 -37t224 -115.5t167 -223t61.5 -338t-61.5 -338t-167 -223.5t-224 -116t-251.5 -37v-172h-152v172q-133 0 -252 37t-223 116t-166.5 223.5t-62.5 338zM231 820q0 -132 35 -236.5 t89.5 -167t129 -103.5t144 -55t143.5 -14v1153q-74 0 -143.5 -14.5t-144 -55.5t-129 -104.5t-89.5 -167t-35 -235.5zM924 244q74 0 144.5 14t144 55t128 103.5t89 167t34.5 236.5t-34.5 235.5t-89 167t-128 104.5t-144.5 55.5t-144 14.5v-1153z" />
<glyph unicode="&#x425;" horiz-adv-x="1239" d="M0 0l522 795l-508 782h172l422 -647h23l422 647h172l-508 -782l522 -795h-174l-447 678l-444 -678h-174z" />
<glyph unicode="&#x426;" horiz-adv-x="1363" d="M113 0v1577h143v-1440h766v1440h143v-1440h156v-549h-102l-50 412h-1056z" />
<glyph unicode="&#x427;" horiz-adv-x="1251" d="M90 1038v539h143v-539q0 -330 324 -329q283 0 438 61v807h146v-1577h-146v657q-184 -74 -450 -73q-233 0 -344 120.5t-111 333.5z" />
<glyph unicode="&#x428;" horiz-adv-x="1835" d="M113 0v1577h143v-1440h592v1440h141v-1440h590v1440h145v-1577h-1611z" />
<glyph unicode="&#x429;" horiz-adv-x="1923" d="M113 0v1577h143v-1440h592v1440h141v-1440h592v1440h143v-1440h154v-549h-98l-49 412h-1618z" />
<glyph unicode="&#x42a;" horiz-adv-x="1513" d="M23 1440v137h536v-649h279q608 0 608 -459q0 -231 -156.5 -350t-451.5 -119h-428v1440h-387zM559 137h279q96 0 166.5 11.5t141.5 44t107.5 101t36.5 175.5q0 86 -25.5 146.5t-65.5 94t-103.5 53t-120.5 25t-137 5.5h-279v-656z" />
<glyph unicode="&#x42b;" horiz-adv-x="1579" d="M113 0v1577h151v-649h248q608 0 608 -459q0 -231 -156.5 -350t-451.5 -119h-399zM264 137h248q74 0 132 6.5t121.5 28t103.5 54t68 95t28 148.5t-26 146.5t-65.5 94t-104 53t-122 25t-135.5 5.5h-248v-656zM1323 0v1577h143v-1577h-143z" />
<glyph unicode="&#x42c;" horiz-adv-x="1185" d="M113 0v1577h149v-649h250q608 0 608 -459q0 -231 -156.5 -350t-451.5 -119h-399zM262 137h250q74 0 132 6.5t121.5 28t103.5 54t68 95t28 148.5t-26 146.5t-65.5 94t-104 53t-122 25t-135.5 5.5h-250v-656z" />
<glyph unicode="&#x42d;" horiz-adv-x="1253" d="M45 123l43 88l55 -28q35 -17 141.5 -45.5t213.5 -28.5q485 0 506 632h-719v136h719q-14 326 -145.5 456.5t-362.5 130.5q-186 0 -357 -90l-43 88q23 16 62 40t156.5 62t232.5 38q121 0 221 -34t194.5 -117t148.5 -248t54 -398q0 -223 -51 -389t-139 -260.5t-194.5 -139.5 t-231.5 -45q-139 0 -265 38t-182 77z" />
<glyph unicode="&#x42e;" horiz-adv-x="1806" d="M113 0v1577h143v-696h246q20 362 180 541.5t426 179.5q283 0 445.5 -204t162.5 -611.5t-162.5 -611.5t-445.5 -204q-274 0 -436 192.5t-172 579.5h-244v-743h-143zM664 786.5q0 -354.5 121.5 -516t322.5 -161.5t321.5 161.5t120.5 516t-120.5 516t-321.5 161.5 t-322.5 -161.5t-121.5 -516z" />
<glyph unicode="&#x42f;" horiz-adv-x="1284" d="M45 74q113 39 167 94t89 199q61 244 197 317q-358 78 -359 434q0 459 594 459h438v-1577h-151v647h-143q-82 0 -131.5 -6t-114 -30.5t-104.5 -85t-60 -158.5q-20 -102 -54 -177t-72 -117t-89 -65.5t-94 -30t-99 -6.5zM297 1118q0 -106 34 -176t99.5 -102.5t134 -44 t168.5 -11.5h287v656h-287q-78 0 -133 -6.5t-115.5 -23.5t-99.5 -51t-63.5 -95.5t-24.5 -145.5z" />
<glyph unicode="&#x430;" horiz-adv-x="997" d="M78 256q0 104 55 176t209 122t406 52v12q0 193 -58.5 261.5t-210.5 68.5q-61 0 -138 -14t-122 -31l-45 -16l-31 84q174 92 371 92q188 0 279.5 -97.5t91.5 -347.5v-618h-111q-12 82 -20 160q-166 -172 -363 -172q-141 0 -227 72.5t-86 195.5zM217 266q0 -84 51 -123 t133 -39q184 0 347 195v197q-264 -2 -397.5 -54.5t-133.5 -175.5z" />
<glyph unicode="&#x431;" horiz-adv-x="1050" d="M113 496v315q0 152 30.5 266.5t77.5 186t125 124t151.5 79t178.5 49.5l282 61l27 -123l-219 -49q-162 -33 -259 -78t-152.5 -119.5t-76 -162t-28.5 -234.5q113 176 340 176q174 0 280.5 -129t106.5 -362q0 -244 -112.5 -382.5t-323.5 -138.5q-186 0 -307 137.5 t-121 383.5zM250 496q0 -199 75.5 -296.5t215.5 -97.5q297 0 297 394q0 176 -66.5 275t-189.5 99q-117 0 -211.5 -80.5t-120.5 -179.5v-114z" />
<glyph unicode="&#x432;" horiz-adv-x="956" d="M113 0v1051h381q143 0 233 -66.5t90 -198.5q0 -156 -137 -217l-25 -8v-4q8 0 24.5 -4t57.5 -21.5t72 -42t55.5 -76t24.5 -116.5q0 -143 -92 -220t-234 -77h-450zM250 113h272q133 0 185.5 49t52.5 141q0 186 -250 186h-260v-376zM250 608h250q86 0 139 48.5t53 125.5 q0 156 -227 156h-215v-330z" />
<glyph unicode="&#x433;" horiz-adv-x="792" d="M113 0v1051h635v-119h-498v-932h-137z" />
<glyph unicode="&#x434;" horiz-adv-x="1083" d="M23 119h67q82 59 122 267t40 665h670v-932h116v-436h-90l-49 317h-737l-49 -317h-90v436zM254 119h530v813h-401q0 -289 -24.5 -491.5t-104.5 -321.5z" />
<glyph unicode="&#x435;" horiz-adv-x="962" d="M68 514q0 254 136 408.5t320 154.5q106 0 183 -49t116 -133t56.5 -175t17.5 -198l-692 -10q0 -205 108.5 -311.5t249.5 -106.5q178 0 287 53l29 -79q-137 -92 -340 -93q-211 0 -341 143.5t-130 395.5zM209 600q182 29 551 37q-6 137 -66.5 232.5t-169.5 95.5 q-113 0 -204 -99.5t-111 -265.5z" />
<glyph unicode="&#x436;" horiz-adv-x="1443" d="M23 90q82 23 126 71t62 163q27 123 86 184q43 41 94 49v4q-47 6 -94 47q-63 55 -78 154q-10 61 -25.5 101t-41 61.5t-44 30t-55.5 18.5l19 90q121 0 185.5 -56.5t104.5 -242.5q18 -88 69.5 -120t135.5 -32h86v439h138v-439h86q84 0 135 32t69 120q41 186 106.5 242.5 t184.5 56.5l19 -90q-37 -10 -54.5 -18.5t-44 -30t-42 -61.5t-25.5 -101q-14 -98 -78 -154q-20 -18 -44 -29.5t-38 -15.5l-12 -2v-4q51 -8 94 -49q61 -61 86 -184q20 -115 63 -163t125 -71l-24 -102q-131 0 -197.5 67.5t-109.5 268.5q-12 61 -34 98t-55.5 53.5t-63.5 19.5 t-83 3h-63v-498h-138v498h-63q-53 0 -83 -3t-63.5 -19.5t-55 -53.5t-34.5 -98q-43 -201 -109.5 -268.5t-197.5 -67.5z" />
<glyph unicode="&#x437;" horiz-adv-x="890" d="M45 68l31 88q150 -61 317 -62q268 0 269 193q0 102 -50.5 152t-175.5 50h-194v125h192q98 0 147.5 50.5t49.5 134.5q0 162 -246 162q-68 0 -138.5 -14.5t-107.5 -26.5l-35 -13l-30 84q170 86 336 86q158 0 258 -73.5t100 -206.5q0 -80 -44 -137.5t-89 -75.5l-43 -19v-4 q10 0 23.5 -3t49 -22.5t64.5 -46t51.5 -81t22.5 -123.5q0 -145 -115 -227.5t-276 -82.5q-88 0 -179.5 24t-138.5 46z" />
<glyph unicode="&#x438;" horiz-adv-x="1021" d="M113 0v1051h137v-809l522 809h137v-1051h-137v811l-522 -811h-137z" />
<glyph unicode="&#x439;" horiz-adv-x="1021" d="M113 0v1051h137v-809l522 809h137v-1051h-137v811l-522 -811h-137zM219 1405h117q0 -59 43 -107.5t133 -48.5t131 48.5t41 107.5h121q0 -102 -77 -177t-216 -75q-156 0 -224.5 73t-68.5 179z" />
<glyph unicode="&#x43a;" horiz-adv-x="933" d="M113 0v1051h137v-439h117q84 0 137 32t69 120q41 186 105.5 242.5t183.5 56.5l19 -90q-49 -14 -72 -27.5t-49.5 -58.5t-40.5 -125q-14 -90 -80 -154q-23 -18 -46.5 -29.5t-33.5 -15.5l-14 -2v-4q49 -8 92 -49q59 -59 84 -184q20 -113 66.5 -162t125.5 -72l-26 -102 q-129 0 -196.5 67.5t-112.5 268.5q-14 61 -34 98t-53.5 53.5t-62.5 19.5t-84 3h-94v-498h-137z" />
<glyph unicode="&#x43b;" horiz-adv-x="1026" d="M0 90q92 25 140 107t73 281.5t25 572.5h677v-1051h-137v932h-403q0 -522 -75 -720t-273 -224z" />
<glyph unicode="&#x43c;" horiz-adv-x="1294" d="M113 0v1051h135l409 -732l392 732h135v-1051h-135v791l-322 -615h-135l-344 627v-803h-135z" />
<glyph unicode="&#x43d;" horiz-adv-x="1005" d="M113 0v1051h135v-447h510v447h137v-1051h-137v479h-510v-479h-135z" />
<glyph unicode="&#x43e;" horiz-adv-x="1073" d="M68 525q0 259 139 405.5t334 146.5q193 0 330 -146.5t137 -406.5q0 -256 -140.5 -402.5t-333 -146.5t-329.5 145.5t-137 404.5zM209 524q0 -211 90 -320.5t236 -109.5q147 0 238 109.5t91 320.5t-92 322.5t-231 111.5q-135 0 -233.5 -112.5t-98.5 -321.5z" />
<glyph unicode="&#x43f;" horiz-adv-x="1021" d="M113 0v1051h796v-1051h-137v932h-522v-932h-137z" />
<glyph unicode="&#x440;" horiz-adv-x="1030" d="M113 -489v1540h110q14 -82 21 -158q154 184 329 184q100 0 175 -42t115 -116.5t59.5 -160.5t19.5 -191q0 -592 -471 -592q-125 0 -221 76v-540h-137zM250 168q92 -80 213 -80q74 0 124 14.5t103 59.5t80 147.5t27 257.5q0 106 -19.5 190.5t-75 145t-139.5 60.5 q-150 0 -313 -215v-580z" />
<glyph unicode="&#x441;" horiz-adv-x="890" d="M68 516q0 252 125.5 406.5t314.5 154.5q86 0 165 -22.5t115 -44.5l37 -25l-30 -84q-113 59 -254 60q-147 0 -242.5 -126t-95.5 -319q0 -188 95 -307t245 -119q72 0 140.5 15.5t100.5 29.5l33 17l31 -84q-14 -10 -40 -25.5t-114 -41.5t-184 -26q-188 0 -315 145.5 t-127 395.5z" />
<glyph unicode="&#x442;" horiz-adv-x="897" d="M45 932v119h809v-119h-336v-932h-137v932h-336z" />
<glyph unicode="&#x443;" horiz-adv-x="917" d="M0 1051h150l329 -965l299 965h142l-375 -1217q-49 -164 -127 -247t-199 -83q-115 0 -194 84l47 76q76 -43 137 -43q131 0 203 246l39 133h-93z" />
<glyph unicode="&#x444;" horiz-adv-x="1302" d="M90 514q0 279 129 398.5t365 119.5v451h137v-451q233 0 363 -119.5t130 -398.5q0 -252 -132 -373t-361 -121v-509h-137v509q-229 0 -361.5 121t-132.5 373zM233 514q0 -377 351 -377v778q-190 0 -270.5 -90t-80.5 -311zM721 137q352 0 352 377q0 219 -82 310t-270 91 v-778z" />
<glyph unicode="&#x445;" horiz-adv-x="894" d="M0 0l358 543l-333 508h155l258 -394h19l260 394h155l-333 -508l358 -543h-160l-288 434l-289 -434h-160z" />
<glyph unicode="&#x446;" horiz-adv-x="1071" d="M113 0v1051h137v-932h522v932h137v-932h119v-436h-90l-51 317h-774z" />
<glyph unicode="&#x447;" horiz-adv-x="976" d="M90 709v342h137v-328q0 -231 187 -231q80 0 157.5 11t118.5 21l37 13v514h137v-1051h-137v422q-137 -45 -313 -45q-150 0 -237 94.5t-87 237.5z" />
<glyph unicode="&#x448;" horiz-adv-x="1427" d="M113 0v1051h137v-932h397v932h135v-932h396v932h137v-932v-119h-1202z" />
<glyph unicode="&#x449;" horiz-adv-x="1474" d="M113 0v1051h137v-932h395v932h137v-932h394v932h137v-932h117v-436h-91l-49 317h-1177z" />
<glyph unicode="&#x44a;" horiz-adv-x="1103" d="M23 926v125h403v-416h223q186 0 286.5 -84t100.5 -236q0 -147 -102.5 -231t-284.5 -84h-360v926h-266zM426 117h223q133 0 192.5 56t59.5 142t-58.5 145.5t-193.5 59.5h-223v-403z" />
<glyph unicode="&#x44b;" horiz-adv-x="1255" d="M113 0v1051h137v-416h223q186 0 286.5 -84t100.5 -236q0 -147 -102.5 -231t-284.5 -84h-360zM250 117h223q133 0 192.5 56t59.5 142t-58.5 145.5t-193.5 59.5h-223v-403zM1010 0v1051h135v-1051h-135z" />
<glyph unicode="&#x44c;" horiz-adv-x="927" d="M113 0v1051h137v-416h223q186 0 286.5 -84t100.5 -236q0 -147 -102.5 -231t-284.5 -84h-360zM250 117h223q133 0 192.5 56t59.5 142t-58.5 145.5t-193.5 59.5h-223v-403z" />
<glyph unicode="&#x44d;" horiz-adv-x="878" d="M45 68l29 84q102 -61 268 -62q150 0 230.5 108.5t91.5 299.5h-476v110q307 0 476 -30q-6 180 -94.5 281.5t-231.5 101.5q-63 0 -127 -15.5t-96 -30.5l-31 -14l-31 84q14 10 40 24.5t109 41t171 26.5q188 0 313 -141t125 -389q0 -270 -128 -421t-318 -151q-90 0 -170 24 t-113 46z" />
<glyph unicode="&#x44e;" horiz-adv-x="1347" d="M113 0v1051h135v-428h190q25 217 140.5 335.5t283.5 118.5q188 0 304 -143t116 -410q0 -262 -120 -405.5t-306 -143.5q-182 0 -298 136.5t-124 386.5h-186v-498h-135zM571 524q0 -430 285 -430t285 430q0 217 -73 325.5t-206 108.5q-129 0 -210 -110.5t-81 -323.5z" />
<glyph unicode="&#x44f;" horiz-adv-x="940" d="M45 90q61 18 87 28.5t55.5 45.5t45.5 94q25 94 62 148q20 25 40.5 39t29.5 14l12 4v2q-63 2 -121 31q-152 76 -152 252q0 133 105.5 218t259.5 85h383v-1051h-135v428h-111q-53 0 -80.5 -3t-59.5 -19.5t-52.5 -51.5t-34.5 -96q-43 -156 -111.5 -213t-197.5 -57zM231 748 q0 -205 297 -205h189v391h-248q-111 0 -174.5 -50t-63.5 -136z" />
<glyph unicode="&#x2010;" horiz-adv-x="765" d="M45 518v137h676v-137h-676z" />
<glyph unicode="&#x2011;" horiz-adv-x="765" d="M45 518v137h676v-137h-676z" />
<glyph unicode="&#x2012;" horiz-adv-x="765" d="M45 518v137h676v-137h-676z" />
<glyph unicode="&#x2013;" horiz-adv-x="1232" d="M45 518v137h1145v-137h-1145z" />
<glyph unicode="&#x2014;" horiz-adv-x="1509" d="M45 518v137h1419v-137h-1419z" />
<glyph unicode="&#x2018;" horiz-adv-x="360" d="M113 887q2 506 59 690h76v-690h-135z" />
<glyph unicode="&#x2019;" d="M113 1577h141v-690h-88q-53 172 -53 690z" />
<glyph unicode="&#x201a;" d="M113 293h141v-690h-88q-53 172 -53 690z" />
<glyph unicode="&#x201c;" horiz-adv-x="626" d="M113 887q2 506 59 690h76v-690h-135zM379 887v690h137v-690h-137z" />
<glyph unicode="&#x201d;" horiz-adv-x="620" d="M113 1577h141v-690h-88q-53 172 -53 690zM379 887v690h131v-690h-131z" />
<glyph unicode="&#x201e;" horiz-adv-x="620" d="M113 293h141v-690h-88q-53 172 -53 690zM379 293h131v-690h-131v690z" />
<glyph unicode="&#x2026;" horiz-adv-x="1273" d="M68 82q0 45 33.5 78t80.5 33q49 0 82 -33t33 -78t-33 -78t-82 -33q-47 0 -80.5 33t-33.5 78zM522 82q0 45 34 78t81 33q51 0 83 -33t32 -78t-32 -78t-83 -33q-47 0 -81 33t-34 78zM977 82q0 45 33.5 78t83 33t82 -33t32.5 -78t-32.5 -78t-82 -33t-83 33t-33.5 78z" />
<glyph unicode="&#x2039;" horiz-adv-x="1148" d="M45 528v115l1059 545v-150l-879 -452l879 -453v-149z" />
<glyph unicode="&#x203a;" horiz-adv-x="1148" d="M45 -16v149l879 453l-879 452v150l1059 -545v-115z" />
<glyph unicode="&#x20ac;" horiz-adv-x="1220" d="M0 588l31 108h168v76v86h-199l31 109h176q20 178 76.5 307t135.5 197.5t157.5 99.5t164.5 31q115 0 207 -35t129 -72l33 -33l-53 -82q-102 86 -266 86q-365 0 -424 -499h651l-31 -109h-627q-2 -27 -2 -86v-76h596l-30 -108h-557q27 -254 133 -366.5t295 -112.5 q195 4 319 100l62 -86q-4 -6 -13.5 -16.5t-45.5 -36t-79 -46t-119.5 -37t-164.5 -16.5q-213 0 -362.5 145.5t-184.5 471.5h-207z" />
<glyph unicode="&#x2122;" horiz-adv-x="1323" d="M0 1485v92h526v-92h-211v-572h-106v572h-209zM590 913v664h104l248 -449l234 449h104v-664h-104v459l-189 -358h-86l-207 364v-465h-104z" />
<glyph unicode="&#xe000;" horiz-adv-x="1050" d="M0 1050h1050v-1050h-1050v1050z" />
</font>
</defs>
</svg>
