<?xml version="1.0" standalone="no"?>
<!DOCTYPE svg PUBLIC "-//W3C//DTD SVG 1.1//EN" "http://www.w3.org/Graphics/SVG/1.1/DTD/svg11.dtd" >
<svg xmlns="http://www.w3.org/2000/svg">
<metadata>
This is a custom SVG webfont generated by Font Squirrel.
Copyright   : Copyright c 2010 Yanone httpyanonedetypedesign All rights reservedThis Font Software is licensed under the SIL Open Font License Version 11This license is available with a FAQ at httpscriptssilorgOFL
Designer    : Yanone
Foundry     : Yanone Font Production Not for release
Foundry URL : httpyanonedetypedesign
</metadata>
<defs>
<font id="YanoneKaffeesatzRegular" horiz-adv-x="886" >
<font-face units-per-em="2048" ascent="1638" descent="-410" />
<missing-glyph horiz-adv-x="333" />
<glyph unicode=" "  horiz-adv-x="333" />
<glyph unicode="&#x09;" horiz-adv-x="333" />
<glyph unicode="&#xa0;" horiz-adv-x="333" />
<glyph unicode="!" horiz-adv-x="413" d="M90 106q0 49 31 86t86 37q66 0 92.5 -33.5t26.5 -89.5q0 -49 -32 -84.5t-87 -35.5q-68 0 -92.5 32.5t-24.5 87.5zM96 1452q0 20 8.5 29.5t34 14.5t72.5 6t121 1l-33 -966q-2 -29 -11 -45.5t-29.5 -23.5t-52.5 -9t-81 -2z" />
<glyph unicode="&#x22;" horiz-adv-x="561" d="M66 1630q0 31 6 35q10 4 26.5 6t40.5 2q27 0 53.5 -1t43.5 -5q0 -45 -5.5 -113.5t-11.5 -135t-13 -116t-13 -55.5q-2 -2 -17.5 -2t-32.5 -2q-23 -2 -47 -2q0 4 -4 38l-9 79q-5 45 -9 97t-6 98t-2 77zM326 1630q0 31 6 35q8 4 26.5 6t42.5 2q27 0 53.5 -1t43.5 -5 q0 -45 -5.5 -113.5t-11.5 -135t-13 -116t-13 -55.5q-4 -2 -18.5 -2t-30.5 -2q-23 -2 -48 -2q-2 4 -5 38t-8 79t-10 97t-7 98t-2 77z" />
<glyph unicode="#" d="M57 766q0 82 4.5 109.5t32.5 27.5h109l6 133q2 27 37 31t116 4l-8 -168h201l8 133q2 27 37 31t115 4l-8 -168h124q0 -82 -5 -109.5t-29 -27.5h-99l-10 -225h143q0 -80 -5 -107.5t-29 -27.5h-117l-6 -144q-2 -27 -38 -31t-116 -4l8 179h-202l-7 -144q-2 -27 -36.5 -31 t-116.5 -4l8 179h-117q0 80 4.5 107.5t32.5 27.5h88l13 225h-138zM334 541h203l10 225h-203z" />
<glyph unicode="$" d="M111 78q0 8 3 25.5t9 39t15 42t20 32.5q33 -25 88 -43t137 -18q100 0 149.5 47t49.5 133q0 59 -26 107.5t-91 117.5l-240 242q-59 61 -85.5 119.5t-26.5 117.5q0 115 70.5 183.5t199.5 87.5v188q0 45 41 57.5t117 12.5v-256q121 -10 170 -35t49 -41q0 -18 -9.5 -54 t-33.5 -67q-20 14 -76.5 29.5t-130.5 15.5q-96 0 -151.5 -25.5t-55.5 -93.5q0 -45 22.5 -83.5t67.5 -88.5l258 -256q63 -66 93 -131t30 -149q0 -61 -13 -116.5t-45 -100.5t-83 -78t-129 -45v-187q0 -43 -38 -55t-118 -12v246q-125 6 -181 37.5t-56 54.5z" />
<glyph unicode="%" horiz-adv-x="1470" d="M94 1118q0 203 79 296t222 93q72 0 125 -17t88 -62.5t53.5 -120t18.5 -187.5q0 -207 -76 -302t-221 -95q-70 0 -124 14.5t-92 57.5t-55.5 120.5t-17.5 202.5zM248 49l858 1460l49 -20q16 -10 32.5 -23.5t16.5 -29.5q0 -6 -37 -72l-97 -168l-137 -232l-155 -266l-424 -714 q-31 8 -53 18q-23 8 -38 20.5t-15 26.5zM260 1114q0 -82 8 -133t24.5 -79t40 -37t54.5 -9q29 0 53.5 13.5t41 43t27.5 79.5t11 126q0 78 -8 128t-23.5 78t-38 39t-55.5 11q-31 0 -55.5 -12t-42.5 -42t-27.5 -80t-9.5 -126zM793 377q0 203 78.5 296t224.5 93q70 0 123 -17.5 t87.5 -62.5t53 -119.5t18.5 -187.5q0 -207 -75.5 -302t-221.5 -95q-70 0 -124 14t-91 57t-55 121t-18 203zM956 369q0 -82 8.5 -133.5t25 -79t40 -36.5t53.5 -9q57 0 96.5 55t39.5 207q0 78 -7.5 128t-24 77.5t-40 39t-53.5 11.5q-33 0 -57.5 -12.5t-43 -41t-28 -79.5 t-9.5 -127z" />
<glyph unicode="&#x26;" horiz-adv-x="1069" d="M55 362q0 66 19.5 125.5t52.5 110.5t77 93t91 71q-76 129 -122 244.5t-46 203.5q0 143 94 218t262 75q143 0 231.5 -30.5t88.5 -69.5q0 -29 -11.5 -67t-31.5 -60q-61 43 -121.5 58.5t-134.5 15.5q-39 0 -75 -5.5t-62.5 -21.5t-41 -49t-14.5 -86q0 -57 36 -146.5 t95.5 -194t134 -213t152.5 -206.5q10 55 13 105.5t3 87.5q0 168 -36.5 270t-90.5 166q27 6 62 9t69.5 4t64.5 2t48 1q49 0 89 -1t75 -5q2 -4 4 -22.5t2 -40.5q0 -33 -14 -55.5t-74 -22.5h-104q10 -18 22 -44t24.5 -64t19.5 -91t7 -129q0 -61 -10 -148.5t-43 -177.5 q53 -59 99.5 -100t76.5 -55q-2 -25 -14 -50.5t-28.5 -45t-35 -30.5t-35 -11t-58.5 35.5t-97 97.5q-53 -59 -129 -96t-188 -37q-117 0 -194 31.5t-121 85t-62.5 121.5t-18.5 144zM233 358q0 -41 10.5 -78.5t35 -69.5t63.5 -49.5t98 -17.5q78 0 130.5 29t84.5 74 q-70 84 -143.5 184t-140.5 207q-61 -45 -99.5 -112t-38.5 -167z" />
<glyph unicode="'" horiz-adv-x="299" d="M66 1630q0 31 6 35q10 4 26.5 6t40.5 2q27 0 53.5 -1t43.5 -5q0 -45 -5.5 -113.5t-11.5 -135t-13 -116t-13 -55.5q-2 -2 -17.5 -2t-32.5 -2q-23 -2 -47 -2q0 4 -4 38l-9 79q-5 45 -9 97t-6 98t-2 77z" />
<glyph unicode="(" horiz-adv-x="620" d="M139 682q0 266 48.5 459.5t110.5 320.5t116.5 187.5t66.5 60.5q43 0 62.5 -23.5t34.5 -87.5q-49 -63 -96.5 -149t-83.5 -200.5t-59.5 -254t-23.5 -307.5q0 -186 25 -343t63.5 -281.5t85 -215t89.5 -135.5q-10 -61 -32 -95t-65 -34q-14 0 -69.5 64.5t-117 199t-108.5 340 t-47 494.5z" />
<glyph unicode=")" horiz-adv-x="620" d="M45 -287q43 57 89 145.5t85 210t63.5 275.5t24.5 344q0 158 -21.5 296t-57 254t-84 208t-99.5 153q14 63 33.5 87t62.5 24q12 0 66.5 -58.5t116 -183.5t110.5 -319.5t49 -466.5q0 -270 -48 -475t-108.5 -343t-115.5 -209t-70 -71q-43 0 -64.5 34t-31.5 95z" />
<glyph unicode="*" horiz-adv-x="999" d="M35 1071q0 39 11 68.5t28.5 48t37 25t35.5 -0.5l277 -176q4 -37 -12.5 -52t-38.5 -7zM141 639l256 262q16 16 33 16q23 0 47 -32l-188 -334q-14 -20 -35 -18t-42.5 18t-41 40.5t-29.5 47.5zM422 1421q-2 25 16.5 36t46.5 11q27 0 55.5 -8t51.5 -18l-43 -336 q-4 -25 -17.5 -34t-60.5 1zM527 895q7 12 51 29l243 -287q16 -18 7 -36.5t-29.5 -35t-48 -28t-54.5 -15.5l-166 336q-6 14 -6 25q0 7 3 12zM600 1055l315 170q25 -18 38.5 -52t13.5 -63q0 -25 -7.5 -40t-23.5 -19l-340 -82q-23 32 -23 50q0 21 27 36z" />
<glyph unicode="+" d="M72 524q0 80 5 116t32 36h262v262q0 27 34.5 31t116.5 4v-297h295q0 -82 -4 -117t-29 -35h-262v-262q0 -27 -35.5 -31t-115.5 -4v297h-299z" />
<glyph unicode="," horiz-adv-x="389" d="M82 -170q18 31 28.5 54.5t17.5 44t9 40.5l4 43q-49 31 -49 105q0 47 30 78.5t79 31.5q117 0 116 -127q0 -57 -21.5 -114.5t-49 -103.5t-55 -73.5t-41.5 -27.5q-25 0 -43.5 10t-24.5 39z" />
<glyph unicode="-" horiz-adv-x="591" d="M78 524q0 80 5 116t30 36h401q0 -82 -5 -117t-32 -35h-399z" />
<glyph unicode="." horiz-adv-x="389" d="M78 109q0 49 31.5 85.5t89.5 36.5q66 0 92 -33.5t26 -88.5q0 -51 -31.5 -86t-86.5 -35q-70 0 -95.5 32t-25.5 89z" />
<glyph unicode="/" horiz-adv-x="712" d="M20 -43l480 1626q4 14 11 23.5t25.5 15.5t55.5 7t100 1l-479 -1630q-4 -14 -10 -23.5t-25.5 -13.5t-55.5 -5t-102 -1z" />
<glyph unicode="0" d="M61 631q0 317 91.5 482t296.5 165q207 0 293.5 -148.5t86.5 -447.5q0 -172 -19 -304t-65.5 -220t-121 -132t-185 -44t-183.5 42t-116 123.5t-60.5 203.5t-17.5 280zM248 618q0 -133 9 -224t32.5 -147.5t60.5 -82t92 -25.5q109 0 157 128t48 417q0 219 -39 329.5 t-149 110.5q-123 0 -167 -134t-44 -372z" />
<glyph unicode="1" d="M59 119q0 12 30 22.5t75 14.5t99 6t104 2l22 936q-27 -2 -67.5 -8.5l-77.5 -12.5l-97 -18q-10 23 -18 51q-8 30 -8 62q0 12 53 29.5t123 34.5t135.5 28.5t93.5 11.5q12 0 27.5 -3t21.5 -7l-28 -1104h158h48q24 0 40 2q20 2 36 4q0 -88 -5 -129t-31 -41h-730 q-2 25 -3 59.5t-1 59.5z" />
<glyph unicode="2" d="M61 53q0 20 2.5 38t8.5 34t16 35l25 45q70 117 155 217l159 191q73 91 123 176t50 176q0 68 -37 107.5t-127 39.5q-82 0 -170 -21.5t-141 -54.5q-14 35 -17.5 70t-3.5 59q0 18 30 39t81 37t121 26.5t145 10.5q92 0 152.5 -19.5t96.5 -56.5t51.5 -90t15.5 -123 q0 -113 -50.5 -210t-126 -193.5t-164.5 -198.5t-167 -223h286q43 0 87.5 1t80.5 5l84 8q0 -96 -5 -137t-31 -41h-723q-4 12 -5.5 28.5t-1.5 24.5z" />
<glyph unicode="3" d="M90 1163q0 43 98.5 79t270.5 36q84 0 140 -20.5t91 -55.5t49.5 -81t14.5 -97q0 -63 -19.5 -119.5t-52.5 -104.5t-74 -87t-86 -72q57 -6 108.5 -26.5t89.5 -58.5t60.5 -95.5t22.5 -136.5q0 -131 -36 -232.5t-100.5 -169t-152.5 -101.5t-192 -34q-119 0 -173.5 30.5 t-54.5 73.5q0 47 8 76l15 51q78 -66 209 -65q141 0 216.5 103.5t75.5 262.5q0 68 -28.5 111t-75.5 67.5t-108.5 33t-126.5 8.5l-5 110q137 63 210 149.5t73 174.5q0 25 -5 49.5t-20.5 43.5t-45 32.5t-80.5 13.5q-88 0 -163 -20.5t-130 -55.5v-2q-16 33 -19.5 68.5t-3.5 60.5 z" />
<glyph unicode="4" d="M59 430q0 27 21.5 89.5t57.5 142t82 171t95.5 174.5t98.5 151.5t88 103.5q37 29 80 28q33 0 56.5 -7t41.5 -17l-6 -828h57q29 0 53 2l47 4l4.5 -14t3.5 -18.5t1 -28.5q-2 -43 -15.5 -75t-42.5 -32h-108v-221q0 -20 -3 -31.5t-19.5 -16.5t-51.5 -6t-100 -1v276h-385 q-33 33 -44.5 75t-11.5 79zM209 438h291l24 615q-39 -45 -87 -120t-92 -161t-82 -173t-54 -161z" />
<glyph unicode="5" d="M72 -125q0 49 5 79t15 60q72 -66 207 -65q86 0 148.5 35.5t101.5 96t57.5 138.5t18.5 158q0 92 -23.5 150.5t-68 91t-104.5 46t-134 13.5q-68 0 -122 -10.5t-83 -18.5l62 629h651q0 -49 -3 -79t-12.5 -47t-28 -23.5t-48.5 -6.5q-25 0 -93.5 1t-138.5 3l-180 4l-33 -319 q10 2 40 6t83 4q61 0 135 -11t137.5 -54t104.5 -124t41 -218q0 -143 -28.5 -258t-89 -197t-154 -127t-220.5 -45q-63 0 -110 9t-76 23.5t-43 29t-14 26.5z" />
<glyph unicode="6" d="M66 655q0 240 37.5 401t102 259t152.5 139t191 41q45 0 87 -3t74.5 -11t52 -22.5t19.5 -35.5q0 -27 -3 -60.5t-15 -64.5q-39 16 -89 24.5t-110 8.5q-72 0 -131 -30.5t-102 -97t-68.5 -171t-32.5 -250.5q49 76 120 115t173 39q135 0 222.5 -96.5t87.5 -317.5 q0 -274 -102.5 -406t-303.5 -132q-123 0 -194.5 46t-108.5 135t-48 212.5t-11 277.5zM231 604v-36q0 -220 48 -321q51 -110 157 -110q55 0 97 26.5t71 73t43 111t14 137.5q0 141 -47 216t-141 75q-141 0 -242 -158v-14z" />
<glyph unicode="7" d="M94 1278h766q-98 -193 -182 -377t-149.5 -365.5t-112.5 -361.5t-68 -362q-98 0 -138 9t-40 38q23 170 72 352t113.5 354t136 318.5t133.5 244.5q-61 -4 -188.5 -5t-293.5 -1q-31 0 -40 48.5t-9 107.5z" />
<glyph unicode="8" d="M66 391q0 139 70.5 243.5t172.5 166.5l-76.5 56.5t-62.5 55.5q-43 43 -65.5 101.5t-22.5 122.5q0 92 29.5 161.5t78 114.5t115 67.5t140 22.5t142 -14t121 -54t84 -106.5t31.5 -169.5q0 -72 -19.5 -127t-51 -99t-73.5 -81t-85 -66l60 -49q30 -25 53 -49q61 -61 94 -133 t33 -168q0 -82 -23 -156.5t-70 -129t-116.5 -86t-161.5 -31.5q-106 0 -181 31.5t-123 87t-70.5 130t-22.5 158.5zM227 401q0 -117 60.5 -184t163.5 -67q98 0 155.5 63t57.5 178q0 88 -29 135t-66 80q-27 27 -57.5 51.5t-65.5 47.5q-90 -47 -154.5 -122.5t-64.5 -181.5z M256 1149q0 -106 82 -174q23 -23 55 -47l74 -54q80 53 138.5 121t58.5 158q0 49 -16.5 85t-43 58.5t-61.5 32.5t-74 10q-88 0 -150.5 -46t-62.5 -144z" />
<glyph unicode="9" d="M57 762q0 274 102.5 404t303.5 130q115 0 184.5 -33.5t109.5 -111.5t53 -206t19 -312q-6 -434 -132 -644t-402 -210q-80 0 -136.5 15.5t-56.5 53.5q0 27 5.5 61t9.5 56q74 -20 155 -20q102 0 172 39t114 111.5t66.5 171t30.5 216.5q-49 -74 -116.5 -111.5t-169.5 -37.5 q-66 0 -123.5 27.5t-99.5 82t-65.5 134.5t-23.5 184zM227 784q0 -141 51.5 -215.5t141.5 -74.5q68 0 128 36.5t114 116.5v12q0 121 -7.5 211.5t-29 150.5t-59.5 91t-101 31q-109 0 -173.5 -89.5t-64.5 -269.5z" />
<glyph unicode=":" horiz-adv-x="389" d="M78 109q0 49 32.5 85.5t88.5 36.5q66 0 92 -33.5t26 -88.5q0 -51 -31.5 -86t-86.5 -35q-70 0 -95.5 32t-25.5 89zM78 821q0 49 32.5 87t88.5 38q66 0 92 -34.5t26 -90.5q0 -51 -31.5 -86t-86.5 -35q-70 0 -95.5 32t-25.5 89z" />
<glyph unicode=";" horiz-adv-x="389" d="M72 -170q18 31 28.5 54.5t16.5 44t9 41t5 42.5q-47 31 -47 105q0 47 29.5 78.5t76.5 31.5q117 0 117 -127q0 -57 -20.5 -114.5t-48 -103.5t-55 -73.5t-42.5 -27.5q-25 0 -44 10t-25 39zM74 821q0 49 32.5 87t88.5 38q66 0 92 -34.5t26 -90.5q0 -51 -31.5 -86t-86.5 -35 q-70 0 -95.5 32t-25.5 89z" />
<glyph unicode="&#x3c;" horiz-adv-x="851" d="M84 549q0 31 12.5 55.5t42.5 38.5l561 275q31 -27 45.5 -59t16.5 -58q0 -37 -31 -51l-422 -207l457 -205q-2 -55 -26.5 -95t-49.5 -40q-18 0 -59 16l-520 230q-27 49 -27 100z" />
<glyph unicode="=" d="M72 326q0 82 5 116.5t32 34.5h708q0 -82 -4 -116.5t-29 -34.5h-712zM72 723q0 80 5 114.5t32 34.5h708q0 -80 -4 -114.5t-29 -34.5h-712z" />
<glyph unicode="&#x3e;" horiz-adv-x="851" d="M92 760q4 55 28.5 95t49.5 40q23 0 57 -14l521 -232q31 -47 30 -100q0 -66 -57 -92l-563 -277q-29 29 -43.5 59.5t-16.5 57.5q0 37 29 53l424 205z" />
<glyph unicode="?" horiz-adv-x="626" d="M41 1421q0 18 24.5 36t62.5 29t85 18t94 7q133 0 214 -72.5t81 -221.5q0 -96 -25.5 -169t-62.5 -131.5t-78 -108.5t-69 -103q-14 -25 -20.5 -50.5t-6.5 -50.5q0 -51 12.5 -90t1.5 -51q-6 -8 -25.5 -14.5t-42 -7.5t-46 -1t-41.5 4q-8 20 -19 43q-6 23 -10 49.5t-4 59.5 q0 37 7 75t32 79q33 63 70.5 115.5l69.5 100.5t52.5 98t20.5 109q0 49 -15.5 81t-39 50.5t-55.5 25.5t-64 7q-72 0 -115 -20.5t-63 -32.5q-10 33 -17.5 65.5t-7.5 71.5zM158 109q0 49 31.5 85.5t86.5 36.5q66 0 92.5 -33.5t26.5 -88.5q0 -51 -31.5 -86t-87.5 -35 q-68 0 -93 32t-25 89z" />
<glyph unicode="@" horiz-adv-x="1570" d="M100 563q0 236 53.5 405t150.5 276.5t233.5 157.5t302.5 50q156 0 274.5 -36t198.5 -116.5t122 -212t42 -323.5q0 -174 -17.5 -298t-46.5 -209t-63.5 -135t-73.5 -77t-76 -34t-67 -7q-43 0 -75 14.5t-54 34.5q-25 -18 -83.5 -34.5t-150.5 -16.5q-57 0 -105.5 9t-84 45 t-56 100.5t-20.5 173.5q4 102 25.5 169.5t58.5 106.5t86 55.5t102 16.5q29 0 62.5 -4t60.5 -21q0 23 2 45q0 18 1 41t1 45q0 8 1 15q0 60 -32 83q-35 26 -96 25q-70 0 -118 -12t-95 -41q-14 23 -17 55.5t-3 44.5q2 25 20 43q29 16 94.5 36t176.5 20q117 0 176 -52.5 t57 -195.5l-10 -428q-2 -68 -4 -120t-6 -91q31 -12 67 -12q29 0 61.5 28.5t60.5 95t44 175t16 268.5q0 162 -21.5 272.5t-76.5 178t-143 97t-219 29.5q-137 0 -242 -36.5t-174.5 -123.5t-106.5 -233.5t-37 -365.5q0 -240 33 -390.5t97.5 -236.5t158.5 -117t219 -31 q168 0 284 26t212 65q20 -27 33.5 -60t13.5 -63q0 -23 -36 -47.5t-104.5 -44t-166.5 -32.5t-221 -13q-147 0 -275.5 28.5t-221.5 127.5t-147.5 291.5t-54.5 520.5zM670 324v-15q0 -103 27 -139q30 -39 87 -39q43 0 74 23.5t33 91.5l8 303q-10 2 -30.5 4t-45.5 2 q-33 0 -60.5 -10t-49 -36t-32.5 -70.5t-11 -114.5z" />
<glyph unicode="A" horiz-adv-x="929" d="M10 2l379 1466q6 29 68 29q47 0 80 -6l381 -1458q4 -18 -9.5 -27.5t-64.5 -9.5h-45q-25 0 -58 4l-92 379h-366l-82 -348q-4 -18 -17.5 -26.5t-64.5 -8.5q-16 0 -47 1t-62 5zM319 537h295l-73 303l-25 108q-12 55 -21.5 109.5t-16.5 103.5t-11 86q-4 -37 -13 -86l-19 -102 l-19 -110q-10 -56 -25 -109z" />
<glyph unicode="B" horiz-adv-x="800" d="M92 0v1450q0 20 11.5 30.5t46.5 10.5h210q63 0 127 -12.5t115 -49t83 -101t32 -167.5q0 -88 -18.5 -150.5t-48 -104.5t-66.5 -63.5t-70 -25.5q35 -2 79 -14t82 -46t63.5 -94.5t25.5 -154.5q0 -135 -32 -231.5t-87 -158t-129 -90t-156 -28.5h-268zM268 152h97 q41 0 75.5 19t62 60t44 105.5t16.5 155.5q0 84 -15.5 132t-41 72.5t-61 30.5t-78.5 6h-99v-581zM268 883h105q68 0 111.5 58t43.5 185q0 66 -13 107t-34.5 64.5t-50.5 31.5t-59 8h-103v-454z" />
<glyph unicode="C" horiz-adv-x="720" d="M66 684q0 272 39.5 437t100 253t135.5 112.5t144 24.5q59 0 98.5 -10t62 -27.5t31.5 -37t9 -41.5q0 -29 -8 -56.5t-21 -48.5q-16 16 -52 34.5t-85 18.5q-51 0 -99 -23.5t-86 -91t-61.5 -196.5t-23.5 -340q0 -162 15.5 -265t43 -161.5t67.5 -77t87 -18.5q61 0 113.5 21.5 t80.5 44.5q12 -20 19.5 -48t7.5 -57q0 -61 -72.5 -106t-191.5 -45q-19 -2 -38 -3q-56 0 -103 19q-63 25 -111.5 99.5t-75 215t-26.5 373.5z" />
<glyph unicode="D" horiz-adv-x="835" d="M94 0v1450q0 20 10.5 30.5t47.5 10.5h206q104 0 183.5 -32t131.5 -108.5t77.5 -205.5t25.5 -324q0 -233 -27.5 -391t-81 -253t-131 -136t-176.5 -41h-266zM266 164h96q41 0 80 22.5t69 94t48.5 204.5t18.5 355q0 147 -13.5 242.5t-40 150.5t-66.5 76.5t-93 21.5h-99 v-1167z" />
<glyph unicode="E" horiz-adv-x="679" d="M94 0v1454q0 8 4 19q4 6 11.5 12t19.5 6h510v-84q0 -31 -3 -47.5t-9 -20.5t-21 -4h-338v-444h320v-81q0 -32 -3 -49.5t-9.5 -23.5t-20.5 -6h-287v-575h365q0 -55 -1 -86t-4 -46.5t-10.5 -19.5t-19.5 -4h-504z" />
<glyph unicode="F" horiz-adv-x="663" d="M94 0v1454q0 8 4 19q4 6 11.5 12t19.5 6h510v-83q0 -30 -3 -45t-9 -18.5t-21 -3.5h-338v-450h320q0 -98 -4 -128t-29 -30h-287v-698q0 -10 -4 -19q-8 -16 -31 -16h-139z" />
<glyph unicode="G" horiz-adv-x="819" d="M57 711q0 250 32 406.5t90.5 243.5t143.5 117.5t191 30.5q109 0 168 -31.5t59 -74.5q0 -29 -6 -56.5t-18 -52.5q-27 25 -71 38.5t-97 13.5q-80 0 -138.5 -31t-96.5 -102.5t-54 -191.5t-16 -298q0 -190 14 -303t42 -174.5t70 -78.5t93 -17q55 0 85 19t38 32v528h-156v111 q0 35 41 34h279l-2 -800q-37 -31 -108 -61.5t-181 -30.5q-106 0 -183 29.5t-125.5 110.5t-71 223.5t-22.5 365.5z" />
<glyph unicode="H" horiz-adv-x="870" d="M94 0v1454q0 14 2 21.5t17.5 10.5t51.5 4t101 1v-606h338v569q0 14 2 21.5t18.5 10.5t51.5 4t102 1v-1456q0 -14 -2 -21.5t-18.5 -10.5t-50.5 -3h-103v725h-338v-690q0 -14 -2 -21.5t-18.5 -10.5t-50.5 -3h-101z" />
<glyph unicode="I" horiz-adv-x="356" d="M92 0v1413q0 29 3 45.5t18.5 23.5t52.5 8t100 1v-1456q0 -14 -3 -21.5t-19.5 -10.5t-52.5 -3h-99z" />
<glyph unicode="J" horiz-adv-x="651" d="M43 106q0 35 9 58.5t18 40.5q31 -29 77 -49.5t99 -20.5q45 0 73.5 16.5t42 48t17.5 80t4 109.5v1024q0 29 3 45.5t19.5 23.5t52.5 8t103 1v-1139q0 -80 -13 -147.5t-46 -116.5t-89.5 -77.5t-144.5 -28.5q-66 0 -109.5 10t-69.5 28.5t-36 40.5t-10 45z" />
<glyph unicode="K" horiz-adv-x="835" d="M90 0v1454q0 14 3 21.5t18.5 10.5t51.5 4t101 1v-643l338 633q31 6 59.5 9t51.5 3q77 0 76 -33q0 -8 -5 -18l-344 -594q129 -96 214 -300t128 -509q2 -25 -12 -34t-59 -9q-57 0 -121 6q-47 250 -98.5 414t-139.5 262q-20 18 -42.5 32.5t-45.5 24.5v-700q0 -14 -3 -21.5 t-19.5 -10.5t-51.5 -3h-100z" />
<glyph unicode="L" horiz-adv-x="673" d="M92 0v1442q0 18 3 28.5t19.5 14.5t52.5 5t99 1v-1329h367v-127q0 -23 -9.5 -29t-27.5 -6h-504z" />
<glyph unicode="M" horiz-adv-x="1040" d="M92 0v1454q0 27 10.5 32t24.5 5h127l203 -643q8 -33 19 -71l22 -74l17 -61q7 -26 9 -34q0 2 6.5 29l15.5 62l19 74q10 38 21 69l188 612q4 18 10.5 27.5t22.5 9.5h141v-1456q0 -14 -3 -21.5t-19.5 -10.5t-52.5 -3h-103l8 518q2 76 7.5 174.5t11.5 190.5l11 165q5 73 7 99 l-38 -136l-41 -145l-35 -124q-15 -54 -21 -72l-113 -326q-4 -10 -11 -13t-13 -3h-74l-111 342q-6 16 -22 70l-37 125l-42 147q-22 76 -38 139v-2l19 -227q10 -94 15 -203t7 -193l4 -491q0 -14 -4 -21.5t-21.5 -10.5t-52.5 -3h-94z" />
<glyph unicode="N" horiz-adv-x="944" d="M92 0v1454q0 37 35 37h133l238 -576l43 -117l56 -163l57 -174l46 -146v7q-6 47 -9 138l-6 188q-3 97 -4 182t-1 124v500q0 14 3 21.5t20.5 10.5t52.5 4t98 1v-1456q0 -35 -37 -35h-129l-244 586q-14 37 -40 112l-55 164l-58 176q-29 88 -47 150q4 -51 8 -144.5t7 -191.5 t4 -182t1 -119v-516q0 -14 -3 -21.5t-19.5 -10.5t-51.5 -3h-98z" />
<glyph unicode="O" horiz-adv-x="911" d="M63 754q0 213 25 358t76 233.5t128 126t179 37.5q104 0 177 -35.5t117 -121.5t64.5 -231.5t20.5 -360.5q0 -219 -23.5 -367.5t-72.5 -241t-126 -131t-182 -38.5q-102 0 -174.5 33.5t-119 121.5t-68 238t-21.5 379zM258 711q0 -147 9 -252t33 -172.5t60.5 -98t96.5 -30.5 q57 0 96 31.5t63.5 104.5t35 185.5t10.5 276.5q0 160 -9.5 269.5t-32 179t-59.5 99t-94 29.5q-55 0 -95 -32.5t-65.5 -106.5t-37 -191.5t-11.5 -291.5z" />
<glyph unicode="P" horiz-adv-x="765" d="M92 0v1454q0 37 35 37h211q203 0 298 -99.5t95 -322.5q0 -131 -30.5 -220t-85 -143.5t-126 -78t-151.5 -23.5h-74v-569q0 -14 -3 -21.5t-19.5 -10.5t-51.5 -3h-98zM264 764h94q88 0 134.5 73.5t46.5 249.5q0 115 -37 183.5t-131 68.5h-107v-575z" />
<glyph unicode="Q" horiz-adv-x="911" d="M63 754q0 213 25 358t76 233.5t128 126t179 37.5q104 0 177 -35.5t117 -121.5t64.5 -231.5t20.5 -360.5q0 -174 -15.5 -304t-45 -221.5t-77.5 -146.5t-112 -82q16 -84 42 -120t73 -36q33 0 67.5 7.5t65.5 29.5q12 -18 18 -46.5t6 -47.5q0 -25 -19 -42t-48 -26.5 t-62.5 -12.5t-60.5 -3q-111 0 -177.5 64.5t-101.5 210.5q-92 6 -156.5 45t-104.5 128t-59.5 234.5t-19.5 362.5zM258 711q0 -147 9 -252t33 -172.5t60.5 -98t96.5 -30.5q57 0 96 31.5t63.5 104.5t35 185.5t10.5 276.5q0 160 -9.5 269.5t-32 179t-59.5 99t-94 29.5 q-55 0 -95 -32.5t-65.5 -106.5t-37 -191.5t-11.5 -291.5z" />
<glyph unicode="R" horiz-adv-x="792" d="M92 0v1454q0 8 4 19q4 6 10.5 12t20.5 6h211q203 0 298 -99.5t95 -322.5q0 -172 -51 -271.5t-135 -146.5q27 -31 57.5 -84t60 -127.5t52 -175t30.5 -225.5q0 -25 -12 -34t-76 -9q-20 0 -45.5 1t-56.5 3q-8 135 -29.5 236.5t-46 175t-51.5 122t-47 72.5q-10 -2 -21 -2h-22 h-74v-569q0 -14 -3 -21.5t-19.5 -10.5t-51.5 -3h-98zM264 764h94q88 0 134.5 71.5t46.5 241.5q0 123 -36 192.5t-132 69.5h-107v-575z" />
<glyph unicode="S" horiz-adv-x="761" d="M53 106q0 25 10.5 60t34.5 63q33 -29 88.5 -51t130.5 -22q115 0 162 59t47 158q0 72 -26.5 134t-96.5 142l-215 250q-74 90 -103.5 160.5t-29.5 146.5q0 133 93.5 219t273.5 86q154 0 216 -30.5t62 -75.5q0 -23 -9 -49.5t-34 -48.5q-23 16 -78 34.5t-130 18.5 q-94 0 -149.5 -40t-55.5 -108q0 -59 23.5 -106t72.5 -105l231 -262q39 -49 68 -93t45 -87t22.5 -87t6.5 -93q0 -80 -18.5 -152.5t-62.5 -128t-118 -87t-182 -31.5q-143 0 -211 40.5t-68 85.5z" />
<glyph unicode="T" horiz-adv-x="792" d="M16 1329v125q0 37 37 37h725v-127q0 -35 -37 -35h-262v-1294q0 -14 -3 -21.5t-19.5 -10.5t-50.5 -3h-99v1329h-291z" />
<glyph unicode="U" horiz-adv-x="929" d="M92 434v1020q0 14 3 21.5t18.5 10.5t52.5 4t104 1v-1061q0 -63 6.5 -117.5t29 -93.5t62.5 -59.5t107 -20.5q55 0 107.5 11.5t79.5 25.5v1278q0 14 4 21.5t19 10.5t52 4t101 1v-1436q-41 -25 -138.5 -50t-224.5 -25t-202.5 35.5t-116.5 98t-52.5 144.5t-11.5 176z" />
<glyph unicode="V" horiz-adv-x="892" d="M12 1480q4 11 41 11h142l176 -823q27 -143 47 -280.5t39 -240.5q12 102 31.5 240.5t43.5 280.5l158 772q4 27 12.5 39t32.5 12h152l-330 -1497q-35 -4 -64.5 -6t-78.5 -2q-43 0 -66.5 33.5t-36.5 89.5l-38 156l-45 199l-49 219l-50 222l-115 535q-4 17 -3 28q-1 7 1 12z " />
<glyph unicode="W" horiz-adv-x="1394" d="M14 1440q-4 27 1 39t36 12h144l153 -823q25 -143 39 -261l25 -219h12q4 127 19.5 245t35.5 235l129 700q6 27 13.5 39t31.5 12h125l148 -751q29 -145 41 -261t24 -217h13q8 100 20 227.5t33 250.5l135 772q4 27 13 39t32 12h147l-278 -1497q-25 -2 -40 -4t-31 -3l-31 -2 q-16 -1 -43 -1q-39 0 -61.5 32.5t-33.5 87.5l-108 478q-8 43 -17.5 103t-18.5 128t-16 133l-14 121q-6 -55 -14 -121l-16 -132l-17 -127l-14 -103l-117 -590q-41 -4 -71.5 -6t-86.5 -2q-35 0 -56 35.5t-32 95.5l-32 157l-40 198l-43 218q-22 113 -40 221z" />
<glyph unicode="X" horiz-adv-x="901" d="M18 0l324 770l-266 690q-4 12 -1 18.5t23.5 9.5t63.5 3h119l86 -242q35 -90 61 -176l43 -143l43 140q27 87 64 179l79 213q2 12 7.5 17.5t23 8.5t53.5 3h105l-275 -707l303 -753q6 -11 7 -18q0 -13 -23 -13h-188l-117 287l-63 170l-50 141q-18 -55 -49 -139t-67 -172 l-115 -267q-12 -20 -41 -20h-150z" />
<glyph unicode="Y" horiz-adv-x="774" d="M32 1488q19 3 61 3h116l86 -291l32 -119l32 -132q15 -65 25.5 -118t12.5 -77q4 25 15.5 78l26.5 117l33 132l32 119l76 258q4 14 8 20.5t22.5 9.5t54.5 3h101l-287 -875v-581q0 -14 -2 -21.5t-18.5 -10.5t-50.5 -3h-101v602l-295 860q-3 8 -2 13q0 9 22 13z" />
<glyph unicode="Z" horiz-adv-x="819" d="M33 68q0 37 16 77l535 1190h-396q-31 0 -55 -1t-39 -5v125q0 37 35 37h637q10 -12 14 -24.5t4 -32.5q0 -43 -18 -78l-543 -1200h412q37 0 68.5 2t56.5 12v-135q0 -16 -6 -25.5t-29 -9.5h-666q-10 10 -18 27.5t-8 40.5z" />
<glyph unicode="[" horiz-adv-x="819" d="M258 -424v2120q0 16 2 27.5t14.5 16.5t39 7t75.5 2h412q0 -53 -1 -84t-6.5 -48.5t-17.5 -22.5t-33 -5h-311v-1851h367q0 -59 -2 -92t-8.5 -48.5t-17.5 -18.5t-30 -3h-483z" />
<glyph unicode="\" horiz-adv-x="702" d="M40 1622q17 6 53 7t102 1l483 -1650q3 -11 3 -19q0 -4 -1 -6q-2 -8 -20.5 -12t-54.5 -5t-101 -1l-479 1646q-5 11 -5 19q0 13 20 20z" />
<glyph unicode="]" horiz-adv-x="819" d="M18 -426q0 53 1 84t7.5 48.5t17.5 22.5t32 5h311v1855h-367q0 59 2.5 92t9.5 48.5t17 18.5t29 3h485v-2124q0 -16 -3 -27.5t-15.5 -16.5t-40 -7t-76.5 -2h-410z" />
<glyph unicode="^" horiz-adv-x="915" d="M102 532l369 316l309 -270q29 -29 29 -58q0 -31 -23.5 -54.5t-58.5 -27.5l-276 187l-218 -160q-20 -14 -30 -18.5t-23 -4.5q-35 0 -55.5 27.5t-22.5 62.5z" />
<glyph unicode="_" horiz-adv-x="802" d="M29 -231q0 80 4 114.5t30 34.5h711q0 -80 -5 -114.5t-30 -34.5h-710z" />
<glyph unicode="`" horiz-adv-x="362" d="M0 1432q2 18 9 41.5t18.5 43t25 33t29.5 13.5q6 0 44 -30t85 -71l92 -84q45 -43 62 -65q-8 -29 -17 -49q-10 -18 -22.5 -32.5t-26.5 -14.5q-8 0 -50 27l-93 65l-98 72q-46 37 -58 51z" />
<glyph unicode="a" horiz-adv-x="753" d="M61 303q0 111 25 178.5t64.5 106.5t90 51t103.5 12q37 0 81 -5t75 -21v168q0 74 -34 99.5t-97 25.5q-82 0 -158 -13.5t-123 -34.5q-16 27 -20.5 53.5t-4.5 45t5.5 34t19.5 25.5q27 18 114 37.5t210 19.5q137 0 200.5 -57t63.5 -201v-114v-184q0 -93 -2 -179t-4 -162.5 t-8 -136.5q-41 -27 -116 -49t-179 -22q-57 0 -112.5 8t-98.5 41.5t-69 99t-26 174.5zM244 307q0 -57 9 -94t27.5 -56.5t44 -26.5t56.5 -7q37 0 67.5 11t45.5 26q2 25 3 66.5t2 88.5t1 97v90q-20 12 -48 16t-51 4q-33 0 -61.5 -7t-50 -30.5t-33.5 -65.5t-12 -112z" />
<glyph unicode="b" horiz-adv-x="815" d="M100 43v1442q0 29 6.5 46t26 24.5t53 8.5t86.5 1v-553q43 37 98.5 55t129.5 18q66 0 114 -21.5t80.5 -70.5t49 -129t16.5 -196q0 -231 -39 -367.5t-99.5 -208.5t-133 -92t-138.5 -20q-170 0 -250 63zM272 160q14 -10 39 -19.5t62 -9.5q29 0 62.5 17.5t62 69.5t49 150.5 t20.5 260.5q0 170 -36.5 235.5t-108.5 65.5q-84 0 -150 -60v-710z" />
<glyph unicode="c" horiz-adv-x="665" d="M66 510q0 190 35.5 304t91 175.5t123 78.5t133.5 17q76 0 127 -26.5t51 -67.5q0 -18 -4.5 -43.5t-16.5 -52.5q-25 14 -65.5 26.5t-81.5 12.5q-39 0 -77 -13.5t-67.5 -57.5t-48 -128t-18.5 -225q0 -115 11 -186.5t34.5 -114.5t58.5 -60.5t84 -17.5q51 0 96.5 16.5 t71.5 32.5q10 -29 14.5 -50t4.5 -42q0 -43 -67 -75.5t-173 -32.5q-76 0 -134.5 18t-99 75.5t-62 162t-21.5 274.5z" />
<glyph unicode="d" horiz-adv-x="821" d="M68 494q0 158 25.5 270.5t70.5 184t104.5 104t126.5 32.5q96 0 152 -41v443q0 29 8 45t26.5 23.5t52.5 8.5t87 1v-1522q-53 -27 -129 -45t-176 -18q-72 0 -134.5 15t-110.5 68.5t-75.5 156t-27.5 274.5zM262 514q0 -121 10.5 -194.5t32 -115.5t50 -55.5t67.5 -13.5 q37 0 68.5 7.5t56.5 23.5v741q-20 16 -42 22.5t-56.5 6.5t-67.5 -17.5t-59.5 -63.5t-43 -129t-16.5 -212z" />
<glyph unicode="e" horiz-adv-x="768" d="M66 477q0 201 32.5 321t85 184.5t121 83.5t137.5 19q270 0 271 -342q0 -70 -5.5 -144.5t-17.5 -131.5q-55 -10 -116.5 -17.5t-123 -11.5t-114.5 -5t-90 -1q2 -84 15 -140t37 -88t59.5 -44.5t84.5 -12.5q66 0 127.5 17.5t116.5 48.5q8 -23 11 -57.5t3 -59.5 q0 -27 -23.5 -47t-63.5 -36.5t-93 -24.5t-112 -8q-76 0 -138.5 18t-107.5 72.5t-70.5 152.5t-25.5 254zM248 573h67q39 0 78 3.5t77 7.5t65 12q6 31 8 64.5t2 64.5q-2 115 -27.5 163t-93.5 48q-33 0 -62.5 -16.5t-54 -58.5t-40 -110.5t-19.5 -177.5z" />
<glyph unicode="f" horiz-adv-x="542" d="M25 918q0 51 2 80.5t6 44t12 18.5t25 4h102v127q0 125 33 200.5t85 115.5t115.5 53.5t124.5 13.5q98 0 148.5 -23.5t50.5 -64.5q0 -25 -4 -48.5t-16 -47.5q-37 16 -76 21t-76 5q-41 0 -80 -7t-67.5 -28.5t-47 -63.5t-18.5 -110v-143h193q0 -51 -1 -81t-4.5 -44t-10.5 -18 t-21 -4h-156v-883q0 -4 -5 -19.5t-28 -15.5h-139v918h-147z" />
<glyph unicode="g" horiz-adv-x="835" d="M47 -188q0 80 47 144t115 112q-61 18 -97 47q-34 27 -34 65q0 42 40 98q36 50 97 99q-74 49 -102.5 133t-28.5 186q0 106 25.5 181t71.5 121t111.5 66.5t143.5 20.5q23 0 51.5 -4t55.5 -12h256q6 -10 11 -31.5t5 -50.5q0 -68 -59 -67q-29 0 -76 10q35 -35 57.5 -92.5 t22.5 -137.5q0 -170 -80 -271t-264 -101q-59 0 -97 8q-20 -20 -37.5 -46t-17.5 -46q0 -16 19.5 -25.5t53.5 -15.5l80 -13.5t99 -13.5q63 -10 114.5 -25.5t88.5 -45t57.5 -71.5t20.5 -106q0 -70 -23.5 -132t-74 -110t-128 -77t-184 -29t-173.5 20.5t-104.5 54.5t-50 75 t-12.5 82zM225 -147q0 -25 8.5 -45.5t27 -36t54 -23.5t91.5 -8q57 0 97 15.5t66.5 40t40 53t13.5 55.5q0 37 -12.5 60.5t-40 38.5t-74.5 24.5t-117 13.5q-10 0 -18.5 1t-20.5 3q-45 -37 -80 -88t-35 -104zM266 700q0 -57 6.5 -102t23.5 -75.5t48 -46t80 -15.5q86 0 124 69.5 t38 210.5q0 117 -39 167t-117 50q-68 0 -116 -58.5t-48 -199.5z" />
<glyph unicode="h" horiz-adv-x="808" d="M96 0v1487q0 29 6.5 45t25.5 23.5t53 8.5t87 1v-561q49 43 112.5 62t127.5 19q68 0 111 -18t67.5 -54t33.5 -89.5t9 -118.5v-770q0 -14 -4 -21.5t-21.5 -10.5t-53.5 -3h-101v756q0 35 -4 66.5t-16.5 54t-37 36t-63.5 13.5q-37 0 -79 -12.5t-81 -47.5v-831q0 -14 -3 -21.5 t-19.5 -10.5t-50.5 -3h-99z" />
<glyph unicode="i" horiz-adv-x="372" d="M98 0v987q0 29 7.5 45.5t28 23.5t54 8t86.5 1v-1030q0 -14 -3 -21.5t-20.5 -10.5t-51.5 -3h-101zM100 1403q2 57 26 93t75 36q49 0 68 -28q16 -23 16 -74v-23q0 -66 -23.5 -101.5t-73.5 -35.5q-43 0 -65.5 29.5t-22.5 103.5z" />
<glyph unicode="j" horiz-adv-x="391" d="M-217 -305q0 25 5 48.5t19 41.5q74 -43 181 -43q80 0 103.5 48t23.5 161v1036q0 29 7 45.5t26.5 23.5t52 8t86.5 1v-1141q0 -72 -11.5 -133t-41 -108.5t-85 -74t-141.5 -26.5q-119 0 -172 31t-53 82zM111 1403q2 57 25.5 93t74.5 36q49 0 69 -28q16 -23 16 -74 q0 -11 -1 -23q0 -66 -23.5 -101.5t-72.5 -35.5q-43 0 -65.5 29.5t-22.5 103.5z" />
<glyph unicode="k" horiz-adv-x="811" d="M98 0v1487q0 29 7.5 45t27 23.5t53 8.5t86.5 1v-576q53 43 126 69.5t141 26.5q53 0 86.5 -14t55 -39.5t31 -58.5t9.5 -70q0 -66 -20.5 -120t-48 -96t-58.5 -70.5t-51 -43.5q78 -35 138 -124t73 -236q2 -16 2 -34v-36q0 -51 -6 -108q-2 -14 -5.5 -21.5t-23 -10.5t-56.5 -3 h-112q4 37 7 70.5t3 66.5q0 35 -4 65l-8 60q-18 127 -71 179q-42 42 -90 43q-11 0 -23 -3q-14 -4 -31 -10t-31 -12l-33 -19v-405q0 -14 -2 -21.5t-18 -10.5t-52 -3h-102zM272 565q111 43 183.5 110.5t72.5 168.5q0 86 -79 86q-41 0 -87.5 -24.5t-89.5 -76.5v-264z" />
<glyph unicode="l" horiz-adv-x="366" d="M98 0v1487q0 29 7.5 45t27 23.5t53 8.5t84.5 1v-1530q0 -14 -3 -21.5t-19.5 -10.5t-50.5 -3h-99z" />
<glyph unicode="m" horiz-adv-x="1198" d="M98 0v1016q70 33 151 51t171 18q68 0 115 -16t75 -49q57 31 127 48t135 17q80 0 128.5 -19t73 -58t31.5 -94.5t7 -127.5v-751q0 -14 -3 -21.5t-20.5 -10.5t-52.5 -3h-96v788q0 76 -20.5 111t-83.5 35q-37 0 -72 -9.5t-72 -31.5v-858q0 -14 -2 -21.5t-18.5 -10.5t-50.5 -3 h-101v829q-2 57 -21.5 82t-82.5 25q-76 0 -146 -37v-864q0 -14 -3 -21.5t-20.5 -10.5t-51.5 -3h-97z" />
<glyph unicode="n" horiz-adv-x="813" d="M96 0v1014q31 12 72 26.5t86 23.5t90 15t88 6q168 0 234.5 -64.5t66.5 -219.5v-766q0 -14 -3 -21.5t-20.5 -10.5t-53.5 -3h-103v750q0 102 -22.5 144t-104.5 42q-35 0 -78 -10.5t-80 -28.5v-862q0 -14 -3 -21.5t-20.5 -10.5t-50.5 -3h-98z" />
<glyph unicode="o" horiz-adv-x="782" d="M51 532q0 291 92.5 422t262.5 131q82 0 145 -24.5t103 -87t60.5 -168t20.5 -266.5q0 -297 -90 -428t-260 -131q-82 0 -144.5 18t-104.5 77.5t-63.5 169t-21.5 287.5zM238 528q0 -133 10 -211.5t29.5 -120.5t48 -56.5t63.5 -14.5t63.5 17.5t50 64.5t33 126t11.5 204 q0 127 -9.5 204.5t-27.5 120.5t-46 58.5t-67 15.5q-35 0 -63.5 -17.5t-50 -62.5t-33.5 -125t-12 -203z" />
<glyph unicode="p" horiz-adv-x="815" d="M98 -344v1345q133 84 312 84q78 0 142 -19t109.5 -69.5t70 -136.5t24.5 -217q0 -215 -29 -346t-76 -201.5t-103 -93t-110 -22.5q-59 0 -101 17t-67 42v-445q-20 -8 -43.5 -11t-46.5 -3q-43 0 -62.5 16.5t-19.5 59.5zM270 205q25 -37 54.5 -53.5t60.5 -16.5 q27 0 57.5 13.5t57 64.5t46 148.5t19.5 263.5q0 96 -11 155.5t-31.5 94t-51.5 48t-70 13.5q-74 0 -131 -41v-690z" />
<glyph unicode="q" horiz-adv-x="829" d="M66 465q0 176 34.5 296t94 191.5t139.5 102t168 30.5q76 0 128 -15t101 -50v-1368q0 -25 -3 -39t-15.5 -21.5t-33 -10.5t-50.5 -3q-39 0 -74 6v488q-63 -92 -201 -92q-51 0 -102 16t-93 68.5t-67.5 147.5t-25.5 253zM262 469q0 -109 13.5 -175.5t36 -102t50 -49 t56.5 -13.5q43 0 80 26.5t57 82.5v667q-33 31 -96 31q-47 0 -84 -23.5t-62.5 -79t-38 -145.5t-12.5 -219z" />
<glyph unicode="r" horiz-adv-x="559" d="M96 0v991q61 41 136 67.5t153 26.5q82 0 116 -22.5t34 -65.5q0 -18 -4.5 -46.5t-14.5 -55.5q-49 25 -102 25q-37 0 -74 -11.5t-68 -38.5l-2 -835q0 -14 -3 -21.5t-19.5 -10.5t-51.5 -3h-100z" />
<glyph unicode="s" horiz-adv-x="733" d="M63 88q0 18 6.5 44t24.5 56q90 -53 213 -53q80 0 126 34t46 97q0 43 -18.5 83t-67.5 83l-205 176q-74 61 -98 117.5t-24 110.5q0 111 83.5 180t264.5 69q82 0 134 -12t81.5 -30.5t41 -40t11.5 -35.5q0 -45 -39 -86q-92 55 -209 55q-74 0 -121 -26.5t-47 -75.5 q0 -31 15.5 -60t70.5 -74l197 -159q70 -68 98.5 -126.5t28.5 -140.5q0 -143 -94.5 -218.5t-257.5 -75.5q-115 0 -188 26.5t-73 81.5z" />
<glyph unicode="t" horiz-adv-x="618" d="M39 915q0 49 1 79t4 46.5t11 20.5t21 4h106v324q0 20 8.5 33.5t27 18.5t53 6t87.5 1v-383h217q0 -51 -1 -80t-4 -45t-10 -20.5t-19 -4.5h-183v-618q0 -35 1 -65.5t8.5 -53t23 -37t43.5 -14.5q37 0 64.5 8t58.5 25q6 -16 10 -38t4 -48q0 -29 -17 -47.5t-44 -28.5 t-58.5 -14t-64.5 -4q-68 0 -108.5 21.5t-61 63t-28 100t-7.5 132.5v618h-143z" />
<glyph unicode="u" horiz-adv-x="829" d="M94 332v696q0 14 3 21.5t18.5 10.5t52.5 4t104 1v-748q0 -104 28 -146t116 -42q29 0 68.5 8t72.5 31v860q0 14 4 21.5t19.5 10.5t51.5 4t99 1v-1010q-61 -35 -146 -55t-171 -20q-96 0 -157.5 20t-98.5 65.5t-50.5 112t-13.5 154.5z" />
<glyph unicode="v" horiz-adv-x="731" d="M56 1059q17 4 57.5 5t109.5 1l68 -340q18 -84 33 -179l26 -175l25 -187h4q10 94 24 189q10 82 23.5 175t32.5 179l57 299q2 16 6 23.5t22.5 10.5t53.5 4t100 1l-243 -1071q-25 -4 -63 -5t-60 -1q-29 0 -47.5 29.5t-28.5 74.5l-217 920q-3 12 -3 22q0 20 20 25z" />
<glyph unicode="w" horiz-adv-x="1148" d="M33 1028q-2 14 2 21.5t22.5 10.5t57.5 4t106 1l64 -348q18 -88 30 -180l23 -166q12 -88 22 -170h13q4 27 10 72.5t14 100.5l17 110q8 56 18 106l66 409q4 23 14 29t43 6h115l82 -446l24 -129l23 -125q10 -68 18 -133h12q2 47 10 109l15 133q8 71 19 141l22 133l55 309 q2 16 6.5 23.5t20.5 10.5t50 4t93 1l-112 -537l-41 -197l-37 -171l-27 -120q-10 -46 -12 -46q-10 -2 -29 -4q-14 -2 -35 -2h-47q-25 0 -53.5 26.5t-38.5 83.5l-29 144l-24 137q-12 72 -22.5 142.5t-17.5 135t-11 111.5q-6 -47 -13.5 -112.5t-17.5 -136t-21.5 -141.5 t-23.5 -136l-49 -248l-51 -4q-25 -2 -50 -2h-45q-31 0 -47 29.5t-28 74.5l-25 115l-32 140l-35 155l-33 155z" />
<glyph unicode="x" horiz-adv-x="872" d="M33 0l299 555l-258 481q-6 12 -5 17.5t18 8.5t56 3h113l78 -145q16 -29 33 -65l31 -69l28 -61l20 -47q10 18 23 46l29 61l32 69q16 35 35 66l64 114q6 12 11 18.5t23.5 9.5t54.5 3h103l-272 -498l285 -526q7 -22 7 -26q0 -7 -18 -11t-60 -4h-122l-78 139q-20 33 -40 73 l-38 78l-34 72q-16 35 -27 62q-10 -27 -27 -62l-32 -72q-16 -38 -36 -78t-40 -73l-60 -104q-6 -14 -14 -21.5t-29.5 -10.5t-57.5 -3h-95z" />
<glyph unicode="y" horiz-adv-x="757" d="M-8 -328q0 23 6 51.5t18 47.5q23 -16 61 -25.5t75 -9.5q49 0 90 49t65 180l-256 1053q-4 16 -4 26.5t15.5 14.5t52.5 5t104 1l115 -508q14 -59 23.5 -120.5t16.5 -115t11 -91t6 -50.5q0 8 5 45t11.5 90.5t15.5 118t19 127.5l95 453q2 18 7 29.5t23.5 15.5t54 5t103.5 1 l-262 -1122q-25 -102 -52.5 -170t-62.5 -109t-81 -58.5t-103 -17.5q-96 0 -134 23.5t-38 60.5z" />
<glyph unicode="z" horiz-adv-x="710" d="M43 86q0 33 14 66l414 766h-217q-61 0 -110.5 -3.5t-84.5 -7.5q-4 31 -5 50.5t-1 33.5q0 74 56 74h540q4 -4 8 -12q4 -6 8.5 -17.5t4.5 -23.5q0 -14 -5.5 -35t-17.5 -51l-399 -766h186q90 0 141.5 7t81.5 15q4 -14 5.5 -37.5t1.5 -38.5q-2 -55 -14.5 -80.5t-55.5 -25.5 h-522q-8 6 -15 18q-14 23 -14 68z" />
<glyph unicode="{" horiz-adv-x="587" d="M88 625q0 29 9 51t26 35l38 26q17 12 30.5 33t20.5 53.5t7 85.5q0 115 -14.5 221.5t-14.5 202.5q0 66 24 114t68 77.5t104 45t134 15.5q16 -25 23.5 -53.5t7.5 -52.5q0 -55 -29 -62q-78 -8 -116.5 -48t-38.5 -124q0 -78 10 -176t10 -213q0 -104 -31.5 -149t-83.5 -68 q55 -20 85 -63.5t30 -139.5q0 -115 -10 -210t-10 -179q0 -61 10 -99t31.5 -60.5t53.5 -32t75 -15.5q6 -43 6 -65q0 -43 -14.5 -68.5t-45.5 -25.5q-160 0 -226.5 72.5t-66.5 213.5q0 55 4.5 105.5t10.5 100.5t10 102.5t4 111.5q0 86 -30.5 121t-88.5 45q-8 18 -10 37t-2 35z " />
<glyph unicode="|" horiz-adv-x="686" d="M258 -426v2116q0 16 3 25t19.5 14.5t52.5 6.5t99 1v-2120q0 -18 -3 -26.5t-20.5 -11.5t-52.5 -4t-98 -1z" />
<glyph unicode="}" horiz-adv-x="587" d="M39 -211q0 53 31 59q76 6 114.5 47.5t38.5 122.5q0 80 -10 176.5t-10 213.5q0 106 30.5 151t81.5 68q-53 20 -82.5 63t-29.5 139q0 115 10 209.5t10 180.5q0 59 -10 97t-32.5 60.5t-54.5 32.5t-73 16q-8 35 -8 66q0 43 16.5 68.5t47.5 25.5q160 0 226 -73.5t66 -215.5 q0 -55 -5 -105t-11 -99.5t-10 -101.5t-4 -113q0 -84 29.5 -119t86.5 -47q14 -35 15 -70q0 -61 -37 -86q-20 -12 -36.5 -25.5t-30 -35t-20.5 -54t-7 -84.5q0 -115 15 -221t15 -203q0 -70 -24.5 -115.5t-68.5 -76.5t-104.5 -45t-133.5 -14q-16 23 -23.5 52t-7.5 56z" />
<glyph unicode="~" horiz-adv-x="851" d="M23 567q14 21 40.5 45.5t62.5 44t80 31.5t93 12q53 0 87 -13t60.5 -31.5t55 -33t74 -14.5t84 22.5t65.5 53.5q39 25 71.5 -7t37.5 -89q-16 -20 -42 -45t-60 -45.5t-78 -33.5t-93 -13q-59 0 -94 15t-63.5 32.5t-55 32t-67.5 14.5q-31 0 -56.5 -11.5t-48.5 -26.5l-42 -28 q-19 -12 -36 -14q-31 -2 -50 25.5t-25 76.5z" />
<glyph unicode="&#xa2;" d="M176 485q0 156 22.5 262.5t61.5 174t87 102.5t104 49v187q0 43 40.5 57t116.5 14v-250q51 -10 89 -30.5t38 -38.5q0 -4 -1 -18.5t-2 -32t-5 -39t-12 -35.5q-27 16 -61.5 26.5t-80.5 10.5q-41 0 -79.5 -12.5t-71.5 -56.5t-52.5 -130t-19.5 -233q0 -123 11.5 -194 t36 -105.5t61.5 -44t88 -9.5q43 0 90 14.5t76 34.5q10 -25 14 -57.5t4 -52.5q0 -29 -51 -59.5t-119 -36.5v-197q0 -45 -40 -56.5t-118 -11.5v271q-53 8 -96 32.5t-71.5 80t-44 147.5t-15.5 237z" />
<glyph unicode="&#xa3;" horiz-adv-x="778" d="M33 590q0 82 4 116.5t29 34.5h98q4 147 29.5 246.5t70.5 163t105.5 90.5t138.5 27q82 0 145.5 -28t63.5 -85q0 -31 -5 -54.5t-16 -51.5q-37 23 -71.5 34t-79.5 11t-82 -15.5t-64.5 -53.5t-44 -106.5t-18.5 -177.5h278q0 -82 -5 -116.5t-29 -34.5h-244q0 -115 4 -216.5 t14 -201.5l332 -14q8 -20 10 -41t2 -39q0 -41 -31.5 -59.5t-76.5 -18.5h-402q-12 147 -17 298t-7 292h-131z" />
<glyph unicode="&#xa5;" d="M83 1488q19 3 60 3h117l82 -291l34 -113l33 -118q15 -57 24 -104.5t11 -69.5q2 23 14 69l25 105q14 57 33 118l35 113l80 258q4 14 8 20.5t22.5 9.5t54.5 3h101l-201 -621h189q0 -78 -10.5 -110.5t-55.5 -32.5h-172l-37 -113v-94h277q0 -80 -11.5 -112.5t-56.5 -32.5 h-209v-340q0 -14 -2 -21.5t-18 -10.5t-51 -3h-101v375h-276q0 80 11 112.5t57 32.5h208v82l-43 125h-233q0 78 11 110.5t57 32.5h116l-203 592q-3 8 -2 13q0 9 22 13z" />
<glyph unicode="&#xa8;" horiz-adv-x="512" d="M0 1362q0 41 27.5 74.5t76.5 33.5q57 0 82 -30.5t25 -77.5t-28.5 -78t-78.5 -31q-57 0 -80.5 29t-23.5 80zM305 1362q0 41 26.5 74.5t76.5 33.5q57 0 81.5 -30.5t24.5 -77.5t-27.5 -78t-78.5 -31q-57 0 -80 29t-23 80z" />
<glyph unicode="&#xa9;" horiz-adv-x="1003" d="M74 1153q0 242 116.5 353.5t325.5 111.5q104 0 182 -24.5t128.5 -79t76 -142.5t25.5 -215q0 -231 -109.5 -353t-320.5 -122q-104 0 -184.5 24.5t-133.5 81t-79.5 145.5t-26.5 220zM207 1153q0 -98 19.5 -164.5t55 -106.5t90 -57.5t122.5 -17.5q63 0 118.5 19.5t96.5 60.5 t64.5 108.5t23.5 163.5q0 180 -71 260t-212 80q-70 0 -126 -18.5t-96 -58.5t-62.5 -106.5t-22.5 -162.5zM334 1130q0 98 18.5 155.5t47 87.5t63.5 40t67.5 10t64.5 -12t32 -22.5t-4.5 -34t-8.5 -33.5q-18 4 -33.5 9t-39.5 5q-18 0 -38 -5t-34 -26.5t-24.5 -62.5t-10.5 -113 q0 -53 6 -83.5t18.5 -47t29 -20.5t40.5 -4q18 0 41 8l39 14q8 -14 12.5 -34.5t4.5 -26.5q0 -18 -35 -31.5t-72 -13.5q-47 0 -81 7t-56.5 32.5t-34.5 73.5t-12 128z" />
<glyph unicode="&#xab;" horiz-adv-x="884" d="M39 537q0 12 12 41.5t35 70.5l49 87q27 46 58 93q68 109 155 236q25 0 44.5 -14.5t31.5 -30.5q14 -18 27 -43q0 -14 -10.5 -42t-28.5 -61l-40 -71q-22 -39 -46 -76l-125 -190l127 -189l47 -77l41 -71q18 -34 29.5 -59.5t11.5 -40.5q-12 -29 -27 -51q-12 -18 -32.5 -33.5 t-43.5 -15.5q-88 127 -157 238q-31 47 -59 94l-50 88q-23 41 -36 72t-13 45zM406 535q0 12 12 39.5t35 64.5l49 78l55 84l154 215q25 0 44 -12.5t31 -28.5q14 -18 25 -39q0 -31 -38 -96.5t-83 -134.5l-121 -170l123 -166q47 -66 85 -130.5t38 -91.5q-10 -27 -24 -47 q-12 -16 -31 -31.5t-43 -15.5l-156 213q-31 41 -58 83l-50 79q-23 37 -35 65t-12 42z" />
<glyph unicode="&#xad;" horiz-adv-x="591" d="M78 524q0 80 5 116t30 36h401q0 -82 -5 -117t-32 -35h-399z" />
<glyph unicode="&#xae;" horiz-adv-x="1003" d="M74 1153q0 242 116.5 353.5t325.5 111.5q104 0 182 -24.5t128.5 -79t76 -142.5t25.5 -215q0 -231 -109.5 -353t-320.5 -122q-104 0 -184.5 24.5t-133.5 81t-79.5 145.5t-26.5 220zM207 1153q0 -98 19.5 -164.5t55 -106.5t90 -57.5t122.5 -17.5q63 0 118.5 19.5t96.5 60.5 t64.5 108.5t23.5 163.5q0 180 -71 260t-212 80q-70 0 -126 -18.5t-96 -58.5t-62.5 -106.5t-22.5 -162.5zM375 889v528q0 2 2 4l4 4q2 2 8 2h94q90 0 131 -40.5t41 -114.5q0 -53 -19.5 -88t-51.5 -58q23 -20 50.5 -71t37.5 -148q0 -10 -6.5 -15t-28.5 -5h-26q-17 0 -27 2 q-8 104 -33 150t-43 63h-51v-197q0 -12 -13.5 -14t-68.5 -2zM457 1174h32q39 0 60.5 24.5t21.5 79.5q0 37 -17 57.5t-60 20.5h-37v-182z" />
<glyph unicode="&#xb4;" horiz-adv-x="362" d="M0 1311l83 84q46 45 89 80.5t75 59.5t38 24q16 0 29.5 -12.5t23.5 -33t17 -43t10 -40.5q-12 -14 -52 -46l-85 -64l-90 -64q-44 -30 -72 -44q-14 0 -25.5 14.5t-22 35t-18.5 49.5z" />
<glyph unicode="&#xb8;" horiz-adv-x="288" d="M0 -414l8 39l8 30q4 15 13 19q10 10 34.5 -6t57.5 -16q70 0 69 74q0 41 -17 55t-48 14q-20 0 -36.5 -2t-27.5 -4q-12 -2 -22 -4l39 219h96l-24 -127h34q39 0 72 -30.5t33 -106.5q0 -82 -47 -130t-123 -48q-25 0 -46.5 4t-37.5 8q-21 6 -35 12z" />
<glyph unicode="&#xbb;" horiz-adv-x="880" d="M68 147.5q0 28.5 38.5 92t86.5 129.5l122 163q2 0 -14 25l-43 61l-58 84q-32 47 -59.5 92.5t-47 82t-19.5 59t15 39t32 26.5q23 12 47 21l154 -217l57 -85q29 -42 49 -80l35 -67q14 -29 14 -41q0 -14 -14 -42.5t-35.5 -66.5t-49.5 -80t-59 -83q-70 -100 -157 -213 q-25 8 -47 23q-16 12 -31.5 30.5t-15.5 47zM426 100q0 14 10 40t28.5 59.5t42.5 71.5l46 77q55 86 129 189q-72 102 -127 190l-46 76q-24 39 -41 71.5t-27.5 60.5t-10.5 42q0 25 16.5 40t34.5 27q23 12 54 21l153 -236q27 -47 56.5 -93t50.5 -87l34 -70q14 -30 15 -42 q0 -14 -14.5 -45t-36.5 -72l-51 -88l-56 -94q-70 -111 -158 -238q-29 8 -51 23q-18 12 -34.5 30t-16.5 47z" />
<glyph unicode="&#x131;" horiz-adv-x="372" d="M98 0v987q0 29 7.5 45.5t28 23.5t54 8t86.5 1v-1030q0 -14 -3 -21.5t-20.5 -10.5t-51.5 -3h-101z" />
<glyph unicode="&#x237;" horiz-adv-x="391" d="M-217 -305q0 25 5 48.5t19 41.5q74 -43 181 -43q80 0 103.5 48t23.5 161v1036q0 29 7 45.5t26.5 23.5t52 8t86.5 1v-1141q0 -72 -11.5 -133t-41 -108.5t-85 -74t-141.5 -26.5q-119 0 -172 31t-53 82z" />
<glyph unicode="&#x2c6;" horiz-adv-x="536" d="M0 1268l242 262q12 6 34 6q29 0 54 -27q57 -57 102 -108q39 -41 72 -82t33 -53q0 -25 -38 -38.5t-85 -13.5q-33 33 -60 64q-25 25 -47 53.5t-33 48.5l-65 -84l-54 -54q-26 -26 -40 -25q-45 0 -73 13t-42 38z" />
<glyph unicode="&#x2d9;" horiz-adv-x="186" d="M0 1403q2 57 25.5 93t74.5 36q49 0 68.5 -27.5t15.5 -97.5q0 -66 -23.5 -101.5t-72.5 -35.5q-43 0 -65.5 29.5t-22.5 103.5z" />
<glyph unicode="&#x2da;" horiz-adv-x="409" d="M0 1403q0 109 56.5 159t156.5 50q102 0 150.5 -43t48.5 -164q0 -104 -54.5 -156.5t-156.5 -52.5q-98 0 -149.5 44t-51.5 163zM123 1401q0 -86 80 -86q41 0 63.5 20.5t22.5 69.5q0 88 -74 88q-43 0 -67.5 -21.5t-24.5 -70.5z" />
<glyph unicode="&#x2dc;" horiz-adv-x="624" d="M0 1329q55 90 118.5 125t123.5 35q33 0 54 -16.5t39.5 -34t38 -33.5t52.5 -16q39 0 60.5 13t33.5 27.5t21.5 27.5t23.5 13q12 0 23.5 -16t19.5 -33q10 -23 19 -47q-4 -8 -22.5 -32.5t-49.5 -51t-72 -47t-90 -20.5q-41 0 -64.5 16t-40.5 35l-34 35q-16 16 -45 16 t-47.5 -13.5t-32.5 -28.5t-24.5 -28.5t-20.5 -13.5q-18 0 -33.5 13.5t-27.5 29.5q-13 18 -23 45z" />
<glyph unicode="&#x3c0;" horiz-adv-x="931" d="M63 973q0 35 11.5 63.5t44.5 28.5h735q6 -16 10 -35.5t4 -40.5q0 -37 -15 -62.5t-46 -25.5h-57v-848q0 -37 -33 -49t-64 -12q-16 0 -35.5 2t-42.5 8v899h-231v-848q0 -37 -31.5 -49t-64.5 -12q-20 0 -39 2t-37 8v899h-96q-4 14 -8.5 31.5t-4.5 40.5z" />
<glyph unicode="&#x410;" horiz-adv-x="929" d="M10 2l379 1466q6 29 68 29q47 0 80 -6l381 -1458q4 -18 -9.5 -27.5t-64.5 -9.5h-45q-25 0 -58 4l-92 379h-366l-82 -348q-4 -18 -17.5 -26.5t-64.5 -8.5q-16 0 -47 1t-62 5zM319 537h295l-73 303l-25 108q-12 55 -21.5 109.5t-16.5 103.5t-11 86q-4 -37 -13 -86l-19 -102 l-19 -110q-10 -56 -25 -109z" />
<glyph unicode="&#x412;" horiz-adv-x="800" d="M92 0v1450q0 20 11.5 30.5t46.5 10.5h210q63 0 127 -12.5t115 -49t83 -101t32 -167.5q0 -88 -18.5 -150.5t-48 -104.5t-66.5 -63.5t-70 -25.5q35 -2 79 -14t82 -46t63.5 -94.5t25.5 -154.5q0 -135 -32 -231.5t-87 -158t-129 -90t-156 -28.5h-268zM268 152h97 q41 0 75.5 19t62 60t44 105.5t16.5 155.5q0 84 -15.5 132t-41 72.5t-61 30.5t-78.5 6h-99v-581zM268 883h105q68 0 111.5 58t43.5 185q0 66 -13 107t-34.5 64.5t-50.5 31.5t-59 8h-103v-454z" />
<glyph unicode="&#x415;" horiz-adv-x="679" d="M94 0v1454q0 8 4 19q4 6 11.5 12t19.5 6h510v-84q0 -31 -3 -47.5t-9 -20.5t-21 -4h-338v-444h320v-81q0 -32 -3 -49.5t-9.5 -23.5t-20.5 -6h-287v-575h365q0 -55 -1 -86t-4 -46.5t-10.5 -19.5t-19.5 -4h-504z" />
<glyph unicode="&#x41a;" horiz-adv-x="835" d="M90 0v1454q0 14 3 21.5t18.5 10.5t51.5 4t101 1v-643l338 633q31 6 59.5 9t51.5 3q77 0 76 -32q0 -8 -5 -19l-344 -594q129 -96 214 -300t128 -509q2 -25 -12 -34t-59 -9q-57 0 -121 6q-47 250 -98.5 414t-139.5 262q-20 18 -42.5 32.5t-45.5 24.5v-700q0 -14 -3 -21.5 t-19.5 -10.5t-51.5 -3h-100z" />
<glyph unicode="&#x41c;" horiz-adv-x="1040" d="M92 0v1454q0 27 10.5 32t24.5 5h127l203 -643q8 -33 19 -71l22 -74l17 -61q7 -26 9 -34q0 2 6.5 29l15.5 62l19 74q10 38 21 69l188 612q4 18 10.5 27.5t22.5 9.5h141v-1456q0 -14 -3 -21.5t-19.5 -10.5t-52.5 -3h-103l8 518q2 76 7.5 174.5t11.5 190.5l11 165q5 73 7 99 l-38 -136l-41 -145l-35 -124q-15 -54 -21 -72l-113 -326q-4 -10 -11 -13t-13 -3h-74l-111 342q-6 16 -22 70l-37 125l-42 147q-22 76 -38 139v-2l19 -227q10 -94 15 -203t7 -193l4 -491q0 -14 -4 -21.5t-21.5 -10.5t-52.5 -3h-94z" />
<glyph unicode="&#x41d;" horiz-adv-x="870" d="M94 0v1454q0 14 2 21.5t17.5 10.5t51.5 4t101 1v-606h338v569q0 14 2 21.5t18.5 10.5t51.5 4t102 1v-1456q0 -14 -2 -21.5t-18.5 -10.5t-50.5 -3h-103v725h-338v-690q0 -14 -2 -21.5t-18.5 -10.5t-50.5 -3h-101z" />
<glyph unicode="&#x41e;" horiz-adv-x="911" d="M63 754q0 213 25 358t76 233.5t128 126t179 37.5q104 0 177 -35.5t117 -121.5t64.5 -231.5t20.5 -360.5q0 -219 -23.5 -367.5t-72.5 -241t-126 -131t-182 -38.5q-102 0 -174.5 33.5t-119 121.5t-68 238t-21.5 379zM258 711q0 -147 9 -252t33 -172.5t60.5 -98t96.5 -30.5 q57 0 96 31.5t63.5 104.5t35 185.5t10.5 276.5q0 160 -9.5 269.5t-32 179t-59.5 99t-94 29.5q-55 0 -95 -32.5t-65.5 -106.5t-37 -191.5t-11.5 -291.5z" />
<glyph unicode="&#x420;" horiz-adv-x="765" d="M92 0v1454q0 37 35 37h211q203 0 298 -99.5t95 -322.5q0 -131 -30.5 -220t-85 -143.5t-126 -78t-151.5 -23.5h-74v-569q0 -14 -3 -21.5t-19.5 -10.5t-51.5 -3h-98zM264 764h94q88 0 134.5 73.5t46.5 249.5q0 115 -37 183.5t-131 68.5h-107v-575z" />
<glyph unicode="&#x421;" horiz-adv-x="720" d="M66 684q0 272 39.5 437t100 253t135.5 112.5t144 24.5q59 0 98.5 -10t62 -27.5t31.5 -37t9 -41.5q0 -29 -8 -56.5t-21 -48.5q-16 16 -52 34.5t-85 18.5q-51 0 -99 -23.5t-86 -91t-61.5 -196.5t-23.5 -340q0 -162 15.5 -265t43 -161.5t67.5 -77t87 -18.5q61 0 113.5 21.5 t80.5 44.5q12 -20 19.5 -48t7.5 -57q0 -61 -72.5 -106t-191.5 -45q-19 -2 -38 -3q-56 0 -103 19q-63 25 -111.5 99.5t-75 215t-26.5 373.5z" />
<glyph unicode="&#x422;" horiz-adv-x="792" d="M16 1329v125q0 37 37 37h725v-127q0 -35 -37 -35h-262v-1294q0 -14 -3 -21.5t-19.5 -10.5t-50.5 -3h-99v1329h-291z" />
<glyph unicode="&#x425;" horiz-adv-x="901" d="M18 0l324 770l-266 690q-4 12 -1 18.5t23.5 9.5t63.5 3h119l86 -242q35 -90 61.5 -176t42.5 -143l43 140q27 87 64 179l79 213q2 12 7.5 17.5t23 8.5t53.5 3h105l-275 -707l303 -753q6 -11 7 -18q0 -13 -23 -13h-188l-117 287l-63 170l-50 141q-18 -55 -49 -139t-67 -172 l-115 -267q-12 -20 -41 -20h-150z" />
<glyph unicode="&#x430;" horiz-adv-x="753" d="M61 303q0 111 25 178.5t64.5 106.5t90 51t103.5 12q37 0 81 -5t75 -21v168q0 74 -34 99.5t-97 25.5q-82 0 -158 -13.5t-123 -34.5q-16 27 -20.5 53.5t-4.5 45t5.5 34t19.5 25.5q27 18 114 37.5t210 19.5q137 0 200.5 -57t63.5 -201v-114v-184q0 -93 -2 -179 q-2 -87 -4 -163q-2 -77 -8 -136q-41 -27 -116 -49t-179 -22q-57 0 -112.5 8t-98.5 41.5t-69 99t-26 174.5zM244 307q0 -57 9 -94t27.5 -56.5t44 -26.5t56.5 -7q37 0 67.5 11t45.5 26q2 25 3 66l2 89q1 47 1 97v90q-20 12 -48 16t-51 4q-33 0 -61.5 -7t-50 -30.5t-33.5 -65.5 t-12 -112z" />
<glyph unicode="&#x435;" horiz-adv-x="768" d="M66 477q0 201 32.5 321t85 184.5t121 83.5t137.5 19q270 0 271 -342q0 -70 -5.5 -144.5t-17.5 -131.5q-55 -10 -116.5 -17.5t-123 -11.5t-114.5 -5t-90 -1q2 -84 15 -140t37 -88t59.5 -44.5t84.5 -12.5q66 0 127.5 17.5t116.5 48.5q8 -23 11 -57.5t3 -59.5 q0 -27 -23.5 -47t-63.5 -36.5t-93 -24.5t-112 -8q-76 0 -138.5 18t-107.5 72.5t-70.5 152.5t-25.5 254zM248 573h67q39 0 78 3.5t77 7.5t65 12q6 31 8 64.5t2 64.5q-2 115 -27.5 163t-93.5 48q-33 0 -62.5 -16.5t-54 -58.5t-40 -110.5t-19.5 -177.5z" />
<glyph unicode="&#x43e;" horiz-adv-x="782" d="M51 532q0 291 92.5 422t262.5 131q82 0 145 -24.5t103 -87t60.5 -168t20.5 -266.5q0 -297 -90 -428t-260 -131q-82 0 -144.5 18t-104.5 77.5t-63.5 169t-21.5 287.5zM238 528q0 -133 10 -211.5t29.5 -120.5t48 -56.5t63.5 -14.5t63.5 17.5t50 64.5t33 126t11.5 204 q0 127 -9.5 204.5t-27.5 120.5t-46 58.5t-67 15.5q-35 0 -63.5 -17.5t-50 -62.5t-33.5 -125t-12 -203z" />
<glyph unicode="&#x43f;" horiz-adv-x="931" d="M63 973q0 35 11.5 63.5t44.5 28.5h735q6 -16 10 -35.5t4 -40.5q0 -37 -15 -62.5t-46 -25.5h-57v-848q0 -37 -33 -49t-64 -12q-16 0 -35.5 2t-42.5 8v899h-231v-848q0 -37 -31.5 -49t-64.5 -12q-20 0 -39 2t-37 8v899h-96q-4 14 -8.5 31.5t-4.5 40.5z" />
<glyph unicode="&#x440;" horiz-adv-x="815" d="M98 -344v1345q133 84 312 84q78 0 142 -19t109.5 -69.5t70 -136.5t24.5 -217q0 -215 -29 -346t-76 -201.5t-103 -93t-110 -22.5q-59 0 -101 17t-67 42v-445q-20 -8 -43.5 -11t-46.5 -3q-43 0 -62.5 16.5t-19.5 59.5zM270 205q25 -37 54.5 -53.5t60.5 -16.5 q27 0 57.5 13.5t57 64.5t46 148.5t19.5 263.5q0 96 -11 155.5t-31.5 94t-51.5 48t-70 13.5q-74 0 -131 -41v-690z" />
<glyph unicode="&#x441;" horiz-adv-x="665" d="M66 510q0 190 35.5 304t91 175.5t123 78.5t133.5 17q76 0 127 -26.5t51 -67.5q0 -18 -4.5 -43.5t-16.5 -52.5q-25 14 -65.5 26.5t-81.5 12.5q-39 0 -77 -13.5t-67.5 -57.5t-48 -128t-18.5 -225q0 -115 11 -186.5t34.5 -114.5t58.5 -60.5t84 -17.5q51 0 96.5 16.5 t71.5 32.5q10 -29 14.5 -50t4.5 -42q0 -43 -67 -75.5t-173 -32.5q-76 0 -134.5 18t-99 75.5t-62 162t-21.5 274.5z" />
<glyph unicode="&#x443;" horiz-adv-x="757" d="M-8 -328q0 23 6 51.5t18 47.5q23 -16 61 -25.5t75 -9.5q49 0 90 49t65 180l-256 1053q-4 16 -4 26.5t15.5 14.5t52.5 5t104 1l115 -508q14 -59 23.5 -120.5t16.5 -115t11 -91t6 -50.5q0 8 5 45t11.5 90.5t15.5 118t19 127.5l95 453q2 18 7 29.5t23.5 15.5t54 5t103.5 1 l-262 -1122q-25 -102 -52.5 -170t-62.5 -109t-81 -58.5t-103 -17.5q-96 0 -134 23.5t-38 60.5z" />
<glyph unicode="&#x445;" horiz-adv-x="872" d="M33 0l299 555l-258 481q-6 12 -5 17.5t18 8.5t56 3h113l78 -145q16 -29 33 -65l31 -69l28 -61l20 -47q10 18 23 46l29 61l32 69q16 35 35 66l64 114q6 12 11 18.5t23.5 9.5t54.5 3h103l-272 -498l285 -526q7 -22 7 -26q0 -7 -18 -11t-60 -4h-122l-78 139q-20 33 -40 73 l-38 78l-34 72q-16 35 -27 62q-10 -27 -27 -62l-32 -72q-16 -38 -36 -78t-40 -73l-60 -104q-6 -14 -14 -21.5t-29.5 -10.5t-57.5 -3h-95z" />
<glyph unicode="&#x2010;" horiz-adv-x="591" d="M78 524q0 80 5 116t30 36h401q0 -82 -5 -117t-32 -35h-399z" />
<glyph unicode="&#x2011;" horiz-adv-x="591" d="M78 524q0 80 5 116t30 36h401q0 -82 -5 -117t-32 -35h-399z" />
<glyph unicode="&#x2012;" horiz-adv-x="591" d="M78 524q0 80 5 116t30 36h401q0 -82 -5 -117t-32 -35h-399z" />
<glyph unicode="&#x2013;" horiz-adv-x="901" d="M78 524q0 80 5 116t30 36h710q0 -82 -4 -117t-31 -35h-710z" />
<glyph unicode="&#x2014;" horiz-adv-x="1490" d="M12 524q0 80 4 116t31 36h1432q0 -82 -4.5 -117t-32.5 -35h-1430z" />
<glyph unicode="&#x2018;" horiz-adv-x="372" d="M72 1350q0 57 19.5 119.5t46 111.5t53 81t40.5 32q25 0 42.5 -11.5t27.5 -37.5q-35 -61 -42 -109.5t-11 -95.5q49 -31 49 -105q0 -47 -30.5 -78.5t-78.5 -31.5q-116 0 -116 125z" />
<glyph unicode="&#x2019;" horiz-adv-x="372" d="M72 1268q35 61 42 110t11 95q-49 29 -49 104q0 49 30.5 80t75.5 31q119 0 119 -127q0 -57 -19.5 -119t-46 -111t-53 -80.5t-41.5 -31.5q-25 0 -44 10t-25 39z" />
<glyph unicode="&#x201a;" horiz-adv-x="362" d="M72 -195q35 63 42 110.5t11 94.5q-49 31 -49 105q0 47 30.5 78.5t75.5 31.5q119 0 119 -125q0 -59 -19.5 -120.5t-46 -110.5t-53 -81t-41.5 -32q-25 0 -44 11t-25 38z" />
<glyph unicode="&#x201c;" horiz-adv-x="692" d="M72 1350q0 57 19.5 119.5t46 111.5t53 81t40.5 32q25 0 42.5 -11.5t27.5 -37.5q-35 -61 -42 -109.5t-11 -95.5q49 -31 49 -105q0 -47 -30.5 -78.5t-78.5 -31.5q-116 0 -116 125zM391 1350q0 57 19.5 119.5t46 111.5t53.5 81t41 32q25 0 44 -11.5t26 -37.5 q-35 -61 -42.5 -109.5t-11.5 -95.5q49 -31 49 -105q0 -47 -30.5 -78.5t-75.5 -31.5q-119 0 -119 125z" />
<glyph unicode="&#x201d;" horiz-adv-x="692" d="M72 1268q35 61 42 110t11 95q-49 29 -49 104q0 49 30.5 80t75.5 31q119 0 119 -127q0 -57 -19.5 -119t-46 -111t-53 -80.5t-41.5 -31.5q-25 0 -44 10t-25 39zM393 1268q33 61 40 110t11 95q-49 29 -49 104q0 49 31 80t78 31q119 0 119 -127q0 -57 -19.5 -119t-46.5 -111 t-54.5 -80.5t-41.5 -31.5q-25 0 -42.5 10t-25.5 39z" />
<glyph unicode="&#x201e;" horiz-adv-x="684" d="M72 -195q35 63 42 110.5t11 94.5q-49 31 -49 105q0 47 30.5 78.5t75.5 31.5q119 0 119 -125q0 -59 -19.5 -120.5t-46 -110.5t-53 -81t-41.5 -32q-25 0 -44 11t-25 38zM393 -195q33 63 40 110.5t11 94.5q-49 31 -49 105q0 47 31 78.5t78 31.5q119 0 119 -125 q0 -59 -19.5 -120.5t-46.5 -110.5t-54.5 -81t-41.5 -32q-25 0 -42.5 11t-25.5 38z" />
<glyph unicode="&#x2026;" horiz-adv-x="1110" d="M76 109q0 49 31.5 85.5t89.5 36.5q66 0 92 -33.5t26 -88.5q0 -51 -31.5 -86t-86.5 -35q-70 0 -95.5 32t-25.5 89zM436 109q0 49 32 85.5t89 36.5q66 0 92.5 -33.5t26.5 -88.5q0 -51 -32 -86t-87 -35q-70 0 -95.5 32t-25.5 89zM799 109q0 49 31.5 85.5t89.5 36.5 q66 0 92 -33.5t26 -88.5q0 -51 -31.5 -86t-86.5 -35q-70 0 -95.5 32t-25.5 89z" />
<glyph unicode="&#x2039;" horiz-adv-x="524" d="M39 532q0 12 12 43t35 71l49 87q27 47 58 94l155 238q25 0 44.5 -14.5t31.5 -30.5q14 -18 27 -43q0 -14 -10.5 -42t-28.5 -62l-40 -72q-22 -39 -46 -76q-55 -90 -125 -193l127 -188q25 -35 47 -73l41 -71q18 -34 29.5 -59.5t11.5 -40.5q-12 -29 -27 -51 q-12 -18 -32.5 -33.5t-43.5 -15.5l-157 236q-31 47 -59 94l-50 87q-23 40 -36 70.5t-13 44.5z" />
<glyph unicode="&#x203a;" horiz-adv-x="524" d="M68 100q0 14 11 40t28.5 59.5t41 71.5t48.5 73l127 188q-70 102 -125 193q-25 37 -47.5 76t-39 72.5t-27.5 61.5t-11 42q0 25 16 40t35 27q25 12 51 21l156 -238l57 -94q29 -47 50.5 -87t34.5 -70.5t13 -43.5q0 -14 -13 -44.5t-36 -70.5l-50 -87l-58 -94l-158 -236 q-29 8 -53 23q-18 12 -34.5 30t-16.5 47z" />
<glyph unicode="&#x20ac;" d="M35 422q0 78 11 110.5t56 32.5h115v19v71q0 35 4 68h-186q0 78 11 110.5t56 32.5h134q23 137 65.5 220t96 129.5t114.5 60.5t119 14q59 0 99 -9t64.5 -22.5t36 -27.5t11.5 -25q0 -37 -7.5 -68.5t-21.5 -50.5q-16 12 -56 29t-83 17q-33 0 -69 -9.5t-70.5 -38t-62.5 -81 t-46 -138.5h305q0 -78 -12 -110q-11 -33 -57 -33h-254q-4 -31 -5 -64v-69v-25h256q0 -78 -11 -110.5t-56 -32.5h-182q8 -90 26.5 -144.5t45 -83t60 -36.5t74.5 -8q57 0 107.5 14t79.5 39q10 -18 18 -47t8 -64q0 -18 -18 -36.5t-51 -36t-79 -27.5t-99 -10q-72 0 -134.5 15 t-107.5 62t-77 133.5t-42 229.5h-186z" />
<glyph unicode="&#x2122;" horiz-adv-x="1071" d="M63 1407v66q0 12 9 16q4 2 12 2h403v-64q0 -12 -10 -18q-6 -2 -10 -2h-141v-573q0 -6 -1 -11.5t-9.5 -7.5t-25.5 -2h-52v594h-175zM541 813v660q0 4 2 8q4 10 20 10h60l92 -268l13 -37l13 -37l15 -43l12 43q6 16 12 35.5l11 34.5l83 254q2 6 6.5 12t14.5 6h68v-657 q0 -6 -1 -11.5t-9.5 -7.5t-26.5 -2h-54l2 238q0 23 4 56l6 71q3 37 5 68.5t4 49.5l-53 -170l-60 -157q-2 -8 -12 -8h-43l-63 165l-54 181q6 -51 10 -101q4 -43 6.5 -86t2.5 -69l2 -217q0 -16 -13.5 -18.5t-74.5 -2.5z" />
<glyph unicode="&#xe000;" horiz-adv-x="1065" d="M0 1065h1065v-1065h-1065v1065z" />
</font>
</defs>
</svg>
