<?xml version="1.0" standalone="no"?>
<!DOCTYPE svg PUBLIC "-//W3C//DTD SVG 1.1//EN" "http://www.w3.org/Graphics/SVG/1.1/DTD/svg11.dtd" >
<svg xmlns="http://www.w3.org/2000/svg">
<metadata>
This is a custom SVG webfont generated by Font Squirrel.
Copyright   : Copyright c 20072010 by vernon adams All rights reserved
Foundry     : vernon adams
</metadata>
<defs>
<font id="NobileRegular" horiz-adv-x="859" >
<font-face units-per-em="2048" ascent="1638" descent="-410" />
<missing-glyph horiz-adv-x="465" />
<glyph unicode=" "  horiz-adv-x="465" />
<glyph unicode="&#x09;" horiz-adv-x="465" />
<glyph unicode="&#xa0;" horiz-adv-x="465" />
<glyph unicode="!" horiz-adv-x="718" d="M263 1437l207 -1l-53 -1073h-105zM267 -15v184h190v-184h-190z" />
<glyph unicode="&#x22;" horiz-adv-x="576" d="M33 1372v65h207v-65l-54 -409h-99zM340 1372v65h208v-65l-55 -409h-98z" />
<glyph unicode="#" horiz-adv-x="1122" d="M209 511v111h160l25 202h-159v113h172l28 254h126l-28 -254h172l26 252h129l-28 -252h145v-113h-156l-25 -202h160v-111h-171l-28 -243h-128l29 243h-169l-30 -243h-129l30 243h-151zM500 622h166l24 202h-166z" />
<glyph unicode="$" horiz-adv-x="1036" d="M116 845q0 75 35.5 128t74.5 82q83 66 265 73v137h94v-140q148 -3 256 -38q47 -15 45 -21l-35 -116q-85 31 -266 50v-355l29 -10q234 -83 291 -187q31 -60 31 -138t-21 -129q-37 -95 -128 -141q-91 -47 -202 -56v-146h-94v144q-141 10 -207 32l-133 43l45 131l93 -36 q85 -25 202 -35v400l-96 24q-279 71 -279 304zM268 848q0 -54 32 -89.5t122 -67.5l69 -19v328h-5q-137 0 -180 -52q-38 -46 -38 -100zM585 122q91 1 146 50t55 127q0 80 -60 124q-39 29 -141 67v-368z" />
<glyph unicode="%" horiz-adv-x="1568" d="M80 975q0 -46 7.5 -91t28 -94.5t51.5 -86.5t84.5 -61.5t121 -24.5t120.5 24.5t84.5 61.5t52 86.5t27.5 94.5t7 91q0 199 -77.5 292t-214 93t-214.5 -93t-78 -292zM201 994q0 272 171 272t171 -272q0 -149 -44 -213t-127 -64t-127 64t-44 213zM413 34l621 1328l117 -61 l-620 -1321zM909 339q0 -46 7.5 -91t28 -94.5t51.5 -86.5t84.5 -61.5t121 -24.5t120.5 24.5t84.5 61.5t52 86.5t27.5 94.5t7 91q0 199 -77.5 292t-214 93t-214.5 -93t-78 -292zM1030 358q0 272 171 272t171 -272q0 -149 -44 -213t-127 -64t-127 64t-44 213z" />
<glyph unicode="&#x26;" horiz-adv-x="1508" d="M135 360q0 147 75 245t229 143q-8 5 -21 14.5t-44 37.5t-55.5 58t-44 72.5t-19.5 82.5q0 135 94.5 218.5t268.5 83.5q88 0 157.5 -23t114.5 -63.5t69 -95t24 -118.5q0 -51 -14 -91.5t-39.5 -70.5t-68 -56t-90 -45.5t-115.5 -40.5l451 -355q12 185 12 368h150 q0 -118 -11 -236.5t-21 -177.5l-11 -58l205 -166l-78 -92l-192 161q-25 -49 -82.5 -87t-130.5 -60t-149 -32.5t-148 -10.5q-245 0 -380.5 107t-135.5 288zM300 380q0 -152 81 -220.5t270 -68.5q318 0 408 142l-535 428q-224 -48 -224 -281zM406 1020q0 -20 5.5 -39.5 t15.5 -37t22.5 -33.5t26.5 -30t28 -26t26 -21l22 -16q10 -6 16 -10l6 -3q64 19 103 33.5t73 32t51.5 38t26.5 47.5t9 63q0 84 -59.5 129t-159.5 45q-102 0 -153 -36t-59 -127v-9z" />
<glyph unicode="'" horiz-adv-x="576" d="M187 1372v65h207v-65l-55 -409h-98z" />
<glyph unicode="(" horiz-adv-x="786" d="M258 633q0 131 24 252t60.5 209t84.5 163t91 120t83 74l101 -92q-34 -29 -69 -72.5t-73 -111.5t-67 -146t-47.5 -182t-18.5 -215q0 -115 18 -221.5t45.5 -184.5t63.5 -144t69 -106.5t64 -63.5l-75 -99q-30 19 -63 50t-74.5 81.5t-78.5 119.5t-69 151.5t-50.5 191.5 t-18.5 226z" />
<glyph unicode=")" horiz-adv-x="786" d="M85 -90q32 28 66.5 70.5t72.5 109.5t67.5 144t48.5 182t19 216q0 113 -17 218.5t-44.5 183.5t-63 144.5t-68.5 109t-66 69.5l76 98q21 -14 50 -40t71 -73.5t81.5 -115.5t74.5 -150.5t56 -195t21 -234.5q0 -142 -25 -269.5t-63 -214.5t-88 -161t-93 -116t-85 -72z" />
<glyph unicode="*" horiz-adv-x="849" d="M23 1042v84h283l-144 247l94 53l126 -250l127 250l93 -53l-143 -247h283v-84h-282l155 -248l-93 -52l-140 250l-140 -250l-93 52l155 248h-281z" />
<glyph unicode="+" horiz-adv-x="946" d="M151 471v121h285v313h128v-313h286v-121h-286v-313h-128v313h-285z" />
<glyph unicode="," horiz-adv-x="488" d="M104 0v267h255v-227q0 -104 -53 -172.5t-155 -97.5l-46 85q68 24 93 55t25 90h-119z" />
<glyph unicode="-" d="M122 462v143h615v-143h-615z" />
<glyph unicode="." horiz-adv-x="471" d="M121 89q0 43 28.5 74t73.5 31q44 0 71 -30.5t27 -74t-27 -74t-71 -30.5q-45 0 -73.5 30.5t-28.5 73.5z" />
<glyph unicode="/" horiz-adv-x="949" d="M176 -106l568 1681l154 -56l-568 -1682z" />
<glyph unicode="0" horiz-adv-x="1233" d="M105 537q0 121 32.5 223t95.5 178.5t162.5 119.5t225.5 43q119 0 212.5 -37.5t150 -96t93 -136t50 -149.5t13.5 -145q0 -94 -20.5 -178t-62.5 -155t-103 -122.5t-146 -80.5t-187 -29q-119 0 -212 38.5t-148.5 97.5t-92 137t-50 149.5t-13.5 142.5zM274 539 q0 -109 23 -190t58 -127t84 -74.5t91.5 -37.5t90.5 -9q81 0 143.5 26t101 68t63 102t33.5 121.5t9 132.5q0 61 -8.5 116t-33 112.5t-62 99t-101 68t-145.5 26.5q-80 0 -142 -25t-100.5 -66t-62.5 -99t-33 -117t-9 -127z" />
<glyph unicode="1" horiz-adv-x="677" d="M49 986l234 108h173v-1094h-170v962l-189 -91z" />
<glyph unicode="2" horiz-adv-x="1004" d="M112 0v133l371 304q135 114 179 183.5t44 149.5q0 94 -65.5 144t-185.5 50q-53 0 -113.5 -15t-93.5 -31l-34 -15l-48 105q3 4 11 9.5t36 19.5t61 25t87 19.5t114 8.5q86 0 154 -19t109.5 -50t68.5 -73.5t37 -86t10 -92.5q0 -71 -25 -133t-89 -134.5t-175 -159.5 l-254 -204h543v-138h-742z" />
<glyph unicode="3" horiz-adv-x="1033" d="M96 -93l50 121q18 -9 49 -22.5t116 -36.5t158 -23q126 0 192 57.5t66 165.5q0 226 -306 260v130q55 0 102.5 10t90 32t67 64.5t24.5 101.5q0 104 -65 152t-198 48q-66 0 -133.5 -16t-101.5 -32l-35 -16l-46 121l48 20q29 13 113 33t161 20q53 0 104.5 -7.5t108 -28.5 t98.5 -54t69 -89.5t27 -129.5q0 -63 -19.5 -114.5t-49 -83.5t-66.5 -54.5t-69 -31t-59 -8.5q38 -7 72.5 -19.5t77.5 -39.5t74.5 -62.5t53 -94t21.5 -129.5q0 -66 -24.5 -122t-66 -94t-97 -64.5t-115.5 -38.5t-123 -12q-94 0 -186 22t-137 43z" />
<glyph unicode="4" horiz-adv-x="1091" d="M71 187l622 912l148 -35v-876h169v-126h-169v-299h-154v299h-591zM239 187h448v659z" />
<glyph unicode="5" horiz-adv-x="1002" d="M123 -105l46 133l6 -3l15 -7l25 -10q14 -6 32 -13t38 -13.5t42.5 -12t46 -10.5t49 -7.5t48.5 -2.5q289 0 289 273q0 137 -70 213t-200 76q-96 0 -273 -85l-61 63v575h680v-138h-548v-360q0 3 21 18.5t76 33t121 17.5q185 0 297.5 -111.5t112.5 -297.5q0 -191 -118 -302.5 t-328 -111.5q-80 0 -166.5 21t-133.5 41t-47 21z" />
<glyph unicode="6" horiz-adv-x="1122" d="M106 387q0 -245 117.5 -387t342.5 -142q109 0 197.5 36t144 98.5t84.5 142t29 170.5q0 185 -113.5 301t-310.5 116q-200 0 -310 -131q15 85 55 159t91.5 126t116 92.5t125 64t121.5 35.5l-39 132q-105 -24 -199.5 -69.5t-177.5 -117t-143 -161.5t-95.5 -210t-35.5 -255z M268 365q0 77 6 111q27 32 121 77t202 45q111 0 187.5 -73t76.5 -220q0 -57 -15.5 -109.5t-48 -101t-92.5 -78t-139 -29.5q-72 0 -127 24t-86.5 61t-51.5 89.5t-26.5 100.5t-6.5 103z" />
<glyph unicode="7" horiz-adv-x="1030" d="M132 977v141h761l52 -111l-521 -1167l-153 69l478 1068h-617z" />
<glyph unicode="8" horiz-adv-x="1148" d="M144 212q0 -86 34 -153.5t94 -109t138 -63t170 -21.5q189 0 307 87.5t118 257.5q0 144 -63 237.5t-176 129.5q46 15 84 37.5t75 58t58.5 88.5t21.5 118q0 159 -119.5 247t-305.5 88q-189 0 -312.5 -87.5t-123.5 -245.5q0 -65 21.5 -118t58 -88.5t75 -58t83.5 -37.5 q-113 -36 -175.5 -129.5t-62.5 -237.5zM306 232q0 127 78 209t196 82q114 0 188.5 -82.5t74.5 -210.5q0 -57 -11 -97.5t-39.5 -74t-81 -50t-131.5 -16.5q-153 0 -213.5 62t-60.5 178zM306 879q0 49 16.5 87.5t42.5 61.5t63 37.5t73.5 20t78.5 5.5q52 0 96 -10t83 -32.5 t61.5 -66.5t22.5 -105q0 -106 -77.5 -177t-185.5 -71q-111 0 -192.5 72t-81.5 178z" />
<glyph unicode="9" horiz-adv-x="1122" d="M106 749q0 -185 114 -301t311 -116q199 0 310 131q-16 -85 -56 -159.5t-91.5 -126t-116 -92t-125 -64t-121.5 -36.5l39 -132q106 25 200 70.5t177.5 117t143.5 161.5t95 209.5t35 255.5q0 245 -117.5 387t-342.5 142q-109 0 -197 -36t-143.5 -98.5t-85 -142t-29.5 -170.5 zM267 749q0 56 15.5 109t47.5 101t92 78t139 30q72 0 127 -24.5t86.5 -61t51.5 -89t26.5 -101t6.5 -102.5q0 -77 -5 -111q-28 -32 -121.5 -77t-201.5 -45q-111 0 -187.5 73t-76.5 220z" />
<glyph unicode=":" horiz-adv-x="542" d="M164 0v256h246v-256h-246zM164 531v255h246v-255h-246z" />
<glyph unicode=";" horiz-adv-x="542" d="M157 0v267h256v-227q0 -104 -53 -172.5t-155 -97.5l-47 85q69 24 94 55t25 90h-120zM158 531v255h255v-255h-255z" />
<glyph unicode="&#x3c;" horiz-adv-x="1371" d="M303 603l596 549l93 -100l-502 -449l502 -448l-93 -100z" />
<glyph unicode="=" horiz-adv-x="786" d="M86 255v119h535v-119h-535zM86 462v119h535v-119h-535z" />
<glyph unicode="&#x3e;" horiz-adv-x="1371" d="M303 155l501 448l-501 449l93 100l596 -549l-596 -548z" />
<glyph unicode="?" horiz-adv-x="1121" d="M102 1342q0 1 17.5 10t52.5 23.5t78.5 28t103 23.5t117.5 10q77 0 142 -11.5t120.5 -36.5t94.5 -62.5t61 -93.5t22 -126q0 -50 -10 -95.5t-27 -81.5t-43.5 -70.5t-53 -60t-64.5 -50.5t-69.5 -42t-74 -36t-72.5 -31l-72 -26v-348h-164v441q100 35 170 64.5t131.5 64.5 t97.5 71.5t56.5 82t20.5 99.5q0 111 -67 156t-216 45q-49 0 -97.5 -7.5t-83.5 -18.5t-62.5 -23t-41 -19.5t-13.5 -9.5zM240 59q0 39 28 67t67 28t67 -28t28 -68t-28 -67t-67 -27q-38 0 -66.5 27.5t-28.5 67.5z" />
<glyph unicode="@" horiz-adv-x="1753" d="M126 526q0 151 43.5 281.5t118 224.5t174 160.5t211 99.5t228.5 33q121 0 229.5 -24.5t201.5 -76t161 -125.5t106 -179.5t38 -231.5q0 -114 -28 -205t-71 -146t-98.5 -91.5t-106 -50.5t-97.5 -14q-31 0 -50.5 8t-28 26t-10.5 33t-2 40v209v2q-9 -45 -28 -88.5 t-51.5 -85.5t-74 -73.5t-100 -51t-125.5 -19.5q-156 0 -243.5 95.5t-87.5 260.5q0 88 39.5 176.5t107 157.5t165 112t204.5 43q33 0 97.5 -7t112.5 -14l49 -8l50 -99v-610q111 0 171 93.5t60 308.5q0 117 -34.5 208t-90.5 146.5t-134.5 91.5t-157 49t-168.5 13 q-136 0 -252.5 -45.5t-201.5 -130.5t-133.5 -212.5t-48.5 -283.5q0 -253 159 -396.5t466 -144.5q50 0 98 5t86 12.5t71.5 18t59.5 22t47.5 22.5t36 21.5t24.5 18.5t14 12l6 5l83 -84l-2 -2q-78 -85 -228 -133q-135 -44 -306 -44q-156 0 -284 35.5t-215.5 96.5t-147 146 t-86 182.5t-26.5 206.5zM576 521q0 -221 205 -221q70 0 130 30t108 91t76 164.5t30 238.5l1 74l-23 5q-23 4 -63 9t-74 5q-106 0 -195 -50t-142 -141.5t-53 -204.5z" />
<glyph unicode="A" horiz-adv-x="1397" d="M93 0l469 1437h273l470 -1437h-176l-112 349h-637l-112 -349h-175zM410 441h577l-288 888z" />
<glyph unicode="B" horiz-adv-x="1335" d="M179 0v1437h329q154 0 265.5 -17.5t179 -46t106 -75.5t52 -97.5t13.5 -119.5q0 -38 -5 -69.5t-23 -70t-48.5 -67.5t-86.5 -53.5t-133 -36.5q370 -42 370 -389q0 -92 -33 -162t-89 -113.5t-139 -71t-173.5 -38t-202.5 -10.5h-382zM356 130h205q129 0 213.5 13t144.5 46 t87 90.5t27 144.5q0 160 -103.5 225.5t-334.5 65.5h-239v-585zM356 833h236q117 0 194.5 16.5t117.5 51.5t55 77t15 103q0 84 -38 131t-139 71t-286 24h-155v-474z" />
<glyph unicode="C" horiz-adv-x="1152" d="M117 717q0 135 22 246t57.5 187.5t87 134t104.5 91.5t117.5 54.5t118.5 27.5t112 7q56 0 105.5 -6t74 -12t62 -17t46.5 -14l78 -24l-41 -132l-70 25q-3 1 -24 7l-32 10q-10 3 -35.5 9t-46.5 8.5t-52.5 5t-64.5 2.5q-121 0 -206.5 -43t-135 -125.5t-72 -190.5t-22.5 -251 q0 -139 21 -245.5t58.5 -176t93.5 -114t120 -62.5t143 -18q16 0 33 2l33 4q15 2 33.5 6t32.5 8l31 9q18 6 29 10l26 10q16 6 22.5 8t19.5 7.5t14 6.5l67 26l50 -126l-62 -26q-1 0 -30 -13.5t-54.5 -22.5t-67 -21.5t-92 -19t-103.5 -6.5q-100 0 -184 22.5t-145 61.5 t-108.5 96t-78 121.5t-50 141.5t-27.5 152.5t-8 158.5z" />
<glyph unicode="D" horiz-adv-x="1427" d="M112 0v1437h523q600 0 600 -720q0 -717 -600 -717h-523zM288 130h347q96 0 168 28.5t119 77.5t76 124t41.5 162t12.5 196t-12 195.5t-41.5 162t-76.5 125t-119 78t-168 28.5h-347v-1177z" />
<glyph unicode="E" horiz-adv-x="1076" d="M133 0v1437h883v-130h-707v-496h617v-105h-617v-576h718v-130h-894z" />
<glyph unicode="F" horiz-adv-x="996" d="M133 0v1437h838v-130h-660v-507h604v-107h-604v-693h-178z" />
<glyph unicode="G" horiz-adv-x="1372" d="M112 715q0 380 165 568q159 182 448 182q220 0 392 -106l23 -16l-60 -123q-74 63 -233 94q-58 12 -139 12q-2 1 -3 1q-80 0 -153 -30q-75 -29 -123.5 -81.5t-79.5 -130.5q-54 -143 -54 -373q0 -351 131 -495q105 -116 303 -116q156 0 249 66t93 196v259h-366v116h534 v-738h-80l-48 194q-42 -174 -281 -219q-67 -12 -144 -12q-177 0 -307.5 94t-198.5 263.5t-68 394.5z" />
<glyph unicode="H" horiz-adv-x="1375" d="M133 0v1437h176v-637h758v637h176v-1437h-176v695h-758v-695h-176z" />
<glyph unicode="I" horiz-adv-x="894" d="M177 0v102h186v1228h-186v107h540v-107h-187v-1228h187v-102h-540z" />
<glyph unicode="J" horiz-adv-x="711" d="M54 32q146 22 204 72q57 46 74.5 108t17.5 224v1001h175v-969q0 -182 -26 -282.5t-104 -176.5q-96 -91 -295 -91z" />
<glyph unicode="K" horiz-adv-x="1243" d="M177 0v1437h176v-660h203l446 660h176l-482 -711l543 -726h-185l-505 680h-196v-680h-176z" />
<glyph unicode="L" horiz-adv-x="979" d="M133 0v1437h176v-1307h679v-130h-855z" />
<glyph unicode="M" horiz-adv-x="1694" d="M150 0v1437h265l432 -1284l432 1284h265v-1437h-141v1373l-467 -1373h-178l-467 1373v-1373h-141z" />
<glyph unicode="N" horiz-adv-x="1515" d="M187 0v1437h239l754 -1305v1305h148v-1437h-239l-754 1305v-1305h-148z" />
<glyph unicode="O" horiz-adv-x="1417" d="M113 713q0 133 20 243t53.5 186t82 135t99.5 94t111 57t111 29.5t105 7.5q133 0 237 -37t173 -102.5t114.5 -160.5t65.5 -206.5t20 -245.5q0 -132 -19 -243t-64.5 -206t-114 -161t-169.5 -103t-230 -37q-56 0 -108 6.5t-114 27.5t-113 55t-101 92t-83.5 134.5t-54.5 188 t-21 246.5zM295 713q0 -166 29 -286t85.5 -190.5t130 -103t170.5 -32.5q80 0 144.5 22t109 63.5t76.5 96t49.5 125.5t25.5 144.5t8 160.5q0 172 -29 293t-85.5 190t-129.5 100t-169.5 31t-170 -32t-119 -86t-74.5 -134t-40 -167t-11 -195z" />
<glyph unicode="P" horiz-adv-x="1252" d="M171 0v1437h361q187 0 312 -27t196 -84t100 -133t29 -185q0 -101 -31 -175.5t-105 -132.5t-207 -88.5t-324 -30.5h-154v-581h-177zM348 713h154q122 0 211.5 13.5t145 35.5t88 57.5t45 75t12.5 91.5q0 50 -3.5 83.5t-14 70t-30.5 60t-53.5 46t-82 34.5t-118 19.5 t-159.5 7.5h-195v-594z" />
<glyph unicode="Q" horiz-adv-x="1422" d="M107 721q0 132 22 244t69.5 204.5t117.5 158t170.5 101.5t225.5 36q56 0 109.5 -7.5t115 -29t114 -56t102.5 -93.5t85 -135.5t56 -186.5t21 -244q0 -154 -28 -278.5t-85 -221.5t-150 -158t-218 -81l345 -241l-108 -119l-449 354q-256 29 -385.5 220.5t-129.5 532.5z M290 713.5q0 -104.5 11.5 -190.5t40.5 -166.5t75.5 -135t121 -87.5t173 -33t173 33t121 87.5t75.5 135t40.5 166.5t11.5 190.5t-11.5 190.5t-40.5 166.5t-75.5 135.5t-121 88t-173 33t-173 -33t-121 -88t-75.5 -135.5t-40.5 -166.5t-11.5 -190.5z" />
<glyph unicode="R" horiz-adv-x="1223" d="M117 0v1437h343q241 0 356 -26q216 -47 273 -209q23 -64 23 -146q0 -146 -103.5 -238.5t-272.5 -92.5q89 -10 155.5 -33t117 -65t76 -108.5t25.5 -157.5v-361h-165v375q0 77 -21 129t-74.5 90t-149.5 55.5t-242 17.5h-164v-667h-177zM294 784h140q50 0 80 1q30 0 79 2.5 t79.5 7t73.5 13.5t70 22.5t56.5 33.5t46 45.5t27.5 60.5t11 76q0 51 -10.5 89.5t-27.5 66t-50.5 47t-69 30.5t-92 17.5t-111.5 8.5t-136 2h-166v-523z" />
<glyph unicode="S" horiz-adv-x="1195" d="M92 1107q0 82 32 147t79.5 103.5t111 63.5t120 34.5t111.5 9.5q246 0 449 -115l-28 -133q-61 39 -160.5 74.5t-204.5 35.5q-99 0 -167.5 -16t-106.5 -47.5t-54 -71t-16 -93.5q0 -82 50.5 -128t168.5 -85l257 -83q36 -12 63 -22t66 -29.5t67.5 -40.5t60 -53.5t51.5 -69.5 t32.5 -89t12.5 -111q0 -39 -5.5 -77.5t-21 -81.5t-40 -80t-65 -72t-92 -59.5t-125.5 -39.5t-163 -15q-121 0 -236 30t-184 73l18 136q59 -31 100 -48.5t116 -35t157 -17.5q86 0 152 14t117 45.5t78 86t27 132.5q0 56 -16.5 98.5t-50.5 73t-73.5 51t-97.5 40.5l-264 92 q-93 33 -158 75t-101 90.5t-51.5 98.5t-15.5 109z" />
<glyph unicode="T" horiz-adv-x="985" d="M-11 1307v130h1008v-130h-416v-1307h-173v1307h-419z" />
<glyph unicode="U" horiz-adv-x="1514" d="M186 651v786h174v-790q0 -117 13 -206.5t38.5 -149.5t58 -100t79 -62t95 -30t111.5 -8q79 0 134.5 12t107 47.5t83.5 96t51 161t19 239.5v790h179v-786q0 -121 -15.5 -219t-55 -187.5t-103 -150t-164.5 -96t-236 -35.5q-153 0 -263 45t-177 135t-98 214.5t-31 293.5z" />
<glyph unicode="V" horiz-adv-x="1251" d="M64 1437h167l395 -1273l395 1273h166l-450 -1437h-222z" />
<glyph unicode="W" horiz-adv-x="1817" d="M70 1437h164l282 -1314l268 1232h249l267 -1232l282 1314h165l-306 -1437h-261l-214 971l-58 278l-58 -278l-214 -971h-260z" />
<glyph unicode="X" horiz-adv-x="1183" d="M40 0l452 728l-450 709h178l372 -597l371 597h178l-450 -709l452 -728h-198l-335 541l-18 29l-19 -29l-335 -541h-198z" />
<glyph unicode="Y" horiz-adv-x="1157" d="M25 1437h179l322 -704l57 -117l53 117l323 704h174l-468 -996v-441h-173v441z" />
<glyph unicode="Z" horiz-adv-x="1085" d="M76 0v164l755 1153h-755v120h938v-146l-758 -1161h760v-130h-940z" />
<glyph unicode="[" horiz-adv-x="959" d="M245 0v1437h604v-130h-429v-1177h429v-130h-604z" />
<glyph unicode="\" horiz-adv-x="938" d="M106 1528l144 47l567 -1679l-145 -53z" />
<glyph unicode="]" horiz-adv-x="1013" d="M147 0v130h428v1177h-428v130h604v-1437h-604z" />
<glyph unicode="^" horiz-adv-x="1299" d="M340 464l266 456h87l266 -456l-116 -71l-193 343l-193 -343z" />
<glyph unicode="_" horiz-adv-x="1151" d="M116 30h855v-131h-855v131z" />
<glyph unicode="`" horiz-adv-x="707" d="M62 805l220 81l139 -562l-61 -24z" />
<glyph unicode="a" horiz-adv-x="1127" d="M103 308v4q0 162 110 250.5t294 88.5q65 0 159 -13.5t142 -32.5v44q0 91 -8 144.5t-42.5 92t-79 53t-106 14.5t-113.5 -11.5t-91 -27.5t-71 -31q-54 -28 -67 -39l-62 121l41 22q160 96 342 96q248 0 339 -104.5t91 -354.5v-624h-127l-26 162q-133 -183 -368 -183 q-170 0 -263.5 84.5t-93.5 244.5zM277 315.5q0 -108.5 54 -158t171 -49.5q159 0 306 139v271q-116 19 -219 19t-162 -14.5t-92 -43.5q-58 -55 -58 -163.5z" />
<glyph unicode="b" horiz-adv-x="1239" d="M180 0v1437l173 32v-532q10 11 35 31.5t67.5 48t100 47t114.5 19.5q99 0 177 -36.5t125 -93t77.5 -132t42 -146.5t11.5 -144q0 -88 -14.5 -166.5t-48 -149.5t-83 -122t-123 -81t-164.5 -30q-99 0 -186 52t-151 128l-25 -162h-128zM353 248q144 -136 323 -136 q61 0 107.5 24t75 63.5t47 95.5t25 113t6.5 123q0 422 -261 422q-94 0 -185.5 -44.5t-137.5 -87.5v-573z" />
<glyph unicode="c" horiz-adv-x="1021" d="M98 528q0 -128 31 -227t79 -158t111.5 -97.5t122 -52.5t119.5 -14q185 0 355 122l-52 122q-115 -107 -299 -107q-60 0 -110.5 20.5t-93 66t-66.5 128.5t-24 197q0 214 79.5 316t228.5 102q164 0 285 -105l52 121q-171 121 -353 121q-61 0 -120.5 -15t-123 -54 t-111.5 -99.5t-79 -160.5t-31 -226z" />
<glyph unicode="d" horiz-adv-x="1169" d="M98 531q0 155 47 278.5t144 198.5t230 75q107 0 197.5 -46.5t134.5 -101.5v534l173 -32v-1437h-129l-25 163q-54 -69 -143 -125t-188 -56q-115 0 -202 44.5t-138 123t-76 174.5t-25 207zM264 534q0 -422 271 -422q99 0 184 44.5t132 93.5v572q-172 131 -321 131 q-38 0 -69.5 -8t-69.5 -34t-65 -70t-44.5 -122.5t-17.5 -184.5z" />
<glyph unicode="e" horiz-adv-x="1041" d="M98 526q0 132 35.5 238t98.5 175.5t148.5 106.5t186.5 37q195 0 299 -127t104 -341q0 -44 -7 -99h-692q0 -93 14 -161t48.5 -124.5t97.5 -85.5t155 -29q155 0 278 106l57 -132q-71 -52 -173.5 -81.5t-172.5 -29.5q-228 0 -352.5 146.5t-124.5 400.5zM271 621h546v31 q0 78 -16.5 135.5t-42 90t-60.5 52.5t-65.5 26t-64.5 6q-39 0 -75.5 -7.5t-78.5 -30t-72.5 -59t-50.5 -99.5t-20 -145z" />
<glyph unicode="f" horiz-adv-x="750" d="M60 968v96h178v26q0 100 14 174t39 120.5t64 75t82.5 39.5t101.5 11q43 0 97.5 -19t88.5 -39t34 -26l-57 -114q-76 68 -141 68q-96 0 -125 -43q-24 -35 -26 -139v-54v-13v-67h317v-96h-317v-968h-172v968h-178z" />
<glyph unicode="g" horiz-adv-x="1158" d="M143 351q0 59 28 100q26 36 118 53l79 15q-98 33 -146 100.5t-49 157.5q0 140 117 222.5t302 83.5h3q47 0 89 -7.5t69 -17.5t47 -20t29 -17l9 -7l72 35q39 18 178 18h28v-134l-217 1l27 -29q28 -40 37.5 -60t9.5 -58q0 -48 -7 -88.5t-28 -84.5t-55.5 -77.5t-94.5 -59.5 q-64 -28 -140 -38l-373 -50l17 -152h357q236 0 343 -72.5t107 -233.5q0 -150 -126 -238q-119 -82 -351 -82h-75q-187 0 -288 77t-101 226q0 42 15 78t32.5 56.5t45 38t36.5 20.5l22 9h2q-36 9 -75 25t-53 40q-22 36 -23 47q0 1 -13 98q-4 24 -4 25zM302 -73 q0 -98 58.5 -138.5t196.5 -40.5h81q166 0 238 41q76 40 76 137q0 104 -58 145q-63 44 -211 44h-293q-3 -3 -9 -7.5t-21 -21.5t-27 -36.5t-21.5 -52.5t-9.5 -70zM319 769q0 -43 19.5 -82t46.5 -65t54 -45.5t46 -28.5l19 -9l129 19q49 7 84.5 23t55.5 35t31.5 48t15 55.5 t3.5 63.5q0 100 -54 140t-180 40q-270 0 -270 -194z" />
<glyph unicode="h" horiz-adv-x="1182" d="M146 0v1437l172 34v-571q37 39 64.5 64t71.5 56t96 47t110 16q89 0 157 -22t120 -70t79.5 -131t27.5 -198v-662h-173v662q0 158 -54.5 224.5t-156.5 66.5q-60 0 -120 -17.5t-105 -43.5t-73.5 -47t-43.5 -37v-808h-172z" />
<glyph unicode="i" horiz-adv-x="576" d="M188 1330.5q0 42.5 29 73.5t73 31t71.5 -30.5t27.5 -74.5q0 -43 -27.5 -73.5t-71.5 -30.5t-73 31t-29 73.5zM204 0v1064h165v-1064h-165z" />
<glyph unicode="j" horiz-adv-x="535" d="M18 -235q46 29 77 61.5t49.5 65t28.5 77.5t13 87t3 104v904h173v-924q0 -103 -24.5 -189t-67 -144t-96 -95t-113.5 -51zM173 1330.5q0 42.5 28.5 73.5t73.5 31q43 0 70.5 -30.5t27.5 -74t-27.5 -74t-70.5 -30.5q-45 0 -73.5 31t-28.5 73.5z" />
<glyph unicode="k" horiz-adv-x="1033" d="M147 0v1437l173 32v-898l509 493h205l-503 -474l533 -590h-201l-437 505l-106 -87v-418h-173z" />
<glyph unicode="l" horiz-adv-x="536" d="M194 0v1437l173 32v-1469h-173z" />
<glyph unicode="m" horiz-adv-x="1867" d="M173 0v1064h128l25 -188q54 90 147.5 148.5t209.5 58.5q121 0 192 -58.5t101 -144.5q64 94 168.5 148.5t213.5 54.5q154 0 239 -104.5t85 -281.5v-697h-173v699q0 76 -12.5 127t-37 78t-54.5 38t-73 11q-164 0 -329 -172v-781h-173v699q0 77 -12 128.5t-37 78.5t-54 37 t-72 10q-139 0 -309 -170v-783h-173z" />
<glyph unicode="n" horiz-adv-x="1247" d="M174 0v1064h127l22 -170q56 71 173.5 129t235.5 58q45 0 87 -8.5t89.5 -36t81.5 -72t56.5 -122.5t22.5 -180v-662h-173v662q0 66 -10 117t-32 91.5t-63 61.5t-98 21q-93 0 -199 -56t-147 -96v-801h-173z" />
<glyph unicode="o" horiz-adv-x="1194" d="M115 530q0 114 29.5 213t87 175.5t151.5 120.5t214 44q96 0 176.5 -28.5t136.5 -79.5t95 -121t57 -151.5t18 -172.5q0 -115 -29.5 -213.5t-87.5 -174t-152 -118t-214 -42.5q-97 0 -177 28t-136 77.5t-94.5 119t-56.5 150.5t-18 173zM280 529.5q0 -93.5 18.5 -169 t55 -133.5t98.5 -89.5t145 -31.5t145 31.5t99 89.5t55 133.5t18 169t-18.5 169.5t-55 134.5t-98.5 90.5t-145 32t-145 -31.5t-98.5 -90.5t-55 -135t-18.5 -169.5z" />
<glyph unicode="p" horiz-adv-x="1232" d="M185 -443v1507h128l30 -180q62 81 150 140t190 59q71 0 131.5 -19t103.5 -51t77 -76.5t55.5 -93.5t35.5 -104.5t19.5 -106t5.5 -101.5q0 -85 -15 -163.5t-48.5 -149.5t-82.5 -122.5t-120.5 -82.5t-160.5 -31q-97 0 -184 48.5t-142 118.5v-572zM358 259q7 -8 32.5 -28.5 t67.5 -48.5t99 -49t110 -21q27 0 48.5 2t55 13.5t58.5 31t50.5 59.5t39.5 94q26 98 26 182q0 66 -5 123t-22 122t-44.5 110t-76 74.5t-113.5 29.5q-54 0 -112 -18.5t-101.5 -44.5t-72.5 -46.5t-40 -33.5v-551z" />
<glyph unicode="q" horiz-adv-x="1169" d="M98 531q0 88 14 166.5t46.5 150t80.5 123t119.5 82t159.5 30.5q105 0 199.5 -58.5t148.5 -140.5l31 180h127v-1500l-173 -21v606q-56 -70 -141.5 -118.5t-182.5 -48.5q-89 0 -162.5 31.5t-122 83.5t-82 123.5t-48 149.5t-14.5 161zM264 531q0 -75 9 -137.5t24 -105 t37 -75.5t44.5 -51.5t50 -30.5t50 -15.5t48.5 -3.5q98 0 190.5 45.5t133.5 86.5v567q-64 64 -161 103t-172 39q-254 0 -254 -422z" />
<glyph unicode="r" horiz-adv-x="805" d="M177 0v1064h131l27 -175q148 194 293 194q54 0 91 -11v-138q-5 3 -57 3q-68 0 -143.5 -29.5t-114 -54.5t-54.5 -39v-814h-173z" />
<glyph unicode="s" horiz-adv-x="905" d="M93 811q0 34 11 69.5t37 73t66.5 65t104 46t142.5 18.5q100 0 204 -38.5t144 -73.5l-57 -130q-136 107 -281 107q-122 0 -174 -41t-52 -106q0 -43 30 -70.5t120 -59.5l153 -54q98 -35 161 -72t94.5 -80.5t42.5 -84.5t11 -99q0 -67 -24 -120.5t-63.5 -86.5t-92.5 -55.5 t-106.5 -31t-112.5 -8.5q-92 0 -197 36t-152 76l58 132q57 -49 137.5 -78t142.5 -29q111 0 182 41t71 129q0 73 -43.5 109t-129.5 65l-159 51q-83 28 -137 59t-82.5 68.5t-38.5 77t-10 95.5z" />
<glyph unicode="t" horiz-adv-x="753" d="M32 969v95h174l18 328l147 42v-370h303v-95h-303v-698q0 -60 10.5 -94t29 -46t49.5 -12q71 0 172 59l34 19l61 -111l-43 -28q-10 -6 -42 -22q-29 -14 -85.5 -32.5t-99.5 -18.5q-140 0 -199.5 76t-59.5 257v651h-166z" />
<glyph unicode="u" horiz-adv-x="1150" d="M120 402v662h173v-662q0 -140 48 -215t163 -75q176 0 322 137v815h173v-1064h-128l-25 160q-82 -92 -166.5 -135t-184.5 -43q-177 0 -276 101t-99 319z" />
<glyph unicode="v" horiz-adv-x="1064" d="M53 1064h171l306 -883l300 883h173l-391 -1064h-170z" />
<glyph unicode="w" horiz-adv-x="1555" d="M51 1064h167l213 -951l235 951h184l227 -953l219 953h169l-291 -1064h-188l-240 905l-216 -905h-188z" />
<glyph unicode="x" horiz-adv-x="1071" d="M82 1064h196l257 -425l264 425h191l-369 -533l362 -531h-186l-256 434l-263 -434h-192l371 531z" />
<glyph unicode="y" horiz-adv-x="1112" d="M85 1064h165l323 -837l274 837h178l-398 -1098q-44 -120 -57 -151q-81 -173 -223 -216q-53 -17 -115 -17l-46 114q137 24 197 86.5t112 238.5z" />
<glyph unicode="z" horiz-adv-x="917" d="M93 0v151l580 785h-553v128h703v-150l-570 -782h570v-132h-730z" />
<glyph unicode="{" horiz-adv-x="748" d="M68 520q217 0 217 -281q0 -146 41 -244q79 -185 331 -185l1 154q-56 0 -92.5 7t-68.5 37q-16 15 -25 37t-20 62.5t-12 154.5q0 286 -220 343q220 57 220 343q1 114 12 154.5t20 63t25 36.5q32 30 68.5 37.5t92.5 7.5l-1 153q-252 0 -331 -184q-41 -99 -41 -245 q0 -280 -217 -280v-171z" />
<glyph unicode="|" horiz-adv-x="568" d="M204 -101v1644h162v-1644h-162z" />
<glyph unicode="}" horiz-adv-x="752" d="M118 -36q57 0 93.5 7t67.5 37q16 15 25 37t20 62.5t13 154.5q0 286 219 343q-219 57 -219 343q-2 114 -13 154.5t-20 63t-25 36.5q-31 30 -67.5 37.5t-93.5 7.5l1 153q252 0 331 -184q41 -99 41 -245q0 -280 217 -280v-171q-217 0 -217 -281q0 -146 -41 -244 q-79 -185 -331 -185z" />
<glyph unicode="~" horiz-adv-x="818" d="M85 359q0 236 183 236q45 0 93 -17.5t81 -39t71 -39.5t68 -18q53 0 53 101h142q0 -103 -47 -165t-127 -62q-45 0 -97 17t-89 37.5t-76 37t-60 16.5q-26 0 -39.5 -22t-13.5 -82h-142z" />
<glyph unicode="&#xa2;" horiz-adv-x="1035" d="M129 528q0 -88 14.5 -162t39 -128t59.5 -98t72.5 -72t81.5 -47.5t84 -28.5t81 -12v-125h93v128q39 0 82.5 8.5t78 20t62.5 23t44.5 19.5t15.5 8l-42 125l-6 -4q-6 -4 -18 -10l-29 -13q-17 -8 -38.5 -15.5t-44.5 -13t-50.5 -9.5t-54.5 -4v827q20 0 41 -3.5t39.5 -8t37 -11 t34 -13.5t29.5 -15l25 -13q11 -6 18.5 -11.5t12.5 -8.5l4 -2l52 121l-17 9q-17 10 -47 24.5t-65.5 29t-80 25.5t-83.5 11v130h-93v-127q-42 -4 -82.5 -13.5t-84 -30t-81 -49.5t-72 -73.5t-59 -98.5t-39 -128.5t-14.5 -160.5zM302 528q0 382 259 416v-827q-43 5 -80 20.5 t-70.5 47.5t-57.5 77.5t-37.5 113t-13.5 152.5z" />
<glyph unicode="&#xa3;" horiz-adv-x="1026" d="M138 549h180q0 -46 -5 -90t-12 -80t-16.5 -69t-20.5 -59t-21.5 -48.5t-20.5 -38.5l-18 -27l-11 -17l-5 -5v-115h726v120h-561q5 6 12 17.5t26 52t33 86.5t25.5 120t11.5 153h390v93h-390l-28 32q-77 100 -77 199q0 201 244 201q42 0 89 -8.5t83 -21t66 -25t46 -21.5 l16 -8l45 119l-15 9q-15 9 -48.5 23.5t-78 28t-113 23.5t-144.5 10q-93 0 -175 -43t-131.5 -120t-49.5 -170q0 -37 11 -74.5t26.5 -64.5t31 -48t26 -31.5t11.5 -9.5h-158v-93z" />
<glyph unicode="&#xa5;" horiz-adv-x="1162" d="M37 1437h177l382 -720l382 720h177l-438 -811h239v-95h-269v-87h269v-90h-269v-354h-173v354h-275v90h275v87h-275v95h238z" />
<glyph unicode="&#xa8;" horiz-adv-x="866" d="M110 451.5q0 42.5 28.5 73.5t73.5 31q44 0 71 -30.5t27 -74t-27 -74t-71 -30.5q-45 0 -73.5 31t-28.5 73.5zM556 451.5q0 42.5 28.5 73.5t73.5 31q44 0 71 -30.5t27 -74t-27 -74t-71 -30.5q-45 0 -73.5 31t-28.5 73.5z" />
<glyph unicode="&#xa9;" horiz-adv-x="1911" d="M149 755q0 -113 30.5 -218.5t84.5 -190t129 -154t163 -116.5t188 -72t201.5 -25t201.5 25t188 72t163 116.5t129 154t84.5 190t30.5 218.5q0 115 -32 221.5t-88 191t-132 154t-164 116.5t-185.5 72t-195 25t-195 -25t-185.5 -72t-164 -116.5t-132 -154t-88 -191 t-32 -221.5zM284 754q0 120 37.5 226.5t102.5 186t149.5 137.5t180 87.5t192 29.5t192 -29.5t180 -87.5t149.5 -137.5t102.5 -186t37.5 -226.5q0 -136 -48 -257.5t-133.5 -211t-210 -141.5t-270 -52t-270 52t-210 141.5t-133.5 211t-48 257.5zM504 756q0 -52 6.5 -98 t22 -91.5t39 -84t61.5 -71.5t86 -56t114.5 -36t145.5 -13q116 0 255 71v114q-137 -69 -268 -69q-81 0 -137.5 15.5t-98 54t-60 103.5t-18.5 161.5t18.5 161.5t60 103t98 53.5t137.5 15.5q131 0 268 -69v115q-139 71 -255 71q-79 0 -145.5 -13.5t-114.5 -36t-86 -56 t-61.5 -71.5t-39 -84t-22 -92t-6.5 -98z" />
<glyph unicode="&#xab;" horiz-adv-x="1395" d="M136 438v168l554 349v-189l-397 -241l397 -247v-188zM690 438v168l553 349v-189l-398 -241l398 -247v-188z" />
<glyph unicode="&#xad;" d="M122 462v143h615v-143h-615z" />
<glyph unicode="&#xae;" horiz-adv-x="1213" d="M93 1008.5q0 103.5 41 198t111 164.5t170.5 111t213.5 41q111 0 210.5 -40.5t171 -109t113.5 -163.5t42 -201.5t-42 -201.5t-113.5 -164t-171 -109.5t-210.5 -40.5q-113 0 -213.5 41.5t-170.5 110.5t-111 164.5t-41 199zM191 1006q0 -180 124.5 -301.5t312.5 -121.5 q189 0 314 122.5t125 300.5q0 182 -125.5 303.5t-313.5 121.5t-312.5 -122.5t-124.5 -302.5zM465 734v547h109q85 0 137 -11.5t89 -46.5t37 -75q0 -68 -32 -103t-119 -57l164 -227q-8 -3 -26 -12l-40 -22l-25 -13q-157 257 -158 258h-40v-238h-96zM564 1046h44 q66 0 100.5 21.5t34.5 75.5q0 33 -35.5 48.5t-143.5 15.5v-161z" />
<glyph unicode="&#xb0;" horiz-adv-x="709" d="M130 818.5q0 93.5 62 155.5t160 62q96 0 155.5 -61t59.5 -157q0 -94 -59 -155.5t-156 -61.5q-98 0 -160 62t-62 155.5zM218 819q0 -56 38 -96.5t94 -40.5q58 0 93.5 40t35.5 96q0 57 -35.5 96.5t-93.5 39.5q-57 0 -94.5 -39.5t-37.5 -95.5z" />
<glyph unicode="&#xb4;" horiz-adv-x="998" d="M445 322l145 556l211 -83l-304 -497z" />
<glyph unicode="&#xb8;" horiz-adv-x="523" d="M124 -385l29 -9q29 -9 66.5 -18.5t53.5 -9.5q25 0 38.5 1t33 7t29.5 19t17.5 37t7.5 60q0 71 -54 100t-176 29v238h110v-158q114 0 178 -49t64 -173q0 -215 -230 -215q-15 0 -33 2t-33.5 5t-31 6.5t-27.5 7.5l-22 7l-15 5l-5 2v106z" />
<glyph unicode="&#xbb;" horiz-adv-x="1395" d="M152 90v188l407 247l-407 241v189l554 -349v-168zM704 90v188l407 247l-407 241v189l555 -349v-168z" />
<glyph unicode="&#x2c6;" horiz-adv-x="1299" d="M340 464l266 456h87l266 -456l-116 -71l-193 343l-193 -343z" />
<glyph unicode="&#x2da;" horiz-adv-x="465" d="M-219 328.5q0 93.5 62 155.5t160 62q96 0 155.5 -61t59.5 -157q0 -94 -59 -155.5t-156 -61.5q-98 0 -160 62t-62 155.5zM-131 329q0 -56 38 -96.5t94 -40.5q58 0 93.5 40t35.5 96q0 57 -35.5 96.5t-93.5 39.5q-57 0 -94.5 -39.5t-37.5 -95.5z" />
<glyph unicode="&#x2dc;" horiz-adv-x="465" d="M-345 115q0 236 183 236q45 0 93 -17.5t81 -39t71 -39.5t68 -18q53 0 53 101h142q0 -103 -47 -165t-127 -62q-45 0 -97 17t-89 37.5t-76 37t-60 16.5q-26 0 -39.5 -22t-13.5 -82h-142z" />
<glyph unicode="&#x410;" horiz-adv-x="1397" d="M93 0l469 1437h273l470 -1437h-176l-112 349h-637l-112 -349h-175zM410 441h577l-288 888z" />
<glyph unicode="&#x412;" horiz-adv-x="1335" d="M179 0v1437h329q154 0 265.5 -17.5t179 -46t106 -75.5t52 -97.5t13.5 -119.5q0 -38 -5 -69.5t-23 -70t-48.5 -67.5t-86.5 -53.5t-133 -36.5q370 -42 370 -389q0 -92 -33 -162t-89 -113.5t-139 -71t-173.5 -38t-202.5 -10.5h-382zM356 130h205q129 0 213.5 13t144.5 46 t87 90.5t27 144.5q0 160 -103.5 225.5t-334.5 65.5h-239v-585zM356 833h236q117 0 194.5 16.5t117.5 51.5t55 77t15 103q0 84 -38 131t-139 71t-286 24h-155v-474z" />
<glyph unicode="&#x415;" horiz-adv-x="1076" d="M133 0v1437h883v-130h-707v-496h617v-105h-617v-576h718v-130h-894z" />
<glyph unicode="&#x41a;" horiz-adv-x="1243" d="M177 0v1437h176v-660h203l446 660h176l-482 -711l543 -726h-185l-505 680h-196v-680h-176z" />
<glyph unicode="&#x41c;" horiz-adv-x="1694" d="M150 0v1437h265l432 -1284l432 1284h265v-1437h-141v1373l-467 -1373h-178l-467 1373v-1373h-141z" />
<glyph unicode="&#x41d;" horiz-adv-x="1375" d="M133 0v1437h176v-637h758v637h176v-1437h-176v695h-758v-695h-176z" />
<glyph unicode="&#x41e;" horiz-adv-x="1417" d="M113 713q0 133 20 243t53.5 186t82 135t99.5 94t111 57t111 29.5t105 7.5q133 0 237 -37t173 -102.5t114.5 -160.5t65.5 -206.5t20 -245.5q0 -132 -19 -243t-64.5 -206t-114 -161t-169.5 -103t-230 -37q-56 0 -108 6.5t-114 27.5t-113 55t-101 92t-83.5 134.5t-54.5 188 t-21 246.5zM295 713q0 -166 29 -286t85.5 -190.5t130 -103t170.5 -32.5q80 0 144.5 22t109 63.5t76.5 96t49.5 125.5t25.5 144.5t8 160.5q0 172 -29 293t-85.5 190t-129.5 100t-169.5 31t-170 -32t-119 -86t-74.5 -134t-40 -167t-11 -195z" />
<glyph unicode="&#x420;" horiz-adv-x="1252" d="M171 0v1437h361q187 0 312 -27t196 -84t100 -133t29 -185q0 -101 -31 -175.5t-105 -132.5t-207 -88.5t-324 -30.5h-154v-581h-177zM348 713h154q122 0 211.5 13.5t145 35.5t88 57.5t45 75t12.5 91.5q0 50 -3.5 83.5t-14 70t-30.5 60t-53.5 46t-82 34.5t-118 19.5 t-159.5 7.5h-195v-594z" />
<glyph unicode="&#x421;" horiz-adv-x="1152" d="M117 717q0 135 22 246t57.5 187.5t87 134t104.5 91.5t117.5 54.5t118.5 27.5t112 7q56 0 105.5 -6t74 -12t62 -17t46.5 -14l78 -24l-41 -132l-70 25q-3 1 -25 7l-32 10q-10 3 -35 9t-46 8.5t-52.5 5t-64.5 2.5q-121 0 -206.5 -43t-135 -125.5t-72 -190.5t-22.5 -251 q0 -139 21 -245.5t58.5 -176t93.5 -114t120 -62.5t143 -18q16 0 33 2l33 4q15 2 33.5 6t32.5 8l31 9q18 6 29 10l26 10q16 6 22.5 8t19.5 7.5t14 6.5l67 26l50 -126l-62 -26q-1 0 -30 -13.5t-54.5 -22.5t-67 -21.5t-92 -19t-103.5 -6.5q-100 0 -184 22.5t-145 61.5 t-108.5 96t-78 121.5t-50 141.5t-27.5 152.5t-8 158.5z" />
<glyph unicode="&#x422;" horiz-adv-x="985" d="M-11 1307v130h1008v-130h-416v-1307h-173v1307h-419z" />
<glyph unicode="&#x425;" horiz-adv-x="1183" d="M40 0l452 728l-450 709h178l372 -597l371 597h178l-450 -709l452 -728h-198l-335 541l-18 29l-19 -29l-335 -541h-198z" />
<glyph unicode="&#x430;" horiz-adv-x="1127" d="M103 308v4q0 162 110 250.5t294 88.5q65 0 159 -13.5t142 -32.5v44q0 91 -8 144.5t-42.5 92t-79 53t-106 14.5t-113.5 -11.5t-91 -27.5t-71 -31q-54 -28 -67 -39l-62 121l41 22q160 96 342 96q248 0 339 -104.5t91 -354.5v-624h-127l-26 162q-133 -183 -368 -183 q-170 0 -263.5 84.5t-93.5 244.5zM277 315.5q0 -108.5 54 -158t171 -49.5q159 0 306 139v271q-116 19 -219 19t-162 -14.5t-92 -43.5q-58 -55 -58 -163.5z" />
<glyph unicode="&#x435;" horiz-adv-x="1041" d="M98 526q0 132 35.5 238t98.5 175.5t148.5 106.5t186.5 37q195 0 299 -127t104 -341q0 -44 -7 -99h-692q0 -93 14 -161t48.5 -124.5t97.5 -85.5t155 -29q155 0 278 106l57 -132q-71 -52 -173.5 -81.5t-172.5 -29.5q-228 0 -352.5 146.5t-124.5 400.5zM271 621h546v31 q0 78 -16.5 135.5t-42 90t-60.5 52.5t-65.5 26t-64.5 6q-39 0 -75.5 -7.5t-78.5 -30t-72.5 -59t-50.5 -99.5t-20 -145z" />
<glyph unicode="&#x43e;" horiz-adv-x="1194" d="M115 530q0 114 29.5 213t87 175.5t151.5 120.5t214 44q96 0 176.5 -28.5t136.5 -79.5t95 -121t57 -151.5t18 -172.5q0 -115 -29.5 -213.5t-87.5 -174t-152 -118t-214 -42.5q-97 0 -177 28t-136 77.5t-94.5 119t-56.5 150.5t-18 173zM280 529.5q0 -93.5 18.5 -169 t55 -133.5t98.5 -89.5t145 -31.5t145 31.5t99 89.5t55 133.5t18 169t-18.5 169.5t-55 134.5t-98.5 90.5t-145 32t-145 -31.5t-98.5 -90.5t-55 -135t-18.5 -169.5z" />
<glyph unicode="&#x440;" horiz-adv-x="1232" d="M185 -443v1507h128l30 -180q62 81 150 140t190 59q71 0 131.5 -19t103.5 -51t77 -76.5t55.5 -93.5t35.5 -104.5t19.5 -106t5.5 -101.5q0 -85 -15 -163.5t-48.5 -149.5t-82.5 -122.5t-120.5 -82.5t-160.5 -31q-97 0 -184 48.5t-142 118.5v-572zM358 259q7 -8 32.5 -28.5 t67.5 -48.5t99 -49t110 -21q27 0 48.5 2t55 13.5t58.5 31t50.5 59.5t39.5 94q26 98 26 182q0 66 -5 123t-22 122t-44.5 110t-76 74.5t-113.5 29.5q-54 0 -112 -18.5t-101.5 -44.5t-72.5 -46.5t-40 -33.5v-551z" />
<glyph unicode="&#x441;" horiz-adv-x="1021" d="M98 528q0 -128 31 -227t79 -158t111.5 -97.5t122 -52.5t119.5 -14q185 0 355 122l-52 122q-115 -107 -299 -107q-60 0 -110.5 20.5t-93 66t-66.5 128.5t-24 197q0 214 79.5 316t228.5 102q164 0 285 -105l52 121q-171 121 -353 121q-61 0 -120.5 -15t-123 -54 t-111.5 -99.5t-79 -160.5t-31 -226z" />
<glyph unicode="&#x443;" horiz-adv-x="1112" d="M85 1064h165l323 -837l274 837h178l-398 -1098q-44 -120 -57 -151q-81 -173 -223 -216q-53 -17 -115 -17l-46 114q137 24 197 86.5t112 238.5z" />
<glyph unicode="&#x445;" horiz-adv-x="1071" d="M82 1064h196l257 -425l264 425h191l-369 -533l362 -531h-186l-256 434l-263 -434h-192l371 531z" />
<glyph unicode="&#x2010;" d="M122 462v143h615v-143h-615z" />
<glyph unicode="&#x2011;" d="M122 462v143h615v-143h-615z" />
<glyph unicode="&#x2012;" d="M122 462v143h615v-143h-615z" />
<glyph unicode="&#x2013;" horiz-adv-x="1151" d="M329 505v131h428v-131h-428z" />
<glyph unicode="&#x2014;" horiz-adv-x="1151" d="M116 505v131h855v-131h-855z" />
<glyph unicode="&#x2018;" horiz-adv-x="707" d="M62 805l220 81l139 -562l-61 -24z" />
<glyph unicode="&#x2019;" horiz-adv-x="488" d="M104 1170v267h255v-227q0 -103 -53 -172t-155 -98l-46 86q68 23 93 54t25 90h-119z" />
<glyph unicode="&#x201a;" horiz-adv-x="588" d="M204 0v267h256v-227q0 -104 -53.5 -172.5t-155.5 -97.5l-46 85q68 24 93 55t25 90h-119z" />
<glyph unicode="&#x201c;" horiz-adv-x="854" d="M128 967v227q0 104 53.5 172.5t155.5 97.5l46 -85q-68 -24 -93 -55t-25 -90h119v-267h-256zM464 967v227q0 104 53.5 172.5t154.5 97.5l47 -85q-68 -24 -93 -55t-25 -90h119v-267h-256z" />
<glyph unicode="&#x201d;" horiz-adv-x="756" d="M102 1170v267h256v-227q0 -103 -53.5 -172t-155.5 -98l-46 86q68 23 93 54t25 90h-119zM438 1170v267h255v-227q0 -103 -53 -172t-155 -98l-46 86q68 23 93 54t25 90h-119z" />
<glyph unicode="&#x201e;" horiz-adv-x="1011" d="M264 -17v266h256v-226q0 -104 -53.5 -172.5t-155.5 -98.5l-46 86q68 24 93 55t25 90h-119zM600 -17v266h255v-226q0 -104 -53 -172.5t-155 -98.5l-46 86q68 24 93 55t25 90h-119z" />
<glyph unicode="&#x2026;" horiz-adv-x="1414" d="M121 89q0 43 28.5 74t73.5 31q44 0 71 -30.5t27 -74t-27 -74t-71 -30.5q-45 0 -73.5 30.5t-28.5 73.5zM592 89q0 43 29 74t73 31t71.5 -30.5t27.5 -74t-27.5 -74t-71.5 -30.5t-73 30.5t-29 73.5zM1064 89q0 43 28.5 74t73.5 31q43 0 70.5 -30.5t27.5 -74t-27.5 -74 t-70.5 -30.5q-45 0 -73.5 30.5t-28.5 73.5z" />
<glyph unicode="&#x2039;" horiz-adv-x="698" d="M73 438v168l553 349v-189l-407 -241l407 -247v-188z" />
<glyph unicode="&#x203a;" horiz-adv-x="698" d="M73 90v188l406 247l-406 241v189l553 -349v-168z" />
<glyph unicode="&#x20ac;" horiz-adv-x="1057" d="M44 736v111h185q7 106 38 190t86.5 145t139.5 94t192 33q48 0 93.5 -5t77 -14t57 -17.5t37.5 -13.5l13 -7l-39 -111q-13 6 -35 14t-85 21.5t-122 13.5q-147 0 -226 -88t-79 -255h358v-111h-368q-3 -25 -5 -103h321l-1 -111h-321v-10q0 -89 17 -161q17 -76 45.5 -123.5 t68 -78.5t78.5 -43t82 -13q41 0 82 7t71.5 17t55.5 20t37.5 17t12.5 8l47 -112q-6 -4 -16 -10t-42 -20.5t-67.5 -25t-91.5 -19.5t-116 -9q-1 -1 -3 -1q-58 0 -115 21t-109.5 66.5t-93.5 110.5t-66.5 157.5t-30.5 201.5h-149l1 111h145q2 79 3 103h-163z" />
<glyph unicode="&#x2122;" horiz-adv-x="1486" d="M66 1192v94h504v-94h-191v-624h-122v624h-191zM670 568v718h208l168 -596l167 596h208v-718h-115v604l-179 -604h-162l-179 604v-604h-116z" />
<glyph unicode="&#xe000;" horiz-adv-x="1065" d="M0 1065h1065v-1065h-1065v1065z" />
</font>
</defs>
</svg>
