<?xml version="1.0" standalone="no"?>
<!DOCTYPE svg PUBLIC "-//W3C//DTD SVG 1.1//EN" "http://www.w3.org/Graphics/SVG/1.1/DTD/svg11.dtd" >
<svg xmlns="http://www.w3.org/2000/svg">
<metadata>
This is a custom SVG webfont generated by Font Squirrel.
Copyright   : Copyright c SIL International 20032008
Designer    : J Victor Gaultney and Annie Olsen
Foundry     : SIL International
Foundry URL : httpscriptssilorg
</metadata>
<defs>
<font id="GentiumBasicRegular" horiz-adv-x="1105" >
<font-face units-per-em="2048" ascent="1638" descent="-410" />
<missing-glyph horiz-adv-x="518" />
<glyph unicode=" "  horiz-adv-x="518" />
<glyph unicode="&#x09;" horiz-adv-x="518" />
<glyph unicode="&#xa0;" horiz-adv-x="518" />
<glyph unicode="!" horiz-adv-x="640" d="M175 83q0 39 12.5 73t34.5 60t51 40.5t62 14.5q57 0 85 -33.5t28 -96.5q0 -40 -12 -74t-33 -59t-50.5 -39.5t-62.5 -14.5q-62 0 -88.5 33.5t-26.5 95.5zM202 1608q44 28 92.5 53t87.5 41l49 -29l-56 -1226q-22 -16 -39 -25.5t-46 -19.5l-34 25z" />
<glyph unicode="&#x22;" horiz-adv-x="1000" d="M184 1640q13 7 37 16l50 20l49 16.5t35 9.5l50 -24l-50 -719q-9 -5 -22 -9.5t-28 -8t-30.5 -5t-29.5 -1.5zM596 1640q12 7 36 16l50 20q26 9 50 16.5t36 9.5l50 -24l-50 -719q-9 -5 -22 -9.5t-28.5 -8t-31.5 -5t-29 -1.5z" />
<glyph unicode="#" d="M100 575q6 23 15 52t20 51h197l84 295h-165l-29 27q6 26 16 54t20 51h196l96 334q25 18 50.5 27t50.5 20l33 -26l-102 -355h216l96 334q25 18 51 27t52 20l31 -26l-101 -355h174l28 -29q-5 -25 -15.5 -54.5t-19.5 -48.5h-205l-84 -295h174l25 -31q-6 -23 -14.5 -52 t-17.5 -49h-205l-100 -350q-21 -17 -48.5 -28.5t-57.5 -21.5l-30 23l107 377h-217l-100 -350q-21 -17 -47.5 -28.5t-56.5 -21.5l-30 23l107 377h-169zM459 678h217l84 295h-216z" />
<glyph unicode="$" d="M101 225q0 43 3.5 88.5t12.5 77.5l50 -5q55 -118 140 -179.5t190 -75.5v551q-71 26 -139.5 55t-123.5 70t-88 98.5t-33 142.5q0 48 19 104t63.5 104.5t118.5 85.5t183 50v167l23 14q7 5 12.5 8t13 4.5t24.5 6.5l30 -26v-170q53 -1 103 -8.5t94 -21.5t78.5 -33t57.5 -40 q7 -8 -2 -29.5t-25 -46t-35.5 -49t-34.5 -38.5l-45 10q-46 53 -94 85t-97 46v-434q72 -27 142 -59.5t125 -79t89.5 -110.5t34.5 -154q0 -69 -24.5 -140.5t-74 -132.5t-122.5 -106t-170 -60v-159q-10 -10 -17.5 -15t-15 -8.5t-16.5 -6.5t-23 -6l-31 25v163q-55 2 -102.5 8.5 t-92 21.5t-89.5 37.5t-96 54.5q-8 6 -12 39t-4 76zM259 1102q0 -44 18.5 -77t50.5 -59t75.5 -47.5t93.5 -41.5v405q-67 -2 -112.5 -18.5t-73.5 -42t-40 -57t-12 -62.5zM600 130q46 6 88.5 26t75.5 51.5t52.5 73.5t19.5 92q0 54 -18.5 95t-50.5 73t-75 56t-92 45v-512z" />
<glyph unicode="%" horiz-adv-x="1624" d="M87 1032q0 79 28 149.5t74.5 123t107.5 83.5t127 31q69 0 125.5 -30.5t97.5 -83.5t63.5 -123t22.5 -150t-28 -150.5t-74.5 -124t-108 -84.5t-129.5 -31t-123.5 31t-96.5 84.5t-63.5 124t-22.5 150.5zM229 1l984 1365q32 20 75 33.5t78 23.5l34 -38l-988 -1365 q-11 -8 -31 -17t-43 -16.5t-45.5 -14t-36.5 -11.5zM254 1058q0 -83 12.5 -144t35 -100.5t54.5 -59t68 -19.5q28 0 54 17t45.5 51.5t31 86t11.5 119.5q0 81 -14.5 141t-38.5 99t-55 58t-65 19q-25 0 -49.5 -16.5t-45 -50t-32.5 -83.5t-12 -118zM895 355q0 80 28 150.5 t74.5 123.5t107.5 83.5t127 30.5q69 0 125 -30.5t96.5 -83t62.5 -123t22 -151.5q0 -79 -28 -149.5t-74 -124t-107.5 -84.5t-127.5 -31q-67 0 -123.5 31t-96.5 84.5t-63 124t-23 149.5zM1063 382q0 -83 12.5 -144t35 -100.5t53.5 -59t68 -19.5q28 0 53.5 17t45 51.5t31 85.5 t11.5 119q0 81 -14.5 140.5t-38.5 99.5t-55 59t-64 19q-26 0 -50.5 -17t-44 -50t-31.5 -83t-12 -118z" />
<glyph unicode="&#x26;" horiz-adv-x="1570" d="M92 405q0 64 23 131t66.5 132.5t108 128.5t147.5 122q-33 81 -52.5 160t-19.5 155q0 93 31 172.5t82.5 137.5t119 91t139.5 33q74 0 124 -24t80.5 -63t43.5 -90t13 -106q0 -121 -75 -226.5t-212 -190.5l-41 -27l-39 -26q41 -74 91 -149t105.5 -147.5t115.5 -140.5 l117 -127q37 57 56 116t19 110q0 49 -16 91.5t-42 74t-59.5 50t-66.5 18.5l-25 32q12 15 37 32t48 27h510l27 -42q-29 -35 -57 -59t-57 -43q-21 10 -47.5 18t-53.5 14.5t-52 10t-45 4.5q13 -21 20.5 -38.5t11.5 -38.5t5 -45.5t1 -58.5q0 -81 -35.5 -172t-101.5 -177 q80 -76 146 -129q44 -37 95 -49q21 -5 46 -5q33 0 71 9l10 -49q-100 -44 -168.5 -65t-93.5 -21t-88.5 46t-145.5 125q-90 -76 -200.5 -123.5t-235.5 -47.5q-107 0 -195.5 28t-152 83t-98.5 137.5t-35 190.5zM278 429q0 -81 28 -143t74 -104t105 -63.5t122 -21.5 q98 0 179.5 31t147.5 82l-119 129q-61 70 -119 146.5t-111.5 158.5t-95.5 164q-59 -50 -99 -97t-65 -94t-36 -93.5t-11 -94.5zM511 1300q0 -67 19.5 -140t53.5 -149q78 45 127.5 88.5t78 86t38.5 83t10 78.5q0 40 -10 75.5t-30.5 62.5t-51 43t-70.5 16q-41 0 -72 -21 t-52 -55.5t-31 -79t-10 -88.5z" />
<glyph unicode="'" horiz-adv-x="588" d="M184 1640q13 7 37 16l50 20l49 16.5t35 9.5l50 -24l-50 -719q-9 -5 -22 -9.5t-28 -8t-30.5 -5t-29.5 -1.5z" />
<glyph unicode="(" horiz-adv-x="746" d="M139 716q0 189 37.5 365t106.5 324.5t166 260.5t216 174l37 -52q-75 -62 -142 -163t-117 -234.5t-79 -295.5t-29 -346q0 -168 24 -327.5t71 -298t115 -250t157 -183.5l-37 -52q-130 60 -228.5 167.5t-164.5 249t-99.5 310.5t-33.5 351z" />
<glyph unicode=")" horiz-adv-x="746" d="M47 -310q74 62 140.5 163t117 234.5t80 295.5t29.5 347q0 167 -24 326.5t-70.5 298.5t-115 250.5t-157.5 182.5l36 52q130 -59 228 -166.5t165 -249t100.5 -310t33.5 -350.5q0 -190 -38 -366.5t-107 -325t-166.5 -260.5t-215.5 -174z" />
<glyph unicode="*" horiz-adv-x="1052" d="M80 1142l375 161l-347 148q1 14 1.5 32t2 36.5t3.5 35t7 27.5l40 27l328 -244l-45 375l29 15l32 16q17 8 33 14.5t29 9.5l42 -24l-48 -405l300 226l57 -37q33 -21 52 -40l2 -48l-375 -162l346 -148q-2 -29 -3 -68t-11 -64l-42 -27l-324 243l43 -372l-27 -15 q-15 -9 -32 -16.5t-32.5 -13.5t-27.5 -9l-45 21l48 405l-300 -226q-13 9 -28.5 18.5t-30.5 20.5l-28 20q-13 9 -21 18z" />
<glyph unicode="+" horiz-adv-x="965" d="M70 611q6 23 15.5 49.5t20.5 49.5h310v315l51 17q29 10 54 16l28 -26v-322h318l28 -28q-6 -23 -16 -51t-19 -48h-311v-312q-23 -11 -51 -20t-53 -15l-29 25v322h-317z" />
<glyph unicode="," horiz-adv-x="539" d="M101 160q11 14 44 31.5t73 34.5t79 27q35 10 54 10h4q56 -26 74.5 -71.5t18.5 -111.5q0 -44 -17.5 -100.5t-51 -115t-81 -114.5t-107.5 -101l-52 41q32 36 54.5 70.5t37.5 71.5t22 78t7 90q0 51 -34 80q-29 26 -89 26h-17z" />
<glyph unicode="-" horiz-adv-x="793" d="M70 551q6 25 15.5 53t20.5 52h589l28 -28q-7 -25 -16.5 -55t-18.5 -50h-589z" />
<glyph unicode="." horiz-adv-x="539" d="M151 83q0 39 12.5 73t34.5 60t51 40.5t61 14.5q58 0 86 -33.5t28 -96.5q0 -40 -12 -74t-33 -59t-50.5 -39.5t-62.5 -14.5q-62 0 -88.5 33.5t-26.5 95.5z" />
<glyph unicode="/" d="M56 -356l806 2140q32 19 69.5 33t71.5 23l42 -25l-802 -2142q-12 -8 -30.5 -16.5t-39.5 -15.5l-40 -15q-20 -7 -34 -11z" />
<glyph unicode="0" d="M87 692q0 149 36 281t99.5 231.5t153.5 157.5t199 58t192 -57.5t138.5 -156.5t84 -231.5t28.5 -282.5q0 -148 -35 -280.5t-99 -231t-154.5 -156.5t-199.5 -58t-192 58t-138.5 156.5t-84 231t-28.5 280.5zM276 742q0 -158 23 -278.5t62.5 -201.5t94.5 -122.5t119 -41.5 q60 0 107 31.5t80 99t50 171.5t17 250q0 157 -24.5 276.5t-66 199.5t-95.5 121t-113 41q-58 0 -105.5 -31.5t-80 -98t-50.5 -169.5t-18 -247z" />
<glyph unicode="1" d="M160 1236q48 14 114 38t134 52l129 57q61 28 99 49l42 -40v-1228q0 -11 13 -24.5t45 -27t88 -27.5t142 -24v-61h-770v61q89 10 149 23.5t95.5 27t50.5 27t15 25.5v917q0 46 -3.5 71.5t-17.5 41.5q-7 7 -26.5 11.5t-55 3.5t-89.5 -8t-130 -23z" />
<glyph unicode="2" d="M113 85l238 281l174 215q73 94 120 164.5t75 126.5t38 101.5t10 89.5q0 53 -12.5 99.5t-40 81t-72 54t-106.5 19.5q-47 0 -86.5 -23t-68 -58t-44.5 -78.5t-16 -83.5q-20 -10 -35.5 -19.5t-31.5 -17t-35 -12.5t-45 -7l-31 34q0 60 40 125t107 119t151.5 89t172.5 35 q69 0 129.5 -19.5t105.5 -59t70.5 -101t25.5 -145.5q0 -52 -14.5 -103.5t-46.5 -112t-82 -132t-121 -160.5l-164 -199l-212 -249h481q19 0 34.5 8.5t27.5 23t21 33t14 38.5q14 44 20 102l57 -14l-17 -330h-798z" />
<glyph unicode="3" d="M78 137l39 77q52 -39 95 -64.5t81.5 -41t76.5 -22t82 -6.5q70 0 127.5 22.5t99 64t64 101t22.5 132.5q0 86 -27 146.5t-69 98.5t-94.5 54.5t-102.5 16.5h-25q-7 0 -13 -1t-14.5 -2t-26.5 -5l-16 69q106 29 169.5 67t97 79t44.5 81.5t11 76.5q0 39 -12 81t-38 76.5 t-65 56.5t-94 22q-46 0 -82.5 -16t-60.5 -44t-34 -64q-5 -21 -5 -44q0 -15 2 -30q-39 -20 -74.5 -30.5t-84.5 -14.5l-31 36q0 48 35.5 102.5t95 100.5t138.5 76.5t166 30.5t148.5 -27.5t101.5 -73t59 -102.5t19 -115q0 -44 -17 -86.5t-49 -81.5t-77 -72.5t-102 -58.5 q66 -8 123 -40t98 -80.5t65.5 -111.5t24.5 -133q0 -96 -31 -182.5t-92 -151t-151 -101.5t-208 -37q-45 0 -92 8t-96 28t-99 52.5t-102 82.5z" />
<glyph unicode="4" d="M63 440l571 910q48 21 86 42l71 40l43 -40v-863h141l30 -35q-24 -36 -44 -54t-47 -38h-80v-282q0 -10 7 -17.5t25 -16t49 -17.5t79 -20v-49h-563v49q75 13 122 24t73.5 21t36.5 19t10 19v270h-572zM245 529h428v667z" />
<glyph unicode="5" d="M90 137l40 77q61 -43 111 -68.5t92.5 -40t78 -20t69.5 -5.5q74 0 130 29t93 76.5t55 109t18 127.5q0 78 -19 142.5t-57.5 110t-97.5 70.5t-140 25q-24 0 -55 -5.5t-65 -17t-67.5 -28.5t-63.5 -41l-54 38q6 42 15.5 96.5t18.5 115.5l20 125q10 64 18 124t14 114.5t8 94.5 h501q34 0 59 3t44 7q20 5 36 10l34 -33q-13 -18 -29.5 -38.5t-34.5 -38.5l-34 -34q-16 -15 -30 -26h-445q-2 -33 -8 -85.5t-13.5 -107t-15.5 -102.5l-12 -74q46 14 108 22t120 8q105 0 185 -35t134 -93.5t82 -136t28 -160.5q0 -101 -30.5 -192t-88.5 -161.5t-143 -111.5 t-193 -41q-107 0 -211.5 39t-204.5 132z" />
<glyph unicode="6" d="M126 544q0 162 47 311t143.5 268.5t243 202t346.5 110.5l22 -68q-136 -31 -241 -93.5t-180.5 -145.5t-122 -181t-63.5 -200q40 39 82 65.5t81.5 42.5t75.5 23t62 7q93 0 165.5 -29t122.5 -82.5t76.5 -130t26.5 -170.5q0 -54 -12 -113t-36.5 -115t-61 -106.5t-84 -89 t-107.5 -61.5t-130 -23q-94 0 -177 41.5t-145 117.5t-98 182.5t-36 236.5zM310 616q0 -136 22.5 -235.5t64 -165t100 -97.5t130.5 -32q62 0 102.5 29.5t65.5 75t35.5 101t10.5 108.5q0 108 -26 177.5t-65 110t-85.5 56t-89.5 15.5q-59 0 -129.5 -33t-135.5 -110z" />
<glyph unicode="7" d="M120 1090q3 27 9 67l12 82l14 81.5t14 65.5h811l38 -44l-107 -250l-105 -250l-99 -239l-86 -219l-72 -187q-33 -85 -52 -146q-40 -29 -84.5 -50t-102.5 -35l-47 37q100 176 179 336l148 310l129 295l124 292h-522q-17 0 -33.5 -1t-33.5 -15.5t-37 -49t-45 -100.5z" />
<glyph unicode="8" d="M108 328q0 62 21.5 120t61 110.5t95.5 98.5t125 84q-50 23 -94 50.5t-77.5 64t-53 84.5t-19.5 112q0 80 31.5 147.5t86.5 116.5t130.5 76.5t161.5 27.5q87 0 154 -23t113.5 -63t71 -96.5t24.5 -123.5q0 -48 -18 -91t-49 -83t-74 -76.5t-94 -72.5q57 -27 110 -61t93.5 -80 t64.5 -106t24 -139q0 -90 -38 -169.5t-103.5 -139.5t-152.5 -95t-184 -35q-99 0 -175 29.5t-129 80t-80 115.5t-27 137zM292 362q0 -60 19.5 -111.5t56.5 -89.5t89 -59.5t118 -21.5q63 0 108.5 24.5t74.5 63.5t42 88t13 99q0 76 -27 130t-70.5 93.5t-100 68t-116.5 55.5 q-55 -41 -94 -79.5t-64 -78.5t-37 -85t-12 -97zM316 1092q0 -50 25 -87.5t66 -67t94 -54.5l112 -49q84 61 119 122t35 123q0 59 -18 103.5t-50 73.5t-78 42.5t-102 13.5q-52 0 -90 -19.5t-62.5 -51t-37.5 -70.5t-13 -79z" />
<glyph unicode="9" d="M115 914q0 58 15.5 118t45 116.5t71.5 106t93.5 86.5t112.5 58t129 21q80 0 155.5 -33t134 -104t93.5 -180t35 -262q0 -175 -47 -325t-143.5 -265.5t-243.5 -193.5t-348 -106l-20 67q153 38 264 100.5t184.5 144.5t113 183t51.5 218q-31 -35 -68 -63t-76.5 -47.5 t-81.5 -30.5t-81 -11q-92 0 -164 30.5t-122 84.5t-76.5 127.5t-26.5 159.5zM288 984q0 -105 25.5 -172.5t64.5 -106t86 -53t89 -14.5q79 0 146.5 44.5t115.5 115.5q-2 144 -29 240.5t-67.5 154.5t-89 82.5t-94.5 24.5q-59 0 -105 -24t-77.5 -66t-48 -100t-16.5 -126z" />
<glyph unicode=":" horiz-adv-x="539" d="M151 83q0 39 12.5 73t34.5 60t51 40.5t61 14.5q58 0 86 -33.5t28 -96.5q0 -40 -12 -74t-33 -59t-50.5 -39.5t-62.5 -14.5q-62 0 -88.5 33.5t-26.5 95.5zM151 917q0 39 12.5 73t34.5 60t51 40.5t61 14.5q58 0 86 -33.5t28 -96.5q0 -40 -12 -74t-33 -59t-50.5 -39.5 t-62.5 -14.5q-62 0 -88.5 33.5t-26.5 95.5z" />
<glyph unicode=";" horiz-adv-x="539" d="M101 160q11 14 44 31.5t73 34.5t78.5 27.5t58.5 9.5q56 -26 74.5 -71.5t18.5 -111.5q0 -44 -17.5 -100.5t-51 -115t-81 -114.5t-107.5 -101l-52 41q32 36 54.5 70.5t37.5 71.5t22 78t7 90q0 51 -34 80q-29 26 -89 26h-17zM151 917q0 39 12.5 73t34.5 60t51 40.5t61 14.5 q58 0 86 -33.5t28 -96.5q0 -40 -12 -74t-33 -59t-50.5 -39.5t-62.5 -14.5q-62 0 -88.5 33.5t-26.5 95.5z" />
<glyph unicode="&#x3c;" horiz-adv-x="1033" d="M70 610q0 2 0.5 3t0.5 3l4 11q0 2 2 9l3 15l4 9q1 4 1.5 8t3.5 7l2 9l7 21l6 14l2 4l829 311l29 -29l-8 -27l-8 -32l-10 -31q-4 -15 -8 -25l-638 -237l652 -241l20 -42q-13 -11 -22.5 -20.5t-20.5 -18t-24 -17.5l-30 -20l-768 288z" />
<glyph unicode="=" horiz-adv-x="1033" d="M70 439q6 23 15.5 48t20.5 48h829l29 -29q-6 -24 -16.5 -50t-17.5 -48h-831zM70 782q6 23 15.5 49.5t20.5 48.5h829l29 -29q-6 -23 -16.5 -50.5t-17.5 -47.5h-831z" />
<glyph unicode="&#x3e;" horiz-adv-x="1033" d="M70 323q4 12 8 27l10 31l8 30q5 15 10 25l633 237l-649 241l-20 45l52 39l45 36l770 -288l27 -27l-16 -56q-10 -34 -20 -60l-829 -309z" />
<glyph unicode="?" horiz-adv-x="1020" d="M92 1306v20q0 80 39.5 149t107 120t155 79t183.5 28q84 0 149.5 -26.5t110 -74t67.5 -114.5t23 -147q0 -86 -27 -155t-68.5 -129t-90 -114.5t-91.5 -113t-74 -124t-37 -146.5l-7 -111q-21 -16 -38 -27t-49 -20l-29 24l-9 134v15q0 58 20 115q23 65 59.5 128t81 124.5 t82.5 120t63 115.5t25 112q0 143 -65 223.5t-185 80.5q-42 0 -79.5 -19t-66 -50t-45 -72.5t-16.5 -86.5q0 -16 4 -33.5t9 -33.5q-36 -19 -76.5 -28.5t-92.5 -14.5l-31 34q-2 9 -2 18zM346 83q0 39 12.5 73t34.5 60t51.5 40.5t61.5 14.5q58 0 86 -33.5t28 -96.5 q0 -40 -12 -74t-33.5 -59t-51 -39.5t-62.5 -14.5q-62 0 -88.5 33.5t-26.5 95.5z" />
<glyph unicode="@" horiz-adv-x="1900" d="M80 535q0 130 35.5 254.5t99.5 235.5t154 204t199 160.5t234.5 105.5t260.5 38q171 0 310.5 -58t239 -172t153.5 -282.5t54 -389.5q0 -100 -22 -188t-60.5 -161.5t-89 -132t-104.5 -99.5t-109 -62.5t-104 -21.5q-28 0 -53.5 12t-46 38.5t-35.5 68t-23 101.5 q-47 -65 -83.5 -107.5t-71 -68t-70 -35t-81.5 -9.5q-59 0 -119 37t-108.5 107.5t-79.5 171.5t-31 229q0 65 15.5 135t45.5 136t73.5 124.5t98 102.5t120.5 69.5t140 25.5q27 0 48.5 -4t43 -15.5t45.5 -32t54 -54.5q30 19 61 44.5t63 61.5l36 -34q-10 -34 -17 -72 q-7 -33 -12 -75.5t-5 -91.5v-503q0 -104 34.5 -153.5t89.5 -49.5q29 0 66.5 36.5t71.5 99t57.5 147t23.5 181.5q0 193 -49 343.5t-137 253t-210 156t-268 53.5q-118 0 -220 -30t-187 -83.5t-151.5 -127t-112.5 -161.5t-70 -187.5t-24 -202.5q0 -140 29.5 -260t81.5 -219.5 t125 -177t160.5 -131t186.5 -81t202 -27.5q97 0 189.5 20t172 50t141 64.5t95.5 64.5l32 -64q-42 -43 -108 -91.5t-153 -88.5t-194 -66.5t-231 -26.5q-198 0 -363.5 67.5t-285 193.5t-186.5 305t-67 400zM702 546q0 -98 23.5 -177.5t59.5 -136t79.5 -87t84.5 -30.5 q22 0 42.5 7.5t44.5 27t55 53t75 85.5v553q-32 64 -71 100.5t-108 36.5q-64 0 -116 -27.5t-90 -81.5t-58.5 -134.5t-20.5 -188.5z" />
<glyph unicode="A" horiz-adv-x="1401" d="M0 0v49q78 14 124 29t58 50l428 1295q26 28 65 52l69 40l483 -1387q6 -16 16.5 -29t27.5 -22t43.5 -16t63.5 -12v-49h-486v49q90 5 124 23q25 13 26 37q0 9 -4 19l-131 384h-469l-128 -384q-2 -7 -2 -14q0 -25 33 -38q42 -16 137 -27v-49h-478zM473 615h399l-203 591z " />
<glyph unicode="B" horiz-adv-x="1294" d="M47 1414q45 13 104 25t125 22t133.5 16.5t129.5 6.5q115 0 208.5 -21.5t158.5 -62t100 -98t35 -129.5q0 -124 -59 -213t-160 -129q74 -13 137 -51t110 -94t73 -126.5t26 -150.5q0 -97 -38.5 -176t-108 -134t-166 -85t-212.5 -30q-25 0 -60.5 0.5t-75.5 1.5t-82.5 2.5 t-82.5 3.5q-96 3 -201 8h-83v49q78 17 122 36t44 35v1248q-43 -5 -85 -11.5t-81 -13.5zM408 120q0 -10 11 -18q19 -7 44.5 -11t52 -6t53 -3.5t49.5 -1.5q82 0 149 21.5t114.5 59.5t73 91.5t25.5 117.5t-22.5 130.5t-69 121.5t-118.5 90.5t-172 35.5q-55 0 -101.5 -5.5 t-88.5 -12.5v-610zM408 834h39q131 0 212.5 26t126 66t60.5 90.5t16 100.5q0 57 -18.5 106.5t-63.5 86t-119.5 57t-185.5 20.5q-16 0 -32.5 -0.5t-34.5 -1.5v-551z" />
<glyph unicode="C" horiz-adv-x="1262" d="M80 674q0 184 56 333.5t151.5 255t222 163.5t267.5 58q125 0 218.5 -33.5t153.5 -82.5q7 -5 -3.5 -22.5t-28.5 -39.5l-38 -43q-20 -22 -34 -36l-40 7q-59 54 -139.5 88.5t-184.5 34.5q-39 0 -85.5 -14.5t-94 -45.5t-91 -81t-77.5 -121t-54 -165t-20 -214q0 -152 44 -267 t113.5 -191.5t155.5 -115t167 -38.5q63 0 163 42.5t226 147.5q6 -2 12.5 -9.5t12 -15.5t10 -15.5t8.5 -10.5q-74 -79 -141 -132t-130 -85.5t-123.5 -46t-119.5 -13.5q-107 0 -210 48t-184.5 139t-132 222.5t-50.5 298.5z" />
<glyph unicode="D" horiz-adv-x="1396" d="M47 1414q51 14 117 27t139.5 22.5t149 15t143.5 5.5q160 0 288.5 -48t219 -139t139 -222t48.5 -298q0 -143 -29 -256.5t-78.5 -200.5t-114.5 -147t-137.5 -98.5t-146.5 -56.5t-142 -18h-585v49q78 17 122 36t44 35v1246l-87 -12l-79 -11zM408 177q0 -25 12 -41 q16 -20 62 -29.5t136 -9.5q79 0 163.5 38.5t154.5 117t115 198t45 282.5q0 153 -38 274t-111 205.5t-180.5 129.5t-245.5 45q-58 0 -113 -4v-1206z" />
<glyph unicode="E" horiz-adv-x="1168" d="M58 0v49q78 17 122 36t44 35v1208q0 14 -42 34.5t-124 37.5v49h926l38 -29q-2 -30 -6.5 -65.5t-11.5 -71t-14.5 -68t-14.5 -53.5h-52q-2 52 -9.5 88t-19 57t-28 30t-37.5 9h-421v-501h466l30 -32q-9 -16 -23 -34l-27 -37q-14 -18 -28.5 -32.5t-27.5 -24.5 q-17 18 -37 29.5t-46 19.5t-61 11.5t-84 3.5h-162v-572q0 -17 8 -30.5t33.5 -23t71.5 -14.5t122 -5h148q53 0 90.5 5.5t66 25.5t52.5 59t48 107l49 -20q-9 -99 -23.5 -173.5t-23.5 -107.5h-992z" />
<glyph unicode="F" horiz-adv-x="1125" d="M58 0v49q78 17 122 36t44 35v1208q0 14 -42 34.5t-124 37.5v49h938l36 -29q-2 -30 -6.5 -65.5t-10.5 -71t-13.5 -68t-14.5 -53.5h-54q-3 52 -9 88t-18 57t-29 30t-39 9h-430v-501h430l34 -32l-24 -34l-29 -36.5t-29.5 -33t-25.5 -24.5q-18 18 -37.5 29.5t-45 19.5 t-61 11.5t-83.5 3.5h-129v-629q0 -14 44.5 -31.5t157.5 -39.5v-49h-552z" />
<glyph unicode="G" horiz-adv-x="1373" d="M80 669q0 191 60.5 342.5t165.5 256.5t244.5 160.5t297.5 55.5q38 0 83 -8.5t92.5 -23t93 -36.5t81.5 -50q8 -6 -2 -22.5t-29 -37t-41 -40.5l-38 -34l-38 7q-38 35 -78 58.5t-84.5 36.5t-94 18t-105.5 5q-29 0 -72 -13t-91 -42.5t-95 -77.5t-85.5 -117.5t-62 -162 t-23.5 -211.5q0 -160 42.5 -278.5t111.5 -196t155 -116t174 -38.5q84 0 154.5 16.5t127.5 47.5v390q0 12 -11 24.5t-38 24t-72.5 23t-115.5 22.5v50h530v-50q-66 -16 -93.5 -42t-27.5 -52v-381q-85 -70 -152.5 -111.5t-123.5 -64t-107 -29t-102 -6.5q-116 0 -229 43 t-202 131t-144.5 219.5t-55.5 309.5z" />
<glyph unicode="H" horiz-adv-x="1539" d="M58 0v49q78 17 122 36t44 35v1208q0 14 -42 34.5t-124 37.5v49h517v-49q-78 -17 -122.5 -36.5t-44.5 -35.5v-517h702v517q0 14 -42 34.5t-125 37.5v49h517v-49q-78 -17 -122 -36.5t-44 -35.5v-1208q0 -14 42 -34t124 -37v-49h-517v49q78 17 122.5 36t44.5 35v587h-702 v-587q0 -14 41.5 -34t125.5 -37v-49h-517z" />
<glyph unicode="I" horiz-adv-x="701" d="M80 0v49q79 17 123 36t44 35v1208q0 14 -42 34.5t-125 37.5v49h518v-49q-78 -17 -122.5 -36.5t-44.5 -35.5v-1208q0 -14 42 -34t125 -37v-49h-518z" />
<glyph unicode="J" horiz-adv-x="718" d="M-218 -345q0 9 14.5 26.5t35.5 34.5t44 32.5t39 21.5q32 -21 56 -34t45 -20t40 -9.5t41 -2.5q29 0 63 20t62.5 70t47 137t18.5 222v1175q0 7 -9.5 15t-34 17.5t-68.5 19t-113 20.5v49h575v-49q-78 -17 -122 -36.5t-44 -35.5v-1092q0 -137 -19 -228.5t-51 -154.5t-73 -105 t-86 -79q-31 -25 -68.5 -45t-75.5 -33.5t-72 -20.5t-56 -7q-34 0 -68.5 11t-61 25.5t-43 30t-16.5 25.5z" />
<glyph unicode="K" horiz-adv-x="1361" d="M58 49q78 17 122 36t44 35v1208q0 14 -42 34.5t-124 37.5v49h517v-49q-78 -17 -122.5 -36.5t-44.5 -35.5v-585l471 554q26 31 33 49.5t-4.5 29t-40.5 15.5t-73 9v49h482v-49q-36 -5 -65 -9.5t-52 -12t-42 -19t-36 -31.5l-504 -556l556 -626q20 -23 44 -35.5t51 -18 t55.5 -4.5t58.5 4l8 -49q-68 -22 -136.5 -40.5t-123.5 -18.5q-33 0 -59 10.5t-49 38.5l-574 702v-615q0 -14 41.5 -34t125.5 -37v-49h-517v49z" />
<glyph unicode="L" horiz-adv-x="1121" d="M58 0v49q78 17 122 36t44 35v1208q0 14 -42 34.5t-124 37.5v49h517v-49q-78 -17 -122.5 -36.5t-44.5 -35.5v-1139q0 -21 10 -36.5t34 -26.5t65.5 -16.5t104.5 -5.5h165q53 0 89 5.5t63.5 25.5t50 59t46.5 107l50 -20q-10 -100 -24 -174t-24 -107h-980z" />
<glyph unicode="M" horiz-adv-x="1898" d="M69 0v49q79 17 123 36t44 35l11 1234q-43 25 -87.5 35.5t-79.5 10.5v49h329q12 0 20 -3.5t15.5 -14t15.5 -29.5l23 -50l458 -1037l439 1037l24 54q9 20 16.5 29t15 11.5t18.5 2.5h328v-49q-33 0 -73.5 -11t-81.5 -31l12 -1238q0 -14 42 -34t125 -37v-49h-524v49 q78 17 128 36t50 35l-10 1076l-504 -1196h-56l-512 1188l-10 -1068q0 -14 42 -34t125 -37v-49h-466z" />
<glyph unicode="N" horiz-adv-x="1528" d="M58 0v49q85 11 125.5 33t40.5 38v1201q-38 36 -80 54t-86 25v49h243q18 0 28.5 -3t22.5 -12q10 -9 24 -27l36 -48l755 -1042v1011q0 14 -37.5 36.5t-129.5 35.5v49h472v-49q-83 -12 -125 -34t-42 -38v-1362q-57 6 -90 22.5t-47 35.5l-806 1118v-1022q0 -14 38.5 -36 t128.5 -35v-49h-471z" />
<glyph unicode="O" horiz-adv-x="1413" d="M80 704q0 156 51 297.5t138 248.5t205 170.5t254 63.5q143 0 251 -63t181.5 -166.5t111 -237t37.5 -273.5q0 -156 -52 -297t-141 -248t-206.5 -170t-248.5 -63q-138 0 -246 60.5t-182 163t-113.5 236t-39.5 278.5zM259 737q0 -129 35 -244t94 -201.5t138.5 -137 t168.5 -50.5q95 0 175 39.5t138 117.5t90 194.5t32 267.5q0 80 -14 157.5t-40.5 147t-65 129t-87 102.5t-106 67.5t-122.5 24.5q-103 0 -184 -43t-136.5 -123t-85.5 -194t-30 -254z" />
<glyph unicode="P" horiz-adv-x="1231" d="M47 1414q55 15 120 28t135.5 22t142 14.5t141.5 5.5q125 0 225 -26.5t170.5 -78.5t109 -128t38.5 -175q0 -79 -22.5 -144.5t-59.5 -116.5t-85.5 -88.5t-101 -62.5t-104.5 -37t-97 -12q-108 0 -185 35l-27 86q49 -22 93 -28t84 -6q53 0 110.5 20.5t106 62t79.5 102.5 t31 142q0 95 -34 162.5t-92.5 111t-136.5 64t-167 20.5q-29 0 -57 -0.5t-56 -1.5v-1265q0 -7 9.5 -15t32 -17.5t61.5 -18.5t99 -20v-49h-552v49q78 17 122 36t44 35v1248q-42 -5 -84 -11.5t-82 -13.5z" />
<glyph unicode="Q" horiz-adv-x="1413" d="M80 704q0 156 51 297.5t138 248.5t205 170.5t254 63.5q143 0 251 -63t181.5 -166.5t111 -237t37.5 -273.5q0 -122 -32.5 -236t-90 -210t-136 -169.5t-170.5 -114.5q53 -28 105 -62.5t102 -64.5t97.5 -50.5t89.5 -20.5q14 0 29.5 4.5t35 15t45 27.5t59.5 43l31 -41 q-27 -50 -56 -89.5t-56.5 -68t-52 -43.5t-42.5 -15q-71 0 -140.5 35t-138.5 85t-137.5 105t-137.5 95q-26 -3 -52 -3q-126 0 -233 58.5t-184 158.5t-120.5 234.5t-43.5 286.5zM259 737q0 -129 35 -244t94 -201.5t138.5 -137t168.5 -50.5q95 0 175 39.5t138 117.5t90 194.5 t32 267.5q0 80 -14 157.5t-40.5 147t-65 129t-87 102.5t-106 67.5t-122.5 24.5q-103 0 -184 -43t-136.5 -123t-85.5 -194t-30 -254z" />
<glyph unicode="R" horiz-adv-x="1321" d="M47 1414q54 14 109.5 26t115 22t125.5 16t142 6q134 0 233 -26.5t164.5 -74t97.5 -111t32 -137.5q0 -83 -23.5 -150t-66.5 -119t-103 -88.5t-131 -58.5l348 -559q17 -25 37.5 -40t45 -22.5t55.5 -8.5h8q27 0 61 3l13 -49q-76 -26 -144.5 -42.5t-113.5 -16.5 q-33 0 -64.5 18.5t-47.5 44.5l-349 645q-15 -2 -30 -2h-31q-30 0 -60 3t-62 10v-583q0 -14 41.5 -34t125.5 -37v-49h-517v49q78 17 122 36t44 35v1247q-40 -5 -82 -11l-84 -13zM408 795q31 -6 54 -7t49 -1q181 0 279 79.5t98 232.5q0 64 -22.5 116.5t-70 90.5t-122 59.5 t-176.5 21.5q-44 0 -89 -4v-588z" />
<glyph unicode="S" horiz-adv-x="1121" d="M135 198.5q0 46.5 3 95t13 79.5l47 -6q26 -68 66 -117.5t88 -82t104 -48t114 -15.5q52 0 104.5 21t94 58t67.5 85.5t26 104.5q0 70 -31 120.5t-81 89.5t-114 70l-132 62q-68 31 -132 65.5t-114 80.5t-81 106.5t-31 144.5q0 36 10.5 77t33.5 82.5t59 80t87.5 68t118 47 t150.5 17.5q52 0 104 -8.5t97.5 -22t82.5 -33t57 -42.5q8 -7 1 -27t-23 -44t-34.5 -47t-32.5 -35l-42 7q-32 38 -67 63.5t-71 42.5t-72 23.5t-68 6.5q-64 0 -109.5 -19.5t-75 -48.5t-43 -65.5t-13.5 -68.5q0 -54 31 -96t81.5 -77t115.5 -66l132 -65q68 -34 133 -73 t116 -89.5t82 -115.5t31 -150q0 -52 -14 -106t-42 -106.5t-70 -99t-99 -81t-129 -55t-158 -20.5q-38 0 -83 8t-92 22t-93.5 35t-86.5 47q-8 5 -12 39.5t-4 81z" />
<glyph unicode="T" horiz-adv-x="1297" d="M12 1166q5 68 15 145t22 138h1162l34 -29q-2 -58 -11 -128t-23 -142h-52q-11 53 -20 90.5t-20.5 61t-27 34t-39.5 10.5h-326v-1214q0 -15 41 -38t147 -45v-49h-561v49q53 11 89 22.5t58 22.5t32 20.5t10 17.5v1214h-344q-17 0 -31.5 -6.5t-29 -27.5t-33 -61t-43.5 -107z " />
<glyph unicode="U" horiz-adv-x="1539" d="M58 1400v49h517v-49q-78 -17 -122.5 -36.5t-44.5 -35.5v-760q0 -110 26 -197.5t77 -148t126 -92.5t174 -32q81 0 144.5 39.5t106.5 104t65.5 146.5t22.5 167v773q0 14 -42 34.5t-125 37.5v49h483v-49q-78 -17 -122 -36.5t-44 -35.5v-725q0 -151 -37 -269.5t-106 -200 t-168 -124.5t-223 -43q-119 0 -218.5 32.5t-171 100t-112 169.5t-40.5 243v817q0 14 -42 34.5t-124 37.5z" />
<glyph unicode="V" horiz-adv-x="1530" d="M23 1400v49h500v-49q-92 -7 -126 -24t-21 -50l406 -1093l386 1091q3 8 3 15q0 21 -31 33q-41 15 -135 28v49h479v-49q-79 -15 -123 -29.5t-56 -46.5l-440 -1256q-9 -25 -31.5 -43t-49 -30t-52 -19t-40.5 -10l-506 1358q-11 30 -51 48t-112 28z" />
<glyph unicode="W" horiz-adv-x="2002" d="M23 1400v49h493v-49q-56 -6 -88 -14.5t-48.5 -19t-19 -22.5t-0.5 -25l229 -1031l372 1161h64l407 -1161l215 1040q2 14 -10.5 24.5t-36.5 18.5t-57.5 15t-72.5 14v49h487v-49q-50 -11 -83.5 -20t-53 -17.5t-28 -17t-10.5 -17.5l-263 -1260q-6 -24 -25 -42t-43 -30 t-49 -19.5t-43 -10.5l-375 1120l-330 -1018q-8 -24 -27.5 -41.5t-44 -29.5t-51.5 -19.5t-50 -11.5l-299 1353q-6 29 -41.5 47.5t-117.5 33.5z" />
<glyph unicode="X" horiz-adv-x="1449" d="M36 0v49q74 6 127 27.5t82 69.5l365 595l-383 562q-18 25 -34 41t-36 26.5t-46 17t-64 12.5v49h519v-49q-98 -10 -128 -29q-14 -9 -14 -24q0 -18 19 -44l284 -417l260 417q16 26 13.5 43t-22 28t-55 16.5t-87.5 9.5v49h521v-49q-41 -5 -74 -11.5t-58.5 -17.5t-44 -27.5 t-33.5 -40.5l-335 -542l420 -615q17 -24 35 -40.5t39 -27.5t47.5 -17.5t59.5 -11.5v-49h-518v49q50 5 81 12.5t45 18.5t12.5 27t-18.5 39l-320 469l-290 -469q-15 -24 -15 -41q0 -20 20 -30q37 -20 143 -26v-49h-517z" />
<glyph unicode="Y" horiz-adv-x="1399" d="M0 1436q68 10 136 17t116 7q53 0 90 -44q42 -56 91.5 -131t99 -159t96.5 -172.5t87 -171.5l309 542q17 30 -11 47t-117 29v49h455v-49q-79 -15 -121 -30.5t-58 -45.5l-386 -702v-490q0 -7 9.5 -16.5t32 -21t58.5 -23t91 -22.5v-49h-564v49q105 22 147 44.5t42 38.5v486 q-43 93 -97 194l-110 196l-110 178q-53 82 -93 138q-10 12 -23.5 23.5t-34 20.5t-51.5 14t-79 5z" />
<glyph unicode="Z" horiz-adv-x="1231" d="M68 52l818 1282h-528q-19 0 -40.5 -12.5t-42.5 -40t-39.5 -71t-30.5 -103.5l-66 14l33 346q32 -7 57.5 -11t50.5 -5.5t51 -1.5h768l29 -49l-811 -1285h602q24 0 43.5 11t37.5 37.5t36.5 72.5t39.5 117l64 -16q-3 -37 -4.5 -82t-3.5 -90t-3.5 -88.5t-2.5 -76.5h-1025z" />
<glyph unicode="[" horiz-adv-x="725" d="M161 -385v2225h477l38 -30q-6 -29 -15 -58.5t-16 -43.5h-323v-1961h316l40 -33q-5 -23 -14.5 -51.5t-18.5 -47.5h-484z" />
<glyph unicode="\" d="M63 1815l43 25q66 -17 130 -56l805 -2140l-41 -29q-13 4 -32 11l-36 14q-19 8 -35.5 16.5t-27.5 16.5z" />
<glyph unicode="]" horiz-adv-x="725" d="M47 1738q4 25 13.5 53.5t17.5 48.5h486v-2225h-477l-38 33q4 27 12.5 55.5t16.5 43.5h324v1961h-315z" />
<glyph unicode="^" horiz-adv-x="1159" d="M115 681l370 1000q14 14 34 28.5t41 28t41.5 25t36.5 19.5l405 -1052q-29 -26 -56 -44t-66 -36l-42 31l-326 831l-287 -782q-13 -11 -29 -23t-33.5 -23t-33.5 -20l-29 -14z" />
<glyph unicode="_" d="M70 -252q6 23 15.5 50.5t20.5 50.5h899l27 -28q-6 -25 -15.5 -53.5t-18.5 -50.5h-899z" />
<glyph unicode="`" horiz-adv-x="750" d="M34 1638l26 47l34 6l47 9l49 7.5t38 4.5l276 -472q-11 -10 -28 -20t-37 -16z" />
<glyph unicode="a" horiz-adv-x="1081" d="M92 214q0 87 30.5 146t73.5 101q27 28 62 52.5t93 47.5t145.5 44t219.5 40v162q0 39 -9 73t-31 59t-59 38q-34 12 -86 12h-8q-37 -1 -72.5 -12.5t-62 -32.5t-41.5 -49t-11 -62q1 -11 -23.5 -24t-58.5 -23.5t-67 -16t-47 -2.5l-16 45q27 57 81 110t123.5 93.5t147 64.5 t150.5 24q126 0 194.5 -66t68.5 -185v-648q0 -49 12.5 -69.5t33.5 -20.5q16 0 41.5 5.5t71.5 25.5l17 -52q-98 -68 -161.5 -98t-96.5 -30q-38 0 -63 52.5t-28 145.5q-51 -51 -103 -89t-101.5 -62.5t-93.5 -35.5t-81 -11q-41 0 -85 13.5t-79 43.5t-58 77t-23 114zM281 263 q0 -46 13.5 -74.5t33 -45.5t41 -22.5t36.5 -5.5q69 0 146.5 35t164.5 111v298q-96 -16 -159 -31t-103 -30.5t-64 -33t-43 -36.5q-30 -31 -48 -71t-18 -94z" />
<glyph unicode="b" horiz-adv-x="1196" d="M12 1644v46l144 38q69 19 135 54l11 -11q7 -7 14 -13q8 -7 18 -15v-907q57 69 114 119.5t109.5 83.5t97 49t78.5 16q78 0 144 -37t113.5 -106.5t74.5 -169.5t27 -225q0 -67 -17 -137t-50.5 -137t-81.5 -126.5t-109.5 -104t-135.5 -70t-159 -25.5q-21 0 -60 9.5t-89 28 t-108.5 45.5t-120.5 61v1380q0 53 -5.5 82t-22 43.5t-45.5 19t-76 9.5zM334 233q46 -34 93.5 -57t90.5 -36.5t78 -19t56 -5.5q70 0 123 30.5t89 80.5t54.5 113t18.5 130q0 115 -23.5 204t-63 150t-91.5 93.5t-107 32.5q-21 0 -54.5 -12t-76.5 -40.5t-91 -76t-96 -118.5v-469 z" />
<glyph unicode="c" horiz-adv-x="1029" d="M92 511q0 124 45.5 232t124 188t185.5 126.5t231 46.5q38 0 78 -6.5t76 -18.5t66.5 -28.5t50.5 -37.5q2 -14 -3.5 -39t-16 -53.5t-23 -54t-23.5 -41.5l-42 11q-10 21 -30.5 45t-53.5 46t-78 36.5t-104 14.5q-61 0 -117 -27.5t-99 -81.5t-69 -134.5t-26 -188.5 q0 -98 29.5 -177.5t78.5 -136t113 -87t133 -30.5q32 0 59.5 3t60 18t76 44.5t107.5 85.5l45 -48q-75 -88 -132 -138t-105 -76t-94 -32t-100 -6q-84 0 -164 37t-142 107.5t-99.5 171.5t-37.5 229z" />
<glyph unicode="d" horiz-adv-x="1224" d="M92 511q0 65 18 135t51 136t81.5 124.5t108.5 102.5t131 69.5t152 25.5q54 0 107.5 -13t115.5 -59v433q0 63 -3.5 100.5t-19.5 57.5t-49.5 27.5t-94.5 12.5v45q94 12 169 33.5t135 40.5l35 -34v-1456q0 -40 2 -69t5.5 -48.5t8 -32t11.5 -20.5q10 -13 39.5 -7.5t98.5 31.5 l15 -49q-53 -36 -94 -60.5t-71.5 -40.5t-52.5 -23t-38 -7q-38 0 -62 51.5t-32 176.5q-44 -53 -87 -95.5t-88.5 -71.5t-96 -45t-109.5 -16q-64 0 -132 37t-125 107.5t-93 171.5t-36 229zM264 546q0 -98 28.5 -177.5t72 -136t96 -87t99.5 -30.5q39 0 77 16t75 42t73 60l72 67 v540q-38 65 -107 101.5t-152 36.5q-74 0 -135 -27.5t-105 -81.5t-69 -134.5t-25 -188.5z" />
<glyph unicode="e" horiz-adv-x="1087" d="M92 499q0 77 17 152t50 141.5t80 123t107 97.5q25 17 57 34t66.5 29.5t68.5 20t65 7.5q74 0 133 -20.5t102.5 -56t73.5 -82t49 -98t27 -105t8 -101.5q-21 -23 -55.5 -43t-71.5 -34h-605q2 -90 25.5 -171t67.5 -142.5t107 -98.5t141 -37q36 0 69.5 4.5t73 20.5t87 47 t111.5 84q15 -8 26 -23t17 -24q-77 -84 -135 -135t-109.5 -78.5t-101.5 -36t-108 -8.5q-89 0 -169 37.5t-141 107.5t-97 168t-36 220zM271 667h493q26 0 34.5 8.5t8.5 32.5q0 31 -8.5 78t-34.5 91t-72.5 75t-121.5 31q-59 0 -109 -23t-88.5 -65t-64.5 -100t-37 -128z" />
<glyph unicode="f" horiz-adv-x="732" d="M52 992l89 78h89v35q0 136 18.5 228.5t50 156.5t73 107t87.5 80q31 25 68 44.5t73 33.5t69 20.5t54 6.5q36 0 74 -13.5t69.5 -31.5t52.5 -36.5t21 -28.5q0 -9 -17 -27.5t-40 -38t-47.5 -37t-41.5 -25.5q-28 25 -56 42.5t-54 29t-48.5 17.5t-37.5 6q-30 0 -64 -20.5 t-63 -73t-49 -143.5t-20 -234v-98h297l34 -34q-11 -16 -26.5 -34.5t-31 -34.5t-30.5 -29t-25 -18q-27 14 -76.5 27t-141.5 13v-843q0 -7 12.5 -13.5t41 -14t74 -17.5t113.5 -23v-49h-574v49q79 14 120 34.5t41 33.5v843h-154z" />
<glyph unicode="g" horiz-adv-x="1148" d="M34 -263q0 30 11 62.5t44.5 70.5t93.5 81.5t159 96.5q-75 27 -104 60t-29 68q0 9 6 24.5t23.5 38t50.5 51.5t86 65q-59 16 -106.5 46.5t-81.5 74t-53 98t-19 118.5q0 84 38 159.5t100 131t141.5 88.5t163.5 33q69 0 129.5 -19.5t109.5 -55.5q60 6 108 15t86.5 19.5 t68.5 21.5l54 19l23 -34q-13 -33 -26 -60t-39 -56q-44 -8 -86 -12.5t-95 -6.5q30 -44 46.5 -93.5t16.5 -104.5q0 -88 -39.5 -161t-104 -125.5t-146 -82t-165.5 -29.5h-5q-55 -46 -75.5 -76.5t-20.5 -37.5q0 -13 12 -26.5t45 -25.5t90.5 -24t146.5 -23q126 -13 207.5 -40.5 t130 -64t67.5 -78t19 -81.5q0 -63 -24.5 -120t-66 -105.5t-97.5 -87.5t-120.5 -66.5t-133.5 -42.5t-137 -15q-54 0 -111.5 7.5t-114 23.5t-106.5 41t-88 60t-60.5 79t-22.5 101zM207 -218q0 -49 32 -92t86.5 -74.5t125.5 -50.5t149 -19q77 0 140.5 20.5t108.5 57t69.5 86.5 t24.5 109q0 33 -15 60t-54 48.5t-106.5 39t-171.5 28.5q-44 5 -81 11t-69 12q-83 -44 -130.5 -80t-71.5 -64t-30.5 -51t-6.5 -41zM276 758q0 -61 19 -115.5t57.5 -95t97.5 -64t141 -23.5q33 0 69.5 14.5t66 43.5t48.5 71.5t19 100.5q0 61 -20.5 115.5t-60 95.5t-99 64.5 t-136.5 23.5q-28 0 -63 -15t-66.5 -43.5t-52 -72.5t-20.5 -100z" />
<glyph unicode="h" horiz-adv-x="1299" d="M63 1644v46q49 10 88.5 19t73.5 20t65 23.5t64 29.5l43 -39v-956q49 73 109.5 132t121.5 100t119 63t103 22q49 0 95 -15t81 -46t56.5 -78.5t21.5 -112.5v-732q0 -16 35 -32t126 -39v-49h-495v49q83 22 122.5 38.5t39.5 32.5v608q0 70 -9 114t-27.5 69t-46 34t-65.5 9 q-40 0 -86.5 -20.5t-97 -60.5t-102.5 -100.5t-101 -141.5v-511q0 -18 43 -36t118 -35v-49h-495v49q76 20 118.5 35.5t42.5 35.5v1373q0 48 -4 75t-20.5 42t-49 21.5t-87.5 12.5z" />
<glyph unicode="i" horiz-adv-x="638" d="M80 49q79 17 120.5 36t41.5 35v650q0 59 -2.5 95.5t-17.5 56.5t-48 29t-94 15v46q36 7 76 16.5t79 22t74.5 26t65.5 27.5h39v-984q0 -14 38.5 -34t122.5 -37v-49h-495v49zM218 1403q0 32 10.5 61t29 50t42 33t51.5 12q97 0 97 -109q0 -32 -10 -61t-28 -50t-42 -33.5 t-53 -12.5q-52 0 -74.5 28.5t-22.5 81.5z" />
<glyph unicode="j" horiz-adv-x="609" d="M-253 -496q0 11 16.5 28.5t39.5 37t48 37t42 25.5q37 -32 76 -42t83 -10q33 0 66 21.5t59.5 74.5t42.5 143.5t16 229.5v721q0 59 -3 94.5t-18 56t-47.5 29.5t-92.5 16v46q48 8 85.5 18.5t71.5 21.5t66 24l68 28h42v-990q0 -132 -16.5 -225t-46 -158t-69.5 -109.5 t-86 -81.5q-31 -24 -65.5 -45.5t-69 -37t-65 -24t-52.5 -8.5q-36 0 -70 8.5t-61 21.5t-43.5 26.5t-16.5 22.5zM213 1403q0 32 10 61t28 50t42 33t52 12q98 0 98 -109q0 -32 -10.5 -61t-28.5 -50t-42 -33.5t-52 -12.5q-51 0 -74 28.5t-23 81.5z" />
<glyph unicode="k" horiz-adv-x="1177" d="M63 0v49q76 20 118.5 35t42.5 36v1370q0 53 -6 82t-24 43.5t-49.5 19t-81.5 9.5v46q80 17 156.5 38t134.5 54l43 -39v-1133l354 309q38 33 46 53t-3 30.5t-37 14t-55 3.5v50h435v-50q-50 -6 -92.5 -19t-91.5 -52l-392 -314l433 -507q16 -19 33 -31t38 -19t46.5 -8.5 t59.5 0.5l7 -49q-34 -8 -66.5 -14t-61 -10t-50.5 -6.5t-34 -2.5q-48 0 -77.5 14t-54.5 47l-437 551v-480q0 -10 4 -16.5t16.5 -14t38 -17t67.5 -23.5v-49h-460z" />
<glyph unicode="l" horiz-adv-x="638" d="M69 0v49q49 9 82.5 17.5t53 17t28.5 17.5t9 19v1370q0 52 -7 81t-25.5 43t-49.5 19.5t-80 10.5v46q83 17 152 36.5t141 55.5l41 -39v-1623q0 -18 39 -36t133 -35v-49h-517z" />
<glyph unicode="m" horiz-adv-x="1891" d="M63 966v46q44 7 81 16.5t70 21t64 25.5l61 29l41 -40l12 -264q52 76 105 133t104.5 95t100 57t89.5 19q55 0 102 -13t80.5 -45t53 -83.5t19.5 -128.5v-24q49 72 100.5 126.5t103 92t100 56.5t91.5 19q55 0 101.5 -15t80.5 -46t53.5 -78.5t19.5 -112.5v-732q0 -16 36 -32 t126 -39v-49h-494v49q83 22 121.5 38.5t38.5 32.5v608q0 70 -7.5 116.5t-23 73t-40.5 37.5t-59 11q-38 0 -80.5 -21.5t-87.5 -61t-90.5 -96.5t-89.5 -128v-539q0 -16 36 -32t127 -39v-49h-495v49q83 22 121.5 38.5t38.5 32.5v608q0 70 -7 116.5t-22.5 73t-40 37.5t-60.5 11 q-78 0 -164 -80.5t-183 -226.5v-539q0 -18 43 -36t118 -35v-49h-495v49q76 20 118.5 35.5t42.5 35.5v698q0 46 -4 72.5t-20.5 40.5t-49 21t-87.5 14z" />
<glyph unicode="n" horiz-adv-x="1299" d="M63 0v49q76 20 118.5 35.5t42.5 35.5v698q0 44 -3.5 70.5t-19 41.5t-47.5 22t-91 14v46q78 13 145 36.5t131 55.5l41 -40l12 -287q51 77 112 137.5t123 102.5t120 64.5t103 22.5q49 0 95 -15t81 -46t56.5 -78.5t21.5 -112.5v-732q0 -16 35 -32t126 -39v-49h-495v49 q83 22 122.5 38.5t39.5 32.5v608q0 70 -8.5 114t-25.5 69t-45 34t-69 9q-35 0 -79 -17t-94 -55t-104.5 -99.5t-109.5 -151.5v-511q0 -18 43 -36t118 -35v-49h-495z" />
<glyph unicode="o" horiz-adv-x="1184" d="M92 511q0 75 19 149t53 140t81.5 122t105.5 96t125.5 63t138.5 23q108 0 196 -41.5t151 -114.5t96.5 -173t33.5 -217q0 -77 -19.5 -150.5t-54 -139.5t-82.5 -121.5t-106 -96t-123.5 -62.5t-136.5 -22q-109 0 -197 41t-150.5 113.5t-96.5 172.5t-34 218zM270 544 q0 -91 32.5 -173t81 -144.5t107.5 -98.5t112 -36q81 0 140 30.5t96.5 87t56 135.5t18.5 178q0 91 -30 173.5t-77 145t-106.5 99.5t-118.5 37q-88 0 -147.5 -33.5t-96 -91.5t-52.5 -137.5t-16 -171.5z" />
<glyph unicode="p" horiz-adv-x="1247" d="M63 -503q76 19 118.5 35.5t42.5 36.5v1249q0 42 -4.5 69.5t-21 44.5t-48.5 24.5t-87 9.5v46q39 8 75 18t69 20.5t66 24t66 29.5l41 -40l10 -228q57 69 115.5 119.5t111 83.5t98 49t79.5 16q78 0 144.5 -37t115 -106.5t75.5 -169.5t27 -225q0 -67 -17.5 -137t-47.5 -137 t-71 -126.5t-90 -104t-103 -70t-111 -25.5q-67 0 -152.5 37.5t-166.5 109.5v-544q0 -19 43 -37t151 -35v-49h-528v49zM397 245q51 -39 95.5 -64.5t83 -40t73 -20t65.5 -5.5q62 0 114.5 24t90.5 71.5t59.5 117.5t21.5 162q0 100 -23.5 186t-62.5 149.5t-90.5 99t-107.5 35.5 q-20 0 -53.5 -12.5t-76 -42.5t-91 -80t-98.5 -123v-457z" />
<glyph unicode="q" horiz-adv-x="1213" d="M92 511q0 101 32 186t79 151t99.5 112t93.5 69q65 36 129.5 55.5t108.5 19.5q31 0 62 -4t63 -15.5t66.5 -32t73.5 -55.5q18 10 36 25l35 29q18 14 34 29l25 24l36 -34q-10 -33 -19 -71q-6 -33 -11.5 -78t-5.5 -96v-1256q0 -19 36 -37t124 -35v-49h-528v49 q108 17 152 34.5t44 37.5v622q-44 -53 -86.5 -94.5t-88 -70.5t-95.5 -44.5t-109 -15.5q-64 0 -132 37t-125 107.5t-93 171.5t-36 229zM264 546q0 -98 28.5 -177.5t72 -136t96 -87t99.5 -30.5q39 0 77 16t75 42t73 60l72 67v540q-38 65 -107 101.5t-152 36.5 q-64 0 -124 -27.5t-106.5 -81.5t-75 -134.5t-28.5 -188.5z" />
<glyph unicode="r" horiz-adv-x="932" d="M63 0v49q76 18 118.5 34.5t42.5 36.5v669q0 38 -2 64t-6 42q-2 16 -8 25l-10 15q-8 8 -18 13t-25.5 8.5t-37.5 5.5t-54 4v46l147 40q72 20 129 52l41 -40l14 -261q32 63 68 118t77.5 96t87 64t94.5 23q37 0 79.5 -9t85.5 -34q10 -6 10 -36q0 -34 -10 -81 q-9 -44 -22.5 -90t-27.5 -77h-49q-7 46 -20 78.5t-29.5 51.5t-36.5 27.5t-42 8.5q-25 0 -59 -21.5t-70 -66.5t-71 -116t-62 -169v-450q0 -18 43 -36t151 -35v-49h-528z" />
<glyph unicode="s" horiz-adv-x="909" d="M110 165q2 44 7 89t13 71l49 -12q3 -49 26 -91.5t61.5 -73.5t89.5 -49.5t111 -18.5q41 0 75.5 13.5t60 37t39.5 57t14 73.5q0 46 -25 81.5t-65 65t-92 55.5l-104 53q-48 24 -93 52t-80 62.5t-56 77t-21 97.5q0 71 28.5 127t76.5 94t109.5 58t126.5 20q36 0 79 -6.5 t85 -18t79 -27.5t60 -37q6 -6 1 -30.5t-16 -53t-23.5 -54t-19.5 -34.5l-45 9q-55 83 -114 115.5t-116 32.5q-38 0 -67.5 -12.5t-51 -32.5t-32.5 -44t-11 -49q0 -36 22 -65.5t57 -55.5q36 -25 81 -49l94 -49q50 -25 100.5 -54t90.5 -66.5t65.5 -85t25.5 -112.5 q0 -81 -23 -139t-60 -98.5t-81.5 -64.5t-88.5 -36.5t-82.5 -16.5t-60.5 -4q-55 0 -132.5 20.5t-154.5 62.5q-8 4 -11 38q-2 20 -2 44q0 16 1 34z" />
<glyph unicode="t" horiz-adv-x="810" d="M23 992l90 78h83v282l136 120l36 -29v-373h376l33 -34q-10 -16 -25.5 -34.5t-31.5 -34.5t-31.5 -29t-27.5 -18q-27 14 -83.5 27t-149.5 13h-60v-607q0 -69 6.5 -115t21.5 -73t38.5 -38.5t57.5 -11.5q40 0 101 16t151 62l33 -58q-56 -42 -111 -73.5t-105 -53t-92.5 -32 t-72.5 -10.5q-41 0 -77 14.5t-63.5 48.5t-43.5 89.5t-16 135.5v706h-149z" />
<glyph unicode="u" horiz-adv-x="1247" d="M47 982v46q42 5 78 11.5t70 16t68.5 21.5t72.5 27l32 -45v-675q0 -80 12 -134t34.5 -86.5t55.5 -46t74 -13.5q37 0 75.5 10.5t79 34t85.5 61t96 91.5v517q0 51 -5.5 82.5t-22.5 48.5t-48.5 24t-84.5 9v46q83 10 158.5 32t140.5 44l34 -45v-767q0 -71 5.5 -116t21.5 -56 q13 -10 46.5 -4.5t92.5 30.5l11 -52l-81 -50q-39 -24 -72.5 -41.5t-59 -27t-38.5 -9.5q-41 0 -66 53t-32 172q-72 -71 -131 -115.5t-109 -68.5t-92 -32.5t-79 -8.5q-54 0 -103.5 14.5t-87.5 54.5t-60 109t-22 177v497q0 55 -3.5 85.5t-18 46t-44.5 21t-83 11.5z" />
<glyph unicode="v" horiz-adv-x="1161" d="M23 1020v50h444v-50q-45 -6 -73 -11.5t-43.5 -14t-18 -21.5t4.5 -31l283 -737l266 737q5 17 3.5 29t-15.5 20.5t-40 15t-68 13.5v50h371v-50q-34 -8 -56 -15t-35.5 -15.5t-21 -19.5t-13.5 -28l-326 -874q-10 -25 -29.5 -43t-42.5 -30t-45.5 -19t-37.5 -10l-379 976 q-11 32 -41 48.5t-87 29.5z" />
<glyph unicode="w" horiz-adv-x="1662" d="M23 1020v50h444v-50q-56 -6 -87.5 -13.5t-45 -17t-14 -20t2.5 -20.5l216 -731l283 852h80l299 -852l199 731q6 26 -25 42t-110 29v50h374v-50q-36 -8 -56.5 -15.5t-32.5 -15t-17.5 -17t-8.5 -23.5l-254 -881q-7 -25 -27.5 -43t-44.5 -30t-47.5 -19t-38.5 -10l-274 779 l-235 -677q-10 -27 -29 -44.5t-42 -29.5t-45 -18.5t-37 -9.5l-302 983q-10 45 -125 71z" />
<glyph unicode="x" horiz-adv-x="1184" d="M23 0v49q46 7 78 18t54.5 25.5t38 31t28.5 34.5l279 388l-270 371q-15 20 -30 38t-36 31t-52 22t-77 12v50h483v-50q-36 -3 -62 -9.5t-39 -17.5t-11.5 -29t22.5 -45l185 -255l177 255q21 27 23 45.5t-10 29.5t-37 17t-61 9v50h438v-50q-93 -7 -144 -34t-81 -69l-242 -340 l307 -419q14 -18 30 -34.5t37.5 -31.5t50 -26.5t66.5 -16.5v-49h-462v49q29 3 54 7.5t39.5 15t14.5 29.5t-23 50l-227 309l-218 -309q-22 -31 -17 -50t24.5 -29.5t48.5 -15t57 -7.5v-49h-436z" />
<glyph unicode="y" horiz-adv-x="1161" d="M-54 -514q0 7 14 27.5t34.5 45.5t44 48t41.5 34q56 -32 111 -34q7 -1 14 -1q46 0 83 14q20 7 47.5 32.5t56 62.5t55.5 83.5t47 95.5l34 80l-377 968q-11 32 -41 48.5t-87 29.5v50h444v-50q-45 -6 -73 -11.5t-43.5 -14t-18 -21.5t4.5 -31l283 -733l266 733q5 17 1 29 t-19.5 20.5t-43.5 15t-71 13.5v50h384v-50q-34 -8 -56 -15t-35.5 -15.5t-21 -19.5t-13.5 -28l-384 -1036q-49 -128 -108 -219t-123 -149t-128 -85.5t-122 -27.5q-44 0 -80.5 5.5t-63 14.5t-41.5 20t-15 21z" />
<glyph unicode="z" horiz-adv-x="1040" d="M87 52l639 914h-398q-19 0 -38 -7t-36.5 -26t-33 -53t-27.5 -86l-56 13l21 281q25 -7 45.5 -11t43 -5.5t49.5 -1.5h630l25 -50l-641 -916h486q29 0 53 44t50 149l54 -12q0 -37 -1 -78t-2.5 -80.5t-4 -72.5t-5.5 -54h-823z" />
<glyph unicode="{" horiz-adv-x="791" d="M117 728q136 36 205 107t69 157q0 46 -3.5 79.5t-8.5 60.5t-11.5 50.5t-11.5 50t-8.5 60.5t-3.5 81q0 77 26 145.5t74 126.5t117 106.5t155 87.5l30 -54q-44 -28 -83 -63.5t-67.5 -78.5t-44.5 -93.5t-16 -110.5q0 -67 7.5 -109.5t16 -80t16 -80t7.5 -109.5 q0 -48 -14.5 -94.5t-41 -87.5t-65 -74t-86.5 -54q57 -10 97 -36t64 -65t35 -91.5t11 -115.5q0 -69 -7.5 -117.5t-16 -91t-16 -85t-7.5 -100.5q0 -63 8.5 -112t31 -88.5t61 -73.5t99.5 -67l-27 -70q-96 39 -165 82t-113.5 96t-65 118.5t-20.5 148.5q0 68 7.5 112t16 85 t16 87.5t7.5 117.5q0 93 -46.5 141t-132.5 48h-25q-6 0 -12 -0.5t-13.5 -2.5t-24.5 -4z" />
<glyph unicode="|" horiz-adv-x="539" d="M207 -439v2303q32 20 59 33.5t61 22.5l41 -25v-2301q-21 -18 -56.5 -34.5t-64.5 -25.5z" />
<glyph unicode="}" horiz-adv-x="791" d="M45 -306q45 28 83.5 63t67 78t44.5 94t16 111q0 67 -6.5 109t-15.5 79.5t-15.5 80.5t-6.5 111q0 47 13.5 93t40.5 86t65.5 73t88.5 54q-59 11 -98.5 37t-64.5 65.5t-35 92t-10 116.5q0 68 6.5 116.5t15.5 91t15.5 85t6.5 98.5q0 65 -8.5 114.5t-31 89t-61.5 72t-99 66.5 l27 70q96 -38 166 -81t113.5 -96t64 -118t20.5 -148q0 -68 -6.5 -112.5t-15.5 -85.5t-16 -87.5t-7 -116.5q0 -93 47 -141.5t133 -48.5h22q7 0 12.5 0.5t13.5 1.5l27 6l19 -64q-137 -36 -205.5 -105.5t-68.5 -158.5q0 -47 3.5 -79.5t8.5 -59t11 -49.5t10.5 -50t8 -60.5 t3.5 -80.5q0 -78 -25.5 -146t-74 -126.5t-117.5 -107.5t-154 -88z" />
<glyph unicode="~" horiz-adv-x="1148" d="M56 577q24 57 61.5 117t83 110t97.5 82.5t107 32.5q53 0 108.5 -29t110 -63.5t107 -63t98.5 -28.5q55 0 104.5 45t98.5 139l60 -29q-24 -56 -60.5 -116.5t-82 -110.5t-98 -82t-107.5 -32q-48 0 -102 28.5t-110 63t-110.5 63.5t-104.5 29q-56 0 -103.5 -45t-96.5 -142z " />
<glyph unicode="&#xa2;" d="M120 674q0 101 31.5 190.5t88 160.5t135 121t171.5 74v176q16 10 23 15.5t12 8.5t13.5 5t25.5 7l30 -26v-167q14 1 27.5 1.5t28.5 0.5q38 0 77.5 -6.5t76.5 -18.5t67.5 -28.5t50.5 -38.5q2 -13 -4 -38t-16 -53t-23 -53.5t-23 -40.5l-40 11q-11 19 -28.5 40.5t-44.5 41 t-64 35t-85 21.5v-812q31 0 58.5 3t60.5 17.5t75.5 44.5t104.5 84l45 -48q-59 -68 -106 -114t-88 -74.5t-77 -42t-73 -18.5v-162q-11 -9 -19 -14.5t-15.5 -9.5t-17 -7t-23.5 -7l-29 29v166q-81 4 -157.5 39.5t-136.5 101.5t-96 163t-36 222zM294 708q0 -80 20 -145.5 t53.5 -115t79.5 -82.5t99 -49v795q-52 -10 -97 -39t-79.5 -78.5t-55 -120t-20.5 -165.5z" />
<glyph unicode="&#xa3;" d="M74 645l12 37q6 21 13 39h124q-2 35 -2 69q0 122 21 224q25 130 84 220.5t154 138t226 47.5q30 0 58 -2t60.5 -11t72 -24.5t93.5 -42.5q-1 -30 -5.5 -72.5t-11 -87t-14 -84t-14.5 -61.5h-54q-16 143 -85.5 207t-184.5 64q-31 0 -61.5 -6t-57.5 -26t-49 -59t-34 -104 t-13 -161v-13q0 -92 13 -216h288l29 -26l-29 -79h-278q1 -20 1 -39q0 -57 -7 -112q-9 -72 -27 -135.5t-43.5 -117.5t-55.5 -96q51 5 92 6q27 1 50 1q12 0 24 -1q33 0 61.5 -1t59 -3t64.5 -3h23q24 0 52 1q53 1 91 7t67.5 25.5t53.5 58t48 106.5l50 -21q-5 -49 -11 -95 l-13 -84q-6 -38 -12 -67l-11 -46q-52 -29 -121 -33q-22 -1 -44 -1q-50 0 -106 6q-80 8 -164.5 21.5t-166.5 18.5q-32 3 -63 3q-48 0 -92 -6q-73 -8 -129 -43l-26 56q35 29 62.5 54t47.5 54.5t32.5 68t18.5 94.5q4 48 4 112v23q-1 79 -9 188h-131z" />
<glyph unicode="&#xa5;" d="M-77 1372q68 9 135.5 16.5t116.5 7.5q53 0 89 -45q43 -55 82 -113.5t76 -122.5l75 -137l77 -155l246 436q17 30 -11 47.5t-117 28.5v50h456v-50q-78 -15 -121 -30.5t-59 -45.5l-324 -594v-59h312l28 -26l-28 -79h-312v-369q0 -7 10 -16.5t32 -21t58.5 -23t90.5 -22.5v-49 h-564v49q105 22 147 44.5t42 38.5v369h-313l-25 29q6 17 12 37.5t13 38.5h313v61l-84 168l-88 162q-45 78 -89 145.5t-83 116.5q-10 13 -23 24.5t-33.5 20t-52 13.5t-79.5 5z" />
<glyph unicode="&#xa8;" horiz-adv-x="921" d="M115 1403q0 32 10.5 61t28.5 50t42 33t51 12q98 0 98 -109q0 -32 -10.5 -61t-28 -50t-42 -33.5t-52.5 -12.5q-52 0 -74.5 28.5t-22.5 81.5zM575 1403q0 32 10.5 61t28.5 50t42 33t51 12q98 0 98 -109q0 -32 -10.5 -61t-28 -50t-42 -33.5t-52.5 -12.5q-52 0 -74.5 28.5 t-22.5 81.5z" />
<glyph unicode="&#xa9;" horiz-adv-x="1678" d="M115 726q0 156 54 294.5t150.5 241t229 162.5t289.5 60q105 0 200 -27.5t175.5 -76.5t145.5 -118t110.5 -153.5t70 -181.5t24.5 -201q0 -105 -24.5 -202t-70 -181.5t-110.5 -154.5t-145.5 -119t-175.5 -76t-200 -27q-157 0 -289.5 59.5t-229 162.5t-150.5 241.5 t-54 296.5zM214 726q0 -137 46.5 -258t130 -210.5t198 -141.5t249.5 -52q137 0 252 52t198.5 141.5t130 210.5t46.5 258q0 135 -46.5 255.5t-130 210t-198.5 141.5t-252 52q-135 0 -249.5 -52t-198 -141.5t-130 -210t-46.5 -255.5zM412 692q0 115 38.5 209.5t105 160.5 t154.5 102.5t187 36.5q87 0 151.5 -21.5t108.5 -51.5q5 -3 -2.5 -18t-20 -33.5t-26.5 -35.5t-25 -26l-27 5q-42 32 -93.5 59.5t-121.5 27.5q-37 0 -85.5 -18t-91.5 -62.5t-72.5 -119t-29.5 -186.5q0 -92 34 -161t85.5 -115.5t109.5 -70t106 -23.5q25 0 49.5 4.5t53 16 t62.5 32t78 53.5q9 -4 17 -16.5t14 -16.5q-52 -49 -98.5 -82.5t-90.5 -54t-86 -29t-83 -8.5q-75 0 -146.5 29.5t-128 86.5t-91.5 139.5t-35 186.5z" />
<glyph unicode="&#xab;" horiz-adv-x="1143" d="M92 494v41q0 16 0.5 28.5t1.5 14.5l413 472l48 -35l-11 -20l-30 -55l-42 -77l-50 -88l-48 -88l-42 -77l-30 -53q-12 -20 -11 -20l266 -483l-50 -34zM518 494v41q0 16 0.5 28.5t1.5 14.5l413 472l48 -35l-12 -20l-29 -55l-43 -77l-49 -88l-50 -88l-42 -76l-30 -54 q-11 -20 -10 -20l266 -483l-49 -34z" />
<glyph unicode="&#xad;" horiz-adv-x="793" d="M70 551q6 25 15.5 53t20.5 52h589l28 -28q-7 -25 -16.5 -55t-18.5 -50h-589z" />
<glyph unicode="&#xae;" horiz-adv-x="839" d="M40 1247q0 82 28.5 154.5t79 126.5t119.5 85t152 31q82 0 152.5 -31t121 -85t79 -126.5t28.5 -154.5q0 -83 -28.5 -155.5t-79 -126.5t-121 -85t-152.5 -31q-83 0 -152 31t-119.5 85t-79 126.5t-28.5 155.5zM107 1247q0 -69 23.5 -129t65 -105t98.5 -70.5t125 -25.5 q69 0 126.5 25.5t98.5 70.5t65 105t24 129q0 67 -24 127.5t-65 105.5t-98.5 71t-126.5 26q-68 0 -125 -26t-98.5 -71t-65 -105.5t-23.5 -127.5zM244 1464q33 8 70 14.5t85 6.5q86 0 130.5 -31t44.5 -79q0 -54 -32.5 -89t-82.5 -47l118 -165q8 -13 21.5 -16t38.5 -1l2 -24 q-23 -7 -47.5 -13.5t-37.5 -6.5q-10 0 -20.5 7t-14.5 14l-121 196h-2q-18 0 -36 4v-171q0 -12 49 -22v-21h-163v21q51 10 51 22v375l-51 -7zM360 1275q9 -2 15 -2h16q59 0 86 24t27 68q0 33 -26 56t-92 23h-13q-6 0 -13 -1v-168z" />
<glyph unicode="&#xb4;" horiz-adv-x="750" d="M250 1236l269 476q13 -1 36 -4t48 -7t47.5 -8t34.5 -7l27 -45l-397 -437q-21 5 -36.5 13.5t-28.5 18.5z" />
<glyph unicode="&#xb8;" horiz-adv-x="539" d="M90 -454q60 10 101.5 25.5t68 34t38.5 38.5t12 39q0 39 -29.5 54.5t-101.5 22.5q3 3 12 32l25 76l47 148l90 -2l-45 -134q30 -6 59.5 -17t52 -28.5t36 -41.5t13.5 -56q0 -43 -20 -82t-62.5 -71t-110 -56.5t-161.5 -38.5z" />
<glyph unicode="&#xbb;" horiz-adv-x="1143" d="M161 54l266 483l-265 478l48 35l413 -472l3 -84l-416 -474zM586 54l266 483l-264 478l48 35l413 -472l2 -84l-415 -474z" />
<glyph unicode="&#x2c6;" horiz-adv-x="842" d="M56 1256l304 436h123l301 -436q-14 -22 -22 -32.5t-27 -19.5l-315 308l-312 -308q-9 5 -15.5 9.5t-11.5 10t-11 13.5z" />
<glyph unicode="&#x2d7;" horiz-adv-x="793" d="M70 551q6 25 15.5 53t20.5 52h589l28 -28q-7 -25 -16.5 -55t-18.5 -50h-589z" />
<glyph unicode="&#x2da;" horiz-adv-x="588" d="M80 1385q0 58 22.5 108t58.5 86.5t80 56.5t89 20q37 0 69.5 -14.5t57 -39t38 -57.5t13.5 -68q0 -59 -22.5 -108t-58.5 -85t-80.5 -56t-87.5 -20q-39 0 -72 13.5t-56.5 37.5t-37 56.5t-13.5 69.5zM184 1432q0 -27 7 -51.5t19.5 -43.5t31 -30.5t41.5 -11.5t45 8.5t39 26 t27.5 42t10.5 57.5q0 28 -7 53.5t-19.5 44.5t-31 30.5t-41.5 11.5q-24 0 -46 -10t-38.5 -28t-27 -43t-10.5 -56z" />
<glyph unicode="&#x2dc;" horiz-adv-x="945" d="M80 1303q21 47 49.5 93.5t64 83.5t76 60t85.5 23q44 0 83 -20t73.5 -45t65.5 -45t59 -20q44 0 86 36.5t81 104.5l62 -26q-21 -47 -49.5 -93t-64 -83t-76.5 -60t-86 -23q-40 0 -76.5 20t-71 45t-68.5 45t-67 20q-46 0 -84 -37.5t-81 -101.5z" />
<glyph unicode="&#x3a0;" horiz-adv-x="1483" d="M56 49q79 17 123.5 36t44.5 35v1208q0 14 -42.5 34.5t-125.5 37.5v49h1348v-49q-79 -17 -123.5 -36.5t-44.5 -35.5v-1208q0 -14 42 -34t126 -37v-49h-518v49q78 17 122 36t44 35v1153q0 14 -15.5 27.5t-45.5 25t-74 19t-101 7.5h-190q-54 -1 -95 -8.5t-68 -18.5 t-41 -24.5t-14 -27.5v-1153q0 -14 41.5 -34t125.5 -37v-49h-519v49z" />
<glyph unicode="&#x3c0;" horiz-adv-x="1239" d="M23 881q33 40 65.5 74.5t65 60t66 40t70.5 14.5h728q48 0 89.5 4.5t76.5 29.5l33 -33q-60 -83 -120.5 -127.5t-115.5 -44.5h-75q-9 -93 -12.5 -188.5t-3.5 -184.5q0 -105 6 -180t18 -123t31.5 -70.5t45.5 -22.5q18 0 34.5 1.5t37 7t48 14.5t67.5 24l25 -51 q-59 -49 -102.5 -80.5t-77.5 -49.5t-61 -25t-52 -7q-41 0 -70.5 24.5t-50 68.5t-30 107.5t-9.5 142.5q0 37 2 89t7 124.5t13 166.5l17 215q-82 1 -160 4l-174 5q-10 -131 -15.5 -275t-5.5 -291q0 -83 2.5 -153.5t8.5 -133.5q-16 -11 -49 -24t-72 -26.5t-77.5 -25.5 t-63.5 -19q-4 4 -9 10.5t-11 13.5q-5 8 -13 18q31 43 54 82t40 85t29.5 106.5t24 146.5t22 205t23.5 282h-59q-37 0 -65.5 -3t-55.5 -10.5t-54 -22t-60 -36.5z" />
<glyph unicode="&#x410;" horiz-adv-x="1401" d="M0 0v49q78 14 124 29t58 50l428 1295q26 28 65 51l69 41l483 -1387q6 -16 16.5 -29t27.5 -22t43.5 -16t63.5 -12v-49h-486v49q90 6 124 23q26 13 26 37q0 9 -4 19l-131 384h-469l-128 -384q-2 -7 -2 -14q0 -25 34 -38q42 -16 136 -27v-49h-478zM473 615h399l-203 591z " />
<glyph unicode="&#x412;" horiz-adv-x="1294" d="M47 1414q45 13 104 25t125 22t133.5 16.5t129.5 6.5q115 0 208.5 -21.5t158.5 -62t100 -98t35 -129.5q0 -124 -59 -213t-160 -129q74 -13 137 -51t110 -94t73 -126.5t26 -150.5q0 -97 -38.5 -176t-108 -134t-166 -85t-212.5 -30q-25 0 -60.5 0.5t-75.5 1.5t-82.5 2.5 t-82.5 3.5q-96 3 -201 8h-83v49q78 17 122 36t44 35v1248q-43 -5 -85 -11.5t-81 -13.5zM408 120q0 -10 11 -18q19 -7 44.5 -11t52 -6t53 -3.5t49.5 -1.5q82 0 149 21.5t114.5 59.5t73 91.5t25.5 117.5t-22.5 130.5t-69 121.5t-118.5 90.5t-172 35.5q-55 0 -101.5 -5.5 t-88.5 -12.5v-610zM408 834h39q131 0 212.5 26t126 66t60.5 90.5t16 100.5q0 57 -18.5 106.5t-63.5 86t-119.5 57t-185.5 20.5q-16 0 -32.5 -0.5t-34.5 -1.5v-551z" />
<glyph unicode="&#x415;" horiz-adv-x="1168" d="M58 0v49q78 17 122 36t44 35v1208q0 14 -42 34.5t-124 37.5v49h926l38 -29q-2 -30 -6.5 -65.5t-11.5 -71t-14.5 -68t-14.5 -53.5h-52q-2 52 -9.5 88t-19 57t-28 30t-37.5 9h-421v-501h466l30 -32q-9 -16 -22 -35l-28 -36q-14 -18 -28.5 -32.5t-27.5 -24.5 q-17 18 -37 29.5t-46 19.5t-61 11.5t-84 3.5h-162v-572q0 -17 8 -30.5t33.5 -23t71.5 -14.5t122 -5h148q53 0 90.5 5.5t66 25.5t52.5 59t48 107l49 -20q-9 -99 -23.5 -173.5t-23.5 -107.5h-992z" />
<glyph unicode="&#x41a;" horiz-adv-x="1361" d="M58 0v49q78 17 122 36t44 35v1208q0 14 -42 34.5t-124 37.5v49h517v-49q-78 -17 -122.5 -36.5t-44.5 -35.5v-585l471 554q26 31 33 49.5t-4.5 29t-40.5 15.5t-73 9v49h482v-49q-36 -5 -65 -9.5t-52 -12t-42 -19t-36 -31.5l-504 -556l556 -626q20 -23 44 -35.5t51 -18 t55.5 -4.5t58.5 4l8 -49q-68 -22 -136.5 -40.5t-123.5 -18.5q-33 0 -59 10.5t-49 38.5l-574 702v-615q0 -14 41.5 -34t125.5 -37v-49h-517z" />
<glyph unicode="&#x41c;" horiz-adv-x="1898" d="M69 0v49q79 17 123 36t44 35l11 1234q-43 25 -87.5 35.5t-79.5 10.5v49h329q12 0 20 -3.5t15.5 -14t15.5 -29.5l23 -50l458 -1037l439 1037l24 54q9 20 16.5 29t15 11.5t18.5 2.5h328v-49q-33 0 -73.5 -11t-81.5 -31l12 -1238q0 -14 42 -34t125 -37v-49h-524v49 q78 17 128 36t50 35l-10 1076l-504 -1196h-56l-512 1188l-10 -1068q0 -14 42 -34t125 -37v-49h-466z" />
<glyph unicode="&#x41d;" horiz-adv-x="1539" d="M58 0v49q78 17 122 36t44 35v1208q0 14 -42 34.5t-124 37.5v49h517v-49q-78 -17 -122.5 -36.5t-44.5 -35.5v-517h702v517q0 14 -42 34.5t-125 37.5v49h517v-49q-78 -17 -122 -36.5t-44 -35.5v-1208q0 -14 42 -34t124 -37v-49h-517v49q78 17 122.5 36t44.5 35v587h-702 v-587q0 -14 41.5 -34t125.5 -37v-49h-517z" />
<glyph unicode="&#x41e;" horiz-adv-x="1413" d="M80 704q0 156 51 297.5t138 248.5t205 170.5t254 63.5q143 0 251 -63t181.5 -166.5t111 -237t37.5 -273.5q0 -156 -52 -297t-141 -248t-206.5 -170t-248.5 -63q-138 0 -246 60.5t-182 163t-113.5 236t-39.5 278.5zM259 737q0 -129 35 -244t94 -201.5t138.5 -137 t168.5 -50.5q95 0 175 39.5t138 117.5t90 194.5t32 267.5q0 80 -14 157.5t-40.5 147t-65 129t-87 102.5t-106 67.5t-122.5 24.5q-103 0 -184 -43t-136.5 -123t-85.5 -194t-30 -254z" />
<glyph unicode="&#x41f;" horiz-adv-x="1483" d="M56 0v49q79 17 123.5 36t44.5 35v1208q0 14 -42.5 34.5t-125.5 37.5v49h1348v-49q-79 -17 -123.5 -36.5t-44.5 -35.5v-1208q0 -14 42 -34t126 -37v-49h-518v49q78 17 122 36t44 35v1153q0 14 -15.5 27.5t-45.5 25t-74 19t-101 7.5h-190q-54 -1 -95 -8.5t-68 -18.5 t-41 -24.5t-14 -27.5v-1153q0 -14 41.5 -34t125.5 -37v-49h-519z" />
<glyph unicode="&#x420;" horiz-adv-x="1231" d="M47 1414q55 15 120 28t135.5 22t142 14.5t141.5 5.5q125 0 225 -26.5t170.5 -78.5t109 -128t38.5 -175q0 -79 -22.5 -144.5t-59.5 -116.5t-85.5 -88.5t-101 -62.5t-104.5 -37t-97 -12q-108 0 -185 35l-27 86q49 -22 93 -28t84 -6q53 0 110.5 20.5t106 62t79.5 102.5 t31 142q0 95 -34 162.5t-92.5 111t-136.5 64t-167 20.5q-29 0 -57 -0.5t-56 -1.5v-1265q0 -7 9.5 -15t32 -17.5t61.5 -18.5t99 -20v-49h-552v49q78 17 122 36t44 35v1248q-42 -5 -84 -11.5t-82 -13.5z" />
<glyph unicode="&#x421;" horiz-adv-x="1262" d="M80 674q0 184 56 333.5t151.5 255t222 163.5t267.5 58q125 0 218.5 -33.5t153.5 -82.5q7 -5 -3.5 -22.5t-28.5 -39.5l-38 -43q-20 -22 -34 -36l-40 7q-59 54 -139.5 88.5t-184.5 34.5q-39 0 -85.5 -14.5t-94 -45.5t-91 -81t-77.5 -121t-54 -165t-20 -214q0 -152 44 -267 t113.5 -191.5t155.5 -115t167 -38.5q63 0 163 42.5t226 147.5q6 -2 12.5 -9.5t12 -15.5t10 -15.5t8.5 -10.5q-74 -79 -141 -132t-130 -85.5t-123.5 -46t-119.5 -13.5q-107 0 -210 48t-184.5 139t-132 222.5t-50.5 298.5z" />
<glyph unicode="&#x422;" horiz-adv-x="1297" d="M12 1166q5 68 15 145t22 138h1162l34 -29q-2 -58 -11 -128t-23 -142h-52q-11 53 -20 90.5t-20.5 61t-27 34t-39.5 10.5h-326v-1214q0 -15 41 -38t147 -45v-49h-561v49q53 11 89 22.5t58 22.5t32 20.5t10 17.5v1214h-344q-17 0 -31.5 -6.5t-29 -27.5t-33 -61t-43.5 -107z " />
<glyph unicode="&#x425;" horiz-adv-x="1449" d="M36 0v49q74 6 127 27.5t82 69.5l365 595l-383 562q-18 25 -34 41t-36 26.5t-46 17t-64 12.5v49h519v-49q-98 -10 -128 -29q-14 -9 -14 -24q0 -18 19 -44l284 -417l260 417q16 26 13.5 43t-22 28t-55 16.5t-87.5 9.5v49h521v-49q-41 -5 -74 -11.5t-58.5 -17.5t-44 -27.5 t-33.5 -40.5l-335 -542l420 -615q17 -24 35 -40.5t39 -27.5t47.5 -17.5t59.5 -11.5v-49h-518v49q50 5 81 12.5t45 18.5t12.5 27t-18.5 39l-320 469l-290 -469q-15 -24 -15 -41q0 -19 20 -29q37 -20 143 -27v-49h-517z" />
<glyph unicode="&#x430;" horiz-adv-x="1081" d="M92 214q0 87 30.5 146t73.5 101q27 28 62 52.5t93 47.5t145.5 44t219.5 40v162q0 39 -9 73t-31 59t-59 38q-34 12 -86 12h-8q-37 -1 -72.5 -12.5t-62 -32.5t-41.5 -49t-11 -62q1 -11 -23.5 -24t-58.5 -23.5t-67 -16t-47 -2.5l-16 45q27 57 81 110t123.5 93.5t147 64.5 t150.5 24q126 0 194.5 -66t68.5 -185v-648q0 -49 12.5 -69.5t33.5 -20.5q16 0 41.5 5.5t71.5 25.5l17 -52q-98 -68 -161.5 -98t-96.5 -30q-38 0 -63 52.5t-28 145.5q-51 -51 -103 -89t-101.5 -62.5t-93.5 -35.5t-81 -11q-41 0 -85 13.5t-79 43.5t-58 77t-23 114zM281 263 q0 -46 13.5 -74.5t33 -45.5t41 -22.5t36.5 -5.5q69 0 146.5 35t164.5 111v298q-96 -16 -159 -31t-103 -30.5t-64 -33t-43 -36.5q-30 -31 -48 -71t-18 -94z" />
<glyph unicode="&#x435;" horiz-adv-x="1087" d="M92 499q0 77 17 152t50 141.5t80 123t107 97.5q25 17 57 34t66.5 29.5t68.5 20t65 7.5q74 0 133 -20.5t102.5 -56t73.5 -82t49 -98t27 -105t8 -101.5q-21 -23 -55.5 -43t-71.5 -34h-605q2 -90 25.5 -171t67.5 -142.5t107 -98.5t141 -37q36 0 69.5 4.5t73 20.5t87 47 t111.5 84q15 -8 26 -23t17 -24q-77 -84 -135 -135t-109.5 -78.5t-101.5 -36t-108 -8.5q-89 0 -169 37.5t-141 107.5t-97 168t-36 220zM271 667h493q26 0 34.5 8.5t8.5 32.5q0 31 -8.5 78t-34.5 91t-72.5 75t-121.5 31q-59 0 -109 -23t-88.5 -65t-64.5 -100t-37 -128z" />
<glyph unicode="&#x43e;" horiz-adv-x="1184" d="M92 511q0 75 19 149t53 140t81.5 122t105.5 96t125.5 63t138.5 23q108 0 196 -41.5t151 -114.5t96.5 -173t33.5 -217q0 -77 -19.5 -150.5t-54 -139.5t-82.5 -121.5t-106 -96t-123.5 -62.5t-136.5 -22q-109 0 -197 41t-150.5 113.5t-96.5 172.5t-34 218zM270 544 q0 -91 32.5 -173t81 -144.5t107.5 -98.5t112 -36q81 0 140 30.5t96.5 87t56 135.5t18.5 178q0 91 -30 173.5t-77 145t-106.5 99.5t-118.5 37q-88 0 -147.5 -33.5t-96 -91.5t-52.5 -137.5t-16 -171.5z" />
<glyph unicode="&#x43f;" horiz-adv-x="1239" d="M23 881q33 40 65.5 74.5t65 60t66 40t70.5 14.5h728q48 0 89.5 4.5t76.5 29.5l33 -33q-60 -83 -120.5 -127.5t-115.5 -44.5h-75q-9 -93 -12.5 -188.5t-3.5 -184.5q0 -105 6 -180t18 -123t31.5 -70.5t45.5 -22.5q18 0 34.5 1.5t37 7t48 14.5t67.5 24l25 -51 q-59 -49 -102.5 -80.5t-77.5 -49.5t-61 -25t-52 -7q-41 0 -70.5 24.5t-50 68.5t-30 107.5t-9.5 142.5q0 37 2 89t7 124.5t13 166.5l17 215q-82 1 -161 4l-173 5q-10 -131 -15.5 -275t-5.5 -291q0 -83 2.5 -153.5t8.5 -133.5q-16 -11 -49 -24t-72 -26.5t-77.5 -25.5 t-63.5 -19q-4 4 -9 10.5t-11 13.5q-5 8 -13 18q31 43 54 82t40 85t29.5 106.5t24 146.5t22 205t23.5 282h-59q-37 0 -65.5 -3t-55.5 -10.5t-54 -22t-60 -36.5z" />
<glyph unicode="&#x440;" horiz-adv-x="1247" d="M63 -503q76 19 118.5 35.5t42.5 36.5v1249q0 42 -4.5 69.5t-21 44.5t-48.5 24.5t-87 9.5v46q39 8 75 18t69 20.5t66 24t66 29.5l41 -40l10 -228q57 69 115.5 119.5t111 83.5t98 49t79.5 16q78 0 144.5 -37t115 -106.5t75.5 -169.5t27 -225q0 -67 -17.5 -137t-47.5 -137 t-71 -126.5t-90 -104t-103 -70t-111 -25.5q-67 0 -152.5 37.5t-166.5 109.5v-544q0 -19 43 -37t151 -35v-49h-528v49zM397 245q51 -39 95.5 -64.5t83 -40t73 -20t65.5 -5.5q62 0 114.5 24t90.5 71.5t59.5 117.5t21.5 162q0 100 -23.5 186t-62.5 149.5t-90.5 99t-107.5 35.5 q-20 0 -53.5 -12.5t-76 -42.5t-91 -80t-98.5 -123v-457z" />
<glyph unicode="&#x441;" horiz-adv-x="1029" d="M92 511q0 124 45.5 232t124 188t185.5 126.5t231 46.5q38 0 78 -6.5t76 -18.5t66.5 -28.5t50.5 -37.5q2 -14 -3.5 -39t-16 -53.5t-23 -54t-23.5 -41.5l-42 11q-10 21 -30.5 45t-53.5 46t-78 36.5t-104 14.5q-61 0 -117 -27.5t-99 -81.5t-69 -134.5t-26 -188.5 q0 -98 29.5 -177.5t78.5 -136t113 -87t133 -30.5q32 0 59.5 3t60 18t76 44.5t107.5 85.5l45 -48q-75 -88 -132 -138t-105 -76t-94 -32t-100 -6q-84 0 -164 37t-142 107.5t-99.5 171.5t-37.5 229z" />
<glyph unicode="&#x443;" horiz-adv-x="1161" d="M-54 -514q0 7 14 27.5t34.5 45.5t44 48t41.5 34q56 -32 110 -35h15q46 0 83 14q20 7 47.5 32.5t56 62.5t55.5 83.5t47 95.5l34 80l-377 968q-11 32 -41 48.5t-87 29.5v50h444v-50q-45 -6 -73 -11.5t-43.5 -14t-18 -21.5t4.5 -31l283 -733l266 733q5 17 1 29t-19.5 20.5 t-43.5 15t-71 13.5v50h384v-50q-34 -8 -56 -15t-35.5 -15.5t-21 -19.5t-13.5 -28l-384 -1036q-49 -128 -108 -219t-123 -149t-128 -85.5t-122 -27.5q-44 0 -80.5 5.5t-63 14.5t-41.5 20t-15 21z" />
<glyph unicode="&#x445;" horiz-adv-x="1184" d="M23 0v49q46 7 78 18t54.5 25.5t38 31t28.5 34.5l279 388l-270 371q-15 20 -30 38t-36 31t-52 22t-77 12v50h483v-50q-36 -3 -62 -9.5t-39 -17.5t-11.5 -29t22.5 -45l185 -255l177 255q21 27 23 45.5t-10 29.5t-37 17t-61 9v50h438v-50q-93 -7 -144 -34t-81 -69l-242 -340 l307 -419q14 -18 30 -34.5t37.5 -31.5t50 -26.5t66.5 -16.5v-49h-462v49q29 3 54 7.5t39.5 15t14.5 29.5t-23 50l-227 309l-218 -309q-22 -31 -17 -50t24.5 -29.5t48.5 -15t57 -7.5v-49h-436z" />
<glyph unicode="&#x2010;" horiz-adv-x="793" d="M70 551q6 25 15.5 53t20.5 52h589l28 -28q-7 -25 -16.5 -55t-18.5 -50h-589z" />
<glyph unicode="&#x2011;" horiz-adv-x="793" d="M70 551q6 25 15.5 53t20.5 52h589l28 -28q-7 -25 -16.5 -55t-18.5 -50h-589z" />
<glyph unicode="&#x2012;" horiz-adv-x="793" d="M70 551q6 25 15.5 53t20.5 52h589l28 -28q-7 -25 -16.5 -55t-18.5 -50h-589z" />
<glyph unicode="&#x2013;" d="M70 551q6 25 15.5 53t20.5 52h903l26 -28q-6 -25 -15 -55t-18 -50h-903z" />
<glyph unicode="&#x2014;" horiz-adv-x="1804" d="M70 551q6 25 15.5 53t20.5 52h1601l27 -28q-6 -25 -15.5 -55t-18.5 -50h-1601z" />
<glyph unicode="&#x2018;" horiz-adv-x="539" d="M106 1286q0 45 15.5 96.5t45.5 103.5t73.5 99t98.5 83l50 -41q-24 -25 -42.5 -56.5t-30.5 -64t-18 -63t-6 -54.5q0 -52 31 -89t99 -40l18 -51q-10 -14 -44 -33t-73.5 -35.5t-77.5 -26.5q-32 -9 -52 -9h-7q-39 33 -59.5 73t-20.5 108z" />
<glyph unicode="&#x2019;" horiz-adv-x="539" d="M101 1569q11 13 44 31t73 34.5t78 27.5q36 10 56 10h3q37 -36 58 -76t21 -106q0 -44 -16 -96.5t-45.5 -104.5t-72 -99.5t-98.5 -82.5l-51 40q24 25 42.5 57t30.5 64.5t17.5 63t5.5 53.5q0 51 -31 89.5t-96 42.5z" />
<glyph unicode="&#x201a;" horiz-adv-x="539" d="M101 148q11 14 44 32t73 34.5t78 27.5q36 10 56 10h3q37 -36 58 -76t21 -106q0 -45 -16 -97t-45.5 -104t-72 -99t-98.5 -83l-51 39q24 26 42.5 58t30.5 64t17.5 62.5t5.5 53.5q0 52 -31 90.5t-96 42.5z" />
<glyph unicode="&#x201c;" horiz-adv-x="1026" d="M106 1286q0 45 15.5 96.5t45.5 103.5t73.5 99t98.5 83l50 -41q-24 -25 -42.5 -56.5t-30.5 -64t-18 -63t-6 -54.5q0 -52 31 -89t99 -40l18 -51q-10 -14 -44 -33t-73.5 -35.5t-77.5 -26.5q-32 -9 -52 -9h-7q-39 33 -59.5 73t-20.5 108zM591 1286q0 45 15.5 96.5t45.5 103.5 t73.5 99t99.5 83l49 -41q-25 -25 -43 -56.5t-30 -64t-18 -63t-6 -54.5q0 -52 31.5 -89t97.5 -40l20 -51q-11 -14 -44.5 -33t-73.5 -35.5t-78 -26.5q-32 -9 -51 -9h-7q-19 16 -34 34t-25 39t-16 47.5t-6 60.5z" />
<glyph unicode="&#x201d;" horiz-adv-x="1026" d="M101 1569q11 13 44 31t73 34.5t78 27.5q36 10 56 10h3q37 -36 58 -76t21 -106q0 -44 -16 -96.5t-45.5 -104.5t-72 -99.5t-98.5 -82.5l-51 40q24 25 42.5 57t30.5 64.5t17.5 63t5.5 53.5q0 51 -31 89.5t-96 42.5zM586 1569q10 13 43 31t73.5 34.5t78.5 27.5q36 10 56 10h4 q36 -36 57 -76t21 -106q0 -44 -15.5 -96.5t-45.5 -104.5t-72.5 -99.5t-97.5 -82.5l-50 40q24 25 42 57t30 64.5t18.5 63t6.5 53.5q0 51 -32.5 89.5t-97.5 42.5z" />
<glyph unicode="&#x201e;" horiz-adv-x="1058" d="M101 148q11 14 44 32t73 34.5t78 27.5q36 10 56 10h3q37 -36 58 -76t21 -106q0 -45 -16 -97t-45.5 -104t-72 -99t-98.5 -83l-51 39q24 26 42.5 58t30.5 64t17.5 62.5t5.5 53.5q0 52 -31 90.5t-96 42.5zM586 148q10 14 43 32t73.5 34.5t78.5 27.5q36 10 56 10h4 q36 -36 57 -76t21 -106q0 -45 -15.5 -97t-45.5 -104t-72.5 -99t-97.5 -83l-50 39q24 26 42 58t30 64t18.5 62.5t6.5 53.5q0 52 -32.5 90.5t-97.5 42.5z" />
<glyph unicode="&#x2026;" horiz-adv-x="1575" d="M151 83q0 39 12.5 73t34.5 60t51 40.5t61 14.5q58 0 86 -33.5t28 -96.5q0 -40 -12 -74t-33 -59t-50.5 -39.5t-62.5 -14.5q-62 0 -88.5 33.5t-26.5 95.5zM669 83q0 39 12.5 73t34.5 60t51 40.5t61 14.5q58 0 86 -33.5t28 -96.5q0 -40 -12 -74t-33 -59t-50.5 -39.5 t-62.5 -14.5q-62 0 -88.5 33.5t-26.5 95.5zM1186 83q0 39 12.5 73t34.5 60t51 40.5t61 14.5q58 0 86 -33.5t28 -96.5q0 -40 -12 -74t-33 -59t-50.5 -39.5t-62.5 -14.5q-62 0 -88.5 33.5t-26.5 95.5z" />
<glyph unicode="&#x2039;" horiz-adv-x="717" d="M92 494v41q0 16 0.5 28.5t1.5 14.5l413 472l48 -35l-11 -20l-30 -55l-42 -77l-50 -88l-48 -88l-42 -77l-30 -53q-12 -20 -11 -20l266 -483l-50 -34z" />
<glyph unicode="&#x203a;" horiz-adv-x="717" d="M161 54l266 483l-265 478l48 35l413 -472l3 -84l-416 -474z" />
<glyph unicode="&#x20ac;" d="M28 566q5 17 11.5 36.5t13.5 38.5h102v4q0 76 7 145h-75l-25 29q6 17 12 36.5t13 38.5h89q24 130 73.5 228t121 165t161.5 100t196 33q57 0 102 -9t82.5 -24.5t68.5 -36.5t61 -45q7 -5 -3.5 -22.5t-28.5 -39.5t-38 -43l-34 -36l-40 7l-54 49q-26 22 -56 38.5t-67.5 26 t-89.5 9.5q-39 0 -82.5 -17.5t-84 -62t-72.5 -122.5t-47 -198h408l29 -27l-29 -77h-417q-1 -24 -1.5 -50t-0.5 -52v-47h385l29 -27l-29 -77h-377q13 -120 46.5 -202.5t80 -133.5t103.5 -74t118 -23q36 0 70 9.5t72.5 32t84.5 59.5t104 89q6 -2 12.5 -9.5t12 -15.5t10 -15.5 t8.5 -10.5q-69 -79 -125 -132t-109 -85.5t-106.5 -46t-116.5 -13.5q-86 0 -163 33.5t-137 104t-99 178.5t-49 255h-106z" />
<glyph unicode="&#x2122;" horiz-adv-x="1316" d="M68 1335q0 9 1 24.5t3.5 33t5 33t5.5 23.5h449l14 -10q-1 -11 -1.5 -26t-2.5 -31l-4 -30q-2 -15 -6 -24h-19q-9 36 -15.5 55t-25.5 19h-121v-415q0 -6 12.5 -14t56.5 -17v-28h-220v28q40 9 54 16.5t14 14.5v415h-127q-6 0 -12 -3t-11 -10.5t-12 -22t-16 -38.5zM577 928 v28q30 5 44.5 12.5t14.5 13.5l5 428q-17 7 -31.5 8.5t-27.5 1.5v29h132q9 0 13 -6.5t15 -29.5l172 -358l165 358q10 25 14.5 30.5t13.5 5.5h132v-29q-25 0 -55 -9l5 -429q0 -6 14 -13.5t45 -12.5v-28h-203v28q30 5 47.5 12.5t17.5 13.5l-5 353l-184 -407h-33l-188 405 l-3 -351q0 -6 13.5 -13.5t45.5 -12.5v-28h-179z" />
<glyph unicode="&#xe000;" horiz-adv-x="1070" d="M0 1070h1070v-1070h-1070v1070z" />
</font>
</defs>
</svg>
