<?xml version="1.0" standalone="no"?>
<!DOCTYPE svg PUBLIC "-//W3C//DTD SVG 1.1//EN" "http://www.w3.org/Graphics/SVG/1.1/DTD/svg11.dtd" >
<svg xmlns="http://www.w3.org/2000/svg">
<metadata>
This is a custom SVG webfont generated by Font Squirrel.
Copyright   : Typeface  FontSite Inc 19962009 All Rights Reserved wwwfontsitecom
Designer    : FontSitecom
Foundry URL : httpwwwfontsitecom
</metadata>
<defs>
<font id="CartoGothicStdBook" horiz-adv-x="1165" >
<font-face units-per-em="2048" ascent="1552" descent="-496" />
<missing-glyph horiz-adv-x="542" />
<glyph unicode=" "  horiz-adv-x="542" />
<glyph unicode="&#x09;" horiz-adv-x="542" />
<glyph unicode="&#xa0;" horiz-adv-x="542" />
<glyph unicode="!" horiz-adv-x="847" d="M352 1448h238l-25 -1047h-178zM365 0v223h225v-223h-225z" />
<glyph unicode="&#x22;" horiz-adv-x="704" d="M92 1563h213l-31 -580h-151zM397 1563h217l-34 -580h-148z" />
<glyph unicode="#" d="M45 438l23 140h186l49 319h-186l24 139h193l65 412h164l-65 -406h278l66 406h164l-66 -412h188l-20 -139h-193l-49 -319h193l-21 -140h-194l-70 -438h-162l70 438h-281l-69 -438h-162l70 438h-195zM424 578h278l54 319h-283z" />
<glyph unicode="$" d="M102 1071q0 164 106.5 267.5t299.5 119.5v182h110v-180h13q63 0 167 -17q114 -19 173 -42l-21 -197q-150 74 -332 88v-444l64 -21q137 -45 231 -116q141 -109 142 -291q0 -176 -119 -293t-326 -137v-183h-110v181q-162 4 -377 63l16 211q172 -86 361 -90v506 q-129 35 -244 113q-154 104 -154 280zM313 1092q0 -90 88 -152q35 -23 107 -51v393q-94 -18 -144.5 -68t-50.5 -122zM610 176q88 10 144 51q90 74 90 174q0 152 -234 236v-461z" />
<glyph unicode="%" horiz-adv-x="1763" d="M49 1098q0 176 91 275.5t255 99.5t252 -98.5t88 -278.5q0 -170 -93 -272.5t-247 -102.5q-162 0 -254 100.5t-92 276.5zM213 1092q0 -115 48 -181.5t132 -66.5t132 66.5t48 183.5q0 123 -47 189.5t-129 66.5q-86 0 -135 -67.5t-49 -190.5zM352 -88l920 1624h137 l-922 -1624h-135zM1026 354q0 176 91 274.5t255 98.5t252 -97.5t88 -277.5q0 -172 -93 -274.5t-249 -102.5q-162 0 -253 101.5t-91 277.5zM1190 350q0 -119 48 -184.5t132 -65.5t132 65.5t48 184.5q0 121 -47 188.5t-129 67.5q-86 0 -135 -67.5t-49 -188.5z" />
<glyph unicode="&#x26;" horiz-adv-x="1509" d="M172 403q0 190 160 316q57 41 172 88q-72 61 -118 154.5t-46 175.5q0 141 105.5 232t271.5 91q162 0 263 -85t101 -222q0 -227 -307 -379l287 -346q84 145 92 358h193q-12 -315 -160 -497l246 -289h-254l-117 137q-92 -90 -182.5 -128t-212.5 -38q-215 0 -354.5 122 t-139.5 310zM391 406q0 -111 80 -187t197 -76q147 0 278 136l-338 405q-92 -53 -116 -76q-101 -79 -101 -202zM543 1133q0 -86 125 -242q119 66 170 126t51 128q0 63 -49 106t-123 43t-124 -46.5t-50 -114.5z" />
<glyph unicode="'" horiz-adv-x="395" d="M92 1563h213l-31 -580h-151z" />
<glyph unicode="(" horiz-adv-x="768" d="M135 567q0 309 146 641q57 137 190 355h184q-305 -561 -305 -996q0 -436 314 -1009h-187q-342 528 -342 1009z" />
<glyph unicode=")" horiz-adv-x="768" d="M104 1563h187q344 -528 344 -1010q0 -309 -148 -641q-57 -137 -190 -354h-184q307 561 307 995q-1 437 -316 1010z" />
<glyph unicode="*" d="M178 1217l45 145l293 -109l-10 310h153l-12 -310l295 109l47 -145l-297 -89l193 -243l-125 -92l-174 258l-172 -256l-123 88l186 245z" />
<glyph unicode="+" d="M84 659v160h420v404h158v-404h421v-160h-421v-405h-158v405h-420z" />
<glyph unicode="," horiz-adv-x="579" d="M45 -281l131 512h232l-181 -512h-182z" />
<glyph unicode="-" horiz-adv-x="544" d="M0 455v161h545v-161h-545z" />
<glyph unicode="." horiz-adv-x="579" d="M174 0v231h232v-231h-232z" />
<glyph unicode="/" horiz-adv-x="944" d="M-63 -442l735 2005h166l-727 -2005h-174z" />
<glyph unicode="0" d="M92 731q0 287 76 465q121 276 422 277q129 0 236.5 -70t160.5 -184q88 -186 88 -508q0 -293 -86 -480q-53 -119 -162.5 -189.5t-244.5 -70.5q-141 0 -251 76t-163 211q-76 184 -76 473zM301 725q0 -303 88 -461q72 -123 195 -123q281 0 280 582q0 274 -72.5 427 t-201.5 153q-186 0 -250 -238q-39 -150 -39 -340z" />
<glyph unicode="1" d="M225 1153l355 295h192v-1448h-205v1223q-14 -18 -32 -35l-50 -45l-145 -127z" />
<glyph unicode="2" d="M115 219q350 301 509.5 502t159.5 342q0 102 -80.5 167.5t-203.5 65.5q-158 0 -328 -104l-22 188q211 86 382 86q213 0 344.5 -110.5t131.5 -286.5q0 -137 -85 -278.5t-292 -352.5q-170 -172 -314 -274q49 8 154 8h567v-172h-923v219z" />
<glyph unicode="3" d="M115 39l8 190q197 -80 354 -79q141 0 231.5 71.5t90.5 181.5q0 182 -211 242q-74 20 -213 21q-35 0 -66 -2v176q139 0 236 18q250 49 250 225q0 96 -82 155.5t-209 59.5q-158 0 -330 -71l-14 178q174 63 354 63q219 0 340 -86q152 -109 152 -297q0 -135 -97.5 -227 t-251.5 -104q164 -8 264.5 -109.5t100.5 -257.5q0 -184 -144.5 -295.5t-385.5 -111.5q-189 0 -377 59z" />
<glyph unicode="4" d="M45 317v170l586 961h299v-961h190v-170h-190v-317h-207v317h-678zM252 487h47h424v576q0 96 25 315q-35 -106 -140.5 -293.5t-355.5 -597.5z" />
<glyph unicode="5" d="M180 35l6 190q164 -72 295 -71q154 0 249 81.5t95 210.5q0 133 -99 213t-261 80q-125 0 -275 -49l13 758h801v-172h-611l-4 -277q0 -27 -6 -110q74 20 162 20q225 0 364.5 -125t139.5 -325q0 -215 -155 -344t-411 -129q-145 0 -303 49z" />
<glyph unicode="6" d="M113 678q0 387 149.5 591t435.5 204q143 0 301 -50l-26 -184q-133 63 -264 64q-98 0 -182.5 -50.5t-133.5 -136.5q-35 -59 -57.5 -151.5t-22.5 -169.5v-35q43 74 132.5 117t195.5 43q188 0 310 -130.5t122 -330.5q0 -213 -132 -349.5t-337 -136.5q-240 0 -365.5 180.5 t-125.5 524.5zM336 461q0 -135 75.5 -226.5t189.5 -91.5t187.5 86t73.5 217.5t-73.5 218.5t-186.5 87q-117 0 -191.5 -82t-74.5 -209z" />
<glyph unicode="7" d="M111 1276v172h925v-172l-542 -1276h-232l436 993q86 188 138 285l-13 -2h-42h-66h-604z" />
<glyph unicode="8" d="M82 383q0 272 317 385q-125 27 -204.5 122t-79.5 220q0 164 127 263.5t340 99.5q203 0 328.5 -98.5t125.5 -256.5q0 -109 -70.5 -198t-199.5 -144q154 -49 235.5 -149.5t81.5 -239.5q0 -184 -136 -299t-355 -115q-225 0 -367.5 115t-142.5 295zM305 397q0 -111 83 -182.5 t212 -71.5q119 0 195.5 63.5t76.5 166.5q0 137 -153 233q-57 37 -172 78q-242 -117 -242 -287zM326 1118q0 -152 299 -278q49 31 71 53q129 104 129 223q0 82 -72.5 139.5t-177 57.5t-177 -56.5t-72.5 -138.5z" />
<glyph unicode="9" d="M84 997q0 209 131 344.5t332 135.5q242 0 368.5 -177.5t126.5 -513.5q0 -399 -151.5 -605t-444.5 -206q-133 0 -288 50l26 184q135 -63 262 -64q229 0 338 232q49 117 62 307q-117 -156 -326 -156q-193 0 -314.5 131t-121.5 338zM295 1006q0 -135 74.5 -222.5 t188.5 -87.5t187.5 83t73.5 208q0 133 -75.5 226.5t-184.5 93.5q-115 0 -189.5 -85t-74.5 -216z" />
<glyph unicode=":" horiz-adv-x="579" d="M174 0v231h232v-231h-232zM174 829v232h232v-232h-232z" />
<glyph unicode=";" horiz-adv-x="579" d="M43 -281l131 512h232l-179 -512h-184zM154 829v232h233v-232h-233z" />
<glyph unicode="&#x3c;" horiz-adv-x="1085" d="M72 649v168l940 453v-195l-731 -342l731 -342v-194z" />
<glyph unicode="=" d="M84 508v158h999v-158h-999zM84 811v160h999v-160h-999z" />
<glyph unicode="&#x3e;" horiz-adv-x="1085" d="M74 197v194l731 342l-731 342v193l940 -451v-168z" />
<glyph unicode="?" horiz-adv-x="1103" d="M211 1409q186 63 352 64q197 0 321 -104.5t124 -270.5q0 -92 -43 -176t-160 -222q-82 -94 -104.5 -145t-22.5 -152h-186q0 147 31.5 219t160.5 218q109 117 109 235q0 94 -70 153.5t-184 59.5q-152 0 -314 -82zM475 0v225h221v-225h-221z" />
<glyph unicode="@" horiz-adv-x="1654" d="M104 719q0 319 220.5 538.5t539.5 219.5q297 0 492.5 -183.5t195.5 -459.5q0 -205 -108.5 -358.5t-249.5 -153.5q-63 0 -106.5 36.5t-53.5 100.5q-98 -150 -272 -150q-133 0 -218 98.5t-85 249.5q0 180 111.5 309.5t267.5 129.5q168 0 231 -146l23 123h139l-86 -446 q-14 -68 -15 -101q0 -41 19.5 -65.5t50.5 -24.5q88 0 157.5 122t69.5 273q0 225 -156.5 372t-400.5 147q-264 0 -446 -183.5t-182 -450.5t170 -442q168 -176 460 -176q244 0 445 90l35 -125q-215 -92 -473 -92q-340 0 -553 207q-104 102 -163 245.5t-59 295.5zM614 659 q0 -92 51.5 -151t131.5 -59q94 0 160.5 89t66.5 216q0 88 -46 141t-124 53q-96 0 -168 -86t-72 -203z" />
<glyph unicode="A" horiz-adv-x="1480" d="M10 0l617 1448h217l629 -1448h-234l-152 367h-702l-152 -367h-223zM449 543h567l-168 403q-98 238 -117 324q-27 -86 -121 -328z" />
<glyph unicode="B" horiz-adv-x="1255" d="M186 0v1448h344q164 0 240 -13.5t141 -50.5q182 -106 183 -307q0 -176 -131 -270q-63 -45 -177 -72q135 -18 207 -67q143 -96 144 -279q0 -106 -51.5 -193t-145.5 -137q-106 -59 -340 -59h-414zM393 176h160q170 0 242 35q131 59 131 197q0 80 -49.5 142t-133.5 91 q-68 20 -241 21h-109v-486zM393 831h148q147 0 210.5 24t100.5 77t37 119q0 72 -43 125t-119 77q-66 18 -227 19h-107v-441z" />
<glyph unicode="C" horiz-adv-x="1259" d="M104 731q0 322 212 524.5t548 202.5q190 0 330 -63l-16 -197q-152 84 -304 84q-244 0 -396 -152.5t-152 -394t158.5 -401.5t398.5 -160q145 0 311 66l14 -201q-150 -49 -319 -49q-317 0 -514 151q-271 209 -271 590z" />
<glyph unicode="D" horiz-adv-x="1495" d="M186 0v1448h299q258 0 387 -35q233 -63 378 -253.5t145 -440.5q0 -238 -131 -418t-357 -254q-150 -47 -389 -47h-332zM393 176h109q242 0 364 51q143 63 224 194.5t81 303.5q0 174 -94 315.5t-248 194.5q-109 37 -325 37h-111v-1096z" />
<glyph unicode="E" horiz-adv-x="1142" d="M186 0v1448h805v-176h-598v-428h555v-176h-555v-492h617v-176h-824z" />
<glyph unicode="F" horiz-adv-x="1044" d="M186 0v1448h768v-176h-561v-434h541v-176h-541v-662h-207z" />
<glyph unicode="G" horiz-adv-x="1490" d="M104 735q0 330 215.5 526.5t575.5 196.5q217 0 397 -72l-16 -196q-166 92 -369 92q-256 0 -418.5 -152.5t-162.5 -396.5q0 -256 162.5 -411.5t426.5 -155.5q92 0 197 31v419h-311v177h516v-736q-199 -68 -416 -67q-367 0 -582 201.5t-215 543.5z" />
<glyph unicode="H" horiz-adv-x="1486" d="M186 0v1448h207v-608h701v608h206v-1448h-206v664h-701v-664h-207z" />
<glyph unicode="I" horiz-adv-x="606" d="M203 0v1448h205v-1448h-205z" />
<glyph unicode="J" horiz-adv-x="798" d="M41 6v180q76 -31 152 -30q145 0 194 129q20 51 21 229v934h206v-985q0 -154 -7 -203t-38 -106q-98 -174 -346 -174q-63 -1 -182 26z" />
<glyph unicode="K" horiz-adv-x="1366" d="M186 0v1448h207v-483q0 -125 -4 -174l119 131l506 526h278l-682 -686l740 -762h-299l-529 563q-12 12 -131 154q2 -59 2 -148v-569h-207z" />
<glyph unicode="L" horiz-adv-x="1040" d="M186 0v1448h207v-1272h613v-176h-820z" />
<glyph unicode="M" horiz-adv-x="1964" d="M186 0v1448h342l283 -727l127 -328q35 -109 45 -160q33 123 174 492l277 723h344v-1448h-207v827q0 70 4 252.5t4 243.5v29q-12 -33 -14 -37l-35 -113q-18 -59 -94 -268l-45 -125q-6 -18 -13.5 -37.5l-15.5 -39.5l-12 -30l-271 -702h-200l-273 702q-156 403 -221 611 l-14 39v-33q12 -119 14 -197q0 -29 4 -168q4 -129 4 -143v-811h-207z" />
<glyph unicode="N" horiz-adv-x="1529" d="M186 0v1448h283l494 -854q145 -254 196 -414q-23 211 -22 572v696h206v-1448h-266l-459 786q-197 338 -243 496q18 -197 18 -545v-737h-207z" />
<glyph unicode="O" horiz-adv-x="1607" d="M104 721q0 164 54.5 315.5t150.5 253.5q174 186 506 187q313 0 501.5 -206t188.5 -548q0 -324 -174 -535q-180 -217 -524 -217q-326 0 -510 205q-88 98 -140.5 244.5t-52.5 300.5zM326 725q0 -260 134 -425t345 -165t344 164t133 420q0 262 -131 428t-340 166 q-221 0 -353 -160t-132 -428z" />
<glyph unicode="P" horiz-adv-x="1150" d="M188 0v1448h287q258 0 367 -39q123 -43 193.5 -148.5t70.5 -244.5q0 -137 -68.5 -240.5t-191.5 -152.5q-106 -43 -336 -43h-115v-580h-207zM395 756h113q180 0 254 41q121 70 121 219q0 86 -48.5 148.5t-138.5 88.5q-70 18 -215 19h-86v-516z" />
<glyph unicode="Q" horiz-adv-x="1607" d="M104 723q0 342 190.5 548t510.5 206q352 0 534 -234q166 -203 166 -524q0 -244 -100 -422t-285 -264l348 -314h-272l-276 258q-78 -6 -111 -6q-322 0 -513.5 206t-191.5 546zM326 731q0 -264 133 -430t344 -166q213 0 346 163t133 421q0 262 -131 428t-340 166 q-219 0 -352 -160t-133 -422z" />
<glyph unicode="R" horiz-adv-x="1263" d="M186 0v1448h351q217 0 325 -37q111 -37 175.5 -130t64.5 -216q0 -164 -119 -264q-68 -53 -188 -76q66 -29 102.5 -70t77.5 -127l246 -528h-240l-186 434q-59 135 -108.5 173t-174.5 38h-119v-645h-207zM393 823h127q156 0 228 25q143 53 143 201q0 70 -37 124t-102 76 q-63 23 -209 23h-150v-449z" />
<glyph unicode="S" horiz-adv-x="1028" d="M94 1081q0 178 126 287t329 109q162 0 317 -54l-26 -182q-156 59 -270.5 59t-187.5 -55t-73 -145q0 -74 49.5 -127t184.5 -119l78 -39q182 -92 251.5 -180t69.5 -227q0 -195 -135 -316t-358 -121q-180 0 -332 60l22 192q158 -76 285 -76q133 0 215 68t82 178 q0 80 -53.5 139.5t-169.5 114.5l-80 37q-172 78 -248 170t-76 227z" />
<glyph unicode="T" horiz-adv-x="1146" d="M12 1272v176h1123v-176h-453v-1272h-207v1272h-463z" />
<glyph unicode="U" horiz-adv-x="1492" d="M186 659v789h207v-758q0 -262 51 -366q41 -82 124 -129.5t188 -47.5q238 0 315 220q29 84 29 313v768h207v-817q0 -164 -18.5 -257t-67.5 -169q-145 -233 -471 -234q-180 0 -313.5 77t-192.5 220q-58 127 -58 391z" />
<glyph unicode="V" horiz-adv-x="1372" d="M10 1448h230l352 -954q70 -197 102 -324q31 139 99 324l354 954h217l-547 -1448h-252z" />
<glyph unicode="W" horiz-adv-x="2070" d="M10 1448h228l247 -846q80 -272 103 -399q12 78 92 405l209 840h297l221 -846q31 -121 52.5 -214t33.5 -138l14 -47q27 166 95 399l247 846h213l-434 -1448h-262l-252 950q-49 178 -80 330l-71 -330l-240 -950h-266z" />
<glyph unicode="X" horiz-adv-x="1378" d="M12 0l535 760l-494 688h250l385 -547l383 547h238l-486 -688l543 -760h-264l-428 618l-414 -618h-248z" />
<glyph unicode="Y" horiz-adv-x="1363" d="M10 1448h256l359 -543q49 -70 63 -108q16 39 60 102l362 549h244l-563 -834v-614h-207v608z" />
<glyph unicode="Z" horiz-adv-x="1159" d="M66 0v176l587 852q131 193 185 248q-106 -4 -201 -4h-545v176h969v-191l-621 -892l-26.5 -38t-20.5 -30q-27 -35 -39 -53q-29 -35 -28 -37q-2 -2 -25 -37q53 6 162 6h612v-176h-1009z" />
<glyph unicode="[" horiz-adv-x="770" d="M207 -442v2005h403v-142h-217v-1724h217v-139h-403z" />
<glyph unicode="\" horiz-adv-x="944" d="M106 1563h168l734 -2005h-174z" />
<glyph unicode="]" horiz-adv-x="770" d="M160 -301h217v1724h-217v140h405v-2005h-405v141z" />
<glyph unicode="^" horiz-adv-x="1085" d="M41 772l373 680h258l372 -680h-208l-293 526l-293 -526h-209z" />
<glyph unicode="_" horiz-adv-x="1085" d="M0 -129h1085v-176h-1085v176z" />
<glyph unicode="`" horiz-adv-x="1085" d="M268 1536h217l179 -297h-138z" />
<glyph unicode="a" horiz-adv-x="1146" d="M94 303q0 168 144.5 259t410.5 91q45 0 148 -6q-2 266 -265 266q-160 0 -313 -104l-10 174q168 98 356 98q287 0 379 -196q43 -88 43 -303v-222q0 -223 12 -360h-180q-2 41 -2 84q0 33 2 98q-119 -197 -356 -196q-168 0 -268.5 86t-100.5 231zM301 305q0 -74 58.5 -119 t146.5 -45q86 0 156.5 41t105.5 113q33 68 33 207q-53 6 -107 6q-393 0 -393 -203z" />
<glyph unicode="b" horiz-adv-x="1251" d="M154 1563h198v-559q0 -51 -2 -89q0 -2 -1 -7t-2 -14t-1 -15q39 92 139.5 147t227.5 55q205 0 329.5 -147.5t124.5 -392.5q0 -252 -124.5 -403.5t-333.5 -151.5q-123 0 -219.5 51t-147.5 145v-182h-188v1563zM356 530q0 -162 88 -270t220 -108q129 0 213 107.5t84 273 t-81 273t-206 107.5q-139 0 -228.5 -108.5t-89.5 -274.5z" />
<glyph unicode="c" horiz-adv-x="925" d="M84 530q0 225 131 371q74 80 180.5 127t220.5 47q131 0 242 -43l-14 -174q-84 49 -193 49q-158 0 -258 -104.5t-100 -263.5q0 -172 99.5 -278.5t254.5 -106.5q113 0 221 67l15 -180q-111 -53 -260 -53q-242 0 -390.5 148t-148.5 394z" />
<glyph unicode="d" horiz-adv-x="1257" d="M84 528q0 244 129 398.5t336 154.5q221 0 352 -184l-4 92q0 12 -1 29.5t-1 23.5v521h197v-1067q0 -229 16 -496h-193v178q-133 -193 -366 -192q-213 0 -339 146t-126 396zM293 528q0 -168 83 -272t215 -104t220 107.5t88 270.5q0 160 -87 271.5t-212 111.5 q-135 0 -221 -107.5t-86 -277.5z" />
<glyph unicode="e" horiz-adv-x="1132" d="M84 541q0 248 138 398.5t364 150.5q219 0 341 -151t122 -425q0 -18 -2 -35h-764q18 -158 114.5 -249t241.5 -91q164 0 330 101v-191q-172 -78 -342 -78q-250 0 -396.5 155t-146.5 415zM285 635h567q-18 127 -55 182q-76 117 -217 117q-117 0 -197 -82t-98 -217z" />
<glyph unicode="f" horiz-adv-x="765" d="M6 907v154h250v47q0 223 57 315q84 145 287 146q66 0 143 -17v-163q-70 14 -100 14q-137 0 -172 -109q-16 -63 -16 -184v-49h288v-154h-288v-907h-199v907h-250z" />
<glyph unicode="g" horiz-adv-x="1226" d="M84 526q0 246 128 399.5t335 153.5q125 0 220 -53t138 -147q2 14 2 24q-2 18 -2 64v96h185v-879q0 -262 -35 -368q-41 -133 -167 -204t-317 -71q-199 0 -401 74l18 192q199 -98 379 -98q225 0 299 160q35 72 37 217q0 55 2 90q-121 -178 -354 -178q-211 0 -339 145 t-128 383zM293 528q0 -160 83 -261t210 -101q135 0 223 103.5t88 267.5q0 156 -87 265t-212 109q-135 0 -220 -106.5t-85 -276.5z" />
<glyph unicode="h" horiz-adv-x="1230" d="M152 0v1563h198v-506q0 -115 -8 -166q115 190 354 190q270 0 359 -227q39 -102 39 -297v-557h-197v461q0 207 -20 276q-45 176 -222 176q-98 0 -175 -58t-107 -159q-23 -74 -23 -274v-422h-198z" />
<glyph unicode="i" horiz-adv-x="495" d="M137 1315v217h215v-217h-215zM150 0v1061h198v-1061h-198z" />
<glyph unicode="j" horiz-adv-x="536" d="M-39 -279q39 -4 51 -4q121 0 156 95q12 33 14 61.5t2 149.5v1038h199v-1038q0 -139 -5 -186.5t-22 -100.5q-29 -88 -103.5 -137.5t-176.5 -49.5q-41 0 -115 11v161zM176 1315v217h215v-217h-215z" />
<glyph unicode="k" horiz-adv-x="1124" d="M152 0v1563h198v-748q0 -59 -1 -100t-2 -55.5t-3 -24.5t-2 -17q35 43 92 99l346 344h264l-495 -469l563 -592h-278l-361 391q-14 16 -56 69.5t-75 86.5q8 -51 8 -160v-387h-198z" />
<glyph unicode="l" horiz-adv-x="495" d="M150 0v1563h198v-1563h-198z" />
<glyph unicode="m" horiz-adv-x="1830" d="M150 1061h182l10 -170q43 88 132 139t204 51q240 0 311 -213q106 213 350 213q121 0 207 -59t121 -170q29 -92 29 -295v-557h-199v520q0 184 -16 246q-41 147 -183 147q-88 0 -155.5 -60t-93.5 -159q-20 -70 -21 -245v-449h-197v545q0 174 -14 223q-43 145 -176 145 q-82 0 -149.5 -52t-100.5 -138q-31 -80 -31 -254v-469h-196v600q0 201 -14 461z" />
<glyph unicode="n" horiz-adv-x="1239" d="M150 1061h184l8 -166q127 186 367 186q137 0 233 -67.5t133 -190.5q27 -88 27 -327v-496h-197v477q0 201 -16 262q-49 174 -225 174q-96 0 -173 -59t-106 -160q-25 -82 -25 -305v-389h-196v526q0 271 -14 535z" />
<glyph unicode="o" horiz-adv-x="1255" d="M84 528q0 242 153.5 402t387.5 160q244 0 395 -159t151 -411q0 -238 -153.5 -393.5t-392.5 -155.5q-231 0 -386 158.5t-155 398.5zM293 530q0 -178 94 -289.5t242 -111.5q145 0 240.5 111.5t95.5 279.5q0 182 -94.5 298t-242 116t-241.5 -115t-94 -289z" />
<glyph unicode="p" horiz-adv-x="1259" d="M150 1061h186l14 -187q123 207 369 207q203 0 329 -147.5t126 -388.5q0 -252 -127 -405.5t-332 -153.5q-252 0 -365 207l2 -35q8 -121 8 -168v-432h-196v1040q0 240 -14 463zM360 530q0 -162 89.5 -270t222.5 -108q125 0 210 108.5t85 271.5q0 168 -80 274.5t-207 106.5 q-139 0 -229.5 -108.5t-90.5 -274.5z" />
<glyph unicode="q" horiz-adv-x="1253" d="M82 526q0 250 129 402.5t340 152.5q127 0 222 -57t142 -162q-6 31 -6 68q0 55 -4 112q0 8 2 19h191v-1503h-197v458q0 113 10 168q-119 -199 -366 -198q-213 0 -338 146t-125 394zM291 529q0 -167 84 -272t216 -105t220 107.5t88 270t-86 273t-211 110.5 q-137 0 -224 -108.5t-87 -275.5z" />
<glyph unicode="r" horiz-adv-x="780" d="M150 1061h182l10 -189q94 205 303 205q53 0 107 -16v-180q-51 20 -95 20q-94 0 -166.5 -58.5t-105.5 -162.5q-25 -72 -25 -262v-418h-196v647q0 117 -14 414z" />
<glyph unicode="s" horiz-adv-x="819" d="M76 772q0 139 101.5 224t266.5 85q119 0 248 -43l-14 -168q-109 55 -215 56q-80 0 -129 -36t-49 -97q0 -82 147 -154l80 -39q131 -63 185.5 -130t54.5 -167q0 -145 -106.5 -234t-280.5 -89q-145 0 -277 61v176q145 -70 250 -70q90 0 147.5 39t57.5 100.5t-51 100.5 q-25 16 -91 49l-82 41q-115 59 -165 105q-78 77 -78 190z" />
<glyph unicode="t" horiz-adv-x="796" d="M-6 907v154h246v239l196 68v-307h281v-154h-281v-422q0 -156 10 -206q12 -59 55.5 -92t108.5 -33q55 0 127 32v-170q-98 -29 -182 -28q-201 0 -274 137q-41 82 -41 303v479h-246z" />
<glyph unicode="u" horiz-adv-x="1226" d="M137 500v561h197v-492q0 -211 28 -284q55 -143 207 -144q168 0 254 168q29 57 36 107.5t7 177.5v467h197v-668q0 -164 14 -393h-180l-12 166q-127 -180 -355 -180q-119 0 -209 49t-133 141q-51 107 -51 324z" />
<glyph unicode="v" horiz-adv-x="1024" d="M12 1061h213l217 -612q70 -190 78 -265q10 57 21 90l26 80l250 707h195l-383 -1061h-226z" />
<glyph unicode="w" horiz-adv-x="1718" d="M12 1061h215l174 -569q68 -227 80 -314l11 37q16 74 51 184l209 662h229l193 -584q45 -127 83 -299q16 111 76 305l178 578h195l-338 -1061h-229l-183 545q-63 199 -96 348q-39 -168 -96 -344l-176 -549h-226z" />
<glyph unicode="x" horiz-adv-x="1030" d="M12 0l381 557l-352 504h242l174 -262q51 -80 69 -133q12 43 72 135l164 260h217l-338 -504l377 -557h-244l-196 305q-51 84 -70 129q-8 -29 -25 -59q-2 -4 -13 -22l-28 -42l-198 -311h-232z" />
<glyph unicode="y" horiz-adv-x="1021" d="M12 1061h213l238 -670q51 -150 55 -219q12 61 17 80l30 88l250 721h195l-379 -1051q-84 -240 -152 -325q-98 -133 -278 -134q-47 0 -123 15l10 160q51 -18 94 -19q88 0 142 60q66 78 98 190z" />
<glyph unicode="z" horiz-adv-x="1030" d="M78 0v160l502 616q80 96 100 117l18 18q-63 -4 -151 -4h-445v154h813v-164l-512 -627q-49 -57 -84 -94q-6 -10 -26 -33q41 10 166 11h481v-154h-862z" />
<glyph unicode="{" horiz-adv-x="1069" d="M297 492v137q123 33 123 200v433q0 176 94 245q43 33 97.5 44.5t164.5 11.5h35v-142q-127 0 -166 -32.5t-39 -145.5v-424q0 -106 -27.5 -160.5t-99.5 -99.5q70 -43 98.5 -100.5t28.5 -161.5v-418q0 -117 39 -149q37 -31 151 -31h15v-141h-37h-57q-152 0 -224.5 76.5 t-72.5 240.5v412q0 96 -27.5 142.5t-95.5 62.5z" />
<glyph unicode="|" horiz-adv-x="1085" d="M444 -362v1810h197v-1810h-197z" />
<glyph unicode="}" horiz-adv-x="1069" d="M258 -301q129 0 168 31.5t39 146.5v424q0 106 26.5 160.5t98.5 97.5q-70 45 -97.5 102.5t-27.5 161.5v418q0 115 -39 148.5t-168 31.5v142h37h59q152 0 224.5 -77t72.5 -241v-411q0 -96 27 -142.5t94 -62.5v-137q-121 -33 -121 -201v-432q0 -176 -96 -246 q-43 -33 -97.5 -44t-164.5 -11h-35v141z" />
<glyph unicode="~" horiz-adv-x="1447" d="M201 1325q49 102 80 143q88 121 225 121q78 0 239 -69q145 -66 204 -66t96.5 29.5t87.5 109.5l116 -67q-66 -131 -133 -189q-92 -70 -194 -69q-68 0 -306 100q-72 33 -126 33t-94 -34t-83 -116z" />
<glyph unicode="&#xa2;" d="M197 735q0 225 131 371.5t350 169.5v168h110v-168q115 -12 185 -39l-12 -174q-70 39 -173 47v-748q106 8 193 64l18 -178q-96 -45 -211 -53v-172h-110v172q-223 23 -352 168t-129 372zM408 743q0 -143 70.5 -241.5t199.5 -130.5v729q-129 -37 -199.5 -129.5t-70.5 -227.5 z" />
<glyph unicode="&#xa3;" d="M133 172h193v530h-174v117h172v49q0 166 18 250t70 158q61 88 166.5 135t233.5 47t253 -41l-16 -180q-129 53 -215 53q-104 0 -180 -53t-105 -147q-23 -78 -23 -232v-39h336v-117h-330v-530h510v-172h-909v172z" />
<glyph unicode="&#xa5;" d="M10 1448h256l279 -545q33 -63 45 -106q18 49 41 102l278 549h248l-283 -508h216v-115h-281l-96 -176h356v-114h-377v-535h-207v535h-385v114h363l-101 176h-284v115h219z" />
<glyph unicode="&#xa8;" horiz-adv-x="1085" d="M252 1274v211h188v-211h-188zM645 1274v211h189v-211h-189z" />
<glyph unicode="&#xa9;" horiz-adv-x="1703" d="M104 723q0 317 220.5 535.5t539.5 218.5q301 0 518 -221.5t217 -530.5q0 -313 -218 -533.5t-527 -220.5t-529.5 221.5t-220.5 530.5zM221 723q0 -264 185.5 -454.5t446.5 -190.5t445.5 189.5t184.5 455.5q0 264 -183.5 455.5t-437.5 191.5q-270 0 -455.5 -188.5 t-185.5 -458.5zM440 727q0 184 130 301t335 117q117 0 209 -39l-14 -129q-96 51 -189 51q-141 0 -231 -82t-90 -214t93 -219t235 -87q90 0 194 39l8 -131q-98 -31 -200 -31q-219 0 -349.5 115.5t-130.5 308.5z" />
<glyph unicode="&#xab;" horiz-adv-x="1161" d="M115 537l291 419h188l-268 -419l274 -431h-186zM537 537l290 419h189l-268 -419l272 -431h-184z" />
<glyph unicode="&#xad;" horiz-adv-x="544" d="M0 455v161h545v-161h-545z" />
<glyph unicode="&#xae;" horiz-adv-x="1703" d="M104 723q0 317 220.5 535.5t539.5 218.5q301 0 518 -221.5t217 -530.5q0 -313 -218 -533.5t-527 -220.5t-529.5 221.5t-220.5 530.5zM221 723q0 -264 185.5 -454.5t446.5 -190.5t445.5 189.5t184.5 455.5q0 264 -183.5 455.5t-437.5 191.5q-270 0 -455.5 -188.5 t-185.5 -458.5zM575 1137h218q133 0 199.5 -21.5t108.5 -77t42 -125.5q0 -152 -166 -192q49 -27 86 -103l156 -307h-164l-113 246q-35 74 -62.5 94.5t-99.5 20.5h-63v-361h-142v826zM717 788h69q113 0 162 27t49 90q0 61 -47 88t-153 27h-80v-232z" />
<glyph unicode="&#xb4;" horiz-adv-x="1085" d="M422 1239l178 297h217l-258 -297h-137z" />
<glyph unicode="&#xb8;" horiz-adv-x="1085" d="M322 -391l36 74q68 -31 142 -31q49 0 80.5 22.5t31.5 59.5q0 35 -28.5 57.5t-71.5 22.5q-14 0 -76 -17l-35 35l105 168h86l-72 -117q53 10 80 11q74 0 119 -41t45 -107q0 -76 -69.5 -128t-174.5 -52q-106 0 -198 43z" />
<glyph unicode="&#xbb;" horiz-adv-x="1161" d="M139 106l273 431l-269 419h189l291 -419l-299 -431h-185zM559 106l277 431l-269 419h187l290 -419l-296 -431h-189z" />
<glyph unicode="&#x2c6;" horiz-adv-x="1085" d="M221 1239l223 297h195l223 -297h-166l-153 201l-156 -201h-166z" />
<glyph unicode="&#x2da;" horiz-adv-x="1085" d="M332 1399q0 86 63.5 146.5t151.5 60.5q82 0 144.5 -61.5t62.5 -148.5t-62.5 -148.5t-148.5 -61.5t-148.5 61.5t-62.5 151.5zM438 1396q0 -44 31 -74t74 -30t73.5 31t30.5 73t-30.5 72.5t-71.5 30.5q-43 0 -75 -29.5t-32 -73.5z" />
<glyph unicode="&#x2dc;" horiz-adv-x="1085" d="M221 1270q31 217 201 217q35 0 59.5 -7t122.5 -48q47 -23 76 -23q68 0 80 82h102q-16 -102 -63 -159.5t-121 -57.5q-53 0 -229 76q-18 10 -46 10q-63 0 -79 -90h-103z" />
<glyph unicode="&#x3c0;" horiz-adv-x="1314" d="M68 864v176h1181v-176h-159v-864h-195v864h-469v-864h-197v864h-161z" />
<glyph unicode="&#x410;" horiz-adv-x="1480" d="M10 0l617 1448h217l629 -1448h-234l-152 367h-702l-152 -367h-223zM449 543h567l-168 403q-98 238 -117 324q-27 -86 -121 -328z" />
<glyph unicode="&#x412;" horiz-adv-x="1255" d="M186 0v1448h344q164 0 240 -13.5t141 -50.5q182 -106 183 -307q0 -176 -131 -270q-63 -45 -177 -72q135 -18 207 -67q143 -96 144 -279q0 -106 -51.5 -193t-145.5 -137q-106 -59 -340 -59h-414zM393 176h160q170 0 242 35q131 59 131 197q0 80 -49.5 142t-133.5 91 q-68 20 -241 21h-109v-486zM393 831h148q147 0 210.5 24t100.5 77t37 119q0 72 -43 125t-119 77q-66 18 -227 19h-107v-441z" />
<glyph unicode="&#x415;" horiz-adv-x="1142" d="M186 0v1448h805v-176h-598v-428h555v-176h-555v-492h617v-176h-824z" />
<glyph unicode="&#x41a;" horiz-adv-x="1366" d="M186 0v1448h207v-483q0 -125 -4 -174l119 131l506 526h278l-682 -686l740 -762h-299l-529 563q-12 12 -131 154q2 -59 2 -148v-569h-207z" />
<glyph unicode="&#x41c;" horiz-adv-x="1964" d="M186 0v1448h342l283 -727l127 -328q35 -109 45 -160q33 123 174 492l277 723h344v-1448h-207v827q0 70 4 252.5t4 243.5v29q-12 -33 -14 -37l-35 -113q-18 -59 -94 -268l-45 -125q-6 -18 -13.5 -37.5l-15.5 -39.5l-12 -30l-271 -702h-200l-273 702q-156 403 -221 611 l-14 39v-33q12 -119 14 -197q0 -29 4 -168q4 -129 4 -143v-811h-207z" />
<glyph unicode="&#x41d;" horiz-adv-x="1486" d="M186 0v1448h207v-608h701v608h206v-1448h-206v664h-701v-664h-207z" />
<glyph unicode="&#x41e;" horiz-adv-x="1607" d="M104 721q0 164 54.5 315.5t150.5 253.5q174 186 506 187q313 0 501.5 -206t188.5 -548q0 -324 -174 -535q-180 -217 -524 -217q-326 0 -510 205q-88 98 -140.5 244.5t-52.5 300.5zM326 725q0 -260 134 -425t345 -165t344 164t133 420q0 262 -131 428t-340 166 q-221 0 -353 -160t-132 -428z" />
<glyph unicode="&#x420;" horiz-adv-x="1150" d="M188 0v1448h287q258 0 367 -39q123 -43 193.5 -148.5t70.5 -244.5q0 -137 -68.5 -240.5t-191.5 -152.5q-106 -43 -336 -43h-115v-580h-207zM395 756h113q180 0 254 41q121 70 121 219q0 86 -48.5 148.5t-138.5 88.5q-70 18 -215 19h-86v-516z" />
<glyph unicode="&#x421;" horiz-adv-x="1259" d="M104 731q0 322 212 524.5t548 202.5q190 0 330 -63l-16 -197q-152 84 -304 84q-244 0 -396 -152.5t-152 -394t158.5 -401.5t398.5 -160q145 0 311 66l14 -201q-150 -49 -319 -49q-317 0 -514 151q-271 209 -271 590z" />
<glyph unicode="&#x422;" horiz-adv-x="1146" d="M12 1272v176h1123v-176h-453v-1272h-207v1272h-463z" />
<glyph unicode="&#x425;" horiz-adv-x="1378" d="M12 0l535 760l-494 688h250l385 -547l383 547h238l-486 -688l543 -760h-264l-428 618l-414 -618h-248z" />
<glyph unicode="&#x430;" horiz-adv-x="1146" d="M94 303q0 168 144.5 259t410.5 91q45 0 148 -6q-2 266 -265 266q-160 0 -313 -104l-10 174q168 98 356 98q287 0 379 -196q43 -88 43 -303v-222q0 -223 12 -360h-180q-2 41 -2 84q0 33 2 98q-119 -197 -356 -196q-168 0 -268.5 86t-100.5 231zM301 305q0 -74 58.5 -119 t146.5 -45q86 0 156.5 41t105.5 113q33 68 33 207q-53 6 -107 6q-393 0 -393 -203z" />
<glyph unicode="&#x435;" horiz-adv-x="1132" d="M84 541q0 248 138 398.5t364 150.5q219 0 341 -151t122 -425q0 -18 -2 -35h-764q18 -158 114.5 -249t241.5 -91q164 0 330 101v-191q-172 -78 -342 -78q-250 0 -396.5 155t-146.5 415zM285 635h567q-18 127 -55 182q-76 117 -217 117q-117 0 -197 -82t-98 -217z" />
<glyph unicode="&#x43e;" horiz-adv-x="1255" d="M84 528q0 242 153.5 402t387.5 160q244 0 395 -159t151 -411q0 -238 -153.5 -393.5t-392.5 -155.5q-231 0 -386 158.5t-155 398.5zM293 530q0 -178 94 -289.5t242 -111.5q145 0 240.5 111.5t95.5 279.5q0 182 -94.5 298t-242 116t-241.5 -115t-94 -289z" />
<glyph unicode="&#x43f;" horiz-adv-x="1314" d="M68 864v176h1181v-176h-159v-864h-195v864h-469v-864h-197v864h-161z" />
<glyph unicode="&#x440;" horiz-adv-x="1259" d="M150 1061h186l14 -187q123 207 369 207q203 0 329 -147.5t126 -388.5q0 -252 -127 -405.5t-332 -153.5q-252 0 -365 207l2 -35q8 -121 8 -168v-432h-196v1040q0 240 -14 463zM360 530q0 -162 89.5 -270t222.5 -108q125 0 210 108.5t85 271.5q0 168 -80 274.5t-207 106.5 q-139 0 -229.5 -108.5t-90.5 -274.5z" />
<glyph unicode="&#x441;" horiz-adv-x="925" d="M84 530q0 225 131 371q74 80 180.5 127t220.5 47q131 0 242 -43l-14 -174q-84 49 -193 49q-158 0 -258 -104.5t-100 -263.5q0 -172 99.5 -278.5t254.5 -106.5q113 0 221 67l15 -180q-111 -53 -260 -53q-242 0 -390.5 148t-148.5 394z" />
<glyph unicode="&#x443;" horiz-adv-x="1021" d="M12 1061h213l238 -670q51 -150 55 -219q12 61 17 80l30 88l250 721h195l-379 -1051q-84 -240 -152 -325q-98 -133 -278 -134q-47 0 -123 15l10 160q51 -18 94 -19q88 0 142 60q66 78 98 190z" />
<glyph unicode="&#x445;" horiz-adv-x="1030" d="M12 0l381 557l-352 504h242l174 -262q51 -80 69 -133q12 43 72 135l164 260h217l-338 -504l377 -557h-244l-196 305q-51 84 -70 129q-8 -29 -25 -59q-2 -4 -13 -22l-28 -42l-198 -311h-232z" />
<glyph unicode="&#x2010;" horiz-adv-x="544" d="M0 455v161h545v-161h-545z" />
<glyph unicode="&#x2011;" horiz-adv-x="544" d="M0 455v161h545v-161h-545z" />
<glyph unicode="&#x2012;" horiz-adv-x="544" d="M0 455v161h545v-161h-545z" />
<glyph unicode="&#x2013;" d="M94 455v161h981v-161h-981z" />
<glyph unicode="&#x2014;" horiz-adv-x="1542" d="M0 455v161h1544v-161h-1544z" />
<glyph unicode="&#x2018;" horiz-adv-x="591" d="M131 1053l180 510h183l-132 -510h-231z" />
<glyph unicode="&#x2019;" horiz-adv-x="591" d="M102 1053l129 510h234l-180 -510h-183z" />
<glyph unicode="&#x201a;" horiz-adv-x="591" d="M102 -279l129 510h234l-180 -510h-183z" />
<glyph unicode="&#x201c;" horiz-adv-x="987" d="M131 1053l180 510h183l-132 -510h-231zM526 1053l179 510h184l-131 -510h-232z" />
<glyph unicode="&#x201d;" horiz-adv-x="987" d="M102 1053l129 510h234l-180 -510h-183zM498 1053l127 510h235l-180 -510h-182z" />
<glyph unicode="&#x201e;" horiz-adv-x="987" d="M131 -281l129 512h234l-181 -512h-182zM526 -281l127 512h236l-180 -512h-183z" />
<glyph unicode="&#x2026;" horiz-adv-x="1740" d="M174 0v231h232v-231h-232zM754 0v231h231v-231h-231zM1335 0v231h232v-231h-232z" />
<glyph unicode="&#x2039;" horiz-adv-x="739" d="M115 537l291 419h188l-268 -419l274 -431h-186z" />
<glyph unicode="&#x203a;" horiz-adv-x="739" d="M139 106l273 431l-269 419h189l291 -419l-299 -431h-185z" />
<glyph unicode="&#x20ac;" horiz-adv-x="1419" d="M92 580l37 114h102v72h-139l37 115h117q53 291 228 443.5t456 152.5q231 0 399 -107l-65 -203q-131 145 -332 146q-178 0 -303 -116t-162 -316h704l-36 -115h-680v-72h657l-37 -114h-608q37 -209 161 -327t304 -118q197 0 334 150v-244q-150 -70 -334 -70 q-281 0 -461 160t-227 449h-152z" />
<glyph unicode="&#x2122;" horiz-adv-x="1867" d="M0 1333v117h690v-117h-270v-710h-141v710h-279zM793 1450h219l174 -412l57 -141q20 -49 37 -102q43 123 94 245l170 410h221v-827h-141v471l2 241q-55 -166 -117 -313l-168 -399h-131l-166 399q-59 139 -118 303q8 -127 8 -240v-462h-141v827z" />
<glyph unicode="&#xe000;" horiz-adv-x="1060" d="M0 1060h1060v-1060h-1060v1060z" />
</font>
</defs>
</svg>
