<?xml version="1.0" standalone="no"?>
<!DOCTYPE svg PUBLIC "-//W3C//DTD SVG 1.1//EN" "http://www.w3.org/Graphics/SVG/1.1/DTD/svg11.dtd" >
<svg xmlns="http://www.w3.org/2000/svg">
<metadata>
This is a custom SVG webfont generated by Font Squirrel.
Foundry     : Dalton Maag Ltd
</metadata>
<defs>
<font id="AllerRegular" horiz-adv-x="1228" >
<font-face units-per-em="2048" ascent="1638" descent="-410" />
<missing-glyph horiz-adv-x="485" />
<glyph unicode=" "  horiz-adv-x="485" />
<glyph unicode="&#x09;" horiz-adv-x="485" />
<glyph unicode="&#xa0;" horiz-adv-x="485" />
<glyph unicode="!" horiz-adv-x="593" d="M174 112.5q0 28.5 2 58.5t6 58q29 4 56.5 6.5t56.5 2.5t58.5 -2.5t58.5 -6.5q4 -29 6 -57.5t2 -57t-2 -57t-6 -57.5q-29 -4 -57.5 -6t-57.5 -2t-57.5 2t-57.5 6q-4 29 -6 56.5t-2 56zM190 1473q27 4 52.5 6t52.5 2q29 0 57.5 -2t57.5 -6l-13 -1031q-47 -8 -96 -8 q-55 0 -96 8z" />
<glyph unicode="&#x22;" horiz-adv-x="860" d="M131 911v562q23 4 48.5 6t50 2t49 -2t47.5 -6v-562q-47 -6 -97 -6q-53 0 -98 6zM532 911v562q23 4 48.5 6t50 2t49.5 -2t47 -6v-562q-47 -6 -96 -6q-54 0 -99 6z" />
<glyph unicode="#" horiz-adv-x="1505" d="M129 504q0 23 2 45t6 41h266l29 338h-254q-8 33 -8 80q0 45 8 79h266l29 326q25 4 47.5 5t48.5 1h43q20 0 43 -4l-26 -328h348l29 326q25 4 47 5t49 1h44q22 0 44 -4l-29 -328h240q6 -37 6 -73q0 -47 -6 -86h-252l-29 -338h238q4 -16 6 -37t2 -39q0 -23 -2 -45.5 t-6 -40.5h-252l-31 -369q-47 -6 -90 -6q-47 0 -90 6l29 369h-349l-28 -369q-49 -6 -96 -6q-43 0 -93 6l31 369h-254q-6 37 -6 76zM588 590h348l29 338h-351z" />
<glyph unicode="$" d="M154 39q4 45 17 91t30 89q70 -23 143.5 -40t177.5 -17q168 0 250 65.5t82 180.5q0 57 -17.5 96t-52 67.5t-88.5 52.5l-125 54l-98 41q-61 25 -112.5 55.5t-89.5 72.5t-58 99.5t-20 136.5q0 158 95 258.5t273 124.5v199q31 8 70 8q41 0 74 -8v-190q86 -4 168.5 -18.5 t142.5 -37.5q-10 -86 -45 -170q-55 20 -127 35.5t-166 15.5q-129 0 -198.5 -49t-69.5 -151q0 -49 18 -85t54 -63.5t86 -50.5l114 -49l78 -33q74 -31 133 -63.5t101 -77.5t65.5 -106.5t23.5 -149.5q0 -174 -99 -283.5t-279 -144.5v-236q-16 -4 -35 -6t-35 -2q-18 0 -36.5 2 t-37.5 6v219q-10 -2 -16 -2h-13q-63 0 -114 4.5t-95 12.5t-85 20.5z" />
<glyph unicode="%" horiz-adv-x="2150" d="M90 1038q0 88 23.5 167t70.5 138.5t120 94.5t171 35t170 -35t120 -94.5t71.5 -138.5t23.5 -167q0 -90 -23.5 -168.5t-71.5 -137t-120 -93.5t-170 -35t-171 35t-120 93.5t-70.5 137t-23.5 168.5zM279 1038q0 -137 46 -211.5t150 -74.5q100 0 148.5 74.5t48.5 211.5 q0 135 -46 210t-151 75q-100 0 -148 -75t-48 -210zM481 2l989 1448q25 4 50.5 6t50.5 2q27 0 54.5 -2t51.5 -6l-989 -1448q-29 -4 -53.5 -6t-48.5 -2q-58 0 -105 8zM1278 412q0 88 23.5 166.5t70.5 138t120 94.5t171 35t170 -35t120 -94.5t71.5 -138t23.5 -166.5 q0 -90 -23.5 -169t-71.5 -137.5t-120 -93.5t-170 -35t-171 35t-120 93.5t-70.5 137.5t-23.5 169zM1466 412q0 -137 46.5 -212t150.5 -75q100 0 148.5 74.5t48.5 212.5q0 135 -46.5 209.5t-150.5 74.5q-100 0 -148.5 -74.5t-48.5 -209.5z" />
<glyph unicode="&#x26;" horiz-adv-x="1558" d="M119 418q0 68 19.5 133t55 121.5t84 98.5t103.5 65q-88 39 -148.5 111.5t-60.5 195.5q0 90 35 156.5t94 110.5t140 65.5t171 21.5q53 0 119 -8t137 -33q-2 -47 -12 -83t-33 -70q-53 16 -102 23t-96 7q-68 0 -114 -17.5t-75.5 -45t-43 -62t-13.5 -71.5q0 -88 58.5 -140.5 t187.5 -52.5h446l189 258h16v-258h266q8 -35 8 -80q0 -23 -2 -44t-6 -42h-266v-303q0 -125 -43 -219t-123 -156.5t-191.5 -93.5t-246.5 -31q-109 0 -209 25t-177 78t-122 137t-45 203zM344 451q0 -141 88 -216t256 -75q119 0 196 30.5t120 82t59 119t16 138.5v244h-415 q-74 0 -133.5 -25.5t-100.5 -70.5t-63.5 -103t-22.5 -124z" />
<glyph unicode="'" horiz-adv-x="456" d="M131 911v562q23 4 48.5 6t50 2t49 -2t47.5 -6v-562q-47 -6 -97 -6q-53 0 -98 6z" />
<glyph unicode="(" horiz-adv-x="653" d="M102 622.5q0 161.5 21.5 307t56.5 268.5t79 221.5t91 169.5q16 4 42 6t54.5 2t55 -2t49.5 -6q-25 -43 -66 -126t-80.5 -204.5t-68.5 -280.5t-29 -355q0 -195 29 -354.5t68.5 -280.5t80.5 -204t66 -126q-23 -4 -51.5 -6t-57.5 -2q-27 0 -51 2t-41 6q-47 70 -91 169 t-79 222t-56.5 267.5t-21.5 306z" />
<glyph unicode=")" horiz-adv-x="653" d="M102 -342q25 43 66 126t81 204t68.5 280.5t28.5 354.5q0 197 -28.5 355.5t-68.5 280t-81 204.5t-66 126q23 4 49.5 6t55.5 2t54.5 -2t41.5 -6q45 -72 90 -170t80 -221t56.5 -268.5t21.5 -307t-21.5 -306t-56.5 -267.5t-80 -222t-90 -169q-16 -4 -40.5 -6t-51.5 -2 q-29 0 -57.5 2t-51.5 6z" />
<glyph unicode="*" horiz-adv-x="993" d="M78 1126q8 63 41 121l256 -67q-12 -82 -47 -152zM201 762l143 223q33 -16 65.5 -39.5t63.5 -52.5l-170 -207q-29 16 -54 33.5t-48 42.5zM418 1206l16 267q31 6 61.5 6t65.5 -6l17 -267q-23 -4 -42.5 -5t-40 -1t-40 1t-37.5 5zM520 893q31 29 63.5 52.5t65.5 39.5 l144 -223q-23 -25 -48.5 -42.5t-54.5 -33.5zM618 1180l256 67q33 -57 41 -121l-249 -98q-36 70 -48 152z" />
<glyph unicode="+" d="M176 721q0 49 8 90h340v373q23 4 44.5 6t45.5 2q23 0 45.5 -2t47.5 -6v-373h337q4 -23 6.5 -45.5t2.5 -45t-2 -46t-7 -45.5h-337v-371q-25 -4 -47.5 -6t-45.5 -2q-51 0 -90 8v371h-340q-8 41 -8 92z" />
<glyph unicode="," horiz-adv-x="436" d="M41 -231l121 456q25 4 50.5 7.5t47.5 3.5q47 0 105 -11l-129 -456q-25 -4 -50.5 -5.5t-48.5 -1.5q-25 0 -49 1.5t-47 5.5z" />
<glyph unicode="-" horiz-adv-x="739" d="M96 573.5q0 22.5 2 48t6 46.5h531q4 -20 6 -46t2 -48.5t-2 -48t-6 -44.5h-531q-4 18 -6 44t-2 48.5z" />
<glyph unicode="." horiz-adv-x="493" d="M123 112.5q0 28.5 3 58.5t7 58q29 4 56.5 6.5t56 2.5t57.5 -2.5t57 -6.5q4 -29 7.5 -57.5t3.5 -57t-3 -57t-8 -57.5q-29 -4 -56.5 -6t-56 -2t-57 2t-57.5 6q-4 29 -7 56.5t-3 56z" />
<glyph unicode="/" horiz-adv-x="839" d="M72 0l497 1473q25 4 48.5 6t50.5 2q23 0 48 -2t52 -6l-500 -1473q-25 -4 -49 -6t-51 -2q-23 0 -47 2t-49 6z" />
<glyph unicode="0" d="M100 657q0 150 33 275t97.5 216t161.5 142t226.5 51t226.5 -51t161.5 -142t96.5 -216t32 -275q0 -147 -33 -273t-97.5 -216t-163 -141.5t-227.5 -51.5t-225 51.5t-160.5 141.5t-96.5 216t-32 273zM315 657q0 -254 80 -377.5t221.5 -123.5t219 123.5t77.5 377.5t-77.5 379 t-219 125t-221.5 -125t-80 -379z" />
<glyph unicode="1" d="M203 1071l545 260h30v-1157h293q6 -47 6 -86q0 -43 -6 -88h-801q-8 41 -8 88q0 45 8 86h308v881l-297 -135q-29 35 -45.5 69.5t-32.5 81.5z" />
<glyph unicode="2" d="M117 27l401 469l99 119q46 56 80 109.5t53.5 105t19.5 106.5q0 109 -69.5 166t-198.5 57q-98 0 -166 -22.5t-131 -51.5l-31.5 84t-19.5 88q72 31 158.5 57.5t203.5 26.5q104 0 190.5 -23.5t149 -70.5t96 -119.5t33.5 -171.5q0 -137 -75.5 -266t-215.5 -287l-196 -223h542 q4 -23 6.5 -45t2.5 -47q0 -23 -2.5 -45.5t-6.5 -42.5h-911z" />
<glyph unicode="3" d="M98 -82q6 45 23.5 88t40.5 84q66 -27 137.5 -43t163.5 -16q78 0 146.5 16t118.5 53t80 95.5t30 142.5q0 127 -84 188.5t-219 61.5q-41 0 -83 -3t-83 -14l-17 29l342 539h-526q-8 41 -8 88q0 23 2 47t6 47h829l15 -25l-373 -567q6 2 14 2h17q96 0 166.5 -33.5t116.5 -88 t68.5 -121t22.5 -132.5q0 -131 -46 -226t-123.5 -157.5t-182 -92.5t-223.5 -30q-102 0 -192.5 16.5t-178.5 51.5z" />
<glyph unicode="4" d="M68 182l600 1176q43 -4 89 -21.5t89 -46.5l-477 -950h413v389q25 4 49.5 6t47.5 2q27 0 52 -2t50 -6v-389h188q4 -23 6.5 -45.5t2.5 -45t-2 -46t-7 -43.5h-188v-281q-27 -4 -50.5 -5t-48 -1t-50 1t-50.5 5v281h-698z" />
<glyph unicode="5" d="M129 -90q6 45 20.5 87t36.5 85q63 -23 125 -36t148 -13q178 0 275 74.5t97 232.5q0 57 -17 108.5t-56 89t-101.5 59t-152.5 21.5q-63 0 -125 -10t-109 -26l-20 18q6 180 13 359.5t16 361.5h696q4 -23 5 -44.5t1 -43.5q0 -25 -1 -48.5t-5 -45.5h-512l-12 -365 q39 8 78.5 10t62.5 2q102 0 186 -28.5t143.5 -85t92.5 -137t33 -185.5q0 -129 -45.5 -223t-124 -155.5t-186 -91.5t-232.5 -30q-78 0 -167 14.5t-163 45.5z" />
<glyph unicode="6" d="M135 567q0 180 46 340t141.5 285t243 204t349.5 95q16 -49 17 -94q0 -20 -2 -41t-6 -37q-129 -12 -228.5 -60.5t-171 -124t-115.5 -175t-63 -211.5q45 78 132 134t218 56q82 0 161 -27.5t140.5 -85t98.5 -146.5t37 -212q0 -121 -42 -213t-112 -153.5t-159 -93.5t-183 -32 q-117 0 -210 34t-157.5 105.5t-99.5 183t-35 269.5zM356 457q0 -154 73 -229.5t202 -75.5q61 0 113.5 20.5t91 59t61.5 96t23 133.5q0 82 -21.5 139t-58.5 94t-87.5 54.5t-107.5 17.5q-59 0 -112.5 -20.5t-92.5 -60.5t-61.5 -97t-22.5 -131z" />
<glyph unicode="7" d="M135 1225q0 25 2 49t6 47h973l8 -14l-622 -1459q-55 12 -101.5 32t-89.5 54l525 1205h-693q-4 20 -6 41.5t-2 44.5z" />
<glyph unicode="8" d="M109 377q0 86 27.5 150.5t71.5 113.5t97 83t107 56q-98 47 -167 130t-69 208q0 80 34 145.5t92 111.5t138 72t174.5 26t174 -26t138 -72t92.5 -111.5t34 -145.5q0 -127 -69 -209t-169 -129q53 -23 107.5 -55.5t98.5 -81.5t71.5 -114.5t27.5 -151.5q0 -109 -43 -185.5 t-114.5 -125t-162.5 -70t-186 -21.5q-96 0 -186 21.5t-161.5 70t-114.5 125t-43 185.5zM326 395q0 -115 73.5 -180t214.5 -65q143 0 216 65.5t73 179.5q0 57 -22.5 104.5t-61.5 84.5t-91 64.5t-114 45.5q-61 -18 -114.5 -45.5t-91 -64.5t-60 -84.5t-22.5 -104.5zM375 1104 q0 -51 19.5 -91t52 -69t76.5 -50.5t91 -35.5q49 14 92.5 35.5t76 50.5t52 69t19.5 91q0 92 -60.5 147.5t-179 55.5t-179 -55.5t-60.5 -147.5z" />
<glyph unicode="9" d="M109 844q0 121 42 213t111.5 154.5t158.5 94t183 31.5q117 0 210 -33.5t157.5 -105.5t99.5 -184.5t35 -268.5q0 -180 -46 -339.5t-141.5 -284.5t-243 -204t-349.5 -95q-16 39 -17 96q0 16 2 37.5t6 40.5q125 10 226.5 58t175.5 124t118 175.5t56 211.5q-43 -78 -130 -135 t-218 -57q-84 0 -162 27.5t-139.5 85t-98 146.5t-36.5 212zM322 850q0 -82 21.5 -139.5t58 -94t87 -53t107.5 -16.5q59 0 112.5 20.5t92.5 60.5t61.5 97t22.5 129q0 154 -73 230.5t-202 76.5q-123 0 -205.5 -78.5t-82.5 -232.5z" />
<glyph unicode=":" horiz-adv-x="493" d="M123 112.5q0 28.5 3 58.5t7 58q29 4 56.5 6.5t56 2.5t57.5 -2.5t57 -6.5q4 -29 7.5 -57.5t3.5 -57t-3 -57t-8 -57.5q-29 -4 -56.5 -6t-56 -2t-57 2t-57.5 6q-4 29 -7 56.5t-3 56zM123 938q0 29 3 58.5t7 58.5q29 4 56.5 6t56 2t57.5 -2t57 -6q4 -29 7.5 -57.5t3.5 -57.5 t-3 -57.5t-8 -57.5q-29 -4 -56.5 -6t-56 -2t-57 2t-57.5 6q-4 29 -7 56.5t-3 56.5z" />
<glyph unicode=";" horiz-adv-x="532" d="M59 -231l121 456q25 4 50.5 7.5t48.5 3.5q47 0 104 -11l-129 -456q-25 -4 -50.5 -5.5t-47.5 -1.5q-25 0 -49.5 1.5t-47.5 5.5zM160 938q0 29 3 58.5t7 58.5q29 4 56.5 6t56 2t57.5 -2t57 -6q4 -29 7.5 -57.5t3.5 -57.5t-3.5 -57.5t-7.5 -57.5q-29 -4 -56.5 -6t-56 -2 t-57 2t-57.5 6q-4 29 -7 56.5t-3 56.5z" />
<glyph unicode="&#x3c;" d="M182 709q0 55 13 104l852 346q10 -57 10 -94q0 -29 -2 -54.5t-6 -45.5l-672 -260l672 -250q4 -23 6 -47.5t2 -49.5q0 -31 -2 -57.5t-8 -50.5l-852 346q-13 52 -13 113z" />
<glyph unicode="=" d="M174 516.5q0 22.5 1 48t5 45.5h869q4 -20 6 -45.5t2 -48t-2 -48.5t-6 -44h-869q-4 18 -5 44t-1 48.5zM174 907.5q0 22.5 1 48t5 45.5h869q4 -20 6 -45.5t2 -48t-2 -48t-6 -44.5h-869q-4 18 -5 44t-1 48.5z" />
<glyph unicode="&#x3e;" d="M172 1051q0 33 3 59.5t7 48.5l854 -346l8 -53q4 -27 5 -60q0 -55 -13 -104l-854 -346q-4 29 -6 52.5t-2 41.5q0 29 2 54.5t6 45.5l670 261l-670 249q-6 23 -8 48.5t-2 48.5z" />
<glyph unicode="?" horiz-adv-x="999" d="M88 1417q49 16 91 27.5t82 17.5t81 9.5t88 3.5q242 0 366 -110t124 -290q0 -104 -42 -179t-98.5 -125t-116 -79.5t-96.5 -42.5v-211q-47 -8 -100 -8q-23 0 -47.5 2t-46.5 6v332q78 20 139 46t104 61.5t66 83t23 112.5q0 104 -78 163.5t-224 59.5q-92 0 -148 -13t-116 -36 q-18 39 -31.5 81t-19.5 89zM346 114.5q0 28.5 2 57.5t6 57q29 4 57.5 7.5t57.5 3.5t57.5 -3.5t57.5 -7.5q4 -29 6 -56.5t2 -56t-2 -57t-6 -57.5q-27 -4 -55.5 -6t-57.5 -2t-61.5 2t-55.5 6q-4 29 -6 56.5t-2 56z" />
<glyph unicode="@" horiz-adv-x="2076" d="M115 438q0 184 64.5 371.5t199.5 340.5t343 249t495 96q156 0 292 -42t237 -128t159.5 -216t58.5 -304q0 -127 -38 -250t-110.5 -221t-175 -158.5t-231.5 -60.5q-143 0 -225 63q-59 -35 -133 -55.5t-162 -20.5q-143 0 -230.5 87t-87.5 239q0 139 47.5 257t127 203 t187 133t228.5 48q82 0 157 -12.5t146 -34.5l-147 -731q20 -16 50 -21.5t58 -5.5q86 0 151.5 50.5t112 129t70 174t23.5 187.5q0 260 -153.5 395t-432.5 135q-213 0 -379 -74.5t-279.5 -199.5t-173 -285t-59.5 -330q0 -160 46 -274.5t126 -187t188.5 -107.5t233.5 -35 q100 0 188.5 15.5t159.5 42.5q12 -29 24.5 -65t20.5 -79q-150 -70 -397 -69q-160 0 -302 45t-248.5 138t-168 234t-61.5 334zM774 467q0 -104 46 -153.5t138 -49.5q47 0 86 8.5t89 30.5l112 590q-27 6 -49 9t-47 3q-80 0 -148.5 -33.5t-119 -93t-79 -139.5t-28.5 -172z" />
<glyph unicode="A" horiz-adv-x="1263" d="M33 0l479 1473q27 4 57.5 6t63.5 2q29 0 59.5 -2t59.5 -6l477 -1473q-25 -4 -55.5 -6t-59.5 -2q-27 0 -54.5 2t-51.5 6l-103 340h-559l-100 -340q-27 -4 -53.5 -6t-53.5 -2q-29 0 -56 2t-50 6zM401 522h449l-225 752z" />
<glyph unicode="B" horiz-adv-x="1218" d="M182 0v1473q51 10 143.5 16t186.5 6q117 0 213 -20.5t164.5 -66.5t106.5 -118.5t38 -177.5q0 -63 -19.5 -117.5t-52 -96.5t-75.5 -69.5t-88 -40.5q57 -6 115.5 -30.5t105.5 -69.5t76.5 -113.5t29.5 -166.5q0 -119 -47 -202t-128 -134.5t-190.5 -74t-234.5 -22.5 q-78 0 -170 7.5t-174 17.5zM389 162q29 -4 73 -6t87 -2q74 0 138.5 12t113.5 42t77.5 80t28.5 128q0 76 -26.5 128t-72.5 83.5t-109.5 45t-137.5 13.5h-172v-524zM389 858h150q139 0 212.5 60.5t73.5 181.5q0 117 -78.5 174t-214.5 57q-41 0 -78.5 -2t-64.5 -6v-465z" />
<glyph unicode="C" horiz-adv-x="1265" d="M121 727q0 176 47 318.5t135 243t215 154.5t285 54q117 0 200.5 -16.5t149.5 -38.5q-4 -47 -17.5 -87t-31.5 -85q-31 10 -59.5 18t-61.5 14.5t-73 9.5t-91 3q-223 0 -347 -151.5t-124 -436.5q0 -145 35 -251.5t98.5 -176.5t152.5 -104.5t200 -34.5q86 0 155.5 14 t130.5 41q45 -88 58 -170q-86 -37 -176.5 -53.5t-194.5 -16.5q-160 0 -288 52.5t-216 149.5t-135 236.5t-47 313.5z" />
<glyph unicode="D" horiz-adv-x="1431" d="M182 0v1473q70 8 168.5 15t192.5 7q387 0 578.5 -196.5t191.5 -565.5q0 -385 -195.5 -571.5t-582.5 -186.5q-96 0 -190.5 7.5t-162.5 17.5zM391 172q29 -4 71 -7t89 -3q121 0 220 27.5t171 93t111 177t39 279.5q0 154 -39 262.5t-110 177t-169 99.5t-217 31q-39 0 -85 -1 t-81 -8v-1128z" />
<glyph unicode="E" horiz-adv-x="1097" d="M180 0v1473h809q6 -41 6 -91q0 -23 -1 -47t-5 -45h-600v-422h479q4 -20 6.5 -43.5t2.5 -46t-2.5 -47t-6.5 -45.5h-479v-504h617q6 -41 6 -90q0 -23 -1 -47.5t-5 -44.5h-826z" />
<glyph unicode="F" horiz-adv-x="1032" d="M180 0v1473h770q4 -20 6 -44t2 -46.5t-2 -47t-6 -45.5h-561v-432h469q4 -23 6 -46.5t2 -46t-2 -46t-6 -45.5h-469v-674q-25 -4 -50.5 -6t-53.5 -2q-27 0 -54.5 2t-50.5 6z" />
<glyph unicode="G" horiz-adv-x="1394" d="M121 727q0 176 49 318.5t140 243t217 154.5t280 54q117 0 203 -15.5t155 -41.5q-4 -47 -17 -87t-32 -85q-57 18 -123.5 32.5t-167.5 14.5q-109 0 -197.5 -39t-151 -114t-97.5 -184.5t-35 -250.5q0 -145 36 -250.5t101.5 -176.5t154.5 -104.5t198 -33.5q66 0 114.5 7 t83.5 17v576q25 4 51.5 6t53 2t53.5 -2t49 -6v-719q-43 -18 -94 -31.5t-106.5 -20.5t-111 -11.5t-104.5 -4.5q-164 0 -295 51.5t-221 148.5t-138 236.5t-48 315.5z" />
<glyph unicode="H" horiz-adv-x="1404" d="M180 0v1473q25 4 51.5 6t53 2t53.5 -2t51 -6v-607h627v607q23 4 49.5 6t53 2t54 -2t52.5 -6v-1473q-23 -4 -49.5 -6t-55.5 -2q-27 0 -54.5 2t-49.5 6v682h-627v-682q-25 -4 -50.5 -6t-53.5 -2q-27 0 -54.5 2t-50.5 6z" />
<glyph unicode="I" horiz-adv-x="569" d="M180 0v1473q25 4 51.5 6t53 2t53.5 -2t51 -6v-1473q-25 -4 -50.5 -6t-53.5 -2q-27 0 -54.5 2t-50.5 6z" />
<glyph unicode="J" horiz-adv-x="811" d="M57 0q0 41 8.5 86t24.5 92l56.5 -13t66.5 -7q37 0 75 6t70.5 26.5t53 61.5t20.5 110v928h-258q-4 20 -6 45t-2 47.5t2 46t6 44.5h467v-1063q0 -123 -26.5 -207t-78 -134.5t-125 -72t-165.5 -21.5q-49 0 -98.5 7.5t-90.5 17.5z" />
<glyph unicode="K" horiz-adv-x="1230" d="M180 0v1473q25 4 51.5 6t53 2t53.5 -2t51 -6v-1473q-25 -4 -51.5 -6t-52.5 -2q-29 0 -55.5 2t-49.5 6zM451 748l473 725q29 4 56.5 6t49.5 2q27 0 57.5 -2t63.5 -6l-467 -707l526 -766q-33 -4 -64.5 -6t-60.5 -2q-25 0 -53 2t-59 6z" />
<glyph unicode="L" horiz-adv-x="1013" d="M180 0v1473q23 4 48.5 6t54.5 2q27 0 53 -2t51 -6v-1289h578q4 -23 5 -47t1 -45q0 -49 -6 -92h-785z" />
<glyph unicode="M" horiz-adv-x="1671" d="M156 0l65 1473q25 4 56.5 6t60.5 2t62.5 -2t56.5 -6l381 -922l383 922q20 4 51 6t59 2q27 0 59.5 -2t55.5 -6l70 -1473q-25 -4 -50.5 -6t-52.5 -2t-52.5 2t-47.5 6l-47 1145l-361 -840q-41 -6 -84 -6q-39 0 -78 6l-348 846l-47 -1151q-23 -4 -47.5 -6t-46.5 -2 q-27 0 -51 2t-47 6z" />
<glyph unicode="N" horiz-adv-x="1392" d="M180 0v1473q23 4 48.5 6t48 2t48 -2t48.5 -6l641 -1106v1106q25 4 51.5 6t52.5 2q23 0 47.5 -2t46.5 -6v-1473q-23 -4 -48 -6t-47.5 -2t-48.5 2t-48 6l-643 1100v-1100q-23 -4 -48.5 -6t-49.5 -2q-27 0 -53 2t-46 6z" />
<glyph unicode="O" horiz-adv-x="1492" d="M125 735q0 166 38 305.5t114.5 240.5t193.5 158.5t276.5 57.5t276.5 -57.5t193.5 -158.5t113.5 -240.5t37 -305.5t-37 -305t-113.5 -240.5t-193.5 -158t-276.5 -56.5t-276.5 56.5t-193.5 158t-114.5 240.5t-38 305zM348 735q0 -135 24.5 -241.5t74 -182t124 -115.5 t177 -40t177 40t124 115.5t74 182t24.5 241.5q0 133 -24.5 240.5t-74 182.5t-124 115t-177 40t-177 -40t-124 -115t-74 -182.5t-24.5 -240.5z" />
<glyph unicode="P" horiz-adv-x="1159" d="M180 0v1475q31 4 73 8t88 7t92 5t89 2q113 0 214.5 -22.5t178 -78t121.5 -146.5t45 -228q0 -143 -48 -238.5t-127 -153t-179 -81t-205 -23.5q-39 0 -68.5 1t-64.5 5v-532q-49 -6 -104 -6q-25 0 -52.5 1t-52.5 5zM389 715q33 -4 57.5 -6t71.5 -2q63 0 126 13t112 48 t78.5 95.5t29.5 156.5q0 84 -25.5 141.5t-70.5 92t-108.5 49t-137.5 14.5q-76 0 -133 -6v-596z" />
<glyph unicode="Q" horiz-adv-x="1482" d="M119 735q0 166 38 305.5t114.5 240.5t193.5 158.5t276.5 57.5t276.5 -57.5t193.5 -158.5t113.5 -240.5t37 -305.5t-37 -305t-113.5 -240.5t-193.5 -158t-276.5 -56.5t-276.5 56.5t-193.5 158t-114.5 240.5t-38 305zM342 735q0 -135 24.5 -241.5t73.5 -182t124 -115.5 t177.5 -40t177 40t124 115.5t74 182t24.5 241.5q0 133 -24.5 240.5t-74 182.5t-124 115t-177 40t-177.5 -40t-124 -115t-73.5 -182.5t-24.5 -240.5zM877 -227q4 57 12 94t24 82l469 -82q-2 -47 -9 -93t-25 -89z" />
<glyph unicode="R" horiz-adv-x="1222" d="M184 0v1475q45 4 82 8t73 7t75 5t86 2q104 0 206.5 -20.5t182.5 -71.5t130 -138t50 -220q0 -80 -26.5 -145.5t-67.5 -117t-93.5 -89.5t-101.5 -62l-24 -12l428 -621q-55 -6 -125 -6q-55 0 -111 6l-471 682v8l17 4q55 14 116.5 39t113.5 65t87 96t35 136q0 147 -87 219 t-235 72q-35 0 -64.5 -2t-66.5 -6v-1313q-23 -2 -50.5 -4t-52 -2t-53 1t-53.5 5z" />
<glyph unicode="S" horiz-adv-x="1116" d="M94 39q4 45 18.5 92t30.5 92q68 -25 141.5 -43t180.5 -18q168 0 251 68.5t83 185.5q0 57 -17.5 98t-52.5 70.5t-87 54.5t-122 53l-117 47q-59 25 -108 54.5t-85 72.5t-56.5 99.5t-20.5 134.5q0 186 127 291.5t356 105.5q98 0 186.5 -16.5t155.5 -40.5q-10 -86 -45 -170 q-55 20 -127.5 36.5t-164.5 16.5q-129 0 -199 -52t-70 -157q0 -43 17.5 -76.5t46 -59.5t67.5 -46.5t82 -36.5l115 -45q82 -33 145.5 -69t108.5 -84t68.5 -113.5t23.5 -153.5q0 -211 -145.5 -333t-407.5 -122q-63 0 -114.5 4.5t-95.5 12.5t-85 20.5z" />
<glyph unicode="T" horiz-adv-x="1077" d="M43 1382.5q0 22.5 2 46t6 44.5h975q4 -20 6 -43t2 -45.5t-2 -48t-6 -46.5h-383v-1290q-47 -6 -102 -6q-57 0 -107 6v1290h-383q-4 20 -6 45t-2 47.5z" />
<glyph unicode="U" horiz-adv-x="1380" d="M166 600v873q49 6 106 6q55 0 103 -6v-836q0 -127 16.5 -217t53 -146.5t97 -83t148.5 -26.5t147.5 26.5t96.5 83t53.5 146.5t16.5 217v836q51 6 104 6q57 0 106 -6v-873q0 -147 -27.5 -264t-90 -197t-162.5 -122t-243.5 -42t-244 42t-163 122t-90 197t-27.5 264z" />
<glyph unicode="V" horiz-adv-x="1288" d="M45 1473q23 4 54.5 6t60.5 2q27 0 58.5 -2t57.5 -6l373 -1260l371 1260q55 6 113 6q27 0 56.5 -1t53.5 -5l-479 -1473q-27 -4 -59.5 -6t-61.5 -2t-60.5 2t-60.5 6z" />
<glyph unicode="W" horiz-adv-x="1886" d="M55 1473q23 4 56.5 6t62.5 2t58.5 -2t54.5 -6l252 -1227l303 1227q25 4 54.5 6t55.5 2q25 0 55.5 -2t53.5 -6l305 -1240l256 1240q23 4 48.5 6t49.5 2q29 0 58.5 -2t52.5 -6l-354 -1473q-25 -4 -58 -6t-59 -2q-29 0 -63.5 2t-63.5 6l-291 1153l-295 -1153 q-29 -4 -62.5 -6t-62.5 -2q-25 0 -56.5 2t-55.5 6z" />
<glyph unicode="X" horiz-adv-x="1247" d="M43 0l365 770l-308 700q31 4 57.5 5.5t55.5 1.5q55 0 109 -7l292 -700l-350 -770q-59 -6 -108 -6q-52 0 -113 6zM631 770l293 700l43 5q20 2 43 2h55q23 0 39 -1t39 -6l-307 -694l366 -776q-61 -6 -112 -6q-45 0 -109 6z" />
<glyph unicode="Y" horiz-adv-x="1212" d="M37 1473q27 4 57.5 6t61.5 2q27 0 58.5 -2t55.5 -6l344 -732l340 732q27 4 53.5 6t55.5 2t57.5 -2t55.5 -6l-461 -934v-539q-27 -4 -53.5 -6t-53 -2t-54.5 2t-50 6v539z" />
<glyph unicode="Z" horiz-adv-x="1159" d="M49 18l742 1272h-650q-4 18 -6 43t-2 47.5t2 47t6 45.5h957l14 -19l-743 -1272h690q4 -18 6 -43.5t2 -48t-2 -47.5t-6 -43h-998z" />
<glyph unicode="[" horiz-adv-x="653" d="M102 -344v1900h441q4 -23 6 -42t2 -41.5t-2 -43t-6 -38.5h-240v-1569h240q4 -20 6 -40t2 -42.5t-2 -43t-6 -40.5h-441z" />
<glyph unicode="\" horiz-adv-x="843" d="M66 1473q23 4 49 6t50.5 2t51.5 -2t49 -6l498 -1473q-25 -4 -49.5 -6t-46.5 -2q-27 0 -52.5 2t-50.5 6z" />
<glyph unicode="]" horiz-adv-x="653" d="M102 -260q0 47 9 82h239v1567h-239q-4 16 -6.5 32.5t-2.5 32.5q0 55 9 102h440v-1900h-440q-9 39 -9 84z" />
<glyph unicode="^" horiz-adv-x="1126" d="M125 754l332 719q25 4 52.5 6t49.5 2q27 0 54.5 -2t56.5 -6l327 -719q-29 -4 -52 -5t-46 -1h-46q-24 0 -46 4l-250 548l-240 -548q-23 -4 -47 -4h-47q-20 0 -44.5 1t-53.5 5z" />
<glyph unicode="_" horiz-adv-x="1034" d="M2 -102q0 16 2 34.5t8 36.5h1012q8 -35 8 -75q0 -39 -8 -74h-1012q-6 20 -8 39t-2 39z" />
<glyph unicode="`" horiz-adv-x="1024" d="M264 1477q31 4 61.5 6t67.5 2q33 0 67 -2t64 -6l236 -260q-47 -8 -96 -9q-31 0 -58.5 2t-50.5 7z" />
<glyph unicode="a" horiz-adv-x="1058" d="M98 311q0 88 36 154.5t97.5 111t141.5 66t168 21.5q66 0 107.5 -3.5t70.5 -7.5v39q0 121 -61.5 168t-178.5 47q-72 0 -134 -11t-122 -30q-39 68 -39 162q70 23 154 35t162 12q205 0 311.5 -93t106.5 -298v-657q-72 -16 -174.5 -34t-208.5 -18q-100 0 -181.5 18.5 t-137.5 59.5t-87 104.5t-31 153.5zM301 315q0 -61 22.5 -96t56.5 -53.5t75 -22.5t77 -4q47 0 97.5 5.5t89.5 15.5v334q-31 4 -78 8t-80 4q-127 0 -193.5 -47.5t-66.5 -143.5z" />
<glyph unicode="b" horiz-adv-x="1208" d="M162 33v1468q23 4 50.5 6t50 2t51 -2t51.5 -6v-577q37 61 114.5 106t188.5 45q94 0 174 -30.5t137 -95t89 -164t32 -234.5q0 -270 -152.5 -423t-439.5 -153q-90 0 -185 17.5t-161 40.5zM365 170q37 -12 78.5 -17.5t86.5 -5.5q76 0 140.5 24t111.5 72t75 122.5t28 177.5 q0 170 -59.5 264t-196.5 94q-47 0 -93.5 -15.5t-85 -49t-62 -90t-23.5 -136.5v-440z" />
<glyph unicode="c" horiz-adv-x="978" d="M102 524q0 117 33 217.5t97.5 174t160.5 116.5t223 43q86 0 152 -10t125 -33q0 -35 -9.5 -81t-25.5 -81q-100 35 -229 35q-158 0 -236 -104.5t-78 -276.5q0 -197 88.5 -288t241.5 -91q61 0 113.5 8.5t105.5 28.5q16 -29 28.5 -71.5t14.5 -87.5q-121 -47 -276 -48 q-262 0 -395.5 148.5t-133.5 400.5z" />
<glyph unicode="d" horiz-adv-x="1200" d="M106 506q0 127 38 231.5t108 179t167 115.5t216 41q53 0 107.5 -8t95.5 -21v457q23 4 51 6t49 2q23 0 50.5 -2t49.5 -6v-1472q-78 -23 -174 -38.5t-215 -15.5q-111 0 -210 28t-172.5 91.5t-117 164t-43.5 247.5zM322 506q2 -195 92 -279t245 -84q53 0 98.5 5.5t80.5 15.5 v708q-41 16 -88.5 24.5t-102.5 8.5q-84 0 -145.5 -30.5t-101.5 -84t-59 -126t-19 -158.5z" />
<glyph unicode="e" horiz-adv-x="1138" d="M100 518q0 117 30 218.5t91.5 176t154.5 118.5t220 44q109 0 190.5 -37t137 -101.5t84 -153.5t28.5 -193q0 -29 -2 -60.5t-4 -54.5h-715q4 -172 89 -252t251 -80q145 0 277 52q16 -31 26.5 -75t12.5 -87q-68 -29 -149 -43.5t-179 -14.5q-143 0 -245.5 40t-169 113 t-97.5 172t-31 218zM317 627h519q0 57 -15.5 109t-45.5 91t-76 62.5t-109 23.5q-125 0 -192 -75.5t-81 -210.5z" />
<glyph unicode="f" horiz-adv-x="757" d="M55 971q0 45 8 80h173v73q0 195 97 296.5t283 101.5q51 0 90 -5.5t74 -15.5q-4 -51 -11 -88t-19 -76l-49 10q-28 5 -66 5q-45 0 -81 -9.5t-61.5 -35t-40 -71.5t-14.5 -118v-67h269q6 -41 6 -84q0 -39 -6 -76h-269v-891q-23 -4 -50.5 -6t-50 -2t-51 2t-50.5 6v891h-173 q-8 33 -8 80z" />
<glyph unicode="g" horiz-adv-x="1132" d="M76 -238q0 84 45 151t117 105q-41 27 -69 67t-28 99q0 76 34 131.5t91 98.5q-68 47 -108.5 121.5t-40.5 169.5q0 78 28.5 145.5t83 117.5t134 78.5t182.5 28.5q92 0 166.5 -26.5t128.5 -67.5q41 33 110.5 54.5t153.5 21.5q8 -39 8 -86q0 -23 -2 -47.5t-6 -49.5h-184 q23 -35 35 -75.5t12 -93.5q0 -84 -31 -152t-87 -116t-134 -73.5t-170 -25.5q-84 0 -152 18q-29 -16 -56.5 -50t-27.5 -73q0 -37 26.5 -64.5t119.5 -29.5l272 -4q182 -4 264 -77.5t82 -202.5q0 -84 -43 -150.5t-118.5 -115t-179 -74t-224.5 -25.5q-211 0 -321.5 65.5 t-110.5 206.5zM266 -199q0 -45 18.5 -73.5t52.5 -46t80 -24.5t101 -7q164 0 256 54t92 136q0 61 -39 94t-143 35l-233 4h-7q-87 0 -132 -49q-46 -51 -46 -123zM330 705q0 -96 52 -158t162.5 -62t164 61.5t53.5 158.5q0 98 -53.5 160.5t-164 62.5t-162.5 -62.5t-52 -160.5z " />
<glyph unicode="h" horiz-adv-x="1183" d="M162 0v1501q23 4 50.5 6t50 2t51 -2t51.5 -6v-610q18 29 45.5 61.5t67.5 60t92.5 45t115.5 17.5q180 0 267 -103.5t87 -305.5v-666q-23 -4 -50 -6t-49.5 -2t-50.5 2t-50 6v610q0 145 -48.5 214t-146.5 69q-55 0 -106.5 -19.5t-90 -61.5t-61 -109.5t-22.5 -163.5v-539 q-23 -4 -51.5 -6t-51.5 -2q-20 0 -48.5 2t-51.5 6z" />
<glyph unicode="i" horiz-adv-x="589" d="M84 970.5q0 20.5 2 42t6 38.5h332v-1051q-23 -4 -50.5 -6t-49.5 -2q-20 0 -48 2t-51 6v891h-133q-4 16 -6 37.5t-2 42zM174 1386.5q0 22.5 1 51t5 51.5q27 4 57.5 6t53 2t53.5 -2t55 -6q4 -23 5.5 -51.5t1.5 -51t-1.5 -51t-5.5 -53.5q-25 -4 -54.5 -6t-51.5 -2 q-25 0 -55.5 2t-57.5 6q-4 25 -5 53.5t-1 51z" />
<glyph unicode="j" horiz-adv-x="593" d="M-82 -356q2 39 10.5 79.5t22.5 73.5q49 -16 115 -16q27 0 55.5 4t53 21.5t40.5 52.5t16 96v936h-133q-4 16 -6 37.5t-2 42t2 42t6 38.5h332v-1110q0 -92 -24.5 -153.5t-68.5 -99.5t-103.5 -54.5t-129.5 -16.5q-110 0 -186 27zM174 1386.5q0 22.5 2 48t6 52.5q27 4 57.5 7 t53 3t52.5 -3t54 -7q4 -27 6.5 -52.5t2.5 -48t-2.5 -48t-6.5 -54.5q-25 -4 -54.5 -7t-52 -3t-53 3t-57.5 7q-4 29 -6 54.5t-2 48z" />
<glyph unicode="k" horiz-adv-x="1052" d="M156 0v1501q23 4 50 6t50 2t51.5 -2t50.5 -6v-1501q-23 -4 -51 -6t-51 -2t-50 2t-50 6zM414 545l334 506q27 4 53 6t55 2q31 0 58.5 -2t56.5 -6l-334 -492l391 -559q-29 -4 -55.5 -6t-55 -2t-57.5 2t-57 6z" />
<glyph unicode="l" horiz-adv-x="610" d="M160 272v1229q23 4 50.5 6t50 2t50 -2t49.5 -6v-1184q0 -57 10.5 -89.5t28 -50t41 -22.5t49.5 -5q18 0 42 2t40 6q18 -72 19 -156q-29 -10 -70 -13t-76 -3q-59 0 -110 14t-90 47t-61.5 88t-22.5 137z" />
<glyph unicode="m" horiz-adv-x="1748" d="M164 0v1051q22 4 43.5 6t44 2t42 -2t42.5 -6q6 -31 12 -81t6 -85q18 37 46 70.5t66 60t87 43t108 16.5q123 0 189.5 -50t101.5 -140q20 35 50 69.5t67 61t84 43t107 16.5q182 0 265 -102.5t83 -302.5v-670q-23 -4 -51.5 -6t-51 -2t-50.5 2t-50 6v610q0 141 -43 212 t-141 71q-104 0 -169 -76t-65 -223v-594q-23 -4 -50.5 -6t-50 -2t-50 2t-50.5 6v625q0 137 -40.5 205.5t-131.5 68.5q-51 0 -96 -22.5t-78.5 -67.5t-53 -113.5t-19.5 -158.5v-537q-23 -4 -50.5 -6t-50 -2t-51 2t-51.5 6z" />
<glyph unicode="n" horiz-adv-x="1183" d="M164 0v1051q23 4 44 6t43.5 2t42 -2t42.5 -6q6 -31 12 -83.5t6 -86.5q20 35 52 69.5t73 62t94.5 45t116.5 17.5q180 0 266 -103.5t86 -305.5v-666q-23 -4 -51 -6t-50.5 -2t-50.5 2t-50 6v610q0 145 -45 214t-144 69q-57 0 -108 -20.5t-90 -63.5t-62.5 -111.5 t-23.5 -165.5v-532q-23 -4 -50.5 -6t-50 -2t-51 2t-51.5 6z" />
<glyph unicode="o" horiz-adv-x="1181" d="M100 524.5q0 116.5 30 217t91.5 174t153.5 116.5t215 43t215 -43t153.5 -116.5t91 -174t29.5 -217t-29.5 -217t-91 -174.5t-153.5 -116t-215 -42t-215 42t-153.5 116t-91.5 174.5t-30 217zM315 524.5q0 -182.5 67 -285t208 -102.5t208.5 102.5t67.5 285t-67.5 283.5 t-208.5 101t-208 -101t-67 -283.5z" />
<glyph unicode="p" horiz-adv-x="1208" d="M162 -483v1534q20 4 41.5 6t44.5 2q20 0 42.5 -2t43.5 -6q2 -4 5 -25.5t6 -46.5l6 -47q3 -23 3 -29q20 33 49 63.5t69 55.5t90 39t112 14q92 0 171 -30.5t135 -95t88 -164t32 -234.5q0 -270 -146.5 -423t-414.5 -153q-45 0 -92.5 6.5t-81.5 16.5v-481q-25 -4 -52.5 -6.5 t-50 -2.5t-50 2.5t-50.5 6.5zM365 172q39 -14 79.5 -20.5t106.5 -6.5q74 0 135.5 24t105.5 73t69.5 123.5t25.5 177.5q0 164 -60.5 260t-197.5 96q-51 0 -98.5 -18.5t-84 -55.5t-59 -93t-22.5 -134v-426z" />
<glyph unicode="q" horiz-adv-x="1198" d="M106 498q0 127 40 233.5t114 183t179.5 118.5t236.5 42q115 0 196.5 -12t163.5 -35v-1511q-23 -4 -50.5 -6.5t-50 -2.5t-50 2.5t-49.5 6.5v483q-43 -10 -91.5 -16.5t-107.5 -6.5q-106 0 -202.5 26t-169 87.5t-116 161t-43.5 246.5zM317 489.5q0 -92.5 25 -158t69 -107.5 t103 -60.5t131 -18.5q53 0 101.5 8.5t89.5 18.5v717q-29 6 -48.5 9t-36.5 4l-35 2q-17 1 -40 1q-90 0 -157.5 -30.5t-112 -86t-67 -131t-22.5 -168z" />
<glyph unicode="r" horiz-adv-x="761" d="M164 0v1051q22 4 42.5 6t43 2t45 -2t41.5 -6q6 -31 12 -81t6 -85q43 70 114 121t181 51q16 0 33.5 -1t30.5 -3q4 -18 6 -39t2 -43q0 -25 -3 -51.5t-7 -51.5q-16 4 -34 4h-28q-55 0 -105 -15t-90 -54t-63.5 -106.5t-23.5 -174.5v-522q-23 -4 -50.5 -6t-50 -2t-50 2 t-52.5 6z" />
<glyph unicode="s" horiz-adv-x="931" d="M98 25q4 41 17.5 83t29.5 82q55 -23 122 -36t132 -13q47 0 90 10.5t75 31t51.5 50t19.5 66.5q0 41 -15.5 67.5t-41 45t-59.5 32t-73 25.5l-71 27q-131 49 -190.5 110.5t-59.5 165.5q0 139 99.5 221t291.5 82q80 0 157 -15.5t134 -35.5q-4 -41 -15.5 -82t-27.5 -76 q-45 16 -107.5 31.5t-134.5 15.5q-76 0 -134 -26.5t-58 -93.5q0 -35 14 -59.5t39 -42t56.5 -30t68.5 -24.5l90 -31q49 -16 93 -38.5t76 -56.5t51.5 -82t19.5 -116q0 -76 -31 -138t-87 -106t-136 -69t-176 -25q-98 0 -172.5 13.5t-137.5 36.5z" />
<glyph unicode="t" horiz-adv-x="733" d="M35 918l352 393h16v-260h267q8 -35 8 -78q0 -23 -2 -43.5t-6 -40.5h-267v-479q0 -86 7.5 -137.5t25 -79t47 -37t74.5 -9.5q35 0 65.5 5.5t55.5 11.5q14 -41 17 -84t3 -76q-41 -10 -86 -15t-96 -5q-147 0 -230 71.5t-83 237.5v596h-160z" />
<glyph unicode="u" horiz-adv-x="1175" d="M152 467v584q23 4 51 6t49 2q23 0 51.5 -2t50.5 -6v-576q0 -98 18.5 -162.5t55.5 -101.5t90 -51.5t123 -14.5q104 0 178 23v883q23 4 50.5 6t50 2t50 -2t50.5 -6v-1018q-72 -20 -171 -39t-206 -19q-100 0 -189 17.5t-157 71t-106.5 149.5t-38.5 254z" />
<glyph unicode="v" horiz-adv-x="1087" d="M35 1051q29 4 59.5 6t55.5 2q27 0 58.5 -2t53.5 -6l287 -867l289 867q23 4 51.5 6t54.5 2q23 0 51.5 -2t57.5 -6l-410 -1051q-27 -4 -53.5 -6t-49 -2t-48 2t-50.5 6z" />
<glyph unicode="w" horiz-adv-x="1587" d="M45 1051q29 4 57.5 6t51.5 2q29 0 58.5 -2t51.5 -6l205 -858l231 858q23 4 49.5 6t55.5 2q33 -2 56.5 -3t45.5 -5l230 -844l204 844q23 4 45.5 6t49.5 2q23 0 50 -2t56 -6l-313 -1051q-27 -4 -54.5 -6t-50 -2t-49 2t-53.5 6l-225 795l-236 -795q-29 -4 -56.5 -6t-50 -2 t-50 2t-50.5 6z" />
<glyph unicode="x" horiz-adv-x="1042" d="M37 0l285 545l-248 506q47 8 106 8q29 0 56.5 -2t58.5 -6l217 -508l-262 -543q-27 -4 -52.5 -6t-50.5 -2q-29 0 -55 2t-55 6zM528 543l220 508q29 4 57.5 6t56.5 2q55 0 103 -8l-244 -500l285 -551q-29 -4 -55.5 -6t-55.5 -2q-55 0 -102 8z" />
<glyph unicode="y" horiz-adv-x="1083" d="M27 1051q27 4 55.5 5t52.5 1q27 0 59.5 -1t55.5 -5l291 -977l301 977q43 6 100 6q23 0 51.5 -1t57.5 -5l-408 -1264q-29 -84 -59.5 -141.5t-69.5 -92t-87 -49t-112 -14.5q-47 0 -93 7t-81 18q0 47 8.5 83.5t24.5 73.5q18 -6 50 -13t69 -7q27 0 50.5 5t44 20.5t37.5 44 t34 77.5l63 199q-16 0 -33.5 -1t-33.5 -1q-20 0 -43 1t-37 3z" />
<glyph unicode="z" horiz-adv-x="976" d="M59 29l553 860h-487q-6 37 -6 82q0 43 6 80h788l11 -27l-557 -862h522q6 -41 6 -84q0 -41 -6 -78h-819z" />
<glyph unicode="{" horiz-adv-x="847" d="M102 600v27q55 29 95.5 60.5t65 72.5t35.5 93t11 122q0 145 9.5 255.5t49.5 185.5t119.5 113t219.5 38h28q4 -20 6 -40t2 -42.5t-2 -42t-6 -37.5q-78 0 -123 -16.5t-68.5 -54.5t-30.5 -97t-7 -145v-13q0 -113 -8.5 -190.5t-28.5 -129.5t-54 -86t-83 -59q49 -27 83 -60.5 t54 -85.5t28.5 -130t8.5 -191v-14q0 -84 7 -143.5t30.5 -96t68.5 -54t123 -17.5q4 -18 6 -38t2 -42q0 -20 -2 -40.5t-6 -41.5q-123 0 -203.5 24.5t-130 76t-70 131t-20.5 188.5q0 119 -4 200.5t-24.5 140t-62.5 99.5t-118 80z" />
<glyph unicode="|" horiz-adv-x="681" d="M242 -344v1933q23 4 48 6t52 2q25 0 50.5 -2t47.5 -6v-1933q-23 -4 -47 -6t-51 -2t-52 2t-48 6z" />
<glyph unicode="}" horiz-adv-x="847" d="M102 -258q0 23 2.5 42t6.5 38q76 0 122 17.5t69.5 54t30.5 96t7 143.5v14q0 113 8 191t28.5 130t54.5 86t83 60q-49 25 -83 59t-54.5 86t-28.5 130t-8 190v13q0 86 -7 145t-30.5 97t-70 54.5t-121.5 16.5q-4 18 -6.5 37.5t-2.5 42t2.5 42t6.5 40.5h28q139 0 219 -38 t120 -113t49.5 -185.5t9.5 -255.5q0 -70 11 -122t35.5 -93t64.5 -73t95 -60v-27q-76 -39 -117.5 -80t-62 -99.5t-24.5 -140t-4 -200.5q0 -109 -20.5 -188.5t-70 -131t-130.5 -76t-203 -24.5q-4 20 -6.5 41t-2.5 41z" />
<glyph unicode="~" horiz-adv-x="976" d="M39 838q41 49 114.5 84.5t155.5 35.5q47 0 92 -13t91.5 -28.5t92.5 -27.5t93 -12q41 0 83 14t93 61q33 -31 52.5 -66.5t33.5 -74.5q-47 -47 -110.5 -76.5t-149.5 -29.5q-47 0 -93 12t-92 27.5t-92.5 28.5t-89.5 13q-49 0 -93 -16t-93 -63q-65 57 -88 131z" />
<glyph unicode="&#xa2;" d="M229 524q0 106 28 200.5t82 166.5t136 119t191 59v234q37 10 69.5 10t73.5 -10v-232q59 -4 110.5 -14t98.5 -27q0 -41 -10.5 -84t-24.5 -76q-51 16 -106.5 25.5t-120.5 9.5q-160 0 -240 -103.5t-80 -277.5q0 -199 90 -290t244 -91q61 0 112.5 8.5t106.5 28.5 q16 -29 28.5 -71.5t14.5 -88.5q-53 -16 -107.5 -27t-115.5 -16v-219q-33 -8 -72 -8q-18 0 -36.5 2t-34.5 6v224q-217 23 -327 166t-110 376z" />
<glyph unicode="&#xa3;" d="M184 705q0 39 6 79h146l-19.5 120t-9.5 124q0 88 27.5 169t84 142.5t143.5 98.5t208 37q109 0 181.5 -16.5t125.5 -39.5q-4 -41 -14 -82t-33 -88q-57 25 -114.5 37t-133.5 12q-72 0 -122 -22.5t-80.5 -61t-45 -91t-14.5 -109.5q0 -63 9.5 -118.5t21.5 -111.5h383 q6 -41 6 -84q0 -39 -6 -75h-354q8 -37 13 -75t5 -77q0 -86 -18.5 -160.5t-57.5 -128.5h557q4 -23 5 -47t1 -45q0 -49 -6 -92h-868l-8 25l39 36q39 37 67.5 86.5t46 102.5t25.5 103t8 91q0 45 -5 89.5t-15 91.5h-179q-6 37 -6 80z" />
<glyph unicode="&#xa5;" d="M55 1448q27 4 58.5 6t60.5 2t59.5 -2t55.5 -6l336 -619l329 619q27 4 54.5 6t56.5 2t57.5 -2t53.5 -6l-371 -664h311q6 -29 6 -65q0 -45 -6 -76h-393v-180h393q6 -29 6 -66q0 -45 -6 -75h-393v-322q-25 -4 -51.5 -6t-53 -2t-53 2t-51.5 6v322h-377q-8 25 -8 69 q0 18 2 36.5t6 35.5h377v180h-377q-8 25 -8 70q0 18 2 36.5t6 34.5h295z" />
<glyph unicode="&#xa8;" horiz-adv-x="1024" d="M190 1339q0 25 2.5 50.5t6.5 52.5q25 4 52.5 6t51.5 2q23 0 50.5 -2t54.5 -6q8 -47 8 -103q0 -25 -2 -50t-6 -52q-53 -6 -105 -6q-23 0 -51.5 1t-52.5 5q-4 27 -6.5 51t-2.5 51zM608 1339q0 25 2 50.5t6 52.5q25 4 52.5 6t50.5 2q25 0 52.5 -2t53.5 -6q6 -53 6 -103 q0 -51 -6 -102q-53 -6 -104 -6q-23 0 -51.5 1t-53.5 5q-8 47 -8 102z" />
<glyph unicode="&#xa9;" horiz-adv-x="1732" d="M107 735q0 162 55 302.5t154.5 241.5t239.5 159.5t310 58.5t310.5 -57.5t240 -159.5t154.5 -241.5t55 -303.5t-55 -303t-154.5 -240.5t-240 -160t-310.5 -58.5t-310 58.5t-239.5 160t-154.5 240.5t-55 303zM256 735q0 -131 42 -245.5t121 -199.5t191.5 -134.5t256 -49.5 t256 49.5t191.5 134.5t121 199.5t42 245.5t-42 246t-121 200t-191.5 134t-256 49t-256 -49t-191.5 -134t-121 -200t-42 -246zM498 733q0 92 27.5 172t77.5 138.5t123 92t165 33.5q74 0 118 -8t93 -24q-2 -37 -9.5 -73t-23.5 -69q-45 14 -81 19.5t-81 5.5q-117 0 -177 -77 t-60 -210q0 -137 64.5 -207.5t176.5 -70.5q43 0 82 7t80 25q16 -29 26.5 -62.5t16.5 -74.5q-96 -43 -221 -43q-94 0 -168 32t-125 89t-77.5 135t-26.5 170z" />
<glyph unicode="&#xab;" horiz-adv-x="1265" d="M100 547l340 452q25 4 50.5 6.5t52.5 2.5q29 0 57.5 -2t56.5 -7l-333 -450l333 -457q-29 -4 -56.5 -6t-55.5 -2q-57 0 -105 8zM616 547l340 452q25 4 50.5 6.5t52.5 2.5q29 0 57.5 -2t57.5 -7l-334 -450l334 -457q-29 -4 -56.5 -6t-56.5 -2q-57 0 -105 8z" />
<glyph unicode="&#xad;" horiz-adv-x="739" d="M96 573.5q0 22.5 2 48t6 46.5h531q4 -20 6 -46t2 -48.5t-2 -48t-6 -44.5h-531q-4 18 -6 44t-2 48.5z" />
<glyph unicode="&#xae;" horiz-adv-x="1732" d="M104 735q0 162 55.5 302.5t155 241.5t239.5 159.5t310 58.5t310.5 -57.5t239.5 -159.5t154.5 -241.5t55.5 -303.5t-55.5 -303t-154.5 -240.5t-239.5 -160t-310.5 -58.5t-310 58.5t-239.5 160t-155 240.5t-55.5 303zM256 735q0 -133 42 -247.5t120 -198.5t191.5 -133.5 t254.5 -49.5q143 0 256 49.5t192 133.5t121 198.5t42 247.5q0 131 -42 246t-121 199t-191.5 133t-256.5 49q-141 0 -254.5 -49t-191.5 -133t-120 -199t-42 -246zM612 354v789q53 6 103.5 10t109.5 4q74 0 135.5 -14.5t105.5 -43t69.5 -75.5t25.5 -111q0 -92 -45 -148 t-98 -83l215 -326q-29 -4 -52.5 -5t-45.5 -1q-43 0 -80 6l-234 365l41 18q49 23 93 61t44 97t-43 92t-112 33q-16 0 -34.5 -1t-41.5 -5v-662q-31 -6 -76 -6q-43 0 -80 6z" />
<glyph unicode="&#xb4;" horiz-adv-x="1024" d="M266 1217l236 260q31 4 63.5 6t67.5 2q37 0 67.5 -2t59.5 -6l-291 -260q-23 -4 -49.5 -6.5t-59.5 -2.5q-23 0 -46 2.5t-48 6.5z" />
<glyph unicode="&#xb8;" horiz-adv-x="1024" d="M289 -471q2 29 7 61.5t21 57.5q61 -20 127 -20.5t104 19t38 62.5q0 41 -37 56.5t-96 15.5q-29 0 -58.5 -4t-56.5 -10l-12 10l100 272h131l-68 -168q20 4 48 4q98 0 151 -49t53 -127q0 -100 -80.5 -151.5t-216.5 -51.5q-29 0 -71.5 3.5t-83.5 19.5z" />
<glyph unicode="&#xbb;" horiz-adv-x="1263" d="M88 92l336 451l-336 456q29 4 56.5 6.5t56.5 2.5q27 0 53.5 -2t50.5 -7l342 -454l-342 -453q-25 -4 -49.5 -7t-53 -3t-57 3t-57.5 7zM602 92l336 451l-336 456q29 4 56.5 6.5t56.5 2.5q27 0 53.5 -2t50.5 -7l342 -454l-342 -453q-25 -4 -49.5 -7t-53 -3t-57 3t-57.5 7z " />
<glyph unicode="&#x2c6;" horiz-adv-x="1019" d="M168 1217l223 260q27 4 60.5 6t64.5 2q23 0 54.5 -2t60.5 -8l221 -258q-18 -4 -42 -6.5t-50.5 -2.5t-58 2t-58.5 7l-133 163l-133 -163q-23 -4 -52.5 -6.5t-56.5 -2.5q-59 1 -100 9z" />
<glyph unicode="&#x2da;" horiz-adv-x="1032" d="M295 1419.5q0 98.5 61.5 158.5t159.5 60t159.5 -60t61.5 -158.5t-61.5 -159t-159.5 -60.5t-159.5 60.5t-61.5 159zM416 1419.5q0 -53.5 25.5 -84t74.5 -30.5t75.5 30.5t26.5 84t-26.5 84t-75.5 30.5t-74.5 -30.5t-25.5 -84z" />
<glyph unicode="&#x2dc;" horiz-adv-x="1024" d="M160 1368q31 41 80 70.5t116 29.5q43 0 82 -14t75 -30.5t73 -31t78 -14.5q35 0 64.5 12.5t72.5 51.5q45 -55 65 -125q-33 -39 -83 -67.5t-115 -28.5q-43 0 -82 14t-76 30.5t-73 31t-75 14.5q-41 0 -69.5 -14.5t-69.5 -49.5q-23 29 -39 58.5t-24 62.5z" />
<glyph unicode="&#x3c0;" horiz-adv-x="1511" d="M82 946q104 104 313 105h1000q6 -41 6 -78q0 -23 -1 -45.5t-5 -42.5h-260v-539q0 -113 33.5 -156t99.5 -43q35 0 65.5 5.5t55.5 11.5q12 -37 16 -77t4 -83q-39 -10 -85 -15t-97 -5q-166 0 -229.5 100t-63.5 293v508h-346v-885q-23 -4 -50.5 -5t-50 -1t-49 1t-49.5 5v885 h-16q-70 0 -129.5 -23.5t-93.5 -52.5q-23 25 -43.5 64.5t-24.5 72.5z" />
<glyph unicode="&#x410;" horiz-adv-x="1263" d="M33 0l479 1473q27 4 57.5 6t63.5 2q29 0 59.5 -2t59.5 -6l477 -1473q-25 -4 -55.5 -6t-59.5 -2q-27 0 -54.5 2t-51.5 6l-103 340h-559l-100 -340q-27 -4 -53.5 -6t-53.5 -2q-29 0 -56 2t-50 6zM401 522h449l-225 752z" />
<glyph unicode="&#x412;" horiz-adv-x="1218" d="M182 0v1473q51 10 143.5 16t186.5 6q117 0 213 -20.5t164.5 -66.5t106.5 -118.5t38 -177.5q0 -63 -19.5 -117.5t-52 -96.5t-75.5 -69.5t-88 -40.5q57 -6 115.5 -30.5t105.5 -69.5t76.5 -113.5t29.5 -166.5q0 -119 -47 -202t-128 -134.5t-190.5 -74t-234.5 -22.5 q-78 0 -170 7.5t-174 17.5zM389 162q29 -4 73 -6t87 -2q74 0 138.5 12t113.5 42t77.5 80t28.5 128q0 76 -26.5 128t-72.5 83.5t-109.5 45t-137.5 13.5h-172v-524zM389 858h150q139 0 212.5 60.5t73.5 181.5q0 117 -78.5 174t-214.5 57q-41 0 -78.5 -2t-64.5 -6v-465z" />
<glyph unicode="&#x415;" horiz-adv-x="1097" d="M180 0v1473h809q6 -41 6 -91q0 -23 -1 -47t-5 -45h-600v-422h479q4 -20 6.5 -43.5t2.5 -46t-2.5 -47t-6.5 -45.5h-479v-504h617q6 -41 6 -90q0 -23 -1 -47.5t-5 -44.5h-826z" />
<glyph unicode="&#x41a;" horiz-adv-x="1230" d="M180 0v1473q25 4 51.5 6t53 2t53.5 -2t51 -6v-1473q-25 -4 -51.5 -6t-52.5 -2q-29 0 -55.5 2t-49.5 6zM451 748l473 725q29 4 56.5 6t49.5 2q27 0 57.5 -2t63.5 -6l-467 -707l526 -766q-33 -4 -64.5 -6t-60.5 -2q-25 0 -53 2t-59 6z" />
<glyph unicode="&#x41c;" horiz-adv-x="1671" d="M156 0l65 1473q25 4 56.5 6t60.5 2t62.5 -2t56.5 -6l381 -922l383 922q20 4 51 6t59 2q27 0 59.5 -2t55.5 -6l70 -1473q-25 -4 -50.5 -6t-52.5 -2t-52.5 2t-47.5 6l-47 1145l-361 -840q-41 -6 -84 -6q-39 0 -78 6l-348 846l-47 -1151q-23 -4 -47.5 -6t-46.5 -2 q-27 0 -51 2t-47 6z" />
<glyph unicode="&#x41d;" horiz-adv-x="1404" d="M180 0v1473q25 4 51.5 6t53 2t53.5 -2t51 -6v-607h627v607q23 4 49.5 6t53 2t54 -2t52.5 -6v-1473q-23 -4 -49.5 -6t-55.5 -2q-27 0 -54.5 2t-49.5 6v682h-627v-682q-25 -4 -50.5 -6t-53.5 -2q-27 0 -54.5 2t-50.5 6z" />
<glyph unicode="&#x41e;" horiz-adv-x="1492" d="M125 735q0 166 38 305.5t114.5 240.5t193.5 158.5t276.5 57.5t276.5 -57.5t193.5 -158.5t113.5 -240.5t37 -305.5t-37 -305t-113.5 -240.5t-193.5 -158t-276.5 -56.5t-276.5 56.5t-193.5 158t-114.5 240.5t-38 305zM348 735q0 -135 24.5 -241.5t74 -182t124 -115.5 t177 -40t177 40t124 115.5t74 182t24.5 241.5q0 133 -24.5 240.5t-74 182.5t-124 115t-177 40t-177 -40t-124 -115t-74 -182.5t-24.5 -240.5z" />
<glyph unicode="&#x420;" horiz-adv-x="1159" d="M180 0v1475q31 4 73 8t88 7t92 5t89 2q113 0 214.5 -22.5t178 -78t121.5 -146.5t45 -228q0 -143 -48 -238.5t-127 -153t-179 -81t-205 -23.5q-39 0 -68.5 1t-64.5 5v-532q-49 -6 -104 -6q-25 0 -52.5 1t-52.5 5zM389 715q33 -4 57.5 -6t71.5 -2q63 0 126 13t112 48 t78.5 95.5t29.5 156.5q0 84 -25.5 141.5t-70.5 92t-108.5 49t-137.5 14.5q-76 0 -133 -6v-596z" />
<glyph unicode="&#x421;" horiz-adv-x="1265" d="M121 727q0 176 47 318.5t135 243t215 154.5t285 54q117 0 200.5 -16.5t149.5 -38.5q-4 -47 -17.5 -87t-31.5 -85q-31 10 -59.5 18t-61.5 14.5t-73 9.5t-91 3q-223 0 -347 -151.5t-124 -436.5q0 -145 35 -251.5t98.5 -176.5t152.5 -104.5t200 -34.5q86 0 155.5 14 t130.5 41q45 -88 58 -170q-86 -37 -176.5 -53.5t-194.5 -16.5q-160 0 -288 52.5t-216 149.5t-135 236.5t-47 313.5z" />
<glyph unicode="&#x422;" horiz-adv-x="1077" d="M43 1382.5q0 22.5 2 46t6 44.5h975q4 -20 6 -43t2 -45.5t-2 -48t-6 -46.5h-383v-1290q-47 -6 -102 -6q-57 0 -107 6v1290h-383q-4 20 -6 45t-2 47.5z" />
<glyph unicode="&#x425;" horiz-adv-x="1247" d="M43 0l365 770l-308 700q31 4 57.5 5.5t55.5 1.5q55 0 109 -7l292 -700l-350 -770q-59 -6 -108 -6q-52 0 -113 6zM631 770l293 700q23 2 43 4.5t43 2.5h55q23 0 39 -1t39 -6l-307 -694l366 -776q-61 -6 -112 -6q-45 0 -109 6z" />
<glyph unicode="&#x430;" horiz-adv-x="1058" d="M98 311q0 88 36 154.5t97.5 111t141.5 66t168 21.5q66 0 107.5 -3.5t70.5 -7.5v39q0 121 -61.5 168t-178.5 47q-72 0 -134 -11t-122 -30q-39 68 -39 162q70 23 154 35t162 12q205 0 311.5 -93t106.5 -298v-657q-72 -16 -174.5 -34t-208.5 -18q-100 0 -181.5 18.5 t-137.5 59.5t-87 104.5t-31 153.5zM301 315q0 -61 22.5 -96t56.5 -53.5t75 -22.5t77 -4q47 0 97.5 5.5t89.5 15.5v334q-31 4 -78 8t-80 4q-127 0 -193.5 -47.5t-66.5 -143.5z" />
<glyph unicode="&#x435;" horiz-adv-x="1138" d="M100 518q0 117 30 218.5t91.5 176t154.5 118.5t220 44q109 0 190.5 -37t137 -101.5t84 -153.5t28.5 -193q0 -29 -2 -60.5t-4 -54.5h-715q4 -172 89 -252t251 -80q145 0 277 52q16 -31 26.5 -75t12.5 -87q-68 -29 -149 -43.5t-179 -14.5q-143 0 -245.5 40t-169 113 t-97.5 172t-31 218zM317 627h519q0 57 -15.5 109t-45.5 91t-76 62.5t-109 23.5q-125 0 -192 -75.5t-81 -210.5z" />
<glyph unicode="&#x43e;" horiz-adv-x="1181" d="M100 524.5q0 116.5 30 217t91.5 174t153.5 116.5t215 43t215 -43t153.5 -116.5t91 -174t29.5 -217t-29.5 -217t-91 -174.5t-153.5 -116t-215 -42t-215 42t-153.5 116t-91.5 174.5t-30 217zM315 524.5q0 -182.5 67 -285t208 -102.5t208.5 102.5t67.5 285t-67.5 283.5 t-208.5 101t-208 -101t-67 -283.5z" />
<glyph unicode="&#x43f;" horiz-adv-x="1511" d="M82 946q104 104 313 105h1000q6 -41 6 -78q0 -23 -1 -45.5t-5 -42.5h-260v-539q0 -113 33.5 -156t99.5 -43q35 0 65.5 5.5t55.5 11.5q12 -37 16 -77t4 -83q-39 -10 -85 -15t-97 -5q-166 0 -229.5 100t-63.5 293v508h-346v-885q-23 -4 -50.5 -5t-50 -1t-49 1t-49.5 5v885 h-16q-70 0 -129.5 -23.5t-93.5 -52.5q-23 25 -43.5 64.5t-24.5 72.5z" />
<glyph unicode="&#x440;" horiz-adv-x="1208" d="M162 -483v1534q20 4 41.5 6t44.5 2q20 0 42.5 -2t43.5 -6q2 -4 5 -25.5t6 -46.5l6 -47q3 -23 3 -29q20 33 49 63.5t69 55.5t90 39t112 14q92 0 171 -30.5t135 -95t88 -164t32 -234.5q0 -270 -146.5 -423t-414.5 -153q-45 0 -92.5 6.5t-81.5 16.5v-481q-25 -4 -52.5 -6.5 t-50 -2.5t-50 2.5t-50.5 6.5zM365 172q39 -14 79.5 -20.5t106.5 -6.5q74 0 135.5 24t105.5 73t69.5 123.5t25.5 177.5q0 164 -60.5 260t-197.5 96q-51 0 -98.5 -18.5t-84 -55.5t-59 -93t-22.5 -134v-426z" />
<glyph unicode="&#x441;" horiz-adv-x="978" d="M102 524q0 117 33 217.5t97.5 174t160.5 116.5t223 43q86 0 152 -10t125 -33q0 -35 -9.5 -81t-25.5 -81q-100 35 -229 35q-158 0 -236 -104.5t-78 -276.5q0 -197 88.5 -288t241.5 -91q61 0 113.5 8.5t105.5 28.5q16 -29 28.5 -71.5t14.5 -87.5q-121 -47 -276 -48 q-262 0 -395.5 148.5t-133.5 400.5z" />
<glyph unicode="&#x443;" horiz-adv-x="1083" d="M27 1051q27 4 55.5 5t52.5 1q27 0 59.5 -1t55.5 -5l291 -977l301 977q43 6 100 6q23 0 51.5 -1t57.5 -5l-408 -1264q-29 -84 -59.5 -141.5t-69.5 -92t-87 -49t-112 -14.5q-47 0 -93 7t-81 18q0 47 8.5 83.5t24.5 73.5q18 -6 50 -13t69 -7q27 0 50.5 5t44 20.5t37.5 44 t34 77.5l63 199q-16 0 -33.5 -1t-33.5 -1q-20 0 -43 1t-37 3z" />
<glyph unicode="&#x445;" horiz-adv-x="1042" d="M37 0l285 545l-248 506q47 8 106 8q29 0 56.5 -2t58.5 -6l217 -508l-262 -543q-27 -4 -52.5 -6t-50.5 -2q-29 0 -55 2t-55 6zM528 543l220 508q29 4 57.5 6t56.5 2q55 0 103 -8l-244 -500l285 -551q-29 -4 -55.5 -6t-55.5 -2q-55 0 -102 8z" />
<glyph unicode="&#x2010;" horiz-adv-x="739" d="M96 573.5q0 22.5 2 48t6 46.5h531q4 -20 6 -46t2 -48.5t-2 -48t-6 -44.5h-531q-4 18 -6 44t-2 48.5z" />
<glyph unicode="&#x2011;" horiz-adv-x="739" d="M96 573.5q0 22.5 2 48t6 46.5h531q4 -20 6 -46t2 -48.5t-2 -48t-6 -44.5h-531q-4 18 -6 44t-2 48.5z" />
<glyph unicode="&#x2012;" horiz-adv-x="739" d="M96 573.5q0 22.5 2 48t6 46.5h531q4 -20 6 -46t2 -48.5t-2 -48t-6 -44.5h-531q-4 18 -6 44t-2 48.5z" />
<glyph unicode="&#x2013;" horiz-adv-x="1024" d="M-8 573q0 25 2 48.5t6 46.5h1024q4 -23 6 -45.5t2 -47.5q0 -27 -2 -50t-6 -44h-1024q-4 23 -6 46t-2 46z" />
<glyph unicode="&#x2014;" horiz-adv-x="2048" d="M-8 573q0 25 2 48.5t6 46.5h2048q4 -23 6 -45.5t2 -47.5q0 -27 -2 -50t-6 -44h-2048q-4 23 -6 46t-2 46z" />
<glyph unicode="&#x2018;" horiz-adv-x="528" d="M102 1470q25 4 52.5 6.5t50 2.5t48.5 -2t50 -7l121 -456q-23 -4 -47.5 -6t-48.5 -2q-51 0 -99 8z" />
<glyph unicode="&#x2019;" horiz-adv-x="528" d="M102 1016l121 457q25 4 50.5 6t48.5 2q25 0 52 -2t52 -6l-127 -457q-27 -6 -52.5 -7t-47.5 -1q-25 0 -48.5 1t-48.5 7z" />
<glyph unicode="&#x201a;" horiz-adv-x="528" d="M102 -231l121 456q25 4 50.5 7.5t48.5 3.5q25 0 52 -3.5t52 -7.5l-127 -456q-27 -4 -52.5 -5.5t-47.5 -1.5q-25 0 -48.5 1.5t-48.5 5.5z" />
<glyph unicode="&#x201c;" horiz-adv-x="927" d="M102 1470q25 4 52.5 6.5t50 2.5t48.5 -2t50 -7l121 -456q-23 -4 -47.5 -6t-48.5 -2q-51 0 -99 8zM502 1470q25 4 52.5 6.5t50 2.5t48 -2t49.5 -7l121 -456q-23 -4 -47 -6t-49 -2q-51 0 -98 8z" />
<glyph unicode="&#x201d;" horiz-adv-x="927" d="M102 1016l121 457q25 4 50.5 6t48.5 2q25 0 52 -2t52 -6l-127 -457q-27 -6 -52.5 -7t-47.5 -1q-25 0 -48.5 1t-48.5 7zM502 1016l121 457q25 4 50 6t48 2q25 0 52.5 -2t51.5 -6l-127 -457q-27 -6 -52 -7t-48 -1q-25 0 -48 1t-48 7z" />
<glyph unicode="&#x201e;" horiz-adv-x="927" d="M102 -231l121 456q25 4 50.5 7.5t48.5 3.5q25 0 52 -3.5t52 -7.5l-127 -456q-27 -4 -52.5 -5.5t-47.5 -1.5q-25 0 -48.5 1.5t-48.5 5.5zM502 -231l121 456q25 4 50 7.5t48 3.5q25 0 52.5 -3.5t51.5 -7.5l-127 -456q-27 -4 -52 -5.5t-48 -1.5q-25 0 -48 1.5t-48 5.5z" />
<glyph unicode="&#x2026;" horiz-adv-x="1501" d="M123 112.5q0 28.5 3 58.5t7 58q29 4 56.5 6.5t56 2.5t57.5 -2.5t57 -6.5q4 -29 7.5 -57.5t3.5 -57t-3 -57t-8 -57.5q-29 -4 -56.5 -6t-56 -2t-57 2t-57.5 6q-4 29 -7 56.5t-3 56zM627 112.5q0 28.5 3 58.5t7 58q29 4 56.5 6.5t56 2.5t57.5 -2.5t57 -6.5q4 -29 7 -57.5 t3 -57t-3 -57t-7 -57.5q-29 -4 -56.5 -6t-56 -2t-57 2t-57.5 6q-4 29 -7 56.5t-3 56zM1130 112.5q0 28.5 3.5 58.5t7.5 58q29 4 56.5 6.5t56 2.5t57 -2.5t57.5 -6.5q4 -29 7 -57.5t3 -57t-3 -57t-7 -57.5q-29 -4 -56.5 -6t-56 -2t-57.5 2t-57 6l-7.5 56.5t-3.5 56z" />
<glyph unicode="&#x2039;" horiz-adv-x="747" d="M100 547l340 452q25 4 50.5 6.5t52.5 2.5q29 0 57.5 -2t56.5 -7l-333 -450l333 -457q-29 -4 -56.5 -6t-55.5 -2q-57 0 -105 8z" />
<glyph unicode="&#x203a;" horiz-adv-x="747" d="M88 92l336 451l-336 456q29 4 56.5 6.5t56.5 2.5q27 0 53.5 -2t50.5 -7l342 -454l-342 -453q-25 -4 -49.5 -7t-53 -3t-57 3t-57.5 7z" />
<glyph unicode="&#x2044;" horiz-adv-x="450" d="M-375 2l989 1448q25 4 50.5 6t50.5 2q27 0 54.5 -2t51.5 -6l-989 -1448q-29 -4 -53.5 -6t-48.5 -2q-58 0 -105 8z" />
<glyph unicode="&#x2070;" horiz-adv-x="921" d="M80 1038q0 88 23.5 167t70.5 138.5t120 94.5t171 35t170 -35t120 -94.5t71.5 -138.5t23.5 -167q0 -90 -23.5 -168.5t-71.5 -137t-120 -93.5t-170 -35t-171 35t-120 93.5t-70.5 137t-23.5 168.5zM268 1038q0 -137 46 -211.5t151 -74.5q100 0 148.5 74.5t48.5 211.5 q0 135 -46.5 210t-150.5 75q-100 0 -148.5 -75t-48.5 -210z" />
<glyph unicode="&#x20ac;" d="M39 553q0 37 10 72h150q-2 20 -2 42v44v52q0 26 2 52h-150q-10 31 -10 68q0 39 10 73h170q47 242 197.5 379.5t408.5 137.5q117 0 201 -16.5t150 -39.5q-4 -47 -17.5 -87t-32.5 -85q-68 25 -138 35t-146 10q-168 0 -264.5 -85t-133.5 -249h523q4 -14 6 -31.5t2 -33.5 q0 -20 -2 -40t-6 -36h-541q-2 -25 -3 -50.5t-1 -53.5v-44q0 -22 2 -42h543q4 -14 6 -30.5t2 -35.5q0 -20 -2 -39.5t-6 -36.5h-525q39 -168 140.5 -245.5t273.5 -77.5q86 0 155.5 14t131.5 41q41 -80 57 -170q-86 -37 -177 -53.5t-194 -16.5q-266 0 -417.5 132.5 t-196.5 375.5h-166q-10 31 -10 70z" />
<glyph unicode="&#x2122;" horiz-adv-x="1691" d="M47 1370q0 35 6 78h619q4 -20 6 -37.5t2 -38.5q0 -18 -2 -36.5t-6 -37.5h-230v-669q-23 -4 -41 -6t-41 -2q-18 0 -37.5 2t-37.5 6v669h-232q-6 37 -6 72zM764 629l41 819q25 2 45 4t41 2q18 0 39.5 -2t46.5 -4l203 -449l200 449q23 2 42.5 4t40 2t41.5 -2l44 -4l41 -819 q-25 -4 -42 -6t-38 -2q-16 0 -35.5 1t-41.5 7l-31 522l-176 -367q-16 -4 -28.5 -5t-29.5 -1q-20 0 -59 6l-162 361l-26 -516q-39 -8 -76 -8q-39 0 -80 8z" />
<glyph unicode="&#x2212;" d="M174 720.5q0 22.5 1 48.5t5 46h869q4 -20 6 -46t2 -48.5t-2 -48t-6 -43.5h-869q-4 18 -5 43.5t-1 48z" />
<glyph unicode="&#xe000;" horiz-adv-x="1060" d="M0 1060h1060v-1060h-1060v1060z" />
</font>
</defs>
</svg>
