<?xml version="1.0" standalone="no"?>
<!DOCTYPE svg PUBLIC "-//W3C//DTD SVG 1.1//EN" "http://www.w3.org/Graphics/SVG/1.1/DTD/svg11.dtd" >
<svg xmlns="http://www.w3.org/2000/svg">
<metadata>
This is a custom SVG webfont generated by Font Squirrel.
Copyright   : Copyright c 2007 by Jos Buivenga All rights reserved
Designer    : Jos Buivenga
Foundry     : Jos Buivenga
Foundry URL : httpwwwjosbuivengademonnl
</metadata>
<defs>
<font id="DiavloMedium" horiz-adv-x="1476" >
<font-face units-per-em="2048" ascent="1536" descent="-512" />
<missing-glyph horiz-adv-x="583" />
<glyph unicode=" "  horiz-adv-x="583" />
<glyph unicode="&#x09;" horiz-adv-x="583" />
<glyph unicode="&#xa0;" horiz-adv-x="583" />
<glyph unicode="!" horiz-adv-x="573" d="M219 494v1003q8 0 22.5 -1t53.5 -7t67.5 -17.5t52 -35t23.5 -58.5v-1005q-16 0 -40.5 3t-70.5 12t-77 36t-31 70zM223 49v168h152q23 0 41 -14.5t18 -34.5v-168h-149q-27 0 -44.5 14.5t-17.5 34.5z" />
<glyph unicode="&#x22;" horiz-adv-x="847" d="M96 1059q23 6 43.5 51t20.5 131q0 39 1 118t1 116h86q104 0 104 -123v-70q0 -266 -157 -266q-56 0 -99 43zM459 1059q25 6 44 51t19 131q0 39 1 118t1 116h88q104 0 105 -123v-70q0 -266 -160 -266q-53 0 -98 43z" />
<glyph unicode="#" horiz-adv-x="1425" d="M47 436q0 131 103 131h145l74 312h-195q-6 23 -6 51q0 131 102 131h142l108 444q39 0 110.5 -40t71.5 -97q0 -12 -2 -18l-69 -289h321l109 444q43 0 112.5 -39t69.5 -98q0 -12 -2 -18l-70 -289h201q6 -23 6 -51q0 -131 -100 -131h-152l-73 -312h200q6 -23 7 -51 q0 -129 -101 -129h-149l-97 -410q-43 0 -112.5 38t-69.5 94q0 14 2 20q18 86 62 258h-328l-94 -410q-45 0 -114 38t-69 94q0 14 3 20q18 86 59 258h-197q-8 20 -8 49zM512 567h324l73 312h-323z" />
<glyph unicode="$" horiz-adv-x="1304" d="M94 1071q0 221 121 320.5t352 111.5v156q0 -2 14 0q3 1 7 0q11 0 25 -4q19 -6 38 -14.5t33 -33t14 -57.5v-47q205 -4 313.5 -61.5t108.5 -186.5q0 -84 -61 -196v12q0 127 -95.5 182.5t-265.5 61.5v-436q88 -14 145.5 -27.5t125 -46.5t107.5 -77t66.5 -121t26.5 -177 q0 -209 -121.5 -322.5t-349.5 -127.5v-168q0 2 -13 0q-3 -1 -7 -1q-11 0 -26 5q-19 6 -37.5 14t-33 32.5t-14.5 57.5v60q-436 14 -436 249q0 82 64 185q0 -131 100 -186.5t272 -61.5v502l-144 29q-52 11 -125 40t-110.5 68t-65.5 106.5t-28 159.5zM336 1100q0 -94 53 -135 t178 -64v412q-119 -12 -175 -62.5t-56 -150.5zM698 168q127 12 178.5 74.5t51.5 173.5q0 104 -54.5 154.5t-175.5 74.5v-477z" />
<glyph unicode="%" horiz-adv-x="1648" d="M82 1040v244q0 98 87 155.5t234.5 57.5t235.5 -57.5t88 -155.5v-244q0 -100 -87 -153t-236.5 -53t-235.5 53t-86 153zM264 1094q0 -59 27.5 -87t111.5 -28q82 0 111 28.5t29 86.5v141q0 57 -29 86t-111 29q-84 0 -111.5 -29t-27.5 -86v-141zM274 289q0 39 27 65l977 979 q82 -74 82 -141q0 -47 -90 -137l-916 -918q-80 72 -80 152zM924 186v244q0 98 88 155.5t235 57.5q145 0 233.5 -57.5t88.5 -155.5v-244q0 -100 -87 -153t-235 -53q-150 0 -236.5 53t-86.5 153zM1108 240q0 -59 27.5 -87t111.5 -28q82 0 110.5 28.5t28.5 86.5v141 q0 57 -28.5 86t-110.5 29q-84 0 -111.5 -29t-27.5 -86v-141z" />
<glyph unicode="&#x26;" horiz-adv-x="1259" d="M125 377v61q0 113 56.5 204t162.5 120q-98 27 -148.5 108.5t-50.5 190.5v53q0 178 144.5 282.5t374.5 104.5q211 0 351 -73.5t140 -196.5q0 -86 -74 -180q0 98 -64.5 159.5t-152.5 84t-200 22.5q-141 0 -215 -64.5t-74 -171.5q0 -123 55 -179t188 -62v264q8 0 21.5 -1 t48.5 -8.5t61.5 -18.5t49 -35.5t22.5 -59.5v-143h242q0 -6 -1 -18.5t-8 -44.5t-19.5 -54.5t-39 -43t-61.5 -20.5h-113v-133q0 -41 9.5 -83t17.5 -62l10 -23q-68 8 -116 31t-71.5 45.5t-36.5 56t-14.5 49t-1.5 35.5v84h-34q-231 -27 -232 -249q0 -111 79 -178.5t233 -67.5 q123 0 215 21.5t158.5 82t66.5 156.5q68 -92 67 -178q0 -123 -141 -196t-366 -73q-242 0 -390.5 111t-148.5 291z" />
<glyph unicode="'" horiz-adv-x="483" d="M96 1059q23 6 43.5 51t20.5 131q0 39 1 118t1 116h86q104 0 104 -123v-70q0 -266 -157 -266q-56 0 -99 43z" />
<glyph unicode="(" horiz-adv-x="673" d="M94 541.5q0 269.5 55.5 502t148.5 368.5t200 136q66 0 145 -71q-143 -14 -233.5 -283.5t-90.5 -648.5q0 -383 90.5 -656.5t233.5 -287.5q-80 -72 -145 -72q-106 0 -199.5 137t-149 371.5t-55.5 504z" />
<glyph unicode=")" horiz-adv-x="673" d="M31 -399q145 14 234 287.5t89 656.5q0 379 -89 648t-234 284q80 72 147 71q106 0 199.5 -136t149 -368.5t55.5 -502t-55.5 -504t-148.5 -371.5t-200 -137q-67 0 -147 72z" />
<glyph unicode="*" horiz-adv-x="847" d="M80 1272q0 49 31.5 83t107.5 34q39 0 131 -37q-35 145 -143 166q51 61 117 61q49 0 91 -53t56 -158q80 78 80 143q0 31 -12 64l16 -4q14 -4 25.5 -8t29 -13.5t28.5 -20.5t19.5 -31.5t8.5 -43.5q0 -84 -123 -182q47 -16 90 -17q72 0 125 62q0 -2 3 -13.5t5 -29t2 -31.5 q0 -49 -33 -83t-106 -34q-31 0 -133 37q35 -147 145 -164q-61 -63 -117 -63q-49 0 -90 52t-57 159q-82 -78 -82 -146q0 -29 12 -61q-2 0 -15 4t-26.5 7t-30 12.5t-27.5 21.5t-19.5 31.5t-8.5 44.5q0 82 123 182q-53 14 -96 14q-68 0 -117 -61q-10 43 -10 76z" />
<glyph unicode="+" horiz-adv-x="1062" d="M137 506q0 31 8.5 55.5t32 44t60.5 19.5h186v272q8 2 21.5 4t48.5 3h9q29 0 53 -5q28 -6 49.5 -28.5t21.5 -57.5v-188h293q2 -8 4 -19.5t2 -43.5t-7.5 -55.5t-32 -44t-61.5 -20.5h-198v-303q-8 -2 -21.5 -4t-48.5 -2t-62.5 6t-49 28.5t-21.5 57.5v217h-283q-2 8 -3 20.5 t-1 43.5z" />
<glyph unicode="," horiz-adv-x="493" d="M76 -225q66 14 83 84q12 47 12 93q0 22 -3 44l-41 227h59h107q25 0 43 -16.5t18 -42.5v-146q0 -281 -166 -280q-63 0 -112 37z" />
<glyph unicode="-" horiz-adv-x="1030" d="M137 509q0 30 6.5 53.5t29 42t56.5 18.5h660q2 -6 4 -18.5t2 -43.5t-8 -53.5t-29.5 -42t-56.5 -19.5h-660q-2 6 -3 19.5t-1 43.5z" />
<glyph unicode="." horiz-adv-x="493" d="M139 53v170h158q23 0 40 -16.5t17 -34.5v-172h-153q-25 0 -43.5 15t-18.5 38z" />
<glyph unicode="/" horiz-adv-x="675" d="M29 -352l448 1937l22 -5q13 -3 46 -15.5t56.5 -27.5t39.5 -43t8 -58l-446 -1938l-22 5q-13 3 -47 14.5t-57.5 28t-39.5 43t-8 59.5z" />
<glyph unicode="0" horiz-adv-x="1349" d="M135 369v741q0 190 145.5 290.5t393.5 100.5q252 0 397.5 -100.5t145.5 -290.5v-741q0 -193 -145.5 -293.5t-397.5 -100.5q-248 0 -393.5 100.5t-145.5 293.5zM362 399q0 -131 75 -190t237 -59q166 0 239.5 59t73.5 190v678q0 133 -73.5 191.5t-239.5 58.5 q-162 0 -237 -58.5t-75 -191.5v-678z" />
<glyph unicode="1" horiz-adv-x="1122" d="M84 1296q0 84 70.5 132.5t203.5 48.5q88 0 186.5 6t153.5 12l54 6q-23 -127 -23 -215v-1100h358q4 -35 5 -49q0 -57 -29 -97t-88 -40h-834q-6 23 -6 49q0 74 31 105.5t123 31.5h219v1108h-80q-76 0 -124 -8t-88 -48t-40 -112q-92 80 -92 170z" />
<glyph unicode="2" horiz-adv-x="1255" d="M104 0v199q0 106 44.5 189t115 136.5t156.5 96.5t173 81.5t157.5 81.5t114.5 106.5t44 145.5v35q0 109 -74.5 177.5t-216.5 68.5q-113 0 -200.5 -22.5t-152 -84t-64.5 -159.5q-74 94 -74 180q0 123 140.5 196.5t350.5 73.5q227 0 373 -107.5t146 -283.5v-84 q0 -111 -45 -197t-116 -139t-158 -96t-173 -78t-156.5 -75t-115.5 -99t-45 -137v-19h657q53 0 97 7.5t63 15.5l16 8q0 -8 -1 -22.5t-9 -52.5t-21.5 -67.5t-46 -52t-73.5 -22.5h-906z" />
<glyph unicode="3" horiz-adv-x="1282" d="M115 242q0 88 75 190q0 -143 124 -206.5t315 -63.5q158 0 234.5 66.5t76.5 177.5q0 231 -229 262q-18 2 -31.5 7t-34 18.5t-32 45t-11.5 80.5q0 4 1 14.5t1 14.5h41q150 0 212.5 55t62.5 178q0 104 -76 170t-215 66q-113 0 -201 -22.5t-152.5 -84t-64.5 -159.5 q-74 94 -74 180q0 123 140.5 196.5t351.5 73.5q229 0 373.5 -104.5t144.5 -282.5v-53q0 -109 -50 -191t-149 -108q106 -29 162.5 -121t56.5 -205v-61q0 -180 -148.5 -290t-389.5 -110q-225 0 -369.5 71t-144.5 196z" />
<glyph unicode="4" horiz-adv-x="1173" d="M20 410q8 133 110.5 321.5t237 351t236 274t139.5 144.5q8 0 22.5 -1t52.5 -8t67.5 -18.5t52.5 -35t23 -56.5v-800h172q0 -14 -3.5 -34t-13.5 -55.5t-41 -59t-74 -23.5h-40v-430q-18 0 -43 3t-73 12t-80 36.5t-32 66.5v312h-713zM287 582h446v524l10 131q-14 -29 -34 -53 l-62 -70q-288 -335 -360 -532z" />
<glyph unicode="5" horiz-adv-x="1216" d="M74 240q0 86 71 192q0 -143 124 -206.5t315 -63.5q166 0 239.5 55t73.5 184v129q0 258 -313 258h-267l-165 -6q16 63 16 162v307q0 41 2 72q2 4 6 26.5t8 34t16.5 33t30 31.5t50 19.5t73.5 9.5h516l177 24q0 -8 -1.5 -22.5t-9.5 -51t-21.5 -63.5t-46 -50.5t-73.5 -23.5 h-500v-223l-10 -104h195q256 0 400 -99.5t144 -306.5v-182q0 -193 -146.5 -296.5t-393.5 -103.5q-215 0 -362.5 68t-147.5 197z" />
<glyph unicode="6" horiz-adv-x="1339" d="M135 369v741q0 190 145.5 290.5t393.5 100.5q229 0 370.5 -67.5t141.5 -192.5q0 -86 -72 -192q0 268 -440 268q-164 0 -238 -54.5t-74 -185.5v-145l-10 -123l13 12q8 8 37.5 27.5t65.5 35t97.5 28t130.5 12.5q236 0 378.5 -100.5t142.5 -293.5v-161q0 -193 -145.5 -293.5 t-397.5 -100.5q-248 0 -393.5 100.5t-145.5 293.5zM362 399q0 -131 75 -190t237 -59q166 0 239.5 59t73.5 190v101q0 129 -70.5 188.5t-220.5 59.5q-324 0 -334 -236v-113z" />
<glyph unicode="7" horiz-adv-x="1161" d="M10 1266q0 8 1 22.5t9.5 51t22.5 64.5t45 50.5t74 22.5h979q0 -195 -73 -366t-179 -298l-211 -249q-104 -122 -180 -266t-78 -294q-49 -25 -92 -24q-131 0 -131 92q0 129 60 256t154 237l188 220q95 110 179 242t115 263h-709q-55 0 -99 -6t-60 -12z" />
<glyph unicode="8" horiz-adv-x="1349" d="M135 369v65q0 109 53.5 192t151.5 124q-88 41 -136 121.5t-48 183.5v55q0 190 142 290.5t376 100.5q238 0 379 -100.5t141 -290.5v-55q0 -102 -48 -183t-136 -122q100 -41 153.5 -124t53.5 -192v-59q0 -193 -146.5 -296.5t-395.5 -103.5t-394.5 100.5t-145.5 293.5z M362 397q0 -131 74 -189t239 -58t238.5 60t73.5 193.5t-74.5 194.5t-237.5 61t-238 -62.5t-75 -199.5zM385 1081q0 -131 61.5 -188t210.5 -57h35q150 0 212.5 57t62.5 188t-71 188.5t-221.5 57.5t-220 -57.5t-69.5 -188.5z" />
<glyph unicode="9" horiz-adv-x="1339" d="M125 1110q0 190 145.5 290.5t393.5 100.5q252 0 397 -100.5t145 -290.5v-741q0 -193 -145.5 -293.5t-396.5 -100.5q-227 0 -369.5 67t-142.5 191q0 90 75 195q0 -266 437 -266q168 0 240.5 54t72.5 183v148l8 123q-4 -4 -11 -12.5t-37 -28t-65.5 -33.5t-97 -27.5 t-131.5 -13.5q-233 0 -375.5 100.5t-142.5 292.5v162zM352 979q0 -129 72 -188.5t219 -59.5q328 0 334 236v110q0 133 -74 191.5t-239 58.5q-162 0 -237 -58.5t-75 -191.5v-98z" />
<glyph unicode=":" horiz-adv-x="493" d="M172 53v170h156q23 0 41 -16.5t18 -34.5v-172h-156q-25 0 -42 15t-17 38zM172 788v170h156q23 0 41 -16t18 -35v-172h-156q-25 0 -42 15t-17 38z" />
<glyph unicode=";" horiz-adv-x="493" d="M106 -225q68 14 85 85q11 44 11 87q0 25 -3 49l-39 227h57h107q25 0 44 -16.5t19 -42.5v-146q0 -281 -168 -280q-64 0 -113 37zM172 788v170h156q23 0 41 -16t18 -35v-172h-156q-25 0 -42 15t-17 38z" />
<glyph unicode="&#x3c;" horiz-adv-x="878" d="M172 418q-54 54 -54 108q0 55 56 111l420 420q98 -66 98 -123q0 -45 -78 -117l-286 -291l395 -395q-12 -29 -53 -59.5t-80 -30.5q-49 0 -123 82z" />
<glyph unicode="=" horiz-adv-x="1044" d="M137 340q0 115 117 115h649q4 -41 4 -58q0 -59 -27.5 -86.5t-93.5 -27.5h-641q-8 41 -8 57zM137 686q0 115 117 115h649q4 -43 4 -60q0 -57 -27.5 -85.5t-93.5 -28.5h-641q-8 41 -8 59z" />
<glyph unicode="&#x3e;" horiz-adv-x="878" d="M156 131l395 395l-340 342q-29 31 -29 64q0 59 105 125l420 -420q55 -55 55 -109.5t-53 -109.5l-355 -352q-27 -29 -61 -29q-41 0 -77.5 28.5t-59.5 65.5z" />
<glyph unicode="?" horiz-adv-x="1130" d="M135 1274q0 102 110.5 164.5t293.5 62.5q233 0 376.5 -96t143.5 -274v-54q0 -80 -36 -148.5t-89 -110.5t-116 -84l-116 -77q-53 -35 -87.5 -86t-34.5 -112v-101q-10 0 -24.5 1t-51.5 8.5t-63.5 19.5t-49 38t-22.5 62v37q0 78 47 140.5t115 106.5l137 88 q68 44 115.5 103.5t47.5 129.5q0 104 -73.5 164.5t-218.5 60.5q-141 0 -230.5 -55.5t-89.5 -167.5q-84 96 -84 180zM369 49v168h149q20 0 40 -15.5t20 -33.5v-168h-152q-23 0 -40 13t-17 36z" />
<glyph unicode="@" horiz-adv-x="1896" d="M135 186v680q0 231 178.5 382t479.5 151h311q299 0 478 -150.5t179 -382.5v-389q0 -502 -721 -502q-233 0 -383.5 75t-150.5 247q0 106 54 174t138 96.5t171 47t165 49t107 79.5q0 82 -43 123t-164 41q-133 0 -218 -53t-93 -164q-76 88 -76 172q0 102 112.5 161.5 t274.5 59.5q209 0 317.5 -91t108.5 -259v-289q0 -90 -74 -153.5t-176 -79.5q37 72 37 184v160q-14 -39 -87 -63.5t-146.5 -33.5t-134 -47t-60.5 -110q0 -80 92 -123t236 -43q113 0 196.5 16.5t154 55.5t107.5 113.5t37 183.5v336q0 172 -107.5 282.5t-332.5 110.5h-311 q-223 0 -330 -110.5t-107 -282.5v-627q0 -158 73 -261.5t191 -103.5q72 0 140 27q-4 -20 -14.5 -44t-34 -53.5t-75.5 -49t-122 -19.5q-166 0 -271.5 139t-105.5 338z" />
<glyph unicode="A" horiz-adv-x="1366" d="M0 0q35 57 131 360l174 547q131 418 375 609l4 4l10 -13q12 -8 26 -21l35 -34q22 -20 45 -49l50 -64.5t54.5 -81t54 -96.5t53 -117.5t49.5 -136.5l174 -547q96 -303 131 -360q-43 -14 -86 -14q-51 0 -93 21.5t-67.5 48t-51.5 82t-35 84t-29 97.5l-39 123h-564l-39 -123 q-20 -70 -29 -98t-35 -83.5t-51.5 -82t-67.5 -48t-93 -21.5q-18 0 -39.5 3t-34.5 7zM453 621h460l-69 231q-31 102 -71 196.5t-64 137.5l-25 45q-80 -104 -162 -379z" />
<glyph unicode="B" horiz-adv-x="1267" d="M156 1477h456q520 0 521 -365v-59q0 -100 -47.5 -185.5t-122.5 -119.5q86 -37 138 -124t52 -192v-55q0 -190 -144.5 -283.5t-396.5 -93.5h-258q-8 0 -21.5 1t-47 7t-59 17.5t-48 36t-22.5 57.5v1358zM385 176h227q164 0 239 53.5t75 178.5q0 252 -297 251h-244v-483z M385 836h244q147 0 211.5 60t64.5 187q0 123 -69.5 170t-223.5 47h-227v-464z" />
<glyph unicode="C" horiz-adv-x="1419" d="M135 473v533q0 133 48 231t134 154.5t190.5 83t229.5 26.5q152 0 272.5 -26.5t203.5 -94t83 -168.5q0 -68 -47 -149q-16 125 -168.5 189.5t-343.5 64.5q-375 0 -374 -342v-471q0 -342 374 -342q125 0 227.5 20.5t186.5 78.5t98 153q51 -88 51 -168q0 -72 -48 -127.5 t-133 -85t-180 -44t-202 -14.5q-125 0 -229.5 27t-190.5 83t-134 154.5t-48 233.5z" />
<glyph unicode="D" horiz-adv-x="1495" d="M156 119v1358h579q129 0 234.5 -23.5t196.5 -77t142.5 -155t51.5 -242.5v-481q0 -141 -51.5 -242.5t-142.5 -155t-196.5 -77t-234.5 -23.5h-383q-16 0 -38.5 3t-63.5 12.5t-67.5 37t-26.5 66.5zM385 176h350q397 0 398 342v443q0 340 -398 339h-350v-1124z" />
<glyph unicode="E" horiz-adv-x="1212" d="M156 119v1358h974q0 -6 -1 -18.5t-8 -43.5t-19 -53.5t-39 -42t-64 -19.5h-614v-417h455q72 0 124 9t68 17l15 9q0 -209 -175 -209h-487v-533h745q0 -12 -3 -33.5t-13 -58.5t-41 -60.5t-74 -23.5h-643q-8 0 -21 1t-48 7t-60.5 17.5t-48 36t-22.5 57.5z" />
<glyph unicode="F" horiz-adv-x="1060" d="M156 98v1379h911q0 -6 -1 -18.5t-8 -43.5t-18.5 -53.5t-39 -42t-64.5 -19.5h-551v-417h371l207 28q0 -203 -172 -202h-406v-729q-8 0 -24.5 1t-55.5 7t-68.5 17t-55 35.5t-25.5 57.5z" />
<glyph unicode="G" d="M135 1006q0 133 48 231t134 154.5t190.5 83t229.5 26.5q145 0 267 -23.5t210.5 -86t88.5 -158.5q0 -82 -54 -170q-16 125 -168.5 189.5t-343.5 64.5q-375 0 -375 -342v-471q0 -342 375 -342q188 0 282.5 64.5t94.5 256.5v99h-268q-147 0 -148 204q53 -31 183 -30h460 v-305q0 -250 -167.5 -363t-436.5 -113q-125 0 -229.5 27t-190.5 83t-134 154.5t-48 233.5v533z" />
<glyph unicode="H" horiz-adv-x="1503" d="M156 98v1399q10 0 25.5 -1t55 -7t68.5 -17.5t54.5 -35t25.5 -58.5v-534h735v653q8 0 23.5 -1t55.5 -7t68.5 -17.5t54.5 -35t26 -58.5v-1398q-8 0 -23.5 1t-55.5 7t-70 17t-54.5 36t-24.5 57v568h-735v-686q-8 0 -24.5 1t-55.5 7t-68.5 17t-55 35.5t-25.5 57.5z" />
<glyph unicode="I" horiz-adv-x="540" d="M156 98v1399q10 0 25.5 -1t55 -7t68.5 -17.5t54.5 -35t25.5 -58.5v-1398q-8 0 -24.5 1t-55.5 7t-68.5 17t-55 35.5t-25.5 57.5z" />
<glyph unicode="J" horiz-adv-x="561" d="M-4 -338q92 0 137 103.5t45 222.5v1509q18 0 40 -2t72 -11t83 -37t33 -73v-1458q0 -139 -61.5 -235.5t-168.5 -96.5q-94 0 -180 78z" />
<glyph unicode="K" horiz-adv-x="1294" d="M156 98v1399q10 0 25.5 -1t55 -7t68.5 -17.5t54.5 -35t25.5 -58.5v-508q174 25 294 144t255 360q70 127 217 127l94 -12q-31 -47 -84 -144l-97 -171q-44 -74 -103.5 -157t-134 -140.5t-158.5 -81.5q94 -23 180 -91.5t152.5 -167t117.5 -192.5l105 -198q53 -103 86 -148 q-55 -14 -95 -14q-168 0 -237 127l-54 102q-40 76 -56.5 104.5l-56.5 93t-64.5 93t-68.5 74t-85 67t-94.5 43t-112.5 29.5v-737q-8 0 -24.5 1t-55.5 7t-68.5 17t-55 35.5t-25.5 57.5z" />
<glyph unicode="L" horiz-adv-x="1093" d="M156 119v1378q10 0 25.5 -1t55 -7t68.5 -17.5t54.5 -35t25.5 -58.5v-1202h489q162 0 207 31q0 -82 -29.5 -144.5t-101.5 -62.5h-594q-8 0 -21 1t-48 7t-60.5 17.5t-48 36t-22.5 57.5z" />
<glyph unicode="M" horiz-adv-x="1708" d="M156 98v1379h153q125 0 178 -113l363 -780l430 893q272 0 272 -119v-1378q-8 0 -24.5 1t-55 7t-68.5 17t-54.5 36t-24.5 57v838l16 203l-421 -863q-14 0 -39 3.5t-80.5 33t-87.5 82.5l-344 738q16 -104 16 -197v-956q-8 0 -24.5 1t-55.5 7t-68.5 17t-55 35.5t-25.5 57.5z " />
<glyph unicode="N" horiz-adv-x="1505" d="M156 98v1379q70 0 105.5 -2t85.5 -11.5t82 -34t58 -63.5l547 -879l111 -176q-23 115 -23 197v969q8 0 23.5 -1t55.5 -7.5t68.5 -17.5t54.5 -35.5t26 -57.5v-1378q-229 0 -320 120l-12 21l-658 1050q25 -111 25 -204v-987q-8 0 -24.5 1t-55.5 7t-68.5 17t-55 35.5 t-25.5 57.5z" />
<glyph unicode="O" d="M135 453v571q0 229 149.5 353t452.5 124t453.5 -124t150.5 -353v-571q0 -229 -150.5 -353.5t-453.5 -124.5t-452.5 124.5t-149.5 353.5zM362 481q0 -170 77 -250.5t296 -80.5q223 0 301 79.5t78 251.5v516q0 170 -78 250t-301 80q-219 0 -296 -81t-77 -249v-516z" />
<glyph unicode="P" horiz-adv-x="1243" d="M156 98v1379h393q133 0 232.5 -20.5t188.5 -71t136 -146.5t47 -235v-39q0 -475 -604 -476h-164v-509q-8 0 -24.5 1t-55.5 7t-68.5 17t-55 35.5t-25.5 57.5zM385 664h164q190 0 283.5 64.5t93.5 254.5q0 182 -96.5 249.5t-280.5 67.5h-164v-636z" />
<glyph unicode="Q" d="M135 453v571q0 229 149.5 353t452.5 124t453.5 -124t150.5 -353v-571q0 -209 -130 -332t-382 -141v-48q0 -109 94.5 -167t223.5 -58q141 0 243.5 48t118.5 159q37 -74 37 -139q0 -121 -114.5 -187.5t-286.5 -66.5q-131 0 -245 41t-190.5 130t-76.5 210v80 q-248 20 -373 141t-125 330zM362 481q0 -170 77 -250.5t296 -80.5q223 0 301 79.5t78 251.5v516q0 170 -78 250t-301 80q-219 0 -296 -81t-77 -249v-516z" />
<glyph unicode="R" horiz-adv-x="1228" d="M156 98v1379h456q520 0 521 -365v-63q0 -172 -112 -273.5t-290 -101.5q94 -45 175 -139.5t128 -181.5l103 -198q55 -112 88 -159q-55 -12 -94 -12q-158 0 -226 127l-54 105q-42 81 -59.5 107.5t-55.5 89t-67 89.5l-75 65q-45 39 -96.5 58.5t-112.5 31.5v-677 q-8 0 -24.5 1t-55.5 7t-68.5 17t-55 35.5t-25.5 57.5zM385 834h244q147 0 211.5 60t64.5 185q0 121 -70.5 171t-222.5 50h-227v-466z" />
<glyph unicode="S" horiz-adv-x="1345" d="M94 1071q0 434 582 434q528 0 528 -250q0 -84 -61 -196v12q0 246 -467 246q-154 0 -247 -53.5t-93 -163.5q0 -74 50 -118t132 -62.5t179.5 -33t194.5 -38t179 -66.5t132 -132t50 -220q0 -219 -159.5 -336t-421.5 -117q-104 0 -193.5 12.5t-171.5 40t-129 79t-47 120.5 q0 82 64 185q0 -248 477 -248q166 0 253 66.5t87 183.5q0 84 -50.5 135t-132 72.5t-180 37t-196 38t-178 59.5t-131 115.5t-50.5 197.5z" />
<glyph unicode="T" horiz-adv-x="1173" d="M4 1509q55 -33 205 -32h754q68 0 119 8t69 16l18 8q0 -209 -172 -209h-299v-1320q-8 0 -24.5 1t-55 7t-68.5 17t-54.5 36t-24.5 57v1202h-295q-172 0 -172 209z" />
<glyph unicode="U" d="M135 428v1067q8 0 24.5 -1t55.5 -7t68.5 -17.5t54 -36t24.5 -57.5v-917q0 -143 102.5 -221t272.5 -78q172 0 274.5 77.5t102.5 221.5v1036q8 0 23.5 -1t55.5 -7t68.5 -17.5t54 -36t25.5 -57.5v-948q0 -217 -173 -336t-431 -119q-254 0 -428 119t-174 336z" />
<glyph unicode="V" horiz-adv-x="1423" d="M10 1475q45 14 86 14q59 0 104.5 -23.5t75 -71.5t47 -93.5t39.5 -112.5q8 -23 13 -33l174 -532q35 -102 75 -191.5t63.5 -126.5t25.5 -37q92 137 161 355l177 532q4 10 15 47t15 49.5t17.5 45t20.5 44.5l22 38q14 26 25.5 38.5t31 28.5t37.5 23.5t41.5 13.5t52.5 6 q18 0 39 -3t33 -7l14 -4q-33 -45 -135 -361l-172 -534q-41 -123 -95.5 -230.5t-100.5 -173t-96 -120t-70.5 -73t-32.5 -26.5q-10 6 -36 26.5t-73 73t-94 119t-100.5 174t-92.5 230.5l-176 534l-28 93q-18 60 -28.5 91t-25 70t-27 65t-22.5 42z" />
<glyph unicode="W" horiz-adv-x="2088" d="M10 1475q45 14 84 14q27 0 51.5 -6t43 -13.5t35.5 -23.5l31 -29q13 -12 26.5 -37.5l20.5 -38t19.5 -45t16.5 -45l15.5 -49.5t17.5 -47l174 -532q76 -229 168 -367l33 41q22 27 82.5 136.5t111.5 250.5q-76 307 -76 542.5t236 235.5q-12 -111 -13 -196q0 -164 30 -329 t73 -281.5t85 -211t71 -139.5l28 -49q92 135 168 367l172 532q59 180 96 238q68 96 181 96q18 0 39.5 -3t33.5 -7l13 -4q-29 -43 -131 -361l-181 -547q-41 -123 -97 -231.5t-104 -174t-92.5 -114.5t-72.5 -67l-25 -21q-23 18 -59.5 53t-124.5 158t-150 258 q-106 -281 -305 -448l-24 -21q-10 6 -27.5 20.5t-68 66.5t-95.5 115.5t-102.5 173t-95.5 232.5l-181 547q-102 318 -131 361z" />
<glyph unicode="X" horiz-adv-x="1241" d="M4 -8q43 70 121 223.5t161 287.5t175 228q-92 102 -175 240.5t-158 286t-122 217.5q51 12 94 12q143 0 213 -127l111 -208q35 -67 89 -149.5t108 -138.5q16 16 31.5 37t29.5 37t32 44l27 43q10 15 31 50l29 48q8 13 29 56l29 55l34 62l35 64q70 127 213 127l94 -12 q-20 -31 -174 -319t-281 -425q94 -94 176 -228t160 -288t123 -223q-51 -12 -94 -12q-143 0 -213 126l-103 189q-33 59 -91 149.5t-117 155.5q-59 -66 -119 -159t-87 -144l-104 -191q-70 -127 -213 -126z" />
<glyph unicode="Y" horiz-adv-x="1234" d="M4 1477q51 12 94 12q147 0 213 -127l66 -132q41 -83 56.5 -117t43 -88t40.5 -77l33 -55q19 -33 36 -52l32 -38q25 27 52 67l45 72q18 31 49 89.5t43 86t47 99t43 92.5q86 180 242 180l94 -12q-49 -76 -131 -255.5t-173 -337t-198 -259.5v-645q-8 0 -23.5 1t-55.5 7 t-69.5 17t-54 37t-24.5 58v525q-109 104 -199 261.5t-169 334t-132 256.5z" />
<glyph unicode="Z" horiz-adv-x="1206" d="M61 41q0 150 69 285t174 246l216 219q111 106 212.5 240t141.5 269h-776q0 8 1 20.5t8.5 42.5t18.5 53.5t39 42t64 18.5h901q0 -170 -78.5 -338t-193.5 -299t-230.5 -247t-205.5 -226.5t-105 -192.5h648q160 0 204 33q-10 -207 -129 -207h-977q-2 14 -2 41z" />
<glyph unicode="[" horiz-adv-x="614" d="M156 -78v1555h428q0 -6 -1 -17.5t-8.5 -39t-19.5 -48t-39 -38t-63 -17.5h-91v-1354h91q37 0 63.5 -17.5t38.5 -38t19.5 -49t8.5 -38.5t1 -19h-242q-8 0 -20.5 1t-44 7.5t-56 17.5t-45 36.5t-20.5 58.5z" />
<glyph unicode="\" horiz-adv-x="704" d="M-25 1565q61 18 115 18h10q88 0 109 -74l571 -1966q-61 -25 -121 -24q-92 0 -112 73z" />
<glyph unicode="]" horiz-adv-x="614" d="M31 -199q0 8 1 18.5t8 39t19.5 49t39 38t65.5 17.5h88v1354h-88q-59 0 -92 39t-37 82l-4 39h428v-1555q0 -102 -154 -119l-31 -2h-243z" />
<glyph unicode="^" horiz-adv-x="1159" d="M53 1004l426 426q55 55 123 55q61 0 117 -53l352 -353q31 -35 31 -63q0 -59 -111 -133l-391 393l-346 -344q-27 -27 -70 -27q-41 2 -78 34t-53 65z" />
<glyph unicode="_" horiz-adv-x="1189" d="M0 -141q0 117 102 116h1082q6 -35 6 -65q0 -117 -105 -117h-1079q-6 31 -6 66z" />
<glyph unicode="`" horiz-adv-x="1019" d="M324 1415q-11 27 -12 52q0 35 22 67q37 55 139 78q-14 -20 -14 -47q0 -49 127 -176q96 -96 96 -117q-2 -49 -131 -78l-125 98q-75 60 -102 123z" />
<glyph unicode="a" horiz-adv-x="1087" d="M96 293q0 111 59.5 180.5t147.5 100t178 49t167 48t97 77.5q0 78 -49 120.5t-172 42.5q-147 0 -238 -57t-91 -172q-70 92 -70 176q0 113 120 169t279 56q213 0 327 -90t114 -256v-753q-66 29 -150 28q-49 0 -151.5 -18.5t-161.5 -18.5q-172 0 -289 76t-117 242zM313 293 q0 -72 55.5 -115t163.5 -43q59 0 114.5 12.5t80.5 24.5l25 12v375q-14 -39 -86 -62.5t-150 -35.5t-140.5 -54t-62.5 -114z" />
<glyph unicode="b" horiz-adv-x="1138" d="M135 49v1526q18 0 42 -2t71 -13.5t76.5 -44t29.5 -79.5v-293l-18 -158q10 12 29.5 28.5t96.5 43t171 26.5q166 0 279.5 -93t113.5 -251v-417q0 -168 -120 -257.5t-347 -89.5q-96 0 -225 34t-199 40zM354 184q84 -43 201 -43q141 0 196.5 50.5t55.5 160.5v357 q0 104 -54.5 156.5t-146.5 52.5q-98 0 -175 -54.5t-77 -134.5v-545z" />
<glyph unicode="c" horiz-adv-x="1050" d="M115 326v407q0 166 119.5 258t330.5 92q152 0 266.5 -57t114.5 -170q0 -82 -69 -180q0 115 -82 174t-197 59q-135 0 -199.5 -51t-64.5 -168v-319q0 -115 62.5 -168t197.5 -53q139 0 232.5 60t93.5 159q57 -86 57 -160q0 -109 -117 -171.5t-289 -62.5q-213 0 -334.5 93.5 t-121.5 257.5z" />
<glyph unicode="d" horiz-adv-x="1138" d="M115 322v417q0 158 113.5 251t277.5 93q94 0 169 -23.5t101 -47.5l29 -27q-18 59 -19 158v432q18 0 41 -2t70 -13.5t78 -44t31 -79.5v-1454q-66 29 -156 28q-49 0 -146.5 -17.5t-146.5 -17.5q-211 0 -326.5 90.5t-115.5 256.5zM334 352q0 -111 54 -161t196 -50 q125 0 202 39v549q0 80 -77.5 134.5t-176.5 54.5q-90 0 -144 -52.5t-54 -156.5v-357z" />
<glyph unicode="e" horiz-adv-x="1081" d="M115 326v407q0 166 112.5 258t321.5 92q207 0 316.5 -88t109.5 -241q0 -143 -102.5 -234.5t-325.5 -91.5q-133 0 -213 45v-117q0 -104 58.5 -154t189.5 -50q152 0 249 59t99 160q57 -86 57 -160q0 -109 -116.5 -172.5t-288.5 -63.5q-219 0 -343 93.5t-124 257.5zM334 702 v-67q14 -6 76.5 -17.5t109.5 -11.5q127 0 181.5 38t54.5 110q0 164 -211 164q-119 0 -165 -53.5t-46 -162.5z" />
<glyph unicode="f" horiz-adv-x="727" d="M135 104v1188q0 158 142.5 255.5t332.5 97.5q164 0 274.5 -52.5t110.5 -146.5q0 -74 -77 -146q0 80 -90.5 123t-213.5 43q-109 0 -184.5 -57t-75.5 -156v-233h385q0 -6 -1 -19.5t-8 -43t-19.5 -53t-39 -42t-61.5 -18.5h-256v-858q-8 0 -22.5 1t-53 7t-66.5 17.5 t-52.5 35.5t-24.5 57z" />
<glyph unicode="g" horiz-adv-x="1069" d="M78 211q0 92 104 215q-78 84 -78 225v109q0 166 114 244.5t282 78.5q59 0 161.5 -20.5t151.5 -20.5q76 0 162 37v-428q0 -166 -112.5 -259t-321.5 -93q-168 0 -267 59q-16 -76 -16 -94q0 -74 58.5 -97.5t189.5 -23.5h67q82 0 129.5 -2t115 -17t104 -43t65.5 -85t29 -137 q0 -168 -120 -266.5t-355 -98.5q-199 0 -320 59.5t-121 163.5q0 78 64 164q14 -219 366 -219q268 0 269 186q0 78 -55.5 102.5t-176.5 24.5h-102q-68 0 -117 4.5t-104.5 17.5t-89 37.5t-55 69t-21.5 107.5zM324 684q0 -113 46 -166t171 -53q123 0 170 53t47 166v193 q-111 45 -219 45q-121 0 -168 -44t-47 -149v-45z" />
<glyph unicode="h" horiz-adv-x="1161" d="M135 104v1471q219 0 219 -139v-291q0 -43 -4 -83t-8 -58l-6 -19q10 12 30.5 28.5t96.5 43t170 26.5q168 0 280.5 -90t112.5 -254v-753q-8 0 -23.5 1t-53.5 7t-66.5 17.5t-52 36t-23.5 56.5v605q0 104 -54.5 156.5t-146.5 52.5q-98 0 -175 -54.5t-77 -134.5v-743 q-8 0 -22.5 1t-53 7t-66.5 17.5t-52.5 35.5t-24.5 57z" />
<glyph unicode="i" horiz-adv-x="489" d="M135 104v969q16 0 40 -2t71 -11t77.5 -36t30.5 -70v-968q-8 0 -22.5 1t-53 7t-66.5 17.5t-52.5 35.5t-24.5 57zM135 1298v162h158q18 0 38.5 -16.5t20.5 -36.5v-158h-153q-23 0 -43.5 14.5t-20.5 34.5z" />
<glyph unicode="j" horiz-adv-x="489" d="M-37 -426q86 0 128 97.5t42 207.5v1194q8 0 23.5 -1t53.5 -7t66.5 -17.5t52 -36t23.5 -57.5v-1142q0 -129 -59.5 -220.5t-159.5 -91.5q-88 0 -170 74zM133 1298v162h158q18 0 38.5 -16.5t20.5 -36.5v-158h-153q-23 0 -43.5 14.5t-20.5 34.5z" />
<glyph unicode="k" horiz-adv-x="1056" d="M135 104v1475q8 0 23.5 -1t53.5 -7t66.5 -17.5t52 -36t23.5 -57.5v-778q111 8 181.5 74.5t154.5 222.5q49 94 187 94q51 0 104 -16q-25 -35 -74 -120l-85 -142q-36 -57 -99.5 -114.5t-128.5 -74.5q96 -27 165.5 -79t112.5 -122.5t71 -134t58.5 -142.5t55.5 -122 q-86 -20 -121 -20q-72 0 -115 48t-68.5 119.5t-61.5 146.5t-120 135.5t-217 74.5v-524q-8 0 -22.5 1t-53 7t-66.5 17.5t-52.5 35.5t-24.5 57z" />
<glyph unicode="l" horiz-adv-x="489" d="M125 297v1282q16 0 42 -3t72 -12.5t75.5 -37t29.5 -66.5v-1098q0 -309 150 -309q-59 -68 -150 -67q-106 0 -162.5 89t-56.5 222z" />
<glyph unicode="m" horiz-adv-x="1830" d="M135 104v975q82 -41 154 -41q49 0 153.5 22.5t165.5 22.5q221 0 322 -100q111 100 360 100q172 0 289 -86t117 -254v-757q-8 0 -22.5 1t-53.5 8t-66.5 18.5t-52 36t-24.5 54.5v613q0 199 -213 198q-94 0 -165 -44t-73 -113v-772q-8 0 -23.5 1t-53.5 7t-66.5 17.5t-52 36 t-23.5 56.5v621q0 98 -52.5 143t-174.5 45q-131 0 -226 -39v-888q-8 0 -22.5 1t-53 7t-66.5 17.5t-52.5 35.5t-24.5 57z" />
<glyph unicode="n" horiz-adv-x="1161" d="M135 104v975q74 -39 162 -39q49 0 150.5 21.5t160.5 21.5q178 0 298 -74.5t120 -252.5v-770q-8 0 -23.5 1t-53.5 8t-66.5 18.5t-52 36t-23.5 54.5v621q0 94 -53.5 141t-173.5 47q-59 0 -114.5 -9t-82.5 -19l-29 -8v-891q-8 0 -22.5 1t-53 7t-66.5 17.5t-52.5 35.5 t-24.5 57z" />
<glyph unicode="o" horiz-adv-x="1183" d="M115 326v407q0 168 118.5 259t358 91t358.5 -90t119 -260v-407q0 -170 -119 -260.5t-358.5 -90.5t-358 92.5t-118.5 258.5zM334 356q0 -111 53 -163t204.5 -52t205 52.5t53.5 162.5v346q0 111 -53.5 163t-205 52t-204.5 -52t-53 -163v-346z" />
<glyph unicode="p" horiz-adv-x="1138" d="M135 -375v1454q70 -33 139 -32q47 0 144.5 18t150.5 18q221 0 339 -89t118 -257v-418q0 -156 -113.5 -250t-279.5 -94q-94 0 -168 24t-103 48l-26 27q18 -59 18 -156v-297v-137h-14q-4 0 -30.5 2t-44 6t-44 14.5t-43 25.5t-30 38.5t-13.5 54.5zM354 330q0 -80 77 -134.5 t175 -54.5q92 0 146.5 52.5t54.5 156.5v357q0 111 -55.5 161t-196.5 50q-55 0 -105.5 -9.5t-72.5 -17.5l-23 -10v-551z" />
<glyph unicode="q" horiz-adv-x="1138" d="M115 319v418q0 168 116.5 257t335.5 89q55 0 150.5 -18t142.5 -18q78 0 146 32v-1595h-16q-5 0 -31.5 2t-43 6t-44 14.5t-44 25.5t-29 38.5t-12.5 54.5v293l19 156q-10 -10 -30.5 -27.5t-97.5 -44.5t-171 -27q-164 0 -277.5 94t-113.5 250zM334 350q0 -104 54 -156.5 t144 -52.5q98 0 176 54.5t78 134.5v551q-78 37 -202 37q-141 0 -195.5 -50.5t-54.5 -160.5v-357z" />
<glyph unicode="r" horiz-adv-x="831" d="M135 106v971q76 -37 146 -37q41 0 134 21.5t154 21.5q119 0 192 -44t73 -136q0 -74 -78 -178q0 88 -63.5 134t-160.5 46q-39 0 -84 -7t-67 -17l-27 -7v-888q-8 0 -22.5 1t-53 7t-66.5 17.5t-52.5 36.5t-24.5 58z" />
<glyph unicode="s" horiz-adv-x="1038" d="M74 750q0 338 438 337q186 0 294.5 -52t108.5 -154q0 -80 -71 -179q0 100 -87 152.5t-235 52.5q-121 0 -173 -35.5t-52 -115.5q0 -49 50 -75t124 -30t161 -19.5t160.5 -41t124 -99t50.5 -188.5q0 -156 -115 -242t-340 -86q-193 0 -309.5 55.5t-116.5 162.5q0 84 82 182 q2 -117 97 -170t247 -53q104 0 167.5 40.5t63.5 120.5q0 72 -68.5 101.5t-166.5 37t-197.5 25t-168 84t-68.5 189.5z" />
<glyph unicode="t" horiz-adv-x="897" d="M135 326v958q219 0 219 -184v-80h432q0 -6 -2 -19.5t-9 -43t-19.5 -53t-38 -42t-62.5 -18.5h-301v-459q0 -115 46 -175t161 -60q109 0 183.5 56t74.5 165q74 -92 74 -170q0 -102 -99.5 -164t-258.5 -62q-188 0 -294 93.5t-106 257.5z" />
<glyph unicode="u" horiz-adv-x="1161" d="M135 303v770q8 0 23.5 -1t53.5 -7t66.5 -17.5t52 -36t23.5 -57.5v-620q0 -94 52.5 -141.5t175.5 -47.5q57 0 113.5 9.5t82.5 17.5l29 10v891q8 0 22.5 -1t53.5 -7t66.5 -17.5t52 -36t24.5 -57.5v-972q-76 37 -164 36q-47 0 -148.5 -21.5t-162.5 -21.5q-176 0 -296 75 t-120 253z" />
<glyph unicode="v" horiz-adv-x="1056" d="M53 1073q8 0 22.5 -1t51.5 -7t65.5 -16.5t55 -35t31.5 -57.5l40 -333q10 -84 36 -159t53.5 -123t56.5 -85t45 -53.5t18 -16.5q6 6 18.5 17.5t44.5 52.5t57.5 88t51 122t35.5 157l41 333q6 53 64.5 82t111.5 31l54 4l-45 -409q-14 -133 -64.5 -255t-109 -201t-120 -138.5 t-97 -84t-42.5 -26.5q-10 6 -42.5 27.5t-97 83t-122 138.5t-108.5 199.5t-64 256.5z" />
<glyph unicode="w" horiz-adv-x="1665" d="M53 1073q123 0 187 -51q37 -27 41 -68l41 -331q16 -133 68 -242t97 -152l43 -43q16 10 45 30t88.5 83t88.5 131q-47 139 -47 334q0 92 21.5 152.5t61 87t70.5 35t74 10.5q-20 -147 -21 -281q0 -68 6.5 -132.5t18.5 -112.5t26.5 -91t34 -76.5t36 -58.5t34.5 -45.5 t30.5 -31.5t26 -21.5t15.5 -12.5q180 195 209 437l41 331q12 102 194 117l31 2l-41 -409q-14 -135 -64.5 -257t-110 -200t-119.5 -136.5t-98 -84t-42 -25.5q-6 4 -19.5 10t-51.5 31t-72.5 53.5t-79 77.5t-76.5 100q-111 -166 -299 -266l-13 -6q-14 8 -40.5 25.5t-95 82 t-123 139.5t-106.5 197.5t-67 258.5q-4 47 -12 129l-15 151q-8 70 -16 129z" />
<glyph unicode="x" horiz-adv-x="987" d="M8 -4q35 43 99 149l145 248q51 86 102 133q-57 66 -102 140l-152 258q-63 102 -92 139q66 10 103 10q133 0 198 -106l185 -303l182 303q66 106 198 106l103 -10q-29 -37 -92 -139l-152 -258q-18 -33 -45 -68l-41 -53l-16 -19q53 -47 102 -133l146 -248q63 -106 98 -149 q-63 -10 -103 -10q-141 0 -202 106l-178 307l-181 -307q-61 -106 -202 -106z" />
<glyph unicode="y" horiz-adv-x="1077" d="M74 1073q115 0 176 -51q23 -18 33 -43q12 -31 22 -80t14.5 -86l12.5 -103.5t10 -86.5q14 -113 66.5 -208.5t97.5 -131.5l43 -39q6 6 19.5 16t45 46t59 76t52.5 105.5t33 135.5l37 270q8 61 38.5 102t74.5 55.5t70 18.5t50 4q-8 -59 -15 -128.5t-16.5 -151.5t-13.5 -129 q-20 -186 -113.5 -333t-205.5 -235l-80 -63q-86 -63 -129 -103.5t-79 -101.5t-36 -129q0 -94 47 -186q-43 -20 -80 -21q-72 0 -127 52.5t-55 168.5q0 127 75.5 222.5t215.5 195.5q-100 55 -190.5 203.5t-108.5 329.5q-4 47 -13 129l-15 151q-7 70 -15 129z" />
<glyph unicode="z" horiz-adv-x="960" d="M59 74q0 94 47.5 180t122 159.5t153.5 142.5t155.5 156t113.5 171h-567q0 8 1 20t7 42t18.5 53.5t40 42t62.5 18.5h698q-8 -27 -20 -85.5t-21 -84.5q-31 -109 -115.5 -217.5t-170.5 -183t-172 -161.5t-115 -151h623q0 -6 -1 -19.5t-8.5 -43t-19.5 -53t-39 -42t-64 -18.5 h-720q-9 37 -9 74z" />
<glyph unicode="{" horiz-adv-x="546" d="M31 567q12 6 32.5 20.5t53.5 67t33 117.5v565q0 104 51 166t127 62q98 0 188 -103q-88 0 -119.5 -51t-31.5 -149v-500q0 -29 -7.5 -57.5t-16.5 -46t-25.5 -36t-25.5 -25.5l-26 -19l-16 -15q117 -74 117 -192v-500q0 -98 31.5 -149.5t119.5 -51.5q-88 -102 -188 -102 q-76 0 -127 61.5t-51 165.5v563q0 31 -12.5 63t-29 57.5t-34 45t-31.5 31.5z" />
<glyph unicode="|" horiz-adv-x="532" d="M156 1581q10 0 24.5 -1t53 -7t66.5 -17.5t52.5 -36t24.5 -57.5v-1968q-8 0 -23.5 1t-53.5 7t-66.5 18.5t-53 36t-24.5 56.5v1968z" />
<glyph unicode="}" horiz-adv-x="546" d="M31 -330q88 0 118.5 51.5t30.5 149.5v500q0 119 117 192l-16 15q-14 12 -24.5 19t-27 25.5t-25.5 36t-16.5 46t-7.5 57.5v500q0 98 -30.5 149t-118.5 51q90 102 188 103q76 0 127 -61.5t51 -166.5v-565q0 -55 34 -113.5t85 -91.5l-6 -4q-6 -6 -16 -15l-25 -22 q-14 -12 -26.5 -29.5t-22.5 -38t-16.5 -46t-6.5 -54.5v-563q0 -104 -51 -165.5t-127 -61.5q-100 0 -188 102z" />
<glyph unicode="~" horiz-adv-x="1349" d="M74 737q0 72 54 113t161 41q113 0 390 -55.5t394 -55.5q131 0 193 78q10 -78 10 -86q0 -170 -213 -170q-113 0 -389.5 54.5t-392.5 54.5q-131 0 -193 -74q-14 51 -14 100z" />
<glyph unicode="&#xa2;" horiz-adv-x="1071" d="M115 328v405q0 160 103.5 251t299.5 99v117q6 0 14.5 -1t31 -6t40 -14.5t30.5 -31t13 -49.5v-21q129 -14 212 -69.5t83 -153.5q0 -84 -68 -178q0 96 -60 152.5t-167 74.5v-743q123 12 197 68.5t76 144.5q57 -90 57 -164q0 -94 -92 -154.5t-238 -72.5v-127q-6 0 -14 1 t-29.5 6t-40 14t-32 30.5t-13.5 52.5v21q-188 12 -295.5 104t-107.5 244zM334 371q0 -100 43 -152.5t141 -62.5v751q-102 -6 -143 -56t-41 -159v-321z" />
<glyph unicode="&#xa3;" horiz-adv-x="1304" d="M156 49q29 113 28 189v993q0 160 128 255t327 95q385 0 385 -195q0 -74 -78 -167q-6 104 -79.5 146t-227.5 42q-227 0 -227 -209v-250h387q0 -6 -1 -18t-9.5 -43t-20.5 -53.5t-39 -42t-63 -19.5h-254v-475l-11 -123q209 -61 416 -61q117 0 216.5 68.5t115.5 195.5 q59 -96 59 -176q0 -131 -110.5 -203t-266.5 -72q-49 0 -97 3t-85 6.5t-88 14.5t-78.5 15t-85 19.5t-75 19.5t-84 22.5t-82.5 22.5z" />
<glyph unicode="&#xa5;" horiz-adv-x="1304" d="M31 1477q51 12 94 12q147 0 213 -127q27 -51 94.5 -192.5t115.5 -226.5t97 -140q31 37 62.5 84t67.5 112.5t56 108.5l63 133q42 90 58 121q33 70 94.5 98.5t118.5 28.5l95 -12q-33 -53 -175.5 -346t-253.5 -426h197q6 -25 6 -54q0 -109 -100 -108h-176v-166h270 q6 -27 6 -53q0 -109 -100 -109h-176v-235q-8 0 -23.5 1t-55.5 7t-68.5 17t-54.5 37t-26 58v115h-260q-8 23 -8 53q0 45 24.5 77t75.5 32h168v166h-260q-8 23 -8 53q0 45 24.5 77t75.5 32h95q-111 133 -248 422t-178 350z" />
<glyph unicode="&#xa8;" horiz-adv-x="1019" d="M289 1300v160h153q23 0 40.5 -16.5t17.5 -36.5v-158h-152q-25 0 -42 15.5t-17 35.5zM633 1300v160h155q23 0 39.5 -16.5t16.5 -36.5v-158h-150q-27 0 -44 15.5t-17 35.5z" />
<glyph unicode="&#xa9;" horiz-adv-x="1730" d="M135 473v549q0 229 196.5 361.5t532.5 132.5t533.5 -132.5t197.5 -361.5v-549q0 -231 -197.5 -362t-533.5 -131t-532.5 131t-196.5 362zM324 541q0 -201 119.5 -303.5t416.5 -102.5q303 0 424 102.5t121 303.5v411q0 201 -121 303.5t-424 102.5q-297 0 -416.5 -102.5 t-119.5 -303.5v-411zM489 590v321q0 295 388 295q152 0 248 -43t96 -125q0 -49 -50 -120q-45 135 -294 135q-45 0 -74 -4.5t-58.5 -19.5t-43 -50t-13.5 -88v-279q0 -57 13.5 -91t43 -50t58 -20.5t74.5 -4.5q113 0 189.5 29t102.5 111q45 -76 45 -127q0 -82 -95 -124 t-242 -42q-388 0 -388 297z" />
<glyph unicode="&#xab;" horiz-adv-x="1359" d="M172 418q-54 54 -54 108q0 55 56 111l420 420q98 -66 98 -123q0 -45 -78 -117l-286 -291l395 -395q-12 -29 -53 -59.5t-80 -30.5q-49 0 -123 82zM651 418q-54 54 -54 108q0 55 56 111l420 420q98 -66 98 -123q0 -45 -77 -117l-285 -291l395 -395q-14 -29 -54 -59.5 t-81 -30.5q-47 0 -121 82z" />
<glyph unicode="&#xad;" horiz-adv-x="1030" d="M137 509q0 30 6.5 53.5t29 42t56.5 18.5h660q2 -6 4 -18.5t2 -43.5t-8 -53.5t-29.5 -42t-56.5 -19.5h-660q-2 6 -3 19.5t-1 43.5z" />
<glyph unicode="&#xae;" horiz-adv-x="1046" d="M94 1184q0 139 116 216t312 77q199 0 314.5 -78t115.5 -215v-330q0 -137 -116.5 -216t-313 -79t-312.5 79t-116 216v330zM225 889q0 -217 293 -217q299 0 299 217v256q0 219 -299 219q-293 0 -293 -219v-256zM342 1278h145q217 0 218 -164q0 -51 -32 -96t-79 -55 q94 -41 131 -183q-43 -14 -84 -14q-29 0 -48.5 30.5t-48 71.5t-73.5 58v-162h-15q-9 0 -31 4t-38 11t-30.5 19.5t-14.5 30.5v449zM471 1032h29q82 0 82 82q0 74 -82 74h-29v-156z" />
<glyph unicode="&#xb4;" horiz-adv-x="1019" d="M281 1272q0 20 96 117q125 127 125 176q0 27 -13 47q102 -23 139 -78q21 -32 20 -66q0 -26 -11 -53q-27 -63 -102 -123l-125 -98q-129 27 -129 78z" />
<glyph unicode="&#xb8;" horiz-adv-x="1738" d="M451 -227l12 45q16 53 82 243q39 0 70.5 -17t31.5 -56v-6q-6 -25 -14 -80h12q94 0 155.5 -55.5t61.5 -145.5t-68.5 -143.5t-162.5 -53.5q-86 0 -132 47.5t-46 96.5q51 -27 120 -27q51 0 86 21.5t35 66.5q0 86 -129 86q-23 0 -51 -6l-47 -10z" />
<glyph unicode="&#xbb;" horiz-adv-x="1359" d="M156 131l395 395l-340 342q-29 31 -29 64q0 59 105 125l420 -420q55 -55 55 -109.5t-53 -109.5l-355 -352q-27 -29 -61 -29q-41 0 -77.5 28.5t-59.5 65.5zM637 131l395 395l-340 342q-31 31 -30 64q0 59 104 125l420 -420q57 -55 57 -109.5t-55 -109.5l-352 -352 q-27 -29 -64 -29q-39 0 -77 28.5t-58 65.5z" />
<glyph unicode="&#x2c6;" horiz-adv-x="1019" d="M250 1335q0 86 287 277q287 -190 286.5 -276.5t-147.5 -137.5q12 23 12 39q0 20 -11 45t-31.5 49.5t-36 41t-41.5 40.5l-31 31l-31 -31l-41 -41q-16 -16 -36.5 -40.5t-31 -49.5t-10.5 -45q0 -16 10 -39q-147 51 -147 137z" />
<glyph unicode="&#x2da;" horiz-adv-x="710" d="M164 1319v121q0 57 53 91t140 34t139.5 -34t52.5 -91v-121q0 -61 -51.5 -94t-140.5 -33t-141 33t-52 94zM274 1346q0 -33 15.5 -48.5t64.5 -15.5t67.5 16.5t18.5 47.5v67q0 61 -86 62q-49 0 -64.5 -15.5t-15.5 -46.5v-67z" />
<glyph unicode="&#x2dc;" horiz-adv-x="811" d="M104 1333q0 61 34 100.5t98 39.5q55 0 175.5 -47.5t184.5 -47.5q66 0 104 54q16 -45 17 -84q0 -133 -131 -134q-57 0 -178 47.5t-184.5 47.5t-104.5 -54q-15 35 -15 78z" />
<glyph unicode="&#x3c0;" horiz-adv-x="2324" d="M41 473q0 150 57.5 286t177 227t273.5 91q6 0 15 -1t16 -1q-45 -78 -45 -139q0 -63 49 -115.5t118 -91.5l140 -82q70 -43 119 -109.5t49 -152.5q0 -102 -63.5 -163.5t-148.5 -61.5t-149 57q2 -14 2 -43q-8 -84 -76.5 -143.5t-154.5 -59.5q-182 0 -280.5 150.5 t-98.5 351.5zM690 137q68 -59 148 -59q119 0 187.5 105.5t68.5 267.5v163q0 203 88 338t248 135q205 0 215 -163q-70 59 -150 59q-119 0 -187.5 -105.5t-68.5 -267.5v-164q0 -203 -88 -338t-246 -135q-205 0 -215 164zM1317 684q0 102 62.5 163.5t147.5 61.5t148 -59 q-2 14 -2 45q8 82 77 142.5t155 60.5q182 0 280.5 -150.5t98.5 -351.5q0 -152 -57.5 -287t-177.5 -227t-273 -92q-6 0 -15.5 1t-13.5 1q43 80 43 139q0 63 -49 115.5t-118 92.5l-138 82q-70 42 -119 109.5t-49 153.5z" />
<glyph unicode="&#x410;" horiz-adv-x="1366" d="M0 0q35 57 131 360l174 547q131 418 375 609l4 4l10 -13q12 -8 26 -21l35 -34q22 -20 45 -49l50 -64.5t54.5 -81t54 -96.5t53 -117.5t49.5 -136.5l174 -547q96 -303 131 -360q-43 -14 -86 -14q-51 0 -93 21.5t-67.5 48t-51.5 82t-35 84t-29 97.5l-39 123h-564l-39 -123 q-20 -70 -29 -98t-35 -83.5t-51.5 -82t-67.5 -48t-93 -21.5q-18 0 -39.5 3t-34.5 7zM453 621h460l-69 231q-31 102 -71 196.5t-64 137.5l-25 45q-80 -104 -162 -379z" />
<glyph unicode="&#x412;" horiz-adv-x="1267" d="M156 119v1358h456q520 0 521 -365v-59q0 -100 -47.5 -185.5t-122.5 -119.5q86 -37 138 -124t52 -192v-55q0 -190 -144.5 -283.5t-396.5 -93.5h-258q-8 0 -21.5 1t-47 7t-59 17.5t-48 36t-22.5 57.5zM385 176h227q164 0 239 53.5t75 178.5q0 252 -297 251h-244v-483z M385 836h244q147 0 211.5 60t64.5 187q0 123 -69.5 170t-223.5 47h-227v-464z" />
<glyph unicode="&#x415;" horiz-adv-x="1212" d="M156 119v1358h974q0 -6 -1 -18.5t-8 -43.5t-19 -53.5t-39 -42t-64 -19.5h-614v-417h455q72 0 124 9t68 17l15 9q0 -209 -175 -209h-487v-533h745q0 -12 -3 -33.5t-13 -58.5t-41 -60.5t-74 -23.5h-643q-8 0 -21 1t-48 7t-60.5 17.5t-48 36t-22.5 57.5z" />
<glyph unicode="&#x41a;" horiz-adv-x="1294" d="M156 98v1399q10 0 25.5 -1t55 -7t68.5 -17.5t54.5 -35t25.5 -58.5v-508q174 25 294 144t255 360q70 127 217 127l94 -12q-31 -47 -84 -144l-97 -171q-44 -74 -103.5 -157t-134 -140.5t-158.5 -81.5q94 -23 180 -91.5t152.5 -167t117.5 -192.5l105 -198q53 -103 86 -148 q-55 -14 -95 -14q-168 0 -237 127l-54 102q-40 76 -56.5 104.5l-56.5 93t-64.5 93t-68.5 74t-85 67t-94.5 43t-112.5 29.5v-737q-8 0 -24.5 1t-55.5 7t-68.5 17t-55 35.5t-25.5 57.5z" />
<glyph unicode="&#x41c;" horiz-adv-x="1708" d="M156 98v1379h153q125 0 178 -113l363 -780l430 893q272 0 272 -119v-1378q-8 0 -24.5 1t-55 7t-68.5 17t-54.5 36t-24.5 57v838l16 203l-421 -863q-14 0 -39 3.5t-80.5 33t-87.5 82.5l-344 738q16 -104 16 -197v-956q-8 0 -24.5 1t-55.5 7t-68.5 17t-55 35.5t-25.5 57.5z " />
<glyph unicode="&#x41d;" horiz-adv-x="1503" d="M156 98v1399q10 0 25.5 -1t55 -7t68.5 -17.5t54.5 -35t25.5 -58.5v-534h735v653q8 0 23.5 -1t55.5 -7t68.5 -17.5t54.5 -35t26 -58.5v-1398q-8 0 -23.5 1t-55.5 7t-70 17t-54.5 36t-24.5 57v568h-735v-686q-8 0 -24.5 1t-55.5 7t-68.5 17t-55 35.5t-25.5 57.5z" />
<glyph unicode="&#x41e;" d="M135 453v571q0 229 149.5 353t452.5 124t453.5 -124t150.5 -353v-571q0 -229 -150.5 -353.5t-453.5 -124.5t-452.5 124.5t-149.5 353.5zM362 481q0 -170 77 -250.5t296 -80.5q223 0 301 79.5t78 251.5v516q0 170 -78 250t-301 80q-219 0 -296 -81t-77 -249v-516z" />
<glyph unicode="&#x420;" horiz-adv-x="1243" d="M156 98v1379h393q133 0 232.5 -20.5t188.5 -71t136 -146.5t47 -235v-39q0 -475 -604 -476h-164v-509q-8 0 -24.5 1t-55.5 7t-68.5 17t-55 35.5t-25.5 57.5zM385 664h164q190 0 283.5 64.5t93.5 254.5q0 182 -96.5 249.5t-280.5 67.5h-164v-636z" />
<glyph unicode="&#x421;" horiz-adv-x="1419" d="M135 473v533q0 133 48 231t134 154.5t190.5 83t229.5 26.5q152 0 272.5 -26.5t203.5 -94t83 -168.5q0 -68 -47 -149q-16 125 -168.5 189.5t-343.5 64.5q-375 0 -375 -342v-471q0 -342 375 -342q125 0 227.5 20.5t186.5 78.5t98 153q51 -88 51 -168q0 -72 -48 -127.5 t-133 -85t-180 -44t-202 -14.5q-125 0 -229.5 27t-190.5 83t-134 154.5t-48 233.5z" />
<glyph unicode="&#x422;" horiz-adv-x="1173" d="M4 1509q55 -33 205 -32h754q68 0 119 8t69 16l18 8q0 -209 -172 -209h-299v-1320q-8 0 -24.5 1t-55 7t-68.5 17t-54.5 36t-24.5 57v1202h-295q-172 0 -172 209z" />
<glyph unicode="&#x425;" horiz-adv-x="1241" d="M4 -8q43 70 121 223.5t161 287.5t175 228q-92 102 -175 240.5t-158 286t-122 217.5q51 12 94 12q143 0 213 -127l111 -208q35 -67 89 -149.5t108 -138.5q16 16 31.5 37t29.5 37t32 44l27 43q10 15 31 50l29 48q8 13 29 56l29 55l34 62l35 64q70 127 213 127l94 -12 q-20 -31 -174 -319t-281 -425q94 -94 176 -228t160 -288t123 -223q-51 -12 -94 -12q-143 0 -213 126l-103 189q-33 59 -91 149.5t-117 155.5q-59 -66 -119 -159t-87 -144l-104 -191q-70 -127 -213 -126z" />
<glyph unicode="&#x430;" horiz-adv-x="1087" d="M96 293q0 111 59.5 180.5t147.5 100t178 49t167 48t97 77.5q0 78 -49 120.5t-172 42.5q-147 0 -238 -57t-91 -172q-70 92 -70 176q0 113 120 169t279 56q213 0 327 -90t114 -256v-753q-66 29 -150 28q-49 0 -151.5 -18.5t-161.5 -18.5q-172 0 -289 76t-117 242zM313 293 q0 -72 55.5 -115t163.5 -43q59 0 114.5 12.5t80.5 24.5l25 12v375q-14 -39 -86 -62.5t-150 -35.5t-140.5 -54t-62.5 -114z" />
<glyph unicode="&#x435;" horiz-adv-x="1081" d="M115 326v407q0 166 112.5 258t321.5 92q207 0 316.5 -88t109.5 -241q0 -143 -102.5 -234.5t-325.5 -91.5q-133 0 -213 45v-117q0 -104 58.5 -154t189.5 -50q152 0 249 59t99 160q57 -86 57 -160q0 -109 -116.5 -172.5t-288.5 -63.5q-219 0 -343 93.5t-124 257.5zM334 635 q14 -6 76.5 -17.5t109.5 -11.5q127 0 181.5 38t54.5 110q0 164 -211 164q-119 0 -165 -53.5t-46 -162.5v-67z" />
<glyph unicode="&#x43e;" horiz-adv-x="1183" d="M115 326v407q0 168 118.5 259t358 91t358.5 -90t119 -260v-407q0 -170 -119 -260.5t-358.5 -90.5t-358 92.5t-118.5 258.5zM334 356q0 -111 53 -163t204.5 -52t205 52.5t53.5 162.5v346q0 111 -53.5 163.5t-205 52.5t-204.5 -52.5t-53 -163.5v-346z" />
<glyph unicode="&#x43f;" horiz-adv-x="2324" d="M41 473q0 150 57.5 286t177 227t273.5 91q6 0 15 -1t16 -1q-45 -78 -45 -139q0 -63 49 -115.5t118 -91.5l140 -82q70 -43 119 -109.5t49 -152.5q0 -102 -63.5 -163.5t-148.5 -61.5t-149 57q2 -14 2 -43q-8 -84 -76.5 -143.5t-154.5 -59.5q-182 0 -280.5 150.5 t-98.5 351.5zM690 137q68 -59 148 -59q119 0 187.5 105.5t68.5 267.5v163q0 203 88 338t248 135q205 0 215 -163q-70 59 -150 59q-119 0 -187.5 -105.5t-68.5 -267.5v-164q0 -203 -88 -338t-246 -135q-205 0 -215 164zM1317 684q0 102 62.5 163.5t147.5 61.5t148 -59 q-2 14 -2 45q8 82 77 142.5t155 60.5q182 0 280.5 -150.5t98.5 -351.5q0 -152 -57.5 -287t-177.5 -227t-273 -92q-6 0 -15.5 1t-13.5 1q43 80 43 139q0 63 -49 115.5t-118 92.5l-138 82q-70 42 -119 109.5t-49 153.5z" />
<glyph unicode="&#x440;" horiz-adv-x="1138" d="M135 -375v1454q70 -33 139 -32q47 0 144.5 18t150.5 18q221 0 339 -89t118 -257v-418q0 -156 -113.5 -250t-279.5 -94q-94 0 -168 24t-103 48l-26 27q18 -59 18 -156v-297v-137h-14q-4 0 -30.5 2t-44 6t-44 14.5t-43 25.5t-30 38.5t-13.5 54.5zM354 330q0 -80 77 -134.5 t175 -54.5q92 0 146.5 52.5t54.5 156.5v357q0 111 -55.5 161t-196.5 50q-55 0 -105.5 -9.5t-72.5 -17.5l-23 -10v-551z" />
<glyph unicode="&#x441;" horiz-adv-x="1050" d="M115 326v407q0 166 119.5 258t330.5 92q152 0 266.5 -57t114.5 -170q0 -82 -69 -180q0 115 -82 174t-197 59q-135 0 -199.5 -51t-64.5 -168v-319q0 -115 62.5 -168t197.5 -53q139 0 232.5 60t93.5 159q57 -86 57 -160q0 -109 -117 -171.5t-289 -62.5q-213 0 -334.5 93.5 t-121.5 257.5z" />
<glyph unicode="&#x443;" horiz-adv-x="1077" d="M74 1073q115 0 176 -51q23 -18 33 -43q12 -31 22 -80t14.5 -86l12.5 -103.5t10 -86.5q14 -113 66.5 -208.5t97.5 -131.5l43 -39q6 6 19.5 16t45 46t59 76t52.5 105.5t33 135.5l37 270q8 61 38.5 102t74.5 55.5t70 18.5t50 4q-8 -59 -15 -129t-16.5 -151.5t-13.5 -128.5 q-20 -186 -113.5 -333t-205.5 -235l-80 -63q-86 -63 -129 -103.5t-79 -101.5t-36 -129q0 -94 47 -186q-43 -20 -80 -21q-72 0 -127 52.5t-55 168.5q0 127 75.5 222.5t215.5 195.5q-100 55 -190.5 203.5t-108.5 329.5q-4 47 -13 129l-15 151q-7 70 -15 129z" />
<glyph unicode="&#x445;" horiz-adv-x="987" d="M8 -4q35 43 98 149l146 248q51 86 102 133q-57 66 -102 140l-152 258q-63 102 -92 139q66 10 103 10q133 0 198 -106l185 -303l182 303q66 106 198 106l103 -10q-29 -37 -92 -139l-152 -258q-18 -33 -45 -68l-41 -53l-16 -19q53 -47 102 -133l146 -248q63 -106 98 -149 q-63 -10 -103 -10q-141 0 -202 106l-178 307l-181 -307q-61 -106 -202 -106z" />
<glyph unicode="&#x2010;" horiz-adv-x="1030" d="M137 509q0 30 6.5 53.5t29 42t56.5 18.5h660q2 -6 4 -18.5t2 -43.5t-8 -53.5t-29.5 -42t-56.5 -19.5h-660q-2 6 -3 19.5t-1 43.5z" />
<glyph unicode="&#x2011;" horiz-adv-x="1030" d="M137 509q0 30 6.5 53.5t29 42t56.5 18.5h660q2 -6 4 -18.5t2 -43.5t-8 -53.5t-29.5 -42t-56.5 -19.5h-660q-2 6 -3 19.5t-1 43.5z" />
<glyph unicode="&#x2012;" horiz-adv-x="1030" d="M137 509q0 30 6.5 53.5t29 42t56.5 18.5h660q2 -6 4 -18.5t2 -43.5t-8 -53.5t-29.5 -42t-56.5 -19.5h-660q-2 6 -3 19.5t-1 43.5z" />
<glyph unicode="&#x2013;" horiz-adv-x="1499" d="M55 498q0 127 99 127h1286q6 -27 6 -60q0 -123 -100 -123h-1287q-4 23 -4 56z" />
<glyph unicode="&#x2014;" horiz-adv-x="1701" d="M55 498q0 127 99 127h1488q6 -27 7 -60q0 -123 -101 -123h-1489q-4 23 -4 56z" />
<glyph unicode="&#x2018;" horiz-adv-x="505" d="M139 1073v123q0 281 168 281q68 0 113 -35q-63 -16 -82 -82q-11 -39 -11 -82q0 -28 5 -57l37 -207h-164q-27 0 -46.5 16t-19.5 43z" />
<glyph unicode="&#x2019;" horiz-adv-x="505" d="M88 1049q45 10 69 54q22 41 21 81q0 13 -4 86l-35 207h60h104q27 0 46.5 -16.5t19.5 -43.5v-125q0 -279 -168 -278q-68 0 -113 35z" />
<glyph unicode="&#x201a;" horiz-adv-x="505" d="M88 -205q45 10 69 54q22 41 21 81q0 13 -4 86l-35 207h60h104q27 0 46.5 -16.5t19.5 -42.5v-125q0 -279 -168 -279q-68 0 -113 35z" />
<glyph unicode="&#x201c;" horiz-adv-x="851" d="M139 1073v123q0 281 168 281q68 0 113 -35q-63 -16 -82 -82q-11 -39 -11 -82q0 -28 5 -57l37 -207h-60h-104q-27 0 -46.5 16t-19.5 43zM485 1073v123q0 281 166 281q68 0 113 -35q-61 -16 -81 -82q-12 -40 -12 -84q0 -27 5 -55l37 -207h-60h-104q-27 0 -45.5 16t-18.5 43 z" />
<glyph unicode="&#x201d;" horiz-adv-x="851" d="M88 1049q45 10 69 54q22 41 21 81q0 13 -4 86l-35 207h60h104q27 0 46.5 -16.5t19.5 -43.5v-125q0 -279 -168 -278q-68 0 -113 35zM432 1049q47 10 70 54q21 40 20 81q0 14 -4 86l-33 207h58h104q27 0 46.5 -16.5t19.5 -43.5v-125q0 -279 -168 -278q-66 0 -113 35z" />
<glyph unicode="&#x201e;" horiz-adv-x="851" d="M88 -205q45 10 69 54q22 41 21 81q0 13 -4 86l-35 207h60h104q27 0 46.5 -16.5t19.5 -42.5v-125q0 -279 -168 -279q-68 0 -113 35zM432 -205q47 10 70 54q21 40 20 81q0 14 -4 86l-33 207h58h104q27 0 46.5 -16.5t19.5 -42.5v-125q0 -279 -168 -279q-66 0 -113 35z" />
<glyph unicode="&#x2026;" horiz-adv-x="1486" d="M154 53v170h157q23 0 42.5 -16.5t19.5 -34.5v-172h-156q-25 0 -44 15t-19 38zM651 53v170h158q23 0 40 -16.5t17 -34.5v-172h-153q-25 0 -43.5 15t-18.5 38zM1147 53v170h156q25 0 43 -16.5t18 -34.5v-172h-154q-27 0 -45 15t-18 38z" />
<glyph unicode="&#x2039;" horiz-adv-x="878" d="M172 418q-54 54 -54 108q0 55 56 111l420 420q98 -66 98 -123q0 -45 -78 -117l-286 -291l395 -395q-12 -29 -53 -59.5t-80 -30.5q-49 0 -123 82z" />
<glyph unicode="&#x203a;" horiz-adv-x="878" d="M156 131l395 395l-340 342q-29 31 -29 64q0 59 105 125l420 -420q55 -55 55 -109.5t-53 -109.5l-355 -352q-27 -29 -61 -29q-41 0 -77.5 28.5t-59.5 65.5z" />
<glyph unicode="&#x20ac;" horiz-adv-x="1304" d="M135 473v533q0 258 160 376.5t422 118.5q150 0 274.5 -62.5t124.5 -174.5q0 -82 -69 -181q0 109 -104.5 171.5t-225.5 62.5q-176 0 -265.5 -78t-89.5 -264v-6h666q0 -6 -1 -17.5t-10 -41t-26.5 -51t-52.5 -39t-84 -17.5h-492v-144h541q0 -6 -1 -17t-11 -40t-26.5 -50.5 t-52.5 -38.5t-83 -17h-367q2 -182 91.5 -258t263.5 -76q156 0 261 58.5t105 156.5q59 -86 60 -160q0 -109 -126 -175.5t-300 -66.5q-262 0 -422 119t-160 379z" />
<glyph unicode="&#x2122;" horiz-adv-x="2220" d="M94 1249v228h811v-228q0 -33 -37 -58.5t-71 -33.5l-37 -6v186h-166v-673q-8 0 -21.5 1t-45 5t-57.5 13t-46.5 27.5t-20.5 43.5v583h-163v-186q-6 0 -15.5 2t-34 10t-45 17.5t-36 29t-15.5 39.5zM1055 754v723h114h4q4 0 15 -2l21 -5q11 -2 25.5 -8t28 -14t29 -20.5 t25.5 -30.5l244 -381l297 461h55q6 0 17 -1t36 -5.5t44.5 -12.5t36.5 -26.5t17 -45.5v-722q-8 0 -21 1t-45 5t-57.5 13t-46 27.5t-20.5 43.5v329q0 39 4 97l-256 -387q-129 2 -180 79l-199 295q0 -14 1 -41.5t1 -46.5v-415q-8 0 -20.5 1t-45 5t-57 13t-46 27.5t-21.5 43.5z " />
<glyph unicode="&#xe000;" horiz-adv-x="1075" d="M0 1075h1075v-1075h-1075v1075z" />
<glyph horiz-adv-x="583" />
</font>
</defs>
</svg>
