<?xml version="1.0" standalone="no"?>
<!DOCTYPE svg PUBLIC "-//W3C//DTD SVG 1.1//EN" "http://www.w3.org/Graphics/SVG/1.1/DTD/svg11.dtd" >
<svg xmlns="http://www.w3.org/2000/svg">
<metadata>
This is a custom SVG webfont generated by Font Squirrel.
Copyright   : Generated in 2009 by FontLab Studio Copyright info pending
</metadata>
<defs>
<font id="junctionregularRegular" horiz-adv-x="1187" >
<font-face units-per-em="2048" ascent="1536" descent="-512" />
<missing-glyph horiz-adv-x="499" />
<glyph unicode=" "  horiz-adv-x="499" />
<glyph unicode="&#x09;" horiz-adv-x="499" />
<glyph unicode="&#xa0;" horiz-adv-x="499" />
<glyph unicode="!" horiz-adv-x="540" d="M164 95q0 46 30.5 76t76.5 30t76 -30t30 -76t-30 -77.5t-76 -31.5t-76.5 31.5t-30.5 77.5zM182 1579h178l-24 -1225h-127z" />
<glyph unicode="&#x22;" horiz-adv-x="727" d="M86 1377q0 46 30.5 76t78.5 30q57 0 86.5 -47t29.5 -111q-2 -139 -141 -313l-82 28q96 119 115 228q-53 0 -85 31.5t-32 77.5zM416 1377q0 46 30.5 76t77.5 30q55 0 86 -47t31 -111q-2 -139 -143 -313l-80 28q96 119 112 228q-51 0 -82.5 31.5t-31.5 77.5z" />
<glyph unicode="#" horiz-adv-x="1587" d="M78 461l33 137h317l82 342h-328l33 137h330l100 406h141l-98 -406h338l100 406h142l-99 -406h342l-32 -137h-344l-84 -342h354l-33 -137h-356l-111 -461h-143l112 461h-339l-111 -461h-143l112 461h-315zM569 598h340l82 342h-338z" />
<glyph unicode="$" horiz-adv-x="1259" d="M111 264l116 111q123 -199 365 -236v570q-74 23 -122 41t-105.5 51t-90 70.5t-55 94t-22.5 128.5q0 111 38.5 191.5t102 124.5t126 64.5t128.5 26.5v119h123v-121q244 -23 387 -174l-121 -104q-98 102 -266 122v-503q102 -33 165.5 -59.5t136.5 -77t109.5 -125 t36.5 -172.5q0 -193 -130 -303.5t-318 -120.5v-113h-123v115q-317 36 -481 280zM358 1094q0 -82 60.5 -131.5t173.5 -83.5v467q-94 -14 -164 -71.5t-70 -180.5zM715 135q121 10 203.5 81t82.5 190q0 106 -74.5 163.5t-211.5 100.5v-535z" />
<glyph unicode="%" horiz-adv-x="1941" d="M115 1096.5q0 111.5 32.5 193.5t88 126t116 63.5t127.5 19.5q70 0 130.5 -19.5t116.5 -63.5t88 -127t32 -195q-2 -213 -109.5 -307.5t-255.5 -94.5q-68 0 -128 20.5t-116.5 63.5t-89 126t-32.5 194.5zM260 1098q0 -158 65.5 -227.5t155.5 -69.5t153.5 68.5t65.5 224.5 q0 160 -64.5 229.5t-156.5 69.5q-90 -2 -154.5 -70.5t-64.5 -224.5zM330 -90l1116 1657h166l-1116 -1657h-166zM1098 391q2 213 107.5 307.5t254.5 96.5q70 0 131.5 -20.5t116.5 -63.5t87 -127t32 -197q-2 -213 -108.5 -307t-256.5 -94q-66 0 -127 20.5t-116.5 63.5 t-88 125.5t-32.5 195.5zM1243 387q0 -156 64.5 -224.5t155.5 -68.5t154.5 68.5t65.5 224.5q0 158 -63.5 228.5t-155.5 72.5q-90 0 -155.5 -70.5t-65.5 -230.5z" />
<glyph unicode="&#x26;" horiz-adv-x="1693" d="M115 385q0 141 90 238.5t252 189.5q-98 106 -148.5 189t-50.5 165q0 86 36 149.5t97.5 98.5t130 51.5t144.5 16.5q168 0 284.5 -76t116.5 -240q0 -115 -96.5 -198.5t-278.5 -175.5l355 -379q29 45 55 96l64 130q38 79 53 105l118 -73q-152 -303 -188 -365 q168 -164 197 -164h2q35 0 50 3.5t38.5 29t48.5 76.5l104 -62q-33 -74 -62.5 -116.5t-63 -59t-53 -20.5t-62.5 -4h-5q-70 0 -282 194q-174 -199 -463 -198q-55 0 -131 22.5t-158 66.5t-138 126t-56 184zM276 385q0 -80 65 -136t134.5 -79t122.5 -23q215 2 354 144l-405 428 q-127 -70 -199 -149t-72 -185zM420 1167q0 -86 182 -278q94 49 151.5 84t104.5 87t47 107q0 104 -69.5 151.5t-169.5 47.5q-102 0 -174 -48.5t-72 -150.5z" />
<glyph unicode="'" horiz-adv-x="397" d="M86 1377q0 46 30.5 76t78.5 30q57 0 86.5 -47t29.5 -111q-2 -139 -141 -313l-82 28q96 119 115 228q-53 0 -85 31.5t-32 77.5z" />
<glyph unicode="(" horiz-adv-x="649" d="M115 489q0 92 13 207t47 253t83 251t134 193t190 90l12 -135q-92 -33 -158.5 -136.5t-98.5 -239.5t-46.5 -257t-14.5 -225.5t14.5 -225.5t46.5 -257t98.5 -239.5t158.5 -136.5l-12 -133q-106 10 -191.5 91t-133.5 193t-82 249t-47 250.5t-13 207.5z" />
<glyph unicode=")" horiz-adv-x="649" d="M57 -369q90 33 157 136.5t98.5 239.5t46 257t14.5 225.5t-14.5 225.5t-46 257t-98.5 239.5t-157 136.5l13 135q104 -10 188 -90t134 -193t84 -251t46.5 -252.5t12.5 -207.5q0 -94 -12.5 -207.5t-46.5 -251t-83 -249t-133 -192.5t-190 -91z" />
<glyph unicode="*" d="M94 1092l49 125l387 -156l-2 422h134l-5 -422l390 156l49 -125l-400 -156l279 -309l-113 -95l-268 332l-264 -332l-117 95l279 309z" />
<glyph unicode="+" horiz-adv-x="1251" d="M96 465v129h455v465h129v-465h475v-129h-475v-465h-129v465h-455z" />
<glyph unicode="," horiz-adv-x="387" d="M78 95q0 46 30.5 76t75.5 30q57 0 88 -47.5t31 -110.5q-2 -139 -143 -313l-80 28q96 119 113 228q-51 0 -83 31.5t-32 77.5z" />
<glyph unicode="-" horiz-adv-x="665" d="M106 463v133h455v-133h-455z" />
<glyph unicode="." horiz-adv-x="385" d="M86 95q0 46 30.5 76t78 30t77 -30t29.5 -76t-29.5 -77.5t-77 -31.5t-78 31.5t-30.5 77.5z" />
<glyph unicode="/" horiz-adv-x="831" d="M39 -500l594 1983h160l-594 -1983h-160z" />
<glyph unicode="0" horiz-adv-x="1177" d="M115 544.5q0 155.5 42 270.5t111.5 176.5t149.5 90t171 28.5t171 -28.5t149.5 -90t111.5 -176.5t42 -270.5t-42 -270t-111.5 -176t-149.5 -90t-171 -28.5t-171 28.5t-149.5 90t-111.5 176t-42 270zM276 545q0 -223 91.5 -323.5t222.5 -100.5t221 100.5t90 323.5 t-90 323.5t-221 100.5t-222.5 -100.5t-91.5 -323.5z" />
<glyph unicode="1" horiz-adv-x="686" d="M96 881l275 206h157v-1087h-157v924l-170 -144z" />
<glyph unicode="2" horiz-adv-x="1058" d="M96 0v123l67 47t146.5 113t184 158.5t146.5 164.5t67 152q0 102 -54 151q-51 47 -136 47h-7q-154 -2 -264 -147l-17 -25q-98 92 -98 95q41 72 145.5 150.5t235.5 80.5q170 0 264 -86t94 -254q0 -131 -154.5 -304t-353.5 -325h588l2 -141h-856z" />
<glyph unicode="3" horiz-adv-x="1073" d="M78 -295l100 100q10 -8 26.5 -19t75.5 -29q52 -16 108 -15h13q88 0 174.5 41t154 138t67.5 235q0 92 -70 162.5t-164 70.5q-37 0 -80 -6t-75.5 -12t-58 -14.5l-42.5 -14.5l-14 -4v135q156 63 246 140t90 186q0 70 -49.5 112.5t-116.5 42.5q-156 0 -242 -118l-10 -17 l-90 90l13 21q9 14 39 49t64.5 61.5t96 48t127.5 21.5q135 0 230 -87t95 -224q0 -147 -170 -275q141 -18 240.5 -119.5t104.5 -248.5q0 -139 -54.5 -252t-139.5 -179.5t-179 -102.5t-187 -36q-82 0 -163.5 30t-122.5 60z" />
<glyph unicode="4" horiz-adv-x="1208" d="M78 0v84l753 1003h103v-946h217v-141h-217v-414h-156v414h-700zM289 133l37 8h452v645l-463 -624l-26 -27v-2z" />
<glyph unicode="5" horiz-adv-x="1134" d="M135 -283l101 99q6 -8 21 -20.5t74.5 -33t129.5 -20.5q139 0 263 108.5t124 309.5q0 109 -79 206t-191 97q-147 0 -254 -72h-156v696h723v-145h-567v-389q111 49 254 49q170 0 299 -134t135 -308q0 -139 -53.5 -253t-137.5 -180.5t-177 -103.5t-183 -37q-98 0 -179 33 t-114 66z" />
<glyph unicode="6" horiz-adv-x="1191" d="M123 684q0 338 159.5 582.5t399.5 244.5q176 0 334 -127l-103 -100q-94 80 -225 80q-109 0 -190.5 -71.5t-125.5 -184.5t-67.5 -226.5t-25.5 -222.5q166 254 389 254q182 0 295.5 -105.5t113.5 -332.5q0 -74 -23.5 -153.5t-72.5 -157.5t-142.5 -128t-215.5 -50 q-240 0 -370 180t-130 518zM301 453q33 -158 115 -241t207 -83q102 0 172.5 62.5t95 136t24.5 147.5q0 154 -68.5 224.5t-178.5 70.5q-215 0 -367 -317z" />
<glyph unicode="7" horiz-adv-x="993" d="M10 -307q80 49 317.5 467t411.5 774h-655v153h854v-112q-184 -385 -450.5 -864.5t-370.5 -524.5z" />
<glyph unicode="8" horiz-adv-x="1142" d="M125 330q2 135 91 247.5t212 194.5q-264 209 -264 412q0 86 36 150.5t97 100t130 52t145.5 16.5t145 -16.5t130 -52t96.5 -100t35 -150.5q0 -135 -92 -239.5t-207 -174.5q80 -59 128 -100t103.5 -98.5t81 -117t25.5 -124.5q0 -74 -22.5 -132.5t-55.5 -94t-82 -61.5 t-88 -38t-88 -18t-68 -6h-39h-4h-32q-12 0 -64.5 5t-90.5 17t-90 38t-85 61.5t-58.5 95t-25.5 133.5zM289 330q0 -53 18.5 -93t52 -62.5t63.5 -37t69.5 -18.5t51 -5t27.5 -1h2q20 0 42 1t69 13t81 31.5t61.5 64.5t27.5 107q0 80 -81 162.5t-238 197.5q-232 -151 -246 -360z M328 1184q0 -84 63.5 -163t175.5 -169q51 29 100.5 64.5t99.5 111.5t50 156q0 104 -71.5 150t-174 46t-173 -46t-70.5 -150z" />
<glyph unicode="9" horiz-adv-x="1191" d="M115 623q0 74 24.5 152.5t73.5 157.5t142.5 128t215.5 49q240 0 370 -179t130 -517q0 -102 -19.5 -211t-64.5 -220.5t-108.5 -199.5t-160.5 -142.5t-214 -54.5q-109 0 -203 36t-147 73l106 100q111 -61 242 -61q109 0 191.5 70.5t127.5 183t67.5 225.5t24.5 221 q-168 -250 -387 -250q-182 0 -296.5 106t-114.5 333zM276 623q0 -156 70 -225.5t180 -69.5q213 0 367 315q-33 160 -116 243t-206 83q-104 0 -173.5 -62.5t-95.5 -137t-26 -146.5z" />
<glyph unicode=":" horiz-adv-x="481" d="M135 95q0 46 31 76t77 30t75.5 -30t29.5 -76t-29.5 -77.5t-75.5 -31.5t-77 31.5t-31 77.5zM135 800q0 46 31 75.5t77 29.5t75.5 -29.5t29.5 -75.5t-29.5 -78t-75.5 -32t-77 32t-31 78z" />
<glyph unicode=";" horiz-adv-x="493" d="M135 95q0 46 31 76t76 30q59 0 88.5 -47.5t29.5 -110.5q-2 -139 -143 -313l-80 28q96 119 113 228q-51 0 -83 31.5t-32 77.5zM135 800q0 46 31 75.5t77 29.5t75.5 -29.5t29.5 -75.5t-29.5 -78t-75.5 -32t-77 32t-31 78z" />
<glyph unicode="&#x3c;" horiz-adv-x="1347" d="M143 469v139l1069 484v-140l-915 -413l915 -414v-139z" />
<glyph unicode="=" horiz-adv-x="1310" d="M125 324v129h1061v-129h-1061zM125 631v129h1061v-129h-1061z" />
<glyph unicode="&#x3e;" horiz-adv-x="1347" d="M135 -14v139l914 414l-914 413v140l1069 -484v-139z" />
<glyph unicode="?" horiz-adv-x="968" d="M80 1309q4 12 17.5 30.5t53 64.5t85 82t118 64.5t146.5 28.5q98 0 174 -24.5t118 -60.5t67.5 -85t33.5 -91t8 -85q0 -74 -23.5 -139.5t-76.5 -131t-87 -98.5l-108 -100q-154 -139 -153 -201q0 -82 88 -162l-99 -84q-49 45 -73.5 73t-44 74t-19.5 101q0 86 48 154.5 t151 161.5q70 63 111.5 108t81.5 112.5t42 131.5q0 211 -239 211q-55 0 -108.5 -23.5t-89.5 -57.5t-64.5 -67.5t-42.5 -60.5l-15 -23zM375 95q0 46 30.5 76t76.5 30t77 -30t31 -76t-31 -77.5t-77 -31.5t-76.5 31.5t-30.5 77.5z" />
<glyph unicode="@" horiz-adv-x="2062" d="M115 502q0 252 133 478t355 364.5t472 138.5q203 0 373 -72t276.5 -188.5t165 -260t58.5 -292.5q0 -147 -51.5 -265t-125 -184.5t-163.5 -110.5t-160 -58.5t-121 -14.5q-127 0 -127 115q0 26 6 57q-192 -172 -382 -172h-5q-258 2 -258 360q0 152 52.5 289t132 229.5 t173 145.5t173.5 53q178 0 278 -153l27 114l151 -35q-197 -872 -196 -882q6 -6 54 4t115.5 44t131 88t105.5 153q37 87 37 192q0 15 -1 31q0 119 -48 234.5t-136 210.5t-228.5 154.5t-306.5 59.5q-207 0 -394 -117.5t-299 -309t-112 -400.5q0 -309 240 -518t565 -209 q172 0 303 45t322 203l96 -119q-217 -178 -368.5 -230.5t-352.5 -52.5q-254 0 -473 112.5t-353 316.5t-134 452zM715 397q0 -240 104 -245q4 0 8 -1q70 0 143 37q77 39 139 99.5t94 99.5l59 74l69 323q-51 127 -109.5 171t-129.5 44q-127 0 -252 -177t-125 -425z" />
<glyph unicode="A" horiz-adv-x="1384" d="M57 0l547 1483h178l547 -1483h-180l-186 504h-541l-184 -504h-181zM475 651h434l-217 588z" />
<glyph unicode="B" horiz-adv-x="1228" d="M164 0v1483h170v-109q109 72 178.5 100.5t153.5 28.5q156 0 267 -104.5t111 -323.5q-2 -211 -149 -305q121 -55 169 -145t48 -168v-11q0 -41 -1 -66.5t-10 -79.5t-26.5 -91t-54.5 -84t-88 -78t-133 -50.5t-187 -19.5q-129 4 -278 109v-86h-170zM334 823h103q30 0 96.5 3 t96.5 11l80 18q50 11 74.5 29.5t51 44t37 63.5t10.5 85q0 137 -64.5 203t-152.5 66q-150 0 -332 -111v-412zM334 221q137 -86 278 -86q74 0 130.5 15.5t91 34t59.5 54t36 57t16 63.5t5 54v44q0 29 -12 60.5t-43 71.5t-100.5 68.5t-167.5 32.5q-55 -4 -293 -4v-465z" />
<glyph unicode="C" horiz-adv-x="1275" d="M115 707q0 190 56 346.5t145.5 251t197 145.5t213.5 51q88 0 165 -20.5t126 -50t86 -59.5t55 -50l15 -23l-117 -112l-10.5 16t-36 38t-63.5 47.5t-93 35.5t-129 16q-174 0 -305 -163.5t-131 -468.5q0 -242 123 -405t301 -163q41 0 83 5.5t76.5 15.5t66.5 22.5t57.5 25.5 t47 26.5t38 25.5t27.5 22.5l17 16.5l7 6l102 -100q-57 -72 -109 -109q-166 -119 -409 -119q-258 0 -430 209.5t-172 520.5z" />
<glyph unicode="D" horiz-adv-x="1411" d="M164 0v1483h170v-164q193 180 436 182q104 0 194.5 -42t167 -129t121.5 -240.5t45 -358.5q0 -322 -168.5 -538t-416.5 -216q-180 4 -379 134v-111h-170zM334 264q184 -121 379 -121q176 0 295.5 166t119.5 422q0 297 -105 448.5t-247 155.5q-264 0 -442 -182v-889z" />
<glyph unicode="E" horiz-adv-x="1081" d="M164 0v1483h612l203 8v-174h-645v-477h549v-148h-549v-526h469l203 10v-176h-842z" />
<glyph unicode="F" horiz-adv-x="1044" d="M164 0v1483h612l203 8v-174h-645v-477h549v-148h-549v-692h-170z" />
<glyph unicode="G" horiz-adv-x="1433" d="M115 719q0 172 46 310t114.5 223t161.5 143.5t183.5 81t180.5 24.5q84 0 162.5 -22.5t130 -56t92.5 -67.5t57 -57l21 -24l-119 -113q-4 8 -13.5 20.5t-40 44t-66.5 55.5t-94.5 44.5t-121.5 22.5q-86 0 -170 -33t-165 -102.5t-132 -197.5t-51 -296q0 -94 27.5 -189.5 t85 -184.5t161 -145.5t238.5 -56.5q92 0 203.5 50.5t111.5 107.5v287h-198q-100 0 -156 28v154q70 -16 162 -16h342v-461q0 -127 -141.5 -219t-315.5 -97q-152 0 -273.5 48.5t-198.5 124t-129 176t-73.5 198t-21.5 195.5z" />
<glyph unicode="H" horiz-adv-x="1427" d="M164 0v1483h170v-643h762v643h170v-1483h-170v692h-762v-692h-170z" />
<glyph unicode="I" horiz-adv-x="495" d="M164 0v1483h170v-1483h-170z" />
<glyph unicode="J" horiz-adv-x="548" d="M-18 -346q100 29 168.5 105.5t68.5 207.5v1516h170v-1516q0 -88 -24.5 -162.5t-59.5 -124t-84 -87t-91 -57t-87 -34.5z" />
<glyph unicode="K" d="M164 0v1483h170v-668l508 668h213l-555 -695q43 -4 105.5 -34.5t99.5 -71.5q43 -43 230 -344t216 -334v-4h-205q-33 35 -177 277.5t-179 279.5q-78 84 -174 84q-57 0 -82 -6v-635h-170z" />
<glyph unicode="L" horiz-adv-x="1128" d="M164 0v1483h170v-1317h526l203 10v-176h-899z" />
<glyph unicode="M" horiz-adv-x="1636" d="M164 0v1483h170l483 -1272l2 -12v12l486 1272h170v-1483h-170v1040l2 29l-9 -29l-397 -1040h-164l-399 1040l-6 29l2 -29v-1040h-170z" />
<glyph unicode="N" horiz-adv-x="1392" d="M164 0v1483h170v-2l715 -1166l14 -26l-2 26v1168h170v-1483h-170v2l-717 1169l-12 27l2 -27v-1171h-170z" />
<glyph unicode="O" horiz-adv-x="1460" d="M115 742q0 212 52 367t143 236.5t195.5 118.5t227.5 37q96 -2 181 -23.5t166 -75.5t137.5 -138t92.5 -216.5t36 -299.5q0 -215 -52.5 -369t-142.5 -237t-194.5 -119.5t-227.5 -36.5t-225.5 36.5t-193.5 118.5t-143 235.5t-52 365.5zM285 748q0 -170 37.5 -292 t103.5 -187.5t140.5 -95.5t163.5 -30t164 30t140.5 94.5t103.5 186t38 289.5q0 166 -37 287t-102.5 186.5t-140.5 95t-163 31.5q-88 0 -163.5 -28.5t-142.5 -94t-104.5 -186t-37.5 -286.5z" />
<glyph unicode="P" d="M164 0v1483h170v-117q178 135 342 135q150 -6 283 -132t135 -333q0 -270 -130 -431t-329 -161q-160 2 -301 101v-545h-170zM334 715q156 -121 309 -123q125 2 207 122t82 322q-2 135 -83 218t-173 89q-92 0 -166 -26.5t-176 -91.5v-510z" />
<glyph unicode="Q" horiz-adv-x="1460" d="M115 733q0 172 35.5 306.5t94 220.5t139.5 142t167 77.5t182 21.5q121 -2 225.5 -41t193.5 -123t141.5 -238.5t52.5 -365.5q0 -195 -44.5 -341t-123 -229t-171 -127t-200.5 -54q66 -78 217 -78q51 0 180 30l47 -151q-82 -37 -227 -37q-90 0 -164 23.5t-117 64.5t-67.5 76 t-40.5 74q-229 27 -374.5 204.5t-145.5 544.5zM285 737q0 -170 37.5 -291.5t103.5 -187t140.5 -94.5t163.5 -29t164 29t140.5 93.5t103.5 186t38 289.5q0 135 -25 240.5t-67 173t-100 113t-119.5 63.5t-131.5 20q-88 0 -163.5 -30.5t-141 -97t-104.5 -188.5t-39 -290z" />
<glyph unicode="R" horiz-adv-x="1267" d="M164 0v1483h170v-109q102 66 175 96.5t159 30.5q158 -4 277.5 -105.5t119.5 -316.5q0 -141 -51 -241.5t-121 -146.5t-160 -64q78 -66 256 -319t250 -304v-4h-209q-51 37 -127 138.5t-139.5 198.5t-141 180t-139.5 95q-106 0 -149 2v-614h-170zM334 752h285 q113 2 197.5 76.5t86.5 250.5q0 131 -71.5 195.5t-163.5 68.5q-94 0 -165 -24.5t-169 -83.5v-483z" />
<glyph unicode="S" horiz-adv-x="1280" d="M111 264l116 111q74 -117 191 -177.5t256 -64.5q135 0 231 70.5t96 202.5q0 51 -21.5 92t-47 66.5t-78.5 50t-90 36.5l-102 33l-19 6q-88 27 -135 43.5t-116.5 51t-105.5 72.5t-62.5 98.5t-26.5 138.5q0 100 33.5 176t82.5 119t112.5 70.5t115 35.5t98.5 8q141 0 263 -48 t200 -130l-121 -104q-123 129 -342 129q-41 0 -82 -10.5t-89 -36t-79 -79t-31 -130.5q0 -43 21.5 -78t45.5 -55.5t80 -45t85 -33.5l100 -32l137.5 -45.5t124 -56t111.5 -80.5t70.5 -111t29.5 -151q0 -203 -144.5 -314.5t-348.5 -111.5q-373 10 -559 284z" />
<glyph unicode="T" horiz-adv-x="1081" d="M18 1335v148h1045v-148h-440v-1335h-170v1335h-435z" />
<glyph unicode="U" horiz-adv-x="1372" d="M164 461v1022h170v-1018q0 -90 26.5 -154.5t65.5 -99.5t90 -55.5t91 -25.5t80 -5t79 5t91 25.5t89 54.5t65.5 98.5t28.5 152.5v1022h168v-1022q0 -125 -40 -219.5t-96 -143.5t-133 -77.5t-134 -36t-117 -7.5q-61 0 -118.5 7.5t-135.5 36t-134 77.5t-96 143.5t-40 219.5z " />
<glyph unicode="V" horiz-adv-x="1347" d="M57 1483h181l430 -1219l6 -24l6 24l430 1219h180l-528 -1483h-176z" />
<glyph unicode="W" horiz-adv-x="1896" d="M57 1483h179l307 -1194l4 -23l4 23l307 1194h180l308 -1194l4 -23l4 23l307 1194h180l-420 -1483h-141l-328 1143l-6 35l-4 -35l-324 -1143h-141z" />
<glyph unicode="X" horiz-adv-x="1263" d="M57 0l471 739l-471 744h207l367 -580l370 580h205l-471 -744l471 -739h-207l-368 575l-365 -575h-209z" />
<glyph unicode="Y" horiz-adv-x="1185" d="M18 1483h205l373 -590l377 590h196l-489 -772v-711h-168v711z" />
<glyph unicode="Z" horiz-adv-x="1181" d="M98 0v158l742 1167h-723v158h927v-154l-739 -1171h557q23 -1 43 -1q143 0 180 38v-164q-16 -14 -73.5 -22.5t-104.5 -8.5h-49h-760z" />
<glyph unicode="[" horiz-adv-x="690" d="M164 -500v1983h393v-117h-231v-1751h231v-115h-393z" />
<glyph unicode="\" horiz-adv-x="849" d="M49 1483h160l594 -1983h-160z" />
<glyph unicode="]" horiz-adv-x="690" d="M135 -385h232v1751h-232v117h393v-1983h-393v115z" />
<glyph unicode="^" horiz-adv-x="1257" d="M78 0l483 1059h137l484 -1059h-140l-413 907l-414 -907h-137z" />
<glyph unicode="_" horiz-adv-x="1271" d="M106 0h1061v-123h-1061v123z" />
<glyph unicode="`" horiz-adv-x="684" d="M106 1346l39 137l435 -215l-41 -92z" />
<glyph unicode="a" horiz-adv-x="1085" d="M115 266q0 68 14 117t50 97t113 81t195 51q201 27 267 45v121q0 47 -30 108.5t-89 61.5q-205 0 -324 -98q-16 -20 -14 -38.5t14 -31.5l-153 -28q-19 24 -19 59q0 22 7 49q19 70 87 109q203 113 417 112h7q96 0 157 -57t79 -120.5t18 -125.5v-522q0 -14 3.5 -37.5t31 -70 t72.5 -74.5l-105 -97q-111 43 -147 187q-174 -186 -363 -187q-18 0 -44.5 3.5t-71.5 20.5t-81 47t-63.5 86t-27.5 132zM274 266q0 -47 16.5 -80.5t40 -48t40 -19.5t28.5 -5q98 0 192.5 62.5t162.5 148.5v194q-94 -20 -250 -41q-141 -18 -185.5 -69.5t-44.5 -141.5z" />
<glyph unicode="b" horiz-adv-x="1214" d="M164 0v1579h162v-725q177 227 389 227h4q168 -2 274.5 -159.5t106.5 -374.5q0 -270 -119 -420t-326 -150q-147 0 -329 146v-123h-162zM326 301q72 -72 164 -119t165 -47q129 0 206 109.5t77 302.5q0 152 -60.5 263.5t-158.5 113.5h-4q-229 0 -389 -250v-373z" />
<glyph unicode="c" horiz-adv-x="980" d="M106 510q0 276 141 427q135 145 301 145q7 0 13 -1q61 -2 116.5 -20.5t91.5 -43t63.5 -48t41.5 -41.5l11 -15l-101 -96q-2 2 -8 10.5t-25.5 26.5t-43 32.5t-64.5 27t-86 14.5h-8q-108 0 -193 -106q-88 -110 -88 -312q0 -162 77 -270.5t202 -108.5q47 0 76.5 4t79 29.5 t102.5 77.5l100 -99q-78 -76 -146.5 -115.5t-108.5 -45t-103 -5.5q-197 0 -319 152t-122 381z" />
<glyph unicode="d" horiz-adv-x="1251" d="M115 512q0 270 118.5 419.5t327.5 149.5q145 0 328 -145v643h162v-1325q2 -14 7 -36.5t36.5 -73t81.5 -74.5l-134 -93q-133 72 -153 228q-177 -227 -388 -228h-3q-170 2 -276.5 160t-106.5 375zM276 512q0 -152 61.5 -263.5t160.5 -113.5h7q227 0 384 250v373 q-74 72 -165 119t-163 47q-129 0 -207 -109.5t-78 -302.5z" />
<glyph unicode="e" horiz-adv-x="1116" d="M106 518q0 227 130.5 395t324.5 168q113 0 198 -43t128 -100t68.5 -131t32.5 -120t7 -79v-71h-727q0 -180 80 -299t221 -119q109 0 185 47q74 43 143 137l98 -94q-68 -84 -133 -137.5t-126.5 -70.5t-89.5 -20.5t-77 -3.5q-213 0 -338 157t-125 384zM291 680h534 q-8 43 -24.5 83t-46 82t-78.5 68.5t-115 26.5q-94 0 -165.5 -72.5t-104.5 -187.5z" />
<glyph unicode="f" horiz-adv-x="774" d="M57 924v135h138v184q0 346 299 346q195 0 340 -123l-105 -100q-111 88 -235 88q-47 0 -76 -14.5t-42.5 -48t-17.5 -63.5t-4 -85v-184h312v-135h-312v-924h-159v924h-138z" />
<glyph unicode="g" horiz-adv-x="1185" d="M115 -209q2 119 43 189.5t118 130.5q-90 37 -98 125q0 90 137 198q-160 92 -159 314q0 86 42 155.5t106.5 106.5t133 56t131.5 19q59 0 129 -16q125 113 291 113q53 0 117 -19l-29 -135q-35 12 -88 12q-82 0 -155 -30q150 -96 149 -262q0 -109 -41 -186t-107.5 -114.5 t-132 -53t-133.5 -15.5q-66 0 -114 10q-115 -82 -115 -153q6 -6 50 -9.5t112 -5.5l69 -2q113 -6 196 -20.5t168 -46t131 -95t46 -153.5q0 -186 -135 -309t-399 -123q-186 0 -324.5 92t-138.5 227zM279 -209q0 -76 89 -126t210 -50q184 0 282 82t98 207q0 49 -33.5 84t-97 52 t-120 25.5t-138.5 12.5q-111 0 -137 2q-80 -49 -116.5 -107.5t-36.5 -181.5zM317 748q0 -76 26 -128.5t67 -76t79.5 -32.5t80.5 -9t81 11t80 35.5t65.5 76t24.5 123.5q0 104 -81 159.5t-171 55.5t-171 -55.5t-81 -159.5z" />
<glyph unicode="h" horiz-adv-x="1165" d="M164 0v1579h162v-743q254 246 460 245q246 0 246 -327v-754h-162v754q0 166 -84 166q-219 0 -460 -252v-668h-162z" />
<glyph unicode="i" horiz-adv-x="520" d="M164 1385q0 42 27.5 70t70.5 28t69.5 -28t26.5 -70t-26.5 -69.5t-69.5 -27.5t-70.5 27.5t-27.5 69.5zM180 0v1059h160v-1059h-160z" />
<glyph unicode="j" horiz-adv-x="423" d="M-68 -377q57 8 104.5 95t47.5 200v1141h160v-1141q0 -168 -82 -291t-180 -155zM68 1385q0 42 27.5 70t70.5 28t69.5 -28t26.5 -70t-26.5 -69.5t-69.5 -27.5t-70.5 27.5t-27.5 69.5z" />
<glyph unicode="k" horiz-adv-x="1087" d="M164 0v1579h162v-893q360 252 422 373h163q-33 -125 -440 -432q61 -25 109 -74l317 -358q178 -195 201 -195h-217q-25 8 -97.5 86t-180 204t-138.5 159q-59 59 -94 69q-18 6 -45 -2v-516h-162z" />
<glyph unicode="l" horiz-adv-x="538" d="M164 281v1298h160v-1298q0 -104 20 -125q43 -43 127 -43l-6 -136q-168 0 -234 66q-67 68 -67 238z" />
<glyph unicode="m" horiz-adv-x="1767" d="M164 0v1059h162v-209q211 231 399 231q209 0 240 -237q213 238 405 237q246 0 246 -327v-754h-162v754q0 166 -84 166q-70 0 -132 -22.5t-115.5 -69t-82 -76t-69.5 -80.5v-672h-162v754q0 166 -84 166q-68 0 -131.5 -23t-116.5 -69t-80.5 -75.5t-70.5 -80.5v-672h-162z " />
<glyph unicode="n" horiz-adv-x="1185" d="M164 0v1059h162v-223q254 246 460 245q246 0 246 -327v-754h-162v754q0 166 -84 166q-213 0 -460 -252v-668h-162z" />
<glyph unicode="o" horiz-adv-x="1150" d="M115 529.5q0 156.5 39 268t106.5 171t145 86t170 26.5t170 -26.5t145 -86t106.5 -171t39 -268t-39 -268t-106.5 -171t-145 -86.5t-170 -27t-170 27t-145 86.5t-106.5 171t-39 268zM276 529.5q0 -224.5 86.5 -320.5t213 -96t212.5 96t86 320.5t-86 320.5t-212.5 96 t-213 -96t-86.5 -320.5z" />
<glyph unicode="p" horiz-adv-x="1214" d="M164 -500v1559h162v-205q177 227 389 227h4q168 -2 274.5 -159.5t106.5 -374.5q0 -270 -119 -420t-326 -150q-147 0 -329 146v-623h-162zM326 301q72 -72 164 -119t165 -47q129 0 206 109.5t77 302.5q0 152 -60.5 263.5t-158.5 113.5h-4q-229 0 -389 -250v-373z" />
<glyph unicode="q" horiz-adv-x="1214" d="M115 512q0 270 118.5 419.5t327.5 149.5q145 0 328 -145v123h162v-1559h-162v703q-181 -225 -388 -226h-3q-170 2 -276.5 160t-106.5 375zM276 512q0 -152 61.5 -263.5t160.5 -113.5h7q227 0 384 250v373q-74 72 -165 119t-163 47q-129 0 -207 -109.5t-78 -302.5z" />
<glyph unicode="r" horiz-adv-x="882" d="M164 0v1059h162v-205q133 227 268 227q150 0 250 -98l6 -6l-113 -109q-47 59 -137 60q-147 0 -274 -266v-662h-162z" />
<glyph unicode="s" horiz-adv-x="962" d="M86 193l113 90q43 -76 127 -123t178 -47q88 0 149.5 46t61.5 132q0 51 -41 90t-82 55.5t-116 39t-122 41t-100 53t-80 87t-27 124t26 129t62.5 89t85 52t85 25.5t73.5 5q211 0 334 -123l-104 -100q-82 88 -230 88q-37 0 -72.5 -10t-69.5 -50t-34 -106q0 -33 16.5 -57.5 t53.5 -44t64.5 -29.5t84.5 -26l104 -34q34 -11 89 -40t81.5 -58.5t49 -82t22.5 -117.5q0 -152 -107.5 -233t-260.5 -81q-123 0 -235.5 56t-178.5 160z" />
<glyph unicode="t" horiz-adv-x="770" d="M86 924v135h135v289h162v-289h254v-135h-254v-617q0 -37 2 -61.5t10 -61.5t31 -54t57 -17q90 0 168 71l90 -86q-127 -121 -301 -121q-219 0 -219 330v617h-135z" />
<glyph unicode="u" horiz-adv-x="1185" d="M154 305v754h161v-754q0 -166 84 -166q219 0 461 252v668h162v-1059h-162v221q-256 -244 -461 -244q-245 0 -245 328z" />
<glyph unicode="v" horiz-adv-x="1075" d="M68 1059h186l274 -817l7 -37l4 16q2 18 2 21q231 764 293 817h176q-74 -88 -396 -1055l-2 -4h-141z" />
<glyph unicode="w" horiz-adv-x="1533" d="M68 1059h174l211 -789l6 -41l6 41l225 789h137l226 -789l8 -41l6 41q203 768 242 789h157q-23 -23 -106.5 -288t-155.5 -517l-71 -254h-138l-237 817l-232 -817h-153z" />
<glyph unicode="x" horiz-adv-x="1142" d="M78 0q27 12 175 213l236 328l-374 518h204l263 -383q250 371 284 383h201q-47 -20 -395 -516l385 -543h-205l-272 408q-276 -399 -304 -408h-198z" />
<glyph unicode="y" horiz-adv-x="1058" d="M55 -389q129 8 205 84q37 35 69.5 91t84.5 181l51 129l-369 963h172l287 -744q289 709 330 744h184q-43 -41 -123 -219t-381 -916l-51 -122q-18 -44 -58 -107.5t-87 -106.5q-111 -109 -273 -116z" />
<glyph unicode="z" horiz-adv-x="995" d="M96 0v137l596 787h-596v135h791v-135l-596 -787h493q104 0 136 33v-137q-10 -14 -45 -21.5t-64 -9.5l-29 -2h-686z" />
<glyph unicode="{" horiz-adv-x="903" d="M154 496v96q84 0 130 35t52 69l2 35v574q0 45 9 89t29.5 93t64.5 79.5t106 30.5q125 0 223 -63l-53 -135q-55 37 -170 37q-47 0 -47 -131v-576q0 -6 -1 -15t-8.5 -33t-18.5 -45.5t-36.5 -48t-58.5 -44.5q35 -18 60.5 -45t36.5 -47.5t17.5 -45t7.5 -34t1 -15.5v-575 q0 -131 47 -131q51 0 94 9t59 17l17 11l53 -136q-96 -63 -223 -63q-61 0 -105.5 30.5t-65 80t-29.5 93.5t-9 89v573q0 6 -1 15.5t-11.5 34t-27.5 43t-54 34t-90 15.5z" />
<glyph unicode="|" horiz-adv-x="473" d="M164 -500v2097h145v-2097h-145z" />
<glyph unicode="}" horiz-adv-x="903" d="M135 -449l53 136q53 -37 170 -37q45 0 45 131v573q0 14 4.5 36t34 72t84.5 81q-55 31 -84.5 78t-34 70.5t-4.5 37.5v576q0 131 -45 131q-53 0 -95 -9.5t-58 -17.5l-17 -10l-53 135q96 63 223 63q61 0 105.5 -30.5t65 -79.5t28.5 -93t8 -89v-574q0 -6 1 -15t11.5 -34 t28 -42t55 -32.5t91.5 -15.5v-96q-51 0 -88 -14.5t-54.5 -32t-29 -41t-13.5 -33.5t-2 -19v-575q0 -45 -8 -89t-28.5 -93.5t-64.5 -80t-106 -30.5q-125 0 -223 63z" />
<glyph unicode="~" horiz-adv-x="1267" d="M115 666q10 8 30.5 19t93 30.5t158.5 19.5q76 0 240 -59q166 -57 246 -58q152 0 221 44l49 -97q-100 -63 -270 -63q-88 0 -277 65q-143 53 -209 54q-74 0 -130 -12.5t-74 -22.5l-19 -13z" />
<glyph unicode="&#xad;" horiz-adv-x="665" d="M106 463v133h455v-133h-455z" />
<glyph unicode="&#x2c6;" horiz-adv-x="1257" d="M78 0l483 1059h137l484 -1059h-140l-413 907l-414 -907h-137z" />
<glyph unicode="&#x2dc;" horiz-adv-x="499" d="M-520 279q10 8 30.5 19t93 30.5t158.5 19.5q76 0 240 -59q166 -57 246 -58q152 0 221 43l49 -96q-100 -63 -270 -63q-88 0 -277 65q-143 53 -209 53q-74 0 -130 -12t-74 -22l-19 -13z" />
<glyph unicode="&#x410;" horiz-adv-x="1384" d="M57 0l547 1483h178l547 -1483h-180l-186 504h-541l-184 -504h-181zM475 651h434l-217 588z" />
<glyph unicode="&#x412;" horiz-adv-x="1228" d="M164 0v1483h170v-109q109 72 178.5 100.5t153.5 28.5q156 0 267 -104.5t111 -323.5q-2 -211 -149 -305q121 -55 169 -145t48 -168v-11q0 -41 -1 -66.5t-10 -79.5t-26.5 -91t-54.5 -84t-88 -78t-133 -50.5t-187 -19.5q-129 4 -278 109v-86h-170zM334 221q137 -86 278 -86 q74 0 130.5 15.5t91 34t59.5 54t36 57t16 63.5t5 54v44q0 29 -12 60.5t-43 71.5t-100.5 68.5t-167.5 32.5q-55 -4 -293 -4v-465zM334 823h103q30 0 96.5 3t96.5 11l80 18q50 11 74.5 29.5t51 44t37 63.5t10.5 85q0 137 -64.5 203t-152.5 66q-150 0 -332 -111v-412z" />
<glyph unicode="&#x415;" horiz-adv-x="1081" d="M164 0v1483h612l203 8v-174h-645v-477h549v-148h-549v-526h469l203 10v-176h-842z" />
<glyph unicode="&#x41a;" d="M164 0v1483h170v-668l508 668h213l-555 -695q43 -4 105.5 -34.5t99.5 -71.5q43 -43 230 -344t216 -334v-4h-205q-33 35 -177 277.5t-179 279.5q-78 84 -174 84q-57 0 -82 -6v-635h-170z" />
<glyph unicode="&#x41c;" horiz-adv-x="1636" d="M164 0v1483h170l483 -1272l2 -12v12l486 1272h170v-1483h-170v1040l2 29l-9 -29l-397 -1040h-164l-399 1040l-6 29l2 -29v-1040h-170z" />
<glyph unicode="&#x41d;" horiz-adv-x="1427" d="M164 0v1483h170v-643h762v643h170v-1483h-170v692h-762v-692h-170z" />
<glyph unicode="&#x41e;" horiz-adv-x="1460" d="M115 742q0 212 52 367t143 236.5t195.5 118.5t227.5 37q96 -2 181 -23.5t166 -75.5t137.5 -138t92.5 -216.5t36 -299.5q0 -215 -52.5 -369t-142.5 -237t-194.5 -119.5t-227.5 -36.5t-225.5 36.5t-193.5 118.5t-143 235.5t-52 365.5zM285 748q0 -170 37.5 -292 t103.5 -187.5t140.5 -95.5t163.5 -30t164 30t140.5 94.5t103.5 186t38 289.5q0 166 -37 287t-102.5 186.5t-140.5 95t-163 31.5q-88 0 -163.5 -28.5t-142.5 -94t-104.5 -186t-37.5 -286.5z" />
<glyph unicode="&#x420;" d="M164 0v1483h170v-117q178 135 342 135q150 -6 283 -132t135 -333q0 -270 -130 -431t-329 -161q-160 2 -301 101v-545h-170zM334 715q156 -121 309 -123q125 2 207 122t82 322q-2 135 -83 218t-173 89q-92 0 -166 -26.5t-176 -91.5v-510z" />
<glyph unicode="&#x421;" horiz-adv-x="1275" d="M115 707q0 190 56 346.5t145.5 251t197 145.5t213.5 51q88 0 165 -20.5t126 -50t86 -59.5t55 -50l15 -23l-117 -112l-10.5 16t-36 38t-63.5 47.5t-93 35.5t-129 16q-174 0 -305 -163.5t-131 -468.5q0 -242 123 -405t301 -163q41 0 83 5.5t76.5 15.5t66.5 22.5t57.5 25.5 t47 26.5t38 25.5t27.5 22.5l17 16.5l7 6l102 -100q-57 -72 -109 -109q-166 -119 -409 -119q-258 0 -430 209.5t-172 520.5z" />
<glyph unicode="&#x422;" horiz-adv-x="1081" d="M18 1335v148h1045v-148h-440v-1335h-170v1335h-435z" />
<glyph unicode="&#x425;" horiz-adv-x="1263" d="M57 0l471 739l-471 744h207l367 -580l370 580h205l-471 -744l471 -739h-207l-368 575l-365 -575h-209z" />
<glyph unicode="&#x430;" horiz-adv-x="1085" d="M115 266q0 68 14 117t50 97t113 81t195 51q201 27 267 45v121q0 47 -30 108.5t-89 61.5q-205 0 -324 -98q-16 -20 -14 -38.5t14 -31.5l-153 -28q-19 24 -19 59q0 22 7 49q19 70 87 109q203 113 417 112h7q96 0 156.5 -57t79 -120.5t18.5 -125.5v-522q0 -14 3.5 -37.5 t31 -70t72.5 -74.5l-105 -97q-111 43 -147 187q-174 -186 -363 -187q-18 0 -44.5 3.5t-71.5 20.5t-81 47t-63.5 86t-27.5 132zM274 266q0 -47 16.5 -80.5t40 -48t40 -19.5t28.5 -5q98 0 192.5 62.5t162.5 148.5v194q-94 -20 -250 -41q-141 -18 -185.5 -69.5t-44.5 -141.5z " />
<glyph unicode="&#x435;" horiz-adv-x="1116" d="M106 518q0 227 130.5 395t324.5 168q113 0 198 -43t128 -100t68.5 -131t32.5 -120t7 -79v-71h-727q0 -180 80 -299t221 -119q109 0 185 47q74 43 143 137l98 -94q-68 -84 -133 -137.5t-126.5 -70.5t-89.5 -20.5t-77 -3.5q-213 0 -338 157t-125 384zM291 680h534 q-8 43 -24.5 83t-46 82t-78.5 68.5t-115 26.5q-94 0 -165.5 -72.5t-104.5 -187.5z" />
<glyph unicode="&#x43e;" horiz-adv-x="1150" d="M115 529.5q0 156.5 39 268t106.5 171t145 86t170 26.5t170 -26.5t145 -86t106.5 -171t39 -268t-39 -268t-106.5 -171t-145 -86.5t-170 -27t-170 27t-145 86.5t-106.5 171t-39 268zM276 529.5q0 -224.5 86.5 -320.5t213 -96t212.5 96t86 320.5t-86 320.5t-212.5 96 t-213 -96t-86.5 -320.5z" />
<glyph unicode="&#x440;" horiz-adv-x="1214" d="M164 -500v1559h162v-205q177 227 389 227h4q168 -2 274.5 -159.5t106.5 -374.5q0 -270 -119 -420t-326 -150q-147 0 -329 146v-623h-162zM326 301q72 -72 164 -119t165 -47q129 0 206 109.5t77 302.5q0 152 -60.5 263.5t-158.5 113.5h-4q-229 0 -389 -250v-373z" />
<glyph unicode="&#x441;" horiz-adv-x="980" d="M106 510q0 276 141 427q135 145 301 145q7 0 13 -1q61 -2 116.5 -20.5t91.5 -43t63.5 -48t41.5 -41.5l11 -15l-101 -96q-2 2 -8 10.5t-25.5 26.5t-43 32.5t-64.5 27t-86 14.5h-8q-108 0 -193 -106q-88 -110 -88 -312q0 -162 77 -270.5t202 -108.5q47 0 76.5 4t79 29.5 t102.5 77.5l100 -99q-78 -76 -146.5 -115.5t-108.5 -45t-103 -5.5q-197 0 -319 152t-122 381z" />
<glyph unicode="&#x443;" horiz-adv-x="1058" d="M55 -389q129 8 205 84q37 35 69.5 91t84.5 181l51 129l-369 963h172l287 -744q289 709 330 744h184q-43 -41 -123 -219t-381 -916l-51 -122q-18 -44 -58 -107.5t-87 -106.5q-111 -109 -273 -116z" />
<glyph unicode="&#x445;" horiz-adv-x="1142" d="M78 0q27 12 175 213l236 328l-374 518h204l263 -383q250 371 284 383h201q-47 -20 -395 -516l385 -543h-205l-272 408q-276 -399 -304 -408h-198z" />
<glyph unicode="&#x2010;" horiz-adv-x="665" d="M106 463v133h455v-133h-455z" />
<glyph unicode="&#x2011;" horiz-adv-x="665" d="M106 463v133h455v-133h-455z" />
<glyph unicode="&#x2012;" horiz-adv-x="665" d="M106 463v133h455v-133h-455z" />
<glyph unicode="&#x2013;" horiz-adv-x="1232" d="M57 467v127h1061v-127h-1061z" />
<glyph unicode="&#x2014;" horiz-adv-x="1464" d="M78 467v127h1311v-127h-1311z" />
<glyph unicode="&#x2018;" horiz-adv-x="684" d="M106 1346l39 137l435 -215l-41 -92z" />
<glyph unicode="&#x2019;" horiz-adv-x="397" d="M86 1377q0 46 30.5 76t78.5 30q57 0 86.5 -47t29.5 -111q-2 -139 -141 -313l-82 28q96 119 115 228q-53 0 -85 31.5t-32 77.5z" />
<glyph unicode="&#x201c;" horiz-adv-x="727" d="M86 1171q2 137 143 312l80 -27q-96 -121 -114 -229q51 0 83.5 -31t32.5 -77t-30.5 -76.5t-75.5 -30.5q-59 0 -89 46.5t-30 112.5zM416 1171q2 137 143 312l80 -27q-96 -121 -115 -229q51 0 84 -31t33 -77t-30.5 -76.5t-78.5 -30.5q-57 0 -86.5 46.5t-29.5 112.5z" />
<glyph unicode="&#x201d;" horiz-adv-x="727" d="M86 1377q0 46 30.5 76t78.5 30q57 0 86.5 -47t29.5 -111q-2 -139 -141 -313l-82 28q96 119 115 228q-53 0 -85 31.5t-32 77.5zM416 1377q0 46 30.5 76t77.5 30q55 0 86 -47t31 -111q-2 -139 -143 -313l-80 28q96 119 112 228q-51 0 -82.5 31.5t-31.5 77.5z" />
<glyph unicode="&#x2026;" horiz-adv-x="1159" d="M86 95q0 46 30.5 76t78 30t77 -30t29.5 -76t-29.5 -77.5t-77 -31.5t-78 31.5t-30.5 77.5zM473 95q0 46 31 76t78 30t76.5 -30t29.5 -76t-29.5 -77.5t-76.5 -31.5t-78 31.5t-31 77.5zM860 95q0 46 31 76t78 30t76.5 -30t29.5 -76t-29.5 -77.5t-76.5 -31.5t-78 31.5 t-31 77.5z" />
<glyph unicode="&#x2039;" horiz-adv-x="1347" d="M143 469v139l1069 484v-140l-915 -413l915 -414v-139z" />
<glyph unicode="&#x203a;" horiz-adv-x="1347" d="M135 -14v139l914 414l-914 413v140l1069 -484v-139z" />
<glyph unicode="&#x2122;" horiz-adv-x="2719" d="M18 1335v148h1045v-148h-440v-1335h-170v1335h-435zM1245 0v1483h170l483 -1272l3 -12v12l485 1272h170v-1483h-170v1040l2 29l-8 -29l-398 -1040h-163l-400 1040l-6 29l2 -29v-1040h-170z" />
<glyph unicode="&#xe000;" horiz-adv-x="1060" d="M0 1060h1060v-1060h-1060v1060z" />
</font>
</defs>
</svg>
