<?xml version="1.0" standalone="no"?>
<!DOCTYPE svg PUBLIC "-//W3C//DTD SVG 1.1//EN" "http://www.w3.org/Graphics/SVG/1.1/DTD/svg11.dtd" >
<svg xmlns="http://www.w3.org/2000/svg">
<metadata>
This is a custom SVG webfont generated by Font Squirrel.
Copyright   : Generated in 2010 by FontLab Studio Copyright info pending
Designer    : Campivisivi
Foundry     : Campivisivi
</metadata>
<defs>
<font id="TitilliumText22LThin" horiz-adv-x="1128" >
<font-face units-per-em="2048" ascent="1536" descent="-512" />
<missing-glyph horiz-adv-x="499" />
<glyph unicode=" "  horiz-adv-x="499" />
<glyph unicode="&#x09;" horiz-adv-x="499" />
<glyph unicode="&#xa0;" horiz-adv-x="499" />
<glyph unicode="!" d="M532 0v170h86v-170h-86zM537 455v1034h73v-1034h-73z" />
<glyph unicode="&#x22;" horiz-adv-x="595" d="M106 1067v426h74v-426h-74zM408 1067v426h73v-426h-73z" />
<glyph unicode="#" d="M29 406v67h254v481h-254v68h254v405h77v-405h400v405h78v-405h256v-68h-256v-481h256v-67h-256v-406h-78v406h-400v-406h-77v406h-254zM360 473h400v481h-400v-481z" />
<glyph unicode="$" d="M135 1081q0 190 112.5 273.5t325.5 83.5q41 0 64 -2l33 247h73l-34 -251l266 -27l-8 -70l-267 29l-75 -602q203 -33 292 -105.5t89 -244.5q0 -231 -106.5 -328.5t-324.5 -97.5q-35 0 -53 2l-30 -244q-74 6 -74 14l28 234l-303 26l9 72q164 -23 305 -31l84 641 q-109 16 -174.5 38t-124 63t-83 108.5t-24.5 171.5zM211 1085q0 -164 74.5 -222t263.5 -87l80 592q-23 2 -56 2q-362 0 -362 -285zM532 55h43q176 0 264.5 82t88.5 269q0 137 -70 195t-244 89z" />
<glyph unicode="%" d="M61 1212q0 150 54.5 216.5t171 66.5t172 -66.5t55.5 -218.5q0 -295 -227 -295q-115 0 -170.5 71.5t-55.5 225.5zM137 1212q0 -115 34 -172t116 -57q86 0 118.5 56.5t32.5 170.5q0 113 -32.5 165t-118.5 52q-82 0 -116 -52t-34 -163zM395 12l307 1481l78 -14l-307 -1481z M659 297q0 147 54.5 215t173.5 68q115 0 170 -68t55 -217q0 -295 -225 -295q-117 0 -172.5 71.5t-55.5 225.5zM735 297q0 -117 34 -173t118 -56t116.5 55t32.5 172q0 113 -32.5 165t-116.5 52t-118 -52t-34 -163z" />
<glyph unicode="&#x26;" horiz-adv-x="1490" d="M123 442q0 190 81 282.5t267 145.5q-68 76 -88.5 139.5t-20.5 161.5q0 139 83 223.5t243 84.5q166 0 246 -83t80 -227q0 -154 -81 -239.5t-271 -147.5l399 -395q43 125 65 311h76q-31 -229 -84 -366l299 -291l-51 -55l-281 276q-139 -281 -471 -280q-270 0 -380.5 116.5 t-110.5 343.5zM199 444q0 -197 97 -295t322 -98q291 0 412 264l-504 500q-184 -49 -255.5 -128t-71.5 -243zM436 1171q0 -166 96 -262l76 -75q186 63 259 132.5t73 204.5q0 238 -252 238t-252 -238z" />
<glyph unicode="'" horiz-adv-x="212" d="M63 1487h87l-11 -447h-71z" />
<glyph unicode="(" horiz-adv-x="552" d="M119 641q0 190 51 429t102 382l54 145h75q-25 -61 -57.5 -164.5t-88.5 -358.5t-56 -433q0 -356 184 -862l18 -45h-75q-23 53 -58 144t-92 332t-57 431z" />
<glyph unicode=")" horiz-adv-x="552" d="M119 -266q25 59 57.5 158.5t89 346t56.5 423.5q0 180 -50.5 413.5t-101.5 376.5l-51 145h76q23 -57 56.5 -153t91.5 -344t58 -437.5t-51 -422t-102 -367.5l-53 -139h-76z" />
<glyph unicode="*" d="M289 975l235 172l-233 170l43 57l235 -172l88 275l70 -23l-90 -276h287v-72h-291l90 -275l-70 -22l-88 276l-235 -167z" />
<glyph unicode="+" horiz-adv-x="872" d="M-104 498v73h493v494h78v-494h498v-73h-498v-498h-78v498h-493z" />
<glyph unicode="," horiz-adv-x="360" d="M100 -262l90 446h84l-108 -446h-66z" />
<glyph unicode="-" horiz-adv-x="935" d="M127 563v72h682v-72h-682z" />
<glyph unicode="." horiz-adv-x="526" d="M209 0v170h86v-170h-86z" />
<glyph unicode="/" d="M231 25l590 1470l72 -29l-590 -1468z" />
<glyph unicode="0" d="M72 672q0 223 32.5 372.5t99 233.5t151.5 116.5t208 32.5q125 0 211 -32.5t152.5 -115.5t97.5 -231.5t31 -373.5q0 -201 -33 -337t-99.5 -213t-152.5 -109.5t-206 -32.5t-206 31.5t-152.5 107.5t-100 213t-33.5 338zM154 670q0 -186 27.5 -309t82.5 -189t127 -92.5 t174 -26.5q135 0 220 48t136.5 187.5t51.5 385.5q0 268 -46 418.5t-132 206t-232 55.5q-143 0 -228 -54.5t-133 -206t-48 -423.5z" />
<glyph unicode="1" d="M193 1116l434 289h75v-1405h-75v1323l-400 -268z" />
<glyph unicode="2" d="M129 0v72l485 510q98 106 146.5 163.5t91.5 144.5t43 177q0 156 -89 221.5t-269 65.5q-72 0 -168.5 -13.5t-155.5 -27.5l-59 -15l-11 74q197 55 396 55q217 0 326.5 -82.5t109.5 -277.5q0 -143 -64.5 -249.5t-214.5 -262.5l-463 -481h787v-74h-891z" />
<glyph unicode="3" d="M111 31l12 71q225 -49 450 -49q362 2 363 328q0 174 -93 245.5t-253 80.5h-285v73h283q104 0 205.5 79t101.5 218q0 152 -76 214.5t-264 62.5q-92 0 -193.5 -11.5t-156.5 -21.5l-53 -12l-13 71q201 47 414 47q227 0 324.5 -83.5t97.5 -268.5q0 -74 -24.5 -134t-58.5 -94 t-71 -57.5t-59.5 -30.5t-26.5 -7q137 -37 209 -113t72 -252q0 -207 -108.5 -306t-334.5 -99q-102 0 -218.5 11t-180.5 23z" />
<glyph unicode="4" d="M70 303v64l438 1038h82l-428 -1030h647v467h78v-467h209v-72h-209v-303h-78v303h-739z" />
<glyph unicode="5" d="M123 37l12 72q233 -51 432 -52q176 0 280.5 106.5t104.5 305.5q0 336 -364 336q-86 0 -180.5 -30t-147.5 -60l-53 -27l-72 8l39 709h793v-74h-719l-39 -563q20 14 56 31.5t136.5 47.5t188.5 30q442 0 442 -408q0 -242 -122 -362.5t-341 -120.5q-213 0 -446 51z" />
<glyph unicode="6" d="M88 717q0 358 138.5 534t383.5 176q80 0 170 -6t142 -12l51 -6l-8 -70q-174 20 -355 21q-209 0 -324.5 -150.5t-117.5 -441.5l61 26q59 23 162 49.5t187 26.5q465 0 464 -422q0 -219 -122.5 -339.5t-354.5 -120.5q-477 0 -477 735zM166 688q10 -635 399 -635 q193 0 294.5 100.5t101.5 288.5q0 176 -101.5 263.5t-284.5 87.5q-194 -7 -409 -105z" />
<glyph unicode="7" d="M125 1333v72h856v-137l-569 -1286l-76 28l565 1274v49h-776z" />
<glyph unicode="8" d="M51 358q0 162 72 243t215 140q-131 47 -197.5 124t-66.5 212q0 350 497 350q236 0 370 -86t134 -266q0 -137 -69.5 -214t-219.5 -120q150 -43 231 -124.5t81 -235.5q0 -221 -142.5 -310t-384.5 -89q-231 0 -375.5 87.5t-144.5 288.5zM135 360q0 -307 436 -307 q209 0 327 73t118 253q0 82 -24.5 139t-77 92t-101.5 53.5t-129 38.5h-250q-150 -35 -224.5 -111.5t-74.5 -230.5zM156 1075q0 -125 66.5 -193.5t211.5 -107.5h250q156 35 232.5 105.5t76.5 193.5q0 150 -108.5 215.5t-313.5 65.5q-203 0 -309 -63.5t-106 -215.5z" />
<glyph unicode="9" d="M100 961q0 213 128 339.5t341 126.5q248 0 367 -193.5t119 -543.5q0 -385 -134.5 -546.5t-400.5 -161.5q-80 0 -170 5t-141 11l-51 6l8 70q174 -20 354 -21q227 0 340 140.5t115 445.5q-242 -94 -430 -94q-445 0 -445 416zM180 960.5q0 -178.5 92.5 -260.5t276.5 -82 q168 0 428 95q-14 641 -408 641q-180 0 -284.5 -107.5t-104.5 -286z" />
<glyph unicode=":" horiz-adv-x="299" d="M164 0v170h86v-170h-86zM164 733v170h86v-170h-86z" />
<glyph unicode=";" horiz-adv-x="360" d="M78 -262l88 446h90l-111 -446h-67zM160 733v170h86v-170h-86z" />
<glyph unicode="&#x3c;" d="M135 627v75l737 488v-82l-669 -438l669 -463v-88q-665 455 -737 508z" />
<glyph unicode="=" d="M88 731v72h946v-72h-946zM90 371v71h946v-71h-946z" />
<glyph unicode="&#x3e;" d="M135 119v88l670 463l-670 438v82l737 -488v-75z" />
<glyph unicode="?" horiz-adv-x="821" d="M20 1452q240 57 355 57q211 0 318.5 -77.5t107.5 -257.5q0 -96 -44 -180.5t-107 -144.5l-124 -116q-61 -55 -105 -118.5t-44 -129.5v-79h-74v86q0 74 43 142t107 126l125 118q61 60 105 136t44 160q0 147 -87 206.5t-265 59.5l-342 -60zM299 2v170h84v-170h-84z" />
<glyph unicode="@" horiz-adv-x="2097" d="M127 555q0 526 230.5 751.5t715.5 225.5q481 0 689 -211t208 -672v-35q0 -131 -9 -230t-23.5 -165.5t-41 -113t-51 -71t-65.5 -36.5t-73 -15t-85 -3q-70 0 -105.5 6t-68.5 35.5t-53 91.5q-236 -131 -406 -131q-51 0 -90 5t-94 34.5t-89 83t-60.5 160t-26.5 253.5 q0 289 97 427t349 138q53 0 124 -13t114 -28l43 -16v39h76v-426q0 -297 15 -417t50 -149.5t125 -29.5q61 0 94 6t71 36t57.5 89t33.5 168t14 272v37q0 428 -188 619.5t-631 191.5q-453 0 -659.5 -203.5t-206.5 -703.5q0 -264 51 -440t162.5 -279.5t267.5 -147.5t385 -44 l305 22l6 -72q-209 -18 -311 -18q-246 0 -415 46t-291.5 155.5t-181 301t-58.5 476.5zM702 512q0 -152 27 -251t74 -142t89 -56.5t97 -13.5q170 0 391 127q-25 135 -24 463v319q-154 57 -281 58q-215 0 -294 -123t-79 -381z" />
<glyph unicode="A" horiz-adv-x="1286" d="M74 0l458 1491h226l454 -1487h-77l-142 455h-698l-143 -459h-78zM315 530h656l-271 889h-114z" />
<glyph unicode="B" horiz-adv-x="1335" d="M219 0v1491h512q217 0 323.5 -87t106.5 -276q0 -283 -207 -360q264 -72 265 -350q0 -229 -115 -323.5t-334 -94.5h-551zM297 72h473q178 0 273.5 77.5t95.5 268.5q0 309 -385 309h-457v-655zM297 797h457q170 0 248.5 83t78.5 248q0 154 -85 222.5t-265 68.5h-434v-622z " />
<glyph unicode="C" horiz-adv-x="1142" d="M123 739q0 152 12 260.5t45 211t90.5 164t153.5 98t229 36.5q90 0 189.5 -9t152.5 -19l54 -11l-7 -75q-215 43 -389 43q-117 0 -199.5 -34t-131 -88t-75 -149.5t-34.5 -190.5t-8 -236.5t8 -236.5t35.5 -187.5t77 -145.5t131.5 -85t196 -32q70 0 166 10.5t160 22.5l63 10 l7 -73q-227 -41 -396 -41q-162 0 -267 50t-162.5 153.5t-79 233.5t-21.5 320z" />
<glyph unicode="D" horiz-adv-x="1390" d="M219 0v1491h555q135 0 234.5 -59.5t156 -164t82 -229.5t25.5 -272.5t-26.5 -277.5t-82 -243.5t-156 -179t-233.5 -65.5h-555zM297 72h477q115 0 199 62.5t130 168t66.5 221t20.5 243.5t-20.5 237.5t-66.5 207t-130 152.5t-199 55h-477v-1347z" />
<glyph unicode="E" horiz-adv-x="1216" d="M219 0v1491h871v-72h-793v-616h666v-72h-666v-659h793v-72h-871z" />
<glyph unicode="F" horiz-adv-x="1198" d="M219 0v1491h875v-72h-797v-674h668v-71h-668v-674h-78z" />
<glyph unicode="G" horiz-adv-x="1312" d="M127 739q0 184 24.5 317.5t85 240t172 159.5t277.5 53q223 0 469 -53l-6 -74q-268 55 -463 56q-147 0 -242.5 -47.5t-145.5 -144.5t-69.5 -216t-19.5 -291q0 -170 20.5 -288.5t71.5 -212t146.5 -139.5t238.5 -46q66 0 161 10.5t161.5 21.5t68.5 11v572h-319v71h397v-704 q-301 -53 -469 -53q-313 0 -436 189t-123 568z" />
<glyph unicode="H" horiz-adv-x="1480" d="M219 0v1491h78v-707h889v707h78v-1491h-78v711h-889v-711h-78z" />
<glyph unicode="I" horiz-adv-x="481" d="M203 0v1491h76v-1491h-76z" />
<glyph unicode="J" horiz-adv-x="647" d="M74 -84q78 0 110.5 1t75.5 12.5t55.5 28.5t28.5 56t19.5 92.5t3.5 139.5v1247h75q0 -226 1 -634q1 -409 1 -636q0 -70 -4 -124t-17 -95t-26.5 -67.5t-42 -44t-49 -27.5t-65.5 -14.5t-74 -5.5t-92 -1v72z" />
<glyph unicode="K" horiz-adv-x="1269" d="M219 0v1491h78v-717h274l469 717h90l-491 -750l526 -741h-98l-492 700h-278v-700h-78z" />
<glyph unicode="L" d="M219 0v1491h78v-1419h725v-72h-803z" />
<glyph unicode="M" horiz-adv-x="1812" d="M219 0v1491h164l522 -1374l527 1374h161v-1491h-77v1419h-29l-531 -1374h-106l-524 1374h-29v-1419h-78z" />
<glyph unicode="N" horiz-adv-x="1462" d="M219 0v1491h182l709 -1419h57v1419h76v-1491h-180l-711 1419h-55v-1419h-78z" />
<glyph unicode="O" horiz-adv-x="1396" d="M127 739q0 391 124 580.5t447.5 189.5t447.5 -188t124 -582q0 -408 -121 -582.5t-451 -174.5q-170 0 -282.5 46t-176 147t-88 234t-24.5 330zM209 739q0 -182 19.5 -298.5t71.5 -209t149.5 -135.5t248.5 -43q154 0 251.5 39t149.5 130t70.5 210t18.5 307 q0 358 -103.5 528.5t-386.5 170.5q-150 0 -247 -45t-149 -139.5t-72.5 -215.5t-20.5 -299z" />
<glyph unicode="P" horiz-adv-x="1308" d="M219 0v1491h543q231 0 336.5 -108.5t105.5 -340.5q0 -496 -442 -495h-465v-547h-78zM297 621h465q360 0 360 421q0 195 -84 286t-276 91h-465v-798z" />
<glyph unicode="Q" horiz-adv-x="1396" d="M127 739q0 391 124 580.5t447.5 189.5t447.5 -188t124 -582q0 -293 -56.5 -458.5t-201.5 -239.5l182 -299l-76 -37l-184 305q-102 -29 -236 -28q-170 0 -282.5 46t-176 147t-88 234t-24.5 330zM209 739q0 -182 19.5 -298.5t71.5 -209t149.5 -135.5t248.5 -43 q154 0 251.5 39t149.5 130t70.5 210t18.5 307q0 358 -103.5 528.5t-386.5 170.5q-150 0 -247 -45t-149 -139.5t-72.5 -215.5t-20.5 -299z" />
<glyph unicode="R" horiz-adv-x="1341" d="M219 0v1491h535q225 0 333.5 -102.5t108.5 -323.5q0 -379 -307 -436l336 -629h-88l-332 618h-508v-618h-78zM297 690h457q199 0 280.5 96.5t81.5 278.5q0 184 -87 269t-275 85h-457v-729z" />
<glyph unicode="S" horiz-adv-x="1140" d="M113 1139q0 375 460 374l424 -32l-8 -76q-293 37 -416 37q-379 0 -378 -299q0 -63 9 -111.5t34.5 -81t53 -55.5t81 -38t98.5 -25.5t123 -22.5q233 -35 333.5 -110.5t100.5 -266.5q0 -240 -111.5 -343t-338.5 -103q-70 0 -184.5 8t-192.5 16l-80 8l8 76q295 -37 446 -37 q186 0 279.5 87t93.5 282q0 156 -81 215t-292 92q-129 18 -199.5 39t-138 63t-96 115.5t-28.5 188.5z" />
<glyph unicode="T" horiz-adv-x="1064" d="M0 1419v72h1065v-72h-492v-1419h-77v1419h-496z" />
<glyph unicode="U" horiz-adv-x="1366" d="M193 418v1073h75v-1073q0 -195 104.5 -280t301.5 -85q211 0 318.5 84t107.5 281v1073h76v-1073q0 -233 -127 -334.5t-375 -101.5q-236 0 -358.5 101.5t-122.5 334.5z" />
<glyph unicode="V" horiz-adv-x="1232" d="M74 1491h78l409 -1419h123l397 1419h78l-414 -1491h-247z" />
<glyph unicode="W" horiz-adv-x="1855" d="M96 1491h74l305 -1419h80l332 1398h84l342 -1398h80l295 1419h73l-307 -1491h-205l-321 1370l-310 -1370h-204z" />
<glyph unicode="X" horiz-adv-x="1236" d="M86 0l481 739l-481 752h90l445 -694l440 694h92l-475 -752l475 -739h-92l-438 686l-447 -686h-90z" />
<glyph unicode="Y" horiz-adv-x="1148" d="M53 1491h88l437 -764l430 764h90l-482 -850v-641h-77v641z" />
<glyph unicode="Z" horiz-adv-x="1212" d="M127 -2v147l881 1223v51h-881v72h958v-150l-878 -1224v-47h878v-72h-958z" />
<glyph unicode="[" horiz-adv-x="638" d="M104 -262v1857h388v-67h-314v-1723h314v-67h-388z" />
<glyph unicode="\" d="M205 1462l74 31l641 -1462l-74 -31z" />
<glyph unicode="]" horiz-adv-x="638" d="M104 -195h314v1723h-314v67h388v-1857h-388v67z" />
<glyph unicode="^" d="M150 709l364 696h78l385 -696h-88l-338 620l-318 -620h-83z" />
<glyph unicode="_" horiz-adv-x="1105" d="M57 -72h912v-73h-912v73z" />
<glyph unicode="`" horiz-adv-x="456" d="M20 1493l35 66l410 -205l-33 -58z" />
<glyph unicode="a" horiz-adv-x="1101" d="M117 291q0 139 69.5 216t225.5 91l403 43v111q0 137 -58.5 198.5t-176.5 61.5q-68 0 -169.5 -9.5t-166.5 -19.5l-68 -8l-6 72q240 37 410 36q311 0 311 -331v-611q8 -78 160 -90l-4 -67q-160 0 -220 84q-199 -86 -440 -86q-127 0 -198.5 79.5t-71.5 229.5zM197 291 q0 -115 52 -178.5t140 -63.5q94 0 200.5 21.5t166.5 42.5l59 22v436l-395 -39q-223 -22 -223 -241z" />
<glyph unicode="b" horiz-adv-x="1144" d="M215 0v1554h74v-555q178 84 366 84q211 0 287 -119.5t76 -408.5q0 -311 -100.5 -442t-385.5 -131zM289 61q168 -12 241 -12q131 0 214 28.5t125 97.5t56.5 154t14.5 222q0 254 -56.5 359.5t-228.5 105.5q-84 0 -176 -21.5t-141 -42.5l-49 -22v-869z" />
<glyph unicode="c" horiz-adv-x="929" d="M127 555q0 295 98.5 411.5t339.5 116.5l254 -20l-4 -68q-170 20 -250 21q-203 0 -280.5 -102.5t-77.5 -358.5q0 -287 70.5 -396.5t287.5 -109.5l254 19l4 -68q-178 -18 -258 -18q-260 0 -349 121.5t-89 451.5z" />
<glyph unicode="d" horiz-adv-x="1144" d="M127 518q0 289 98.5 427t349.5 138q121 0 281 -24v432h74v-1491h-74v90q-18 -14 -53 -31.5t-132.5 -47t-183.5 -29.5q-51 0 -89 5t-93 34.5t-90 83t-61.5 160t-26.5 253.5zM203 512q0 -152 26.5 -251t73.5 -142t88 -56.5t96 -13.5q180 2 369 111v831q-221 25 -281 25 q-215 0 -293.5 -123t-78.5 -381z" />
<glyph unicode="e" horiz-adv-x="1079" d="M127 532q0 551 430 551q203 0 304.5 -120.5t101.5 -389.5v-71h-756q0 -229 72.5 -341t250.5 -112l388 19l4 -68q-238 -18 -394 -18q-225 2 -313 136.5t-88 413.5zM207 571h678q0 240 -78 342.5t-250 102.5q-350 -1 -350 -445z" />
<glyph unicode="f" horiz-adv-x="698" d="M74 997v68h147v129q0 225 59.5 303t211.5 78l196 -8v-66q-137 4 -196 4q-113 0 -154 -62.5t-41 -250.5v-127h344v-68h-344v-997h-76v997h-147z" />
<glyph unicode="g" horiz-adv-x="1073" d="M117 -170q0 68 24.5 117t55 76.5t102.5 78.5q-47 29 -47 140q0 14 15.5 55t31.5 76l16 35q-184 59 -184 323q0 354 365 354q51 0 107 -6t87 -14l33 -6l297 6v-74h-229q84 -80 83 -260q0 -195 -90 -272.5t-297 -77.5q-63 0 -114 8q-49 -121 -49 -147q0 -37 4 -54.5t17 -32 t49 -20.5t83 -8t139 -2q211 0 294 -58.5t83 -246.5q0 -174 -107.5 -252t-346.5 -78q-258 0 -340 71.5t-82 268.5zM195 -168q0 -158 66.5 -215t279.5 -57q199 0 285.5 60.5t86.5 199.5q0 152 -63.5 194.5t-239.5 42.5l-256 6q-96 -66 -127.5 -111.5t-31.5 -119.5zM209 731 q0 -150 60.5 -216t217.5 -66q168 0 239 62t71 220q0 174 -63.5 230.5t-239.5 56.5q-145 0 -215 -63.5t-70 -223.5z" />
<glyph unicode="h" horiz-adv-x="1206" d="M215 0v1597h74v-596q188 82 370 82q213 0 282 -107.5t69 -422.5v-553h-74v549q0 283 -51 375t-226 92q-84 0 -177 -21.5t-142 -42.5l-51 -22v-930h-74z" />
<glyph unicode="i" horiz-adv-x="456" d="M193 0v1065h73v-1065h-73zM193 1374v117h73v-117h-73z" />
<glyph unicode="j" horiz-adv-x="495" d="M-63 -397q182 98 237 176t55 233v1053h76v-1055q0 -180 -67.5 -275t-272.5 -200zM229 1374v117h76v-117h-76z" />
<glyph unicode="k" horiz-adv-x="1028" d="M215 0v1554h74v-931h200l388 442h88l-410 -481l410 -584h-88l-388 547h-200v-547h-74z" />
<glyph unicode="l" horiz-adv-x="479" d="M203 0v1554h73v-1554h-73z" />
<glyph unicode="m" horiz-adv-x="1863" d="M215 0v1065h74v-86q20 12 52 29.5t124 46t174 28.5q63 0 123 -10q102 -18 153 -92q240 102 402 102q213 0 280.5 -107.5t67.5 -422.5v-553h-74v549q0 283 -51 375t-223 92q-84 0 -175 -26.5t-135 -48t-57 -30.5q39 -104 39 -358v-553h-76v549q0 283 -51 375t-223 92 q-178 0 -344 -105l-6 -2v-909h-74z" />
<glyph unicode="n" horiz-adv-x="1218" d="M215 0v1065h74v-86q190 104 373 104q213 0 281.5 -107.5t68.5 -422.5v-553h-74v549q0 283 -51 375t-225 92q-184 -2 -373 -107v-909h-74z" />
<glyph unicode="o" horiz-adv-x="1120" d="M127 555q0 295 99.5 411.5t338.5 116.5q219 0 323.5 -122.5t104.5 -409.5q0 -313 -88 -441t-340 -128q-260 0 -349 122.5t-89 450.5zM207 555q0 -147 11 -234.5t50 -154t108.5 -92t188.5 -25.5q115 0 185.5 28.5t106.5 98.5t46 153t10 222q0 252 -84 358.5t-264 106.5 q-207 0 -282.5 -97.5t-75.5 -363.5z" />
<glyph unicode="p" horiz-adv-x="1148" d="M215 -489v1554h74v-90q20 14 54 31.5t132 47t182 29.5q193 0 279 -130t86 -406q0 -299 -103.5 -432t-347.5 -133q-145 0 -282 28v-499h-74zM289 78q166 -29 282 -29q205 0 289 113.5t84 390.5q0 248 -71.5 355.5t-215.5 107.5q-174 0 -362 -111l-6 -2v-825z" />
<glyph unicode="q" horiz-adv-x="1144" d="M127 510q0 307 105.5 440t381.5 133l316 -18v-1554h-74v550q-156 -80 -344 -79q-211 0 -298 128t-87 400zM207 514q0 -238 66.5 -351.5t238.5 -113.5q84 0 170 21.5t131 42.5l43 22v869q-166 12 -240 12q-242 0 -325.5 -117t-83.5 -385z" />
<glyph unicode="r" horiz-adv-x="753" d="M215 0v1065h74v-166l59.5 41t147 76t215.5 69v-71q-203 -41 -422 -185v-829h-74z" />
<glyph unicode="s" horiz-adv-x="1028" d="M127 799q0 106 58.5 173.5t134 89t172.5 21.5q74 0 165 -7t146 -15l55 -8l-4 -72q-217 35 -362 35q-285 0 -285 -213q0 -100 59.5 -141t243.5 -70q225 -37 306 -90t81 -195q0 -180 -102.5 -252.5t-302.5 -72.5q-53 0 -141.5 8t-149.5 16l-60 8l9 72q229 -37 337 -37 q164 0 247 53.5t83 198.5q0 111 -64.5 151t-265.5 70q-203 31 -281.5 83.5t-78.5 193.5z" />
<glyph unicode="t" horiz-adv-x="790" d="M74 997v68h170v348h73v-348h388v-68h-388v-559q0 -244 35 -317.5t162 -73.5l209 16l6 -67q-141 -16 -215 -16q-152 0 -211 77.5t-59 300.5v639h-170z" />
<glyph unicode="u" horiz-adv-x="1185" d="M199 512v553h73v-549q0 -283 51.5 -375t223.5 -92q180 0 346 105l4 2v909h74v-1065h-74v86q-20 -12 -52 -29.5t-124 -46t-174 -28.5q-213 0 -280.5 107.5t-67.5 422.5z" />
<glyph unicode="v" horiz-adv-x="1021" d="M74 1065h80l311 -997h90l313 997h80l-334 -1065h-208z" />
<glyph unicode="w" horiz-adv-x="1619" d="M82 1065h78l270 -997h25l313 976h84l313 -976h23l272 997h80l-293 -1065h-143l-295 954l-295 -954h-145z" />
<glyph unicode="x" horiz-adv-x="970" d="M82 0l358 532l-358 533h84l319 -475l320 475h86l-361 -533l361 -532h-88l-318 475l-317 -475h-86z" />
<glyph unicode="y" horiz-adv-x="1021" d="M74 1065h80l313 -997h86l315 997h80l-487 -1554h-80l154 489h-129z" />
<glyph unicode="z" horiz-adv-x="1024" d="M117 0v68l698 929h-698v68h790v-68l-698 -929h698v-68h-790z" />
<glyph unicode="{" horiz-adv-x="606" d="M0 627v67q121 31 171 90.5t50 165.5q0 27 -7 128.5t-7 144.5q0 193 86 280.5t289 95.5l4 -67q-174 -8 -239.5 -82t-65.5 -227q0 -37 8 -130.5t8 -123.5q0 -137 -47 -203t-166 -104q119 -37 166 -103.5t47 -198.5q-2 -23 -9 -110.5t-7 -136.5q0 -152 66.5 -226.5 t238.5 -83.5l-4 -67q-203 8 -289 97t-86 280q0 45 7 142t7 120q0 102 -50 159.5t-171 92.5z" />
<glyph unicode="|" d="M516 -125v1616h74v-1616h-74z" />
<glyph unicode="}" horiz-adv-x="606" d="M0 -197q172 8 238.5 83t66.5 227q0 49 -7 137t-9 110q0 131 47 198t166 104q-119 39 -166 104t-47 203q0 31 8 124t8 130q0 154 -65.5 227.5t-239.5 81.5l4 67q203 -8 289 -96t86 -280q0 -43 -7 -144.5t-7 -128.5q0 -106 50 -165.5t171 -90.5v-67q-121 -35 -171 -92.5 t-50 -159.5q0 -23 7 -120t7 -142q0 -190 -86 -279.5t-289 -97.5z" />
<glyph unicode="~" d="M145 676q119 115 217 115q72 0 218.5 -57.5t187.5 -57.5q35 0 85 28.5t85 55.5l31 28l14 -79q-115 -111 -213 -111q-70 0 -214 57.5t-193 57.5q-35 0 -86.5 -29t-83.5 -55l-33 -29z" />
<glyph unicode="&#xa2;" horiz-adv-x="929" d="M125 526q0 233 93 341t278 114v279h75v-281l246 -21l-4 -73q-213 20 -293 20q-170 0 -239.5 -86t-69.5 -293q0 -211 66.5 -286.5t263.5 -75.5l276 16l4 -74q-158 -16 -248 -18v-268h-75v268q-203 6 -288 96t-85 342z" />
<glyph unicode="&#xa3;" d="M201 0v72h194v725h-145v67h145v135q0 268 63.5 358.5t229.5 90.5l256 -25v-69q-186 27 -256 26q-133 0 -175 -76.5t-42 -312.5v-127h387v-67h-387v-725h371l174 34l14 -67l-174 -39h-655z" />
<glyph unicode="&#xa5;" horiz-adv-x="1148" d="M53 1405h88l437 -657l430 657h90l-408 -627h359v-73h-406l-27 -43v-201h435v-74h-435v-387h-77v387h-437v74h437v201l-27 43h-412v73h365z" />
<glyph unicode="&#xa8;" horiz-adv-x="456" d="M0 1360v131h74v-131h-74zM406 1360v131h73v-131h-73z" />
<glyph unicode="&#xa9;" d="M20 924.5q0 236.5 156 401.5t388.5 165t389 -165t156.5 -401.5t-156.5 -400.5t-389 -164t-388.5 164t-156 400.5zM90 924q0 -209 135 -352.5t339 -143.5t341 143.5t137 352.5t-137 354t-341 145t-339 -145t-135 -354zM332 922q0 162 49 244.5t184 82.5l158 -14l-2 -68 q-88 14 -156 15q-104 0 -134 -59.5t-30 -200.5q0 -131 34 -192.5t130 -61.5l156 16l2 -68q-92 -18 -158 -18q-133 0 -183 82t-50 242z" />
<glyph unicode="&#xab;" d="M193 498v77l354 275v-84l-287 -225l287 -250v-86zM633 498v77l356 275v-84l-289 -225l289 -250v-86z" />
<glyph unicode="&#xad;" horiz-adv-x="935" d="M127 563v72h682v-72h-682z" />
<glyph unicode="&#xae;" d="M20 924.5q0 236.5 156 401.5t388.5 165t389 -165t156.5 -401.5t-156.5 -400.5t-389 -164t-388.5 164t-156 400.5zM90 924q0 -209 135 -352.5t339 -143.5t341 143.5t137 352.5t-137 354t-341 145t-339 -145t-135 -354zM348 588v672h193q137 0 191 -43t54 -150 q0 -162 -127 -195l140 -284h-74l-141 278h-168v-278h-68zM416 936h170q72 0 101.5 28.5t29.5 102.5q0 70 -40 96.5t-130 26.5h-131v-254z" />
<glyph unicode="&#xb4;" horiz-adv-x="569" d="M86 1354l408 205l34 -66l-411 -197z" />
<glyph unicode="&#xb8;" horiz-adv-x="1773" d="M844 -420l4 60q94 -8 166 -9q102 0 102 99q0 90 -102 90h-115v182h70v-123q119 0 170 -31.5t51 -117.5q0 -158 -174 -158z" />
<glyph unicode="&#xbb;" d="M141 205v86l287 250l-287 225v84l355 -275v-77zM582 205v86l286 250l-286 225v84l356 -275v-77z" />
<glyph unicode="&#x2c6;" horiz-adv-x="456" d="M-33 1278l258 281h60l260 -281h-90l-197 213l-199 -213h-92z" />
<glyph unicode="&#x2da;" horiz-adv-x="456" d="M35 1384q0 86 59.5 144.5t144.5 58.5t142 -58.5t57 -144.5t-57 -144t-143 -58t-144.5 58t-58.5 144zM106 1384.5q0 -55.5 38 -96.5t94 -41q53 0 92 41t39 96.5t-39 95.5t-92 40q-55 0 -93.5 -40t-38.5 -95.5z" />
<glyph unicode="&#x2dc;" horiz-adv-x="456" d="M-74 1423q104 100 174 101q45 0 163 -57.5t151 -57.5q37 0 131 88l20 -63q-90 -92 -155 -93q-45 0 -164 57.5t-150 57.5q-45 0 -149 -94z" />
<glyph unicode="&#x3c0;" d="M8 963v73q53 12 133 18.5t133 8.5l54 2h460q203 0 308 35v-76q-74 -25 -224 -31v-665q0 -160 43 -208t168 -48v-72q-164 0 -224 67.5t-60 260.5v663h-434l-62 -991h-76l62 991q-201 -3 -281 -28z" />
<glyph unicode="&#x410;" horiz-adv-x="1286" d="M74 0l458 1491h226l454 -1487h-77l-142 455h-698l-143 -459h-78zM315 530h656l-271 889h-114z" />
<glyph unicode="&#x412;" horiz-adv-x="1335" d="M219 0v1491h512q217 0 323.5 -87t106.5 -276q0 -283 -207 -360q264 -72 265 -350q0 -229 -115 -323.5t-334 -94.5h-551zM297 72h473q178 0 273.5 77.5t95.5 268.5q0 309 -385 309h-457v-655zM297 797h457q170 0 248.5 83t78.5 248q0 154 -85 222.5t-265 68.5h-434v-622z " />
<glyph unicode="&#x415;" horiz-adv-x="1216" d="M219 0v1491h871v-72h-793v-616h666v-72h-666v-659h793v-72h-871z" />
<glyph unicode="&#x41a;" horiz-adv-x="1269" d="M219 0v1491h78v-717h274l469 717h90l-491 -750l526 -741h-98l-492 700h-278v-700h-78z" />
<glyph unicode="&#x41c;" horiz-adv-x="1812" d="M219 0v1491h164l522 -1374l527 1374h161v-1491h-77v1419h-29l-531 -1374h-106l-524 1374h-29v-1419h-78z" />
<glyph unicode="&#x41d;" horiz-adv-x="1480" d="M219 0v1491h78v-707h889v707h78v-1491h-78v711h-889v-711h-78z" />
<glyph unicode="&#x41e;" horiz-adv-x="1396" d="M127 739q0 391 124 580.5t447.5 189.5t447.5 -188t124 -582q0 -408 -121 -582.5t-451 -174.5q-170 0 -282.5 46t-176 147t-88 234t-24.5 330zM209 739q0 -182 19.5 -298.5t71.5 -209t149.5 -135.5t248.5 -43q154 0 251.5 39t149.5 130t70.5 210t18.5 307 q0 358 -103.5 528.5t-386.5 170.5q-150 0 -247 -45t-149 -139.5t-72.5 -215.5t-20.5 -299z" />
<glyph unicode="&#x420;" horiz-adv-x="1308" d="M219 0v1491h543q231 0 336.5 -108.5t105.5 -340.5q0 -496 -442 -495h-465v-547h-78zM297 621h465q360 0 360 421q0 195 -84 286t-276 91h-465v-798z" />
<glyph unicode="&#x421;" horiz-adv-x="1142" d="M123 739q0 152 12 260.5t45 211t90.5 164t153.5 98t229 36.5q90 0 189.5 -9t152.5 -19l54 -11l-7 -75q-215 43 -389 43q-117 0 -199.5 -34t-131 -88t-75 -149.5t-34.5 -190.5t-8 -236.5t8 -236.5t35.5 -187.5t77 -145.5t131.5 -85t196 -32q70 0 166 10.5t160 22.5l63 10 l7 -73q-227 -41 -396 -41q-162 0 -267 50t-162.5 153.5t-79 233.5t-21.5 320z" />
<glyph unicode="&#x422;" horiz-adv-x="1064" d="M0 1419v72h1065v-72h-492v-1419h-77v1419h-496z" />
<glyph unicode="&#x425;" horiz-adv-x="1236" d="M86 0l481 739l-481 752h90l445 -694l440 694h92l-475 -752l475 -739h-92l-438 686l-447 -686h-90z" />
<glyph unicode="&#x430;" horiz-adv-x="1101" d="M117 291q0 139 69.5 216t225.5 91l403 43v111q0 137 -58.5 198.5t-176.5 61.5q-68 0 -169.5 -9.5t-166.5 -19.5l-68 -8l-6 72q240 37 410 36q311 0 311 -331v-611q8 -78 160 -90l-4 -67q-160 0 -220 84q-199 -86 -440 -86q-127 0 -198.5 79.5t-71.5 229.5zM197 291 q0 -115 52 -178.5t140 -63.5q94 0 200.5 21.5t166.5 42.5l59 22v436l-395 -39q-223 -22 -223 -241z" />
<glyph unicode="&#x435;" horiz-adv-x="1079" d="M127 532q0 551 430 551q203 0 304.5 -120.5t101.5 -389.5v-71h-756q0 -229 72.5 -341t250.5 -112l388 19l4 -68q-238 -18 -394 -18q-225 2 -313 136.5t-88 413.5zM207 571h678q0 240 -78 342.5t-250 102.5q-350 -1 -350 -445z" />
<glyph unicode="&#x43e;" horiz-adv-x="1120" d="M127 555q0 295 99.5 411.5t338.5 116.5q219 0 323.5 -122.5t104.5 -409.5q0 -313 -88 -441t-340 -128q-260 0 -349 122.5t-89 450.5zM207 555q0 -147 11 -234.5t50 -154t108.5 -92t188.5 -25.5q115 0 185.5 28.5t106.5 98.5t46 153t10 222q0 252 -84 358.5t-264 106.5 q-207 0 -282.5 -97.5t-75.5 -363.5z" />
<glyph unicode="&#x43f;" d="M8 963v73q53 12 133 18.5t133 8.5l54 2h460q203 0 308 35v-76q-74 -25 -224 -31v-665q0 -160 43 -208t168 -48v-72q-164 0 -224 67.5t-60 260.5v663h-434l-62 -991h-76l62 991q-201 -3 -281 -28z" />
<glyph unicode="&#x440;" horiz-adv-x="1148" d="M215 -489v1554h74v-90q20 14 54 31.5t132 47t182 29.5q193 0 279 -130t86 -406q0 -299 -103.5 -432t-347.5 -133q-145 0 -282 28v-499h-74zM289 78q166 -29 282 -29q205 0 289 113.5t84 390.5q0 248 -71.5 355.5t-215.5 107.5q-174 0 -362 -111l-6 -2v-825z" />
<glyph unicode="&#x441;" horiz-adv-x="929" d="M127 555q0 295 98.5 411.5t339.5 116.5l254 -20l-4 -68q-170 20 -250 21q-203 0 -280.5 -102.5t-77.5 -358.5q0 -287 70.5 -396.5t287.5 -109.5l254 19l4 -68q-178 -18 -258 -18q-260 0 -349 121.5t-89 451.5z" />
<glyph unicode="&#x443;" horiz-adv-x="1021" d="M74 1065h80l313 -997h86l315 997h80l-487 -1554h-80l154 489h-129z" />
<glyph unicode="&#x445;" horiz-adv-x="970" d="M82 0l358 532l-358 533h84l319 -475l320 475h86l-361 -533l361 -532h-88l-318 475l-317 -475h-86z" />
<glyph unicode="&#x2010;" horiz-adv-x="935" d="M127 563v72h682v-72h-682z" />
<glyph unicode="&#x2011;" horiz-adv-x="935" d="M127 563v72h682v-72h-682z" />
<glyph unicode="&#x2012;" horiz-adv-x="935" d="M127 563v72h682v-72h-682z" />
<glyph unicode="&#x2013;" horiz-adv-x="1064" d="M0 537v71h1065v-71h-1065z" />
<glyph unicode="&#x2014;" horiz-adv-x="2129" d="M0 537v71h2130v-71h-2130z" />
<glyph unicode="&#x2018;" horiz-adv-x="360" d="M76 1122l104 426h64l-86 -426h-82z" />
<glyph unicode="&#x2019;" horiz-adv-x="360" d="M117 1122l86 426h80l-105 -426h-61z" />
<glyph unicode="&#x201a;" horiz-adv-x="360" d="M96 -180l105 426h61l-86 -426h-80z" />
<glyph unicode="&#x201c;" horiz-adv-x="598" d="M33 1122l104 426h62l-86 -426h-80zM315 1122l105 426h61l-86 -426h-80z" />
<glyph unicode="&#x201d;" horiz-adv-x="620" d="M117 1122l86 426h80l-105 -426h-61zM424 1122l86 426h80l-105 -426h-61z" />
<glyph unicode="&#x201e;" horiz-adv-x="638" d="M96 -180l105 426h61l-86 -426h-80zM416 -180l104 426h62l-86 -426h-80z" />
<glyph unicode="&#x2026;" horiz-adv-x="1583" d="M227 0v170h86v-170h-86zM768 0v170h86v-170h-86zM1311 0v170h84v-170h-84z" />
<glyph unicode="&#x2039;" horiz-adv-x="532" d="M49 498v77l357 275v-84l-289 -225l289 -250v-86z" />
<glyph unicode="&#x203a;" horiz-adv-x="532" d="M127 205v86l289 250l-289 225v84l356 -275v-77z" />
<glyph unicode="&#x20ac;" d="M10 522v72h133q-2 35 -2 111q0 90 2 133h-133v71h137q20 272 135 402.5t390 130.5q201 0 372 -41l-8 -74q-193 43 -364 43q-238 0 -332 -110.5t-113 -350.5l664 -2v-69h-668q-2 -43 -2 -133q0 -76 2 -111l668 -2v-70h-666q18 -246 112.5 -357.5t334.5 -111.5l364 43 l8 -73q-205 -41 -372 -41q-274 0 -390 130t-135 410h-137z" />
<glyph unicode="&#x2122;" d="M14 1257v66h426v-66h-176v-550h-69v550h-181zM516 705v618h107l178 -516l186 516h107v-618h-70v550l-186 -526h-76l-178 526v-550h-68z" />
<glyph unicode="&#xe000;" horiz-adv-x="1065" d="M0 1065h1065v-1065h-1065v1065z" />
<glyph horiz-adv-x="499" />
</font>
</defs>
</svg>
