<?xml version="1.0" standalone="no"?>
<!DOCTYPE svg PUBLIC "-//W3C//DTD SVG 1.1//EN" "http://www.w3.org/Graphics/SVG/1.1/DTD/svg11.dtd" >
<svg xmlns="http://www.w3.org/2000/svg">
<metadata>
This is a custom SVG webfont generated by Font Squirrel.
Copyright   : Copyright c 2007 by GreyscaleNet All rights reserved
Designer    : Greyscale
Foundry     : GreyscaleNet
</metadata>
<defs>
<font id="GreyscaleBasicRegular" horiz-adv-x="1042" >
<font-face units-per-em="2048" ascent="1536" descent="-512" />
<missing-glyph horiz-adv-x="585" />
<glyph unicode=" "  horiz-adv-x="585" />
<glyph unicode="&#x09;" horiz-adv-x="585" />
<glyph unicode="&#xa0;" horiz-adv-x="585" />
<glyph unicode="!" horiz-adv-x="325" d="M100 53q0 25 17.5 40.5t40.5 15.5q25 0 40 -15.5t15 -40.5q0 -23 -15.5 -38t-39.5 -15q-23 0 -40.5 15t-17.5 38zM100 514v1073q0 25 17.5 39t40.5 14q25 0 40 -14t15 -39v-1073q0 -23 -15.5 -39t-39.5 -16q-23 0 -40.5 16t-17.5 39z" />
<glyph unicode="&#x22;" horiz-adv-x="348" d="M53 1446v160q0 18 12.5 28.5t29 10.5t29.5 -10.5t13 -28.5v-160q0 -18 -13 -28.5t-29.5 -10.5t-29 10.5t-12.5 28.5zM207 1446v160q0 18 11 28.5t27.5 10.5t30 -10.5t13.5 -28.5v-160q0 -18 -13.5 -28.5t-30 -10.5t-27.5 10.5t-11 28.5z" />
<glyph unicode="#" horiz-adv-x="1007" d="M96 612q0 25 12.5 38.5t36.5 13.5h82v311h-82q-25 0 -37 16.5t-12 40.5q0 23 12.5 37t36.5 14h82v91q0 25 14.5 42t39.5 17q23 0 39 -17.5t16 -41.5v-91h338v91q0 25 14 42t39 17t41 -17.5t16 -41.5v-91h76q23 0 38 -14t15 -37q0 -25 -15 -41t-38 -16h-76v-311h76 q23 0 38 -13.5t15 -38.5q0 -61 -53 -61h-76v-90q0 -18 -16 -35.5t-41 -17.5t-39 17t-14 36v90h-338v-90q0 -18 -16.5 -35.5t-38.5 -17.5q-25 0 -39.5 17t-14.5 36v90h-82q-49 0 -49 61zM336 664h338v311h-338v-311z" />
<glyph unicode="$" horiz-adv-x="964" d="M82 262q0 25 15.5 42.5t39.5 17.5h309v497l-46 39t-40 37q-23 16 -38 35l-121 106v4q-35 37 -58.5 83t-23.5 100q0 47 19.5 93t54.5 83q37 35 83 54.5t95 19.5h75v112q0 23 14.5 38t37 15t37 -15t14.5 -38v-112h270q20 0 36.5 -18.5t16.5 -45.5q0 -23 -16 -38t-37 -15 h-270v-482q18 -18 37.5 -34.5t36.5 -28.5q20 -12 34 -25l162 -143q37 -39 56.5 -86t19.5 -96q0 -51 -19.5 -97.5t-52.5 -76.5q-80 -74 -176 -74h-98v-154q0 -25 -14.5 -39t-37 -14t-37 14.5t-14.5 38.5v154h-309q-25 0 -40 15.5t-15 33.5zM229 1223q0 -57 45 -101 q6 -4 26 -22l40 -39l55 -51q6 -4 15 -13q14 -16 36 -30v389h-75q-51 0 -97 -41q-20 -18 -32.5 -40.5t-12.5 -51.5zM549 322h98q27 0 51.5 7t44.5 27q16 25 28.5 49.5t12.5 55.5q0 23 -12 51.5t-29 52.5q-8 2 -32.5 23.5l-55.5 46.5q-35 27 -73 63q-4 2 -9 7q-4 6 -10 10 t-14 10v-403z" />
<glyph unicode="&#x26;" horiz-adv-x="1243" d="M76 465q0 104 46 197.5t128 158.5l156 125l-140 182q-63 86 -63 195q0 66 24.5 125t68.5 102t103.5 67.5t126.5 24.5q66 0 125.5 -24.5t103.5 -67.5t70.5 -102t26.5 -125q0 -68 -26.5 -131.5t-77.5 -106.5v-4h-5l-188 -155l383 -492l170 205q16 16 37.5 20.5t40.5 -12.5 q20 -13 19 -42q0 -23 -11 -40l-182 -225l182 -242q11 -17 11 -36q0 -24 -19 -37q-18 -16 -36 -16q-22 0 -42 24l-170 225l-57 -70q-63 -84 -157.5 -131t-197.5 -47q-94 0 -177 37t-143.5 99.5t-95 144.5t-34.5 174zM188 465q0 -72 28 -134.5t73 -107.5t106.5 -72.5 t130.5 -27.5q78 0 148.5 35t120.5 100l73 88l-397 510l-151 -123v-4q-63 -45 -97.5 -113.5t-34.5 -150.5zM315 1323q0 -72 43 -129l134 -178l182 147q29 33 49 71t20 89q0 41 -17 79t-47 66.5t-69 45t-84 16.5t-82.5 -16.5t-66.5 -45t-45.5 -66.5t-16.5 -79z" />
<glyph unicode="'" horiz-adv-x="253" d="M94 1446v160q0 18 11.5 28.5t28 10.5t29.5 -10.5t13 -28.5v-160q0 -18 -13 -28.5t-29.5 -10.5t-28 10.5t-11.5 28.5z" />
<glyph unicode="(" horiz-adv-x="608" d="M131 365v911q0 80 29.5 150.5t82 123t122 83t149.5 30.5q25 0 41 -15.5t16 -39.5q0 -23 -16 -38.5t-41 -15.5q-55 0 -105.5 -21.5t-87 -59t-58 -89t-21.5 -108.5v-911q0 -55 21.5 -106.5t58 -89.5t87 -60.5t105.5 -22.5q25 0 41 -14.5t16 -39t-16 -40t-41 -15.5 q-80 0 -149.5 31t-122 83t-82 123t-29.5 151z" />
<glyph unicode=")" horiz-adv-x="612" d="M39 32.5q0 24.5 14.5 39t40.5 14.5q55 0 105.5 22.5t87.5 60.5t58.5 89t21.5 107v911q0 57 -21.5 108.5t-58.5 89t-87 59t-106 21.5q-27 0 -41 15.5t-14 38.5q0 25 14.5 40t40.5 15q80 0 150.5 -30.5t123 -83t82 -123t29.5 -150.5v-911q0 -80 -29.5 -151t-82 -123 t-123 -83t-150.5 -31q-27 0 -41 15.5t-14 40z" />
<glyph unicode="*" horiz-adv-x="753" d="M97 1481q0 15 9 30q8 16 26 23.5t38 -6.5l154 -90v147q0 23 15 38t34 15q20 0 36.5 -15t16.5 -38v-147l145 90q23 14 43.5 7t26.5 -24q10 -15 10 -30q0 -4 -1 -7q-3 -19 -21 -30l-158 -96l158 -88q23 -19 23 -41q0 -14 -11 -29q-6 -23 -26.5 -27t-43.5 8l-145 95v-156 q0 -20 -16.5 -32.5t-36.5 -12.5q-18 0 -33.5 12.5t-15.5 32.5v156l-154 -95q-20 -12 -37.5 -8t-26.5 27q-13 15 -12 30q0 21 25 40l157 88l-157 96q-22 12 -22 37z" />
<glyph unicode="+" horiz-adv-x="983" d="M31 821q0 23 16 38t39 15h340v343q0 23 16.5 38t38.5 15q25 0 40.5 -15.5t15.5 -37.5v-343h335q27 0 43.5 -15t16.5 -38q0 -25 -16.5 -40t-43.5 -15h-335v-338q0 -25 -15.5 -41t-40.5 -16q-23 0 -39 16t-16 41v338h-340q-23 0 -39 15t-16 40z" />
<glyph unicode="," horiz-adv-x="327" d="M121 70q0 16 12 27.5t27 11.5q18 0 31.5 -11.5t13.5 -27.5v-205q0 -16 -13.5 -27.5t-31.5 -11.5q-14 0 -26.5 11t-12.5 28v205z" />
<glyph unicode="-" horiz-adv-x="917" d="M106 821q0 23 17.5 38t42.5 15h573q20 0 38 -15t18 -38q0 -25 -17.5 -40t-38.5 -15h-573q-25 0 -42.5 15t-17.5 40z" />
<glyph unicode="." horiz-adv-x="356" d="M109 45q0 29 17 46.5t46 17.5t47.5 -17.5t18.5 -46.5t-18.5 -45t-47.5 -16t-46 16t-17 45z" />
<glyph unicode="/" horiz-adv-x="980" d="M49 36q-4 10 -3 20q0 12 5 22l789 1534q8 23 31 27q8 2 15 2q14 0 25 -7q25 -10 31 -31q3 -9 3 -19q0 -13 -5 -25l-788 -1530q-10 -20 -32 -28q-10 -3 -20 -3q-12 0 -24 4q-19 10 -27 34z" />
<glyph unicode="0" horiz-adv-x="1431" d="M131 584v471q0 123 46 229.5t126 186t185.5 124.5t228.5 45q121 0 227.5 -45t186 -124.5t126 -186t46.5 -229.5v-471q0 -121 -46.5 -227.5t-126 -185.5t-186 -125t-227.5 -46q-123 0 -228.5 46t-185.5 125t-126 185.5t-46 227.5zM244 584q0 -98 36.5 -184.5t101 -152 t150.5 -102t185 -36.5q82 0 155.5 28.5t137.5 75.5l-643 1163q-57 -63 -90 -145t-33 -176v-471zM457 1450l633 -1159q49 63 75.5 137t26.5 156v471q0 100 -37 187t-102.5 151.5t-151.5 101.5t-184 37q-74 0 -140.5 -21.5t-119.5 -60.5z" />
<glyph unicode="1" horiz-adv-x="448" d="M4 1587.5q0 24.5 17.5 38.5t41.5 14h158q25 0 40 -14t15 -39v-1534q0 -23 -15 -38t-39.5 -15t-39 15.5t-14.5 37.5v1479h-105q-25 0 -42 15.5t-17 40z" />
<glyph unicode="2" horiz-adv-x="1138" d="M61 29q-5 12 -4 24q0 18 11 35l839 1112v2h2q39 57 39 123q0 82 -59 148q-61 59 -144 59h-622q-18 0 -35.5 15.5t-17.5 40t17 38.5t36 14h622q61 0 121 -22.5t105 -67.5q43 -43 65.5 -102t22.5 -123q0 -51 -16.5 -99t-49.5 -93l-768 -1024h791q25 0 42 -14.5t17 -41.5 q0 -23 -17.5 -38t-41.5 -15h-903q-38 0 -52 29z" />
<glyph unicode="3" horiz-adv-x="1118" d="M12 1583q0 25 16.5 41t41.5 16h551q72 0 137 -27.5t113.5 -76.5t77 -114.5t28.5 -139.5v-164q0 -94 -44 -173t-118 -124q74 -49 118 -128t44 -175v-162q0 -74 -28.5 -139t-77 -112.5t-114 -76t-136.5 -28.5h-551q-25 0 -41.5 15.5t-16.5 37.5q0 25 16.5 40.5t41.5 15.5 h551q51 0 95 19t76.5 53t52 78t19.5 97v162q0 96 -59.5 165t-151.5 79h-442q-27 0 -41 16.5t-14 40.5v2q0 53 55 53h442q92 16 151.5 83t59.5 161v164q0 53 -19.5 97t-52 77t-76.5 52.5t-95 19.5h-551q-25 0 -41.5 17.5t-16.5 37.5z" />
<glyph unicode="4" horiz-adv-x="1206" d="M12 690q0 53 25.5 108.5t68.5 100.5v4l691 721q18 16 41 16h96q23 0 38 -14t15 -39v-1038h49q25 0 41.5 -16.5t16.5 -39t-16.5 -39t-41.5 -16.5h-49v-385q0 -23 -15.5 -38t-37.5 -15q-25 0 -40 15.5t-15 37.5v385h-615q-51 0 -97 20.5t-80 54.5t-54.5 80t-20.5 97z M123 690q0 -55 43 -98t98 -43h615v983h-19l-672 -705q-29 -33 -47 -69.5t-18 -67.5z" />
<glyph unicode="5" horiz-adv-x="1167" d="M78 1186v270q0 78 55 131q25 29 58.5 41t70.5 12h309h455q25 0 40 -14t15 -38.5t-15 -40t-40 -15.5h-455h-309q-14 0 -27.5 -6t-21.5 -15q-23 -33 -23 -55v-270q0 -41 15.5 -78t42.5 -66q66 -61 143 -61h8h303q82 0 153 -30.5t124 -82t84 -122t31 -152.5v-207 q0 -82 -31 -151.5t-84 -122t-124 -83t-153 -30.5h-565q-23 0 -40 15.5t-17 37.5q0 25 17.5 40.5t39.5 15.5h565q57 0 108.5 21.5t89.5 59t59.5 89t21.5 108.5v207q0 57 -21.5 107.5t-59.5 87t-89 58t-109 21.5h-311h-2l-4 4q-127 4 -213 89q-94 98 -94 225z" />
<glyph unicode="6" horiz-adv-x="1351" d="M152 387v868q0 80 30.5 151t83.5 123t124 81.5t151 29.5h256q80 0 150.5 -29.5t123.5 -81.5t84 -123t31 -151q0 -25 -17.5 -41t-42 -16t-39 16.5t-14.5 40.5q0 55 -22.5 106.5t-60.5 89.5t-87 59.5t-106 21.5h-256q-57 0 -107.5 -21.5t-87.5 -59.5t-59.5 -89t-22.5 -107 v-282q111 115 277 114h295q80 0 150.5 -30.5t122.5 -82.5t83 -122t31 -152v-313q0 -82 -31 -151.5t-83 -122t-123 -83t-150 -30.5h-295q-80 0 -151 30.5t-124 83t-83.5 122t-30.5 151.5zM264 387q0 -57 22.5 -108.5t59.5 -89t87 -59t108 -21.5h295q57 0 106 21.5t86 59 t59.5 89t22.5 108.5v313q0 57 -22.5 108.5t-59.5 89.5t-86 59.5t-106 21.5h-295q-57 0 -107.5 -21.5t-87.5 -59.5t-59.5 -89t-22.5 -109v-313z" />
<glyph unicode="7" horiz-adv-x="1050" d="M12 1587.5q0 24.5 16.5 38.5t39.5 14h661q115 0 186 -77q78 -78 78 -187q0 -25 -4 -47t-10 -47v-4l-530 -1245q-6 -25 -29 -32q-11 -3 -20 -3q-10 0 -19 4q-25 10 -33 29.5t2 44.5l522 1247q8 23 9 53q0 63 -41 111q-47 41 -111 41l-661 4q-23 0 -39.5 15.5t-16.5 40z " />
<glyph unicode="8" horiz-adv-x="1318" d="M125 387v213q0 111 59.5 203t153.5 139q-55 45 -88 110.5t-33 141.5v125q0 66 24.5 125t69.5 103t103.5 68.5t126.5 24.5h241q63 0 123 -24.5t104 -68.5t68.5 -103.5t24.5 -124.5v-125q0 -76 -32 -141.5t-89 -110.5q96 -47 154.5 -139t58.5 -203v-213q0 -82 -30.5 -151.5 t-83 -122t-124 -83t-151.5 -30.5h-295q-80 0 -149.5 30.5t-122 83t-83 122t-30.5 151.5zM238 387q0 -57 21.5 -108.5t58 -89t87 -59t105.5 -21.5h295q57 0 108.5 21.5t89 59t59 89t21.5 108.5v213q0 53 -21.5 103.5t-59 88t-89 59t-108.5 21.5h-295q-55 0 -105.5 -21.5 t-87 -59t-58 -88t-21.5 -103.5v-213zM328 1194q0 -43 16 -81t46 -67.5t69 -47t82 -17.5h239h2q43 0 81 17.5t68 47t46 67.5t16 81v125q0 45 -16 83t-46 66.5t-68 46t-81 17.5h-241q-43 0 -82 -17.5t-69 -46t-46 -66.5t-16 -83v-125z" />
<glyph unicode="9" horiz-adv-x="1349" d="M131 1036v219q0 80 29.5 151t82 123t123 81.5t150.5 29.5h295q82 0 152.5 -29.5t122 -81.5t82 -123t30.5 -151v-868q0 -82 -30.5 -151.5t-82 -122t-122 -83t-152.5 -30.5h-258q-80 0 -150.5 30.5t-123 83t-82 122t-29.5 151.5q0 23 16.5 38t41 15t40 -15t15.5 -38 q0 -57 21.5 -108.5t58 -89t87 -59t105.5 -21.5h258q57 0 107.5 21.5t87 59t58 89t21.5 108.5v379q-49 -55 -120.5 -85t-153.5 -30h-295q-80 0 -150.5 31t-123 83t-82 120.5t-29.5 150.5zM244 1036q0 -57 21.5 -107t58 -87t87 -58.5t105.5 -21.5h295q57 0 107.5 21.5t87 58.5 t58 87t21.5 107v219q0 55 -21.5 106.5t-58 89.5t-87 59.5t-107.5 21.5h-295q-55 0 -105.5 -21.5t-87 -59.5t-58 -89t-21.5 -107v-219z" />
<glyph unicode=":" horiz-adv-x="405" d="M147 438.5q0 24.5 15.5 40t40.5 15.5q23 0 39 -15.5t16 -40t-16.5 -40t-38.5 -15.5q-25 0 -40.5 15.5t-15.5 40zM147 821q0 23 15.5 38t40.5 15q23 0 39 -15t16 -38q0 -25 -16.5 -40t-38.5 -15q-25 0 -40.5 15t-15.5 40z" />
<glyph unicode=";" horiz-adv-x="403" d="M147 821q0 23 15.5 38t40.5 15q23 0 40 -15t17 -38q0 -25 -17.5 -40t-39.5 -15q-25 0 -40.5 15t-15.5 40zM164 293v225q0 18 11 28.5t27.5 10.5t30 -10t13.5 -29v-225q0 -16 -13.5 -27.5t-30 -11.5t-27.5 11.5t-11 27.5z" />
<glyph unicode="&#x3c;" horiz-adv-x="718" d="M12 821q0 23 21 43l463 381q14 13 33 13q3 0 6 -1q23 -2 36 -20q13 -13 13 -31q0 -29 -21 -45l-405 -340l405 -342q21 -21 21 -46q0 -17 -13 -32q-14 -16 -36 -20q-4 -1 -8 -1q-18 0 -31 15l-463 381q-21 25 -21 45z" />
<glyph unicode="=" horiz-adv-x="1038" d="M160 821q0 23 17.5 38t41.5 15h606q18 0 36 -15t18 -38q0 -25 -17.5 -40t-36.5 -15h-606q-25 0 -42 15t-17 40zM160 1011.5q0 24.5 17.5 39t41.5 14.5h606q18 0 36 -14.5t18 -39t-17.5 -40t-36.5 -15.5h-606q-25 0 -42 15.5t-17 40z" />
<glyph unicode="&#x3e;" horiz-adv-x="716" d="M156 479l403 342l-403 340q-16 12 -20 36q-1 4 0 8q0 18 11 32q18 18 40 20q3 0 6 1q18 0 32 -13l463 -381q6 -8 11.5 -20.5t5.5 -22.5q0 -12 -6 -22l-11 -23l-463 -381q-13 -15 -30 -15q-4 0 -8 1q-22 4 -40 20q-12 15 -11 33q0 25 20 45z" />
<glyph unicode="?" horiz-adv-x="897" d="M12 1587.5q0 24.5 15.5 38.5t40.5 14h432q80 0 150.5 -29.5t122.5 -81.5t82 -123t30 -151q0 -82 -30 -151.5t-82 -121.5t-122.5 -83t-150.5 -31q-86 0 -146 -57q-29 -31 -44 -68.5t-15 -80.5v-132q0 -27 -17.5 -43t-35.5 -16q-27 0 -43.5 16.5t-16.5 42.5v132 q0 63 23.5 122.5t68.5 104.5q92 92 226 92q55 0 105 21.5t88 58.5t59.5 87t21.5 107q0 55 -21.5 106.5t-59.5 89.5t-88 59.5t-105 21.5h-432q-25 0 -40.5 15.5t-15.5 40zM182 53q0 25 16.5 40.5t43.5 15.5q18 0 35.5 -15.5t17.5 -40.5q0 -23 -17.5 -38t-35.5 -15 q-27 0 -43.5 15t-16.5 38z" />
<glyph unicode="@" horiz-adv-x="1785" d="M143 442q0 -23 14.5 -39t39 -16t40 16.5t15.5 38.5q0 -96 37 -183t102.5 -151.5t151.5 -102.5t186 -38l336 2q57 0 97 39t40 96v183q-23 -6 -39 -6h-145h-264q-100 0 -176 71q-35 37 -54.5 82t-19.5 96v193q0 49 19.5 94t54 78t78.5 52.5t98 19.5h123h92h102 q37 0 68.5 -9.5t62.5 -29.5v6v174q0 47 -39 90q-37 39 -98 39h-96h-47h-228v-84q0 -25 -16 -41t-39 -16t-39 16t-16 41v141q0 23 16 39.5t39 16.5h283h47h96q104 0 176 -72q37 -35 54.5 -79t17.5 -91v-174v-207v-4v-6v-381v-232q0 -53 -18.5 -97t-52.5 -77.5t-79 -53 t-98 -19.5l-336 -2q-121 0 -228.5 47t-187.5 125.5t-125 186t-45 228.5zM143 442v750q0 119 45 225.5t125 187.5t187.5 126t228.5 45h221h129q119 0 225.5 -44t190.5 -128t127 -189.5t43 -222.5v-168v-674q0 -23 -15.5 -39t-37.5 -16q-25 0 -42.5 16.5t-17.5 38.5v674v168 q0 94 -34.5 179t-102.5 155q-70 70 -153.5 103.5t-182.5 33.5h-129h-221q-100 0 -186 -37t-151.5 -101.5t-102.5 -149.5t-37 -183v-750q0 -23 -15.5 -39t-40 -16t-39 16t-14.5 39zM616 530q0 -55 39 -98q45 -39 99 -39h264h145q18 0 28.5 10.5t10.5 28.5v14v281 q-2 55 -40 91t-91 36h-102h-92h-123q-57 0 -97.5 -37t-40.5 -94v-193z" />
<glyph unicode="A" horiz-adv-x="1497" d="M86 74l526 1530q14 39 52 38h170q41 0 51 -38l532 -1530q1 -8 2 -15q0 -15 -6 -28q-8 -20 -33 -29q-9 -4 -18 -4q-12 0 -24 6q-22 10 -27 35l-176 502h-770l-172 -502q-8 -25 -29 -35q-11 -6 -24 -6q-10 0 -19 4q-23 8 -33 29q-6 11 -6 23q0 10 4 20zM401 653h697 l-303 879h-90z" />
<glyph unicode="B" horiz-adv-x="1411" d="M166 53v1534q0 25 15.5 40t41.5 15h537q80 0 150.5 -29.5t122.5 -81.5t83 -122t31 -149v-27q0 -86 -36 -160t-95 -129q61 -16 113.5 -51t90 -84t58 -109.5t20.5 -128.5v-184q0 -82 -30.5 -151.5t-82.5 -122t-123 -83t-151 -30.5h-688q-27 0 -42 15t-15 38zM279 113h632 q57 0 108.5 21.5t89.5 58t59.5 87t21.5 107.5v184q0 55 -21.5 106.5t-59.5 89.5t-89 59.5t-109 21.5h-151h-481v-735zM279 956h481q57 0 106 22.5t86 59.5t59.5 88.5t22.5 106.5v27q0 55 -22.5 105t-59.5 87t-86 58.5t-106 21.5h-481v-576z" />
<glyph unicode="C" horiz-adv-x="1085" d="M121 586v471q0 123 46 228.5t125 186t186.5 125.5t230.5 45h295q23 0 39 -15t16 -39.5t-16.5 -40t-38.5 -15.5h-295q-98 0 -185.5 -37t-153 -101.5t-102.5 -151.5t-37 -185v-471q0 -197 142 -334q66 -70 151.5 -104.5t184.5 -34.5h297q23 0 38 -17.5t15 -42.5 q0 -23 -15.5 -38t-37.5 -15h-297q-119 0 -226.5 43t-189.5 127t-127 191.5t-45 224.5z" />
<glyph unicode="D" horiz-adv-x="1396" d="M166 53v1534q0 25 14.5 40t38.5 15h465q121 0 228.5 -45t187.5 -125.5t126 -186t46 -228.5v-471q0 -121 -46 -227.5t-126 -185.5t-187.5 -126t-228.5 -47h-465q-25 0 -39 15t-14 38zM274 113h410q98 0 184 36.5t151.5 102t102.5 150.5t37 184v471q0 96 -36 183t-105 151 q-66 70 -151 105.5t-183 35.5h-410v-1419z" />
<glyph unicode="E" horiz-adv-x="1202" d="M166 53v1534q0 25 14.5 40t38.5 15h918q25 0 41 -15t16 -39.5t-16.5 -40t-40.5 -15.5h-863v-578h762q23 0 39.5 -16t16.5 -39q0 -25 -16.5 -41t-39.5 -16h-762v-729h863q25 0 41 -17.5t16 -42.5q0 -23 -16.5 -38t-40.5 -15h-918q-25 0 -39 15t-14 38z" />
<glyph unicode="F" horiz-adv-x="1193" d="M166 53v1534q0 25 15.5 40t37.5 15h920q25 0 40 -15t15 -39.5t-15.5 -40t-39.5 -15.5h-860v-578h759q23 0 38.5 -16t15.5 -39q0 -25 -15.5 -41t-38.5 -16h-759v-789q0 -23 -17.5 -38t-42.5 -15q-23 0 -38 15t-15 38z" />
<glyph unicode="G" horiz-adv-x="1413" d="M131 586v471q0 123 46 228.5t126 186t185.5 125.5t228.5 45q168 0 306 -84.5t214 -232.5q12 -20 6 -42.5t-26 -33.5q-23 -12 -44.5 -4t-33.5 29q-61 123 -173 190.5t-249 67.5q-98 0 -184.5 -37t-151 -101.5t-101 -151.5t-36.5 -185v-471q0 -98 36.5 -183.5t101 -151 t150.5 -102t184.5 -36.5t184.5 36.5t151.5 102t102.5 150.5t37 184v180h-203q-23 0 -38 15.5t-15 39.5q0 23 15.5 40.5t37.5 17.5h256q25 0 45 -19q14 -16 15 -39v-235q0 -121 -47.5 -227.5t-126 -185.5t-186 -126t-228.5 -47q-123 0 -228.5 47t-185.5 126t-126 185.5 t-46 227.5z" />
<glyph unicode="H" horiz-adv-x="1505" d="M166 53v1534q0 25 15.5 40t40 15t41 -15t16.5 -40v-622h954v622q0 25 15.5 40t39.5 15q23 0 38 -15t15 -40v-1534q0 -23 -15 -38t-38 -15q-25 0 -40 15.5t-15 37.5v799h-954v-799q0 -23 -16.5 -38t-41 -15t-40 15t-15.5 38z" />
<glyph unicode="I" horiz-adv-x="462" d="M166 53v1534q0 25 15.5 40t40 15t41 -15t16.5 -40v-1534q0 -23 -16.5 -38t-41 -15t-40 15t-15.5 38z" />
<glyph unicode="J" horiz-adv-x="774" d="M0 53q0 25 16.5 42.5t40.5 17.5q96 0 183.5 36.5t153 102t102 150.5t36.5 184v1001q0 25 15.5 40t38.5 15q25 0 40 -15t15 -40v-1001q0 -121 -46 -227.5t-125 -185.5t-185.5 -126t-227.5 -47q-25 0 -41 15t-16 38z" />
<glyph unicode="K" horiz-adv-x="1443" d="M166 53v1534q0 25 14.5 40t38.5 15q27 0 43.5 -15t16.5 -40v-633h325l613 672q16 16 38 18h3q21 0 38.5 -15.5t17.5 -40.5q0 -22 -16 -38l-602 -655l584 -807q12 -18 9 -40.5t-23 -39.5q-12 -9 -29 -9q-5 0 -11 1q-24 4 -40 23l-586 819h-321v-789q0 -23 -16.5 -38 t-43.5 -15q-25 0 -39 15t-14 38z" />
<glyph unicode="L" horiz-adv-x="1179" d="M166 53v1534q0 25 15.5 40t41.5 15q25 0 40.5 -15t15.5 -40v-1474h843q25 0 42.5 -17.5t17.5 -42.5q0 -23 -17.5 -38t-42.5 -15h-872h-17h-10q-27 0 -42 15t-15 38z" />
<glyph unicode="M" horiz-adv-x="1744" d="M166 53v1534q0 25 14.5 40t38.5 15h131q27 0 45 -22l506 -700l445 698q20 25 51 24h127q25 0 41 -15t16 -40v-1534q0 -23 -16.5 -38t-41 -15t-40 15.5t-15.5 37.5v1479h-43l-477 -739q-18 -27 -45 -27q-31 0 -45 22l-539 744h-40v-1479q0 -23 -17.5 -38t-42 -15t-39 15 t-14.5 38z" />
<glyph unicode="N" horiz-adv-x="1490" d="M166 53v1534q0 25 15.5 40t39.5 15h137q35 0 48 -28l759 -1501h49v1474q0 25 15.5 40t40 15t41 -15t16.5 -40v-1534q0 -23 -16.5 -38t-40.5 -15h-137q-35 0 -50 31l-761 1501h-43v-1479q0 -23 -16.5 -38t-41 -15t-40 15t-15.5 38z" />
<glyph unicode="O" horiz-adv-x="1431" d="M131 586v471q0 123 45 228.5t125 186t186.5 125.5t229.5 45q119 0 225.5 -43t190.5 -124q84 -86 127 -193.5t43 -224.5v-471q0 -121 -46.5 -227.5t-126 -185.5t-186 -126t-227.5 -47q-123 0 -229.5 47t-186.5 126t-125 185.5t-45 227.5zM244 586q0 -98 36.5 -183.5 t101 -151t150.5 -102t184.5 -36.5t184.5 36.5t151.5 102t102.5 150.5t37 184v471q0 96 -36 183t-105 151q-66 70 -151 105.5t-183.5 35.5t-184.5 -37t-150.5 -101.5t-101 -151.5t-36.5 -185v-471z" />
<glyph unicode="P" horiz-adv-x="1234" d="M166 53v1534q0 25 17.5 40t39.5 15h2h512q98 0 186.5 -37.5t154 -102t103.5 -151.5t38 -187.5t-38 -186.5t-103.5 -151.5t-153.5 -102.5t-187 -37h-458v-633q0 -23 -15.5 -38t-40.5 -15q-23 0 -40 15t-17 38zM279 797h458q78 0 143.5 29.5t116 78.5t80 115.5t29.5 142.5 t-29.5 143.5t-80 118t-116 79t-143.5 28.5h-458v-735z" />
<glyph unicode="Q" horiz-adv-x="1449" d="M131 586v471q0 123 45 228.5t126 186t186.5 125.5t228.5 45q117 0 224.5 -43t191.5 -124q84 -86 127 -193.5t43 -224.5v-471q0 -104 -36 -199.5t-100 -173.5l123 -119q16 -16 16.5 -37.5t-16.5 -40.5q-18 -16 -41.5 -16t-40.5 16l-118 121q-76 -63 -170.5 -100 t-202.5 -37q-123 0 -228.5 47t-186.5 126t-126 185.5t-45 227.5zM242 586q0 -98 36.5 -183.5t101 -151t151.5 -102t185.5 -36.5t183.5 36.5t150.5 102t102.5 150.5t37 184v471q0 96 -35 183t-104 151q-137 141 -334 141q-98 0 -185.5 -37t-152 -101.5t-101 -151.5 t-36.5 -185v-471z" />
<glyph unicode="R" horiz-adv-x="1351" d="M166 53v1534q0 25 14.5 40t38.5 15h4h510q100 0 187.5 -37.5t152 -102t103 -151.5t38.5 -188q0 -86 -29.5 -164.5t-80.5 -140t-122 -104.5t-151 -62l383 -608q7 -12 8 -26q0 -6 -1 -12q-4 -22 -25 -38q-13 -9 -29 -8q-6 0 -13 1q-24 5 -34 28l-418 657h-428v-633 q0 -23 -15 -38t-39.5 -15t-39 15t-14.5 38zM274 797h459q76 0 143.5 29.5t117.5 78.5t78 115.5t28 142.5t-28 143.5t-78 118t-117.5 79t-143.5 28.5h-459v-735z" />
<glyph unicode="S" horiz-adv-x="1140" d="M66 53q0 25 15 42.5t38 17.5h637q86 0 143 59t57 145t-59 146l-723 637q-45 47 -71.5 106.5t-26.5 122.5q0 61 23.5 119.5t68.5 103.5q94 90 225 90h635q25 0 41 -15q15 -14 15 -34q0 -30 -15.5 -45.5t-40.5 -15.5h-635q-82 0 -145 -57q-59 -63 -60 -146q0 -86 62 -145 l721 -639q51 -45 75.5 -104.5t24.5 -123.5q0 -68 -25.5 -125t-68.5 -100t-99.5 -67.5t-121.5 -24.5h-637q-23 0 -38 17.5t-15 35.5z" />
<glyph unicode="T" horiz-adv-x="1165" d="M39 1587.5q0 24.5 16.5 39.5t40.5 15h977q23 0 38 -15t15 -39.5t-15 -40t-38 -15.5h-430v-1479q0 -23 -16.5 -38t-40.5 -15q-23 0 -38.5 15.5t-15.5 37.5v1479h-436q-25 0 -41 15.5t-16 40z" />
<glyph unicode="U" horiz-adv-x="1466" d="M147 586v1001q0 25 16.5 40t41.5 15q23 0 39 -15t16 -40v-1001q0 -98 37 -183.5t102.5 -151t151.5 -102t182 -36.5q98 0 185.5 36.5t152 102t102 150.5t37.5 184v1001q0 25 15.5 40t40 15t39 -15t14.5 -40v-1001q0 -121 -45 -227.5t-124 -185.5t-186.5 -126t-230.5 -47 q-121 0 -227.5 47t-185 126t-126 185.5t-47.5 227.5z" />
<glyph unicode="V" horiz-adv-x="1495" d="M82 1567q-2 9 -2 17q0 14 6 27q10 19 31 29q11 4 21 4q12 0 23 -6q19 -10 27 -30l539 -1495h37l543 1495q8 20 28 30q10 5 21 5.5t22 -5.5q25 -8 34 -27q4 -9 4 -20q0 -12 -5 -24l-553 -1530q-16 -37 -55 -37h-115q-39 0 -53 37z" />
<glyph unicode="W" horiz-adv-x="2095" d="M121 1573q-2 9 -2 17q0 15 7 27q11 19 34 23q9 3 18 4q14 0 26 -9q19 -13 23 -33l373 -1489h31l379 1489q6 41 53 40q18 0 33.5 -11t19.5 -29l359 -1489h32l365 1489q6 20 25 33q12 8 27 9q9 0 18 -4q23 -4 33 -23q8 -14 9 -31q0 -6 -2 -13l-378 -1530 q-4 -18 -20.5 -30.5t-33.5 -12.5h-118q-45 0 -56 43l-317 1309l-330 -1309q-14 -43 -53 -43h-123q-41 0 -51 43z" />
<glyph unicode="X" horiz-adv-x="1454" d="M142 56q0 16 8 32l509 735l-505 733q-12 16 -10.5 41t24.5 37q12 7 27 8q6 0 13 -2q24 -4 38 -20l481 -694l481 694q12 16 36 20q7 1 13 2q16 0 29 -8q16 -12 20.5 -36.5t-6.5 -41.5l-507 -733l512 -735q8 -16 7 -32v-10q-3 -22 -22 -38q-14 -9 -30 -8q-6 0 -13 1 q-23 5 -39 24l-481 702l-483 -702q-14 -18 -38 -24q-7 -2 -13 -1q-15 0 -27 8q-24 20 -24 48z" />
<glyph unicode="Y" horiz-adv-x="1286" d="M63 1597q4 25 21 37q16 7 32 8q6 0 12 -2q22 -4 38 -20l479 -694l483 694q10 16 34 20q7 1 13 2q16 0 29 -8q20 -12 24 -37q1 -6 0 -10q0 -17 -7 -31l-519 -749v-754q0 -23 -15 -38t-39.5 -15t-41 15.5t-16.5 37.5v754q-4 4 -6 8t-6 8l-504 733q-11 13 -11 31q-1 5 0 10z " />
<glyph unicode="Z" horiz-adv-x="1181" d="M57 1587.5q0 24.5 17.5 39.5t38.5 15h950q23 0 39 -16q16 -14 16 -39v-110q0 -23 -8 -33l-940 -1313v-18h893q25 0 40 -17.5t15 -42.5q0 -23 -15.5 -38t-39.5 -15h-950q-18 0 -41 16q-14 20 -15 37v97q4 8 6.5 17t6.5 15l936 1313v37h-893q-20 0 -38 15.5t-18 40z" />
<glyph unicode="[" horiz-adv-x="634" d="M152 229v1178q0 53 19 100t53 82t81 54.5t98 19.5h129q23 0 38.5 -15.5t15.5 -39.5q0 -23 -15.5 -38.5t-38.5 -15.5h-129q-55 0 -98 -42t-43 -105v-1178q0 -57 43 -100t98 -43h129q23 0 38.5 -14.5t15.5 -39t-15.5 -40t-38.5 -15.5h-129q-51 0 -98 19.5t-81 54.5t-53 81 t-19 97z" />
<glyph unicode="\" horiz-adv-x="692" d="M25 1677q-1 6 -2 13q0 14 7 29q9 22 31 30q7 1 14 1q15 0 29 -6q20 -9 27 -30l526 -1640q5 -11 5 -22q0 -13 -7 -24q-12 -22 -32 -26q-9 -2 -18 -2q-13 0 -25 5q-20 9 -31 34z" />
<glyph unicode="]" horiz-adv-x="636" d="M45 32.5q0 24.5 16.5 39t38.5 14.5h129q61 0 102.5 43t41.5 100v1178q0 63 -41 105t-103 42h-129q-23 0 -39 15.5t-16 38.5q0 25 16.5 40t38.5 15h129q53 0 99.5 -19.5t80 -54.5t53 -82t19.5 -100v-1178q0 -51 -19.5 -97t-53 -81t-79.5 -54.5t-100 -19.5h-129 q-23 0 -39 15.5t-16 40z" />
<glyph unicode="^" horiz-adv-x="980" d="M53 1118q0 18 15 33l381 463q25 18 45 18q23 0 43 -18l381 -463q13 -16 12 -35v-6q-2 -23 -21 -35q-13 -15 -31 -15q-4 0 -9 1q-24 4 -35 22l-340 404l-342 -404q-16 -18 -38 -22q-4 -1 -8 -1q-17 0 -32 15q-21 16 -21 43z" />
<glyph unicode="_" horiz-adv-x="1028" d="M156 53q0 25 16 40.5t41 15.5h606q18 0 35.5 -15.5t17.5 -40.5q0 -23 -17 -38t-36 -15h-606q-25 0 -41 15t-16 38z" />
<glyph unicode="`" horiz-adv-x="573" d="M201 1923q14 16 37 17q1 0 2 1q21 0 36 -18l82 -82q15 -17 16 -37v-3q-1 -22 -16 -36q-18 -18 -41 -19h-2q-21 0 -36 15l-82 82q-15 15 -16 37q0 26 20 43z" />
<glyph unicode="a" d="M92 340q0 70 25.5 132.5t72.5 111.5q49 47 112 73.5t132 26.5h182h56q43 0 73 29q25 27 25 71v7v30q0 57 -39 97q-16 18 -40.5 28t-51.5 10h-100h-45h-267q-25 0 -41 15.5t-16 40t16.5 39t40.5 14.5h267h45h100q47 0 92 -16.5t80 -51.5q72 -72 72 -176v-170v-598 q0 -23 -14.5 -38t-39 -15t-42 15.5t-17.5 37.5v35q-94 -88 -229 -88h-107q-72 0 -133 26.5t-108.5 72.5t-74 107.5t-26.5 133.5zM205 340q0 -47 18.5 -89t48 -74t72.5 -50t90 -18h107q45 0 88 18t71 49q70 70 70 164v260q-23 -18 -48.5 -23.5t-49.5 -5.5h-56h-182 q-98 0 -163.5 -66.5t-65.5 -164.5z" />
<glyph unicode="b" horiz-adv-x="983" d="M166 51v959v2v577q0 25 14.5 39t38.5 14q27 0 42 -14t15 -39v-524h246q86 0 165 -30.5t140 -94.5q63 -61 94 -139t31 -162v-211q0 -88 -30.5 -166t-94.5 -139q-61 -57 -140 -90t-165 -33h-260l-43 -2q-8 0 -20.5 3t-18.5 11q-14 16 -14 39zM276 109h246q133 0 226 96 q45 43 68.5 101.5t23.5 121.5v211q0 131 -92 225q-45 43 -102.5 67.5t-123.5 24.5h-246v-847z" />
<glyph unicode="c" horiz-adv-x="864" d="M117 418v233q0 84 32.5 161t89 133t132 88t166.5 32h194q25 0 41 -14.5t16 -39t-16 -40t-41 -15.5h-194q-63 0 -120 -23.5t-97.5 -65.5t-65.5 -97t-25 -119v-233q0 -66 25 -121t65.5 -98t97 -66.5t120.5 -23.5h194q25 0 41 -15.5t16 -40.5q0 -23 -16 -38t-41 -15h-194 q-90 0 -166 33t-132.5 89t-89 132t-32.5 164z" />
<glyph unicode="d" horiz-adv-x="985" d="M31 432v209q0 88 33.5 166t91 137.5t135.5 93t168 33.5h250v522q0 25 14 40.5t38.5 15.5t40 -15.5t15.5 -40.5v-1540q0 -8 -3 -17t-13 -22q-14 -14 -39 -14l-303 2q-90 0 -168 34t-135.5 92t-91 136t-33.5 168zM141 432q0 -66 24.5 -124t69 -101t101.5 -68.5t123 -25.5 h250v360v488h-250q-66 0 -123 -26t-101.5 -70t-69 -102t-24.5 -122v-209z" />
<glyph unicode="e" d="M125 418v233q0 82 30.5 158t94.5 135q59 61 135 91t160 30q174 0 295 -121q59 -59 91 -135t32 -158v-106q0 -25 -16.5 -41.5t-41.5 -16.5h-667v-69q0 -66 23.5 -121t65.5 -98t97 -66.5t121 -23.5h237q23 0 38.5 -15.5t15.5 -40.5q0 -23 -15.5 -38t-38.5 -15h-237 q-86 0 -163 33t-134.5 89t-90 132t-32.5 164zM238 600h610v51q0 59 -22.5 115.5t-65.5 99.5q-86 90 -215 90q-63 0 -118.5 -23.5t-98.5 -66.5t-66.5 -99t-23.5 -116v-51z" />
<glyph unicode="f" horiz-adv-x="792" d="M156 53v1245q0 72 27.5 134.5t74.5 108.5t109.5 72.5t134.5 26.5h235q25 0 41.5 -14t16.5 -38.5t-16.5 -40t-41.5 -15.5h-235q-47 0 -90 -18.5t-76 -50t-51.5 -74.5t-18.5 -91v-233h412q23 0 39 -14.5t16 -39t-16.5 -40t-38.5 -15.5h-412v-903q0 -23 -14 -38t-39 -15 t-41 15t-16 38z" />
<glyph unicode="g" horiz-adv-x="1081" d="M96 418v233q0 82 30 158t91 135q57 61 134 91t159 30q92 0 170 -34t139 -97v78q0 25 14.5 39t39 14t42 -14.5t17.5 -38.5v-979q0 -86 -34 -162t-91 -132t-135 -89t-162 -33h-277q-20 0 -36.5 15.5t-16.5 40t16.5 39t36.5 14.5h277q63 0 118.5 24.5t97.5 65.5t67.5 97 t25.5 120v98q-61 -63 -139 -97t-170 -34q-82 0 -159 31.5t-134 89.5q-61 57 -91 134t-30 163zM207 418q0 -127 86 -221q45 -41 100.5 -64.5t116.5 -23.5q63 0 118.5 23.5t97.5 66.5t67.5 98t25.5 121v233q0 63 -25.5 118.5t-67.5 97.5t-97.5 65.5t-118.5 23.5 q-121 0 -217 -90q-43 -43 -64.5 -99t-21.5 -116v-233z" />
<glyph unicode="h" d="M166 51v1538q0 25 17.5 39t35.5 14q27 0 43.5 -14t16.5 -39v-653q0 4 3 4t5 4q121 121 295 121q86 0 162.5 -32t133 -88t90 -133t33.5 -161v-598q0 -23 -16 -38t-41 -15q-23 0 -39 15.5t-16 37.5v598q0 63 -24.5 118.5t-65.5 97.5t-97.5 65.5t-119.5 23.5 q-119 0 -215 -90q-43 -43 -65.5 -99t-22.5 -116v-600q0 -20 -16.5 -36.5t-43.5 -16.5q-18 0 -35.5 16.5t-17.5 36.5z" />
<glyph unicode="i" horiz-adv-x="387" d="M131 59v953q0 25 14.5 39t39 14t41 -14.5t16.5 -38.5v-953q0 -27 -16.5 -42t-41.5 -15q-53 0 -53 57zM131 1260q0 23 14.5 38t39 15t41 -15.5t16.5 -37.5q0 -27 -16.5 -43.5t-41 -16.5t-39 16.5t-14.5 43.5z" />
<glyph unicode="j" horiz-adv-x="595" d="M0 -327.5q0 24.5 15.5 39t37.5 14.5q63 0 118.5 24.5t98.5 65.5t67.5 97t24.5 120v979q0 25 14.5 39t41.5 14q23 0 38 -14.5t15 -38.5v-979q0 -86 -32.5 -162t-90 -132t-133.5 -89t-162 -33q-23 0 -38 15.5t-15 40zM362 1260q0 23 14.5 38t41.5 15q23 0 38 -15.5 t15 -37.5q0 -27 -15.5 -43.5t-37.5 -16.5q-27 0 -41.5 16.5t-14.5 43.5z" />
<glyph unicode="k" horiz-adv-x="944" d="M166 53v1534q0 25 14.5 39t38.5 14q27 0 41 -14t14 -39v-713h187l252 183q16 12 39.5 8t35.5 -18q12 -23 10.5 -46.5t-24.5 -33.5l-227 -164l360 -725q6 -11 6 -24q0 -9 -3 -18q-7 -24 -29 -34q-10 -4 -21 -4q-10 0 -20 3q-23 7 -35 28l-365 737h-166v-713q0 -23 -14 -38 t-41 -15q-25 0 -39 15t-14 38z" />
<glyph unicode="l" horiz-adv-x="462" d="M166 59v1530q0 25 15.5 39t41.5 14q20 0 38 -14t18 -39v-1530q0 -27 -17.5 -42t-38.5 -15q-27 0 -42 15t-15 42z" />
<glyph unicode="m" horiz-adv-x="1767" d="M166 53v959q0 25 14.5 39t39 14t40.5 -14.5t16 -38.5v-37q96 90 232 90h90q90 0 166 -42t125 -112q45 70 119.5 112t165.5 42h90q70 0 132 -26.5t109 -72.5t75 -108.5t28 -134.5v-670q0 -23 -15.5 -38t-40 -15t-41 15.5t-16.5 37.5v670q0 47 -18.5 90t-49 75t-73.5 50 t-90 18h-90q-47 0 -89.5 -18t-73 -50t-49 -75t-18.5 -90v-670q0 -23 -17.5 -38t-37.5 -15q-25 0 -41.5 15.5t-16.5 37.5v670q0 47 -18 90t-51 75t-75 50t-89 18h-90q-45 0 -88 -18t-74 -48t-49 -73t-21 -88v-676q0 -23 -16 -38t-40.5 -15t-39 15t-14.5 38z" />
<glyph unicode="n" horiz-adv-x="1150" d="M166 53v959q0 25 15.5 39t40 14t41 -14.5t16.5 -38.5v-37q94 90 231 90h143q72 0 135.5 -26.5t109.5 -72.5t74.5 -108.5t28.5 -134.5v-670q0 -23 -17 -38t-38 -15q-27 0 -42 15.5t-15 37.5v670q0 47 -18.5 90t-51.5 75t-76 50t-90 18h-143q-47 0 -88 -18t-73 -48t-50 -73 t-20 -88v-676q0 -23 -16.5 -38t-41 -15t-40 15t-15.5 38z" />
<glyph unicode="o" horiz-adv-x="1085" d="M125 418v233q0 82 31.5 158t91.5 135q55 61 133 91t162 30t160.5 -29.5t134.5 -91.5q59 -59 91 -135t32 -158v-233q0 -88 -33 -164t-90.5 -132t-134 -89t-160.5 -33q-86 0 -163 33t-133.5 89t-89 132t-32.5 164zM238 418q0 -66 23.5 -121t64.5 -98t97 -66.5t119.5 -23.5 t119 23.5t97.5 66.5t67.5 98t25.5 121v233q0 59 -24.5 115.5t-67.5 99.5q-92 90 -217 90q-123 0 -219 -90q-41 -43 -63.5 -99t-22.5 -116v-233z" />
<glyph unicode="p" horiz-adv-x="1046" d="M166 -328v1340q0 25 15.5 39t40 14t41 -14.5t16.5 -38.5v-78q0 4 3 5t5 5q121 121 295 121q84 0 161.5 -29.5t133.5 -91.5q63 -59 93.5 -135t30.5 -158v-233q0 -88 -32.5 -164t-90 -132t-134 -89t-162.5 -33q-88 0 -168 34t-135 97v-459q0 -25 -16.5 -40t-41 -15t-40 15 t-15.5 40zM279 418q0 -66 23.5 -121t64.5 -98t96 -66.5t119 -23.5q66 0 121 23.5t97 66.5t66.5 98t24.5 121v233q0 59 -24.5 115.5t-65.5 99.5q-90 90 -219 90q-127 0 -215 -90q-43 -43 -65.5 -99t-22.5 -116v-233z" />
<glyph unicode="q" horiz-adv-x="1044" d="M43 418v233q0 82 31.5 158t91.5 135q55 61 132 91t163 30q90 0 169 -34t138 -97v78q0 25 15.5 39t39.5 14q23 0 38.5 -14.5t15.5 -38.5v-1340q0 -25 -15.5 -40t-38.5 -15q-25 0 -40 15.5t-15 39.5v459q-59 -63 -138 -97t-169 -34q-88 0 -164 33t-132 89t-89 132t-33 164z M154 418q0 -66 24.5 -121t65.5 -98t97 -66.5t120 -23.5q61 0 117.5 23.5t98.5 66.5t66.5 98t24.5 121v233q0 63 -24.5 118.5t-66.5 97.5t-98.5 65.5t-117.5 23.5q-125 0 -219 -90q-41 -43 -64.5 -99t-23.5 -116v-233z" />
<glyph unicode="r" horiz-adv-x="712" d="M166 53v959q0 25 17.5 39t35.5 14q27 0 43.5 -14.5t16.5 -38.5v-33q96 86 229 86h147q25 0 40.5 -14.5t15.5 -39t-15.5 -40t-40.5 -15.5h-147q-45 0 -89 -17t-73 -48q-68 -72 -67 -164v-12v-662q0 -23 -16.5 -38t-43.5 -15q-18 0 -35.5 15t-17.5 38z" />
<glyph unicode="s" horiz-adv-x="876" d="M82 53q0 25 15.5 40.5t39.5 15.5h426q20 0 39 8t37 22q16 16 22.5 36t6.5 40q0 25 -8.5 44.5t-20.5 35.5l-457 397q-68 68 -67 162q0 88 65 152q61 66 154 65h371q25 0 41 -15.5t16 -39.5q0 -27 -16.5 -41t-40.5 -14h-371q-43 0 -76 -33q-31 -31 -31 -74q0 -25 7.5 -45.5 t23.5 -34.5q4 -4 455 -401q70 -61 69 -158q0 -86 -65 -152q-63 -63 -154 -63h-426q-25 0 -40 15t-15 38z" />
<glyph unicode="t" horiz-adv-x="724" d="M147 418v1169q0 25 17.5 39t42.5 14q20 0 36.5 -14t16.5 -39v-522h332q25 0 41 -14.5t16 -39t-16.5 -40t-40.5 -15.5h-332v-538q0 -66 24.5 -121t66.5 -98t97.5 -66.5t120.5 -23.5h103q20 0 36.5 -15.5t16.5 -40.5q0 -23 -16.5 -38t-36.5 -15h-103q-90 0 -165.5 33 t-133 89t-90.5 132t-33 164z" />
<glyph unicode="u" horiz-adv-x="1122" d="M152 342v670q0 25 16 39t38.5 14t39 -14.5t16.5 -38.5v-670q0 -47 18.5 -89t51.5 -75t75 -51t91 -18h110q47 0 88 17t73 49t51.5 73t19.5 86v678q0 25 17 39t42 14q20 0 36.5 -14.5t16.5 -38.5v-959q0 -23 -16 -38t-37 -15q-25 0 -42 15.5t-17 37.5v35 q-45 -43 -103.5 -65.5t-128.5 -22.5h-110q-72 0 -134.5 26.5t-109.5 72.5t-74.5 108.5t-27.5 134.5z" />
<glyph unicode="v" horiz-adv-x="1034" d="M82 989q-2 9 -2 18q0 14 6 26q10 19 33 30q9 2 17 2q13 0 26 -5q20 -9 24 -34l328 -911l332 911q10 25 30 34q12 6 24 5q9 0 18 -2q23 -10 32 -30q6 -11 6 -23q0 -10 -4 -21l-346 -952q-14 -37 -55 -37h-70q-41 0 -53 37z" />
<glyph unicode="w" horiz-adv-x="1449" d="M123 997q-1 5 -1 11q0 15 8 30q11 20 34 25q8 2 15 2q15 0 28 -8q20 -12 24 -33l224 -889l223 889q14 41 55 41q18 0 33.5 -11.5t19.5 -29.5l213 -887l220 887q6 20 24 33q12 8 27 8q8 0 16 -2q23 -4 34 -25q8 -15 8 -30q0 -5 -1 -11l-237 -954q-10 -43 -54 -43h-73 q-45 0 -56 43l-176 731l-186 -731q-12 -43 -58 -43h-67q-47 0 -60 43z" />
<glyph unicode="x" horiz-adv-x="1021" d="M112 44l-2 12q0 17 11 32l307 444l-307 441q-10 20 -7 42.5t23 35.5q14 9 33 8h8q25 -2 37 -23l283 -407l278 407q14 20 37 23h8q18 0 35 -8q18 -12 21.5 -35t-9.5 -43l-305 -441l307 -444q11 -16 12 -34q0 -5 -1 -10q-4 -24 -21 -38q-16 -7 -33 -7q-7 0 -13 1 q-24 4 -34 25l-282 407l-285 -407q-10 -20 -35 -25q-7 -1 -13 -1q-16 0 -28 7q-20 14 -25 38z" />
<glyph unicode="y" horiz-adv-x="1062" d="M108 1030q7 20 27 33q12 7 24 7l17 -4q20 -9 33 -30l364 -735l345 735q12 20 32 30q9 4 18 4l23 -7q23 -10 30 -32q3 -10 3 -20q0 -12 -4 -24l-629 -1339q-10 -20 -34 -30q-11 -4 -21 -4q-11 0 -21 5q-25 12 -30.5 32.5t2.5 45.5l225 477l-401 811q-6 14 -6 28q0 9 3 17z " />
<glyph unicode="z" horiz-adv-x="913" d="M104 53v78q4 10 6.5 17.5t8.5 17.5l577 790h-532q-25 0 -42.5 15.5t-17.5 40t17.5 39t42.5 14.5h592q27 0 39 -14q14 -14 14 -39v-72q0 -20 -8 -31l-584 -796v-4h539q25 0 39 -15.5t14 -40.5q0 -23 -14.5 -38t-38.5 -15h-592q-29 0 -41 14q-19 14 -19 39z" />
<glyph unicode="|" horiz-adv-x="462" d="M166 -119v1880q0 23 15.5 39.5t40 16.5t41 -16.5t16.5 -39.5v-1880q0 -25 -16.5 -40t-41 -15t-40 15t-15.5 40z" />
<glyph unicode="~" horiz-adv-x="1357" d="M255 831q3 49 23.5 93.5t56.5 79t85 53.5q44 15 94 15h6q53 -1 96 -25q96 -47 127 -144q16 -59 70 -82q28 -12 58 -12q27 0 55 10q55 16 78 66q11 34 11 66q0 21 -5 42q-10 25 -1 47.5t33 32.5q5 1 11 1q12 0 26 -6q20 -9 33 -32q15 -46 15 -92q0 -53 -25 -106 q-16 -43 -57 -77t-84 -50q-45 -18 -89 -18h-13q-50 3 -93 24.5t-78 59.5t-53 87q-10 31 -27.5 50.5t-40.5 29.5q-25 10 -52.5 13.5t-57.5 -9.5q-51 -18 -79 -71q-17 -33 -18 -69q0 -21 7 -42q6 -23 -2.5 -42t-26.5 -26q-20 -8 -39.5 2.5t-30.5 30.5q-14 43 -14 85q1 7 1 15z " />
<glyph unicode="&#xa3;" horiz-adv-x="1136" d="M168 702q0 18 13.5 35t31.5 17h199q-4 8 -10.5 13t-10.5 15q-29 25 -48 55.5t-34 65.5h-96q-18 0 -31.5 14.5t-13.5 32.5q0 25 13.5 39.5t31.5 14.5h68q-4 12 -5 24v27q0 78 29 150.5t86 127.5q53 55 126 84t147.5 29t147.5 -28.5t130 -84.5q18 -16 18.5 -38.5 t-18.5 -37.5q-16 -18 -38.5 -18t-39.5 18q-43 39 -94 59.5t-104.5 20.5t-104.5 -20.5t-90 -59.5q-84 -86 -84 -202q0 -14 2 -26.5t2 -24.5h340q25 0 40 -14.5t15 -39.5q0 -18 -15 -32.5t-40 -14.5h-299l18 -21q9 -11 21 -20q25 -25 41 -51.5l33 -56.5h186q25 0 40 -16.5 t15 -35.5q0 -20 -15 -34.5t-40 -14.5h-153q4 -14 4 -31v-36q0 -141 -78 -240q35 -10 88 -16l74 -15q35 -8 63 -7q16 0 30 2q38 7 60.5 19.5t32.5 25t12 12.5q10 20 32 26t42 -4q23 -14 28 -36q2 -7 1 -13q0 -13 -6 -25q-4 -4 -21.5 -28.5t-55.5 -49t-97 -38.5q-26 -6 -56 -7 q-39 0 -86 11l-78 14q-41 6 -70.5 11t-57 7.5t-55.5 -4t-67 -18.5q-8 0 -18 -6h-8q-6 -4 -15 -4q-20 0 -36.5 10t-20.5 31q-8 23 6.5 45t32.5 26q6 0 10 4h13q33 10 59.5 26.5t50.5 43.5q39 37 59.5 89t20.5 108q0 18 -1 35.5t-7 31.5h-250q-18 0 -31.5 14.5t-13.5 34.5z " />
<glyph unicode="&#xa5;" horiz-adv-x="1286" d="M211 1452q13 13 31 13q5 0 10 -1q25 -4 35 -22l356 -514l358 514q10 18 34 22q5 1 10 1q19 0 38 -13q16 -10 20 -32q1 -4 0 -8q0 -17 -9 -36l-318 -461h133q25 0 38.5 -13t13.5 -34q0 -53 -52 -53h-200l-9 -10v-154h209q51 0 52 -49q0 -23 -13.5 -37t-38.5 -14h-209v-311 q0 -25 -17 -41.5t-40 -16.5q-18 0 -35.5 16.5t-17.5 41.5v311h-205q-20 0 -35.5 14.5t-15.5 37t15.5 35.5t35.5 13h205v154q-6 0 -6 4v6h-199q-20 0 -35.5 14.5t-15.5 38.5q0 20 15.5 33.5t35.5 13.5h129l-319 461q-8 17 -8 34q0 30 24 42z" />
<glyph unicode="&#xa9;" horiz-adv-x="1470" d="M111 825q0 129 49 244t133 199t198.5 133t243.5 49t242 -49t198 -133t133 -199t48 -244t-48 -242.5t-133 -199.5t-198 -136t-242 -50t-243.5 50t-198.5 136t-133 199.5t-49 242.5zM213 825.5q0 -108.5 40 -203t110.5 -166t166 -113.5t205.5 -42q109 0 204 42t165 113.5 t111.5 166t41.5 203t-41.5 203.5t-111.5 166t-165 112t-204 41q-111 0 -206 -41t-165.5 -112t-110.5 -166t-40 -203.5zM442 725v197q0 57 21.5 108t60.5 89t88.5 59.5t108.5 21.5h117q23 0 41 -17.5t18 -33.5q0 -20 -18.5 -34.5t-40.5 -14.5h-117q-37 0 -70 -14.5t-56.5 -39 t-37.5 -57.5t-14 -67v-197q0 -72 52 -123t126 -51h117q23 0 41 -15.5t18 -35.5q0 -23 -18.5 -37t-40.5 -14h-117q-59 0 -108.5 22.5t-88.5 59t-60.5 86t-21.5 108.5z" />
<glyph unicode="&#xab;" horiz-adv-x="1038" d="M12 821q0 23 21 43l463 381q14 13 33 13q3 0 6 -1q23 -2 36 -20q16 -16 12.5 -39.5t-20.5 -36.5l-405 -340l405 -342q16 -16 20.5 -37.5t-12.5 -40.5q-14 -16 -36 -20q-4 -1 -8 -1q-18 0 -31 15l-463 381q-21 25 -21 45zM360 821q0 23 21 43l461 381q16 13 35 13 q3 0 6 -1q23 -2 35 -20q15 -13 15 -32q0 -29 -24 -44l-403 -340l403 -342q23 -21 24 -45q0 -17 -15 -33q-12 -16 -35 -20q-4 -1 -8 -1q-18 0 -33 15l-461 381q-21 25 -21 45z" />
<glyph unicode="&#xad;" horiz-adv-x="917" d="M106 821q0 23 17.5 38t42.5 15h573q20 0 38 -15t18 -38q0 -25 -17.5 -40t-38.5 -15h-573q-25 0 -42.5 15t-17.5 40z" />
<glyph unicode="&#xae;" horiz-adv-x="1435" d="M94 825q0 129 49.5 244t135.5 199t199.5 133t244.5 49q129 0 241.5 -49t195.5 -133t132 -199t49 -244t-49 -242.5t-132 -199.5t-195.5 -136t-241.5 -50q-131 0 -244.5 50t-199.5 136t-135.5 199.5t-49.5 242.5zM193 825.5q0 -108.5 41.5 -203t113.5 -166t168 -113.5 t207 -42q106 0 201.5 42t165 113.5t110.5 166t41 203t-41 203.5t-110.5 166t-165 112t-201.5 41q-111 0 -207 -41t-168 -112t-113.5 -166t-41.5 -203.5zM483 500v286v7v6v350q0 16 17.5 33.5t40.5 17.5h215q43 0 85 -19.5t72 -50.5q39 -33 56.5 -73.5t17.5 -89.5 q0 -47 -17.5 -88t-56.5 -72l-33 -33q-17 -16 -42 -24l145 -222q7 -15 7 -28q0 -7 -2 -13q-5 -18 -17 -26q-20 -9 -36 -9q-27 0 -42 25l-168 258h-139v-235q0 -23 -14.5 -37t-30.5 -14q-23 0 -40.5 14t-17.5 37zM586 838h170q53 0 90 36q18 23 30.5 45.5t12.5 47t-12.5 49 t-30.5 41.5q-39 43 -90 43h-170v-262z" />
<glyph unicode="&#xbb;" horiz-adv-x="1024" d="M102 479l404 342l-404 340q-18 12 -21 36q0 4 -1 7q0 19 14 33q16 18 38 20q3 0 5 1q18 0 35 -13l463 -381q6 -8 11 -20.5t5 -22.5q0 -12 -5 -22l-11 -23l-463 -381q-15 -15 -32 -15q-4 0 -8 1q-22 4 -38 20q-14 16 -14 34q0 24 22 44zM449 479l405 342l-405 340 q-16 12 -20 36q-1 4 0 8q0 18 11 32q18 18 40 20q3 0 6 1q18 0 32 -13l463 -381q6 -8 12 -20.5t6 -22.5q0 -12 -6 -22.5t-12 -22.5l-463 -381q-13 -15 -30 -15q-4 0 -8 1q-22 4 -40 20q-12 15 -11 33q0 25 20 45z" />
<glyph unicode="&#x2c6;" horiz-adv-x="581" d="M25 1324q0 18 14 32l209 256q23 18 43 18q25 0 43 -18l209 -256q11 -14 10 -33v-6q-2 -23 -18 -37q-15 -13 -33 -13q-4 0 -8 1q-23 4 -35 22l-168 195l-168 -195q-16 -18 -38 -22q-4 -1 -8 -1q-17 0 -32 13q-20 18 -20 44z" />
<glyph unicode="&#x410;" horiz-adv-x="1497" d="M86 74l526 1530q14 39 52 38h170q41 0 51 -38l532 -1530q1 -8 2 -15q0 -15 -6 -28q-8 -20 -33 -29q-9 -4 -18 -4q-12 0 -24 6q-22 10 -27 35l-176 502h-770l-172 -502q-8 -25 -29 -35q-11 -6 -24 -6q-10 0 -19 4q-23 8 -33 29q-6 11 -6 23q0 10 4 20zM401 653h697 l-303 879h-90z" />
<glyph unicode="&#x412;" horiz-adv-x="1411" d="M166 53v1534q0 25 15.5 40t41.5 15h537q80 0 150.5 -29.5t122.5 -81.5t83 -122t31 -149v-27q0 -86 -36 -160t-95 -129q61 -16 113.5 -51t90 -84t58 -109.5t20.5 -128.5v-184q0 -82 -30.5 -151.5t-82.5 -122t-123 -83t-151 -30.5h-688q-27 0 -42 15t-15 38zM279 113h632 q57 0 108.5 21.5t89.5 58t59.5 87t21.5 107.5v184q0 55 -21.5 106.5t-59.5 89.5t-89 59.5t-109 21.5h-151h-481v-735zM279 956h481q57 0 106 22.5t86 59.5t59.5 88.5t22.5 106.5v27q0 55 -22.5 105t-59.5 87t-86 58.5t-106 21.5h-481v-576z" />
<glyph unicode="&#x415;" horiz-adv-x="1202" d="M166 53v1534q0 25 14.5 40t38.5 15h918q25 0 41 -15t16 -39.5t-16.5 -40t-40.5 -15.5h-863v-578h762q23 0 39.5 -16t16.5 -39q0 -25 -16.5 -41t-39.5 -16h-762v-729h863q25 0 41 -17.5t16 -42.5q0 -23 -16.5 -38t-40.5 -15h-918q-25 0 -39 15t-14 38z" />
<glyph unicode="&#x41a;" horiz-adv-x="1443" d="M166 53v1534q0 25 14.5 40t38.5 15q27 0 43.5 -15t16.5 -40v-633h325l613 672q16 16 38 18h3q21 0 38.5 -15.5t17.5 -40.5q0 -22 -16 -38l-602 -655l584 -807q12 -18 9 -40.5t-23 -39.5q-12 -9 -29 -9q-5 0 -11 1q-24 4 -40 23l-586 819h-321v-789q0 -23 -16.5 -38 t-43.5 -15q-25 0 -39 15t-14 38z" />
<glyph unicode="&#x41c;" horiz-adv-x="1744" d="M166 53v1534q0 25 14.5 40t38.5 15h131q27 0 45 -22l506 -700l445 698q20 25 51 24h127q25 0 41 -15t16 -40v-1534q0 -23 -16.5 -38t-41 -15t-40 15.5t-15.5 37.5v1479h-43l-477 -739q-18 -27 -45 -27q-31 0 -45 22l-539 744h-40v-1479q0 -23 -17.5 -38t-42 -15t-39 15 t-14.5 38z" />
<glyph unicode="&#x41d;" horiz-adv-x="1505" d="M166 53v1534q0 25 15.5 40t40 15t41 -15t16.5 -40v-622h954v622q0 25 15.5 40t39.5 15q23 0 38 -15t15 -40v-1534q0 -23 -15 -38t-38 -15q-25 0 -40 15.5t-15 37.5v799h-954v-799q0 -23 -16.5 -38t-41 -15t-40 15t-15.5 38z" />
<glyph unicode="&#x41e;" horiz-adv-x="1431" d="M131 586v471q0 123 45 228.5t125 186t186.5 125.5t229.5 45q119 0 225.5 -43t190.5 -124q84 -86 127 -193.5t43 -224.5v-471q0 -121 -46.5 -227.5t-126 -185.5t-186 -126t-227.5 -47q-123 0 -229.5 47t-186.5 126t-125 185.5t-45 227.5zM244 586q0 -98 36.5 -183.5 t101 -151t150.5 -102t184.5 -36.5t184.5 36.5t151.5 102t102.5 150.5t37 184v471q0 96 -36 183t-105 151q-66 70 -151 105.5t-183.5 35.5t-184.5 -37t-150.5 -101.5t-101 -151.5t-36.5 -185v-471z" />
<glyph unicode="&#x420;" horiz-adv-x="1234" d="M166 53v1534q0 25 17.5 40t39.5 15h2h512q98 0 186.5 -37.5t154 -102t103.5 -151.5t38 -187.5t-38 -186.5t-103.5 -151.5t-153.5 -102.5t-187 -37h-458v-633q0 -23 -15.5 -38t-40.5 -15q-23 0 -40 15t-17 38zM279 797h458q78 0 143.5 29.5t116 78.5t80 115.5t29.5 142.5 t-29.5 143.5t-80 118t-116 79t-143.5 28.5h-458v-735z" />
<glyph unicode="&#x421;" horiz-adv-x="1085" d="M121 586v471q0 123 46 228.5t125 186t186.5 125.5t230.5 45h295q23 0 39 -15t16 -39.5t-16.5 -40t-38.5 -15.5h-295q-98 0 -185.5 -37t-153 -101.5t-102.5 -151.5t-37 -185v-471q0 -197 142 -334q66 -70 151.5 -104.5t184.5 -34.5h297q23 0 38 -17.5t15 -42.5 q0 -23 -15.5 -38t-37.5 -15h-297q-119 0 -226.5 43t-189.5 127t-127 191.5t-45 224.5z" />
<glyph unicode="&#x422;" horiz-adv-x="1165" d="M39 1587.5q0 24.5 16.5 39.5t40.5 15h977q23 0 38 -15t15 -39.5t-15 -40t-38 -15.5h-430v-1479q0 -23 -16.5 -38t-40.5 -15q-23 0 -38.5 15.5t-15.5 37.5v1479h-436q-25 0 -41 15.5t-16 40z" />
<glyph unicode="&#x425;" horiz-adv-x="1454" d="M142 56q0 16 8 32l509 735l-505 733q-12 16 -10.5 41t24.5 37q12 7 27 8q6 0 13 -2q24 -4 38 -20l481 -694l481 694q12 16 36 20q7 1 13 2q16 0 29 -8q16 -12 20.5 -36.5t-6.5 -41.5l-507 -733l512 -735q8 -16 7 -32v-10q-3 -22 -22 -38q-14 -9 -30 -8q-6 0 -13 1 q-23 5 -39 24l-481 702l-483 -702q-14 -18 -38 -24q-7 -2 -13 -1q-15 0 -27 8q-24 20 -24 48z" />
<glyph unicode="&#x430;" d="M92 340q0 70 25.5 132.5t72.5 111.5q49 47 112 73.5t132 26.5h182h56q43 0 73 29q25 27 25 71v7v30q0 57 -39 97q-16 18 -40.5 28t-51.5 10h-100h-45h-267q-25 0 -41 15.5t-16 40t16.5 39t40.5 14.5h267h45h100q47 0 92 -16.5t80 -51.5q72 -72 72 -176v-170v-598 q0 -23 -14.5 -38t-39 -15t-42 15.5t-17.5 37.5v35q-94 -88 -229 -88h-107q-72 0 -133 26.5t-108.5 72.5t-74 107.5t-26.5 133.5zM205 340q0 -47 18.5 -89t48 -74t72.5 -50t90 -18h107q45 0 88 18t71 49q70 70 70 164v260q-23 -18 -48.5 -23.5t-49.5 -5.5h-56h-182 q-98 0 -163.5 -66.5t-65.5 -164.5z" />
<glyph unicode="&#x435;" d="M125 418v233q0 82 30.5 158t94.5 135q59 61 135 91t160 30q174 0 295 -121q59 -59 91 -135t32 -158v-106q0 -25 -16.5 -41.5t-41.5 -16.5h-667v-69q0 -66 23.5 -121t65.5 -98t97 -66.5t121 -23.5h237q23 0 38.5 -15.5t15.5 -40.5q0 -23 -15.5 -38t-38.5 -15h-237 q-86 0 -163 33t-134.5 89t-90 132t-32.5 164zM238 600h610v51q0 59 -22.5 115.5t-65.5 99.5q-86 90 -215 90q-63 0 -118.5 -23.5t-98.5 -66.5t-66.5 -99t-23.5 -116v-51z" />
<glyph unicode="&#x43e;" horiz-adv-x="1085" d="M125 418v233q0 82 31.5 158t91.5 135q55 61 133 91t162 30t160.5 -29.5t134.5 -91.5q59 -59 91 -135t32 -158v-233q0 -88 -33 -164t-90.5 -132t-134 -89t-160.5 -33q-86 0 -163 33t-133.5 89t-89 132t-32.5 164zM238 418q0 -66 23.5 -121t64.5 -98t97 -66.5t119.5 -23.5 t119 23.5t97.5 66.5t67.5 98t25.5 121v233q0 59 -24.5 115.5t-67.5 99.5q-92 90 -217 90q-123 0 -219 -90q-41 -43 -63.5 -99t-22.5 -116v-233z" />
<glyph unicode="&#x440;" horiz-adv-x="1046" d="M166 -328v1340q0 25 15.5 39t40 14t41 -14.5t16.5 -38.5v-78q0 4 3 5t5 5q121 121 295 121q84 0 161.5 -29.5t133.5 -91.5q63 -59 93.5 -135t30.5 -158v-233q0 -88 -32.5 -164t-90 -132t-134 -89t-162.5 -33q-88 0 -168 34t-135 97v-459q0 -25 -16.5 -40t-41 -15t-40 15 t-15.5 40zM279 418q0 -66 23.5 -121t64.5 -98t96 -66.5t119 -23.5q66 0 121 23.5t97 66.5t66.5 98t24.5 121v233q0 59 -24.5 115.5t-65.5 99.5q-90 90 -219 90q-127 0 -215 -90q-43 -43 -65.5 -99t-22.5 -116v-233z" />
<glyph unicode="&#x441;" horiz-adv-x="864" d="M117 418v233q0 84 32.5 161t89 133t132 88t166.5 32h194q25 0 41 -14.5t16 -39t-16 -40t-41 -15.5h-194q-63 0 -120 -23.5t-97.5 -65.5t-65.5 -97t-25 -119v-233q0 -66 25 -121t65.5 -98t97 -66.5t120.5 -23.5h194q25 0 41 -15.5t16 -40.5q0 -23 -16 -38t-41 -15h-194 q-90 0 -166 33t-132.5 89t-89 132t-32.5 164z" />
<glyph unicode="&#x443;" horiz-adv-x="1062" d="M108 1030q7 20 27 33q12 7 24 7q9 0 17 -4q20 -9 33 -30l364 -735l345 735q12 20 32 30q9 4 18 4q12 0 23 -7q23 -10 30 -32q3 -10 3 -20q0 -12 -4 -24l-629 -1339q-10 -20 -34 -30q-11 -4 -21 -4q-11 0 -21 5q-25 12 -30.5 32.5t2.5 45.5l225 477l-401 811q-6 14 -6 28 q0 9 3 17z" />
<glyph unicode="&#x445;" horiz-adv-x="1021" d="M112 44l-2 12q0 17 11 32l307 444l-307 441q-10 20 -7 42.5t23 35.5q14 9 33 8h8q25 -2 37 -23l283 -407l278 407q14 20 37 23h8q18 0 35 -8q18 -12 21.5 -35t-9.5 -43l-305 -441l307 -444q11 -16 12 -34q0 -5 -1 -10q-4 -24 -21 -38q-16 -7 -33 -7q-7 0 -13 1 q-24 4 -34 25l-282 407l-285 -407q-10 -20 -35 -25q-7 -1 -13 -1q-16 0 -28 7q-20 14 -25 38z" />
<glyph unicode="&#x2010;" horiz-adv-x="917" d="M106 821q0 23 17.5 38t42.5 15h573q20 0 38 -15t18 -38q0 -25 -17.5 -40t-38.5 -15h-573q-25 0 -42.5 15t-17.5 40z" />
<glyph unicode="&#x2011;" horiz-adv-x="917" d="M106 821q0 23 17.5 38t42.5 15h573q20 0 38 -15t18 -38q0 -25 -17.5 -40t-38.5 -15h-573q-25 0 -42.5 15t-17.5 40z" />
<glyph unicode="&#x2012;" horiz-adv-x="917" d="M106 821q0 23 17.5 38t42.5 15h573q20 0 38 -15t18 -38q0 -25 -17.5 -40t-38.5 -15h-573q-25 0 -42.5 15t-17.5 40z" />
<glyph unicode="&#x2013;" horiz-adv-x="876" d="M98 821q0 23 17.5 38t40.5 15h575q20 0 37.5 -15t17.5 -38q0 -25 -17 -40t-38 -15h-575q-23 0 -40.5 15t-17.5 40z" />
<glyph unicode="&#x2014;" horiz-adv-x="1026" d="M156 821q0 23 17 38t42 15h576q18 0 35.5 -15t17.5 -38q0 -25 -17.5 -40t-35.5 -15h-576q-25 0 -42 15t-17 40z" />
<glyph unicode="&#x2018;" horiz-adv-x="573" d="M201 1923q14 16 37 17q1 0 2 1q21 0 36 -18l82 -82q15 -17 16 -37v-3q-1 -22 -16 -36q-18 -18 -41 -19h-2q-21 0 -36 15l-82 82q-15 15 -16 37q0 26 20 43z" />
<glyph unicode="&#x2019;" horiz-adv-x="253" d="M94 1446v160q0 18 11.5 28.5t28 10.5t29.5 -10.5t13 -28.5v-160q0 -18 -13 -28.5t-29.5 -10.5t-28 10.5t-11.5 28.5z" />
<glyph unicode="&#x201c;" horiz-adv-x="348" d="M53 1446v160q0 18 12.5 28.5t29 10.5t29.5 -10.5t13 -28.5v-160q0 -18 -13 -28.5t-29.5 -10.5t-29 10.5t-12.5 28.5zM207 1446v160q0 18 11 28.5t27.5 10.5t30 -10.5t13.5 -28.5v-160q0 -18 -13.5 -28.5t-30 -10.5t-27.5 10.5t-11 28.5z" />
<glyph unicode="&#x201d;" horiz-adv-x="348" d="M53 1446v160q0 18 12.5 28.5t29 10.5t29.5 -10.5t13 -28.5v-160q0 -18 -13 -28.5t-29.5 -10.5t-29 10.5t-12.5 28.5zM207 1446v160q0 18 11 28.5t27.5 10.5t30 -10.5t13.5 -28.5v-160q0 -18 -13.5 -28.5t-30 -10.5t-27.5 10.5t-11 28.5z" />
<glyph unicode="&#x2026;" horiz-adv-x="1073" d="M109 45q0 29 17 46.5t46 17.5t47.5 -17.5t18.5 -46.5t-18.5 -45t-47.5 -16t-46 16t-17 45zM467 45q0 29 17.5 46.5t46 17.5t47 -17.5t18.5 -46.5t-18.5 -45t-47 -16t-46 16t-17.5 45zM825 45q0 29 17.5 46.5t46.5 17.5t47 -17.5t18 -46.5t-18 -45t-47 -16t-46.5 16 t-17.5 45z" />
<glyph unicode="&#x2039;" horiz-adv-x="657" d="M12 821q0 23 21 43l463 381q14 13 33 13q3 0 6 -1q23 -2 36 -20q13 -13 13 -31q0 -29 -21 -45l-405 -340l405 -342q21 -21 21 -46q0 -17 -13 -32q-14 -16 -36 -20q-4 -1 -8 -1q-18 0 -31 15l-463 381q-21 25 -21 45z" />
<glyph unicode="&#x203a;" horiz-adv-x="823" d="M156 479l403 342l-403 340q-16 12 -20 36q-1 4 0 8q0 18 11 32q18 18 40 20q3 0 6 1q18 0 32 -13l463 -381q6 -8 11.5 -20.5t5.5 -22.5q0 -12 -6 -22l-11 -23l-463 -381q-13 -15 -30 -15q-4 0 -8 1q-22 4 -40 20q-12 15 -11 33q0 25 20 45z" />
<glyph unicode="&#x20ac;" horiz-adv-x="1189" d="M129 713q0 18 15.5 31.5t37.5 13.5h84v141h-84q-23 0 -38 13.5t-15 33.5q0 25 15.5 39t37.5 14h84v5q0 94 36 177t97.5 144t143.5 96t176 35q90 0 172 -35t145 -98q16 -16 16.5 -38.5t-16.5 -41.5q-16 -14 -39.5 -14t-40.5 14q-49 49 -108.5 76t-129 27t-131 -27 t-108.5 -74t-74.5 -108.5t-27.5 -132.5v-5h319q20 0 34.5 -14t14.5 -39q0 -20 -14 -33.5t-35 -13.5h-319v-141h319q20 0 34.5 -13.5t14.5 -31.5q0 -23 -14 -38.5t-35 -15.5h-319v-6q0 -70 27.5 -131t74.5 -107t108.5 -73t131.5 -27q63 0 123.5 25t107.5 68q18 16 41 16 t41 -16q14 -14 14.5 -38t-14.5 -40q-63 -63 -143 -95t-170 -32q-94 0 -176 35.5t-143.5 96t-97.5 142.5t-36 176v6h-84q-23 0 -38 15.5t-15 38.5z" />
<glyph unicode="&#x2122;" horiz-adv-x="968" d="M109 1614q0 25 22 24h129h129q10 0 17.5 -6t7.5 -18q0 -16 -7.5 -22.5t-17.5 -6.5h-102v-350q0 -29 -27 -29t-27 29v350h-102q-22 0 -22 29zM461 1235v379q0 12 9 18t17 6h41q2 0 15 -8l110 -157l103 157q12 8 26 8h37q8 0 17.5 -6t9.5 -18v-379q0 -12 -9.5 -20.5 t-17.5 -8.5q-29 0 -28 29v344l-107 -174q-4 0 -12 -3t-19 -3q-2 0 -9 3t-13 3l-115 174v-344q0 -29 -29 -29q-8 0 -17 8.5t-9 20.5z" />
<glyph unicode="&#xe000;" horiz-adv-x="1060" d="M0 1060h1060v-1060h-1060v1060z" />
</font>
</defs>
</svg>
