<?xml version="1.0" standalone="no"?>
<!DOCTYPE svg PUBLIC "-//W3C//DTD SVG 1.1//EN" "http://www.w3.org/Graphics/SVG/1.1/DTD/svg11.dtd" >
<svg xmlns="http://www.w3.org/2000/svg">
<metadata>
This is a custom SVG webfont generated by Font Squirrel.
Copyright   : Generated in 2010 by FontLab Studio Copyright info pending
Designer    : Campivisivi
Foundry     : Campivisivi
</metadata>
<defs>
<font id="TitilliumText22LRegular" horiz-adv-x="1128" >
<font-face units-per-em="2048" ascent="1536" descent="-512" />
<missing-glyph horiz-adv-x="499" />
<glyph unicode=" "  horiz-adv-x="499" />
<glyph unicode="&#x09;" horiz-adv-x="499" />
<glyph unicode="&#xa0;" horiz-adv-x="499" />
<glyph unicode="!" d="M489 0v244h175v-244h-175zM489 1489h173l-5 -995h-163z" />
<glyph unicode="&#x22;" horiz-adv-x="659" d="M92 1485h156l-4 -469h-150zM416 1485h155l-4 -469h-149z" />
<glyph unicode="#" d="M16 383v137h238v379h-238v135h238v385h143v-385h330v385h143v-385h236v-135h-236v-379h236v-137h-236v-383h-143v383h-330v-383h-143v383h-238zM397 520h330v379h-330v-379z" />
<glyph unicode="$" d="M109 1075q0 385 471 385q27 0 43 -2l28 234h109l-31 -240l270 -33l-16 -145q-145 16 -274 26l-64 -501q213 -51 298 -129t85 -254q0 -434 -461 -434h-26l-31 -246q-109 6 -109 14l29 238q-145 12 -305 37l18 145q166 -23 306 -31l69 529q-221 49 -315 133t-94 274z M266 1079q0 -119 58.5 -169t214.5 -89l61 488h-20q-314 -1 -314 -230zM561 135h4q156 0 229.5 64.5t73.5 210.5q0 104 -54 152t-187 81z" />
<glyph unicode="%" d="M39 1202q0 293 240 293q244 0 243 -295q0 -301 -243 -301q-240 0 -240 303zM166 1202q0 -100 24.5 -147t88.5 -47q66 0 90 46t24 146q0 96 -24.5 140t-89.5 44q-63 0 -88 -44t-25 -138zM258 57l545 1432l100 -49l-543 -1432zM635 305q0 291 239 291q244 0 244 -293 q0 -301 -244 -301q-239 0 -239 303zM762 305q0 -102 24.5 -148t89 -46t90 47t25.5 145t-25.5 141t-90 43t-89 -43t-24.5 -139z" />
<glyph unicode="&#x26;" horiz-adv-x="1490" d="M102 434q0 172 80 270.5t246 161.5q-66 78 -87.5 141.5t-21.5 163.5q0 150 97.5 237t271.5 87q182 0 275.5 -87t93.5 -247q0 -147 -74 -236t-248 -173l305 -306q41 139 60 287l155 -2q-31 -221 -92 -389l275 -264l-101 -109l-256 242q-90 -127 -204.5 -185.5 t-278.5 -58.5q-496 0 -496 467zM264 436q0 -317 340 -317q123 0 208 46t151 150l-433 439q-141 -47 -203.5 -119t-62.5 -199zM479 1155q0 -145 96 -242l58 -59q147 63 205.5 125.5t58.5 171.5q0 195 -209 194.5t-209 -190.5z" />
<glyph unicode="'" horiz-adv-x="212" d="M20 1481h162l-10 -482h-147z" />
<glyph unicode="(" horiz-adv-x="552" d="M76 641q0 190 51 429t102 382l54 145h168q-23 -61 -56 -164.5t-89 -358.5t-56 -433q0 -356 184 -862l17 -45h-168q-23 53 -56.5 144t-92 332t-58.5 431z" />
<glyph unicode=")" horiz-adv-x="552" d="M76 -266q25 59 57.5 158.5t89 346t56.5 423.5q0 180 -50.5 413.5t-101.5 376.5l-51 145h170q23 -57 56.5 -153t91 -344t57.5 -437.5t-50.5 -422t-101.5 -367.5l-53 -139h-170z" />
<glyph unicode="*" d="M264 975l230 168l-228 166l66 88l223 -162l90 264l105 -33l-86 -272h278v-107h-280l86 -266l-103 -30l-90 268l-227 -168z" />
<glyph unicode="+" horiz-adv-x="974" d="M-49 494v149h459v457h147v-457h463v-149h-463v-459h-147v459h-459z" />
<glyph unicode="," horiz-adv-x="360" d="M55 -262l99 489h172l-117 -489h-154z" />
<glyph unicode="-" horiz-adv-x="935" d="M137 520v158h664v-158h-664z" />
<glyph unicode="." horiz-adv-x="526" d="M164 0v244h172v-244h-172z" />
<glyph unicode="/" d="M188 33l594 1476l152 -55l-596 -1474z" />
<glyph unicode="0" d="M49 680q0 416 128 583t386 167q174 0 282.5 -66t169 -232.5t60.5 -449.5q0 -199 -33.5 -337t-102.5 -217t-159 -113.5t-215 -34.5q-258 0 -387 155.5t-129 544.5zM223 680q0 -215 41 -337t111.5 -165t189.5 -43q176 0 256 116t80 431q0 338 -78 465t-260 127t-261 -127 t-79 -467z" />
<glyph unicode="1" d="M139 1110l445 295h155v-1405h-164v1219l-360 -242z" />
<glyph unicode="2" d="M121 0v152l407 421l119 125t85 104.5t63.5 116t17.5 115.5q0 127 -74.5 181.5t-230.5 54.5q-70 0 -160 -12.5t-147 -22.5l-56 -12l-14 151q209 55 408 56q225 0 334.5 -91.5t109.5 -285.5q0 -150 -63.5 -259.5t-221.5 -269.5l-358 -366h680v-158h-899z" />
<glyph unicode="3" d="M106 29l17 147q231 -39 430 -39q305 0 305 258q0 246 -287 256h-286v150h284q90 0 172 69.5t82 176.5q0 121 -67.5 173t-218.5 52l-390 -41l-18 147q221 51 416 52q246 0 348 -87.5t102 -279.5q0 -51 -14 -97t-30.5 -76t-46.5 -57.5t-46 -39t-44 -28.5t-30 -17 q123 -45 183.5 -116t60.5 -229q0 -215 -110.5 -319t-346.5 -104q-98 0 -213.5 12t-183.5 24z" />
<glyph unicode="4" d="M61 264v131l402 1010h178l-391 -985h495v448h164v-448h176v-156h-176v-272h-164v272h-684z" />
<glyph unicode="5" d="M104 41l19 147q252 -51 442 -51q139 0 222 84t83 238q0 274 -295 274q-76 0 -154.5 -21.5t-119.5 -41.5l-43 -21l-135 25l43 731h817v-156h-668l-36 -444q164 82 311 82q453 0 452 -422q0 -238 -123.5 -360.5t-347.5 -122.5q-96 0 -211.5 14t-185.5 29z" />
<glyph unicode="6" d="M70 709q0 721 551 721l385 -35l-15 -150q-193 27 -370 27q-184 0 -280.5 -122t-98.5 -353l53 20q55 20 143 42t156 22q471 0 471 -439q0 -223 -128 -342.5t-364 -119.5q-503 0 -503 729zM238 649q10 -518 335 -518q158 0 241 79t83 232q0 287 -315 287q-164 -6 -344 -80z " />
<glyph unicode="7" d="M117 1249v156h874v-215l-547 -1219l-153 49l528 1180v49h-702z" />
<glyph unicode="8" d="M47 358q0 152 58.5 231t183.5 146q-115 57 -167 131t-52 199q0 178 133 271.5t367.5 93.5t371.5 -93.5t137 -273.5q0 -133 -53 -201.5t-180 -126.5q127 -57 191.5 -135t64.5 -219q0 -401 -531 -401q-524 -1 -524 378zM221 385q0 -250 350 -250q354 0 355 262 q0 115 -62.5 169.5t-185.5 86.5h-223q-119 -31 -176.5 -93t-57.5 -175zM246 1047q0 -94 49 -150.5t160 -97.5h223q115 37 171 94t56 151q0 229 -332 230q-327 0 -327 -227z" />
<glyph unicode="9" d="M72 961q0 219 132 344t357 125q506 0 506 -732q0 -391 -140.5 -554.5t-414.5 -163.5l-387 30l16 150q190 -25 371 -25q385 0 387 469q-213 -76 -367 -76q-460 1 -460 433zM244 961q0 -281 301 -281q66 0 154.5 17.5t144.5 37.5l57 19q-4 244 -86 382t-254 138 q-147 0 -232 -83t-85 -230z" />
<glyph unicode=":" horiz-adv-x="376" d="M127 0v244h176v-244h-176zM127 686v242h176v-242h-176z" />
<glyph unicode=";" horiz-adv-x="419" d="M51 -254l105 500h176l-135 -500h-146zM143 686v242h174v-242h-174z" />
<glyph unicode="&#x3c;" d="M135 578v165l737 447v-168l-585 -358l585 -373v-172q-53 29 -364 225z" />
<glyph unicode="=" d="M70 723v145h974v-145h-974zM72 322v147h975v-147h-975z" />
<glyph unicode="&#x3e;" d="M135 1022v168l737 -447v-165l-372 -234q-311 -197 -365 -225v172l586 373z" />
<glyph unicode="?" horiz-adv-x="821" d="M16 1456q244 57 359 57q229 0 337.5 -85t108.5 -285q0 -98 -41 -184.5t-100 -142.5t-119.5 -104t-101.5 -101.5t-41 -108.5v-80h-168v88q0 74 41 140.5t100 116.5l119 101q59 51 100 119t41 141q0 121 -64.5 171.5t-215.5 50.5q-47 0 -131 -12.5t-144 -24.5l-59 -15z M248 2v244h174v-244h-174z" />
<glyph unicode="@" horiz-adv-x="2097" d="M111 555q0 514 243.5 749.5t718.5 235.5t694.5 -218t219.5 -673v-35q0 -166 -17.5 -280.5t-46.5 -183t-79 -107.5t-102 -51t-128 -12q-102 0 -158.5 21.5t-87.5 94.5q-217 -115 -373 -114q-80 0 -138 18t-116.5 71.5t-89 167t-30.5 279.5q0 287 93 426t337 139 q43 0 104.5 -13t101.5 -26l39 -14v35h160v-426q0 -248 14.5 -352.5t43 -132t100.5 -27.5q57 0 91 14.5t64.5 60.5t43 146.5t12.5 265.5v37q0 393 -173 564t-579 171q-412 0 -606.5 -195.5t-194.5 -635.5q0 -463 186.5 -648.5t614.5 -185.5l305 19l8 -154q-211 -18 -313 -18 q-246 0 -418 47t-299 158.5t-186 304t-59 477.5zM780 514q0 -225 61.5 -302t162.5 -77q125 0 315 88q-23 121 -23 365v305q-129 43 -221 43q-174 0 -234.5 -96.5t-60.5 -325.5z" />
<glyph unicode="A" horiz-adv-x="1286" d="M61 0l406 1483h360l398 -1481h-162l-113 371h-618l-107 -373h-164zM371 530h544l-219 801h-106z" />
<glyph unicode="B" horiz-adv-x="1314" d="M193 0v1483h532q438 0 438 -367q0 -145 -47 -227t-141 -127q111 -37 172 -116t61 -228q0 -223 -117.5 -320.5t-338.5 -97.5h-559zM354 152h391q143 0 219 62t76 212q0 252 -305 252h-381v-526zM354 827h379q135 0 198.5 67t63.5 202q0 125 -67.5 180t-210.5 55h-363v-504 z" />
<glyph unicode="C" horiz-adv-x="1140" d="M109 737q0 399 113.5 582.5t424.5 183.5q86 0 188.5 -12t161.5 -25l58 -12l-8 -145q-233 35 -383 34q-233 0 -310.5 -138t-77.5 -468q0 -326 77 -462t317 -136q59 0 152 9.5t157 17.5l68 10l6 -147q-238 -49 -406 -49q-162 0 -269.5 47t-165.5 149.5t-80.5 234 t-22.5 326.5z" />
<glyph unicode="D" horiz-adv-x="1366" d="M193 0v1483h524q301 0 424 -187.5t123 -531.5q0 -170 -26 -300t-84 -238.5t-169 -167t-268 -58.5h-524zM354 156h363q377 0 377 608q0 127 -16.5 221t-57.5 175t-116 124t-187 43h-363v-1171z" />
<glyph unicode="E" horiz-adv-x="1200" d="M193 0v1483h892v-156h-731v-500h604v-153h-604v-518h731v-156h-892z" />
<glyph unicode="F" horiz-adv-x="1177" d="M193 0v1483h894v-156h-733v-573h607v-156h-607v-598h-161z" />
<glyph unicode="G" horiz-adv-x="1294" d="M111 739q0 389 124.5 576.5t442.5 187.5q100 0 220 -13t192 -30l71 -12l-6 -148q-264 45 -459 46q-242 0 -328.5 -141.5t-86.5 -465.5q0 -322 85 -462t328 -140q37 0 79 3l81 6q39 3 70.5 7.5l52 7.5t22.5 3v442h-245v150h407v-725q-303 -51 -479 -51q-319 0 -445 187 t-126 572z" />
<glyph unicode="H" horiz-adv-x="1458" d="M193 0v1483h163v-656h750v656h162v-1483h-162v670h-750v-670h-163z" />
<glyph unicode="I" horiz-adv-x="524" d="M180 0v1483h164v-1483h-164z" />
<glyph unicode="J" horiz-adv-x="655" d="M70 0q152 0 196.5 41t44.5 211v1233h162q0 -225 1 -624.5t1 -629.5q0 -131 -21.5 -208.5t-78 -115.5t-121 -49.5t-184.5 -11.5v154z" />
<glyph unicode="K" horiz-adv-x="1265" d="M193 0v1483h163v-684l240 8l377 676h190l-422 -742l445 -741h-193l-393 651l-244 -8v-643h-163z" />
<glyph unicode="L" horiz-adv-x="1091" d="M193 0v1483h163v-1325h648v-158h-811z" />
<glyph unicode="M" horiz-adv-x="1810" d="M193 0v1483h284l428 -1247l430 1247h283v-1483h-164v1290h-29l-430 -1237h-182l-428 1237h-29v-1290h-163z" />
<glyph unicode="N" horiz-adv-x="1474" d="M193 0v1483h292l588 -1290h47v1290h164v-1483h-287l-596 1290h-45v-1290h-163z" />
<glyph unicode="O" horiz-adv-x="1386" d="M111 733q0 389 129 579.5t454.5 190.5t453.5 -189.5t128 -580.5q0 -399 -126 -576t-455.5 -177t-456.5 180t-127 573zM281 733q0 -317 84 -457.5t329.5 -140.5t329.5 137.5t84 460.5q0 315 -87 465t-326.5 150t-326.5 -148t-87 -467z" />
<glyph unicode="P" horiz-adv-x="1290" d="M193 0v1483h538q240 0 355.5 -117t115.5 -358q0 -248 -117.5 -380t-353.5 -132h-375v-496h-163zM356 653h373q303 0 303 355q0 164 -71.5 240.5t-231.5 76.5h-373v-672z" />
<glyph unicode="Q" horiz-adv-x="1386" d="M111 733q0 389 129 579.5t454.5 190.5t453.5 -189.5t128 -580.5q0 -272 -54.5 -437t-189.5 -243l180 -289l-153 -73l-189 307q-76 -18 -176 -18q-330 0 -456.5 180t-126.5 573zM281 733q0 -317 84 -457.5t329.5 -140.5t329.5 137.5t84 460.5q0 315 -87 465t-326.5 150 t-326.5 -148t-87 -467z" />
<glyph unicode="R" horiz-adv-x="1327" d="M193 0v1483h544q240 0 355.5 -107.5t115.5 -345.5q0 -344 -270 -428l283 -602h-181l-266 561h-418v-561h-163zM356 715h383q301 0 301 315q0 154 -73.5 225.5t-229.5 71.5h-381v-612z" />
<glyph unicode="S" horiz-adv-x="1136" d="M94 1110q0 395 486 395l432 -43l-15 -147q-295 33 -417 33q-322 0 -322 -234q0 -137 74 -187t289 -96q236 -53 329.5 -134t93.5 -269q0 -446 -477 -446l-454 43l16 149q285 -35 436 -35q160 0 236 65.5t76 217.5q0 119 -69 171t-259 89q-248 53 -351.5 138t-103.5 290z " />
<glyph unicode="T" horiz-adv-x="1046" d="M-8 1325v158h1065v-158h-451v-1325h-162v1325h-452z" />
<glyph unicode="U" horiz-adv-x="1361" d="M166 446v1037h164v-1037q0 -307 346 -307q176 0 267 71t91 236v1037h162v-1037q0 -244 -130 -354t-390 -110q-252 0 -381 109t-129 355z" />
<glyph unicode="V" horiz-adv-x="1261" d="M61 1483h170l347 -1327h112l340 1327h172l-387 -1483h-364z" />
<glyph unicode="W" horiz-adv-x="1916" d="M78 1483h170l270 -1319h62l284 1306h187l292 -1306h62l264 1319h170l-315 -1483h-299l-267 1237l-262 -1237h-295z" />
<glyph unicode="X" horiz-adv-x="1236" d="M63 0l449 735l-449 748h187l371 -623l368 623h185l-441 -748l441 -735h-185l-366 614l-373 -614h-187z" />
<glyph unicode="Y" horiz-adv-x="1175" d="M41 1483h182l367 -666l362 666h183l-461 -848v-635h-164v637z" />
<glyph unicode="Z" horiz-adv-x="1212" d="M127 -2v203l762 1081v43h-762v158h958v-203l-759 -1083v-41h759v-158h-958z" />
<glyph unicode="[" horiz-adv-x="638" d="M88 -262v1857h447v-153h-285v-1551h285v-153h-447z" />
<glyph unicode="\" horiz-adv-x="1142" d="M152 1444l172 76l655 -1479l-172 -72z" />
<glyph unicode="]" horiz-adv-x="638" d="M88 -109h285v1551h-285v153h447v-1857h-447v153z" />
<glyph unicode="^" d="M102 692l373 713h166l385 -713h-172l-297 555l-285 -555h-170z" />
<glyph unicode="_" horiz-adv-x="1105" d="M57 -31h912v-147h-912v147z" />
<glyph unicode="`" horiz-adv-x="501" d="M-2 1454l55 141l465 -200l-51 -123z" />
<glyph unicode="a" horiz-adv-x="1110" d="M104 305q0 152 79 225.5t245 90.5l336 30v88q0 195 -184 195l-408 -29l-6 139q256 41 420 41q170 0 253 -83.5t83 -262.5v-524q4 -84 125 -98l-7 -137q-174 0 -252 79q-193 -80 -395 -79q-137 0 -213 84.5t-76 240.5zM266 309q0 -92 39 -142t111.5 -50t159 16.5 t137.5 32.5l51 14v342l-315 -26q-183 -17 -183 -187z" />
<glyph unicode="b" horiz-adv-x="1150" d="M184 2v1528h160v-514q160 70 311 69q215 0 303.5 -121.5t88.5 -412.5q0 -319 -108 -445t-396 -126q-57 0 -147 6l-148 10zM344 135q139 -14 197 -14q209 0 276.5 95t67.5 331q0 213 -52.5 303t-191.5 90q-141 0 -297 -57v-748z" />
<glyph unicode="c" horiz-adv-x="929" d="M106 551q0 291 101.5 412.5t339.5 121.5q43 0 115.5 -8t123.5 -16l52 -6l-4 -140q-172 20 -252 21q-180 0 -246 -85t-66 -300q0 -242 60.5 -333t251.5 -91l254 20l6 -139q-201 -29 -297 -28q-250 0 -344.5 126t-94.5 445z" />
<glyph unicode="d" horiz-adv-x="1155" d="M106 528q0 287 103.5 422t341.5 135q123 0 260 -26v432h160v-1491h-160v70q-164 -90 -324 -90q-84 0 -147.5 21.5t-119.5 78.5t-85 169.5t-29 278.5zM266 524q0 -123 19.5 -205.5t56.5 -121.5t76 -55.5t92 -16.5q63 0 139 20.5t117 38.5l45 21v713q-176 25 -250 24 q-164 0 -229.5 -100.5t-65.5 -317.5z" />
<glyph unicode="e" horiz-adv-x="1079" d="M106 526q0 559 447 559q215 0 321.5 -119.5t106.5 -377.5l-8 -123h-705q2 -176 64.5 -259t216.5 -83q72 0 169 6l159 10l63 4l4 -131q-242 -33 -414 -32q-231 0 -327.5 132.5t-96.5 413.5zM268 594h553q0 190 -63.5 270t-204.5 80q-285 0 -285 -350z" />
<glyph unicode="f" horiz-adv-x="710" d="M59 920v145h136v96q0 225 62 306t222 81l215 -14l-2 -133q-119 4 -180 4q-92 0 -126 -51t-34 -195v-94h310v-145h-310v-920h-157v920h-136z" />
<glyph unicode="g" horiz-adv-x="1101" d="M100 -178q0 86 38 140t130 124q-57 37 -57 145q0 18 18.5 60.5t34.5 75.5l17 34q-166 76 -166 322q0 362 397 362l221 -26l311 6v-137h-192q66 -70 66 -205q0 -203 -97.5 -282t-316.5 -79q-57 0 -103 9q-39 -94 -39 -121q0 -68 40 -83t219 -15q233 0 322 -64.5t89 -249.5 q0 -348 -475 -348q-254 0 -355.5 71t-101.5 261zM258 -166q0 -113 62.5 -157t240.5 -44q162 0 235.5 47.5t73.5 151.5q0 115 -54 146.5t-208 31.5l-231 10q-68 -51 -93.5 -89t-25.5 -97zM274 723q0 -121 50.5 -173t179.5 -52q137 0 195.5 50t58.5 175q0 133 -54.5 179 t-193.5 46q-123 0 -179.5 -51t-56.5 -174z" />
<glyph unicode="h" horiz-adv-x="1202" d="M184 0v1554h160v-540q180 72 330 71q215 0 286.5 -115.5t71.5 -414.5v-555h-160v553q0 223 -42 305t-181 82q-63 0 -139 -16.5t-121 -30.5l-45 -16v-877h-160z" />
<glyph unicode="i" horiz-adv-x="501" d="M172 0v1065h158v-1065h-158zM172 1307v184h158v-184h-158z" />
<glyph unicode="j" horiz-adv-x="526" d="M-68 -356q166 96 216.5 162.5t50.5 205.5v1053h157v-1055q0 -195 -70.5 -293t-283.5 -206zM199 1313v186h157v-186h-157z" />
<glyph unicode="k" horiz-adv-x="1056" d="M184 0v1530h160v-893l166 8l317 420h179l-357 -490l363 -575h-181l-319 487l-168 -8v-479h-160z" />
<glyph unicode="l" horiz-adv-x="514" d="M178 0v1530h158v-1530h-158z" />
<glyph unicode="m" horiz-adv-x="1839" d="M184 0v1065h160v-72q129 76 266 84q43 5 76 5q24 0 43 -3q131 -12 195 -88q254 94 387 94q213 0 285.5 -114.5t72.5 -417.5v-553h-160v504q0 260 -38.5 348t-184.5 88q-139 0 -297 -80q25 -72 25 -307v-553h-160v549q0 231 -42 311t-181 80q-63 0 -135 -20.5t-113 -38.5 l-39 -21v-860h-160z" />
<glyph unicode="n" horiz-adv-x="1208" d="M184 0v1065h160v-70q180 90 332 90q213 0 284.5 -115.5t71.5 -416.5v-553h-158v551q0 225 -41.5 307t-183.5 82q-139 0 -305 -80v-860h-160z" />
<glyph unicode="o" horiz-adv-x="1124" d="M106 547q0 283 105.5 410.5t353.5 127.5q238 0 345.5 -133t107.5 -409q0 -291 -98.5 -427t-354.5 -136q-262 0 -360.5 132t-98.5 435zM270 547q0 -238 57.5 -332t237.5 -94q176 0 232.5 96t56.5 326q0 213 -68.5 306t-220.5 93q-170 0 -232.5 -87t-62.5 -308z" />
<glyph unicode="p" horiz-adv-x="1153" d="M184 -473v1538h160v-74q160 94 318 94q203 0 295 -127t92 -413q0 -311 -107.5 -438t-357.5 -127q-129 0 -240 22v-475h-160zM344 145q102 -25 231 -24q174 0 243 96t69 332q0 209 -62.5 300t-183.5 91q-139 0 -297 -84v-711z" />
<glyph unicode="q" horiz-adv-x="1142" d="M106 514q0 293 109 432t377 139l366 -20v-1538h-159v510q-115 -57 -269 -57q-227 0 -325.5 133t-98.5 401zM268 516q0 -199 59.5 -297t203 -98t268.5 67v746q-139 8 -205 8q-184 0 -255 -101.5t-71 -324.5z" />
<glyph unicode="r" horiz-adv-x="757" d="M184 0v1065h160v-141q166 125 371 161v-165q-88 -16 -181.5 -52.5t-142.5 -66.5l-47 -27v-774h-160z" />
<glyph unicode="s" horiz-adv-x="1040" d="M117 776q0 162 109.5 235.5t273.5 73.5l387 -38l-4 -140q-238 35 -373 35q-231 0 -231 -160q0 -76 51 -107.5t209 -53.5q219 -35 301 -97.5t82 -212.5q0 -180 -105.5 -255.5t-308.5 -75.5l-377 38l10 140q242 -37 351 -37q139 0 203.5 40t64.5 144q0 80 -52.5 112 t-215.5 58q-209 33 -292 92t-83 209z" />
<glyph unicode="t" horiz-adv-x="772" d="M57 920v145h152v326h160v-326h336v-145h-336v-496q0 -182 25.5 -239.5t127.5 -57.5l189 12l10 -139q-141 -23 -217 -23q-168 0 -231.5 82t-63.5 308v553h-152z" />
<glyph unicode="u" horiz-adv-x="1189" d="M170 510v555h158v-553q0 -233 41 -312t184 -79q63 0 136 20.5t116 38.5l41 21v864h158v-1065h-158v68q-166 -88 -316 -88q-217 0 -288.5 112.5t-71.5 417.5z" />
<glyph unicode="v" horiz-adv-x="1026" d="M51 1065h166l256 -928h78l260 928h162l-301 -1065h-320z" />
<glyph unicode="w" horiz-adv-x="1611" d="M59 1065h160l213 -920h35l256 899h168l252 -899h35l215 920h159l-254 -1065h-270l-223 834l-227 -834h-267z" />
<glyph unicode="x" horiz-adv-x="978" d="M57 0l332 532l-332 533h172l260 -418l261 418h174l-334 -533l334 -532h-174l-261 416l-258 -416h-174z" />
<glyph unicode="y" horiz-adv-x="1026" d="M51 1065h160l266 -911h72l266 911h160l-443 -1538h-159l137 473h-156z" />
<glyph unicode="z" horiz-adv-x="1019" d="M115 0v145l598 775h-598v145h790v-145l-598 -775h598v-145h-790z" />
<glyph unicode="{" horiz-adv-x="653" d="M20 594v137q121 29 167 82t46 148q0 29 -7 129t-7 143q0 197 95.5 281.5t314.5 93.5l2 -154q-143 -8 -193.5 -60.5t-50.5 -168.5q0 -37 8 -134.5t8 -127.5q0 -131 -47 -196t-166 -103q117 -37 165 -103.5t48 -198.5q0 -6 -8 -104t-8 -143q0 -117 50 -171.5t194 -62.5 l-2 -153q-217 8 -313.5 95t-96.5 277q0 45 7 140.5t7 119.5q0 94 -46 148.5t-167 85.5z" />
<glyph unicode="|" d="M473 -270v1804h162v-1804h-162z" />
<glyph unicode="}" horiz-adv-x="653" d="M20 -119q141 8 192.5 62.5t51.5 171.5q0 43 -7 129t-7 118q0 131 47 198t166 104q-121 39 -167 103t-46 196q0 31 7 128t7 134q0 117 -51 169t-193 60l3 154q221 -8 315 -93t94 -282q0 -43 -7 -143.5t-7 -128.5q0 -94 47 -147.5t166 -82.5v-137q-119 -31 -166 -85 t-47 -149q0 -25 7 -120t7 -140q0 -190 -95 -277t-314 -95z" />
<glyph unicode="~" d="M137 694q12 12 36 31.5t86.5 51.5t115.5 32q66 0 208 -53.5t185 -53.5q37 0 89 26t87 52l33 23l16 -154l-35 -31q-20 -18 -80.5 -48.5t-111.5 -30.5q-66 0 -210 53t-187 53q-41 0 -94.5 -25.5t-86.5 -50.5l-34 -26z" />
<glyph unicode="&#xa2;" horiz-adv-x="929" d="M86 528q0 442 377 463v250h139v-258l215 -20l-6 -144q-195 16 -276 17q-158 0 -219.5 -69t-61.5 -239q0 -172 60.5 -234.5t234.5 -62.5l264 15l6 -144q-125 -14 -215 -20v-254h-139v248q-199 12 -289 111t-90 341z" />
<glyph unicode="&#xa3;" d="M174 0v141h182v609h-143v141h143v135q0 246 80 334t248 88q43 0 109.5 -6t113.5 -15l45 -6v-139q-176 25 -264 25q-102 0 -138 -60.5t-36 -230.5v-125h360v-141h-360v-609h328l162 33l26 -135l-174 -39h-682z" />
<glyph unicode="&#xa5;" horiz-adv-x="1148" d="M29 1405h182l367 -574l362 574h182l-364 -596h291v-137h-371l-19 -41v-137h392v-138h-392v-356h-163v356h-394v138h394v137l-17 41h-379v137h297z" />
<glyph unicode="&#xa8;" horiz-adv-x="501" d="M-25 1331v193h152v-193h-152zM401 1331v193h154v-193h-154z" />
<glyph unicode="&#xa9;" d="M20 924q0 240 156 403.5t389 163.5q236 0 390.5 -165t154.5 -402.5t-154.5 -400.5t-392.5 -163q-233 0 -388 164t-155 400zM115 924.5q0 -197.5 128 -333.5t321.5 -136t322.5 136t129 333.5t-129 335t-321.5 137.5t-321.5 -137.5t-129 -335zM315 926q0 162 56.5 242.5 t195.5 80.5l160 -12l-2 -129q-76 12 -158 12q-76 0 -100.5 -48t-24.5 -146q0 -197 125 -197l158 14l2 -129q-80 -18 -160 -18q-139 0 -195.5 81t-56.5 249z" />
<glyph unicode="&#xab;" horiz-adv-x="1247" d="M193 465v127l401 305v-164l-264 -201l264 -223v-166zM696 465v127l406 305v-164l-266 -201l266 -223v-166z" />
<glyph unicode="&#xad;" horiz-adv-x="935" d="M137 520v158h664v-158h-664z" />
<glyph unicode="&#xae;" d="M4 924.5q0 244.5 155.5 412.5t404.5 168t407.5 -168t158.5 -413q0 -242 -159.5 -412t-405.5 -170q-250 0 -405.5 169t-155.5 413.5zM98 924q0 -201 134.5 -344.5t332 -143.5t332.5 143.5t135 344.5q0 205 -135 348t-332 143q-201 0 -334 -142t-133 -349zM328 588v672h223 q133 0 192.5 -46.5t59.5 -156.5q0 -156 -107 -201l121 -268h-131l-113 254h-124v-254h-121zM449 944h126q57 0 83 23.5t26 83.5q0 57 -31.5 81.5t-101.5 24.5h-102v-213z" />
<glyph unicode="&#xb4;" horiz-adv-x="569" d="M51 1395l465 202l57 -149l-469 -182z" />
<glyph unicode="&#xb8;" horiz-adv-x="1773" d="M815 -446l6 102q84 -8 142 -8q94 0 94 82q0 72 -94 71h-91v201h89v-106q125 0 182 -34t57 -132q0 -193 -201 -193q-43 0 -89 3t-70 9z" />
<glyph unicode="&#xbb;" horiz-adv-x="1247" d="M147 143v166l267 223l-267 201v164l404 -305v-127zM653 143v166l265 223l-265 201v164l404 -305v-127z" />
<glyph unicode="&#x2c6;" horiz-adv-x="501" d="M-53 1262l266 315h127l268 -315h-176l-153 178l-156 -178h-176z" />
<glyph unicode="&#x2da;" horiz-adv-x="501" d="M39 1374q0 94 63.5 157.5t157.5 63.5q92 0 155.5 -63.5t63.5 -157.5t-62.5 -157.5t-156.5 -63.5t-157.5 63.5t-63.5 157.5zM156 1374q0 -45 29.5 -76.5t74.5 -31.5t75 31.5t30 76.5t-30 76t-75 31t-74.5 -31t-29.5 -76z" />
<glyph unicode="&#x2dc;" horiz-adv-x="501" d="M-74 1440q109 115 195 114q55 0 171 -52t142 -52q45 0 150 86l37 -123q-98 -111 -187 -110q-51 0 -165.5 53t-147.5 53q-51 0 -158 -90z" />
<glyph unicode="&#x3c0;" d="M8 893v143q53 12 133 18.5t133 8.5l54 2h460q203 0 308 35v-146q-66 -27 -197 -32v-594q0 -119 37 -158t147 -39v-139q-211 0 -277.5 67.5t-66.5 268.5v592h-331l-60 -920h-160l60 920q-152 -7 -240 -27z" />
<glyph unicode="&#x410;" horiz-adv-x="1286" d="M61 0l406 1483h360l398 -1481h-162l-113 371h-618l-107 -373h-164zM371 530h544l-219 801h-106z" />
<glyph unicode="&#x412;" horiz-adv-x="1314" d="M193 0v1483h532q438 0 438 -367q0 -145 -47 -227t-141 -127q111 -37 172 -116t61 -228q0 -223 -117.5 -320.5t-338.5 -97.5h-559zM354 152h391q143 0 219 62t76 212q0 252 -305 252h-381v-526zM354 827h379q135 0 198.5 67t63.5 202q0 125 -67.5 180t-210.5 55h-363v-504 z" />
<glyph unicode="&#x415;" horiz-adv-x="1200" d="M193 0v1483h892v-156h-731v-500h604v-153h-604v-518h731v-156h-892z" />
<glyph unicode="&#x41a;" horiz-adv-x="1265" d="M193 0v1483h163v-684l240 8l377 676h190l-422 -742l445 -741h-193l-393 651l-244 -8v-643h-163z" />
<glyph unicode="&#x41c;" horiz-adv-x="1810" d="M193 0v1483h284l428 -1247l430 1247h283v-1483h-164v1290h-29l-430 -1237h-182l-428 1237h-29v-1290h-163z" />
<glyph unicode="&#x41d;" horiz-adv-x="1458" d="M193 0v1483h163v-656h750v656h162v-1483h-162v670h-750v-670h-163z" />
<glyph unicode="&#x41e;" horiz-adv-x="1386" d="M111 733q0 389 129 579.5t454.5 190.5t453.5 -189.5t128 -580.5q0 -399 -126 -576t-455.5 -177t-456.5 180t-127 573zM281 733q0 -317 84 -457.5t329.5 -140.5t329.5 137.5t84 460.5q0 315 -87 465t-326.5 150t-326.5 -148t-87 -467z" />
<glyph unicode="&#x420;" horiz-adv-x="1290" d="M193 0v1483h538q240 0 355.5 -117t115.5 -358q0 -248 -117.5 -380t-353.5 -132h-375v-496h-163zM356 653h373q303 0 303 355q0 164 -71.5 240.5t-231.5 76.5h-373v-672z" />
<glyph unicode="&#x421;" horiz-adv-x="1140" d="M109 737q0 399 113.5 582.5t424.5 183.5q86 0 188.5 -12t161.5 -25l58 -12l-8 -145q-233 35 -383 34q-233 0 -310.5 -138t-77.5 -468q0 -326 77 -462t317 -136q59 0 152 9.5t157 17.5l68 10l6 -147q-238 -49 -406 -49q-162 0 -269.5 47t-165.5 149.5t-80.5 234 t-22.5 326.5z" />
<glyph unicode="&#x422;" horiz-adv-x="1046" d="M-8 1325v158h1065v-158h-451v-1325h-162v1325h-452z" />
<glyph unicode="&#x425;" horiz-adv-x="1236" d="M63 0l449 735l-449 748h187l371 -623l368 623h185l-441 -748l441 -735h-185l-366 614l-373 -614h-187z" />
<glyph unicode="&#x430;" horiz-adv-x="1110" d="M104 305q0 152 79 225.5t245 90.5l336 30v88q0 195 -184 195l-408 -29l-6 139q256 41 420 41q170 0 253 -83.5t83 -262.5v-524q4 -84 125 -98l-7 -137q-174 0 -252 79q-193 -80 -395 -79q-137 0 -213 84.5t-76 240.5zM266 309q0 -92 39 -142t111.5 -50t159 16.5 t137.5 32.5l51 14v342l-315 -26q-183 -17 -183 -187z" />
<glyph unicode="&#x435;" horiz-adv-x="1079" d="M106 526q0 559 447 559q215 0 321.5 -119.5t106.5 -377.5l-8 -123h-705q2 -176 64.5 -259t216.5 -83q72 0 169 6l159 10l63 4l4 -131q-242 -33 -414 -32q-231 0 -327.5 132.5t-96.5 413.5zM268 594h553q0 190 -63.5 270t-204.5 80q-285 0 -285 -350z" />
<glyph unicode="&#x43e;" horiz-adv-x="1124" d="M106 547q0 283 105.5 410.5t353.5 127.5q238 0 345.5 -133t107.5 -409q0 -291 -98.5 -427t-354.5 -136q-262 0 -360.5 132t-98.5 435zM270 547q0 -238 57.5 -332t237.5 -94q176 0 232.5 96t56.5 326q0 213 -68.5 306t-220.5 93q-170 0 -232.5 -87t-62.5 -308z" />
<glyph unicode="&#x43f;" d="M8 893v143q53 12 133 18.5t133 8.5l54 2h460q203 0 308 35v-146q-66 -27 -197 -32v-594q0 -119 37 -158t147 -39v-139q-211 0 -277.5 67.5t-66.5 268.5v592h-331l-60 -920h-160l60 920q-152 -7 -240 -27z" />
<glyph unicode="&#x440;" horiz-adv-x="1153" d="M184 -473v1538h160v-74q160 94 318 94q203 0 295 -127t92 -413q0 -311 -107.5 -438t-357.5 -127q-129 0 -240 22v-475h-160zM344 145q102 -25 231 -24q174 0 243 96t69 332q0 209 -62.5 300t-183.5 91q-139 0 -297 -84v-711z" />
<glyph unicode="&#x441;" horiz-adv-x="929" d="M106 551q0 291 101.5 412.5t339.5 121.5q43 0 115.5 -8t123.5 -16l52 -6l-4 -140q-172 20 -252 21q-180 0 -246 -85t-66 -300q0 -242 60.5 -333t251.5 -91l254 20l6 -139q-201 -29 -297 -28q-250 0 -344.5 126t-94.5 445z" />
<glyph unicode="&#x443;" horiz-adv-x="1026" d="M51 1065h160l266 -911h72l266 911h160l-443 -1538h-159l137 473h-156z" />
<glyph unicode="&#x445;" horiz-adv-x="978" d="M57 0l332 532l-332 533h172l260 -418l261 418h174l-334 -533l334 -532h-174l-261 416l-258 -416h-174z" />
<glyph unicode="&#x2010;" horiz-adv-x="935" d="M137 520v158h664v-158h-664z" />
<glyph unicode="&#x2011;" horiz-adv-x="935" d="M137 520v158h664v-158h-664z" />
<glyph unicode="&#x2012;" horiz-adv-x="935" d="M137 520v158h664v-158h-664z" />
<glyph unicode="&#x2013;" horiz-adv-x="1064" d="M0 502v149h1065v-149h-1065z" />
<glyph unicode="&#x2014;" horiz-adv-x="2129" d="M0 502v149h2130v-149h-2130z" />
<glyph unicode="&#x2018;" horiz-adv-x="360" d="M31 1081l110 467h144l-90 -467h-164z" />
<glyph unicode="&#x2019;" horiz-adv-x="360" d="M74 1122l92 467h164l-111 -467h-145z" />
<glyph unicode="&#x201a;" horiz-adv-x="407" d="M57 -219l111 467h145l-92 -467h-164z" />
<glyph unicode="&#x201c;" horiz-adv-x="811" d="M242 1081l110 467h172l-92 -467h-190z" />
<glyph unicode="&#x201d;" horiz-adv-x="823" d="M147 1077l91 467h165l-112 -467h-144zM479 1077l92 467h164l-110 -467h-146z" />
<glyph unicode="&#x201e;" horiz-adv-x="778" d="M57 -219l111 467h145l-92 -467h-164zM436 -219l111 467h145l-92 -467h-164z" />
<glyph unicode="&#x2026;" horiz-adv-x="1583" d="M182 0v244h174v-244h-174zM725 0v244h174v-244h-174zM1268 0v244h172v-244h-172z" />
<glyph unicode="&#x2039;" horiz-adv-x="661" d="M106 465v127l404 305v-164l-264 -201l264 -223v-166z" />
<glyph unicode="&#x203a;" horiz-adv-x="661" d="M154 152v165l266 224l-266 200v164l401 -305v-127z" />
<glyph unicode="&#x20ac;" horiz-adv-x="1181" d="M63 475v131h127q-2 31 -2 99.5t2 101.5h-127v133h136q25 262 140.5 380t377.5 118l379 -41l-9 -148q-201 29 -352 29q-188 0 -268 -79t-98 -259l575 -2v-131h-586v-201l586 -2v-129h-575q18 -178 99 -257t271 -79l348 29l9 -150q-209 -39 -379 -38q-266 0 -381 117.5 t-137 377.5h-136z" />
<glyph unicode="&#x2122;" d="M14 1235v106h426v-106h-139v-528h-119v528h-168zM508 705v636h149l144 -442l149 442h152v-636h-111v477l-141 -445h-92l-140 445v-477h-110z" />
<glyph unicode="&#xe000;" horiz-adv-x="1065" d="M0 1065h1065v-1065h-1065v1065z" />
<glyph horiz-adv-x="499" />
</font>
</defs>
</svg>
