<?xml version="1.0" standalone="no"?>
<!DOCTYPE svg PUBLIC "-//W3C//DTD SVG 1.1//EN" "http://www.w3.org/Graphics/SVG/1.1/DTD/svg11.dtd" >
<svg xmlns="http://www.w3.org/2000/svg">
<metadata>
This is a custom SVG webfont generated by Font Squirrel.
Copyright   : Copyright  2009 ParaType Ltd All rights reserved
Designer    : AKorolkova OUmpeleva VYefimov
Foundry     : ParaType Ltd
Foundry URL : httpwwwparatypecom
</metadata>
<defs>
<font id="PTSansCaptionRegular" horiz-adv-x="1191" >
<font-face units-per-em="2048" ascent="1536" descent="-512" />
<missing-glyph horiz-adv-x="583" />
<glyph unicode=" "  horiz-adv-x="583" />
<glyph unicode="&#x09;" horiz-adv-x="583" />
<glyph unicode="&#xa0;" horiz-adv-x="583" />
<glyph unicode="!" horiz-adv-x="663" d="M231 102q0 57 37 92t97 35q61 0 98 -34.5t37 -92.5q0 -53 -37 -90t-98 -37q-59 0 -96.5 37t-37.5 90zM268 717v688h197v-688l-39 -348h-117z" />
<glyph unicode="&#x22;" horiz-adv-x="751" d="M197 1008v397h184l-70 -397h-114zM457 1008v397h186l-72 -397h-114z" />
<glyph unicode="#" d="M51 444l35 144h174l66 250h-164l35 143h165l82 309h162l-80 -309h228l80 309h161l-80 -309h166l-37 -143h-167l-64 -250h158l-37 -144h-160l-86 -329h-160l84 329h-227l-84 -329h-162l84 329h-172zM424 588h227l64 250h-228z" />
<glyph unicode="$" d="M160 45l63 168q45 -25 121 -45.5t184 -24.5v502q-68 27 -132 60.5t-115.5 81t-83 112t-31.5 156.5q0 158 91 253t271 117v181h158v-176q111 -4 183.5 -20.5t129.5 -43.5l-57 -164q-41 20 -103.5 35.5t-152.5 22.5v-459q68 -31 136.5 -66t122.5 -83t87 -112.5t33 -154.5 q0 -166 -97.5 -269.5t-281.5 -131.5v-185h-158v174q-123 4 -217 23.5t-151 48.5zM362 1069q0 -80 60.5 -129t148.5 -88v408q-117 -8 -163 -61.5t-46 -129.5zM643 147q102 10 163.5 63.5t61.5 154.5q0 45 -17 78.5t-49 61t-73 49t-86 42.5v-449z" />
<glyph unicode="%" horiz-adv-x="1712" d="M150 1087q0 88 25.5 153t71.5 107t109.5 62.5t137 20.5t137 -19.5t110.5 -59.5t74 -105.5t27 -158t-27 -158t-74 -105.5t-110.5 -58t-137 -18t-137 18t-109.5 58t-71.5 105.5t-25.5 157.5zM266 72l1147 1360l117 -97l-1149 -1362zM326 1087q0 -109 43 -159.5t125 -50.5 q80 0 125 46t45 164q0 121 -44.5 166t-125.5 45q-80 0 -124 -45t-44 -166zM950 342q0 88 25.5 151.5t72 106.5t110 62.5t137 19.5t137 -18.5t110.5 -59.5t73.5 -105.5t26.5 -156.5t-26.5 -157.5t-73.5 -105.5t-110.5 -59.5t-137 -19.5t-137 19.5t-110 59.5t-72 105.5 t-25.5 157.5zM1126 342q0 -109 43 -160t125 -51q80 0 125 46t45 165t-44 165t-126 46q-80 0 -124 -46t-44 -165z" />
<glyph unicode="&#x26;" horiz-adv-x="1787" d="M250 379q0 80 30.5 151.5t82 135t119 116t141.5 90.5q-53 72 -90 142.5t-37 152.5q0 49 18 96.5t57 84t101.5 60.5t150.5 24q92 0 155.5 -23t101.5 -57.5t54.5 -78.5t16.5 -89q0 -82 -69.5 -172t-225.5 -168q78 -117 180.5 -233.5t208.5 -217.5q23 25 48.5 60.5 t46.5 77.5l42 85q20 43 35 84l144 -73q-10 -35 -35 -81t-53.5 -93t-59.5 -90.5t-57 -73.5q45 -39 79.5 -65.5t66.5 -47t59.5 -36t58.5 -29.5l-113 -138q-55 29 -122.5 75t-137.5 110q-41 -35 -88 -69t-106.5 -58.5t-131 -41t-159.5 -16.5q-104 0 -196.5 28t-162 80 t-111.5 127t-42 171zM442 387q0 -57 28 -104t75 -81t110.5 -50.5t132.5 -16.5q53 0 104.5 11.5t96.5 31t81 45t60 49.5q-61 57 -121.5 123t-114.5 131l-101 126l-82 106q-119 -80 -194 -167t-75 -204zM686 1163q0 -55 25.5 -110.5t66.5 -112.5q113 63 158 115.5t45 93.5 q0 63 -33 100t-117 37q-78 0 -111.5 -33t-33.5 -90z" />
<glyph unicode="'" horiz-adv-x="489" d="M197 1008v397h184l-70 -397h-114z" />
<glyph unicode="(" horiz-adv-x="628" d="M133 487q0 111 18.5 234t62.5 246t115.5 241.5t176.5 221.5l117 -87q-86 -100 -144.5 -207.5t-92.5 -217t-49 -219t-15 -212.5q0 -96 16 -206.5t54 -221t95.5 -217t137.5 -194.5l-125 -90q-102 96 -172 211.5t-114 237.5t-62.5 244.5t-18.5 235.5z" />
<glyph unicode=")" horiz-adv-x="626" d="M6 -352q88 102 146.5 208.5t92.5 215t48 217t14 211.5q0 96 -17.5 206.5t-53 221t-92 216t-136.5 193.5l123 93q100 -96 170 -212t113 -238t62.5 -245t19.5 -235q0 -111 -19.5 -233t-63.5 -245.5t-115 -242.5t-175 -221z" />
<glyph unicode="*" horiz-adv-x="776" d="M90 1102v127h111l137 -29l-100 94l-60 97l111 63l57 -90l37 -117l43 115l53 92l109 -61l-58 -95l-100 -98l148 29h106v-127h-102l-138 28l101 -100l49 -82l-107 -63l-55 90l-51 127l-37 -121l-55 -90l-115 63l62 90l92 86l-127 -28h-111z" />
<glyph unicode="+" horiz-adv-x="1110" d="M86 592v168h383v383h174v-383h383v-168h-383v-383h-174v383h-383z" />
<glyph unicode="," horiz-adv-x="438" d="M92 -209q76 27 116 84t38 115q-20 -6 -39 -6q-32 0 -59 18q-42 29 -42 92q0 53 38 86t94 33q70 0 113.5 -47t43.5 -131q0 -80 -22.5 -136.5t-59.5 -98.5t-80 -65.5t-83 -35.5z" />
<glyph unicode="-" horiz-adv-x="790" d="M129 494v172h533v-172h-533z" />
<glyph unicode="." horiz-adv-x="477" d="M104 102q0 57 37 92t99 35q59 0 96 -34.5t37 -92.5q0 -53 -37 -90t-96 -37q-61 0 -98.5 37t-37.5 90z" />
<glyph unicode="/" horiz-adv-x="794" d="M-76 -209l799 1639l147 -70l-800 -1641z" />
<glyph unicode="0" d="M88 702q0 350 129 540t379 190q264 0 387 -187.5t123 -542.5q0 -350 -130 -539.5t-382 -189.5q-133 0 -228.5 52.5t-155.5 147.5t-91 230t-31 299zM285 702q0 -123 18.5 -226t55 -179t96 -119t141.5 -43q162 0 237.5 140.5t75.5 426.5q0 123 -16 226.5t-53 179.5 t-97.5 119t-146.5 43q-162 0 -236.5 -142.5t-74.5 -425.5z" />
<glyph unicode="1" d="M145 1081l484 349h88v-1262h301v-168h-791v168h305v934l23 123l-88 -101l-238 -161z" />
<glyph unicode="2" d="M131 0v72l115 113q68 67 140.5 149t144 172t128 183t91 183.5t34.5 171.5q0 94 -58 156t-177 62q-86 0 -164 -32t-135 -77l-82 133q82 68 186.5 107t231.5 39q186 0 290.5 -97.5t104.5 -259.5q0 -102 -42 -209.5t-109.5 -213t-150.5 -210.5l-167 -200l-109 -88v-7l146 21 h467v-168h-885z" />
<glyph unicode="3" d="M184 31l52 164q51 -25 120.5 -40.5t155.5 -15.5q74 0 136.5 19.5t106.5 55.5t69.5 87t25.5 111q0 133 -89 196.5t-251 63.5h-162v78l305 415l105 88l-148 -16h-422v168h793v-78l-338 -457l-82 -57v-6l78 14q86 -2 158.5 -30.5t127 -80t85 -122t30.5 -158.5 q0 -113 -43 -196.5t-114.5 -142t-168 -88.5t-206.5 -30q-98 0 -180.5 15.5t-143.5 42.5z" />
<glyph unicode="4" d="M39 424v84l725 917h135v-845h256v-156h-256v-424h-184v424h-676zM250 563l149 17h316v407l18 162h-6l-76 -131l-297 -361z" />
<glyph unicode="5" d="M160 20l53 160q49 -18 106.5 -27.5t145.5 -9.5q152 0 248 73t96 216q0 137 -97.5 207t-269.5 70l-184 -9v705h696v-176h-518v-365l94 4q109 0 195 -29.5t147.5 -84t94 -133t32.5 -179.5q0 -115 -42 -202.5t-115.5 -146t-172 -89.5t-210.5 -31q-96 0 -167 12t-132 35z" />
<glyph unicode="6" d="M125 479q0 193 56.5 359t155.5 291.5t234.5 204.5t294.5 98l39 -154q-121 -16 -220 -70.5t-174 -134.5t-123 -177t-64 -198q18 27 46.5 52.5t68.5 46t90.5 33t109.5 12.5q102 0 185 -30t140.5 -84t88 -130t30.5 -172q0 -88 -31.5 -170t-92 -144.5t-148.5 -100.5t-201 -38 q-109 0 -197.5 35t-153 98.5t-99.5 157.5t-35 215zM309 453q0 -57 18.5 -114.5t56.5 -103t95.5 -73t132.5 -27.5q61 0 112.5 21.5t89.5 59.5t58.5 88t20.5 108q0 133 -72.5 200.5t-220.5 67.5q-106 0 -181 -46t-106 -104q-4 -27 -4 -42v-35z" />
<glyph unicode="7" d="M125 1229v176h930v-57l-631 -1348h-193l541 1151l96 98l-129 -20h-614z" />
<glyph unicode="8" d="M143 342q0 125 72 216t221 165q-55 31 -102 63.5t-82 74.5t-55.5 94.5t-20.5 117.5q0 78 31 142.5t87 112.5t136 76t180 28q92 0 167 -25t128 -69t83 -103t30 -129q0 -115 -56.5 -201t-187.5 -166q59 -33 110.5 -67.5t88.5 -78.5t58.5 -98.5t21.5 -123.5q0 -86 -32 -158 t-92.5 -125t-147.5 -84t-197 -31q-106 0 -187.5 30t-138.5 79t-86 115.5t-29 144.5zM324 367q0 -45 17 -87t52 -75t85 -51.5t116 -18.5q55 0 105.5 14.5t87 43t58 71.5t21.5 98.5t-25.5 98.5t-68.5 77.5t-98.5 64.5t-114.5 56q-127 -63 -181 -141.5t-54 -150.5zM362 1077 q0 -53 25 -95t63.5 -76t91.5 -60l109 -53q92 66 138.5 132t46.5 142q0 49 -19.5 86t-50.5 63.5t-73 40t-89 13.5q-57 0 -102 -16.5t-76 -44t-47.5 -61.5t-16.5 -71z" />
<glyph unicode="9" d="M106 977q0 94 31 178t91.5 144.5t150.5 96.5t209 36q113 0 202 -37t151.5 -102.5t95 -160t32.5 -212.5q0 -227 -57.5 -397.5t-157.5 -288t-236.5 -182t-291.5 -79.5l-41 152q127 14 227 61t172 120t119 166t63 202q-29 -31 -60.5 -53.5t-68.5 -36t-82 -18.5t-102 -5 q-90 0 -171 28.5t-142.5 81t-97.5 129.5t-36 177zM299 991q0 -135 82 -203.5t213 -68.5q106 0 180 33.5t107 83.5q4 23 4 41v41q0 66 -17.5 130t-55.5 114t-96.5 81t-137.5 31q-131 0 -205 -75t-74 -208z" />
<glyph unicode=":" horiz-adv-x="546" d="M199 102q0 57 36.5 92t98.5 35q59 0 96 -34.5t37 -92.5q0 -53 -37 -90t-96 -37q-61 0 -98 37t-37 90zM199 893q0 59 36.5 93t98.5 34q59 0 96 -34t37 -93q0 -53 -37 -90t-96 -37q-61 0 -98 37t-37 90z" />
<glyph unicode=";" horiz-adv-x="555" d="M172 -209q78 27 117 84t37 115q-20 -6 -39 -6q-32 0 -59 18q-42 29 -42 92q0 53 38 86t93 33q70 0 114 -47t44 -131q0 -80 -22.5 -136.5t-59.5 -98.5t-80 -65.5t-84 -35.5zM197 893q0 59 36.5 93t98.5 34q59 0 96 -34t37 -93q0 -53 -37 -90t-96 -37q-61 0 -98 37t-37 90z " />
<glyph unicode="&#x3c;" horiz-adv-x="1110" d="M88 602v76l842 475l84 -145l-514 -289l-201 -74l199 -65l526 -287l-82 -141z" />
<glyph unicode="=" horiz-adv-x="1110" d="M86 420v168h940v-168h-940zM86 764v170h940v-170h-940z" />
<glyph unicode="&#x3e;" horiz-adv-x="1110" d="M88 1010l80 143l856 -455v-75l-844 -471l-82 143l514 289l201 73l-199 66z" />
<glyph unicode="?" horiz-adv-x="960" d="M74 1321q84 51 179 81t232 30q98 0 173 -27t125.5 -72t75 -106.5t24.5 -130.5q0 -94 -30 -162t-74 -120t-96 -96t-96 -93.5t-75 -109.5t-31 -146h-159q-2 27 -3 51q0 68 17 122q23 73 63.5 129t90 100t92.5 88t71.5 94.5t28.5 115.5q0 88 -53.5 144.5t-184.5 56.5 q-82 0 -164.5 -30t-140.5 -64zM276 102q0 57 38 92t97.5 35t97.5 -34.5t38 -92.5q0 -53 -38 -90t-97.5 -37t-97.5 37t-38 90z" />
<glyph unicode="@" horiz-adv-x="2332" d="M186 473q0 225 83 407.5t224.5 312.5t328 200.5t397.5 70.5q197 0 366.5 -56t294.5 -161.5t196.5 -255t71.5 -338.5q0 -123 -48 -238.5t-132 -204.5t-194.5 -142.5t-233.5 -53.5q-57 0 -100 13.5t-70 44t-35 83.5q-3 19 -3 41q0 39 9 89h-8q-33 -47 -74.5 -95.5 t-92 -88.5t-110 -63.5t-124.5 -23.5q-53 0 -99.5 21.5t-81 63.5t-55 97.5t-20.5 125.5q0 121 45 240.5t124 215.5t182 156.5t218 60.5q80 0 130 -22.5t95 -54.5l76 65h84l-112 -565q-18 -95 -19 -153q0 -19 2 -35q8 -60 80 -60q74 0 144.5 35t126 97.5t90 152.5t34.5 198 q0 160 -58 281t-160.5 204t-244 125t-305.5 42q-178 0 -332.5 -62.5t-269 -172t-181.5 -259t-67 -326.5q0 -174 58.5 -315t168 -240.5t265.5 -152.5t348 -53q63 0 143 14t146 43l47 -150q-96 -41 -181 -55t-186 -14q-209 0 -387 61.5t-310 178t-208 285.5t-76 386zM860 352 q0 -72 34 -127t124 -55q41 0 88 28.5t92 74.5t86 104.5t72 118.5l61 272q-37 39 -72.5 55.5t-91.5 16.5q-86 0 -156.5 -46t-122.5 -118t-83 -157t-31 -167z" />
<glyph unicode="A" horiz-adv-x="1294" d="M16 0l578 1425h104l580 -1425h-209l-151 367h-558l-147 -367h-197zM422 537h436l-162 399l-53 215h-4l-55 -219z" />
<glyph unicode="B" horiz-adv-x="1286" d="M178 10v1383q82 14 192.5 22t237.5 8q86 0 177.5 -15t166 -53t122.5 -104.5t48 -171.5q0 -51 -17.5 -102t-52 -96t-89 -80t-127.5 -49v-9q63 -8 123.5 -32.5t106.5 -66.5t73.5 -102.5t27.5 -142.5q0 -109 -50 -187.5t-132 -129.5t-185.5 -75.5t-207.5 -24.5q-37 0 -89 1 t-108.5 4t-114 8t-102.5 15zM375 791h110q39 0 89.5 3t82.5 7q51 14 96.5 34.5t79 50t54 68.5t20.5 90q0 68 -27.5 109t-71.5 63.5t-100.5 29.5t-113.5 7q-70 0 -129 -2t-90 -6v-454zM375 164q14 -4 42.5 -6t61.5 -4t66 -2h61q68 0 131.5 13t111.5 44t76.5 77t28.5 109 q0 80 -34.5 127t-91 73t-126 33t-139.5 7h-188v-471z" />
<glyph unicode="C" horiz-adv-x="1251" d="M117 702q0 197 60.5 335.5t156.5 226.5t216 128t238 40q133 0 217.5 -14.5t143.5 -37.5l-45 -172q-98 45 -299 45q-90 0 -175 -28.5t-152.5 -94t-107.5 -171t-40 -257.5q0 -137 38 -240.5t105.5 -172t158.5 -103t199 -34.5q98 0 170 17t123 46l47 -156 q-66 -47 -168 -66.5t-217 -19.5q-135 0 -255.5 43t-213 133.5t-146.5 227.5t-54 325z" />
<glyph unicode="D" horiz-adv-x="1433" d="M178 -2v1407q41 6 94.5 9t110.5 5t112.5 3t100.5 1q184 0 320.5 -53t225.5 -147.5t133 -225.5t44 -284q0 -141 -41 -272.5t-132 -234t-232.5 -164.5t-342.5 -62q-33 0 -90 2l-117 4q-60 2 -111.5 5t-74.5 7zM379 164q10 -2 40 -3l61 -2q32 -1 59.5 -2t40.5 -1 q152 0 253 47t161.5 126t86 178t25.5 206q0 90 -24.5 184t-82 172t-153.5 128t-244 50h-60q-32 0 -64 -2t-58.5 -4t-40.5 -4v-1073z" />
<glyph unicode="E" horiz-adv-x="1173" d="M178 0v1405h850v-172h-649v-428h592v-172h-592v-461h659v-172h-860z" />
<glyph unicode="F" horiz-adv-x="1132" d="M178 0v1405h850v-172h-649v-449h602v-172h-602v-612h-201z" />
<glyph unicode="G" horiz-adv-x="1339" d="M117 702q0 195 63.5 333.5t163.5 227.5t223 129t246 40q133 0 220 -15.5t145 -38.5l-48 -170q-104 45 -301 45q-90 0 -180 -27.5t-160.5 -93t-114.5 -171t-44 -259.5q0 -143 36.5 -246.5t103.5 -172t157 -100t196 -31.5q66 0 127.5 12t106.5 37v354l-359 37v117h527v-621 q-37 -29 -87.5 -49.5t-107.5 -34.5t-117.5 -22.5t-117.5 -8.5q-143 0 -267.5 43t-215.5 134.5t-143 228.5t-52 323z" />
<glyph unicode="H" horiz-adv-x="1470" d="M178 0v1405h201v-600h713v600h200v-1405h-200v629h-713v-629h-201z" />
<glyph unicode="I" horiz-adv-x="798" d="M139 0v133h160v1139h-160v133h520v-133h-159v-1139h159v-133h-520z" />
<glyph unicode="J" horiz-adv-x="651" d="M-70 14l37 166q57 -25 135 -24q90 0 119 58t29 161v1030h201v-1083q0 -158 -81 -250t-239 -92q-20 0 -48 2t-55.5 7t-53.5 11t-44 14z" />
<glyph unicode="K" horiz-adv-x="1341" d="M178 0v1405h201v-647l92 28l506 619h229l-506 -602l-94 -68l111 -82l557 -653h-252l-545 639h-98v-639h-201z" />
<glyph unicode="L" horiz-adv-x="1134" d="M178 0v1405h201v-1229h719v-176h-920z" />
<glyph unicode="M" horiz-adv-x="1740" d="M178 0v1405h152l475 -717l74 -151h4l71 155l451 713h158v-1405h-201v905l22 225h-8l-86 -194l-391 -623h-59l-412 625l-82 190h-10l31 -221v-907h-189z" />
<glyph unicode="N" horiz-adv-x="1474" d="M178 0v1425h113l717 -911l114 -186h11l-25 186v891h188v-1425h-112l-713 913l-119 197h-8l23 -197v-893h-189z" />
<glyph unicode="O" horiz-adv-x="1499" d="M117 702q0 172 43 308.5t124 229.5t198.5 142.5t267.5 49.5q158 0 277.5 -53.5t198.5 -148.5t117.5 -230.5t38.5 -297.5q0 -172 -43 -308t-124.5 -229t-199.5 -142.5t-265 -49.5q-162 0 -280 53.5t-196.5 148.5t-117.5 230t-39 297zM330 702q0 -115 24.5 -215 t75.5 -175.5t131 -120t189 -44.5q195 0 307 134.5t112 420.5q0 113 -24.5 213.5t-75.5 176t-131 120.5t-188 45q-195 0 -307.5 -136t-112.5 -419z" />
<glyph unicode="P" horiz-adv-x="1230" d="M178 0v1391q84 18 183.5 25t195.5 7q102 0 207.5 -18.5t192.5 -66.5t142.5 -133t55.5 -220q0 -127 -51 -216t-134 -145.5t-190.5 -82t-222.5 -25.5q-10 0 -36 1l-52 2q-27 1 -52.5 3t-37.5 4v-526h-201zM379 698q10 -4 33.5 -5t48 -3t48.5 -2h36q72 0 141.5 11.5 t126.5 43t93 90t36 150.5q0 80 -35 132t-89 83t-120.5 42t-134.5 11q-53 0 -104 -2t-80 -10v-541z" />
<glyph unicode="Q" horiz-adv-x="1499" d="M117 702q0 172 43 308.5t124 229.5t198.5 142.5t267.5 49.5q158 0 277.5 -53.5t198.5 -148.5t117.5 -230.5t38.5 -297.5q0 -172 -43 -308t-124.5 -229t-199.5 -142.5t-265 -49.5q-162 0 -280 53.5t-196.5 148.5t-117.5 230t-39 297zM330 702q0 -115 24.5 -215 t75.5 -175.5t131 -120t189 -44.5q195 0 307 134.5t112 420.5q0 113 -24.5 213.5t-75.5 176t-131 120.5t-188 45q-195 0 -307.5 -136t-112.5 -419zM463 -92q61 12 121 12q90 0 181 -21l185 -45q94 -24 193.5 -45.5t208.5 -21.5q45 0 94 5t102 18v-172q-53 -14 -105 -19.5 t-104 -5.5q-111 0 -216 20.5t-202.5 46l-187.5 47t-172 21.5q-49 0 -98 -12v172z" />
<glyph unicode="R" horiz-adv-x="1308" d="M178 0v1391q43 8 94.5 14t103.5 10t104 6t98 2q100 0 193 -20.5t165 -66.5t115 -119.5t43 -182.5q0 -84 -26 -152.5t-72 -120.5t-109.5 -87t-136.5 -53l102 -70l379 -551h-232l-417 592l-203 29v-621h-201zM379 754h166q72 0 133 14t106 46t71 82t26 122q0 109 -76 171 t-221 62h-58q-29 0 -56.5 -2t-52 -4t-38.5 -6v-485z" />
<glyph unicode="S" horiz-adv-x="1165" d="M96 51l66 176q51 -27 152.5 -53.5t224.5 -26.5q70 0 130 12.5t105 40t69.5 69.5t24.5 100q0 82 -54 131t-136 84t-176 65.5t-176 78.5t-136.5 125t-54.5 200q0 170 125 274.5t358 104.5q135 0 247 -20.5t177 -53.5l-63 -168q-49 27 -149.5 47t-221.5 20 q-137 0 -204.5 -57t-67.5 -135t54 -126t136 -85t176.5 -70.5t176.5 -84t136 -124t54 -188.5q0 -94 -36 -170t-104.5 -130t-164.5 -84t-217 -30q-166 0 -280 25.5t-171 52.5z" />
<glyph unicode="T" horiz-adv-x="1222" d="M39 1229v176h1147v-176h-473v-1229h-201v1229h-473z" />
<glyph unicode="U" horiz-adv-x="1423" d="M178 449v956h201v-881q0 -205 89 -285.5t265 -80.5q168 0 246 89t78 283v875h190v-918q0 -131 -38 -225t-105.5 -156.5t-160.5 -93t-208 -30.5q-272 0 -414.5 118t-142.5 349z" />
<glyph unicode="V" horiz-adv-x="1259" d="M-6 1405h221l379 -936l53 -219h4l54 223l360 932h201l-582 -1425h-100z" />
<glyph unicode="W" horiz-adv-x="1830" d="M16 1405h211l269 -911l32 -236h4l35 240l312 907h100l313 -911l37 -236h4l37 240l250 907h197l-428 -1425h-115l-307 913l-41 213h-11l-41 -215l-307 -911h-116z" />
<glyph unicode="X" horiz-adv-x="1359" d="M53 0l508 715l-463 690h240l303 -461l53 -117l54 117l315 461h221l-477 -676l500 -729h-236l-334 489l-63 123l-56 -123l-344 -489h-221z" />
<glyph unicode="Y" horiz-adv-x="1236" d="M14 1405h236l350 -596l35 -129h4l37 133l336 592h213l-500 -852v-553h-201v551z" />
<glyph unicode="Z" horiz-adv-x="1196" d="M78 0v176l758 973l98 80h-856v176h1040v-176l-764 -979l-94 -74h858v-176h-1040z" />
<glyph unicode="[" horiz-adv-x="673" d="M178 -461v1866h414v-160h-230v-1546h230v-160h-414z" />
<glyph unicode="\" horiz-adv-x="843" d="M-72 1356l152 74l807 -1637l-152 -74z" />
<glyph unicode="]" horiz-adv-x="673" d="M82 -301h229v1546h-229v160h414v-1866h-414v160z" />
<glyph unicode="^" horiz-adv-x="1110" d="M123 862l412 563h75l377 -563h-196l-170 266l-54 138l-63 -140l-201 -264h-180z" />
<glyph unicode="_" horiz-adv-x="905" d="M0 -262h907v-158h-907v158z" />
<glyph unicode="`" horiz-adv-x="602" d="M121 1399v47h221l141 -301h-108z" />
<glyph unicode="a" horiz-adv-x="1167" d="M90 281q0 90 39 156.5t101.5 108.5t141.5 62.5t158 20.5q61 0 104.5 -2t73 -5.5t49 -6.5t36.5 -5q4 31 6 52.5t2 56.5q0 55 -12.5 94t-39 61.5t-72.5 33t-114 10.5q-37 0 -83 -6.5t-92 -17.5t-92 -26.5t-81 -33.5l-51 153q182 86 448 86q121 0 194 -30.5t112.5 -79 t53 -107.5t13.5 -117q0 -111 -8 -222.5t-8 -242.5q0 -76 7 -147.5t23 -130.5h-135l-49 160h-20q-23 -29 -54.5 -61t-75.5 -55.5t-101.5 -39.5t-131.5 -16q-76 0 -137.5 21.5t-106.5 59t-71.5 93t-26.5 123.5zM287 301q0 -80 57 -120t148 -40q66 0 116.5 16.5t88.5 42 t60.5 56.5t35.5 61v160q-16 2 -34 6t-45.5 6.5t-64.5 4.5t-92 2q-123 0 -196.5 -44.5t-73.5 -150.5z" />
<glyph unicode="b" horiz-adv-x="1261" d="M176 55v1350h184v-481h21q47 80 133 118.5t182 38.5q219 0 333 -133t114 -401q0 -276 -148.5 -420.5t-419.5 -144.5q-131 0 -238.5 22t-160.5 51zM360 176q98 -37 240 -37q158 0 252 97.5t94 312.5q0 80 -16.5 148.5t-50 118.5t-85 80t-124.5 30q-63 0 -112.5 -20.5 t-87.5 -55.5t-65.5 -80t-44.5 -94v-500z" />
<glyph unicode="c" horiz-adv-x="1060" d="M121 526q0 266 129 411.5t373 145.5q106 0 184 -18t141 -47l-49 -152q-53 29 -116.5 45.5t-137.5 16.5q-328 0 -328 -402q0 -76 17.5 -147.5t58.5 -126.5t105.5 -89t158.5 -34q86 0 148.5 22.5t105.5 55.5l60 -135q-70 -49 -164 -75t-199 -26q-133 0 -226 40t-151.5 113 t-84 175t-25.5 227z" />
<glyph unicode="d" horiz-adv-x="1261" d="M121 520q0 268 137 411.5t387 143.5q41 0 75 -3t62.5 -7t55.5 -11l57 -16v367h184v-1043q0 -102 3 -191t20 -175h-123l-45 160h-21q-47 -80 -136 -132.5t-208 -52.5q-225 0 -336.5 135t-111.5 414zM313 518q0 -84 16.5 -155.5t50.5 -124t90 -81t138 -28.5 q123 0 190.5 60.5t96.5 181.5v487q-45 35 -98.5 48.5t-143.5 13.5q-162 0 -251 -94.5t-89 -307.5z" />
<glyph unicode="e" horiz-adv-x="1200" d="M121 526q0 270 133 413.5t381 143.5q78 0 155.5 -16t140 -64.5t101.5 -130t39 -215.5q0 -31 -2 -72.5t-8 -82.5h-752q4 -184 88 -278.5t287 -94.5q84 0 161 28.5t118 69.5l71 -141q-72 -51 -176 -83t-225 -32q-133 0 -230.5 39t-160 112t-92 175t-29.5 229zM317 635h578 v17q0 146 -66 209q-70 67 -192 67q-141 0 -223.5 -66.5t-96.5 -226.5z" />
<glyph unicode="f" horiz-adv-x="729" d="M49 897v156h178v28q0 98 17.5 166t57.5 109t102.5 59.5t152.5 18.5q78 0 135.5 -9.5t118.5 -31.5l-41 -150q-51 20 -96 26.5t-88 6.5q-55 0 -90 -10.5t-53.5 -35t-24.5 -67.5t-6 -110h309v-156h-309v-897h-185v897h-178z" />
<glyph unicode="g" horiz-adv-x="1257" d="M121 518q0 270 140 416.5t417 146.5q133 0 228 -15t171 -42v-1030q0 -207 -120.5 -308.5t-356.5 -101.5q-137 0 -221 16.5t-143 45.5l43 166q27 -12 60.5 -25.5t72.5 -24t77.5 -15.5t73.5 -5q98 0 163 16.5t102.5 53t52 92t14.5 135.5v74h-23q-31 -53 -111.5 -85 t-195.5 -32q-227 0 -335.5 124t-108.5 398zM317 522q0 -176 66 -273t223 -97q123 0 191.5 62t95.5 163v518q-45 14 -105.5 22.5t-136.5 8.5q-158 0 -246 -99.5t-88 -304.5z" />
<glyph unicode="h" horiz-adv-x="1286" d="M176 0v1405h184v-481h23q61 72 145 115.5t209 43.5q96 0 166 -20.5t116 -73.5t68.5 -143t22.5 -223v-623h-184v582q0 86 -11.5 149.5t-40 105.5t-77.5 62.5t-125 20.5q-51 0 -101.5 -18.5t-92.5 -50.5t-72.5 -77t-45.5 -102v-672h-184z" />
<glyph unicode="i" horiz-adv-x="634" d="M190 1304.5q0 47.5 36 84t93 36.5q59 0 97.5 -36.5t38.5 -84t-38 -82t-98 -34.5q-57 0 -93 34.5t-36 82zM229 0v1053h185v-1053h-185z" />
<glyph unicode="j" horiz-adv-x="624" d="M25 -264h13q56 0 91 15q39 17 60.5 55t28.5 92.5t7 132.5v1022h185v-1090q0 -195 -74 -290t-236 -95h-34q-18 0 -41 4v154zM182 1304.5q0 47.5 36 84t93 36.5q59 0 97 -36.5t38 -84t-37.5 -82t-97.5 -34.5q-57 0 -93 34.5t-36 82z" />
<glyph unicode="k" horiz-adv-x="1116" d="M176 0v1405h184v-832l105 35l350 445h217l-336 -406h2l-110 -82l127 -90l370 -475h-233l-377 473h-115v-473h-184z" />
<glyph unicode="l" horiz-adv-x="673" d="M201 211v1194h184v-1126q0 -82 32 -116t83 -34q33 0 62.5 4t72.5 17l22 -138q-18 -8 -46.5 -15t-58.5 -13.5t-60.5 -9.5t-53.5 -3q-109 0 -173 55.5t-64 184.5z" />
<glyph unicode="m" horiz-adv-x="1902" d="M176 0v1053h127l37 -140h18q66 72 149 121t212 49q109 0 181.5 -46t111.5 -154q59 92 151 146t207 54q96 0 164 -21.5t110 -75.5t62 -146t20 -234v-606h-184v606q0 80 -9 138.5t-33.5 97.5t-67.5 58.5t-113 19.5q-115 0 -181.5 -60.5t-93.5 -181.5v-678h-186v578 q0 84 -7 148.5t-31.5 107.5t-67.5 64.5t-111 21.5q-106 0 -178 -59.5t-103 -151.5v-709h-184z" />
<glyph unicode="n" horiz-adv-x="1286" d="M176 0v1053h129l37 -140h16q59 72 152.5 121t224.5 49q92 0 162 -20.5t117 -73.5t71.5 -143t24.5 -225v-621h-184v582q0 170 -54.5 254t-193.5 84q-123 0 -204 -63.5t-114 -162.5v-694h-184z" />
<glyph unicode="o" horiz-adv-x="1265" d="M121 526q0 129 33.5 232.5t100.5 176.5t162 110.5t218 37.5q127 0 223 -42t160.5 -116.5t96.5 -176t32 -222.5q0 -129 -36 -231t-100.5 -174t-160.5 -111t-215 -39q-133 0 -229.5 42t-160 117t-94 176t-30.5 220zM317 526q0 -76 17.5 -146.5t55.5 -126.5t98.5 -90 t148.5 -34q313 0 313 397q0 78 -17.5 151t-54 127t-97 89t-144.5 35q-158 0 -239 -99.5t-81 -302.5z" />
<glyph unicode="p" horiz-adv-x="1263" d="M176 -401v1454h125l37 -133h16q55 78 141.5 120.5t194.5 42.5q229 0 342 -127t113 -405q0 -133 -38 -240.5t-106.5 -183.5t-168 -116t-222.5 -40q-41 0 -73.5 3t-60 10.5t-56.5 16.5t-60 22v-424h-184zM360 197q47 -33 101.5 -50.5t138.5 -17.5q162 0 255 106.5t93 317.5 q0 170 -68.5 272.5t-230.5 102.5q-121 0 -189.5 -60.5t-99.5 -185.5v-485z" />
<glyph unicode="q" horiz-adv-x="1253" d="M121 518q0 274 143.5 415.5t421.5 141.5q61 0 118.5 -6t110 -14t94.5 -19.5t68 -23.5v-1413h-182l-2 516h-23q-45 -68 -116.5 -106t-186.5 -38q-446 0 -446 547zM317 522q0 -88 15.5 -160.5t50.5 -124t90 -80t135 -28.5q121 0 187.5 60.5t97.5 179.5v510q-92 41 -242 41 q-162 0 -248 -98.5t-86 -299.5z" />
<glyph unicode="r" horiz-adv-x="761" d="M176 0v1053h129l37 -140h16q47 78 108.5 121t154.5 43q29 0 66.5 -5t74.5 -17l-35 -176q-35 10 -66.5 18t-60.5 8q-106 0 -165.5 -54t-74.5 -136v-715h-184z" />
<glyph unicode="s" horiz-adv-x="1001" d="M109 57l51 162q57 -31 145 -60.5t178 -29.5q98 0 162 35t64 131q0 41 -19.5 67.5t-51.5 46t-74 32.5l-89 28q-57 16 -116.5 35.5t-106.5 52.5t-77 85t-30 132q0 158 93.5 233.5t261.5 75.5q127 0 213 -23.5t149 -51.5l-43 -156q-55 25 -130 50.5t-165 25.5 q-98 0 -146 -33t-48 -117q0 -33 17.5 -56.5t48 -40.5t70.5 -29.5t85 -24.5q59 -16 119.5 -38t110.5 -56.5t81 -89t31 -136.5q0 -150 -100.5 -243t-300.5 -93q-129 0 -224.5 26.5t-158.5 59.5z" />
<glyph unicode="t" horiz-adv-x="811" d="M49 897v156h178v213l185 49v-262h317v-156h-317v-539q0 -125 31.5 -177t109.5 -52q51 0 92 11.5l94 27.5l41 -129q-63 -29 -137 -48.5t-158 -19.5q-139 0 -198.5 77t-59.5 249v600h-178z" />
<glyph unicode="u" horiz-adv-x="1292" d="M176 432v621h184v-580q0 -84 10.5 -148.5t37 -107.5t71.5 -65.5t115 -22.5q121 0 196.5 67.5t116.5 168.5v688h185v-754q0 -76 6 -156t18 -143h-125l-47 174h-20q-53 -90 -145.5 -146.5t-229.5 -56.5q-94 0 -163 22.5t-116 76t-70.5 141.5t-23.5 221z" />
<glyph unicode="v" horiz-adv-x="1073" d="M0 1053h217l268 -604l70 -218l68 220l249 602h201l-491 -1076h-80z" />
<glyph unicode="w" horiz-adv-x="1685" d="M16 1053h203l223 -596l37 -209h19l55 213l244 592h143l172 -400l86 -202l55 -201h13l47 207l196 596h177l-383 -1076h-101l-295 680v-2l-53 197l-59 -199v2l-283 -678h-96z" />
<glyph unicode="x" horiz-adv-x="1187" d="M59 0l408 541l-379 512h236l204 -269l70 -141l82 141l213 269h209l-383 -504l205 -274l204 -275h-229l-231 299l-80 152l-82 -152l-234 -299h-213z" />
<glyph unicode="y" horiz-adv-x="1064" d="M16 1053h220l268 -666l61 -203h27l51 205l217 664h191l-346 -953l-78 -190q-39 -92 -86 -164t-104.5 -115t-131.5 -43q-80 0 -137 19l31 155q31 -10 59 -10q41 0 74 10.5t61.5 37t51 73.5t42.5 121z" />
<glyph unicode="z" horiz-adv-x="1032" d="M96 0v158l520 635l140 104h-660v156h830v-158l-527 -641l-141 -98h668v-156h-830z" />
<glyph unicode="{" horiz-adv-x="768" d="M119 395v154q84 0 129 41t45 129v467q0 96 52 158.5t159 62.5h201v-160h-113q-115 0 -115 -125v-450q0 -88 -47 -133t-106 -56v-16q57 -8 105 -60.5t48 -136.5v-446q0 -63 27.5 -94t89.5 -31h111v-160h-201q-98 0 -154.5 55.5t-56.5 161.5v461q0 102 -45 140t-129 38z " />
<glyph unicode="|" horiz-adv-x="516" d="M178 -260v1665h162v-1665h-162z" />
<glyph unicode="}" horiz-adv-x="768" d="M119 -301h110q115 0 115 125v448q0 88 47 133.5t105 55.5v16q-57 8 -104.5 60.5t-47.5 136.5v448q0 125 -117 125h-108v160h196q98 0 155.5 -56.5t57.5 -162.5v-459q0 -102 46.5 -140t130.5 -38v-154q-84 0 -130.5 -41t-46.5 -129v-469q0 -96 -53 -157.5t-162 -61.5h-194 v160z" />
<glyph unicode="~" horiz-adv-x="1110" d="M68 733q96 68 172.5 93.5t140 25.5t116 -16.5t101.5 -37t95 -37t95 -16.5q41 0 85.5 14.5t95.5 55.5l75 -143q-84 -51 -147 -72.5t-119 -21.5q-57 0 -106 17t-97 38l-93 39q-46 18 -101 18q-49 0 -107.5 -21.5t-132.5 -76.5z" />
<glyph unicode="&#xa2;" d="M176 524q0 244 110.5 386.5t321.5 164.5v189h158v-187q78 -4 138.5 -18.5t113.5 -36.5l-55 -154q-47 25 -102.5 37.5t-108.5 16.5v-795q68 4 128 25.5t105 48.5l53 -133q-55 -31 -124.5 -54.5t-147.5 -33.5v-195h-158v190q-117 8 -198.5 52.5t-133 116t-76 167.5 t-24.5 213zM356 524q0 -68 14.5 -131t47.5 -115.5t84 -91.5t129 -53v785q-275 -38 -275 -394z" />
<glyph unicode="&#xa3;" d="M88 0v168h4q68 2 118 24.5t83 57.5t47 80t14 94q0 55 -11 101t-28 87h-227v160h145q-27 53 -45 112.5t-18 141.5q0 98 34 173t93 126t145 79t193 28q133 0 234.5 -23t166.5 -51l-61 -170q-45 25 -131 47t-207 22q-127 0 -196.5 -62t-69.5 -163q0 -78 24.5 -139.5 t55.5 -120.5h342v-160h-267q12 -39 19.5 -81t7.5 -89q0 -61 -20.5 -123.5t-61.5 -103.5l-80 -63v-11l129 27h555v-168h-987z" />
<glyph unicode="&#xa5;" d="M-8 1405h235l351 -596l34 -129h4l37 133l336 592h213l-434 -741h207v-132h-273v-147h273v-133h-273v-252h-200v252h-273v133h273v147h-273v132h205z" />
<glyph unicode="&#xa8;" horiz-adv-x="901" d="M121 1311q0 47 31.5 79.5t85.5 32.5q49 0 80.5 -32.5t31.5 -79.5t-31.5 -79t-80.5 -32q-53 0 -85 32t-32 79zM553 1311q0 47 30.5 79.5t82.5 32.5q53 0 83.5 -32.5t30.5 -79.5t-30.5 -79t-83.5 -32q-51 0 -82 32t-31 79z" />
<glyph unicode="&#xa9;" horiz-adv-x="1740" d="M106 577.5q0 178.5 60.5 321.5t164 241.5t243 150.5t296.5 52q160 0 298.5 -52t243 -150.5t164.5 -241.5t60 -321.5t-60 -320.5t-164.5 -240.5t-243 -150.5t-298.5 -52q-174 0 -314 52t-240.5 150.5t-155 240.5t-54.5 320.5zM270 578q0 -145 46.5 -259t128 -192t191 -118 t234.5 -40q127 0 237 40t190.5 118t126.5 191.5t46 259.5q0 147 -46 260.5t-126.5 190.5t-190.5 117t-237 40q-125 0 -234.5 -40t-191 -117t-128 -190.5t-46.5 -260.5zM508 578q0 197 97 303t259 106q41 0 72 -4t59.5 -12t55 -18.5l59.5 -24.5l-57 -140q-47 23 -87 33 t-73 10q-84 0 -139.5 -54t-55.5 -199q0 -119 53.5 -185.5t157.5 -66.5q51 0 92 10t74 26l49 -133q-49 -29 -112.5 -45t-147.5 -16q-174 0 -265 111t-91 299z" />
<glyph unicode="&#xab;" horiz-adv-x="1050" d="M80 520l354 461l119 -104l-203 -273l-106 -82l106 -71l217 -269l-121 -106zM485 522l351 451l116 -103l-202 -268l-105 -80l105 -71l213 -267l-115 -100z" />
<glyph unicode="&#xad;" horiz-adv-x="790" d="M129 494v172h533v-172h-533z" />
<glyph unicode="&#xae;" horiz-adv-x="1505" d="M172 866q0 141 46 250t126 181.5t185.5 111.5t224.5 39q121 0 226 -39t184 -111.5t124 -181t45 -250.5q0 -139 -46 -246.5t-126 -181t-185.5 -111.5t-221.5 -38q-121 0 -227.5 38t-185.5 111.5t-124 181t-45 246.5zM322 866q0 -111 34.5 -192.5t93 -136t136.5 -81 t168 -26.5q92 0 171 25.5t136 80t90 136.5t33 194q0 111 -34 194t-93.5 138t-137 82t-165.5 27q-96 0 -175 -28t-136.5 -83t-89 -138t-31.5 -192zM532 590v559q33 8 96.5 14t119.5 6q43 0 82.5 -8t70.5 -28.5t48.5 -52t17.5 -79.5q0 -68 -45 -105.5t-109 -41.5l61 -29 l156 -235h-133l-149 225l-105 33v-258h-111zM643 911h74q63 0 98 20.5t35 65.5q0 37 -34 56.5t-93 19.5q-22 0 -45 -1t-35 -9v-152z" />
<glyph unicode="&#xb4;" horiz-adv-x="577" d="M121 1145l129 301h207v-47l-224 -254h-112z" />
<glyph unicode="&#xb8;" horiz-adv-x="651" d="M135 -426l19 107q66 -18 109 -18q26 0 43 6q46 17 46 52q0 33 -51 52.5t-147 29.5l108 181h123l-53 -90q98 -16 145 -52.5t47 -101.5q0 -86 -71.5 -137.5t-182.5 -51.5q-45 0 -76.5 8.5t-58.5 14.5z" />
<glyph unicode="&#xbb;" horiz-adv-x="1048" d="M88 870l115 103l360 -436l-346 -453l-117 102l201 269l105 82l-105 71zM483 874l121 107l365 -442l-351 -463l-122 106l206 271l105 84l-105 71z" />
<glyph unicode="&#x131;" horiz-adv-x="634" d="M229 0v1053h185v-1053h-185z" />
<glyph unicode="&#x237;" horiz-adv-x="624" d="M25 -264h13q56 0 91 15q39 17 60.5 55t28.5 92.5t7 132.5v1022h185v-1090q0 -195 -74 -290t-236 -95h-34q-18 0 -41 4v154z" />
<glyph unicode="&#x2c6;" horiz-adv-x="884" d="M139 1176l281 376h82q61 -98 126 -190l126 -186h-162l-90 139l-51 141l-64 -141l-96 -139h-152z" />
<glyph unicode="&#x2d9;" horiz-adv-x="503" d="M121 1304.5q0 47.5 36 84t93 36.5q59 0 97 -36.5t38 -84t-38 -82t-97 -34.5q-57 0 -93 34.5t-36 82z" />
<glyph unicode="&#x2da;" horiz-adv-x="706" d="M135 1370q0 84 57.5 137.5t159.5 53.5q98 0 163 -47.5t65 -143.5q0 -39 -16.5 -73.5t-47.5 -59.5t-73 -40t-91 -15q-96 0 -156.5 49t-60.5 139zM250 1370q0 -39 32.5 -64.5t69.5 -25.5q47 0 80 22.5t33 67.5q0 47 -34 69.5t-79 22.5q-39 0 -70.5 -21.5t-31.5 -70.5z" />
<glyph unicode="&#x2dc;" horiz-adv-x="903" d="M135 1397q63 70 115.5 95.5t99.5 25.5q35 0 68 -13.5t66.5 -31t66.5 -29.5t72 -12q49 0 108 47l43 -97q-53 -55 -100 -78.5t-88 -23.5q-37 0 -72 14.5t-67.5 30.5t-66.5 29.5t-73 13.5q-33 0 -63.5 -11t-69.5 -48z" />
<glyph unicode="&#x410;" horiz-adv-x="1294" d="M16 0l578 1425h104l580 -1425h-209l-151 367h-558l-147 -367h-197zM422 537h436l-162 399l-53 215h-4l-55 -219z" />
<glyph unicode="&#x411;" horiz-adv-x="1214" d="M178 14v1391h852v-176h-651v-381l90 10q53 6 104 6q113 0 214.5 -19.5t179 -67.5t124 -129t46.5 -199q0 -121 -47.5 -209t-126 -144.5t-183 -85t-219.5 -28.5q-35 0 -84 1t-101 5t-103.5 10t-94.5 16zM379 166q14 -4 38.5 -6t52.5 -4t57 -2h59q68 0 129 16t107 49t74 83 t28 120q0 88 -31 141t-82 82t-117.5 38t-140.5 9q-18 0 -44 -2l-51 -4q-26 -2 -47 -6l-32 -6v-508z" />
<glyph unicode="&#x412;" horiz-adv-x="1286" d="M178 10v1383q82 14 192.5 22t237.5 8q86 0 177.5 -15t166 -53t122.5 -104.5t48 -171.5q0 -51 -17.5 -102t-52 -96t-89 -80t-127.5 -49v-9q63 -8 123.5 -32.5t106.5 -66.5t73.5 -102.5t27.5 -142.5q0 -109 -50 -187.5t-132 -129.5t-185.5 -75.5t-207.5 -24.5q-37 0 -89 1 t-108.5 4t-114 8t-102.5 15zM375 164q14 -4 42.5 -6t61.5 -4t66 -2h61q68 0 131.5 13t111.5 44t76.5 77t28.5 109q0 80 -34.5 127t-91 73t-126 33t-139.5 7h-188v-471zM375 791h110q39 0 89.5 3t82.5 7q51 14 96.5 34.5t79 50t54 68.5t20.5 90q0 68 -27.5 109t-71.5 63.5 t-100.5 29.5t-113.5 7q-70 0 -129 -2t-90 -6v-454z" />
<glyph unicode="&#x413;" horiz-adv-x="974" d="M178 0v1405h834v-176h-633v-1229h-201z" />
<glyph unicode="&#x414;" horiz-adv-x="1476" d="M10 176h156q18 23 55 101.5t75 226t63 370.5q24 207 24 486v45h838v-1229h200v-432h-139l-33 256h-1069l-30 -256h-140v432zM379 176h641v1053h-453q-8 -213 -24.5 -381t-42 -296t-56 -220.5t-65.5 -155.5z" />
<glyph unicode="&#x415;" horiz-adv-x="1173" d="M178 0v1405h850v-172h-649v-428h592v-172h-592v-461h659v-172h-860z" />
<glyph unicode="&#x416;" horiz-adv-x="1781" d="M-4 0l473 627l106 75l-102 72l-446 631h231l430 -623h98v623h189v-647l92 28l428 619h223l-434 -610l-90 -66l113 -82l479 -647h-242l-471 643h-98v-643h-189v666l-92 -27l-467 -639h-231z" />
<glyph unicode="&#x417;" horiz-adv-x="1181" d="M88 33l51 172q51 -23 142.5 -40.5t224.5 -17.5q61 0 123.5 15.5t113 48.5t81 82t30.5 117q0 121 -93 177t-259 64q-27 2 -46.5 3t-47.5 1h-109v158h35h47q29 0 59.5 2t60 3t48.5 5q106 14 183 69.5t77 147.5q0 61 -23.5 102.5t-64.5 67t-95.5 35.5t-113.5 10 q-117 0 -203 -17t-133 -40l-53 160q20 12 62 24.5t97.5 22.5t122 17.5t138.5 7.5q88 0 174 -17.5t153.5 -57.5t109.5 -106.5t42 -167t-71.5 -190.5t-215.5 -131v-6q154 -23 243 -109t89 -229q0 -115 -50 -198t-131 -137t-184.5 -81t-212.5 -27q-143 0 -241.5 17.5 t-159.5 42.5z" />
<glyph unicode="&#x418;" horiz-adv-x="1492" d="M178 0v1405h201v-936l-19 -152h11l100 158l719 930h125v-1405h-201v930l12 153h-8l-96 -157l-721 -926h-123z" />
<glyph unicode="&#x419;" horiz-adv-x="1492" d="M178 0v1405h201v-936l-19 -152h11l100 158l719 930h125v-1405h-201v930l12 153h-8l-96 -157l-721 -926h-123zM381 1706l186 43q10 -74 61.5 -110.5t135.5 -36.5t135 36.5t62 108.5l167 -37q-25 -111 -113.5 -173t-252.5 -62q-158 0 -259.5 54t-121.5 177z" />
<glyph unicode="&#x41a;" horiz-adv-x="1341" d="M178 0v1405h201v-647l92 28l506 619h229l-506 -602l-94 -68l111 -82l557 -653h-252l-545 639h-98v-639h-201z" />
<glyph unicode="&#x41b;" horiz-adv-x="1370" d="M-8 10l26 168q25 -6 48.5 -6t49 9t49 30.5t46.5 58.5q31 53 56.5 141.5t46 224.5t32.5 326.5t19 442.5h827v-1405h-201v1229h-440q-10 -199 -23.5 -361.5t-34 -294t-47 -231.5t-67.5 -176q-51 -96 -120 -136t-142 -40q-43 0 -69.5 5t-55.5 15z" />
<glyph unicode="&#x41c;" horiz-adv-x="1740" d="M178 0v1405h152l475 -717l74 -151h4l71 155l451 713h158v-1405h-201v905l22 225h-8l-86 -194l-391 -623h-59l-412 625l-82 190h-10l31 -221v-907h-189z" />
<glyph unicode="&#x41d;" horiz-adv-x="1470" d="M178 0v1405h201v-600h713v600h200v-1405h-200v629h-713v-629h-201z" />
<glyph unicode="&#x41e;" horiz-adv-x="1499" d="M117 702q0 172 43 308.5t124 229.5t198.5 142.5t267.5 49.5q158 0 277.5 -53.5t198.5 -148.5t117.5 -230.5t38.5 -297.5q0 -172 -43 -308t-124.5 -229t-199.5 -142.5t-265 -49.5q-162 0 -280 53.5t-196.5 148.5t-117.5 230t-39 297zM330 702q0 -115 24.5 -215 t75.5 -175.5t131 -120t189 -44.5q195 0 307 134.5t112 420.5q0 113 -24.5 213.5t-75.5 176t-131 120.5t-188 45q-195 0 -307.5 -136t-112.5 -419z" />
<glyph unicode="&#x41f;" horiz-adv-x="1441" d="M178 0v1405h1086v-1405h-201v1229h-684v-1229h-201z" />
<glyph unicode="&#x420;" horiz-adv-x="1230" d="M178 0v1391q84 18 183.5 25t195.5 7q102 0 207.5 -18.5t192.5 -66.5t142.5 -133t55.5 -220q0 -127 -51 -216t-134 -145.5t-190.5 -82t-222.5 -25.5q-10 0 -36 1l-52 2q-27 1 -52.5 3t-37.5 4v-526h-201zM379 698q10 -4 33.5 -5t48 -3t48.5 -2h36q72 0 141.5 11.5 t126.5 43t93 90t36 150.5q0 80 -35 132t-89 83t-120.5 42t-134.5 11q-53 0 -104 -2t-80 -10v-541z" />
<glyph unicode="&#x421;" horiz-adv-x="1251" d="M117 702q0 197 60.5 335.5t156.5 226.5t216 128t238 40q133 0 217.5 -14.5t143.5 -37.5l-45 -172q-98 45 -299 45q-90 0 -175 -28.5t-152.5 -94t-107.5 -171t-40 -257.5q0 -137 38 -240.5t105.5 -172t158.5 -103t199 -34.5q98 0 170 17t123 46l47 -156 q-66 -47 -168 -66.5t-217 -19.5q-135 0 -255.5 43t-213 133.5t-146.5 227.5t-54 325z" />
<glyph unicode="&#x422;" horiz-adv-x="1222" d="M39 1229v176h1147v-176h-473v-1229h-201v1229h-473z" />
<glyph unicode="&#x423;" horiz-adv-x="1218" d="M10 1405h232l383 -723l53 -178h12l43 184l285 717h205l-394 -928l-103 -227q-44 -94 -91 -151.5t-101.5 -84t-132.5 -26.5q-72 0 -114.5 11t-83.5 36l57 164q43 -25 80 -30t70 -5q57 0 99 51t73 154z" />
<glyph unicode="&#x424;" horiz-adv-x="1718" d="M86 702q0 135 39 243t110.5 182.5t171 114.5t220.5 40q27 0 69.5 -2t65.5 -8v174h192v-180q41 10 93.5 13t87.5 3q104 0 195 -36t158.5 -107.5t105.5 -176t38 -239.5q0 -141 -43 -249.5t-116.5 -181.5t-171 -110t-205.5 -37q-25 0 -70 3.5t-72 9.5v-199h-192v195 q-39 -4 -86 -6.5t-92 -2.5q-104 0 -194.5 34t-158 103.5t-106.5 173t-39 246.5zM291 702q0 -90 24.5 -163.5t68.5 -126t105.5 -80t133.5 -27.5q23 0 68.5 1t74.5 11v797q-25 4 -61.5 6t-67.5 2q-74 0 -135.5 -26.5t-108.5 -79.5t-74.5 -131.5t-27.5 -182.5zM952 311 q20 -4 55 -5t66 -1q74 0 137.5 25.5t111.5 77t76.5 130t28.5 185.5q0 88 -23.5 160.5t-65.5 126t-102 83t-132 29.5q-31 0 -78 -2t-74 -10v-799z" />
<glyph unicode="&#x425;" horiz-adv-x="1359" d="M53 0l508 715l-463 690h240l303 -461l53 -117l54 117l315 461h221l-477 -676l500 -729h-236l-334 489l-63 123l-56 -123l-344 -489h-221z" />
<glyph unicode="&#x426;" horiz-adv-x="1507" d="M178 0v1405h201v-1229h670v1229h200v-1229h203v-432h-139l-33 256h-1102z" />
<glyph unicode="&#x427;" horiz-adv-x="1329" d="M152 920v485h200v-444q0 -133 64.5 -207t204.5 -74q102 0 189 24.5t142 63.5v637h201v-1405h-201v598q-59 -33 -156.5 -61.5t-224.5 -28.5q-94 0 -170.5 22.5t-132 71.5t-86 127t-30.5 191z" />
<glyph unicode="&#x428;" horiz-adv-x="1923" d="M178 0v1405h201v-1229h483v1229h201v-1229h483v1229h201v-1405h-1569z" />
<glyph unicode="&#x429;" horiz-adv-x="2007" d="M178 0v1405h201v-1229h481v1229h201v-1229h483v1229h201v-1229h205v-432h-140l-32 256h-1600z" />
<glyph unicode="&#x42a;" horiz-adv-x="1392" d="M-4 1229v176h555v-537q8 2 33.5 5.5t57.5 5.5l65 4q33 2 57 2q102 0 202.5 -19.5t180.5 -67.5t129 -132t49 -211q0 -117 -46 -207t-128 -148.5t-192.5 -88t-239.5 -29.5q-31 0 -76 1t-96 5t-103.5 10t-93.5 16v1215h-354zM551 166q29 -8 83 -10t107 -2q74 0 141.5 18 t119 54t81 90.5t29.5 129.5q0 80 -31.5 132.5t-85 82t-121 41t-139.5 11.5q-18 0 -47 -2l-55 -4q-27 -2 -50.5 -6.5t-31.5 -6.5v-528z" />
<glyph unicode="&#x42b;" horiz-adv-x="1697" d="M178 14v1391h201v-537l32.5 5.5t45 5.5t52.5 4t52 2q104 0 202.5 -19.5t175.5 -68.5t122 -132t45 -208q0 -119 -43 -210t-120 -148.5t-183.5 -87t-233.5 -29.5q-31 0 -72.5 1t-89 5t-95.5 10t-91 16zM379 166q29 -8 69.5 -10t94.5 -2q74 0 138 18t111.5 54t74 90.5 t26.5 127.5q0 80 -29.5 132.5t-79 82t-115 42t-137.5 12.5q-39 0 -85 -6.5t-68 -12.5v-528zM1319 0v1405h201v-1405h-201z" />
<glyph unicode="&#x42c;" horiz-adv-x="1220" d="M178 14v1391h201v-537q10 2 35.5 5.5t56.5 5.5l63 4q32 2 58 2q104 0 204.5 -19.5t179.5 -67.5t129 -132t50 -211q0 -119 -48 -209t-129 -147.5t-191.5 -87t-237.5 -29.5q-31 0 -76 1t-96 5t-102.5 10t-96.5 16zM379 166q29 -8 83 -10t107 -2q76 0 142.5 17t118 53 t82 90.5t30.5 131.5q0 80 -32.5 132.5t-86 82t-121 41t-139.5 11.5q-16 0 -45 -2l-55 -4q-27 -2 -50.5 -6.5l-33.5 -6.5v-528z" />
<glyph unicode="&#x42d;" horiz-adv-x="1265" d="M90 31l53 172q49 -25 130 -40.5t176 -15.5q86 0 169.5 25t151.5 82t113 149.5t55 225.5h-614v172h612q-20 233 -147 343.5t-328 112.5q-9 0 -19 1q-95 0 -170 -20q-82 -22 -129 -50l-49 162q66 37 169.5 59.5t217.5 22.5q141 0 262 -40t212.5 -128t143.5 -226.5 t52 -335.5q0 -199 -60.5 -337t-160 -226t-229.5 -127t-267 -39q-111 0 -198 17.5t-146 40.5z" />
<glyph unicode="&#x42e;" horiz-adv-x="1961" d="M178 0v1405h201v-600h262q20 301 175 464t431 163q158 0 272.5 -52.5t186.5 -148.5t106.5 -231.5t34.5 -297.5q0 -348 -151.5 -538.5t-448.5 -190.5q-150 0 -260 47.5t-185 133.5t-115 205.5t-48 269.5h-260v-629h-201zM852 702q0 -113 21.5 -214t67.5 -176.5t122 -120 t184 -44.5q195 0 291 134.5t96 420.5q0 111 -19.5 212.5t-64.5 177t-119.5 120.5t-183.5 45q-195 0 -295 -136t-100 -419z" />
<glyph unicode="&#x42f;" horiz-adv-x="1251" d="M49 0l340 489l133 89q-78 14 -144.5 44.5t-115.5 81t-76.5 119t-27.5 158.5q0 123 46 207t125 136t185.5 75.5t226.5 23.5q74 0 163 -7t169 -25v-1391h-201v598l-215 -45l-374 -553h-234zM371 983q0 -74 28.5 -125t77.5 -82t113.5 -45t140.5 -14h141v522q-27 8 -59.5 10 t-83.5 2q-72 0 -135.5 -12t-112.5 -43t-79.5 -82t-30.5 -131z" />
<glyph unicode="&#x430;" horiz-adv-x="1167" d="M90 281q0 90 39 156.5t101.5 108.5t141.5 62.5t158 20.5q61 0 104.5 -2t73 -5.5t49 -6.5t36.5 -5q4 31 6 52.5t2 56.5q0 55 -12.5 94t-39 61.5t-72.5 33t-114 10.5q-37 0 -83 -6.5t-92 -17.5t-92 -26.5t-81 -33.5l-51 153q182 86 448 86q121 0 194 -30.5t112.5 -79 t53 -107.5t13.5 -117q0 -111 -8 -222t-8 -243q0 -76 7 -147.5t23 -130.5h-135l-49 160h-20q-23 -29 -54.5 -61t-75.5 -55.5t-101.5 -39.5t-131.5 -16q-76 0 -137.5 21.5t-106.5 59t-71.5 93t-26.5 123.5zM287 301q0 -80 57 -120t148 -40q66 0 116.5 16.5t88.5 42t60.5 56.5 t35.5 61v160q-16 2 -34 6t-45.5 6.5t-64.5 4.5t-92 2q-123 0 -196.5 -44.5t-73.5 -150.5z" />
<glyph unicode="&#x431;" horiz-adv-x="1273" d="M129 621q0 180 19.5 306t59.5 211t94 134t123 74.5t149.5 36t175.5 18.5q115 10 185.5 22.5t115.5 40.5l18 -161q-45 -31 -123 -43.5t-215 -22.5q-96 -6 -172 -22.5t-132 -56.5t-90 -115.5t-46 -196.5l20 -4q74 100 167 142t231 42q211 0 328.5 -127t117.5 -369 q0 -139 -36 -244.5t-101.5 -174t-160.5 -104.5t-212 -36q-258 0 -387 157t-129 493zM326 502q0 -76 17 -143.5t57 -119t99.5 -81t143.5 -29.5q313 0 313 383q0 76 -16 141.5t-52 113.5t-90.5 74.5t-129.5 26.5q-180 0 -261 -95t-81 -271z" />
<glyph unicode="&#x432;" horiz-adv-x="1167" d="M176 2v1051l76 4l141 9q76 5 176 5q233 0 335 -64.5t102 -193.5q0 -70 -49.5 -141.5t-155.5 -104.5v-20q133 -27 190.5 -89.5t57.5 -164.5q0 -158 -131.5 -233.5t-393.5 -75.5q-88 0 -166.5 5t-152.5 11q-8 0 -14.5 1t-14.5 1zM360 145q45 -6 87 -9t106 -3 q158 0 228.5 41t70.5 135q0 39 -14.5 71t-47 53.5t-87 34.5t-136.5 13h-207v-336zM360 608h230q45 0 85 12.5t71.5 34t51 51t19.5 62.5q0 84 -57.5 118t-196.5 34q-45 0 -92 -3.5t-111 -5.5v-303z" />
<glyph unicode="&#x433;" horiz-adv-x="854" d="M176 0v1053h678v-156h-494v-897h-184z" />
<glyph unicode="&#x434;" horiz-adv-x="1251" d="M0 156h135q18 25 50 85t61.5 167.5t53.5 266.5t26 378h708v-897h170v-420h-127l-30 264h-889l-35 -264h-123v420zM326 156h524v741h-358q-6 -90 -18.5 -192.5t-33 -202t-49 -189t-65.5 -157.5z" />
<glyph unicode="&#x435;" horiz-adv-x="1200" d="M121 526q0 270 133 413.5t381 143.5q78 0 155.5 -16t140 -64.5t101.5 -130t39 -215.5q0 -31 -2 -72.5t-8 -82.5h-752q4 -184 88 -278.5t287 -94.5q84 0 161 28.5t118 69.5l71 -141q-72 -51 -176 -83t-225 -32q-133 0 -230.5 39t-160 112t-92 175t-29.5 229zM317 635h578 v17q0 146 -66 209q-70 67 -192 67q-141 0 -223.5 -66.5t-96.5 -226.5z" />
<glyph unicode="&#x436;" horiz-adv-x="1552" d="M12 0l350 475l91 72l-125 86l-289 420h201l307 -455h131v455h180v-478l121 33l309 445h199l-303 -418l-97 -78l125 -88l330 -469h-223l-330 473h-131v-473h-180v498l-121 -33l-328 -465h-217z" />
<glyph unicode="&#x437;" horiz-adv-x="1034" d="M96 41l49 145q53 -29 130 -40t167 -11q276 0 277 174q0 78 -66.5 118t-230.5 40h-125v141h154q45 0 86 12.5t73.5 33t51 50t18.5 62.5q0 86 -62.5 117.5t-187.5 31.5q-88 0 -161.5 -19t-118.5 -40l-52 141q131 74 391 74q188 0 284.5 -65.5t96.5 -192.5q0 -35 -12 -70.5 t-38.5 -68.5t-63.5 -60.5t-86 -42.5v-20q137 -25 191 -90.5t54 -169.5q0 -66 -30.5 -123t-90 -99t-150.5 -67t-212 -25q-119 0 -197 16.5t-139 47.5z" />
<glyph unicode="&#x438;" horiz-adv-x="1265" d="M176 0v1053h184v-621l-12 -184h21l92 178l485 627h144v-1053h-185v602l29 209h-23l-98 -197l-494 -614h-143z" />
<glyph unicode="&#x439;" horiz-adv-x="1265" d="M176 0v1053h184v-621l-12 -184h21l92 178l485 627h144v-1053h-185v602l29 209h-23l-98 -197l-494 -614h-143zM297 1376l164 54q10 -45 28.5 -71t42 -39t55 -16.5t64.5 -3.5q35 0 66 4.5t55.5 18.5t41.5 37.5t28 66.5l145 -43q-23 -119 -116 -167t-224 -48 q-61 0 -119.5 10.5t-105.5 35t-80 63.5t-45 98z" />
<glyph unicode="&#x43a;" horiz-adv-x="1097" d="M176 0v1053h184v-480l111 37l360 443h203l-344 -408h2l-108 -80l131 -90l370 -475h-233l-377 473h-115v-473h-184z" />
<glyph unicode="&#x43b;" horiz-adv-x="1171" d="M-12 10l28 168q27 -8 58 -8q49 0 87 36t65.5 132t46 268t26.5 447h696v-1053h-184v897h-342l-4 -59q-14 -199 -32.5 -356.5t-54.5 -267.5t-96.5 -167t-156.5 -57q-45 0 -78.5 5t-58.5 15z" />
<glyph unicode="&#x43c;" horiz-adv-x="1507" d="M176 0v1053h193l315 -463l76 -146l86 150l295 459h192v-1053h-180v596l10 215h-22l-90 -164l-273 -399h-61l-285 399l-80 164h-22l18 -213v-598h-172z" />
<glyph unicode="&#x43d;" horiz-adv-x="1251" d="M176 0v1053h184v-428h531v428h184v-1053h-184v459h-531v-459h-184z" />
<glyph unicode="&#x43e;" horiz-adv-x="1265" d="M121 526q0 129 33.5 232.5t100.5 176.5t162 110.5t218 37.5q127 0 223 -42t160.5 -116.5t96.5 -176t32 -222.5q0 -129 -36 -231t-100.5 -174t-160.5 -111t-215 -39q-133 0 -229.5 42t-160 117t-94 176t-30.5 220zM317 526q0 -76 17.5 -146.5t55.5 -126.5t98.5 -90 t148.5 -34q313 0 313 397q0 78 -17.5 151t-54 127t-97 89t-144.5 35q-158 0 -239 -99.5t-81 -302.5z" />
<glyph unicode="&#x43f;" horiz-adv-x="1239" d="M176 0v1053h887v-1053h-184v897h-519v-897h-184z" />
<glyph unicode="&#x440;" horiz-adv-x="1263" d="M176 -401v1454h125l37 -133h16q55 78 141.5 120.5t194.5 42.5q229 0 342 -127t113 -405q0 -133 -38 -240.5t-106.5 -183.5t-168 -116t-222.5 -40q-41 0 -73.5 3t-60 10.5t-56.5 16.5t-60 22v-424h-184zM360 197q47 -33 101.5 -50.5t138.5 -17.5q162 0 255 106.5t93 317.5 q0 170 -68.5 272.5t-230.5 102.5q-121 0 -189.5 -60.5t-99.5 -185.5v-485z" />
<glyph unicode="&#x441;" horiz-adv-x="1060" d="M121 526q0 266 129 411.5t373 145.5q106 0 184 -18t141 -47l-49 -152q-53 29 -116.5 45.5t-137.5 16.5q-328 0 -328 -402q0 -76 17.5 -147.5t58.5 -126.5t105.5 -89t158.5 -34q86 0 148.5 22.5t105.5 55.5l60 -135q-70 -49 -164 -75t-199 -26q-133 0 -226 40t-151.5 113 t-84 175t-25.5 227z" />
<glyph unicode="&#x442;" horiz-adv-x="913" d="M0 897v156h915v-156h-364v-897h-186v897h-365z" />
<glyph unicode="&#x443;" horiz-adv-x="1064" d="M16 1053h220l268 -666l61 -203h27l51 205l217 664h191l-346 -953l-78 -190q-39 -92 -86 -164t-104.5 -115t-131.5 -43q-80 0 -137 19l31 155q31 -10 59 -10q41 0 74 10.5t61.5 37t51 73.5t42.5 121z" />
<glyph unicode="&#x444;" horiz-adv-x="1605" d="M109 526q0 262 123.5 404.5t361.5 142.5q29 0 57.5 -2t61.5 -10v344h180v-346q53 10 87 12t60 2q225 0 341 -124t116 -400q0 -129 -30.5 -235.5t-90 -182.5t-146.5 -118t-198 -42q-23 0 -64.5 5.5t-74.5 15.5v-393h-180v395q-49 -16 -92 -19.5t-76 -3.5 q-209 0 -322.5 138t-113.5 417zM297 526q0 -86 17.5 -160.5t54.5 -129t93 -85t134 -30.5q27 0 53.5 2t67.5 10v778q-37 8 -60.5 11.5t-56.5 3.5q-145 0 -224 -97.5t-79 -302.5zM889 129q31 -6 59.5 -7t63.5 -1q147 0 222 110.5t75 317.5q0 86 -16.5 155.5t-52.5 118.5 t-95.5 76t-145.5 27q-33 0 -54 -2t-56 -13v-782z" />
<glyph unicode="&#x445;" horiz-adv-x="1187" d="M59 0l408 541l-379 512h236l204 -269l70 -141l82 141l213 269h209l-383 -504l205 -274l204 -275h-229l-231 299l-80 152l-82 -152l-234 -299h-213z" />
<glyph unicode="&#x446;" horiz-adv-x="1263" d="M176 0v1053h184v-897h508v897h185v-897h172v-420h-125l-35 264h-889z" />
<glyph unicode="&#x447;" horiz-adv-x="1150" d="M121 745v308h184v-258q0 -63 7 -113.5t30 -87.5t65 -55.5t107 -18.5q102 0 171 22.5t106 51.5v459h184v-1053h-184v449q-37 -25 -116 -56t-210 -31q-84 0 -149.5 18.5t-108.5 62.5t-64.5 117.5t-21.5 184.5z" />
<glyph unicode="&#x448;" horiz-adv-x="1716" d="M176 0v1053h184v-897h406v897h186v-897h404v897h186v-1053h-1366z" />
<glyph unicode="&#x449;" horiz-adv-x="1748" d="M176 0v1053h184v-897h406v897h186v-897h404v897h186v-897h168v-435h-123l-33 279h-1378z" />
<glyph unicode="&#x44a;" horiz-adv-x="1169" d="M12 897v156h443v-402q66 8 122 11.5t97 3.5q119 0 201.5 -24t135 -65.5t76 -99t23.5 -125.5q0 -190 -127 -277t-393 -87q-84 0 -162 2t-158 8v899h-258zM455 156q88 -10 174 -11q145 0 214.5 51.5t69.5 141.5q0 80 -67.5 134t-210.5 54q-41 0 -87 -3t-93 -13v-354z" />
<glyph unicode="&#x44b;" horiz-adv-x="1546" d="M176 -2v1055h184v-402q66 8 121.5 11.5t98.5 3.5q117 0 195.5 -24t127.5 -65.5t68.5 -99t19.5 -125.5q0 -190 -116.5 -277t-378.5 -87q-84 0 -163 2t-157 8zM360 156q86 -10 175 -11q143 0 201.5 50.5t58.5 142.5q0 80 -57.5 134t-196.5 54q-39 0 -86 -3t-95 -13v-354z M1186 0v1053h184v-1053h-184z" />
<glyph unicode="&#x44c;" horiz-adv-x="1073" d="M176 -2v1055h184v-402q66 8 120.5 11.5t94.5 3.5q121 0 204 -24t135.5 -65.5t76 -99t23.5 -125.5q0 -190 -127 -277t-395 -87q-84 0 -161 2t-155 8zM360 156q86 -10 172 -11q145 0 215 51.5t70 141.5q0 80 -67.5 134t-210.5 54q-39 0 -85 -3t-94 -13v-354z" />
<glyph unicode="&#x44d;" horiz-adv-x="1089" d="M96 41l51 152q53 -29 129 -46.5t154 -17.5q162 0 245 77t97 247h-485v157h483q-12 143 -95 230.5t-239 87.5q-94 0 -163.5 -25.5t-116.5 -52.5l-60 135q70 47 163 72.5t216 25.5q127 0 220 -37.5t154.5 -110.5t90.5 -176.5t29 -232.5q0 -270 -136.5 -412.5t-375.5 -142.5 q-106 0 -204 17.5t-157 52.5z" />
<glyph unicode="&#x44e;" horiz-adv-x="1687" d="M176 0v1053h184v-430h248q20 219 137 339.5t349 120.5q127 0 216 -41t146 -115.5t84 -176t27 -224.5q0 -262 -118 -408.5t-359 -146.5q-125 0 -213.5 37t-146.5 100.5t-87 154.5t-37 202h-246v-465h-184zM791 526q0 -82 14 -154.5t48 -127t92.5 -85t146.5 -30.5 q152 0 215 96.5t63 300.5q0 80 -12 154t-45 128t-87.5 87t-135.5 33q-158 0 -228.5 -97.5t-70.5 -304.5z" />
<glyph unicode="&#x44f;" horiz-adv-x="1159" d="M80 0l266 346v-2l111 76q-139 16 -221 99t-82 204q0 94 36.5 162.5t103 112.5t163 63.5t213.5 19.5q78 0 160.5 -10t152.5 -24v-1047h-184v416l-191 -27l-299 -389h-229zM352 725q0 -100 89 -151q82 -46 211 -46h22l125 2v379q-33 10 -74 13.5t-72 3.5 q-150 0 -225.5 -48.5t-75.5 -152.5z" />
<glyph unicode="&#x2010;" horiz-adv-x="790" d="M129 494v172h533v-172h-533z" />
<glyph unicode="&#x2011;" horiz-adv-x="790" d="M129 494v172h533v-172h-533z" />
<glyph unicode="&#x2012;" horiz-adv-x="790" d="M129 494v172h533v-172h-533z" />
<glyph unicode="&#x2013;" horiz-adv-x="1452" d="M256 492v172h940v-172h-940z" />
<glyph unicode="&#x2014;" horiz-adv-x="1804" d="M256 492v172h1292v-172h-1292z" />
<glyph unicode="&#x2018;" horiz-adv-x="434" d="M88 1288q0 68 21.5 118t51 84t63.5 53.5t61 27.5l55 -80q-49 -23 -79 -58q-26 -31 -26 -75q0 -6 1 -12q13 3 24 2q35 0 58 -23q32 -31 32 -82q0 -49 -34.5 -76.5t-86.5 -27.5q-66 0 -103.5 37.5t-37.5 111.5z" />
<glyph unicode="&#x2019;" horiz-adv-x="434" d="M88 1315q0 47 33 76.5t86 29.5q63 0 103 -37.5t40 -113.5q0 -70 -22.5 -120t-53 -84t-65.5 -53.5t-57 -27.5l-58 82q49 23 80 57.5t29 87.5q-51 -10 -83 20t-32 83z" />
<glyph unicode="&#x201a;" horiz-adv-x="434" d="M88 102q0 49 33 78t86 29q63 0 103 -38t40 -114q0 -70 -22.5 -120t-53 -83.5t-65.5 -53t-57 -27.5l-58 82q49 23 80 58.5t29 86.5q-51 -10 -83 19.5t-32 82.5z" />
<glyph unicode="&#x201c;" horiz-adv-x="759" d="M88 1288q0 68 21.5 118t51 84t63.5 53.5t61 27.5l55 -80q-49 -23 -79 -58q-26 -31 -26 -75q0 -6 1 -12q13 3 24 2q35 0 58 -23q32 -31 32 -82q0 -49 -34.5 -76.5t-86.5 -27.5q-66 0 -103.5 37.5t-37.5 111.5zM414 1288q0 68 20.5 118t51 84t64.5 53.5t60 27.5l54 -80 q-47 -23 -78 -58q-27 -32 -27 -76v-11q13 3 25 2q36 0 59 -23q31 -31 31 -82q0 -49 -34 -76.5t-87 -27.5q-63 0 -101 37.5t-38 111.5z" />
<glyph unicode="&#x201d;" horiz-adv-x="759" d="M88 1313q0 47 33 76.5t86 29.5q63 0 103 -38t40 -113q0 -70 -22.5 -120t-53 -84t-65.5 -53.5t-57 -27.5l-58 82q49 23 80 57.5t29 87.5q-13 -3 -25 -2q-34 0 -58 22q-32 30 -32 83zM414 1313q0 47 32.5 76.5t85.5 29.5q63 0 102.5 -38t39.5 -113q0 -70 -21.5 -120 t-53.5 -84t-65.5 -53.5t-58.5 -27.5l-55 82q47 23 78.5 57.5t29.5 87.5q-14 -3 -25 -2q-35 0 -59 22q-30 30 -30 83z" />
<glyph unicode="&#x201e;" horiz-adv-x="759" d="M88 102q0 49 33 78t86 29q63 0 103 -38t40 -114q0 -70 -22.5 -120t-53 -83.5t-65.5 -53t-57 -27.5l-58 82q49 23 80 58.5t29 86.5q-13 -3 -25 -3q-34 0 -58 22q-32 30 -32 83zM414 102q0 49 32.5 78t85.5 29q63 0 102.5 -38t39.5 -114q0 -70 -21.5 -120t-53.5 -83.5 t-65.5 -53t-58.5 -27.5l-55 82q47 23 78.5 58.5t29.5 86.5q-14 -3 -25 -3q-35 0 -59 22q-30 30 -30 83z" />
<glyph unicode="&#x2026;" horiz-adv-x="1644" d="M145 102q0 57 37 92t97 35q61 0 98 -34.5t37 -92.5q0 -53 -37 -90t-98 -37q-59 0 -96.5 37t-37.5 90zM692 102q0 57 37 92t98 35q59 0 96.5 -34.5t37.5 -92.5q0 -53 -37 -90t-97 -37q-61 0 -98 37t-37 90zM1241 102q0 57 37 92t96 35q61 0 98 -34.5t37 -92.5 q0 -53 -36.5 -90t-98.5 -37q-59 0 -96 37t-37 90z" />
<glyph unicode="&#x2039;" horiz-adv-x="653" d="M80 520l354 461l119 -107l-203 -270l-106 -82l106 -71l215 -267l-119 -108z" />
<glyph unicode="&#x203a;" horiz-adv-x="653" d="M88 874l121 107l364 -442l-352 -463l-121 104l205 273l107 84l-107 71z" />
<glyph unicode="&#x20ac;" d="M14 481l41 152h121q-2 16 -2 34v35v39q0 18 2 39h-162l41 148h140q27 131 85 227t138 156.5t179 90.5t210 30q115 0 196.5 -16.5t143.5 -39.5l-55 -159q-49 23 -117 34t-164 11q-72 0 -138.5 -17.5t-120.5 -58.5t-95 -104.5t-64 -153.5h613l-41 -148l-592 -2 q-2 -20 -2 -39v-39v-35q0 -17 2 -34l549 2l-41 -152h-490q84 -338 451 -338q88 0 156.5 19.5t121.5 48.5l45 -150q-66 -49 -166 -68.5t-196 -19.5q-246 0 -404.5 124t-205.5 384h-179z" />
<glyph unicode="&#x2122;" horiz-adv-x="1955" d="M76 1245v160h776v-160h-293v-563h-190v563h-293zM938 682v723h186l228 -332l59 -119h2l64 123l211 328h188v-723h-178v326l24 206h-10l-84 -170l-186 -272h-86l-191 270l-80 172h-10l33 -204v-328h-170z" />
<glyph unicode="&#xe000;" horiz-adv-x="1055" d="M0 1055h1055v-1055h-1055v1055z" />
<glyph unicode="&#xf6d1;" horiz-adv-x="989" d="M121 1706l186 43q10 -74 61.5 -110.5t135.5 -36.5t135 36.5t61 108.5l168 -37q-25 -111 -113.5 -173t-252.5 -62q-158 0 -259.5 54t-121.5 177z" />
<glyph unicode="&#xf6d4;" horiz-adv-x="929" d="M121 1376l164 54q10 -45 28.5 -71t42 -39t55 -16.5t64.5 -3.5q35 0 65.5 4.5t55.5 18.5t42 37.5t28 66.5l145 -43q-23 -119 -116 -167t-224 -48q-61 0 -119.5 10.5t-105.5 35t-80 63.5t-45 98z" />
</font>
</defs>
</svg>
