<?xml version="1.0" standalone="no"?>
<!DOCTYPE svg PUBLIC "-//W3C//DTD SVG 1.1//EN" "http://www.w3.org/Graphics/SVG/1.1/DTD/svg11.dtd" >
<svg xmlns="http://www.w3.org/2000/svg">
<metadata>
This is a custom SVG webfont generated by Font Squirrel.
Copyright   : Copyright c 2007 by Jos Buivenga All rights reserved
Designer    : Jos Buivenga
Foundry     : Jos Buivenga
Foundry URL : httpwwwjosbuivengademonnl
</metadata>
<defs>
<font id="DiavloLight" horiz-adv-x="1032" >
<font-face units-per-em="2048" ascent="1536" descent="-512" />
<missing-glyph horiz-adv-x="595" />
<glyph unicode=" "  horiz-adv-x="595" />
<glyph unicode="&#x09;" horiz-adv-x="595" />
<glyph unicode="&#xa0;" horiz-adv-x="595" />
<glyph unicode="!" horiz-adv-x="528" d="M244 31v110h104q23 0 23 -30v-111h-105q-22 0 -22 31zM250 440v1057q4 0 12 -1t28.5 -5t35 -12.5t28 -27.5t13.5 -46v-1055q-8 0 -22.5 2t-39 9.5t-40 28.5t-15.5 50z" />
<glyph unicode="&#x22;" horiz-adv-x="745" d="M119 1057q61 18 61 203v221h58q61 0 61 -105v-76q0 -260 -133 -260q-29 1 -47 17zM412 1057q61 18 61 203v221h57q59 0 60 -105v-76q0 -260 -131 -260q-31 1 -47 17z" />
<glyph unicode="#" horiz-adv-x="1404" d="M71 477q0 24 15 45q16 23 45 23h178l94 383h-204q-2 20 -3 45.5t14 48t46 22.5h174l107 445q99 -32 98 -96q0 -10 -2 -21l-80 -328h428l106 445q99 -31 100 -94q0 -11 -3 -23l-78 -328h225q3 -15 4 -30q0 -22 -7 -45q-11 -41 -56 -41h-195l-94 -383h225q3 -13 4 -28 q0 -22 -8 -46q-12 -41 -55 -41h-193l-106 -444q-51 12 -78 43q-20 23 -20 53q0 9 2 18l80 330h-428l-107 -444q-51 12 -78 43q-20 23 -20 53q0 9 2 18l78 330h-207q-3 28 -3 47zM432 545h428l94 383h-428z" />
<glyph unicode="$" horiz-adv-x="1277" d="M117 1090q0 393 458 413v115q12 0 32 -2t52.5 -25.5t32.5 -64.5v-23q397 -12 398 -241q0 -66 -37 -154q0 256 -361 276v-561q84 -14 140.5 -28.5t119 -44t99 -71.5t61.5 -109.5t25 -155.5q0 -408 -445 -437v-127q-12 0 -31.5 2.5t-52.5 26t-33 66.5v32q-115 4 -207 29 t-155 81t-63 136q0 68 32 156q0 -264 393 -283v625q-90 14 -143 26.5t-120.5 40t-104.5 64.5t-63.5 97.5t-26.5 140.5zM246 1102q0 -127 80 -178.5t249 -79.5v540q-164 -6 -246.5 -71.5t-82.5 -210.5zM692 96q317 18 318 312q0 135 -79 197.5t-239 92.5v-602z" />
<glyph unicode="%" horiz-adv-x="1583" d="M96 1034v266q0 92 81 144.5t216 52.5t216 -53t81 -144v-266q0 -92 -80 -142t-217 -50t-217 50t-80 142zM197 1096q0 -84 37.5 -121t158.5 -37q117 0 158 38t41 120v149q0 78 -41 118t-158 40q-119 0 -157.5 -39t-38.5 -119v-149zM233 248q0 33 29 61l1008 1022 q45 -37 45 -92q0 -47 -45 -90l-994 -993q-43 43 -43 92zM895 172v266q0 90 81 143.5t214 53.5q137 0 218 -52.5t81 -144.5v-266q0 -94 -80 -143t-219 -49q-135 0 -215 49t-80 143zM993 231q0 -82 38 -119.5t159 -37.5q117 0 158 39t41 118v152q0 78 -41 118t-158 40 q-119 0 -158 -39t-39 -119v-152z" />
<glyph unicode="&#x26;" horiz-adv-x="1241" d="M150 358v64q0 121 58 211t181 123q-219 59 -219 317v53q0 168 134 271.5t343 103.5q106 0 204.5 -20.5t178.5 -80t80 -145.5q0 -68 -29 -133q0 125 -123.5 192.5t-310.5 67.5q-170 0 -261 -81.5t-91 -204.5q0 -141 82 -208t270 -69v297q4 0 13.5 -1t29 -6t34.5 -14.5 t27.5 -28.5t12.5 -46v-199h299q0 -12 -2 -32.5t-23.5 -53.5t-56.5 -33h-217v-180q0 -43 9 -82t18 -57l8 -16q-6 0 -15.5 3t-36 17t-47 33.5t-37 60.5t-16.5 92v129h-67q-152 0 -230 -85t-78 -222q0 -129 94.5 -215t280.5 -86q201 0 329 66.5t128 195.5q31 -68 31 -133 q0 -86 -83 -146.5t-187.5 -81t-217.5 -20.5q-223 0 -360 106.5t-137 276.5z" />
<glyph unicode="'" horiz-adv-x="452" d="M119 1057q61 18 61 203v221h58q61 0 61 -105v-76q0 -260 -133 -260q-29 1 -47 17z" />
<glyph unicode="(" horiz-adv-x="634" d="M117 535q0 424 111.5 702.5t267.5 278.5q47 0 88 -37q-123 -2 -231.5 -286t-108.5 -658.5t108.5 -658.5t231.5 -286q-41 -37 -88 -36q-156 0 -267.5 279.5t-111.5 701.5z" />
<glyph unicode=")" horiz-adv-x="634" d="M53 -410q123 2 231.5 286t108.5 658.5t-108.5 658.5t-231.5 286q41 37 88 37q156 0 267.5 -279t111.5 -702q0 -422 -111.5 -701.5t-267.5 -279.5q-47 -1 -88 36z" />
<glyph unicode="*" horiz-adv-x="835" d="M92 1309q0 41 28.5 73.5t92.5 32.5q39 0 152 -47q-33 172 -132 188q43 43 91 43q49 0 84.5 -58t50.5 -163q106 90 106 160q0 23 -10 47l41 -18q53 -31 53 -86q0 -82 -135 -181q66 -25 139 -24q49 0 88 45q4 -31 4 -45q0 -43 -28.5 -75t-91.5 -32q-33 0 -150 50 q25 -174 127 -193q-41 -43 -88 -43q-49 0 -86 57.5t-49 163.5q-109 -88 -109 -160q0 -18 11 -45l-39 17q-53 33 -54 88q0 72 134 178q-72 27 -140 27q-47 0 -86 -45q-4 29 -4 45z" />
<glyph unicode="+" d="M164 560q12 44 53 44h244v289q12 2 23 2q32 0 56 -13q32 -17 31 -53v-225h297q4 -25 5 -45q0 -71 -58 -72h-244v-321q-10 -2 -20 -2q-28 0 -54 13q-36 17 -36 52v258h-295q-8 15 -8 36q0 17 6 37z" />
<glyph unicode="," horiz-adv-x="460" d="M111 -213q66 11 66 127q0 31 -5 70q-2 8 -2 12l-23 160h37h97q18 0 18 -21v-125q0 -244 -117 -243q-34 0 -71 20z" />
<glyph unicode="-" d="M161 539q0 24 15 44q16 22 45 21h647q3 -14 4 -29q0 -21 -7 -45q-11 -41 -56 -41h-645q-3 32 -3 50z" />
<glyph unicode="." horiz-adv-x="468" d="M164 35v121h115q29 0 28 -33v-123h-114q-29 0 -29 35z" />
<glyph unicode="/" horiz-adv-x="651" d="M51 -391l457 1980q115 -37 94 -116l-455 -1981q-51 14 -77.5 45t-18.5 72z" />
<glyph unicode="0" horiz-adv-x="1292" d="M150 348v782q0 182 134 277.5t363 95.5q227 0 361.5 -95t134.5 -278v-782q0 -184 -134.5 -278.5t-361.5 -94.5q-229 0 -363 94.5t-134 278.5zM272 379q0 -150 91.5 -219.5t284 -69.5t282.5 69.5t90 219.5v721q0 145 -90 217t-282.5 72t-284 -72t-91.5 -217v-721z" />
<glyph unicode="1" horiz-adv-x="1069" d="M96 1317q0 74 58.5 117t162.5 43l345 16q-14 -86 -15 -180v-1196l375 4q6 -29 6 -51q0 -70 -59 -70h-822q-5 26 -4 46q0 71 56 71h325v1247q-100 -14 -221 -14q-90 0 -133 -42t-43 -102v-10q-31 66 -31 121z" />
<glyph unicode="2" horiz-adv-x="1193" d="M117 0v152q0 123 62.5 219t154.5 151.5t201 112.5l201 106q93 49 154.5 130t61.5 186v37q0 125 -92 207.5t-262 82.5q-184 0 -309 -67.5t-125 -192.5q-33 72 -33 131q0 68 45 118t119 78t150.5 40t152.5 12q211 0 344 -102.5t133 -270.5v-83q0 -109 -46 -194 t-118.5 -140.5t-162.5 -100.5l-180 -90q-89 -45 -162.5 -94t-118.5 -124t-45 -167v-20h723l122 12q0 -4 -1 -13.5t-6 -32t-13 -38.5t-29.5 -30.5t-48.5 -14.5h-872z" />
<glyph unicode="3" horiz-adv-x="1234" d="M127 225q0 61 27 123q0 -125 128 -189.5t326 -64.5q186 0 280.5 82t94.5 207q0 135 -67.5 218t-206.5 97h-15q-14 2 -20 6.5l-19.5 14.5t-19.5 33.5t-8 56.5q182 6 259 73.5t77 213.5q0 125 -90.5 206.5t-264.5 81.5q-184 0 -309 -68.5t-125 -193.5q-31 78 -31 133 q0 68 44 118t118 78t150.5 40t152.5 12q209 0 343 -104.5t134 -272.5v-53q0 -258 -219 -317q123 -33 182.5 -126t59.5 -214v-64q0 -172 -137 -274.5t-363 -102.5q-113 0 -217 21.5t-184 82t-80 146.5z" />
<glyph unicode="4" horiz-adv-x="1085" d="M33 446q6 127 104.5 307.5t230.5 341t228 264t139 142.5q6 0 15.5 -1t34 -6t44 -13t36 -27.5t16.5 -44.5v-846h151q0 -16 -2 -34.5t-20.5 -50.5t-55.5 -32h-73v-466q-10 0 -23.5 2t-40 9t-44 28.5t-17.5 50.5v376h-723zM178 563h578v645q0 35 3 77t7 65l4 24 q-37 -49 -65 -78q-147 -145 -309.5 -359t-217.5 -374z" />
<glyph unicode="5" horiz-adv-x="1173" d="M86 215q0 49 27 133q0 -125 128 -189.5t330 -64.5q193 0 283 66.5t90 218.5v149q0 289 -373 289h-270l-111 -4q8 33 9 137v346q0 53 4 86t31.5 64t78.5 31h551q35 0 66 4t45 8l14 4q0 -6 -1 -14.5t-7 -32t-14.5 -40.5t-30 -31.5t-47.5 -14.5h-567v-293l-15 -139h260 q500 0 500 -373v-203q0 -182 -134 -279.5t-362 -97.5q-61 0 -128.5 8.5t-155.5 30t-144.5 73.5t-56.5 128z" />
<glyph unicode="6" horiz-adv-x="1282" d="M150 348v772q0 182 135 282.5t362 100.5q88 0 163 -9t152.5 -32.5t122.5 -74t45 -119.5q0 -66 -26 -131q0 123 -131 185t-326 62q-373 0 -373 -297v-200l-6 -164q2 6 8.5 17.5t36 42t70.5 53t116.5 42t170.5 19.5q215 0 344 -96t129 -277v-176q0 -184 -134.5 -278.5 t-361.5 -94.5q-229 0 -363 94.5t-134 278.5zM274 379q0 -154 88.5 -221.5t284.5 -67.5q195 0 283 67.5t88 221.5v113q0 152 -85 221t-263 69q-395 0 -396 -272v-131z" />
<glyph unicode="7" horiz-adv-x="1097" d="M20 1343q0 6 1.5 15.5t7.5 33t15 40t30.5 32t48.5 15.5h944q0 -139 -42 -268.5t-106.5 -228.5t-143.5 -197l-158 -187q-79 -90 -143 -182t-104 -203q-38 -105 -38 -214v-11q-12 -8 -37 -8q-84 0 -84 65q0 139 65.5 278.5t164.5 257.5l201 233q101 116 184 259.5 t104 288.5h-783q-35 0 -66.5 -5t-45.5 -9z" />
<glyph unicode="8" horiz-adv-x="1292" d="M150 348v78q0 215 212 322q-104 51 -148 124.5t-44 186.5v71q0 180 131 276.5t346 96.5q213 0 344 -96t131 -277v-71q0 -115 -43 -187.5t-145 -123.5q209 -106 209 -322v-72q0 -184 -134.5 -281.5t-361.5 -97.5q-229 0 -363 94.5t-134 278.5zM272 381q0 -152 89.5 -221.5 t285.5 -69.5q193 0 283 71.5t90 225.5q0 305 -373 305q-193 0 -284 -76.5t-91 -234.5zM295 1095.5q0 -149.5 75.5 -219t260.5 -69.5h33q182 0 258.5 69.5t76.5 219t-86 221.5t-266 72t-266 -72t-86 -221.5z" />
<glyph unicode="9" horiz-adv-x="1282" d="M139 1130q0 184 134.5 278.5t361.5 94.5q229 0 363.5 -94t134.5 -279v-772q0 -184 -135.5 -283.5t-362.5 -99.5q-88 0 -163 9.5t-151.5 33t-122.5 73.5t-46 120q0 66 26 129q0 -121 131 -183.5t326 -62.5q373 0 373 295v203l6 164q-2 -6 -8.5 -17.5t-36 -43t-70.5 -53 t-116.5 -41t-168.5 -19.5q-217 0 -346 96t-129 276v176zM264 987q0 -152 85 -221.5t265 -69.5q393 0 394 273v131q0 154 -88.5 221.5t-284.5 67.5q-195 0 -283 -68t-88 -221v-113z" />
<glyph unicode=":" horiz-adv-x="468" d="M197 35v121h114q27 0 27 -33v-123h-115q-26 0 -26 35zM197 829v121h114q27 0 27 -32v-123h-115q-26 -1 -26 34z" />
<glyph unicode=";" horiz-adv-x="468" d="M152 -213q66 11 65 130q0 30 -4 67q-2 8 -2 12l-23 160h37h97q16 0 16 -21v-125q0 -244 -115 -243q-34 0 -71 20zM197 829v121h114q27 0 27 -32v-123h-115q-26 -1 -26 34z" />
<glyph unicode="&#x3c;" horiz-adv-x="872" d="M139 526q0 45 54 99l423 424q61 -39 62 -82q0 -8 -5 -18.5t-18.5 -26t-20.5 -22.5l-28 -28l-24 -24l-322 -320l432 -432q-37 -55 -76 -55q-35 0 -112 76l-314 315q-51 51 -51 94z" />
<glyph unicode="=" d="M161 397q0 24 15 45q16 23 45 23h647q3 -15 4 -30q0 -21 -7 -45q-11 -40 -56 -40h-645q-3 28 -3 47zM161 686q0 24 15 45q16 23 45 23h647q3 -14 4 -29q0 -21 -7 -45q-11 -41 -56 -41h-645q-3 28 -3 47z" />
<glyph unicode="&#x3e;" horiz-adv-x="872" d="M139 96l432 432l-321 320l-25 24l-27 28q-7 7 -20.5 22.5t-18.5 25.5t-5 19q0 43 61 82l424 -424q53 -53 53 -99q0 -43 -51 -94l-315 -315q-76 -76 -111 -76q-41 0 -76 55z" />
<glyph unicode="?" horiz-adv-x="1095" d="M158 1292q0 102 111.5 154.5t256.5 52.5q213 0 344 -91t131 -257v-53q0 -86 -36.5 -155t-91.5 -108l-117 -85l-118 -82q-54 -37 -90 -96.5t-36 -133.5v-102q-4 0 -12 1t-25.5 7t-32 14.5t-25.5 29t-11 46.5v47q0 90 48 160t117 117l140 94q70 47 118 111.5t48 148.5 q0 127 -88.5 198.5t-262.5 71.5q-162 0 -250 -57t-88 -164q-30 65 -30 131zM395 31v110h105q25 0 24 -30v-111h-104q-25 0 -25 31z" />
<glyph unicode="@" horiz-adv-x="1869" d="M160 160v725q0 221 167 366.5t451 145.5h318q281 0 447.5 -145.5t166.5 -366.5v-428q0 -481 -680 -482q-135 0 -245.5 27t-189.5 95.5t-79 174.5q0 100 49 169t121 97.5t160 52t163.5 37t131 45.5t65.5 81q0 207 -284 207q-170 0 -258.5 -63.5t-88.5 -170.5 q-39 74 -38 135q0 102 110.5 157.5t274.5 55.5q190 0 295.5 -86t105.5 -241l2 -361q0 -20 -4 -44t-16.5 -61.5t-45 -69.5t-81.5 -46q35 84 34 166v274q-8 -39 -70.5 -64.5t-144.5 -40t-163.5 -35t-138 -66.5t-56.5 -124q0 -94 111.5 -142t285.5 -48q129 0 222.5 16.5 t173 58.5t120.5 123t41 199v373q0 188 -122.5 310t-376.5 122h-318q-254 0 -377 -122t-123 -310v-668q0 -172 83 -274t221 -102q25 0 50 5t40 9l10 4q-4 -47 -57.5 -72.5t-110.5 -25.5q-154 0 -253 119t-99 309z" />
<glyph unicode="A" horiz-adv-x="1282" d="M0 -14q10 18 27.5 59t40.5 108l42 128l50 159l49 161l53 174l49 161q125 406 330 565q205 -160 330 -565l50 -161l53 -174l49 -161l49 -159l42 -128q23 -67 40.5 -108t27.5 -59q-6 -2 -20 -2q-27 0 -49.5 6t-40 20.5t-33 29.5t-27.5 42t-22.5 45t-21.5 53t-16 53l-17 58 l-15 53l-43 150h-672l-43 -150l-15 -53l-17 -58q-5 -18 -16 -53t-21.5 -53t-22.5 -45t-27.5 -42t-33 -29.5t-40 -20.5t-49.5 -6q-14 0 -20 2zM338 610h606l-82 271q-43 137 -98 250.5t-88 158.5l-35 45q-14 -16 -37.5 -48t-82 -150.5t-101.5 -255.5z" />
<glyph unicode="B" horiz-adv-x="1228" d="M180 94v1385h414q475 0 475 -351v-67q0 -111 -52 -193t-140 -118q96 -41 154.5 -126t58.5 -196v-68q0 -182 -133.5 -271t-362.5 -89h-262q-6 0 -15.5 1t-36 6t-47 14.5t-37 27.5t-16.5 45zM305 115h289q195 0 284 67.5t89 210t-88 221t-269 78.5h-305v-577zM305 805h305 q180 0 258 71.5t78 217.5q0 141 -85 204.5t-267 63.5h-289v-557z" />
<glyph unicode="C" horiz-adv-x="1404" d="M160 455v569q0 248 161.5 363.5t411.5 115.5q55 0 107.5 -3t118 -11t118.5 -24.5t100.5 -44t70.5 -64.5q22 -34 22 -85q0 -61 -39 -134q0 74 -52.5 126t-135 76.5t-159.5 34.5t-151 10q-451 0 -450 -389v-510q0 -391 440 -391q70 0 137.5 7.5t162.5 31t152.5 81.5 t55.5 144q35 -74 35 -136q0 -51 -21 -86q-23 -38 -67.5 -67.5t-98 -47t-118 -28.5t-121 -14.5t-117.5 -3.5q-250 0 -406.5 115t-156.5 365z" />
<glyph unicode="D" horiz-adv-x="1460" d="M180 94v1385h541q119 0 217 -23.5t183 -75t132 -149.5t47 -232v-520q0 -135 -47 -232t-132 -148.5t-183 -75t-217 -23.5h-391q-20 0 -47 3t-65 26.5t-38 64.5zM305 115h416q457 0 457 385v479q0 385 -457 385h-416v-1249z" />
<glyph unicode="E" horiz-adv-x="1173" d="M180 94v1385h887v-13q0 -8 -4 -27.5t-11.5 -34.5t-24.5 -27.5t-38 -12.5h-684v-494h522q125 0 154 31q0 -29 -9 -58.5t-43 -58t-89 -28.5h-535v-641h762q0 -14 -2 -34t-21.5 -50.5t-54.5 -30.5h-655q-16 0 -42 2t-69 25.5t-43 66.5z" />
<glyph unicode="F" horiz-adv-x="1017" d="M180 72v1407h824v-13q0 -8 -4.5 -27.5t-12.5 -34.5t-24.5 -27.5t-38.5 -12.5h-619v-494h436q125 0 156 31q0 -29 -10 -58.5t-44 -58t-89 -28.5h-449v-776q-14 0 -34.5 2t-55.5 25.5t-35 64.5z" />
<glyph unicode="G" horiz-adv-x="1441" d="M160 455v569q0 248 161.5 363.5t411.5 115.5q53 0 104.5 -3t117 -12t117.5 -25.5t100.5 -44t73 -64.5t23.5 -93.5t-38 -125.5q0 74 -52.5 126t-135 77.5t-159.5 35.5t-151 10q-451 0 -450 -389v-510q0 -391 439 -391t439 381v152h-323q-86 0 -103 118l-2 17 q51 -20 135 -21h414v-299q0 -127 -45 -221t-125 -146t-176 -76t-213 -24q-250 0 -406.5 115t-156.5 365z" />
<glyph unicode="H" horiz-adv-x="1468" d="M180 72v1427q14 0 35 -2t55.5 -25.5t34.5 -66.5v-574h860v668q12 0 34 -2t55.5 -25.5t33.5 -66.5v-1425q-12 0 -33.5 2t-55.5 25.5t-34 64.5v641h-860v-733q-14 0 -34.5 2t-55.5 25.5t-35 64.5z" />
<glyph unicode="I" horiz-adv-x="485" d="M180 72v1427q14 0 35 -2t55.5 -25.5t34.5 -66.5v-1425q-14 0 -34.5 2t-55.5 25.5t-35 64.5z" />
<glyph unicode="J" horiz-adv-x="462" d="M16 -385q74 0 109 103.5t35 236.5v1544q16 0 39.5 -4t53.5 -28.5t30 -65.5v-1499q0 -152 -47.5 -239t-133.5 -87q-47 0 -86 39z" />
<glyph unicode="K" horiz-adv-x="1220" d="M180 72v1427q14 0 35 -2t55.5 -25.5t34.5 -66.5v-553q123 4 216 38t171 106.5t139.5 160.5t137.5 232q61 115 174 114l28 -2q-20 -31 -67 -122t-95 -171t-113 -168t-153 -149.5t-182 -79.5q94 -10 186.5 -79.5t167 -179.5t131 -209t112.5 -213t77 -148q-25 -6 -51 -7 q-49 0 -85 28t-71 93l-24 49l-68 124l-63 114q-40 72 -68 107l-74 89q-45 52 -87 78.5t-95 55t-113.5 40t-130.5 13.5v-786q-14 0 -34.5 2t-55.5 25.5t-35 64.5z" />
<glyph unicode="L" horiz-adv-x="1030" d="M180 94v1405q14 0 35 -2t55.5 -25.5t34.5 -66.5v-1290h557q55 0 95 5t51 11l10 6q0 -41 -27.5 -89t-72.5 -48h-584q-16 0 -42 2t-69 25.5t-43 66.5z" />
<glyph unicode="M" horiz-adv-x="1677" d="M180 72v1407h105q10 0 25.5 -3t49 -28t56.5 -70l420 -895l479 996q6 0 18.5 -1t44 -6.5t55 -14.5t44 -28.5t20.5 -44.5v-1404q-12 0 -33.5 2t-55.5 25.5t-34 64.5v1108l10 180l-516 -1047q-63 0 -120 95l-453 958q10 -98 10 -186v-1200q-14 0 -34.5 2t-55.5 25.5 t-35 64.5z" />
<glyph unicode="N" horiz-adv-x="1470" d="M180 72v1407q63 0 94 -3t71 -27t71 -73l686 -1110l82 -147q-16 104 -17 151v1209q12 0 34 -2t55.5 -26t33.5 -67v-1404q-78 0 -136 32.5t-81 63.5l-18 35l-768 1232q18 -90 18 -176v-1187q-14 0 -34.5 2t-55.5 25.5t-35 64.5z" />
<glyph unicode="O" horiz-adv-x="1441" d="M160 434v610q0 221 139 340t424 119q281 0 420 -118.5t139 -340.5v-610q0 -221 -139 -340t-420 -119q-285 0 -424 119t-139 340zM283 463q0 -186 91 -279.5t346 -93.5t347 93t92 280v553q0 186 -92 279.5t-346 93.5q-133 0 -221 -27t-134.5 -79t-64.5 -114.5t-18 -152.5 v-553z" />
<glyph unicode="P" horiz-adv-x="1204" d="M180 72v1407h350q96 0 174 -12.5t151 -44t124 -82t81 -132.5t30 -190v-39q0 -461 -560 -461h-225v-538q-14 0 -34.5 2t-55.5 25.5t-35 64.5zM305 633h225q215 0 326 76.5t111 289.5q0 197 -114 281t-323 84h-225v-731z" />
<glyph unicode="Q" horiz-adv-x="1441" d="M160 434v610q0 221 139 340t424 119q281 0 420 -118.5t139 -340.5v-610q0 -440 -512 -459v-71q0 -127 110.5 -200t258.5 -73q53 0 110.5 13.5t112.5 41t86 80.5q26 44 26 99q0 11 -1 22q35 -72 35 -132q0 -79 -61 -138q-108 -104 -310 -104q-188 0 -334 95t-146 265v104 q-497 21 -497 457zM283 463q0 -193 91 -283t347 -90t347 90t91 283v553q0 190 -91 281.5t-347 91.5t-347 -91.5t-91 -281.5v-553z" />
<glyph unicode="R" horiz-adv-x="1163" d="M180 72v1407h414q475 0 475 -351v-63q0 -184 -125 -277q-115 -85 -297 -84q-16 0 -33 1q106 -33 201.5 -136.5t148 -205t108.5 -224.5t79 -155q-29 -5 -53 -5q-40 0 -64 13q-39 20 -82 104q-145 281 -200 361q-129 182 -330 229q-53 12 -117 16v-722q-4 0 -13 1t-29.5 6 t-37 13t-31 27.5t-14.5 44.5zM305 807h305q180 0 258 72.5t78 218.5q0 137 -86 201.5t-266 64.5h-289v-557z" />
<glyph unicode="S" horiz-adv-x="1316" d="M117 1090q0 223 153.5 319t399.5 96q90 0 170 -11t154.5 -36.5t117.5 -76t43 -119.5q0 -66 -39 -154q0 278 -463 278q-408 0 -407 -284q0 -88 53 -142.5t137 -78t185.5 -39t203 -38t186.5 -61t138 -122.5t53 -207q0 -217 -147.5 -328t-395.5 -111q-123 0 -232.5 21.5 t-193 82t-83.5 144.5q0 68 32 156q0 -150 141.5 -217.5t350.5 -67.5q197 0 298 83t101 231q0 111 -71.5 178t-176.5 89l-229 47q-125 26 -230.5 53.5t-177 107.5t-71.5 207z" />
<glyph unicode="T" horiz-adv-x="1130" d="M4 1507q20 -29 158 -28h809q137 0 155 28q0 -29 -7 -56.5t-35.5 -57t-77.5 -29.5h-381v-1384q-14 0 -35 2t-55.5 25.5t-34.5 64.5v1292h-373q-70 0 -96.5 47t-26.5 96z" />
<glyph unicode="U" horiz-adv-x="1441" d="M160 420v1081q12 0 33.5 -2t55.5 -25.5t34 -66.5v-963q0 -164 120.5 -257t319.5 -93q195 0 315.5 93.5t120.5 256.5v1057q12 0 33.5 -2t55.5 -25.5t34 -66.5v-987q0 -209 -162 -327t-397 -118q-240 0 -401.5 118t-161.5 327z" />
<glyph unicode="V" horiz-adv-x="1323" d="M10 1489v2v-2zM10 1489h25q31 0 57.5 -10.5t48 -34t37 -45t30.5 -63.5t22 -66l22 -73l20 -69l166 -534q98 -315 217 -436l7 -6q16 14 38.5 43.5t82 145.5t102.5 253l166 534l19 68q15 53 23.5 74.5t24 65.5t30.5 64l37 45q22 26 48.5 35t56.5 9h23q-18 -29 -44 -96.5 t-59 -172.5l-62 -204l-71 -234l-63 -213q-109 -360 -320 -569l-32 -31q-8 10 -24.5 24.5t-63 69t-88.5 119t-92 169t-83 218.5q-250 836 -301 920zM1313 1489l2 2z" />
<glyph unicode="W" horiz-adv-x="2000" d="M10 1489l19 -2h6q31 0 57.5 -10.5t49 -35t38 -45t29.5 -62.5t23.5 -65.5t22.5 -74.5t19 -68l168 -534q49 -154 103.5 -266.5t85.5 -149.5l30 -35q14 10 38 37t96.5 161t148.5 329q-88 344 -88 626q0 92 25.5 134t113.5 42q-8 -121 -8 -180q0 -559 262 -1016 q51 -86 90 -133q12 12 34 39t79 142.5t109 269.5l165 534q8 20 25.5 81t27 86.5t30 70.5t40 65.5t50 39t69.5 18.5l23 2q-31 -53 -140 -404l-172 -548q-41 -131 -91 -239t-93 -166t-79 -97t-56 -51l-21 -15l-20 22q-12 13 -54 62t-80 106.5t-89.5 154t-91.5 200.5 q-37 -102 -85.5 -196.5t-90.5 -155t-80.5 -106.5t-61.5 -64l-24 -23l-22 16q-13 9 -54 50t-80 98t-90 165t-92 239l-172 548q-111 355 -142 404z" />
<glyph unicode="X" horiz-adv-x="1118" d="M2 1487q0 2 29 2q100 0 164 -115l54 -106l57 -109l53 -92q36 -61 61.5 -97t63.5 -81t77 -80q43 43 81 88t82 117l62 102q18 31 73.5 134.5l66.5 123.5q63 115 164 115l28 -2q-20 -33 -96 -190.5t-171 -315.5t-194 -248q98 -98 192.5 -257t170.5 -312.5t94 -183.5 q-8 -1 -16 -1q-115 0 -176 113l-89.5 169t-93 170t-78 115.5t-100.5 112.5q-41 -35 -76.5 -77.5t-75.5 -107.5l-64 -105q-24 -41 -76 -140l-72 -137q-25 -41 -49.5 -66.5t-52 -34.5t-45 -10t-46.5 -1q18 31 93 184t170 312t194 257q-98 90 -193.5 248t-170.5 315.5 t-95 190.5z" />
<glyph unicode="Y" horiz-adv-x="1124" d="M4 1489q0 2 29 2q94 0 162 -115q14 -25 75.5 -160t136 -262t156.5 -204q80 78 155 204.5t136 262t76 159.5q68 115 164 115l26 -2q-18 -29 -99 -209t-185.5 -362.5t-210.5 -272.5h2v-665q-16 0 -36 2t-55.5 26.5t-35.5 65.5v571q-106 90 -211 272.5t-186 362.5t-99 209z " />
<glyph unicode="Z" horiz-adv-x="1165" d="M70 0q0 154 78.5 299t196.5 266l239 239q121 118 223 264t133 296h-817q0 12 2 31.5t22.5 51.5t57.5 32h866q-2 -150 -60.5 -291t-145.5 -246.5t-192.5 -218.5t-199.5 -203t-168 -197.5t-92 -207.5h735q55 0 94 6t52 14l10 6q0 -49 -25.5 -95t-85.5 -46h-923z" />
<glyph unicode="[" horiz-adv-x="552" d="M180 1479h320q0 -10 -2 -28.5t-21.5 -47.5t-56.5 -29h-115v-1413h115q35 0 54.5 -26.5t22.5 -45t3 -32.5h-172q-6 0 -15.5 1t-35 6t-45 13t-36 27.5t-16.5 44.5v1530z" />
<glyph unicode="\" horiz-adv-x="632" d="M-14 1579q31 6 49 6q66 0 82 -53l583 -2017q-31 -6 -47 -7q-66 0 -80 54z" />
<glyph unicode="]" horiz-adv-x="550" d="M53 1479h318v-1530q0 -41 -36 -64.5t-75 -25.5l-37 -2h-170q0 104 78 104h117v1413h-117q-70 9 -78 105z" />
<glyph unicode="^" horiz-adv-x="1161" d="M74 1004l424 426q53 53 98 53q43 -4 94 -51l316 -316q6 -6 16 -17.5t17.5 -17.5t16.5 -15t13 -17.5t8 -19.5t4 -21q0 -16 -14 -40t-41 -40l-432 434l-320 -322q-4 -6 -24.5 -25.5t-27.5 -27.5t-22.5 -20.5t-25.5 -17.5t-18 -5q-43 1 -82 60z" />
<glyph unicode="_" horiz-adv-x="1105" d="M6 -131q-5 17 -5 34q0 21 7 42q12 39 53 39h1041q2 -20 2 -46t-13.5 -47.5t-37.5 -21.5h-1047z" />
<glyph unicode="`" horiz-adv-x="1040" d="M317 1516q23 37 99 81q-4 -17 -5 -33q0 -70 76 -145l148 -139q16 -19 16 -34q0 -12 -11 -22q-24 -22 -73 -30l-102 82q-106 86 -138 144q-19 34 -19 61q0 20 9 35z" />
<glyph unicode="a" horiz-adv-x="1056" d="M115 276q0 111 63.5 180.5t155.5 98.5t188 48.5t174 54t97 92.5q0 102 -58.5 157.5t-210.5 55.5q-154 0 -240.5 -60.5t-86.5 -163.5q-45 59 -45 127q0 94 102 152.5t270 58.5q193 0 289 -87t96 -247v-753q-55 20 -129 20q-31 0 -123 -17.5t-139 -17.5q-195 0 -299 83 t-104 218zM236 274q0 -86 73.5 -138t225.5 -52q70 0 134 13.5t93 25.5l31 16v471q-12 -47 -104.5 -74.5t-192 -43t-180 -70t-80.5 -148.5z" />
<glyph unicode="b" horiz-adv-x="1097" d="M160 51v1526q117 0 116 -115v-295l-22 -223q4 6 11 14.5t36 32t67 41t104.5 31.5t143.5 14q143 0 244 -88t101 -235v-455q0 -154 -120 -239t-292 -85q-76 0 -211 35t-178 41zM276 147q125 -61 261 -61q170 0 238.5 63.5t68.5 180.5v393q0 125 -69.5 184.5t-186.5 59.5 q-121 0 -216.5 -63.5t-95.5 -160.5v-596z" />
<glyph unicode="c" horiz-adv-x="1048" d="M139 305v443q0 156 106.5 242.5t295.5 86.5q166 0 267 -57t101 -154q0 -66 -47 -127q0 102 -86 163t-239 61q-281 0 -281 -238v-399q0 -109 78 -172.5t228.5 -63.5t245.5 59.5t95 174.5q53 -76 53 -134q0 -104 -116.5 -159.5t-276.5 -55.5q-195 0 -309.5 87t-114.5 243z " />
<glyph unicode="d" horiz-adv-x="1097" d="M139 299v455q0 147 99.5 234t246.5 87q84 0 152 -13t105.5 -32.5t62 -39t33.5 -32.5l8 -14q-25 39 -25 223v410q119 0 119 -115v-1472q-55 20 -113 20q-41 0 -143 -17.5t-158 -17.5q-182 0 -284.5 87t-102.5 237zM256 330q0 -127 68.5 -185.5t240.5 -58.5 q70 0 133.5 12.5t94.5 24.5l28 14v606q0 96 -93 159t-214 63q-119 0 -188.5 -60.5t-69.5 -181.5v-393z" />
<glyph unicode="e" horiz-adv-x="1056" d="M139 305v443q0 156 100.5 242.5t290.5 86.5q186 0 293 -84t107 -225q0 -135 -99.5 -216t-310.5 -81q-139 0 -264 55v-190q0 -125 63.5 -185.5t221.5 -60.5q154 0 253 60.5t99 173.5q49 -68 49 -136q0 -102 -121 -157.5t-280 -55.5q-184 0 -293 87t-109 243zM256 635 l47 -17q119 -33 207 -32q303 0 303 182q0 199 -278 199q-160 0 -219.5 -61.5t-59.5 -190.5v-80z" />
<glyph unicode="f" horiz-adv-x="677" d="M160 78v1241q0 147 130 238.5t300 91.5q123 0 223 -54.5t100 -144.5q0 -47 -53 -111q0 82 -77.5 138.5t-198.5 56.5q-129 0 -218.5 -63.5t-89.5 -176.5v-268h414q0 -12 -2 -31.5t-22.5 -51.5t-55.5 -32h-334v-925q-12 0 -31.5 2t-52 25.5t-32.5 64.5z" />
<glyph unicode="g" horiz-adv-x="1026" d="M94 231q0 66 21.5 109t72.5 104q-61 80 -61 203v129q0 152 103.5 225.5t261.5 73.5q55 0 160.5 -19.5t138.5 -19.5q63 0 118 29v-418q0 -158 -100 -244t-289 -86q-215 4 -287 74q-20 -74 -20 -123q0 -96 55.5 -123.5t214.5 -27.5h70q72 0 117 -3t105.5 -17.5t95 -41 t59 -79t24.5 -128.5q0 -168 -106.5 -266t-321.5 -98q-174 0 -298 55t-124 156q0 74 50 141q0 -238 372 -237q176 0 242 69.5t66 190.5q0 49 -20.5 78.5t-66 43t-87.5 17.5t-113 4h-105q-80 0 -133 6t-107.5 28.5t-81 70.5t-26.5 124zM246 680q0 -129 59.5 -190.5t215 -61.5 t214 61.5t58.5 190.5v229q-111 55 -281 56q-152 0 -209 -52.5t-57 -169.5v-63z" />
<glyph unicode="h" horiz-adv-x="1120" d="M160 78v1501q16 0 35.5 -3t50 -31.5t30.5 -82.5v-295l-22 -223l10 14.5t36 32t68 41t103.5 31.5t144.5 14q143 0 244 -89t101 -234v-768q-4 0 -12.5 1t-29 6t-36 13t-27.5 27.5t-12 44.5v645q0 125 -69.5 184.5t-186.5 59.5q-121 0 -216.5 -63.5t-95.5 -160.5v-757 q-12 0 -31.5 2t-52 25.5t-32.5 64.5z" />
<glyph unicode="i" horiz-adv-x="436" d="M152 1319v119h110q23 0 23 -31v-117h-111q-22 0 -22 29zM160 78v989q16 0 37.5 -3t50 -26.5t28.5 -64.5v-987q-12 0 -31.5 2t-52 25.5t-32.5 64.5z" />
<glyph unicode="j" horiz-adv-x="436" d="M29 -475q66 0 98.5 101.5t32.5 221.5v1219q12 0 31.5 -2t52 -25.5t32.5 -66.5v-1192q0 -121 -48 -206t-124 -85q-38 0 -75 35zM152 1319v119h110q23 0 23 -31v-117h-111q-22 0 -22 29z" />
<glyph unicode="k" horiz-adv-x="978" d="M160 78v1505q12 0 31.5 -2t52 -25.5t32.5 -66.5v-827h31q147 0 231.5 72.5t182.5 252.5q14 27 22.5 37t44 26.5t95.5 16.5l20 -2q-10 -16 -50 -87t-72.5 -122t-82 -110.5t-106.5 -93.5t-119 -34q109 -20 194 -81.5t134 -142.5t80.5 -158.5t57.5 -149.5t40 -92 q-35 -8 -55 -8q-49 0 -82 40t-50.5 101t-53.5 133t-83 135.5t-144 108.5t-235 51v-569q-12 0 -31.5 2t-52 25.5t-32.5 64.5z" />
<glyph unicode="l" horiz-adv-x="436" d="M150 287v1296q10 0 22 -2t36.5 -10t41 -28.5t16.5 -53.5v-1147q0 -135 33 -226t107 -91q-29 -39 -84 -39q-86 0 -129 83t-43 218z" />
<glyph unicode="m" horiz-adv-x="1802" d="M160 76v985q53 -31 96 -31q53 0 161.5 23.5t172.5 23.5q217 0 307 -112l10 -15q137 125 371 125q147 0 257 -76.5t110 -230.5v-782q-4 0 -13.5 1t-29 6t-35 13t-27.5 26.5t-12 43.5v669q0 113 -69.5 164.5t-217.5 51.5q-109 0 -194.5 -51.5t-85.5 -133.5v-790 q-4 0 -12.5 1t-29 5t-36 12t-27.5 27.5t-12 44.5v663q0 119 -68.5 171.5t-214.5 52.5q-80 0 -151.5 -12.5t-102.5 -26.5l-31 -13v-925q-4 0 -12 1t-28.5 5t-36 12t-27.5 27.5t-12 44.5z" />
<glyph unicode="n" horiz-adv-x="1120" d="M160 78v983q59 -31 96 -31q51 0 157.5 23.5t176.5 23.5q158 0 264.5 -69.5t106.5 -237.5v-784q-12 0 -32 2t-52.5 25.5t-32.5 64.5v661q0 111 -66.5 167.5t-216.5 56.5q-80 0 -151.5 -12.5t-102.5 -26.5l-31 -13v-925q-12 0 -31.5 2t-52 25.5t-32.5 64.5z" />
<glyph unicode="o" horiz-adv-x="1142" d="M139 305v443q0 158 108.5 243.5t326 85.5t325 -86t107.5 -243v-443q0 -330 -433 -330q-434 0 -434 330zM256 336q0 -129 64.5 -190.5t252.5 -61.5q184 0 250 61.5t66 190.5v379q0 131 -65.5 191.5t-251 60.5t-251 -60.5t-65.5 -191.5v-379z" />
<glyph unicode="p" horiz-adv-x="1097" d="M160 -414v1475q53 -27 106 -27q25 0 114 21.5t163 21.5q207 0 312.5 -85t105.5 -240v-455q0 -156 -109 -239t-260 -83q-72 0 -135.5 13.5t-100.5 33t-61.5 40t-34.5 32.5t-6 12q23 -41 22 -225v-266v-141q-116 -1 -116 112zM276 307q0 -96 95.5 -159.5t216.5 -63.5 q115 0 185.5 61.5t70.5 182.5v393q0 129 -67.5 187.5t-239.5 58.5q-66 0 -131.5 -12.5t-96.5 -26.5l-33 -15v-606z" />
<glyph unicode="q" horiz-adv-x="1097" d="M139 297v455q0 156 105.5 240.5t310.5 84.5q76 0 164 -21.5t115 -21.5q53 0 106 27v-1587q-119 0 -119 112v295q0 82 7.5 138.5t11.5 72.5l6 14q4 0 -6.5 -14t-36 -32.5t-65.5 -38t-102.5 -33t-135.5 -13.5q-150 0 -255.5 84t-105.5 238zM256 328q0 -121 69.5 -182.5 t186.5 -61.5q121 0 215 63.5t94 159.5v606q-111 53 -258 54q-174 0 -240.5 -58.5t-66.5 -187.5v-393z" />
<glyph unicode="r" horiz-adv-x="768" d="M160 78v983q59 -31 102 -31q41 0 143.5 23.5t159.5 23.5q131 0 176 -68q20 -30 20 -71q0 -51 -32 -119q-6 133 -211 133q-158 0 -242 -45v-921q-12 0 -31.5 2t-52 25.5t-32.5 64.5z" />
<glyph unicode="s" horiz-adv-x="993" d="M96 754q0 324 391 323q160 0 266.5 -49t106.5 -156q0 -63 -51 -157q2 12 2 35q0 217 -324 217q-150 0 -212 -51.5t-62 -151.5q0 -61 38 -96t98.5 -47.5t133 -17.5t146 -17.5t133 -40t98.5 -93t39 -165.5q0 -141 -106.5 -226.5t-305.5 -85.5q-104 0 -185 16.5t-141.5 67 t-60.5 131.5q0 55 31 132q0 -106 89 -171t267 -65q295 0 295 213q0 92 -69.5 133t-170 49t-199.5 20.5t-172 73t-75 179.5z" />
<glyph unicode="t" horiz-adv-x="851" d="M160 1331q4 0 12 -1t28.5 -6t36 -14.5t27.5 -27.5t12 -45v-211h447q0 -12 -3 -31.5t-22.5 -51.5t-54.5 -32h-367v-563q0 -123 67 -190.5t192 -67.5q106 0 182 60.5t76 156.5q39 -72 38 -129q0 -96 -88 -149.5t-211 -53.5q-160 0 -266 84t-106 236v1036z" />
<glyph unicode="u" horiz-adv-x="1120" d="M160 281v786q4 0 12 -1t28.5 -6t36 -14.5t27.5 -28t12 -44.5v-649q0 -47 9.5 -82t36 -75t88 -61.5t153.5 -21.5q78 0 148.5 13.5t101.5 25.5l31 14v930q12 0 31.5 -2t52.5 -25.5t33 -66.5v-983q-49 20 -115 20q-37 0 -138.5 -17.5t-154.5 -17.5q-96 0 -180 24 t-148.5 96.5t-64.5 185.5z" />
<glyph unicode="v" horiz-adv-x="1007" d="M74 1067q14 0 32.5 -2t53.5 -26.5t39 -67.5l43 -369q8 -80 38.5 -163t67.5 -142t74 -106.5t59 -71.5l23 -23q10 8 25.5 24.5t58.5 69t75.5 107.5t65.5 139t41 166l43 369q4 43 36 66.5t58 27.5l29 2l-41 -414q-12 -135 -57 -256t-100.5 -196.5t-109 -132t-87.5 -78.5 l-37 -25q-12 10 -36 26.5t-84 77t-110.5 133t-97.5 194.5t-59 257z" />
<glyph unicode="w" horiz-adv-x="1630" d="M74 1067q14 0 32.5 -2t53.5 -26.5t39 -67.5l43 -369q29 -248 237 -473l33 -33q6 6 18.5 16.5t48 45.5t66.5 70.5t64.5 90t54.5 107.5q-41 147 -41 358q0 270 149 275q-31 -156 -30 -316q0 -205 67.5 -377.5t212.5 -269.5q8 8 25.5 23.5t58.5 64.5t76 103.5t67.5 141.5 t43.5 173l43 369q4 43 34.5 66.5t59.5 27.5l26 2l-40 -414q-12 -135 -56.5 -256t-100.5 -196.5t-109.5 -132t-86.5 -78.5l-37 -25l-57 39q-37 25 -122 112t-136 185q-43 -86 -119 -169t-131 -124l-57 -43q-12 10 -36 26.5t-84 77t-110.5 133t-97.5 194.5t-59 257z" />
<glyph unicode="x" horiz-adv-x="899" d="M35 -12q4 8 30.5 51t38.5 65l150 252l52.5 81t49.5 67l19 24q-63 70 -121 168l-143 242l-46 75q-28 44 -30 50q6 4 26 4q98 0 160 -98l230 -369l231 369q61 98 160 98l26 -4q-2 -6 -29 -50l-46 -75l-144 -242q-25 -43 -55.5 -85t-48.5 -62l-17 -21q70 -86 121 -172 l150 -252q12 -23 38.5 -65.5t30.5 -50.5q-6 -2 -26 -2q-106 0 -164 96l-227 369l-226 -369q-57 -96 -164 -96z" />
<glyph unicode="y" horiz-adv-x="1030" d="M96 1065q12 0 31.5 -2t53.5 -25.5t38 -66.5l43 -371q8 -74 39 -145.5t69 -121.5t73.5 -88t58.5 -57l26 -20q10 6 26.5 20.5t58.5 58.5t77 91t65.5 119.5t39.5 142.5l39 361q4 41 28.5 64.5t42 28.5t51.5 9l-41 -412q-31 -344 -305 -553l-82 -63l-88 -70 q-23 -18 -67.5 -60t-59 -70t-30 -71t-15.5 -92q0 -76 49 -190q-16 -4 -32 -4q-55 0 -96.5 45t-41.5 158q0 221 302 423q-98 61 -194.5 204t-115.5 343z" />
<glyph unicode="z" horiz-adv-x="915" d="M82 0v47q0 94 49 184.5t128 168.5l161 158q82 79 157.5 180.5t110.5 203.5h-582q0 12 2.5 30.5t23 49.5t56.5 31h648q-6 -23 -14.5 -70t-14.5 -70q-39 -121 -137.5 -249.5t-193.5 -217t-174 -182.5t-87 -155h637v-12q0 -7 -4 -26.5t-11.5 -33.5t-24.5 -25.5t-38 -11.5 h-692z" />
<glyph unicode="{" horiz-adv-x="505" d="M53 580q8 2 18.5 7t30 23.5t35 42t27.5 64.5t12 90v545q0 94 46 150q45 55 106 56h2q61 -1 125 -45q-154 0 -154 -223v-508q0 -123 -96 -198l-4 -4q10 -8 27.5 -23.5t45 -69t27.5 -110.5v-508q0 -225 154 -225q-63 -41 -125 -43h-4q-59 0 -104 55q-46 57 -46 149v547 q0 51 -12 92t-28.5 64.5t-37 41t-30 23t-15.5 7.5z" />
<glyph unicode="|" horiz-adv-x="479" d="M180 -422v2007q14 0 32.5 -2t52.5 -25.5t34 -66.5v-2007q-14 0 -32.5 2t-52.5 25.5t-34 66.5z" />
<glyph unicode="}" horiz-adv-x="505" d="M53 1513q61 43 123 45h2q60 0 106 -56t46 -150v-545q0 -49 13 -90t27.5 -64.5t35 -42t29.5 -23.5t20 -7q-8 -2 -17.5 -7.5t-30 -23t-36 -41t-28.5 -64.5t-13 -92v-547q0 -92 -46 -149q-44 -55 -104 -55h-4q-61 2 -123 43q154 0 154 225v508q0 121 96 198l4 5 q-10 8 -27.5 23.5t-45 68.5t-27.5 110v508q0 223 -154 223z" />
<glyph unicode="~" horiz-adv-x="1327" d="M96 725q0 119 172 119q76 0 395.5 -55.5t405.5 -55.5q43 0 82 12.5t59 24.5l17 12q6 -31 6 -51q0 -47 -39 -81t-135 -34q-80 0 -398.5 55.5t-400.5 55.5q-51 0 -91 -12.5t-54 -24.5l-13 -12q-6 29 -6 47z" />
<glyph unicode="&#xa2;" horiz-adv-x="1071" d="M139 305v443q0 147 89 233t257 94v109q12 0 32 -2t52.5 -25.5t32.5 -66.5v-17q139 -10 223 -66.5t84 -140.5q0 -66 -47 -127q0 88 -68.5 146.5t-191.5 72.5v-866q135 10 218 68.5t83 163.5q53 -76 53 -134q0 -96 -103 -150t-251 -63v-106q-12 0 -31.5 2t-52.5 25.5 t-33 64.5v17q-164 14 -255 99t-91 226zM256 326q0 -209 229 -234v869q-133 -8 -181 -69t-48 -167v-399z" />
<glyph unicode="&#xa3;" horiz-adv-x="1277" d="M180 39q25 98 25 176v1040q0 150 115.5 240t297.5 90q162 0 261.5 -43t99.5 -123q0 -66 -35 -125q-6 176 -326 176q-139 0 -214.5 -64.5t-75.5 -182.5v-283h397q0 -14 -2 -32.5t-22.5 -51.5t-55.5 -33h-317v-549l-13 -153q211 -70 463 -70q61 0 106.5 7.5t98.5 31 t90 77.5t51 138q41 -82 41 -149q0 -113 -105.5 -171.5t-271.5 -58.5q-117 0 -236.5 20.5t-231 53.5t-140.5 39z" />
<glyph unicode="&#xa5;" horiz-adv-x="1277" d="M74 1489q0 2 28 2q96 0 162 -115q14 -25 76.5 -160t136.5 -262t156 -204q80 78 154.5 204.5t137 262t76.5 159.5q66 115 162 115l27 -2q-20 -33 -91 -189.5t-164 -328.5t-187 -275h235q5 -16 5 -32q0 -20 -7 -42q-12 -40 -57 -40h-228v-205h287q5 -16 5 -33q0 -20 -7 -42 q-12 -40 -57 -40h-228v-282q-14 0 -34.5 2t-55.5 26.5t-35 65.5v188h-292q-2 18 -3.5 44t15 48.5t45.5 22.5h235v205h-292q-2 18 -3.5 43.5t15 48t45.5 22.5h182q-94 102 -188 273.5t-165 330t-91 189.5z" />
<glyph unicode="&#xa8;" horiz-adv-x="1040" d="M371 1319v119h110q23 0 23 -31v-117h-111q-22 0 -22 29zM653 1319v119h111q25 0 24 -31v-117h-110q-25 0 -25 29z" />
<glyph unicode="&#xa9;" horiz-adv-x="1699" d="M160 455v569q0 221 186 348t506 127q317 0 503.5 -127t186.5 -348v-569q0 -223 -186.5 -349t-503.5 -126q-319 0 -505.5 126t-186.5 349zM272 545q0 -227 123 -343t453 -116q174 0 291.5 32t180 95t87.5 142t25 190v389q0 109 -25 187.5t-87.5 141t-180 94.5t-291.5 32 q-330 0 -453 -115t-123 -340v-389zM469 592v299q0 145 94 227t273 82q158 0 256 -55t98 -144q0 -61 -43 -118q0 92 -86 149.5t-230 57.5q-147 0 -199 -56.5t-52 -165.5v-254q0 -223 276 -223q143 0 235.5 56.5t92.5 162.5q51 -74 51 -125q0 -98 -113.5 -150t-265.5 -52 q-180 0 -283.5 81t-103.5 228z" />
<glyph unicode="&#xab;" horiz-adv-x="1273" d="M139 526q0 45 54 99l423 424q61 -39 62 -82q0 -8 -5 -18.5t-18.5 -26t-20.5 -22.5l-28 -28l-24 -24l-322 -320l432 -432q-37 -55 -76 -55q-35 0 -112 76l-314 315q-51 51 -51 94zM541 526q0 45 53 99l424 424q61 -39 61 -82q0 -8 -5 -18.5t-17.5 -26t-20.5 -22.5 t-27.5 -27.5t-25.5 -24.5l-321 -320l434 -432q-37 -55 -78 -55q-35 0 -111 76l-315 315q-51 51 -51 94z" />
<glyph unicode="&#xad;" d="M161 539q0 24 15 44q16 22 45 21h647q3 -14 4 -29q0 -21 -7 -45q-11 -41 -56 -41h-645q-3 32 -3 50z" />
<glyph unicode="&#xae;" horiz-adv-x="1064" d="M109 883v325q0 135 114.5 213t309 78t309 -78t114.5 -213v-325q0 -137 -114.5 -216t-309 -79t-309 79t-114.5 216zM207 915q0 -119 71.5 -181t247.5 -62q182 0 256 62.5t74 180.5v252q0 119 -73.5 184.5t-256.5 65.5q-176 0 -247.5 -65.5t-71.5 -184.5v-252zM340 829v490 h154q223 0 223 -172q0 -61 -30 -105.5t-83 -58.5q98 -55 131 -199q-45 -10 -65 -10q-39 0 -62 37q-37 127 -162 143v-184q-106 8 -106 59zM446 1036h48q115 0 114 103q0 57 -27.5 76.5t-86.5 19.5h-48v-199z" />
<glyph unicode="&#xb4;" horiz-adv-x="1040" d="M342 1224q-11 10 -11 21q0 15 17 35l146 139q77 76 77 148q0 16 -4 30q74 -45 98 -81q10 -16 10 -36q0 -26 -19 -60q-32 -58 -138 -144l-102 -82q-49 8 -74 30z" />
<glyph unicode="&#xb8;" horiz-adv-x="1773" d="M512 -395q51 -23 98 -23q141 0 142 103q0 49 -39 73.5t-95 24.5l-102 -19q0 6 6 31l68 242q18 0 50 -20.5t24 -51.5l-23 -90q98 0 159.5 -49t61.5 -145q0 -86 -61.5 -134.5t-151.5 -48.5q-137 1 -137 107z" />
<glyph unicode="&#xbb;" horiz-adv-x="1273" d="M139 96l432 432l-321 320l-25 24l-27 28q-7 7 -20.5 22.5t-18.5 25.5t-5 19q0 43 61 82l424 -424q53 -53 53 -99q0 -43 -51 -94l-315 -315q-76 -76 -111 -76q-41 0 -76 55zM541 96l432 432l-322 320l-24 24l-28 28q-7 7 -19.5 22.5t-18.5 25.5t-6 19q0 43 63 82l424 -424 q53 -53 54 -99q0 -43 -52 -94l-315 -315q-78 -76 -111 -76q-40 0 -77 55z" />
<glyph unicode="&#x2c6;" horiz-adv-x="1040" d="M296 1326q0 70 79 134l172 144l174 -144q78 -64 78 -135v-7q-4 -75 -97 -122q12 27 13 51q0 39 -42 94.5t-85 92.5l-41 36l-46 -40q-28 -25 -75 -84.5t-47 -98.5q0 -25 12 -51q-95 50 -95 130z" />
<glyph unicode="&#x2da;" horiz-adv-x="724" d="M188 1313v143q0 53 47.5 86t128 33t129 -33t48.5 -86v-143q0 -55 -48.5 -86t-129 -31t-128 31t-47.5 86zM264 1343q0 -41 21.5 -59t79.5 -18q100 0 100 77v84q0 78 -100 78q-57 0 -79 -19.5t-22 -58.5v-84z" />
<glyph unicode="&#x2dc;" horiz-adv-x="827" d="M136 1351q1 38 30 64.5t88 26.5q55 0 161.5 -50.5t170 -50.5t102.5 58q3 -24 3 -45q0 -56 -20 -87q-28 -42 -100 -42q-57 0 -160.5 49t-164.5 49q-74 0 -107 -53q-3 34 -3 65v16z" />
<glyph unicode="&#x3c0;" horiz-adv-x="2369" d="M225 160q0 193 162 354q47 -182 201 -182q57 0 196.5 37t210.5 37q104 0 189.5 -73t85.5 -173q0 -84 -64.5 -148.5t-148.5 -64.5q80 -66 80 -170q0 -129 -97.5 -202t-208.5 -73q-227 0 -416.5 207t-189.5 451zM885 942q0 147 116 223q57 37 114 37q59 0 118 -41 q-90 0 -161 -55t-71 -158q0 -72 53.5 -152.5t128.5 -155.5l149 -152q75 -77 128 -169t53 -178q0 -150 -116 -225q-56 -36 -112 -36q-60 0 -120 42q90 0 161 55.5t71 157.5q0 72 -53.5 153t-128.5 156l-149 154q-75 78 -128 168t-53 176zM1126 926q0 88 63.5 149.5 t149.5 65.5q-80 68 -79 172q0 123 98 197.5t209 74.5q227 0 415.5 -208t188.5 -453q0 -190 -160 -351q-31 100 -80 141.5t-121 41.5q-57 0 -196 -36t-213 -36q-104 0 -189.5 72t-85.5 170z" />
<glyph unicode="&#x410;" horiz-adv-x="1282" d="M0 -14q10 18 27.5 59t40.5 108l42 128l50 159l49 161l53 174l49 161q125 406 330 565q205 -160 330 -565l50 -161l53 -174l49 -161l49 -159l42 -128q23 -67 40.5 -108t27.5 -59q-6 -2 -20 -2q-27 0 -49.5 6t-40 20.5t-33 29.5t-27.5 42t-22.5 45t-21.5 53t-16 53l-17 58 l-15 53l-43 150h-672l-43 -150l-15 -53l-17 -58q-5 -18 -16 -53t-21.5 -53t-22.5 -45t-27.5 -42t-33 -29.5t-40 -20.5t-49.5 -6q-14 0 -20 2zM338 610h606l-82 271q-43 137 -98 250.5t-88 158.5l-35 45q-14 -16 -37.5 -48t-82 -150.5t-101.5 -255.5z" />
<glyph unicode="&#x412;" horiz-adv-x="1228" d="M180 94v1385h414q475 0 475 -351v-67q0 -111 -52 -193t-140 -118q96 -41 154.5 -126t58.5 -196v-68q0 -182 -133.5 -271t-362.5 -89h-262q-6 0 -15.5 1t-36 6t-47 14.5t-37 27.5t-16.5 45zM305 115h289q195 0 284 67.5t89 210t-88 221t-269 78.5h-305v-577zM305 805h305 q180 0 258 71.5t78 217.5q0 141 -85 204.5t-267 63.5h-289v-557z" />
<glyph unicode="&#x415;" horiz-adv-x="1173" d="M180 94v1385h887v-13q0 -8 -4 -27.5t-11.5 -34.5t-24.5 -27.5t-38 -12.5h-684v-494h522q125 0 154 31q0 -29 -9 -58.5t-43 -58t-89 -28.5h-535v-641h762q0 -14 -2 -34t-21.5 -50.5t-54.5 -30.5h-655q-16 0 -42 2t-69 25.5t-43 66.5z" />
<glyph unicode="&#x41a;" horiz-adv-x="1220" d="M180 72v1427q14 0 35 -2t55.5 -25.5t34.5 -66.5v-553q123 4 216 38t171 106.5t139.5 160.5t137.5 232q61 115 174 114l28 -2q-20 -31 -67 -122t-95 -171t-113 -168t-153 -149.5t-182 -79.5q94 -10 186.5 -79.5t167 -179.5t131 -209t112.5 -213t77 -148q-25 -6 -51 -7 q-49 0 -85 28t-71 93l-24 49l-68 124l-63 114q-40 72 -68 107l-74 89q-45 52 -87 78.5t-95 55t-113.5 40t-130.5 13.5v-786q-14 0 -34.5 2t-55.5 25.5t-35 64.5z" />
<glyph unicode="&#x41c;" horiz-adv-x="1677" d="M180 72v1407h105q10 0 25.5 -3t49 -28t56.5 -70l420 -895l479 996q6 0 18.5 -1t44 -6.5t55 -14.5t44 -28.5t20.5 -44.5v-1404q-12 0 -33.5 2t-55.5 25.5t-34 64.5v1108l10 180l-516 -1047q-63 0 -120 95l-453 958q10 -98 10 -186v-1200q-14 0 -34.5 2t-55.5 25.5 t-35 64.5z" />
<glyph unicode="&#x41d;" horiz-adv-x="1468" d="M180 72v1427q14 0 35 -2t55.5 -25.5t34.5 -66.5v-574h860v668q12 0 34 -2t55.5 -25.5t33.5 -66.5v-1425q-12 0 -33.5 2t-55.5 25.5t-34 64.5v641h-860v-733q-14 0 -34.5 2t-55.5 25.5t-35 64.5z" />
<glyph unicode="&#x41e;" horiz-adv-x="1441" d="M160 434v610q0 221 139 340t424 119q281 0 420 -118.5t139 -340.5v-610q0 -221 -139 -340t-420 -119q-285 0 -424 119t-139 340zM283 463q0 -186 91 -279.5t346 -93.5t347 93t92 280v553q0 186 -92 279.5t-346 93.5q-133 0 -221 -27t-134.5 -79t-64.5 -114.5t-18 -152.5 v-553z" />
<glyph unicode="&#x420;" horiz-adv-x="1204" d="M180 72v1407h350q96 0 174 -12.5t151 -44t124 -82t81 -132.5t30 -190v-39q0 -461 -560 -461h-225v-538q-14 0 -34.5 2t-55.5 25.5t-35 64.5zM305 633h225q215 0 326 76.5t111 289.5q0 197 -114 281t-323 84h-225v-731z" />
<glyph unicode="&#x421;" horiz-adv-x="1404" d="M160 455v569q0 248 161.5 363.5t411.5 115.5q55 0 107.5 -3t118 -11t118.5 -24.5t100.5 -44t70.5 -64.5q22 -34 22 -85q0 -61 -39 -134q0 74 -52.5 126t-135 76.5t-159.5 34.5t-151 10q-451 0 -450 -389v-510q0 -391 440 -391q70 0 137.5 7.5t162.5 31t152.5 81.5 t55.5 144q35 -74 35 -136q0 -51 -21 -86q-23 -38 -67.5 -67.5t-98 -47t-118 -28.5t-121 -14.5t-117.5 -3.5q-250 0 -406.5 115t-156.5 365z" />
<glyph unicode="&#x422;" horiz-adv-x="1130" d="M4 1507q20 -29 158 -28h809q137 0 155 28q0 -29 -7 -56.5t-35.5 -57t-77.5 -29.5h-381v-1384q-14 0 -35 2t-55.5 25.5t-34.5 64.5v1292h-373q-70 0 -96.5 47t-26.5 96z" />
<glyph unicode="&#x425;" horiz-adv-x="1118" d="M2 1487q0 2 29 2q100 0 164 -115l54 -106l57 -109l53 -92q36 -61 61.5 -97t63.5 -81t77 -80q43 43 81 88t82 117l62 102q18 31 73.5 134.5l66.5 123.5q63 115 164 115l28 -2q-20 -33 -96 -190.5t-171 -315.5t-194 -248q98 -98 192.5 -257t170.5 -312.5t94 -183.5 q-8 -1 -16 -1q-115 0 -176 113l-89.5 169t-93 170t-78 115.5t-100.5 112.5q-41 -35 -76.5 -77.5t-75.5 -107.5l-64 -105q-24 -41 -76 -140l-72 -137q-25 -41 -49.5 -66.5t-52 -34.5t-45 -10t-46.5 -1q18 31 93 184t170 312t194 257q-98 90 -193.5 248t-170.5 315.5 t-95 190.5z" />
<glyph unicode="&#x430;" horiz-adv-x="1056" d="M115 276q0 111 63.5 180.5t155.5 98.5t188 48.5t174 54t97 92.5q0 102 -58.5 157.5t-210.5 55.5q-154 0 -240.5 -60.5t-86.5 -163.5q-45 59 -45 127q0 94 102 152.5t270 58.5q193 0 289 -87t96 -247v-753q-55 20 -129 20q-31 0 -123 -17.5t-139 -17.5q-195 0 -299 83 t-104 218zM236 274q0 -86 73.5 -138t225.5 -52q70 0 134 13.5t93 25.5l31 16v471q-12 -47 -104.5 -74.5t-192 -43t-180 -70t-80.5 -148.5z" />
<glyph unicode="&#x435;" horiz-adv-x="1056" d="M139 305v443q0 156 100.5 242.5t290.5 86.5q186 0 293 -84t107 -225q0 -135 -99.5 -216t-310.5 -81q-139 0 -264 55v-190q0 -125 63.5 -185.5t221.5 -60.5q154 0 253 60.5t99 173.5q49 -68 49 -136q0 -102 -121 -157.5t-280 -55.5q-184 0 -293 87t-109 243zM256 635 l47 -17q119 -33 207 -32q303 0 303 182q0 199 -278 199q-160 0 -219.5 -61.5t-59.5 -190.5v-80z" />
<glyph unicode="&#x43e;" horiz-adv-x="1142" d="M139 305v443q0 158 108.5 243.5t326 85.5t325 -86t107.5 -243v-443q0 -330 -433 -330q-434 0 -434 330zM256 336q0 -129 64.5 -190.5t252.5 -61.5q184 0 250 61.5t66 190.5v379q0 131 -65.5 191.5t-251 60.5t-251 -60.5t-65.5 -191.5v-379z" />
<glyph unicode="&#x43f;" horiz-adv-x="2369" d="M225 160q0 193 162 354q47 -182 201 -182q57 0 196.5 37t210.5 37q104 0 189.5 -73t85.5 -173q0 -84 -64.5 -148.5t-148.5 -64.5q80 -66 80 -170q0 -129 -97.5 -202t-208.5 -73q-227 0 -416.5 207t-189.5 451zM885 942q0 147 116 223q57 37 114 37q59 0 118 -41 q-90 0 -161 -55t-71 -158q0 -72 53.5 -152.5t128.5 -155.5l149 -152q75 -77 128 -169t53 -178q0 -150 -116 -225q-56 -36 -112 -36q-60 0 -120 42q90 0 161 55.5t71 157.5q0 72 -53.5 153t-128.5 156l-149 154q-75 78 -128 168t-53 176zM1126 926q0 88 63.5 149.5 t149.5 65.5q-80 68 -79 172q0 123 98 197.5t209 74.5q227 0 415.5 -208t188.5 -453q0 -190 -160 -351q-31 100 -80 141.5t-121 41.5q-57 0 -196 -36t-213 -36q-104 0 -189.5 72t-85.5 170z" />
<glyph unicode="&#x440;" horiz-adv-x="1097" d="M160 -414v1475q53 -27 106 -27q25 0 114 21.5t163 21.5q207 0 312.5 -85t105.5 -240v-455q0 -156 -109 -239t-260 -83q-72 0 -135.5 13.5t-100.5 33t-61.5 40t-34.5 32.5t-6 12q23 -41 22 -225v-266v-141q-116 -1 -116 112zM276 307q0 -96 95.5 -159.5t216.5 -63.5 q115 0 185.5 61.5t70.5 182.5v393q0 129 -67.5 187.5t-239.5 58.5q-66 0 -131.5 -12.5t-96.5 -26.5l-33 -15v-606z" />
<glyph unicode="&#x441;" horiz-adv-x="1048" d="M139 305v443q0 156 106.5 242.5t295.5 86.5q166 0 267 -57t101 -154q0 -66 -47 -127q0 102 -86 163t-239 61q-281 0 -281 -238v-399q0 -109 78 -172.5t228.5 -63.5t245.5 59.5t95 174.5q53 -76 53 -134q0 -104 -116.5 -159.5t-276.5 -55.5q-195 0 -309.5 87t-114.5 243z " />
<glyph unicode="&#x443;" horiz-adv-x="1030" d="M96 1065q12 0 31.5 -2t53.5 -25.5t38 -66.5l43 -371q8 -74 39 -145.5t69 -121.5t73.5 -88t58.5 -57l26 -20q10 6 26.5 20.5t58.5 58.5t77 91t65.5 119.5t39.5 142.5l39 361q4 41 28.5 64.5t42 28.5t51.5 9l-41 -412q-31 -344 -305 -553l-82 -63l-88 -70 q-23 -18 -67.5 -60t-59 -70t-30 -71t-15.5 -92q0 -76 49 -190q-16 -4 -32 -4q-55 0 -96.5 45t-41.5 158q0 221 302 423q-98 61 -194.5 204t-115.5 343z" />
<glyph unicode="&#x445;" horiz-adv-x="899" d="M35 -12q4 8 30.5 51t38.5 65l150 252l52.5 81t49.5 67l19 24q-63 70 -121 168l-143 242l-46 75q-28 44 -30 50q6 4 26 4q98 0 160 -98l230 -369l231 369q61 98 160 98l26 -4q-2 -6 -29 -50l-46 -75l-144 -242q-25 -43 -55.5 -85t-48.5 -62l-17 -21q70 -86 121 -172 l150 -252q12 -23 38.5 -65.5t30.5 -50.5q-6 -2 -26 -2q-106 0 -164 96l-227 369l-226 -369q-57 -96 -164 -96z" />
<glyph unicode="&#x2010;" d="M161 539q0 24 15 44q16 22 45 21h647q3 -14 4 -29q0 -21 -7 -45q-11 -41 -56 -41h-645q-3 32 -3 50z" />
<glyph unicode="&#x2011;" d="M161 539q0 24 15 44q16 22 45 21h647q3 -14 4 -29q0 -21 -7 -45q-11 -41 -56 -41h-645q-3 32 -3 50z" />
<glyph unicode="&#x2012;" d="M161 539q0 24 15 44q16 22 45 21h647q3 -14 4 -29q0 -21 -7 -45q-11 -41 -56 -41h-645q-3 32 -3 50z" />
<glyph unicode="&#x2013;" horiz-adv-x="1474" d="M75 539q0 24 15 44q16 22 47 21h1260q3 -14 3 -29q0 -21 -6 -45q-11 -41 -57 -41h-1259q-3 32 -3 50z" />
<glyph unicode="&#x2014;" horiz-adv-x="1681" d="M75 539q0 24 15 44q16 22 47 21h1467q3 -14 3 -29q0 -21 -6 -45q-11 -41 -57 -41h-1466q-3 32 -3 50z" />
<glyph unicode="&#x2018;" horiz-adv-x="460" d="M164 1110v123q0 246 115 246q37 0 73 -23q-16 -2 -26.5 -8t-17.5 -16.5t-13 -20.5t-7 -25.5t-3 -26.5t-1 -29.5t2 -27.5l3 -29q2 -19 2 -26l24 -160h-39h-96q-16 0 -16 23z" />
<glyph unicode="&#x2019;" horiz-adv-x="460" d="M111 1110q66 11 66 127q0 31 -5 70q-2 8 -2 12l-23 160h37h97q18 0 18 -23v-123q0 -246 -117 -246q-34 0 -71 23z" />
<glyph unicode="&#x201a;" horiz-adv-x="460" d="M111 -213q66 11 66 127q0 31 -5 70q-2 8 -2 12l-23 160h37h97q18 0 18 -21v-125q0 -244 -117 -243q-34 0 -71 20z" />
<glyph unicode="&#x201c;" horiz-adv-x="749" d="M164 1110v123q0 246 115 246q37 0 73 -23q-16 -2 -26.5 -8t-17.5 -16.5t-13 -20.5t-7 -25.5t-3 -26.5t-1 -29.5t2 -27.5l3 -29q2 -19 2 -26l24 -160h-39h-96q-16 0 -16 23zM451 1110v123q0 246 116 246q35 0 72 -23q-14 -2 -25.5 -8t-18.5 -16.5t-12 -20.5t-6.5 -25.5 t-3.5 -26.5t-1 -29.5t2 -27.5l4 -29q2 -19 2 -26l22 -160h-37h-96q-18 0 -18 23z" />
<glyph unicode="&#x201d;" horiz-adv-x="741" d="M111 1110q66 11 66 127q0 31 -5 70q-2 8 -2 12l-23 160h37h97q18 0 18 -23v-123q0 -246 -117 -246q-34 0 -71 23zM391 1110q68 12 68 132q0 29 -4 65q-4 8 -4 12l-23 160h39h96q16 0 17 -23v-123q0 -246 -115 -246q-37 0 -74 23z" />
<glyph unicode="&#x201e;" horiz-adv-x="741" d="M111 -213q66 11 66 127q0 31 -5 70q-2 8 -2 12l-23 160h37h97q18 0 18 -21v-125q0 -244 -117 -243q-34 0 -71 20zM391 -213q68 12 68 132q0 29 -4 65q-4 8 -4 12l-23 160h39h96q16 0 17 -21v-125q0 -244 -115 -243q-37 0 -74 20z" />
<glyph unicode="&#x2026;" horiz-adv-x="1411" d="M164 35v121h115q29 0 28 -33v-123h-114q-29 0 -29 35zM635 35v121h115q29 0 28 -33v-123h-116q-27 0 -27 35zM1106 35v121h115q27 0 26 -33v-123h-114q-27 0 -27 35z" />
<glyph unicode="&#x2039;" horiz-adv-x="872" d="M139 526q0 45 54 99l423 424q61 -39 62 -82q0 -8 -5 -18.5t-18.5 -26t-20.5 -22.5l-28 -28l-24 -24l-322 -320l432 -432q-37 -55 -76 -55q-35 0 -112 76l-314 315q-51 51 -51 94z" />
<glyph unicode="&#x203a;" horiz-adv-x="872" d="M139 96l432 432l-321 320l-25 24l-27 28q-7 7 -20.5 22.5t-18.5 25.5t-5 19q0 43 61 82l424 -424q53 -53 53 -99q0 -43 -51 -94l-315 -315q-76 -76 -111 -76q-41 0 -76 55z" />
<glyph unicode="&#x20ac;" horiz-adv-x="1277" d="M160 455v569q0 250 148.5 364.5t391.5 114.5q168 0 285 -62.5t117 -158.5q0 -66 -47 -127q0 100 -99.5 164.5t-255.5 64.5q-203 0 -310 -91t-107 -298v-57h708v-12q0 -8 -6 -28.5t-15 -35t-34 -28t-59 -13.5h-594v-147h575v-12q0 -8 -5 -28t-14.5 -35t-34 -28.5 t-59.5 -13.5h-462v-72q0 -391 424 -391q160 0 276.5 59.5t116.5 170.5q41 -73 41 -129q0 -16 -3 -31q-15 -66 -89 -108t-162 -61.5t-180 -19.5q-246 0 -396.5 114t-150.5 366z" />
<glyph unicode="&#x2122;" horiz-adv-x="2191" d="M127 1268v211h754v-211q0 -53 -95 -74v190h-231v-714q-109 18 -109 69v645h-223v-190q-96 29 -96 74zM1098 739v740q45 0 73.5 -3t62.5 -19.5t52 -49.5l291 -471l338 543q106 0 106 -70v-739q-106 18 -106 69v461l8 94l-315 -493q-82 18 -117 73l-291 455q6 -74 6 -129 v-530q-108 18 -108 69z" />
<glyph unicode="&#xe000;" horiz-adv-x="1065" d="M0 1065h1065v-1065h-1065v1065z" />
<glyph horiz-adv-x="595" />
</font>
</defs>
</svg>
